  0
SECTION
  2
HEADER
  9
$ACADVER
  1
AC1027
  9
$ACADMAINTVER
 70
105
  9
$DWGCODEPAGE
  3
ANSI_1252
  9
$LASTSAVEDBY
  1
ezdxf
  9
$REQUIREDVERSIONS
160
0
  9
$INSBASE
 10
0.0
 20
0.0
 30
0.0
  9
$EXTMIN
 10
1e+20
 20
1e+20
 30
1e+20
  9
$EXTMAX
 10
-1e+20
 20
-1e+20
 30
-1e+20
  9
$LIMMIN
 10
0.0
 20
0.0
  9
$LIMMAX
 10
420.0
 20
297.0
  9
$ORTHOMODE
 70
0
  9
$REGENMODE
 70
1
  9
$FILLMODE
 70
1
  9
$QTEXTMODE
 70
0
  9
$MIRRTEXT
 70
1
  9
$LTSCALE
 40
1.0
  9
$ATTMODE
 70
1
  9
$TEXTSIZE
 40
2.5
  9
$TRACEWID
 40
1.0
  9
$TEXTSTYLE
  7
OpenSans
  9
$CLAYER
  8
0
  9
$CELTYPE
  6
ByLayer
  9
$CECOLOR
 62
256
  9
$CELTSCALE
 40
1.0
  9
$DISPSILH
 70
0
  9
$DIMSCALE
 40
1.0
  9
$DIMASZ
 40
0.175
  9
$DIMEXO
 40
0.125
  9
$DIMDLI
 40
3.75
  9
$DIMRND
 40
0.0
  9
$DIMDLE
 40
0.0
  9
$DIMEXE
 40
0.375
  9
$DIMTP
 40
0.0
  9
$DIMTM
 40
0.0
  9
$DIMTXT
 40
0.25
  9
$DIMCEN
 40
2.5
  9
$DIMTSZ
 40
0.0
  9
$DIMTOL
 70
0
  9
$DIMLIM
 70
0
  9
$DIMTIH
 70
0
  9
$DIMTOH
 70
0
  9
$DIMSE1
 70
0
  9
$DIMSE2
 70
0
  9
$DIMTAD
 70
1
  9
$DIMZIN
 70
12
  9
$DIMBLK
  1
ARCHTICK
  9
$DIMASO
 70
1
  9
$DIMSHO
 70
1
  9
$DIMPOST
  1

  9
$DIMAPOST
  1

  9
$DIMALT
 70
0
  9
$DIMALTD
 70
3
  9
$DIMALTF
 40
0.03937007874
  9
$DIMLFAC
 40
100.0
  9
$DIMTOFL
 70
1
  9
$DIMTVP
 40
0.0
  9
$DIMTIX
 70
0
  9
$DIMSOXD
 70
0
  9
$DIMSAH
 70
0
  9
$DIMBLK1
  1

  9
$DIMBLK2
  1

  9
$DIMSTYLE
  2
EZDXF
  9
$DIMCLRD
 70
0
  9
$DIMCLRE
 70
0
  9
$DIMCLRT
 70
0
  9
$DIMTFAC
 40
0.5
  9
$DIMGAP
 40
0.1
  9
$DIMJUST
 70
0
  9
$DIMSD1
 70
0
  9
$DIMSD2
 70
0
  9
$DIMTOLJ
 70
0
  9
$DIMTZIN
 70
8
  9
$DIMALTZ
 70
0
  9
$DIMALTTZ
 70
0
  9
$DIMUPT
 70
1
  9
$DIMDEC
 70
2
  9
$DIMTDEC
 70
2
  9
$DIMALTU
 70
2
  9
$DIMALTTD
 70
3
  9
$DIMTXSTY
  7
OpenSansCondensed-Light
  9
$DIMAUNIT
 70
0
  9
$DIMADEC
 70
2
  9
$DIMALTRND
 40
0.0
  9
$DIMAZIN
 70
3
  9
$DIMDSEP
 70
46
  9
$DIMATFIT
 70
3
  9
$DIMFRAC
 70
0
  9
$DIMLDRBLK
  1

  9
$DIMLUNIT
 70
2
  9
$DIMLWD
 70
-2
  9
$DIMLWE
 70
-2
  9
$DIMTMOVE
 70
2
  9
$DIMFXL
 40
1.0
  9
$DIMFXLON
 70
0
  9
$DIMJOGANG
 40
0.785398163397
  9
$DIMTFILL
 70
0
  9
$DIMTFILLCLR
 70
0
  9
$DIMARCSYM
 70
0
  9
$DIMLTYPE
  6

  9
$DIMLTEX1
  6

  9
$DIMLTEX2
  6

  9
$DIMTXTDIRECTION
 70
0
  9
$LUNITS
 70
2
  9
$LUPREC
 70
4
  9
$SKETCHINC
 40
1.0
  9
$FILLETRAD
 40
10.0
  9
$AUNITS
 70
0
  9
$AUPREC
 70
2
  9
$MENU
  1
.
  9
$ELEVATION
 40
0.0
  9
$PELEVATION
 40
0.0
  9
$THICKNESS
 40
0.0
  9
$LIMCHECK
 70
0
  9
$CHAMFERA
 40
0.0
  9
$CHAMFERB
 40
0.0
  9
$CHAMFERC
 40
0.0
  9
$CHAMFERD
 40
0.0
  9
$SKPOLY
 70
0
  9
$TDCREATE
 40
2461267.475162037
  9
$TDUCREATE
 40
2458532.153996898
  9
$TDUPDATE
 40
2461267.475162037
  9
$TDUUPDATE
 40
2458532.1544311
  9
$TDINDWG
 40
0.0
  9
$TDUSRTIMER
 40
0.0
  9
$USRTIMER
 70
1
  9
$ANGBASE
 50
0.0
  9
$ANGDIR
 70
0
  9
$PDMODE
 70
0
  9
$PDSIZE
 40
0.0
  9
$PLINEWID
 40
0.0
  9
$SPLFRAME
 70
0
  9
$SPLINETYPE
 70
6
  9
$SPLINESEGS
 70
8
  9
$HANDSEED
  5
307
  9
$SURFTAB1
 70
6
  9
$SURFTAB2
 70
6
  9
$SURFTYPE
 70
6
  9
$SURFU
 70
6
  9
$SURFV
 70
6
  9
$UCSBASE
  2

  9
$UCSNAME
  2

  9
$UCSORG
 10
0.0
 20
0.0
 30
0.0
  9
$UCSXDIR
 10
1.0
 20
0.0
 30
0.0
  9
$UCSYDIR
 10
0.0
 20
1.0
 30
0.0
  9
$UCSORTHOREF
  2

  9
$UCSORTHOVIEW
 70
0
  9
$UCSORGTOP
 10
0.0
 20
0.0
 30
0.0
  9
$UCSORGBOTTOM
 10
0.0
 20
0.0
 30
0.0
  9
$UCSORGLEFT
 10
0.0
 20
0.0
 30
0.0
  9
$UCSORGRIGHT
 10
0.0
 20
0.0
 30
0.0
  9
$UCSORGFRONT
 10
0.0
 20
0.0
 30
0.0
  9
$UCSORGBACK
 10
0.0
 20
0.0
 30
0.0
  9
$PUCSBASE
  2

  9
$PUCSNAME
  2

  9
$PUCSORG
 10
0.0
 20
0.0
 30
0.0
  9
$PUCSXDIR
 10
1.0
 20
0.0
 30
0.0
  9
$PUCSYDIR
 10
0.0
 20
1.0
 30
0.0
  9
$PUCSORTHOREF
  2

  9
$PUCSORTHOVIEW
 70
0
  9
$PUCSORGTOP
 10
0.0
 20
0.0
 30
0.0
  9
$PUCSORGBOTTOM
 10
0.0
 20
0.0
 30
0.0
  9
$PUCSORGLEFT
 10
0.0
 20
0.0
 30
0.0
  9
$PUCSORGRIGHT
 10
0.0
 20
0.0
 30
0.0
  9
$PUCSORGFRONT
 10
0.0
 20
0.0
 30
0.0
  9
$PUCSORGBACK
 10
0.0
 20
0.0
 30
0.0
  9
$USERI1
 70
0
  9
$USERI2
 70
0
  9
$USERI3
 70
0
  9
$USERI4
 70
0
  9
$USERI5
 70
0
  9
$USERR1
 40
0.0
  9
$USERR2
 40
0.0
  9
$USERR3
 40
0.0
  9
$USERR4
 40
0.0
  9
$USERR5
 40
0.0
  9
$WORLDVIEW
 70
1
  9
$SHADEDGE
 70
3
  9
$SHADEDIF
 70
70
  9
$TILEMODE
 70
1
  9
$MAXACTVP
 70
64
  9
$PINSBASE
 10
0.0
 20
0.0
 30
0.0
  9
$PLIMCHECK
 70
0
  9
$PEXTMIN
 10
1e+20
 20
1e+20
 30
1e+20
  9
$PEXTMAX
 10
-1e+20
 20
-1e+20
 30
-1e+20
  9
$PLIMMIN
 10
0.0
 20
0.0
  9
$PLIMMAX
 10
420.0
 20
297.0
  9
$UNITMODE
 70
0
  9
$VISRETAIN
 70
1
  9
$PLINEGEN
 70
0
  9
$PSLTSCALE
 70
1
  9
$TREEDEPTH
 70
3020
  9
$CMLSTYLE
  2
Standard
  9
$CMLJUST
 70
0
  9
$CMLSCALE
 40
20.0
  9
$PROXYGRAPHICS
 70
1
  9
$MEASUREMENT
 70
1
  9
$CELWEIGHT
370
-1
  9
$ENDCAPS
280
0
  9
$JOINSTYLE
280
0
  9
$LWDISPLAY
290
0
  9
$INSUNITS
 70
4
  9
$HYPERLINKBASE
  1

  9
$STYLESHEET
  1

  9
$XEDIT
290
1
  9
$CEPSNTYPE
380
0
  9
$PSTYLEMODE
290
1
  9
$FINGERPRINTGUID
  2
{B37C9250-9759-4FE9-B9D4-91A210D0FB9D}
  9
$VERSIONGUID
  2
{E6386172-F955-44B1-892F-560A1F435DAB}
  9
$EXTNAMES
290
1
  9
$PSVPSCALE
 40
0.0
  9
$OLESTARTUP
290
0
  9
$SORTENTS
280
127
  9
$INDEXCTL
280
0
  9
$HIDETEXT
280
1
  9
$XCLIPFRAME
280
1
  9
$HALOGAP
280
0
  9
$OBSCOLOR
 70
257
  9
$OBSLTYPE
280
0
  9
$INTERSECTIONDISPLAY
280
0
  9
$INTERSECTIONCOLOR
 70
257
  9
$DIMASSOC
280
2
  9
$PROJECTNAME
  1

  9
$CAMERADISPLAY
290
0
  9
$LENSLENGTH
 40
50.0
  9
$CAMERAHEIGHT
 40
0.0
  9
$STEPSPERSEC
 40
24.0
  9
$STEPSIZE
 40
100.0
  9
$3DDWFPREC
 40
2.0
  9
$PSOLWIDTH
 40
0.005
  9
$PSOLHEIGHT
 40
0.08
  9
$LOFTANG1
 40
1.570796326795
  9
$LOFTANG2
 40
1.570796326795
  9
$LOFTMAG1
 40
0.0
  9
$LOFTMAG2
 40
0.0
  9
$LOFTPARAM
 70
7
  9
$LOFTNORMALS
280
1
  9
$LATITUDE
 40
37.795
  9
$LONGITUDE
 40
-122.394
  9
$NORTHDIRECTION
 40
0.0
  9
$TIMEZONE
 70
-8000
  9
$LIGHTGLYPHDISPLAY
280
1
  9
$TILEMODELIGHTSYNCH
280
1
  9
$CMATERIAL
347
20
  9
$SOLIDHIST
280
0
  9
$SHOWHIST
280
1
  9
$DWFFRAME
280
2
  9
$DGNFRAME
280
2
  9
$REALWORLDSCALE
290
1
  9
$INTERFERECOLOR
 62
256
  9
$CSHADOW
280
0
  9
$SHADOWPLANELOCATION
 40
0.0
  0
ENDSEC
  0
SECTION
  2
CLASSES
  0
CLASS
  1
ACDBDICTIONARYWDFLT
  2
AcDbDictionaryWithDefault
  3
ObjectDBX Classes
 90
0
 91
0
280
0
281
0
  0
CLASS
  1
SUN
  2
AcDbSun
  3
SCENEOE
 90
1153
 91
0
280
0
281
0
  0
CLASS
  1
VISUALSTYLE
  2
AcDbVisualStyle
  3
ObjectDBX Classes
 90
4095
 91
0
280
0
281
0
  0
CLASS
  1
MATERIAL
  2
AcDbMaterial
  3
ObjectDBX Classes
 90
1153
 91
0
280
0
281
0
  0
CLASS
  1
SCALE
  2
AcDbScale
  3
ObjectDBX Classes
 90
1153
 91
0
280
0
281
0
  0
CLASS
  1
TABLESTYLE
  2
AcDbTableStyle
  3
ObjectDBX Classes
 90
4095
 91
0
280
0
281
0
  0
CLASS
  1
MLEADERSTYLE
  2
AcDbMLeaderStyle
  3
ACDB_MLEADERSTYLE_CLASS
 90
4095
 91
0
280
0
281
0
  0
CLASS
  1
DICTIONARYVAR
  2
AcDbDictionaryVar
  3
ObjectDBX Classes
 90
0
 91
0
280
0
281
0
  0
CLASS
  1
CELLSTYLEMAP
  2
AcDbCellStyleMap
  3
ObjectDBX Classes
 90
1152
 91
0
280
0
281
0
  0
CLASS
  1
MENTALRAYRENDERSETTINGS
  2
AcDbMentalRayRenderSettings
  3
SCENEOE
 90
1024
 91
0
280
0
281
0
  0
CLASS
  1
ACDBDETAILVIEWSTYLE
  2
AcDbDetailViewStyle
  3
ObjectDBX Classes
 90
1025
 91
0
280
0
281
0
  0
CLASS
  1
ACDBSECTIONVIEWSTYLE
  2
AcDbSectionViewStyle
  3
ObjectDBX Classes
 90
1025
 91
0
280
0
281
0
  0
CLASS
  1
RASTERVARIABLES
  2
AcDbRasterVariables
  3
ISM
 90
0
 91
0
280
0
281
0
  0
CLASS
  1
ACDBPLACEHOLDER
  2
AcDbPlaceHolder
  3
ObjectDBX Classes
 90
0
 91
0
280
0
281
0
  0
CLASS
  1
LAYOUT
  2
AcDbLayout
  3
ObjectDBX Classes
 90
0
 91
0
280
0
281
0
  0
ENDSEC
  0
SECTION
  2
TABLES
  0
TABLE
  2
VPORT
  5
8
330
0
100
AcDbSymbolTable
 70
1
  0
VPORT
  5
303
330
8
100
AcDbSymbolTableRecord
100
AcDbViewportTableRecord
  2
*Active
 70
0
 10
0.0
 20
0.0
 11
1.0
 21
1.0
 12
71.875
 22
-68.25
 13
0.0
 23
0.0
 14
0.5
 24
0.5
 15
0.5
 25
0.5
 16
0.0
 26
0.0
 36
1.0
 17
0.0
 27
0.0
 37
0.0
 40
568.5
 41
1.34
 42
50.0
 43
0.0
 44
0.0
 50
0.0
 51
0.0
 71
0
 72
1000
 73
1
 74
3
 75
0
 76
0
 77
0
 78
0
281
0
 65
1
110
0.0
120
0.0
130
0.0
111
1.0
121
0.0
131
0.0
112
0.0
122
1.0
132
0.0
 79
0
146
0.0
  0
ENDTAB
  0
TABLE
  2
LTYPE
  5
2
330
0
100
AcDbSymbolTable
 70
21
  0
LTYPE
  5
24
330
2
100
AcDbSymbolTableRecord
100
AcDbLinetypeTableRecord
  2
ByBlock
 70
0
  3

 72
65
 73
0
 40
0.0
  0
LTYPE
  5
25
330
2
100
AcDbSymbolTableRecord
100
AcDbLinetypeTableRecord
  2
ByLayer
 70
0
  3

 72
65
 73
0
 40
0.0
  0
LTYPE
  5
26
330
2
100
AcDbSymbolTableRecord
100
AcDbLinetypeTableRecord
  2
Continuous
 70
0
  3

 72
65
 73
0
 40
0.0
  0
LTYPE
  5
2F
330
2
100
AcDbSymbolTableRecord
100
AcDbLinetypeTableRecord
  2
CENTER
 70
0
  3
Center ____ _ ____ _ ____ _ ____ _ ____ _ ____
 72
65
 73
4
 40
5.08
 49
3.175
 74
0
 49
-0.635
 74
0
 49
0.635
 74
0
 49
-0.635
 74
0
  0
LTYPE
  5
30
330
2
100
AcDbSymbolTableRecord
100
AcDbLinetypeTableRecord
  2
CENTERX2
 70
0
  3
Center (2x) ________  __  ________  __  ________
 72
65
 73
4
 40
8.89
 49
6.35
 74
0
 49
-0.635
 74
0
 49
1.27
 74
0
 49
-0.635
 74
0
  0
LTYPE
  5
31
330
2
100
AcDbSymbolTableRecord
100
AcDbLinetypeTableRecord
  2
CENTER2
 70
0
  3
Center (.5x) ____ _ ____ _ ____ _ ____ _ ____
 72
65
 73
4
 40
2.54
 49
1.587
 74
0
 49
-0.318
 74
0
 49
0.318
 74
0
 49
-0.318
 74
0
  0
LTYPE
  5
32
330
2
100
AcDbSymbolTableRecord
100
AcDbLinetypeTableRecord
  2
DASHED
 70
0
  3
Dashed __ __ __ __ __ __ __ __ __ __ __ __ __ _
 72
65
 73
2
 40
1.524
 49
1.27
 74
0
 49
-0.254
 74
0
  0
LTYPE
  5
33
330
2
100
AcDbSymbolTableRecord
100
AcDbLinetypeTableRecord
  2
DASHEDX2
 70
0
  3
Dashed (2x) ____  ____  ____  ____  ____  ____
 72
65
 73
2
 40
3.048
 49
2.54
 74
0
 49
-0.508
 74
0
  0
LTYPE
  5
34
330
2
100
AcDbSymbolTableRecord
100
AcDbLinetypeTableRecord
  2
DASHED2
 70
0
  3
Dashed (.5x) _ _ _ _ _ _ _ _ _ _ _ _ _ _
 72
65
 73
2
 40
0.762
 49
0.635
 74
0
 49
-0.127
 74
0
  0
LTYPE
  5
35
330
2
100
AcDbSymbolTableRecord
100
AcDbLinetypeTableRecord
  2
PHANTOM
 70
0
  3
Phantom ______  __  __  ______  __  __  ______
 72
65
 73
6
 40
6.35
 49
3.175
 74
0
 49
-0.635
 74
0
 49
0.635
 74
0
 49
-0.635
 74
0
 49
0.635
 74
0
 49
-0.635
 74
0
  0
LTYPE
  5
36
330
2
100
AcDbSymbolTableRecord
100
AcDbLinetypeTableRecord
  2
PHANTOMX2
 70
0
  3
Phantom (2x)____________    ____    ____    ____________
 72
65
 73
6
 40
10.795
 49
6.35
 74
0
 49
-0.635
 74
0
 49
1.27
 74
0
 49
-0.635
 74
0
 49
1.27
 74
0
 49
-0.635
 74
0
  0
LTYPE
  5
37
330
2
100
AcDbSymbolTableRecord
100
AcDbLinetypeTableRecord
  2
PHANTOM2
 70
0
  3
Phantom (.5x) ___ _ _ ___ _ _ ___ _ _ ___ _ _ ___
 72
65
 73
6
 40
3.175
 49
1.587
 74
0
 49
-0.318
 74
0
 49
0.318
 74
0
 49
-0.318
 74
0
 49
0.318
 74
0
 49
-0.318
 74
0
  0
LTYPE
  5
38
330
2
100
AcDbSymbolTableRecord
100
AcDbLinetypeTableRecord
  2
DASHDOT
 70
0
  3
Dash dot __ . __ . __ . __ . __ . __ . __ . __
 72
65
 73
4
 40
3.556
 49
2.54
 74
0
 49
-0.508
 74
0
 49
0.0
 74
0
 49
-0.508
 74
0
  0
LTYPE
  5
39
330
2
100
AcDbSymbolTableRecord
100
AcDbLinetypeTableRecord
  2
DASHDOTX2
 70
0
  3
Dash dot (2x) ____  .  ____  .  ____  .  ____
 72
65
 73
4
 40
6.096
 49
5.08
 74
0
 49
-0.508
 74
0
 49
0.0
 74
0
 49
-0.508
 74
0
  0
LTYPE
  5
3A
330
2
100
AcDbSymbolTableRecord
100
AcDbLinetypeTableRecord
  2
DASHDOT2
 70
0
  3
Dash dot (.5x) _ . _ . _ . _ . _ . _ . _ . _
 72
65
 73
4
 40
1.778
 49
1.27
 74
0
 49
-0.254
 74
0
 49
0.0
 74
0
 49
-0.254
 74
0
  0
LTYPE
  5
3B
330
2
100
AcDbSymbolTableRecord
100
AcDbLinetypeTableRecord
  2
DOT
 70
0
  3
Dot .  .  .  .  .  .  .  .  .  .  .  .  .  .  .  .
 72
65
 73
2
 40
0.508
 49
0.0
 74
0
 49
-0.508
 74
0
  0
LTYPE
  5
3C
330
2
100
AcDbSymbolTableRecord
100
AcDbLinetypeTableRecord
  2
DOTX2
 70
0
  3
Dot (2x) .    .    .    .    .    .    .    . 
 72
65
 73
2
 40
1.016
 49
0.0
 74
0
 49
-1.016
 74
0
  0
LTYPE
  5
3D
330
2
100
AcDbSymbolTableRecord
100
AcDbLinetypeTableRecord
  2
DOT2
 70
0
  3
Dot (.5) . . . . . . . . . . . . . . . . . . . 
 72
65
 73
2
 40
0.254
 49
0.0
 74
0
 49
-0.254
 74
0
  0
LTYPE
  5
3E
330
2
100
AcDbSymbolTableRecord
100
AcDbLinetypeTableRecord
  2
DIVIDE
 70
0
  3
Divide __ . . __ . . __ . . __ . . __ . . __
 72
65
 73
6
 40
4.064
 49
2.54
 74
0
 49
-0.508
 74
0
 49
0.0
 74
0
 49
-0.508
 74
0
 49
0.0
 74
0
 49
-0.508
 74
0
  0
LTYPE
  5
3F
330
2
100
AcDbSymbolTableRecord
100
AcDbLinetypeTableRecord
  2
DIVIDEX2
 70
0
  3
Divide (2x) ____  . .  ____  . .  ____  . .  ____
 72
65
 73
6
 40
6.604
 49
5.08
 74
0
 49
-0.508
 74
0
 49
0.0
 74
0
 49
-0.508
 74
0
 49
0.0
 74
0
 49
-0.508
 74
0
  0
LTYPE
  5
40
330
2
100
AcDbSymbolTableRecord
100
AcDbLinetypeTableRecord
  2
DIVIDE2
 70
0
  3
Divide(.5x) _ . _ . _ . _ . _ . _ . _ . _
 72
65
 73
6
 40
2.032
 49
1.27
 74
0
 49
-0.254
 74
0
 49
0.0
 74
0
 49
-0.254
 74
0
 49
0.0
 74
0
 49
-0.254
 74
0
  0
ENDTAB
  0
TABLE
  2
LAYER
  5
1
330
0
100
AcDbSymbolTable
 70
10
  0
LAYER
  5
27
330
1
100
AcDbSymbolTableRecord
100
AcDbLayerTableRecord
  2
0
 70
0
 62
7
  6
Continuous
370
-3
390
13
347
21
  0
LAYER
  5
28
330
1
100
AcDbSymbolTableRecord
100
AcDbLayerTableRecord
  2
Defpoints
 70
0
 62
7
  6
Continuous
290
0
370
-3
390
13
347
21
  0
LAYER
  5
8A
330
1
100
AcDbSymbolTableRecord
100
AcDbLayerTableRecord
  2
轮廓
 70
0
 62
7
  6
Continuous
370
50
390
13
347
21
  0
LAYER
  5
8B
330
1
100
AcDbSymbolTableRecord
100
AcDbLayerTableRecord
  2
细实线
 70
0
 62
7
  6
Continuous
370
18
390
13
347
21
  0
LAYER
  5
8C
330
1
100
AcDbSymbolTableRecord
100
AcDbLayerTableRecord
  2
中心线
 70
0
 62
1
  6
CENTER
370
18
390
13
347
21
  0
LAYER
  5
8D
330
1
100
AcDbSymbolTableRecord
100
AcDbLayerTableRecord
  2
虚线
 70
0
 62
8
  6
DASHED
370
18
390
13
347
21
  0
LAYER
  5
8E
330
1
100
AcDbSymbolTableRecord
100
AcDbLayerTableRecord
  2
剖面线
 70
0
 62
8
  6
Continuous
370
13
390
13
347
21
  0
LAYER
  5
8F
330
1
100
AcDbSymbolTableRecord
100
AcDbLayerTableRecord
  2
标注
 70
0
 62
3
  6
Continuous
370
18
390
13
347
21
  0
LAYER
  5
90
330
1
100
AcDbSymbolTableRecord
100
AcDbLayerTableRecord
  2
文字
 70
0
 62
7
  6
Continuous
370
18
390
13
347
21
  0
LAYER
  5
91
330
1
100
AcDbSymbolTableRecord
100
AcDbLayerTableRecord
  2
密封
 70
0
 62
5
  6
Continuous
370
50
390
13
347
21
  0
ENDTAB
  0
TABLE
  2
STYLE
  5
5
330
0
100
AcDbSymbolTable
 70
27
  0
STYLE
  5
29
330
5
100
AcDbSymbolTableRecord
100
AcDbTextStyleTableRecord
  2
Standard
 70
0
 40
0.0
 41
1.0
 50
0.0
 71
0
 42
2.5
  3
txt
  4

  0
STYLE
  5
41
330
5
100
AcDbSymbolTableRecord
100
AcDbTextStyleTableRecord
  2
OpenSans-Light
 70
0
 40
0.0
 41
1.0
 50
0.0
 71
0
 42
2.5
  3
OpenSans-Light.ttf
  4

  0
STYLE
  5
42
330
5
100
AcDbSymbolTableRecord
100
AcDbTextStyleTableRecord
  2
OpenSans-Light-Italic
 70
0
 40
0.0
 41
1.0
 50
0.0
 71
0
 42
2.5
  3
OpenSans-LightItalic.ttf
  4

  0
STYLE
  5
43
330
5
100
AcDbSymbolTableRecord
100
AcDbTextStyleTableRecord
  2
OpenSans
 70
0
 40
0.0
 41
1.0
 50
0.0
 71
0
 42
2.5
  3
OpenSans-Regular.ttf
  4

  0
STYLE
  5
44
330
5
100
AcDbSymbolTableRecord
100
AcDbTextStyleTableRecord
  2
OpenSans-Italic
 70
0
 40
0.0
 41
1.0
 50
0.0
 71
0
 42
2.5
  3
OpenSans-Italic.ttf
  4

  0
STYLE
  5
45
330
5
100
AcDbSymbolTableRecord
100
AcDbTextStyleTableRecord
  2
OpenSans-SemiBold
 70
0
 40
0.0
 41
1.0
 50
0.0
 71
0
 42
2.5
  3
OpenSans-SemiBold.ttf
  4

  0
STYLE
  5
46
330
5
100
AcDbSymbolTableRecord
100
AcDbTextStyleTableRecord
  2
OpenSans-SemiBoldItalic
 70
0
 40
0.0
 41
1.0
 50
0.0
 71
0
 42
2.5
  3
OpenSans-SemiBoldItalic.ttf
  4

  0
STYLE
  5
47
330
5
100
AcDbSymbolTableRecord
100
AcDbTextStyleTableRecord
  2
OpenSans-Bold
 70
0
 40
0.0
 41
1.0
 50
0.0
 71
0
 42
2.5
  3
OpenSans-Bold.ttf
  4

  0
STYLE
  5
48
330
5
100
AcDbSymbolTableRecord
100
AcDbTextStyleTableRecord
  2
OpenSans-BoldItalic
 70
0
 40
0.0
 41
1.0
 50
0.0
 71
0
 42
2.5
  3
OpenSans-BoldItalic.ttf
  4

  0
STYLE
  5
49
330
5
100
AcDbSymbolTableRecord
100
AcDbTextStyleTableRecord
  2
OpenSans-ExtraBold
 70
0
 40
0.0
 41
1.0
 50
0.0
 71
0
 42
2.5
  3
OpenSans-ExtraBold.ttf
  4

  0
STYLE
  5
4A
330
5
100
AcDbSymbolTableRecord
100
AcDbTextStyleTableRecord
  2
OpenSans-ExtraBoldItalic
 70
0
 40
0.0
 41
1.0
 50
0.0
 71
0
 42
2.5
  3
OpenSans-ExtraBoldItalic.ttf
  4

  0
STYLE
  5
4B
330
5
100
AcDbSymbolTableRecord
100
AcDbTextStyleTableRecord
  2
OpenSansCondensed-Bold
 70
0
 40
0.0
 41
1.0
 50
0.0
 71
0
 42
2.5
  3
OpenSansCondensed-Bold.ttf
  4

  0
STYLE
  5
4C
330
5
100
AcDbSymbolTableRecord
100
AcDbTextStyleTableRecord
  2
OpenSansCondensed-Light
 70
0
 40
0.0
 41
1.0
 50
0.0
 71
0
 42
2.5
  3
OpenSansCondensed-Light.ttf
  4

  0
STYLE
  5
4D
330
5
100
AcDbSymbolTableRecord
100
AcDbTextStyleTableRecord
  2
OpenSansCondensed-Italic
 70
0
 40
0.0
 41
1.0
 50
0.0
 71
0
 42
2.5
  3
OpenSansCondensed-LightItalic.ttf
  4

  0
STYLE
  5
4E
330
5
100
AcDbSymbolTableRecord
100
AcDbTextStyleTableRecord
  2
LiberationSans
 70
0
 40
0.0
 41
1.0
 50
0.0
 71
0
 42
2.5
  3
LiberationSans-Regular.ttf
  4

  0
STYLE
  5
4F
330
5
100
AcDbSymbolTableRecord
100
AcDbTextStyleTableRecord
  2
LiberationSans-Bold
 70
0
 40
0.0
 41
1.0
 50
0.0
 71
0
 42
2.5
  3
LiberationSans-Bold.ttf
  4

  0
STYLE
  5
50
330
5
100
AcDbSymbolTableRecord
100
AcDbTextStyleTableRecord
  2
LiberationSans-BoldItalic
 70
0
 40
0.0
 41
1.0
 50
0.0
 71
0
 42
2.5
  3
LiberationSans-BoldItalic.ttf
  4

  0
STYLE
  5
51
330
5
100
AcDbSymbolTableRecord
100
AcDbTextStyleTableRecord
  2
LiberationSans-Italic
 70
0
 40
0.0
 41
1.0
 50
0.0
 71
0
 42
2.5
  3
LiberationSans-Italic.ttf
  4

  0
STYLE
  5
52
330
5
100
AcDbSymbolTableRecord
100
AcDbTextStyleTableRecord
  2
LiberationSerif
 70
0
 40
0.0
 41
1.0
 50
0.0
 71
0
 42
2.5
  3
LiberationSerif-Regular.ttf
  4

  0
STYLE
  5
53
330
5
100
AcDbSymbolTableRecord
100
AcDbTextStyleTableRecord
  2
LiberationSerif-Bold
 70
0
 40
0.0
 41
1.0
 50
0.0
 71
0
 42
2.5
  3
LiberationSerif-Bold.ttf
  4

  0
STYLE
  5
54
330
5
100
AcDbSymbolTableRecord
100
AcDbTextStyleTableRecord
  2
LiberationSerif-BoldItalic
 70
0
 40
0.0
 41
1.0
 50
0.0
 71
0
 42
2.5
  3
LiberationSerif-BoldItalic.ttf
  4

  0
STYLE
  5
55
330
5
100
AcDbSymbolTableRecord
100
AcDbTextStyleTableRecord
  2
LiberationSerif-Italic
 70
0
 40
0.0
 41
1.0
 50
0.0
 71
0
 42
2.5
  3
LiberationSerif-Italic.ttf
  4

  0
STYLE
  5
56
330
5
100
AcDbSymbolTableRecord
100
AcDbTextStyleTableRecord
  2
LiberationMono
 70
0
 40
0.0
 41
1.0
 50
0.0
 71
0
 42
2.5
  3
LiberationMono-Regular.ttf
  4

  0
STYLE
  5
57
330
5
100
AcDbSymbolTableRecord
100
AcDbTextStyleTableRecord
  2
LiberationMono-Bold
 70
0
 40
0.0
 41
1.0
 50
0.0
 71
0
 42
2.5
  3
LiberationMono-Bold.ttf
  4

  0
STYLE
  5
58
330
5
100
AcDbSymbolTableRecord
100
AcDbTextStyleTableRecord
  2
LiberationMono-BoldItalic
 70
0
 40
0.0
 41
1.0
 50
0.0
 71
0
 42
2.5
  3
LiberationMono-BoldItalic.ttf
  4

  0
STYLE
  5
59
330
5
100
AcDbSymbolTableRecord
100
AcDbTextStyleTableRecord
  2
LiberationMono-Italic
 70
0
 40
0.0
 41
1.0
 50
0.0
 71
0
 42
2.5
  3
LiberationMono-Italic.ttf
  4

  0
STYLE
  5
92
330
5
100
AcDbSymbolTableRecord
100
AcDbTextStyleTableRecord
  2
CN
 70
0
 40
0.0
 41
1.0
 50
0.0
 71
0
 42
2.5
  3
DroidSansFallbackFull.ttf
  4

  0
ENDTAB
  0
TABLE
  2
VIEW
  5
7
330
0
100
AcDbSymbolTable
 70
0
  0
ENDTAB
  0
TABLE
  2
UCS
  5
6
330
0
100
AcDbSymbolTable
 70
0
  0
ENDTAB
  0
TABLE
  2
APPID
  5
3
330
0
100
AcDbSymbolTable
 70
3
  0
APPID
  5
2A
330
3
100
AcDbSymbolTableRecord
100
AcDbRegAppTableRecord
  2
ACAD
 70
0
  0
APPID
  5
304
330
3
100
AcDbSymbolTableRecord
100
AcDbRegAppTableRecord
  2
HATCHBACKGROUNDCOLOR
 70
0
  0
APPID
  5
305
330
3
100
AcDbSymbolTableRecord
100
AcDbRegAppTableRecord
  2
EZDXF
 70
0
  0
ENDTAB
  0
TABLE
  2
DIMSTYLE
  5
4
330
0
100
AcDbSymbolTable
 70
13
100
AcDbDimStyleTable
  0
DIMSTYLE
105
2B
330
4
100
AcDbSymbolTableRecord
100
AcDbDimStyleTableRecord
  2
Standard
 70
0
 40
1.0
 41
2.5
 42
0.625
 43
3.75
 44
1.25
 45
0.0
 46
0.0
 47
0.0
 48
0.0
 49
2.5
140
2.5
141
2.5
142
0.0
143
0.03937007874
144
1.0
145
0.0
146
1.0
147
0.625
148
0.0
 69
0
 70
0
 71
0
 72
0
 73
0
 74
0
 75
0
 76
0
 77
1
 78
8
 79
3
170
0
171
3
172
1
173
0
174
0
175
0
176
0
177
0
178
0
179
2
271
2
272
2
273
2
274
3
275
0
276
0
277
2
278
44
279
0
280
0
281
0
282
0
283
0
284
8
285
0
286
0
288
0
289
3
290
0
371
-2
372
-2
  0
DIMSTYLE
105
73
330
4
100
AcDbSymbolTableRecord
100
AcDbDimStyleTableRecord
  2
EZDXF
 70
0
 40
1.0
 41
0.175
 42
0.125
 43
3.75
 44
0.375
 45
0.0
 46
0.0
 47
0.0
 48
0.0
 49
2.5
140
0.25
141
2.5
142
0.0
143
0.03937007874
144
100.0
145
0.0
146
0.5
147
0.1
148
0.0
 69
0
 70
0
 71
0
 72
0
 73
0
 74
0
 75
0
 76
0
 77
1
 78
12
 79
3
170
0
171
3
172
1
173
0
174
0
175
0
176
0
177
0
178
0
179
2
271
2
272
2
273
2
274
3
275
0
276
0
277
2
278
46
279
2
280
0
281
0
282
0
283
0
284
8
285
0
286
0
288
1
289
3
290
0
340
4C
342
74
371
-2
372
-2
  0
DIMSTYLE
105
7C
330
4
100
AcDbSymbolTableRecord
100
AcDbDimStyleTableRecord
  2
EZ_M_100_H25_CM
 70
0
 40
1.0
 41
0.25
 42
0.125
 43
3.75
 44
0.375
 45
0.0
 46
0.0
 47
0.0
 48
0.0
 49
2.5
140
0.25
141
2.5
142
0.125
143
0.03937007874
144
100.0
145
0.0
146
0.5
147
0.1
148
0.0
 69
0
 70
0
 71
0
 72
0
 73
0
 74
0
 75
0
 76
0
 77
1
 78
12
 79
3
170
0
171
3
172
1
173
0
174
0
175
0
176
0
177
0
178
0
179
2
271
2
272
2
273
2
274
3
275
0
276
0
277
2
278
46
279
2
280
0
281
0
282
0
283
0
284
8
285
0
286
0
288
1
289
3
290
0
340
4C
371
-2
372
-2
  0
DIMSTYLE
105
7D
330
4
100
AcDbSymbolTableRecord
100
AcDbDimStyleTableRecord
  2
EZ_M_50_H25_CM
 70
0
 40
1.0
 41
0.125
 42
0.0625
 43
3.75
 44
0.1875
 45
0.0
 46
0.0
 47
0.0
 48
0.0
 49
2.5
140
0.125
141
2.5
142
0.0625
143
0.03937007874
144
100.0
145
0.0
146
0.5
147
0.05
148
0.0
 69
0
 70
0
 71
0
 72
0
 73
0
 74
0
 75
0
 76
0
 77
1
 78
12
 79
3
170
0
171
3
172
1
173
0
174
0
175
0
176
0
177
0
178
0
179
2
271
2
272
2
273
2
274
3
275
0
276
0
277
2
278
46
279
2
280
0
281
0
282
0
283
0
284
8
285
0
286
0
288
1
289
3
290
0
340
4C
371
-2
372
-2
  0
DIMSTYLE
105
7E
330
4
100
AcDbSymbolTableRecord
100
AcDbDimStyleTableRecord
  2
EZ_M_25_H25_CM
 70
0
 40
1.0
 41
0.0625
 42
0.03125
 43
3.75
 44
0.09375
 45
0.0
 46
0.0
 47
0.0
 48
0.0
 49
2.5
140
0.0625
141
2.5
142
0.03125
143
0.03937007874
144
100.0
145
0.0
146
0.5
147
0.025
148
0.0
 69
0
 70
0
 71
0
 72
0
 73
0
 74
0
 75
0
 76
0
 77
1
 78
12
 79
3
170
0
171
3
172
1
173
0
174
0
175
0
176
0
177
0
178
0
179
2
271
2
272
2
273
2
274
3
275
0
276
0
277
2
278
46
279
2
280
0
281
0
282
0
283
0
284
8
285
0
286
0
288
1
289
3
290
0
340
4C
371
-2
372
-2
  0
DIMSTYLE
105
7F
330
4
100
AcDbSymbolTableRecord
100
AcDbDimStyleTableRecord
  2
EZ_M_20_H25_CM
 70
0
 40
1.0
 41
0.05
 42
0.025
 43
3.75
 44
0.07500000000000001
 45
0.0
 46
0.0
 47
0.0
 48
0.0
 49
2.5
140
0.05
141
2.5
142
0.025
143
0.03937007874
144
100.0
145
0.0
146
0.5
147
0.020000000000000004
148
0.0
 69
0
 70
0
 71
0
 72
0
 73
0
 74
0
 75
0
 76
0
 77
1
 78
12
 79
3
170
0
171
3
172
1
173
0
174
0
175
0
176
0
177
0
178
0
179
2
271
2
272
2
273
2
274
3
275
0
276
0
277
2
278
46
279
2
280
0
281
0
282
0
283
0
284
8
285
0
286
0
288
1
289
3
290
0
340
4C
371
-2
372
-2
  0
DIMSTYLE
105
80
330
4
100
AcDbSymbolTableRecord
100
AcDbDimStyleTableRecord
  2
EZ_M_10_H25_CM
 70
0
 40
1.0
 41
0.025
 42
0.0125
 43
3.75
 44
0.037500000000000006
 45
0.0
 46
0.0
 47
0.0
 48
0.0
 49
2.5
140
0.025
141
2.5
142
0.0125
143
0.03937007874
144
100.0
145
0.0
146
0.5
147
0.010000000000000002
148
0.0
 69
0
 70
0
 71
0
 72
0
 73
0
 74
0
 75
0
 76
0
 77
1
 78
12
 79
3
170
0
171
3
172
1
173
0
174
0
175
0
176
0
177
0
178
0
179
2
271
2
272
2
273
2
274
3
275
0
276
0
277
2
278
46
279
2
280
0
281
0
282
0
283
0
284
8
285
0
286
0
288
1
289
3
290
0
340
4C
371
-2
372
-2
  0
DIMSTYLE
105
81
330
4
100
AcDbSymbolTableRecord
100
AcDbDimStyleTableRecord
  2
EZ_M_5_H25_CM
 70
0
 40
1.0
 41
0.0125
 42
0.00625
 43
3.75
 44
0.018750000000000003
 45
0.0
 46
0.0
 47
0.0
 48
0.0
 49
2.5
140
0.0125
141
2.5
142
0.00625
143
0.03937007874
144
100.0
145
0.0
146
0.5
147
0.005000000000000001
148
0.0
 69
0
 70
0
 71
0
 72
0
 73
0
 74
0
 75
0
 76
0
 77
1
 78
12
 79
3
170
0
171
3
172
1
173
0
174
0
175
0
176
0
177
0
178
0
179
2
271
2
272
2
273
2
274
3
275
0
276
0
277
2
278
46
279
2
280
0
281
0
282
0
283
0
284
8
285
0
286
0
288
1
289
3
290
0
340
4C
371
-2
372
-2
  0
DIMSTYLE
105
82
330
4
100
AcDbSymbolTableRecord
100
AcDbDimStyleTableRecord
  2
EZ_M_1_H25_CM
 70
0
 40
1.0
 41
0.0025
 42
0.00125
 43
3.75
 44
0.00375
 45
0.0
 46
0.0
 47
0.0
 48
0.0
 49
2.5
140
0.0025
141
2.5
142
0.00125
143
0.03937007874
144
100.0
145
0.0
146
0.5
147
0.001
148
0.0
 69
0
 70
0
 71
0
 72
0
 73
0
 74
0
 75
0
 76
0
 77
1
 78
12
 79
3
170
0
171
3
172
1
173
0
174
0
175
0
176
0
177
0
178
0
179
2
271
2
272
2
273
2
274
3
275
0
276
0
277
2
278
46
279
2
280
0
281
0
282
0
283
0
284
8
285
0
286
0
288
1
289
3
290
0
340
4C
371
-2
372
-2
  0
DIMSTYLE
105
83
330
4
100
AcDbSymbolTableRecord
100
AcDbDimStyleTableRecord
  2
EZ_RADIUS
 70
0
 40
1.0
 41
0.25
 42
0.125
 43
3.75
 44
0.375
 45
0.0
 46
0.0
 47
0.0
 48
0.0
 49
2.5
140
0.25
141
0.0
142
0.0
143
0.03937007874
144
100.0
145
0.0
146
0.5
147
0.1
148
0.0
 69
0
 70
0
 71
0
 72
0
 73
0
 74
0
 75
0
 76
0
 77
1
 78
12
 79
3
170
0
171
3
172
0
173
0
174
0
175
0
176
0
177
0
178
0
179
2
271
2
272
2
273
2
274
3
275
0
276
0
277
2
278
46
279
1
280
0
281
0
282
0
283
0
284
8
285
0
286
0
288
1
289
3
290
0
340
4C
342
84
371
-2
372
-2
  0
DIMSTYLE
105
88
330
4
100
AcDbSymbolTableRecord
100
AcDbDimStyleTableRecord
  2
EZ_RADIUS_INSIDE
 70
0
 40
1.0
 41
0.25
 42
0.125
 43
3.75
 44
0.375
 45
0.0
 46
0.0
 47
0.0
 48
0.0
 49
2.5
140
0.25
141
0.0
142
0.0
143
0.03937007874
144
100.0
145
0.0
146
0.5
147
0.1
148
0.0
 69
0
 70
0
 71
0
 72
0
 73
0
 74
0
 75
0
 76
0
 77
0
 78
12
 79
3
170
0
171
3
172
0
173
0
174
1
175
0
176
0
177
0
178
0
179
2
271
2
272
2
273
2
274
3
275
0
276
0
277
2
278
46
279
0
280
0
281
0
282
0
283
0
284
8
285
0
286
0
288
1
289
0
290
0
340
4C
342
84
371
-2
372
-2
  0
DIMSTYLE
105
89
330
4
100
AcDbSymbolTableRecord
100
AcDbDimStyleTableRecord
  2
EZ_CURVED
 70
0
 40
1.0
 41
0.25
 42
0.125
 43
3.75
 44
0.375
 45
0.0
 46
0.0
 47
0.0
 48
0.0
 49
2.5
140
0.25
141
2.5
142
0.0
143
0.03937007874
144
100.0
145
0.0
146
0.5
147
0.1
148
0.0
 69
0
 70
0
 71
0
 72
0
 73
0
 74
0
 75
0
 76
0
 77
1
 78
12
 79
2
 90
2
170
0
171
3
172
1
173
0
174
0
175
0
176
0
177
0
178
0
179
2
271
2
272
2
273
2
274
3
275
0
276
0
277
2
278
46
279
2
280
0
281
0
282
0
283
0
284
8
285
0
286
0
288
1
289
3
290
0
340
4C
371
-2
372
-2
  0
DIMSTYLE
105
93
330
4
100
AcDbSymbolTableRecord
100
AcDbDimStyleTableRecord
  2
MECH
 70
0
 40
1.0
 41
2.5
 42
0.625
 43
3.75
 44
1.25
 45
0.0
 46
0.0
 47
0.0
 48
0.0
 49
2.5
140
3.5
141
2.5
142
0.0
143
0.03937007874
144
1.0
145
0.0
146
1.0
147
0.625
148
0.0
 69
0
 70
0
 71
0
 72
0
 73
0
 74
0
 75
0
 76
0
 77
1
 78
8
 79
3
170
0
171
3
172
1
173
0
174
0
175
0
176
0
177
0
178
0
179
2
271
2
272
2
273
2
274
3
275
0
276
0
277
2
278
44
279
0
280
0
281
0
282
0
283
0
284
8
285
0
286
0
288
0
289
3
290
0
371
-2
372
-2
  0
ENDTAB
  0
TABLE
  2
BLOCK_RECORD
  5
9
330
0
100
AcDbSymbolTable
 70
5
  0
BLOCK_RECORD
  5
17
330
9
100
AcDbSymbolTableRecord
100
AcDbBlockTableRecord
  2
*Model_Space
340
1A
 70
0
280
1
281
0
  0
BLOCK_RECORD
  5
1B
330
9
100
AcDbSymbolTableRecord
100
AcDbBlockTableRecord
  2
*Paper_Space
340
1E
 70
0
280
1
281
0
  0
BLOCK_RECORD
  5
74
330
9
100
AcDbSymbolTableRecord
100
AcDbBlockTableRecord
  2
_ARCHTICK
340
0
 70
0
280
1
281
0
  0
BLOCK_RECORD
  5
78
330
9
100
AcDbSymbolTableRecord
100
AcDbBlockTableRecord
  2
_CLOSEDFILLED
340
0
 70
0
280
1
281
0
  0
BLOCK_RECORD
  5
84
330
9
100
AcDbSymbolTableRecord
100
AcDbBlockTableRecord
  2
_CLOSEDBLANK
340
0
 70
0
280
1
281
0
  0
ENDTAB
  0
ENDSEC
  0
SECTION
  2
BLOCKS
  0
BLOCK
  5
18
330
17
100
AcDbEntity
  8
0
100
AcDbBlockBegin
  2
*Model_Space
 70
0
 10
0.0
 20
0.0
 30
0.0
  3
*Model_Space
  1

  0
ENDBLK
  5
19
330
17
100
AcDbEntity
  8
0
100
AcDbBlockEnd
  0
BLOCK
  5
1C
330
1B
100
AcDbEntity
  8
0
100
AcDbBlockBegin
  2
*Paper_Space
 70
0
 10
0.0
 20
0.0
 30
0.0
  3
*Paper_Space
  1

  0
ENDBLK
  5
1D
330
1B
100
AcDbEntity
  8
0
100
AcDbBlockEnd
  0
BLOCK
  5
75
330
74
100
AcDbEntity
  8
0
100
AcDbBlockBegin
  2
_ARCHTICK
 70
0
 10
0.0
 20
0.0
 30
0.0
  3
_ARCHTICK
  1

  0
LWPOLYLINE
  5
77
330
74
100
AcDbEntity
  8
0
  6
BYBLOCK
 62
0
100
AcDbPolyline
 90
2
 70
0
 43
0.15
 10
-0.5
 20
-0.5
 10
0.5
 20
0.5
  0
ENDBLK
  5
76
330
74
100
AcDbEntity
  8
0
100
AcDbBlockEnd
  0
BLOCK
  5
79
330
78
100
AcDbEntity
  8
0
100
AcDbBlockBegin
  2
_CLOSEDFILLED
 70
0
 10
0.0
 20
0.0
 30
0.0
  3
_CLOSEDFILLED
  1

  0
SOLID
  5
7B
330
78
100
AcDbEntity
  8
0
  6
BYBLOCK
 62
0
100
AcDbTrace
 10
-1.0
 20
0.16439898372402537
 30
0.0
 11
0.0
 21
0.0
 31
0.0
 12
-1.0
 22
-0.16439898372402537
 32
0.0
 13
-1.0
 23
-0.16439898372402537
 33
0.0
  0
ENDBLK
  5
7A
330
78
100
AcDbEntity
  8
0
100
AcDbBlockEnd
  0
BLOCK
  5
85
330
84
100
AcDbEntity
  8
0
100
AcDbBlockBegin
  2
_CLOSEDBLANK
 70
0
 10
0.0
 20
0.0
 30
0.0
  3
_CLOSEDBLANK
  1

  0
LWPOLYLINE
  5
87
330
84
100
AcDbEntity
  8
0
  6
BYBLOCK
 62
0
100
AcDbPolyline
 90
3
 70
1
 10
-1.0
 20
0.16439898372402537
 10
0.0
 20
0.0
 10
-1.0
 20
-0.16439898372402537
  0
ENDBLK
  5
86
330
84
100
AcDbEntity
  8
0
100
AcDbBlockEnd
  0
ENDSEC
  0
SECTION
  2
ENTITIES
  0
LINE
  5
94
330
17
100
AcDbEntity
  8
中心线
  6
CENTER
370
18
100
AcDbLine
 10
-300.0
 20
0.0
 30
0.0
 11
300.0
 21
0.0
 31
0.0
  0
LINE
  5
95
330
17
100
AcDbEntity
  8
中心线
  6
CENTER
370
18
100
AcDbLine
 10
0.0
 20
175.0
 30
0.0
 11
0.0
 21
-280.5
 31
0.0
  0
LINE
  5
96
330
17
100
AcDbEntity
  8
轮廓
370
50
100
AcDbLine
 10
-118.0
 20
-225.5
 30
0.0
 11
78.0
 21
-225.5
 31
0.0
  0
LINE
  5
97
330
17
100
AcDbEntity
  8
轮廓
370
50
100
AcDbLine
 10
78.0
 20
-225.5
 30
0.0
 11
78.0
 21
46.0
 31
0.0
  0
LINE
  5
98
330
17
100
AcDbEntity
  8
轮廓
370
50
100
AcDbLine
 10
78.0
 20
46.0
 30
0.0
 11
-118.0
 21
46.0
 31
0.0
  0
LINE
  5
99
330
17
100
AcDbEntity
  8
轮廓
370
50
100
AcDbLine
 10
-118.0
 20
46.0
 30
0.0
 11
-118.0
 21
-225.5
 31
0.0
  0
LINE
  5
9A
330
17
100
AcDbEntity
  8
细实线
370
18
100
AcDbLine
 10
-106.0
 20
0.0
 30
0.0
 11
-106.0
 21
-213.5
 31
0.0
  0
LINE
  5
9B
330
17
100
AcDbEntity
  8
细实线
370
18
100
AcDbLine
 10
66.0
 20
0.0
 30
0.0
 11
66.0
 21
-213.5
 31
0.0
  0
LINE
  5
9C
330
17
100
AcDbEntity
  8
细实线
370
18
100
AcDbLine
 10
-106.0
 20
-213.5
 30
0.0
 11
66.0
 21
-213.5
 31
0.0
  0
LINE
  5
9D
330
17
100
AcDbEntity
  8
剖面线
370
13
100
AcDbLine
 10
-111.6568542494924
 20
-225.5
 30
0.0
 11
-106.0
 21
-219.8431457505076
 31
0.0
  0
LINE
  5
9E
330
17
100
AcDbEntity
  8
剖面线
370
13
100
AcDbLine
 10
-117.31370849898477
 20
-225.5
 30
0.0
 11
-106.0
 21
-214.18629150101523
 31
0.0
  0
LINE
  5
9F
330
17
100
AcDbEntity
  8
剖面线
370
13
100
AcDbLine
 10
-118.0
 20
-220.52943725152286
 30
0.0
 11
-106.0
 21
-208.52943725152286
 31
0.0
  0
LINE
  5
A0
330
17
100
AcDbEntity
  8
剖面线
370
13
100
AcDbLine
 10
-118.0
 20
-214.8725830020305
 30
0.0
 11
-106.0
 21
-202.8725830020305
 31
0.0
  0
LINE
  5
A1
330
17
100
AcDbEntity
  8
剖面线
370
13
100
AcDbLine
 10
-118.0
 20
-209.2157287525381
 30
0.0
 11
-106.0
 21
-197.2157287525381
 31
0.0
  0
LINE
  5
A2
330
17
100
AcDbEntity
  8
剖面线
370
13
100
AcDbLine
 10
-118.0
 20
-203.5588745030457
 30
0.0
 11
-106.0
 21
-191.5588745030457
 31
0.0
  0
LINE
  5
A3
330
17
100
AcDbEntity
  8
剖面线
370
13
100
AcDbLine
 10
-118.0
 20
-197.90202025355333
 30
0.0
 11
-106.0
 21
-185.90202025355333
 31
0.0
  0
LINE
  5
A4
330
17
100
AcDbEntity
  8
剖面线
370
13
100
AcDbLine
 10
-118.0
 20
-192.24516600406096
 30
0.0
 11
-106.0
 21
-180.24516600406096
 31
0.0
  0
LINE
  5
A5
330
17
100
AcDbEntity
  8
剖面线
370
13
100
AcDbLine
 10
-118.0
 20
-186.5883117545686
 30
0.0
 11
-106.0
 21
-174.5883117545686
 31
0.0
  0
LINE
  5
A6
330
17
100
AcDbEntity
  8
剖面线
370
13
100
AcDbLine
 10
-118.0
 20
-180.9314575050762
 30
0.0
 11
-106.0
 21
-168.9314575050762
 31
0.0
  0
LINE
  5
A7
330
17
100
AcDbEntity
  8
剖面线
370
13
100
AcDbLine
 10
-118.0
 20
-175.2746032555838
 30
0.0
 11
-106.0
 21
-163.2746032555838
 31
0.0
  0
LINE
  5
A8
330
17
100
AcDbEntity
  8
剖面线
370
13
100
AcDbLine
 10
-118.0
 20
-169.61774900609143
 30
0.0
 11
-106.0
 21
-157.61774900609143
 31
0.0
  0
LINE
  5
A9
330
17
100
AcDbEntity
  8
剖面线
370
13
100
AcDbLine
 10
-118.0
 20
-163.96089475659906
 30
0.0
 11
-106.0
 21
-151.96089475659906
 31
0.0
  0
LINE
  5
AA
330
17
100
AcDbEntity
  8
剖面线
370
13
100
AcDbLine
 10
-118.0
 20
-158.3040405071067
 30
0.0
 11
-106.0
 21
-146.3040405071067
 31
0.0
  0
LINE
  5
AB
330
17
100
AcDbEntity
  8
剖面线
370
13
100
AcDbLine
 10
-118.0
 20
-152.6471862576143
 30
0.0
 11
-106.0
 21
-140.6471862576143
 31
0.0
  0
LINE
  5
AC
330
17
100
AcDbEntity
  8
剖面线
370
13
100
AcDbLine
 10
-118.0
 20
-146.9903320081219
 30
0.0
 11
-106.0
 21
-134.99033200812192
 31
0.0
  0
LINE
  5
AD
330
17
100
AcDbEntity
  8
剖面线
370
13
100
AcDbLine
 10
-118.0
 20
-141.33347775862953
 30
0.0
 11
-106.0
 21
-129.33347775862953
 31
0.0
  0
LINE
  5
AE
330
17
100
AcDbEntity
  8
剖面线
370
13
100
AcDbLine
 10
-118.0
 20
-135.67662350913716
 30
0.0
 11
-106.0
 21
-123.67662350913716
 31
0.0
  0
LINE
  5
AF
330
17
100
AcDbEntity
  8
剖面线
370
13
100
AcDbLine
 10
-118.0
 20
-130.0197692596448
 30
0.0
 11
-106.0
 21
-118.01976925964479
 31
0.0
  0
LINE
  5
B0
330
17
100
AcDbEntity
  8
剖面线
370
13
100
AcDbLine
 10
-118.0
 20
-124.36291501015236
 30
0.0
 11
-106.0
 21
-112.36291501015238
 31
0.0
  0
LINE
  5
B1
330
17
100
AcDbEntity
  8
剖面线
370
13
100
AcDbLine
 10
-118.0
 20
-118.70606076066001
 30
0.0
 11
-106.0
 21
-106.70606076066001
 31
0.0
  0
LINE
  5
B2
330
17
100
AcDbEntity
  8
剖面线
370
13
100
AcDbLine
 10
-118.0
 20
-113.04920651116764
 30
0.0
 11
-106.0
 21
-101.04920651116764
 31
0.0
  0
LINE
  5
B3
330
17
100
AcDbEntity
  8
剖面线
370
13
100
AcDbLine
 10
-118.0
 20
-107.39235226167526
 30
0.0
 11
-106.0
 21
-95.39235226167527
 31
0.0
  0
LINE
  5
B4
330
17
100
AcDbEntity
  8
剖面线
370
13
100
AcDbLine
 10
-118.0
 20
-101.7354980121829
 30
0.0
 11
-106.0
 21
-89.7354980121829
 31
0.0
  0
LINE
  5
B5
330
17
100
AcDbEntity
  8
剖面线
370
13
100
AcDbLine
 10
-118.0
 20
-96.07864376269048
 30
0.0
 11
-106.0
 21
-84.07864376269048
 31
0.0
  0
LINE
  5
B6
330
17
100
AcDbEntity
  8
剖面线
370
13
100
AcDbLine
 10
-118.0
 20
-90.4217895131981
 30
0.0
 11
-106.0
 21
-78.4217895131981
 31
0.0
  0
LINE
  5
B7
330
17
100
AcDbEntity
  8
剖面线
370
13
100
AcDbLine
 10
-118.0
 20
-84.76493526370574
 30
0.0
 11
-106.0
 21
-72.76493526370574
 31
0.0
  0
LINE
  5
B8
330
17
100
AcDbEntity
  8
剖面线
370
13
100
AcDbLine
 10
-118.0
 20
-79.10808101421337
 30
0.0
 11
-106.0
 21
-67.10808101421337
 31
0.0
  0
LINE
  5
B9
330
17
100
AcDbEntity
  8
剖面线
370
13
100
AcDbLine
 10
-118.0
 20
-73.451226764721
 30
0.0
 11
-106.0
 21
-61.451226764721
 31
0.0
  0
LINE
  5
BA
330
17
100
AcDbEntity
  8
剖面线
370
13
100
AcDbLine
 10
-118.0
 20
-67.79437251522857
 30
0.0
 11
-106.0
 21
-55.794372515228574
 31
0.0
  0
LINE
  5
BB
330
17
100
AcDbEntity
  8
剖面线
370
13
100
AcDbLine
 10
-118.0
 20
-62.137518265736205
 30
0.0
 11
-106.0
 21
-50.13751826573622
 31
0.0
  0
LINE
  5
BC
330
17
100
AcDbEntity
  8
剖面线
370
13
100
AcDbLine
 10
-118.00000000000001
 20
-56.48066401624385
 30
0.0
 11
-106.0
 21
-44.480664016243836
 31
0.0
  0
LINE
  5
BD
330
17
100
AcDbEntity
  8
剖面线
370
13
100
AcDbLine
 10
-118.0
 20
-50.82380976675147
 30
0.0
 11
-106.00000000000001
 21
-38.82380976675148
 31
0.0
  0
LINE
  5
BE
330
17
100
AcDbEntity
  8
剖面线
370
13
100
AcDbLine
 10
-117.99999999999999
 20
-45.16695551725907
 30
0.0
 11
-106.0
 21
-33.16695551725907
 31
0.0
  0
LINE
  5
BF
330
17
100
AcDbEntity
  8
剖面线
370
13
100
AcDbLine
 10
-118.0
 20
-39.5101012677667
 30
0.0
 11
-106.0
 21
-27.5101012677667
 31
0.0
  0
LINE
  5
C0
330
17
100
AcDbEntity
  8
剖面线
370
13
100
AcDbLine
 10
-118.0
 20
-33.85324701827433
 30
0.0
 11
-106.0
 21
-21.853247018274345
 31
0.0
  0
LINE
  5
C1
330
17
100
AcDbEntity
  8
剖面线
370
13
100
AcDbLine
 10
-118.0
 20
-28.196392768781934
 30
0.0
 11
-106.0
 21
-16.196392768781948
 31
0.0
  0
LINE
  5
C2
330
17
100
AcDbEntity
  8
剖面线
370
13
100
AcDbLine
 10
-118.00000000000001
 20
-22.53953851928958
 30
0.0
 11
-106.0
 21
-10.539538519289565
 31
0.0
  0
LINE
  5
C3
330
17
100
AcDbEntity
  8
剖面线
370
13
100
AcDbLine
 10
-118.0
 20
-16.88268426979718
 30
0.0
 11
-106.00000000000001
 21
-4.8826842697971955
 31
0.0
  0
LINE
  5
C4
330
17
100
AcDbEntity
  8
剖面线
370
13
100
AcDbLine
 10
-117.99999999999999
 20
-11.225830020304812
 30
0.0
 11
-106.77416997969517
 21
1.4210854715202004e-14
 31
0.0
  0
LINE
  5
C5
330
17
100
AcDbEntity
  8
剖面线
370
13
100
AcDbLine
 10
-118.0
 20
-5.568975770812429
 30
0.0
 11
-112.43102422918757
 21
0.0
 31
0.0
  0
LINE
  5
C6
330
17
100
AcDbEntity
  8
剖面线
370
13
100
AcDbLine
 10
78.0
 20
-225.5
 30
0.0
 11
78.0
 21
-225.5
 31
0.0
  0
LINE
  5
C7
330
17
100
AcDbEntity
  8
剖面线
370
13
100
AcDbLine
 10
72.3431457505076
 20
-225.5
 30
0.0
 11
78.0
 21
-219.84314575050757
 31
0.0
  0
LINE
  5
C8
330
17
100
AcDbEntity
  8
剖面线
370
13
100
AcDbLine
 10
66.6862915010152
 20
-225.5
 30
0.0
 11
77.99999999999999
 21
-214.1862915010152
 31
0.0
  0
LINE
  5
C9
330
17
100
AcDbEntity
  8
剖面线
370
13
100
AcDbLine
 10
66.00000000000001
 20
-220.52943725152284
 30
0.0
 11
78.0
 21
-208.52943725152284
 31
0.0
  0
LINE
  5
CA
330
17
100
AcDbEntity
  8
剖面线
370
13
100
AcDbLine
 10
66.0
 20
-214.8725830020305
 30
0.0
 11
78.00000000000001
 21
-202.87258300203047
 31
0.0
  0
LINE
  5
CB
330
17
100
AcDbEntity
  8
剖面线
370
13
100
AcDbLine
 10
66.0
 20
-209.2157287525381
 30
0.0
 11
78.0
 21
-197.2157287525381
 31
0.0
  0
LINE
  5
CC
330
17
100
AcDbEntity
  8
剖面线
370
13
100
AcDbLine
 10
66.0
 20
-203.55887450304567
 30
0.0
 11
78.0
 21
-191.5588745030457
 31
0.0
  0
LINE
  5
CD
330
17
100
AcDbEntity
  8
剖面线
370
13
100
AcDbLine
 10
65.99999999999999
 20
-197.9020202535533
 30
0.0
 11
78.0
 21
-185.9020202535533
 31
0.0
  0
LINE
  5
CE
330
17
100
AcDbEntity
  8
剖面线
370
13
100
AcDbLine
 10
66.0
 20
-192.24516600406093
 30
0.0
 11
77.99999999999999
 21
-180.24516600406096
 31
0.0
  0
LINE
  5
CF
330
17
100
AcDbEntity
  8
剖面线
370
13
100
AcDbLine
 10
66.00000000000001
 20
-186.58831175456856
 30
0.0
 11
78.0
 21
-174.58831175456856
 31
0.0
  0
LINE
  5
D0
330
17
100
AcDbEntity
  8
剖面线
370
13
100
AcDbLine
 10
66.0
 20
-180.9314575050762
 30
0.0
 11
77.99999999999999
 21
-168.9314575050762
 31
0.0
  0
LINE
  5
D1
330
17
100
AcDbEntity
  8
剖面线
370
13
100
AcDbLine
 10
65.99999999999999
 20
-175.27460325558383
 30
0.0
 11
78.00000000000001
 21
-163.27460325558377
 31
0.0
  0
LINE
  5
D2
330
17
100
AcDbEntity
  8
剖面线
370
13
100
AcDbLine
 10
66.0
 20
-169.61774900609143
 30
0.0
 11
77.99999999999999
 21
-157.61774900609143
 31
0.0
  0
LINE
  5
D3
330
17
100
AcDbEntity
  8
剖面线
370
13
100
AcDbLine
 10
66.0
 20
-163.96089475659906
 30
0.0
 11
78.0
 21
-151.96089475659906
 31
0.0
  0
LINE
  5
D4
330
17
100
AcDbEntity
  8
剖面线
370
13
100
AcDbLine
 10
66.0
 20
-158.30404050710666
 30
0.0
 11
78.0
 21
-146.30404050710666
 31
0.0
  0
LINE
  5
D5
330
17
100
AcDbEntity
  8
剖面线
370
13
100
AcDbLine
 10
65.99999999999999
 20
-152.64718625761432
 30
0.0
 11
77.99999999999999
 21
-140.64718625761432
 31
0.0
  0
LINE
  5
D6
330
17
100
AcDbEntity
  8
剖面线
370
13
100
AcDbLine
 10
66.00000000000001
 20
-146.99033200812187
 30
0.0
 11
78.00000000000001
 21
-134.9903320081219
 31
0.0
  0
LINE
  5
D7
330
17
100
AcDbEntity
  8
剖面线
370
13
100
AcDbLine
 10
65.99999999999999
 20
-141.33347775862953
 30
0.0
 11
77.99999999999999
 21
-129.33347775862956
 31
0.0
  0
LINE
  5
D8
330
17
100
AcDbEntity
  8
剖面线
370
13
100
AcDbLine
 10
66.0
 20
-135.67662350913716
 30
0.0
 11
78.0
 21
-123.67662350913716
 31
0.0
  0
LINE
  5
D9
330
17
100
AcDbEntity
  8
剖面线
370
13
100
AcDbLine
 10
66.0
 20
-130.01976925964476
 30
0.0
 11
78.0
 21
-118.01976925964476
 31
0.0
  0
LINE
  5
DA
330
17
100
AcDbEntity
  8
剖面线
370
13
100
AcDbLine
 10
66.0
 20
-124.36291501015242
 30
0.0
 11
78.0
 21
-112.36291501015242
 31
0.0
  0
LINE
  5
DB
330
17
100
AcDbEntity
  8
剖面线
370
13
100
AcDbLine
 10
66.00000000000001
 20
-118.70606076066
 30
0.0
 11
78.00000000000001
 21
-106.70606076066
 31
0.0
  0
LINE
  5
DC
330
17
100
AcDbEntity
  8
剖面线
370
13
100
AcDbLine
 10
65.99999999999999
 20
-113.04920651116765
 30
0.0
 11
77.99999999999999
 21
-101.04920651116765
 31
0.0
  0
LINE
  5
DD
330
17
100
AcDbEntity
  8
剖面线
370
13
100
AcDbLine
 10
66.0
 20
-107.39235226167526
 30
0.0
 11
78.0
 21
-95.39235226167526
 31
0.0
  0
LINE
  5
DE
330
17
100
AcDbEntity
  8
剖面线
370
13
100
AcDbLine
 10
66.0
 20
-101.73549801218286
 30
0.0
 11
78.0
 21
-89.73549801218286
 31
0.0
  0
LINE
  5
DF
330
17
100
AcDbEntity
  8
剖面线
370
13
100
AcDbLine
 10
66.0
 20
-96.07864376269052
 30
0.0
 11
78.0
 21
-84.07864376269052
 31
0.0
  0
LINE
  5
E0
330
17
100
AcDbEntity
  8
剖面线
370
13
100
AcDbLine
 10
66.00000000000001
 20
-90.42178951319809
 30
0.0
 11
78.00000000000001
 21
-78.42178951319809
 31
0.0
  0
LINE
  5
E1
330
17
100
AcDbEntity
  8
剖面线
370
13
100
AcDbLine
 10
65.99999999999999
 20
-84.76493526370575
 30
0.0
 11
77.99999999999999
 21
-72.76493526370575
 31
0.0
  0
LINE
  5
E2
330
17
100
AcDbEntity
  8
剖面线
370
13
100
AcDbLine
 10
66.00000000000001
 20
-79.10808101421335
 30
0.0
 11
77.99999999999999
 21
-67.10808101421338
 31
0.0
  0
LINE
  5
E3
330
17
100
AcDbEntity
  8
剖面线
370
13
100
AcDbLine
 10
66.0
 20
-73.45122676472096
 30
0.0
 11
78.0
 21
-61.45122676472096
 31
0.0
  0
LINE
  5
E4
330
17
100
AcDbEntity
  8
剖面线
370
13
100
AcDbLine
 10
66.0
 20
-67.79437251522862
 30
0.0
 11
78.0
 21
-55.794372515228616
 31
0.0
  0
LINE
  5
E5
330
17
100
AcDbEntity
  8
剖面线
370
13
100
AcDbLine
 10
66.00000000000001
 20
-62.13751826573619
 30
0.0
 11
78.00000000000004
 21
-50.13751826573616
 31
0.0
  0
LINE
  5
E6
330
17
100
AcDbEntity
  8
剖面线
370
13
100
AcDbLine
 10
65.99999999999999
 20
-56.48066401624385
 30
0.0
 11
78.00000000000001
 21
-44.48066401624385
 31
0.0
  0
LINE
  5
E7
330
17
100
AcDbEntity
  8
剖面线
370
13
100
AcDbLine
 10
65.99999999999997
 20
-50.82380976675148
 30
0.0
 11
78.0
 21
-38.82380976675145
 31
0.0
  0
LINE
  5
E8
330
17
100
AcDbEntity
  8
剖面线
370
13
100
AcDbLine
 10
66.0
 20
-45.166955517259055
 30
0.0
 11
78.0
 21
-33.166955517259055
 31
0.0
  0
LINE
  5
E9
330
17
100
AcDbEntity
  8
剖面线
370
13
100
AcDbLine
 10
66.0
 20
-39.510101267766686
 30
0.0
 11
78.0
 21
-27.510101267766686
 31
0.0
  0
LINE
  5
EA
330
17
100
AcDbEntity
  8
剖面线
370
13
100
AcDbLine
 10
66.0
 20
-33.85324701827432
 30
0.0
 11
77.99999999999997
 21
-21.853247018274345
 31
0.0
  0
LINE
  5
EB
330
17
100
AcDbEntity
  8
剖面线
370
13
100
AcDbLine
 10
66.00000000000003
 20
-28.19639276878192
 30
0.0
 11
78.0
 21
-16.196392768781976
 31
0.0
  0
LINE
  5
EC
330
17
100
AcDbEntity
  8
剖面线
370
13
100
AcDbLine
 10
66.0
 20
-22.53953851928955
 30
0.0
 11
78.0
 21
-10.53953851928955
 31
0.0
  0
LINE
  5
ED
330
17
100
AcDbEntity
  8
剖面线
370
13
100
AcDbLine
 10
66.0
 20
-16.882684269797153
 30
0.0
 11
78.00000000000003
 21
-4.882684269797153
 31
0.0
  0
LINE
  5
EE
330
17
100
AcDbEntity
  8
剖面线
370
13
100
AcDbLine
 10
66.0
 20
-11.225830020304784
 30
0.0
 11
77.22583002030478
 21
-2.842170943040401e-14
 31
0.0
  0
LINE
  5
EF
330
17
100
AcDbEntity
  8
剖面线
370
13
100
AcDbLine
 10
65.99999999999997
 20
-5.568975770812443
 30
0.0
 11
71.56897577081244
 21
0.0
 31
0.0
  0
LINE
  5
F0
330
17
100
AcDbEntity
  8
剖面线
370
13
100
AcDbLine
 10
77.99999999999999
 20
-225.5
 30
0.0
 11
78.0
 21
-225.49999999999997
 31
0.0
  0
LINE
  5
F1
330
17
100
AcDbEntity
  8
剖面线
370
13
100
AcDbLine
 10
72.34314575050753
 20
-225.5
 30
0.0
 11
78.0
 21
-219.84314575050755
 31
0.0
  0
LINE
  5
F2
330
17
100
AcDbEntity
  8
剖面线
370
13
100
AcDbLine
 10
66.68629150101523
 20
-225.5
 30
0.0
 11
78.0
 21
-214.1862915010152
 31
0.0
  0
LINE
  5
F3
330
17
100
AcDbEntity
  8
剖面线
370
13
100
AcDbLine
 10
61.02943725152289
 20
-225.5
 30
0.0
 11
73.02943725152289
 21
-213.5
 31
0.0
  0
LINE
  5
F4
330
17
100
AcDbEntity
  8
剖面线
370
13
100
AcDbLine
 10
55.37258300203048
 20
-225.5
 30
0.0
 11
67.37258300203048
 21
-213.5
 31
0.0
  0
LINE
  5
F5
330
17
100
AcDbEntity
  8
剖面线
370
13
100
AcDbLine
 10
49.71572875253807
 20
-225.5
 30
0.0
 11
61.71572875253807
 21
-213.5
 31
0.0
  0
LINE
  5
F6
330
17
100
AcDbEntity
  8
剖面线
370
13
100
AcDbLine
 10
44.058874503045644
 20
-225.5
 30
0.0
 11
56.058874503045644
 21
-213.5
 31
0.0
  0
LINE
  5
F7
330
17
100
AcDbEntity
  8
剖面线
370
13
100
AcDbLine
 10
38.40202025355332
 20
-225.5
 30
0.0
 11
50.40202025355332
 21
-213.5
 31
0.0
  0
LINE
  5
F8
330
17
100
AcDbEntity
  8
剖面线
370
13
100
AcDbLine
 10
32.74516600406098
 20
-225.5
 30
0.0
 11
44.74516600406099
 21
-213.5
 31
0.0
  0
LINE
  5
F9
330
17
100
AcDbEntity
  8
剖面线
370
13
100
AcDbLine
 10
27.088311754568572
 20
-225.5
 30
0.0
 11
39.08831175456858
 21
-213.5
 31
0.0
  0
LINE
  5
FA
330
17
100
AcDbEntity
  8
剖面线
370
13
100
AcDbLine
 10
21.431457505076168
 20
-225.5
 30
0.0
 11
33.43145750507617
 21
-213.5
 31
0.0
  0
LINE
  5
FB
330
17
100
AcDbEntity
  8
剖面线
370
13
100
AcDbLine
 10
15.77460325558377
 20
-225.5
 30
0.0
 11
27.77460325558377
 21
-213.5
 31
0.0
  0
LINE
  5
FC
330
17
100
AcDbEntity
  8
剖面线
370
13
100
AcDbLine
 10
10.117749006091422
 20
-225.5
 30
0.0
 11
22.11774900609143
 21
-213.5
 31
0.0
  0
LINE
  5
FD
330
17
100
AcDbEntity
  8
剖面线
370
13
100
AcDbLine
 10
4.460894756599025
 20
-225.5
 30
0.0
 11
16.460894756599025
 21
-213.5
 31
0.0
  0
LINE
  5
FE
330
17
100
AcDbEntity
  8
剖面线
370
13
100
AcDbLine
 10
-1.19595949289333
 20
-225.5
 30
0.0
 11
10.804040507106677
 21
-213.5
 31
0.0
  0
LINE
  5
FF
330
17
100
AcDbEntity
  8
剖面线
370
13
100
AcDbLine
 10
-6.852813742385742
 20
-225.5
 30
0.0
 11
5.147186257614258
 21
-213.5
 31
0.0
  0
LINE
  5
100
330
17
100
AcDbEntity
  8
剖面线
370
13
100
AcDbLine
 10
-12.509667991878139
 20
-225.5
 30
0.0
 11
-0.509667991878139
 21
-213.5
 31
0.0
  0
LINE
  5
101
330
17
100
AcDbEntity
  8
剖面线
370
13
100
AcDbLine
 10
-18.16652224137048
 20
-225.5
 30
0.0
 11
-6.16652224137048
 21
-213.5
 31
0.0
  0
LINE
  5
102
330
17
100
AcDbEntity
  8
剖面线
370
13
100
AcDbLine
 10
-23.82337649086289
 20
-225.5
 30
0.0
 11
-11.823376490862884
 21
-213.5
 31
0.0
  0
LINE
  5
103
330
17
100
AcDbEntity
  8
剖面线
370
13
100
AcDbLine
 10
-29.480230740355232
 20
-225.5
 30
0.0
 11
-17.480230740355225
 21
-213.5
 31
0.0
  0
LINE
  5
104
330
17
100
AcDbEntity
  8
剖面线
370
13
100
AcDbLine
 10
-35.13708498984763
 20
-225.5
 30
0.0
 11
-23.13708498984763
 21
-213.5
 31
0.0
  0
LINE
  5
105
330
17
100
AcDbEntity
  8
剖面线
370
13
100
AcDbLine
 10
-40.79393923934001
 20
-225.5
 30
0.0
 11
-28.793939239340013
 21
-213.5
 31
0.0
  0
LINE
  5
106
330
17
100
AcDbEntity
  8
剖面线
370
13
100
AcDbLine
 10
-46.45079348883238
 20
-225.5
 30
0.0
 11
-34.45079348883238
 21
-213.5
 31
0.0
  0
LINE
  5
107
330
17
100
AcDbEntity
  8
剖面线
370
13
100
AcDbLine
 10
-52.1076477383248
 20
-225.5
 30
0.0
 11
-40.10764773832479
 21
-213.5
 31
0.0
  0
LINE
  5
108
330
17
100
AcDbEntity
  8
剖面线
370
13
100
AcDbLine
 10
-57.76450198781714
 20
-225.5
 30
0.0
 11
-45.764501987817134
 21
-213.5
 31
0.0
  0
LINE
  5
109
330
17
100
AcDbEntity
  8
剖面线
370
13
100
AcDbLine
 10
-63.42135623730954
 20
-225.5
 30
0.0
 11
-51.42135623730953
 21
-213.5
 31
0.0
  0
LINE
  5
10A
330
17
100
AcDbEntity
  8
剖面线
370
13
100
AcDbLine
 10
-69.07821048680192
 20
-225.5
 30
0.0
 11
-57.078210486801915
 21
-213.5
 31
0.0
  0
LINE
  5
10B
330
17
100
AcDbEntity
  8
剖面线
370
13
100
AcDbLine
 10
-74.73506473629429
 20
-225.5
 30
0.0
 11
-62.735064736294284
 21
-213.5
 31
0.0
  0
LINE
  5
10C
330
17
100
AcDbEntity
  8
剖面线
370
13
100
AcDbLine
 10
-80.39191898578669
 20
-225.5
 30
0.0
 11
-68.39191898578669
 21
-213.5
 31
0.0
  0
LINE
  5
10D
330
17
100
AcDbEntity
  8
剖面线
370
13
100
AcDbLine
 10
-86.04877323527904
 20
-225.5
 30
0.0
 11
-74.04877323527904
 21
-213.5
 31
0.0
  0
LINE
  5
10E
330
17
100
AcDbEntity
  8
剖面线
370
13
100
AcDbLine
 10
-91.70562748477144
 20
-225.5
 30
0.0
 11
-79.70562748477144
 21
-213.5
 31
0.0
  0
LINE
  5
10F
330
17
100
AcDbEntity
  8
剖面线
370
13
100
AcDbLine
 10
-96.49978336205574
 20
-224.6373016277919
 30
0.0
 11
-85.36248173426382
 21
-213.5
 31
0.0
  0
LINE
  5
110
330
17
100
AcDbEntity
  8
剖面线
370
13
100
AcDbLine
 10
-99.32821048680192
 20
-221.80887450304573
 30
0.0
 11
-91.01933598375619
 21
-213.5
 31
0.0
  0
LINE
  5
111
330
17
100
AcDbEntity
  8
剖面线
370
13
100
AcDbLine
 10
-102.15663761154812
 20
-218.98044737829954
 30
0.0
 11
-96.67619023324858
 21
-213.5
 31
0.0
  0
LINE
  5
112
330
17
100
AcDbEntity
  8
剖面线
370
13
100
AcDbLine
 10
-104.9850647362943
 20
-216.15202025355336
 30
0.0
 11
-102.33304448274095
 21
-213.5
 31
0.0
  0
LINE
  5
113
330
17
100
AcDbEntity
  8
虚线
  6
DASHED
370
18
100
AcDbLine
 10
-104.0
 20
-89.5
 30
0.0
 11
64.0
 21
-89.5
 31
0.0
  0
TEXT
  5
114
330
17
100
AcDbEntity
  8
文字
100
AcDbText
 10
-98.0
 20
-87.5
 30
0.0
 40
3.0
  1
油面
  7
CN
 11
-98.0
 21
-87.5
 31
0.0
100
AcDbText
  0
CIRCLE
  5
115
330
17
100
AcDbEntity
  8
轮廓
370
50
100
AcDbCircle
 10
0.0
 20
-107.5
 30
0.0
 40
90.0
  0
CIRCLE
  5
116
330
17
100
AcDbEntity
  8
细实线
  6
CENTER
370
18
100
AcDbCircle
 10
0.0
 20
-107.5
 30
0.0
 40
87.5
  0
CIRCLE
  5
117
330
17
100
AcDbEntity
  8
细实线
370
18
100
AcDbCircle
 10
0.0
 20
-107.5
 30
0.0
 40
84.5
  0
CIRCLE
  5
118
330
17
100
AcDbEntity
  8
轮廓
370
50
100
AcDbCircle
 10
0.0
 20
-107.5
 30
0.0
 40
24.0
  0
LINE
  5
119
330
17
100
AcDbEntity
  8
剖面线
370
13
100
AcDbLine
 10
42.647377740313644
 20
-179.75747420250036
 30
0.0
 11
72.25747420250032
 21
-150.1473777403137
 31
0.0
  0
LINE
  5
11A
330
17
100
AcDbEntity
  8
剖面线
370
13
100
AcDbLine
 10
31.709319718834237
 20
-183.62446441211426
 30
0.0
 11
76.12446441211425
 21
-139.20931971883425
 31
0.0
  0
LINE
  5
11B
330
17
100
AcDbEntity
  8
剖面线
370
13
100
AcDbLine
 10
20.77126169735483
 20
-187.49145462172817
 30
0.0
 11
79.99145462172821
 21
-128.27126169735482
 31
0.0
  0
LINE
  5
11C
330
17
100
AcDbEntity
  8
剖面线
370
13
100
AcDbLine
 10
9.83320367587541
 20
-191.35844483134213
 30
0.0
 11
83.8584448313421
 21
-117.33320367587544
 31
0.0
  0
LINE
  5
11D
330
17
100
AcDbEntity
  8
剖面线
370
13
100
AcDbLine
 10
6.297669769942701
 20
-187.82291092540942
 30
0.0
 11
80.32291092540939
 21
-113.79766976994273
 31
0.0
  0
LINE
  5
11E
330
17
100
AcDbEntity
  8
剖面线
370
13
100
AcDbLine
 10
-4.640388251536734
 20
-191.68990113502332
 30
0.0
 11
84.18990113502329
 21
-102.8596117484633
 31
0.0
  0
LINE
  5
11F
330
17
100
AcDbEntity
  8
剖面线
370
13
100
AcDbLine
 10
-8.175922157469444
 20
-188.15436722909055
 30
0.0
 11
80.65436722909058
 21
-99.32407784253053
 31
0.0
  0
LINE
  5
120
330
17
100
AcDbEntity
  8
剖面线
370
13
100
AcDbLine
 10
-11.71145606340221
 20
-184.61883332315784
 30
0.0
 11
77.11883332315782
 21
-95.78854393659782
 31
0.0
  0
LINE
  5
121
330
17
100
AcDbEntity
  8
剖面线
370
13
100
AcDbLine
 10
-22.649514084881588
 20
-188.4858235327718
 30
0.0
 11
80.9858235327718
 21
-84.85048591511844
 31
0.0
  0
LINE
  5
122
330
17
100
AcDbEntity
  8
剖面线
370
13
100
AcDbLine
 10
-26.185047990814326
 20
-184.95028962683904
 30
0.0
 11
77.45028962683907
 21
-81.31495200918567
 31
0.0
  0
LINE
  5
123
330
17
100
AcDbEntity
  8
剖面线
370
13
100
AcDbLine
 10
-29.720581896747063
 20
-181.41475572090627
 30
0.0
 11
73.91475572090633
 21
-77.77941810325291
 31
0.0
  0
LINE
  5
124
330
17
100
AcDbEntity
  8
剖面线
370
13
100
AcDbLine
 10
-33.2561158026798
 20
-177.87922181497356
 30
0.0
 11
70.37922181497359
 21
-74.2438841973202
 31
0.0
  0
LINE
  5
125
330
17
100
AcDbEntity
  8
剖面线
370
13
100
AcDbLine
 10
-36.79164970861254
 20
-174.34368790904085
 30
0.0
 11
0.220970869120805
 21
-137.3310673313075
 31
0.0
  0
LINE
  5
126
330
17
100
AcDbEntity
  8
剖面线
370
13
100
AcDbLine
 10
29.83106733130748
 20
-107.72097086912083
 30
0.0
 11
66.84368790904085
 21
-70.70835029138749
 31
0.0
  0
LINE
  5
127
330
17
100
AcDbEntity
  8
剖面线
370
13
100
AcDbLine
 10
-40.32718361454528
 20
-170.8081540031081
 30
0.0
 11
-3.3145630368119328
 21
-133.79553342537474
 31
0.0
  0
LINE
  5
128
330
17
100
AcDbEntity
  8
剖面线
370
13
100
AcDbLine
 10
26.295533425374742
 20
-104.18543696318807
 30
0.0
 11
63.308154003108115
 21
-67.17281638545472
 31
0.0
  0
LINE
  5
129
330
17
100
AcDbEntity
  8
剖面线
370
13
100
AcDbLine
 10
-43.862717520478014
 20
-167.27262009717532
 30
0.0
 11
-14.25262105829134
 21
-137.66252363498864
 31
0.0
  0
LINE
  5
12A
330
17
100
AcDbEntity
  8
剖面线
370
13
100
AcDbLine
 10
30.162523634988673
 20
-93.24737894170863
 30
0.0
 11
59.77262009717538
 21
-63.63728247952196
 31
0.0
  0
LINE
  5
12B
330
17
100
AcDbEntity
  8
剖面线
370
13
100
AcDbLine
 10
-54.800775541957435
 20
-171.13961030678928
 30
0.0
 11
-17.788154964224077
 21
-134.12698972905594
 31
0.0
  0
LINE
  5
12C
330
17
100
AcDbEntity
  8
剖面线
370
13
100
AcDbLine
 10
26.626989729055936
 20
-89.71184503577592
 30
0.0
 11
63.63961030678928
 21
-52.69922445804258
 31
0.0
  0
LINE
  5
12D
330
17
100
AcDbEntity
  8
剖面线
370
13
100
AcDbLine
 10
-58.33630944789017
 20
-167.60407640085657
 30
0.0
 11
-21.323688870156815
 21
-130.59145582312323
 31
0.0
  0
LINE
  5
12E
330
17
100
AcDbEntity
  8
剖面线
370
13
100
AcDbLine
 10
23.091455823123198
 20
-86.17631112984321
 30
0.0
 11
60.10407640085654
 21
-49.16369055210987
 31
0.0
  0
LINE
  5
12F
330
17
100
AcDbEntity
  8
剖面线
370
13
100
AcDbLine
 10
-61.87184335382291
 20
-164.0685424949238
 30
0.0
 11
-24.859222776089553
 21
-127.05592191719046
 31
0.0
  0
LINE
  5
130
330
17
100
AcDbEntity
  8
剖面线
370
13
100
AcDbLine
 10
19.55592191719046
 20
-82.64077722391045
 30
0.0
 11
56.568542494923804
 21
-45.6281566461771
 31
0.0
  0
LINE
  5
131
330
17
100
AcDbEntity
  8
剖面线
370
13
100
AcDbLine
 10
-65.40737725975565
 20
-160.53300858899104
 30
0.0
 11
-28.39475668202229
 21
-123.5203880112577
 31
0.0
  0
LINE
  5
132
330
17
100
AcDbEntity
  8
剖面线
370
13
100
AcDbLine
 10
16.020388011257722
 20
-79.10524331797768
 30
0.0
 11
53.033008588991066
 21
-42.09262274024434
 31
0.0
  0
LINE
  5
133
330
17
100
AcDbEntity
  8
剖面线
370
13
100
AcDbLine
 10
-61.5403870501417
 20
-149.59495056751166
 30
0.0
 11
-24.52776647240836
 21
-112.58232998977832
 31
0.0
  0
LINE
  5
134
330
17
100
AcDbEntity
  8
剖面线
370
13
100
AcDbLine
 10
5.082329989778316
 20
-82.97223352759164
 30
0.0
 11
42.09495056751169
 21
-45.9596129498583
 31
0.0
  0
LINE
  5
135
330
17
100
AcDbEntity
  8
剖面线
370
13
100
AcDbLine
 10
-65.07592095607444
 20
-146.05941666157895
 30
0.0
 11
-28.063300378341097
 21
-109.0467960838456
 31
0.0
  0
LINE
  5
136
330
17
100
AcDbEntity
  8
剖面线
370
13
100
AcDbLine
 10
1.546796083845578
 20
-79.43669962165893
 30
0.0
 11
38.55941666157895
 21
-42.42407904392559
 31
0.0
  0
LINE
  5
137
330
17
100
AcDbEntity
  8
剖面线
370
13
100
AcDbLine
 10
-68.61145486200718
 20
-142.52388275564618
 30
0.0
 11
-24.196310168727166
 21
-98.10873806236617
 31
0.0
  0
LINE
  5
138
330
17
100
AcDbEntity
  8
剖面线
370
13
100
AcDbLine
 10
-9.3912619376338
 20
-83.30368983127283
 30
0.0
 11
35.02388275564621
 21
-38.88854513799282
 31
0.0
  0
LINE
  5
139
330
17
100
AcDbEntity
  8
剖面线
370
13
100
AcDbLine
 10
-72.14698876793992
 20
-138.98834884971342
 30
0.0
 11
31.488348849713475
 21
-35.353011232060055
 31
0.0
  0
LINE
  5
13A
330
17
100
AcDbEntity
  8
剖面线
370
13
100
AcDbLine
 10
-75.68252267387265
 20
-135.4528149437807
 30
0.0
 11
27.952814943780737
 21
-31.817477326127346
 31
0.0
  0
LINE
  5
13B
330
17
100
AcDbEntity
  8
剖面线
370
13
100
AcDbLine
 10
-79.21805657980539
 20
-131.917281037848
 30
0.0
 11
24.417281037848
 21
-28.281943420194636
 31
0.0
  0
LINE
  5
13C
330
17
100
AcDbEntity
  8
剖面线
370
13
100
AcDbLine
 10
-75.35106637019146
 20
-120.97922301636856
 30
0.0
 11
13.479223016368564
 21
-32.14893362980854
 31
0.0
  0
LINE
  5
13D
330
17
100
AcDbEntity
  8
剖面线
370
13
100
AcDbLine
 10
-78.8866002761242
 20
-117.44368911043583
 30
0.0
 11
9.943689110435827
 21
-28.6133997238758
 31
0.0
  0
LINE
  5
13E
330
17
100
AcDbEntity
  8
剖面线
370
13
100
AcDbLine
 10
-82.42213418205694
 20
-113.90815520450309
 30
0.0
 11
6.408155204503089
 21
-25.077865817943064
 31
0.0
  0
LINE
  5
13F
330
17
100
AcDbEntity
  8
剖面线
370
13
100
AcDbLine
 10
-78.555143972443
 20
-102.97009718302368
 30
0.0
 11
-4.529902816976318
 21
-28.944856027556995
 31
0.0
  0
LINE
  5
140
330
17
100
AcDbEntity
  8
剖面线
370
13
100
AcDbLine
 10
-82.09067787837574
 20
-99.43456327709094
 30
0.0
 11
-8.065436722909055
 21
-25.409322121624257
 31
0.0
  0
LINE
  5
141
330
17
100
AcDbEntity
  8
剖面线
370
13
100
AcDbLine
 10
-78.22368766876181
 20
-88.49650525561154
 30
0.0
 11
-19.003494744388433
 21
-29.276312331238188
 31
0.0
  0
LINE
  5
142
330
17
100
AcDbEntity
  8
剖面线
370
13
100
AcDbLine
 10
-74.35669745914788
 20
-77.55844723413213
 30
0.0
 11
-29.94155276586787
 21
-33.14330254085212
 31
0.0
  0
LINE
  5
143
330
17
100
AcDbEntity
  8
剖面线
370
13
100
AcDbLine
 10
-70.48970724953395
 20
-66.62038921265273
 30
0.0
 11
-40.879610787347275
 21
-37.01029275046605
 31
0.0
  0
LINE
  5
144
330
17
100
AcDbEntity
  8
剖面线
370
13
100
AcDbLine
 10
-66.62271703992002
 20
-55.68233119117332
 30
0.0
 11
-51.81766880882665
 21
-40.87728296007998
 31
0.0
  0
LINE
  5
145
330
17
100
AcDbEntity
  8
剖面线
370
13
100
AcDbLine
 10
45.478751143314526
 20
-184.20930064572033
 30
0.0
 11
76.70930064572036
 21
-152.9787511433145
 31
0.0
  0
LINE
  5
146
330
17
100
AcDbEntity
  8
剖面线
370
13
100
AcDbLine
 10
34.984107999204156
 20
-189.32993225281294
 30
0.0
 11
42.79174537480563
 21
-181.52229487721146
 31
0.0
  0
LINE
  5
147
330
17
100
AcDbEntity
  8
剖面线
370
13
100
AcDbLine
 10
74.02229487721146
 20
-150.29174537480563
 30
0.0
 11
81.82993225281294
 21
-142.48410799920416
 31
0.0
  0
LINE
  5
148
330
17
100
AcDbEntity
  8
剖面线
370
13
100
AcDbLine
 10
-75.43650843958505
 20
-63.29404106282078
 30
0.0
 11
-44.20595893717922
 21
-32.063491560414946
 31
0.0
  0
LINE
  5
149
330
17
100
AcDbEntity
  8
剖面线
370
13
100
AcDbLine
 10
-70.31587683249245
 20
-52.79939791871041
 30
0.0
 11
-54.70060208128953
 21
-37.184123167507494
 31
0.0
  0
LINE
  5
14A
330
17
100
AcDbEntity
  8
细实线
370
18
100
AcDbLine
 10
79.40402645640926
 20
-136.400702111019
 30
0.0
 11
84.57233587073176
 21
-138.28181289931018
 31
0.0
  0
LINE
  5
14B
330
17
100
AcDbEntity
  8
细实线
370
18
100
AcDbLine
 10
66.586908679768
 20
-159.52339466501812
 30
0.0
 11
70.92096782460497
 21
-162.90953277930925
 31
0.0
  0
LINE
  5
14C
330
17
100
AcDbEntity
  8
细实线
370
18
100
AcDbLine
 10
47.251800343278106
 20
-177.55367488090104
 30
0.0
 11
50.32736131236721
 21
-182.11338152995376
 31
0.0
  0
LINE
  5
14D
330
17
100
AcDbEntity
  8
细实线
370
18
100
AcDbLine
 10
23.29135656653643
 20
-188.72661330678795
 30
0.0
 11
24.807362023529926
 21
-194.0135526344487
 31
0.0
  0
LINE
  5
14E
330
17
100
AcDbEntity
  8
细实线
370
18
100
AcDbLine
 10
-2.949007471361331
 20
-191.94852488311358
 30
0.0
 11
-3.140954703225086
 21
-197.4451744317186
 31
0.0
  0
LINE
  5
14F
330
17
100
AcDbEntity
  8
细实线
370
18
100
AcDbLine
 10
-28.900702111019005
 20
-186.90402645640927
 30
0.0
 11
-30.781812899310186
 21
-192.07233587073176
 31
0.0
  0
LINE
  5
150
330
17
100
AcDbEntity
  8
细实线
370
18
100
AcDbLine
 10
-52.023394665018124
 20
-174.08690867976802
 30
0.0
 11
-55.409532779309245
 21
-178.420967824605
 31
0.0
  0
LINE
  5
151
330
17
100
AcDbEntity
  8
细实线
370
18
100
AcDbLine
 10
-70.05367488090101
 20
-154.75180034327812
 30
0.0
 11
-74.61338152995374
 21
-157.82736131236723
 31
0.0
  0
LINE
  5
152
330
17
100
AcDbEntity
  8
轮廓
370
50
100
AcDbLine
 10
-36.0
 20
22.5
 30
0.0
 11
36.0
 21
22.5
 31
0.0
  0
LINE
  5
153
330
17
100
AcDbEntity
  8
轮廓
370
50
100
AcDbLine
 10
-36.0
 20
-22.5
 30
0.0
 11
36.0
 21
-22.5
 31
0.0
  0
LINE
  5
154
330
17
100
AcDbEntity
  8
细实线
370
18
100
AcDbLine
 10
-36.0
 20
17.0
 30
0.0
 11
36.0
 21
17.0
 31
0.0
  0
LINE
  5
155
330
17
100
AcDbEntity
  8
细实线
370
18
100
AcDbLine
 10
-36.0
 20
-17.0
 30
0.0
 11
36.0
 21
-17.0
 31
0.0
  0
LINE
  5
156
330
17
100
AcDbEntity
  8
细实线
370
18
100
AcDbLine
 10
-36.0
 20
22.5
 30
0.0
 11
-36.0
 21
-22.5
 31
0.0
  0
LINE
  5
157
330
17
100
AcDbEntity
  8
细实线
370
18
100
AcDbLine
 10
36.0
 20
22.5
 30
0.0
 11
36.0
 21
-22.5
 31
0.0
  0
LINE
  5
158
330
17
100
AcDbEntity
  8
剖面线
370
13
100
AcDbLine
 10
36.0
 20
-17.0
 30
0.0
 11
36.0
 21
-17.0
 31
0.0
  0
LINE
  5
159
330
17
100
AcDbEntity
  8
剖面线
370
13
100
AcDbLine
 10
31.474516600406105
 20
-17.0
 30
0.0
 11
36.0
 21
-12.474516600406119
 31
0.0
  0
LINE
  5
15A
330
17
100
AcDbEntity
  8
剖面线
370
13
100
AcDbLine
 10
26.949033200812195
 20
-16.999999999999986
 30
0.0
 11
36.0
 21
-7.949033200812181
 31
0.0
  0
LINE
  5
15B
330
17
100
AcDbEntity
  8
剖面线
370
13
100
AcDbLine
 10
22.42354980121827
 20
-17.000000000000014
 30
0.0
 11
36.0
 21
-3.423549801218286
 31
0.0
  0
LINE
  5
15C
330
17
100
AcDbEntity
  8
剖面线
370
13
100
AcDbLine
 10
17.898066401624376
 20
-17.000000000000014
 30
0.0
 11
34.89806640162439
 21
0.0
 31
0.0
  0
LINE
  5
15D
330
17
100
AcDbEntity
  8
剖面线
370
13
100
AcDbLine
 10
13.372583002030481
 20
-17.0
 30
0.0
 11
30.37258300203048
 21
0.0
 31
0.0
  0
LINE
  5
15E
330
17
100
AcDbEntity
  8
剖面线
370
13
100
AcDbLine
 10
8.847099602436572
 20
-17.0
 30
0.0
 11
25.847099602436572
 21
0.0
 31
0.0
  0
LINE
  5
15F
330
17
100
AcDbEntity
  8
剖面线
370
13
100
AcDbLine
 10
4.321616202842677
 20
-17.0
 30
0.0
 11
21.321616202842677
 21
0.0
 31
0.0
  0
LINE
  5
160
330
17
100
AcDbEntity
  8
剖面线
370
13
100
AcDbLine
 10
-0.20386719675121867
 20
-17.0
 30
0.0
 11
16.79613280324878
 21
0.0
 31
0.0
  0
LINE
  5
161
330
17
100
AcDbEntity
  8
剖面线
370
13
100
AcDbLine
 10
-4.729350596345114
 20
-17.0
 30
0.0
 11
12.270649403654886
 21
0.0
 31
0.0
  0
LINE
  5
162
330
17
100
AcDbEntity
  8
剖面线
370
13
100
AcDbLine
 10
-9.254833995939038
 20
-17.0
 30
0.0
 11
7.7451660040609625
 21
-1.4210854715202004e-14
 31
0.0
  0
LINE
  5
163
330
17
100
AcDbEntity
  8
剖面线
370
13
100
AcDbLine
 10
-13.780317395532933
 20
-17.0
 30
0.0
 11
3.219682604467067
 21
0.0
 31
0.0
  0
LINE
  5
164
330
17
100
AcDbEntity
  8
剖面线
370
13
100
AcDbLine
 10
-18.305800795126828
 20
-17.0
 30
0.0
 11
-1.305800795126828
 21
0.0
 31
0.0
  0
LINE
  5
165
330
17
100
AcDbEntity
  8
剖面线
370
13
100
AcDbLine
 10
-22.83128419472075
 20
-17.0
 30
0.0
 11
-5.831284194720752
 21
0.0
 31
0.0
  0
LINE
  5
166
330
17
100
AcDbEntity
  8
剖面线
370
13
100
AcDbLine
 10
-27.356767594314647
 20
-17.0
 30
0.0
 11
-10.356767594314647
 21
0.0
 31
0.0
  0
LINE
  5
167
330
17
100
AcDbEntity
  8
剖面线
370
13
100
AcDbLine
 10
-31.882250993908542
 20
-17.0
 30
0.0
 11
-14.882250993908542
 21
0.0
 31
0.0
  0
LINE
  5
168
330
17
100
AcDbEntity
  8
剖面线
370
13
100
AcDbLine
 10
-36.0
 20
-16.59226560649752
 30
0.0
 11
-19.407734393502466
 21
0.0
 31
0.0
  0
LINE
  5
169
330
17
100
AcDbEntity
  8
剖面线
370
13
100
AcDbLine
 10
-36.0
 20
-12.066782206903639
 30
0.0
 11
-23.93321779309636
 21
0.0
 31
0.0
  0
LINE
  5
16A
330
17
100
AcDbEntity
  8
剖面线
370
13
100
AcDbLine
 10
-36.0
 20
-7.541298807309744
 30
0.0
 11
-28.458701192690256
 21
0.0
 31
0.0
  0
LINE
  5
16B
330
17
100
AcDbEntity
  8
剖面线
370
13
100
AcDbLine
 10
-36.0
 20
-3.01581540771582
 30
0.0
 11
-32.98418459228418
 21
0.0
 31
0.0
  0
LINE
  5
16C
330
17
100
AcDbEntity
  8
细实线
370
18
100
AcDbLine
 10
-32.0
 20
22.5
 30
0.0
 11
-27.0
 21
17.0
 31
0.0
  0
LINE
  5
16D
330
17
100
AcDbEntity
  8
细实线
370
18
100
AcDbLine
 10
-32.0
 20
-22.5
 30
0.0
 11
-27.0
 21
-17.0
 31
0.0
  0
LINE
  5
16E
330
17
100
AcDbEntity
  8
细实线
370
18
100
AcDbLine
 10
-25.0
 20
22.5
 30
0.0
 11
-20.0
 21
17.0
 31
0.0
  0
LINE
  5
16F
330
17
100
AcDbEntity
  8
细实线
370
18
100
AcDbLine
 10
-25.0
 20
-22.5
 30
0.0
 11
-20.0
 21
-17.0
 31
0.0
  0
LINE
  5
170
330
17
100
AcDbEntity
  8
细实线
370
18
100
AcDbLine
 10
-18.0
 20
22.5
 30
0.0
 11
-13.0
 21
17.0
 31
0.0
  0
LINE
  5
171
330
17
100
AcDbEntity
  8
细实线
370
18
100
AcDbLine
 10
-18.0
 20
-22.5
 30
0.0
 11
-13.0
 21
-17.0
 31
0.0
  0
LINE
  5
172
330
17
100
AcDbEntity
  8
细实线
370
18
100
AcDbLine
 10
-11.0
 20
22.5
 30
0.0
 11
-6.0
 21
17.0
 31
0.0
  0
LINE
  5
173
330
17
100
AcDbEntity
  8
细实线
370
18
100
AcDbLine
 10
-11.0
 20
-22.5
 30
0.0
 11
-6.0
 21
-17.0
 31
0.0
  0
LINE
  5
174
330
17
100
AcDbEntity
  8
细实线
370
18
100
AcDbLine
 10
-4.0
 20
22.5
 30
0.0
 11
1.0
 21
17.0
 31
0.0
  0
LINE
  5
175
330
17
100
AcDbEntity
  8
细实线
370
18
100
AcDbLine
 10
-4.0
 20
-22.5
 30
0.0
 11
1.0
 21
-17.0
 31
0.0
  0
LINE
  5
176
330
17
100
AcDbEntity
  8
细实线
370
18
100
AcDbLine
 10
3.0
 20
22.5
 30
0.0
 11
8.0
 21
17.0
 31
0.0
  0
LINE
  5
177
330
17
100
AcDbEntity
  8
细实线
370
18
100
AcDbLine
 10
3.0
 20
-22.5
 30
0.0
 11
8.0
 21
-17.0
 31
0.0
  0
LINE
  5
178
330
17
100
AcDbEntity
  8
细实线
370
18
100
AcDbLine
 10
10.0
 20
22.5
 30
0.0
 11
15.0
 21
17.0
 31
0.0
  0
LINE
  5
179
330
17
100
AcDbEntity
  8
细实线
370
18
100
AcDbLine
 10
10.0
 20
-22.5
 30
0.0
 11
15.0
 21
-17.0
 31
0.0
  0
LINE
  5
17A
330
17
100
AcDbEntity
  8
细实线
370
18
100
AcDbLine
 10
17.0
 20
22.5
 30
0.0
 11
22.0
 21
17.0
 31
0.0
  0
LINE
  5
17B
330
17
100
AcDbEntity
  8
细实线
370
18
100
AcDbLine
 10
17.0
 20
-22.5
 30
0.0
 11
22.0
 21
-17.0
 31
0.0
  0
LINE
  5
17C
330
17
100
AcDbEntity
  8
细实线
370
18
100
AcDbLine
 10
24.0
 20
22.5
 30
0.0
 11
29.0
 21
17.0
 31
0.0
  0
LINE
  5
17D
330
17
100
AcDbEntity
  8
细实线
370
18
100
AcDbLine
 10
24.0
 20
-22.5
 30
0.0
 11
29.0
 21
-17.0
 31
0.0
  0
LINE
  5
17E
330
17
100
AcDbEntity
  8
细实线
370
18
100
AcDbLine
 10
31.0
 20
22.5
 30
0.0
 11
36.0
 21
17.0
 31
0.0
  0
LINE
  5
17F
330
17
100
AcDbEntity
  8
细实线
370
18
100
AcDbLine
 10
31.0
 20
-22.5
 30
0.0
 11
36.0
 21
-17.0
 31
0.0
  0
ARC
  5
180
330
17
100
AcDbEntity
  8
标注
370
18
100
AcDbCircle
 10
0.0
 20
-20.0
 30
0.0
 40
14.0
100
AcDbArc
 50
240.0
 51
300.0
  0
TEXT
  5
181
330
17
100
AcDbEntity
  8
标注
100
AcDbText
 10
22.0
 20
-38.0
 30
0.0
 40
3.0
  1
锤击 12°
  7
CN
 11
22.0
 21
-38.0
 31
0.0
100
AcDbText
  0
LINE
  5
182
330
17
100
AcDbEntity
  8
轮廓
370
50
100
AcDbLine
 10
36.0
 20
8.0
 30
0.0
 11
78.0
 21
8.0
 31
0.0
  0
LINE
  5
183
330
17
100
AcDbEntity
  8
轮廓
370
50
100
AcDbLine
 10
36.0
 20
-8.0
 30
0.0
 11
78.0
 21
-8.0
 31
0.0
  0
LINE
  5
184
330
17
100
AcDbEntity
  8
剖面线
370
13
100
AcDbLine
 10
73.75735931288071
 20
-8.0
 30
0.0
 11
78.0
 21
-3.757359312880709
 31
0.0
  0
LINE
  5
185
330
17
100
AcDbEntity
  8
剖面线
370
13
100
AcDbLine
 10
69.51471862576145
 20
-8.0
 30
0.0
 11
77.51471862576143
 21
0.0
 31
0.0
  0
LINE
  5
186
330
17
100
AcDbEntity
  8
剖面线
370
13
100
AcDbLine
 10
65.27207793864216
 20
-8.0
 30
0.0
 11
73.27207793864216
 21
0.0
 31
0.0
  0
LINE
  5
187
330
17
100
AcDbEntity
  8
剖面线
370
13
100
AcDbLine
 10
61.02943725152286
 20
-8.0
 30
0.0
 11
69.02943725152286
 21
-1.4210854715202004e-14
 31
0.0
  0
LINE
  5
188
330
17
100
AcDbEntity
  8
剖面线
370
13
100
AcDbLine
 10
56.78679656440357
 20
-8.000000000000014
 30
0.0
 11
64.78679656440357
 21
0.0
 31
0.0
  0
LINE
  5
189
330
17
100
AcDbEntity
  8
剖面线
370
13
100
AcDbLine
 10
52.54415587728428
 20
-8.0
 30
0.0
 11
60.5441558772843
 21
0.0
 31
0.0
  0
LINE
  5
18A
330
17
100
AcDbEntity
  8
剖面线
370
13
100
AcDbLine
 10
48.301515190165006
 20
-8.000000000000014
 30
0.0
 11
56.301515190165006
 21
0.0
 31
0.0
  0
LINE
  5
18B
330
17
100
AcDbEntity
  8
剖面线
370
13
100
AcDbLine
 10
44.05887450304572
 20
-8.0
 30
0.0
 11
52.058874503045736
 21
0.0
 31
0.0
  0
LINE
  5
18C
330
17
100
AcDbEntity
  8
剖面线
370
13
100
AcDbLine
 10
39.81623381592645
 20
-8.0
 30
0.0
 11
47.81623381592644
 21
0.0
 31
0.0
  0
LINE
  5
18D
330
17
100
AcDbEntity
  8
剖面线
370
13
100
AcDbLine
 10
36.0
 20
-7.573593128807147
 30
0.0
 11
43.57359312880715
 21
0.0
 31
0.0
  0
LINE
  5
18E
330
17
100
AcDbEntity
  8
剖面线
370
13
100
AcDbLine
 10
36.0
 20
-3.330952441687856
 30
0.0
 11
39.330952441687856
 21
-1.4210854715202004e-14
 31
0.0
  0
LINE
  5
18F
330
17
100
AcDbEntity
  8
轮廓
370
50
100
AcDbLine
 10
-36.0
 20
8.0
 30
0.0
 11
-118.0
 21
8.0
 31
0.0
  0
LINE
  5
190
330
17
100
AcDbEntity
  8
轮廓
370
50
100
AcDbLine
 10
-36.0
 20
-8.0
 30
0.0
 11
-118.0
 21
-8.0
 31
0.0
  0
LINE
  5
191
330
17
100
AcDbEntity
  8
剖面线
370
13
100
AcDbLine
 10
-36.000000000000014
 20
-8.0
 30
0.0
 11
-36.0
 21
-8.0
 31
0.0
  0
LINE
  5
192
330
17
100
AcDbEntity
  8
剖面线
370
13
100
AcDbLine
 10
-40.24264068711929
 20
-8.0
 30
0.0
 11
-36.0
 21
-3.757359312880709
 31
0.0
  0
LINE
  5
193
330
17
100
AcDbEntity
  8
剖面线
370
13
100
AcDbLine
 10
-44.48528137423858
 20
-8.0
 30
0.0
 11
-36.485281374238596
 21
0.0
 31
0.0
  0
LINE
  5
194
330
17
100
AcDbEntity
  8
剖面线
370
13
100
AcDbLine
 10
-48.72792206135787
 20
-8.0
 30
0.0
 11
-40.72792206135786
 21
0.0
 31
0.0
  0
LINE
  5
195
330
17
100
AcDbEntity
  8
剖面线
370
13
100
AcDbLine
 10
-52.970562748477136
 20
-8.0
 30
0.0
 11
-44.970562748477136
 21
0.0
 31
0.0
  0
LINE
  5
196
330
17
100
AcDbEntity
  8
剖面线
370
13
100
AcDbLine
 10
-57.21320343559644
 20
-8.0
 30
0.0
 11
-49.21320343559643
 21
0.0
 31
0.0
  0
LINE
  5
197
330
17
100
AcDbEntity
  8
剖面线
370
13
100
AcDbLine
 10
-61.4558441227157
 20
-8.0
 30
0.0
 11
-53.4558441227157
 21
0.0
 31
0.0
  0
LINE
  5
198
330
17
100
AcDbEntity
  8
剖面线
370
13
100
AcDbLine
 10
-65.69848480983502
 20
-8.0
 30
0.0
 11
-57.69848480983502
 21
0.0
 31
0.0
  0
LINE
  5
199
330
17
100
AcDbEntity
  8
剖面线
370
13
100
AcDbLine
 10
-69.9411254969543
 20
-8.0
 30
0.0
 11
-61.941125496954285
 21
0.0
 31
0.0
  0
LINE
  5
19A
330
17
100
AcDbEntity
  8
剖面线
370
13
100
AcDbLine
 10
-74.18376618407355
 20
-8.0
 30
0.0
 11
-66.18376618407355
 21
0.0
 31
0.0
  0
LINE
  5
19B
330
17
100
AcDbEntity
  8
剖面线
370
13
100
AcDbLine
 10
-78.42640687119288
 20
-8.0
 30
0.0
 11
-70.42640687119288
 21
0.0
 31
0.0
  0
LINE
  5
19C
330
17
100
AcDbEntity
  8
剖面线
370
13
100
AcDbLine
 10
-82.66904755831214
 20
-8.000000000000007
 30
0.0
 11
-74.66904755831213
 21
0.0
 31
0.0
  0
LINE
  5
19D
330
17
100
AcDbEntity
  8
剖面线
370
13
100
AcDbLine
 10
-86.91168824543144
 20
-8.000000000000007
 30
0.0
 11
-78.91168824543144
 21
0.0
 31
0.0
  0
LINE
  5
19E
330
17
100
AcDbEntity
  8
剖面线
370
13
100
AcDbLine
 10
-91.15432893255071
 20
-8.0
 30
0.0
 11
-83.15432893255071
 21
0.0
 31
0.0
  0
LINE
  5
19F
330
17
100
AcDbEntity
  8
剖面线
370
13
100
AcDbLine
 10
-95.39696961967002
 20
-8.0
 30
0.0
 11
-87.39696961967002
 21
-7.105427357601002e-15
 31
0.0
  0
LINE
  5
1A0
330
17
100
AcDbEntity
  8
剖面线
370
13
100
AcDbLine
 10
-99.6396103067893
 20
-8.0
 30
0.0
 11
-91.63961030678928
 21
0.0
 31
0.0
  0
LINE
  5
1A1
330
17
100
AcDbEntity
  8
剖面线
370
13
100
AcDbLine
 10
-103.88225099390857
 20
-8.0
 30
0.0
 11
-95.88225099390856
 21
0.0
 31
0.0
  0
LINE
  5
1A2
330
17
100
AcDbEntity
  8
剖面线
370
13
100
AcDbLine
 10
-108.12489168102788
 20
-8.0
 30
0.0
 11
-100.12489168102789
 21
-7.105427357601002e-15
 31
0.0
  0
LINE
  5
1A3
330
17
100
AcDbEntity
  8
剖面线
370
13
100
AcDbLine
 10
-112.36753236814714
 20
-8.0
 30
0.0
 11
-104.36753236814714
 21
0.0
 31
0.0
  0
LINE
  5
1A4
330
17
100
AcDbEntity
  8
剖面线
370
13
100
AcDbLine
 10
-116.61017305526642
 20
-8.0
 30
0.0
 11
-108.61017305526642
 21
0.0
 31
0.0
  0
LINE
  5
1A5
330
17
100
AcDbEntity
  8
剖面线
370
13
100
AcDbLine
 10
-118.0
 20
-5.14718625761428
 30
0.0
 11
-112.85281374238572
 21
0.0
 31
0.0
  0
LINE
  5
1A6
330
17
100
AcDbEntity
  8
剖面线
370
13
100
AcDbLine
 10
-118.0
 20
-0.90454557049501
 30
0.0
 11
-117.095454429505
 21
0.0
 31
0.0
  0
LINE
  5
1A7
330
17
100
AcDbEntity
  8
细实线
370
18
100
AcDbLine
 10
-59.0
 20
-16.0
 30
0.0
 11
-45.0
 21
-16.0
 31
0.0
  0
LINE
  5
1A8
330
17
100
AcDbEntity
  8
细实线
370
18
100
AcDbLine
 10
-45.0
 20
-16.0
 30
0.0
 11
-45.0
 21
16.0
 31
0.0
  0
LINE
  5
1A9
330
17
100
AcDbEntity
  8
细实线
370
18
100
AcDbLine
 10
-45.0
 20
16.0
 30
0.0
 11
-59.0
 21
16.0
 31
0.0
  0
LINE
  5
1AA
330
17
100
AcDbEntity
  8
细实线
370
18
100
AcDbLine
 10
-59.0
 20
16.0
 30
0.0
 11
-59.0
 21
-16.0
 31
0.0
  0
LINE
  5
1AB
330
17
100
AcDbEntity
  8
剖面线
370
13
100
AcDbLine
 10
-45.00000000000001
 20
-16.0
 30
0.0
 11
-45.0
 21
-15.999999999999993
 31
0.0
  0
LINE
  5
1AC
330
17
100
AcDbEntity
  8
剖面线
370
13
100
AcDbLine
 10
-48.959797974644665
 20
-16.0
 30
0.0
 11
-44.99999999999999
 21
-12.040202025355335
 31
0.0
  0
LINE
  5
1AD
330
17
100
AcDbEntity
  8
剖面线
370
13
100
AcDbLine
 10
-52.91959594928933
 20
-16.0
 30
0.0
 11
-45.0
 21
-8.08040405071067
 31
0.0
  0
LINE
  5
1AE
330
17
100
AcDbEntity
  8
剖面线
370
13
100
AcDbLine
 10
-56.87939392393401
 20
-16.0
 30
0.0
 11
-45.0
 21
-4.1206060760659895
 31
0.0
  0
LINE
  5
1AF
330
17
100
AcDbEntity
  8
剖面线
370
13
100
AcDbLine
 10
-59.0
 20
-14.160808101421331
 30
0.0
 11
-45.0
 21
-0.16080810142133828
 31
0.0
  0
LINE
  5
1B0
330
17
100
AcDbEntity
  8
剖面线
370
13
100
AcDbLine
 10
-59.0
 20
-10.201010126776673
 30
0.0
 11
-48.79898987322332
 21
0.0
 31
0.0
  0
LINE
  5
1B1
330
17
100
AcDbEntity
  8
剖面线
370
13
100
AcDbLine
 10
-59.0
 20
-6.241212152132007
 30
0.0
 11
-52.75878784786799
 21
0.0
 31
0.0
  0
LINE
  5
1B2
330
17
100
AcDbEntity
  8
剖面线
370
13
100
AcDbLine
 10
-59.0
 20
-2.281414177487349
 30
0.0
 11
-56.71858582251265
 21
0.0
 31
0.0
  0
LINE
  5
1B3
330
17
100
AcDbEntity
  8
细实线
370
18
100
AcDbLine
 10
41.0
 20
-16.0
 30
0.0
 11
55.0
 21
-16.0
 31
0.0
  0
LINE
  5
1B4
330
17
100
AcDbEntity
  8
细实线
370
18
100
AcDbLine
 10
55.0
 20
-16.0
 30
0.0
 11
55.0
 21
16.0
 31
0.0
  0
LINE
  5
1B5
330
17
100
AcDbEntity
  8
细实线
370
18
100
AcDbLine
 10
55.0
 20
16.0
 30
0.0
 11
41.0
 21
16.0
 31
0.0
  0
LINE
  5
1B6
330
17
100
AcDbEntity
  8
细实线
370
18
100
AcDbLine
 10
41.0
 20
16.0
 30
0.0
 11
41.0
 21
-16.0
 31
0.0
  0
LINE
  5
1B7
330
17
100
AcDbEntity
  8
剖面线
370
13
100
AcDbLine
 10
54.99999999999999
 20
-16.0
 30
0.0
 11
54.99999999999999
 21
-16.0
 31
0.0
  0
LINE
  5
1B8
330
17
100
AcDbEntity
  8
剖面线
370
13
100
AcDbLine
 10
51.040202025355335
 20
-16.0
 30
0.0
 11
55.00000000000001
 21
-12.040202025355342
 31
0.0
  0
LINE
  5
1B9
330
17
100
AcDbEntity
  8
剖面线
370
13
100
AcDbLine
 10
47.08040405071067
 20
-16.0
 30
0.0
 11
55.0
 21
-8.080404050710655
 31
0.0
  0
LINE
  5
1BA
330
17
100
AcDbEntity
  8
剖面线
370
13
100
AcDbLine
 10
43.12060607606601
 20
-16.0
 30
0.0
 11
55.0
 21
-4.120606076066011
 31
0.0
  0
LINE
  5
1BB
330
17
100
AcDbEntity
  8
剖面线
370
13
100
AcDbLine
 10
41.0
 20
-14.160808101421338
 30
0.0
 11
55.0
 21
-0.1608081014213525
 31
0.0
  0
LINE
  5
1BC
330
17
100
AcDbEntity
  8
剖面线
370
13
100
AcDbLine
 10
41.0
 20
-10.201010126776694
 30
0.0
 11
51.201010126776694
 21
1.4210854715202004e-14
 31
0.0
  0
LINE
  5
1BD
330
17
100
AcDbEntity
  8
剖面线
370
13
100
AcDbLine
 10
41.0
 20
-6.241212152132022
 30
0.0
 11
47.241212152132036
 21
0.0
 31
0.0
  0
LINE
  5
1BE
330
17
100
AcDbEntity
  8
剖面线
370
13
100
AcDbLine
 10
40.99999999999999
 20
-2.2814141774873633
 30
0.0
 11
43.281414177487356
 21
0.0
 31
0.0
  0
LINE
  5
1BF
330
17
100
AcDbEntity
  8
轮廓
370
50
100
AcDbLine
 10
-68.0
 20
-18.0
 30
0.0
 11
-60.0
 21
-18.0
 31
0.0
  0
LINE
  5
1C0
330
17
100
AcDbEntity
  8
轮廓
370
50
100
AcDbLine
 10
-60.0
 20
-18.0
 30
0.0
 11
-60.0
 21
18.0
 31
0.0
  0
LINE
  5
1C1
330
17
100
AcDbEntity
  8
轮廓
370
50
100
AcDbLine
 10
-60.0
 20
18.0
 30
0.0
 11
-68.0
 21
18.0
 31
0.0
  0
LINE
  5
1C2
330
17
100
AcDbEntity
  8
轮廓
370
50
100
AcDbLine
 10
-68.0
 20
18.0
 30
0.0
 11
-68.0
 21
-18.0
 31
0.0
  0
LINE
  5
1C3
330
17
100
AcDbEntity
  8
剖面线
370
13
100
AcDbLine
 10
-63.394112549695414
 20
-18.0
 30
0.0
 11
-60.0
 21
-14.605887450304586
 31
0.0
  0
LINE
  5
1C4
330
17
100
AcDbEntity
  8
剖面线
370
13
100
AcDbLine
 10
-66.78822509939086
 20
-18.0
 30
0.0
 11
-60.0
 21
-11.21177490060915
 31
0.0
  0
LINE
  5
1C5
330
17
100
AcDbEntity
  8
剖面线
370
13
100
AcDbLine
 10
-68.0
 20
-15.817662350913725
 30
0.0
 11
-60.0
 21
-7.817662350913729
 31
0.0
  0
LINE
  5
1C6
330
17
100
AcDbEntity
  8
剖面线
370
13
100
AcDbLine
 10
-68.0
 20
-12.423549801218304
 30
0.0
 11
-60.0
 21
-4.423549801218307
 31
0.0
  0
LINE
  5
1C7
330
17
100
AcDbEntity
  8
剖面线
370
13
100
AcDbLine
 10
-68.0
 20
-9.029437251522879
 30
0.0
 11
-60.0
 21
-1.0294372515228787
 31
0.0
  0
LINE
  5
1C8
330
17
100
AcDbEntity
  8
剖面线
370
13
100
AcDbLine
 10
-68.0
 20
-5.63532470182745
 30
0.0
 11
-62.36467529817255
 21
0.0
 31
0.0
  0
LINE
  5
1C9
330
17
100
AcDbEntity
  8
剖面线
370
13
100
AcDbLine
 10
-68.0
 20
-2.2412121521320145
 30
0.0
 11
-65.75878784786798
 21
0.0
 31
0.0
  0
LINE
  5
1CA
330
17
100
AcDbEntity
  8
轮廓
370
50
100
AcDbLine
 10
-24.0
 20
28.0
 30
0.0
 11
-24.0
 21
-225.5
 31
0.0
  0
LINE
  5
1CB
330
17
100
AcDbEntity
  8
轮廓
370
50
100
AcDbLine
 10
24.0
 20
28.0
 30
0.0
 11
24.0
 21
-225.5
 31
0.0
  0
LINE
  5
1CC
330
17
100
AcDbEntity
  8
虚线
  6
DASHED
370
18
100
AcDbLine
 10
-10.0
 20
28.0
 30
0.0
 11
-10.0
 21
-255.5
 31
0.0
  0
LINE
  5
1CD
330
17
100
AcDbEntity
  8
虚线
  6
DASHED
370
18
100
AcDbLine
 10
10.0
 20
28.0
 30
0.0
 11
10.0
 21
-255.5
 31
0.0
  0
LINE
  5
1CE
330
17
100
AcDbEntity
  8
轮廓
370
50
100
AcDbLine
 10
-22.0
 20
18.0
 30
0.0
 11
22.0
 21
18.0
 31
0.0
  0
LINE
  5
1CF
330
17
100
AcDbEntity
  8
轮廓
370
50
100
AcDbLine
 10
22.0
 20
18.0
 30
0.0
 11
22.0
 21
36.0
 31
0.0
  0
LINE
  5
1D0
330
17
100
AcDbEntity
  8
轮廓
370
50
100
AcDbLine
 10
22.0
 20
36.0
 30
0.0
 11
-22.0
 21
36.0
 31
0.0
  0
LINE
  5
1D1
330
17
100
AcDbEntity
  8
轮廓
370
50
100
AcDbLine
 10
-22.0
 20
36.0
 30
0.0
 11
-22.0
 21
18.0
 31
0.0
  0
TEXT
  5
1D2
330
17
100
AcDbEntity
  8
文字
100
AcDbText
 10
0.0
 20
27.0
 30
0.0
 40
2.8
  1
ABS
  7
CN
 72
1
 11
0.0
 21
27.0
 31
0.0
100
AcDbText
 73
2
  0
LINE
  5
1D3
330
17
100
AcDbEntity
  8
轮廓
370
50
100
AcDbLine
 10
-150.0
 20
-28.0
 30
0.0
 11
-118.0
 21
-28.0
 31
0.0
  0
LINE
  5
1D4
330
17
100
AcDbEntity
  8
轮廓
370
50
100
AcDbLine
 10
-118.0
 20
-28.0
 30
0.0
 11
-118.0
 21
28.0
 31
0.0
  0
LINE
  5
1D5
330
17
100
AcDbEntity
  8
轮廓
370
50
100
AcDbLine
 10
-118.0
 20
28.0
 30
0.0
 11
-150.0
 21
28.0
 31
0.0
  0
LINE
  5
1D6
330
17
100
AcDbEntity
  8
轮廓
370
50
100
AcDbLine
 10
-150.0
 20
28.0
 30
0.0
 11
-150.0
 21
-28.0
 31
0.0
  0
LINE
  5
1D7
330
17
100
AcDbEntity
  8
剖面线
370
13
100
AcDbLine
 10
-118.0
 20
-28.0
 30
0.0
 11
-118.0
 21
-27.999999999999993
 31
0.0
  0
LINE
  5
1D8
330
17
100
AcDbEntity
  8
剖面线
370
13
100
AcDbLine
 10
-122.94974746830583
 20
-28.0
 30
0.0
 11
-118.0
 21
-23.050252531694174
 31
0.0
  0
LINE
  5
1D9
330
17
100
AcDbEntity
  8
剖面线
370
13
100
AcDbLine
 10
-127.89949493661166
 20
-28.0
 30
0.0
 11
-118.0
 21
-18.100505063388344
 31
0.0
  0
LINE
  5
1DA
330
17
100
AcDbEntity
  8
剖面线
370
13
100
AcDbLine
 10
-132.8492424049175
 20
-28.0
 30
0.0
 11
-118.0
 21
-13.150757595082492
 31
0.0
  0
LINE
  5
1DB
330
17
100
AcDbEntity
  8
剖面线
370
13
100
AcDbLine
 10
-137.79898987322332
 20
-28.0
 30
0.0
 11
-118.0
 21
-8.201010126776673
 31
0.0
  0
LINE
  5
1DC
330
17
100
AcDbEntity
  8
剖面线
370
13
100
AcDbLine
 10
-142.74873734152916
 20
-28.0
 30
0.0
 11
-118.0
 21
-3.2512626584708464
 31
0.0
  0
LINE
  5
1DD
330
17
100
AcDbEntity
  8
剖面线
370
13
100
AcDbLine
 10
-146.41778489984128
 20
-26.719300090006293
 30
0.0
 11
-119.69848480983498
 21
0.0
 31
0.0
  0
LINE
  5
1DE
330
17
100
AcDbEntity
  8
剖面线
370
13
100
AcDbLine
 10
-148.8926586339942
 20
-24.244426355853378
 30
0.0
 11
-124.6482322781408
 21
0.0
 31
0.0
  0
LINE
  5
1DF
330
17
100
AcDbEntity
  8
剖面线
370
13
100
AcDbLine
 10
-150.0
 20
-20.402020253553346
 30
0.0
 11
-129.59797974644664
 21
0.0
 31
0.0
  0
LINE
  5
1E0
330
17
100
AcDbEntity
  8
剖面线
370
13
100
AcDbLine
 10
-150.0
 20
-15.452272785247516
 30
0.0
 11
-134.54772721475248
 21
0.0
 31
0.0
  0
LINE
  5
1E1
330
17
100
AcDbEntity
  8
剖面线
370
13
100
AcDbLine
 10
-150.0
 20
-10.502525316941687
 30
0.0
 11
-139.4974746830583
 21
0.0
 31
0.0
  0
LINE
  5
1E2
330
17
100
AcDbEntity
  8
剖面线
370
13
100
AcDbLine
 10
-150.0
 20
-5.5527778486358415
 30
0.0
 11
-144.44722215136414
 21
1.7763568394002505e-15
 31
0.0
  0
LINE
  5
1E3
330
17
100
AcDbEntity
  8
剖面线
370
13
100
AcDbLine
 10
-150.0
 20
-0.6030303803300132
 30
0.0
 11
-149.39696961967
 21
0.0
 31
0.0
  0
CIRCLE
  5
1E4
330
17
100
AcDbEntity
  8
轮廓
370
50
100
AcDbCircle
 10
-208.0
 20
0.0
 30
0.0
 40
90.0
  0
CIRCLE
  5
1E5
330
17
100
AcDbEntity
  8
细实线
370
18
100
AcDbCircle
 10
-208.0
 20
0.0
 30
0.0
 40
76.0
  0
LINE
  5
1E6
330
17
100
AcDbEntity
  8
轮廓
370
50
100
AcDbLine
 10
-298.0
 20
0.0
 30
0.0
 11
-150.0
 21
0.0
 31
0.0
  0
LINE
  5
1E7
330
17
100
AcDbEntity
  8
细实线
370
18
100
AcDbLine
 10
-193.25526320279815
 20
10.324375854318829
 30
0.0
 11
-145.74444463403663
 21
43.591809162679496
 31
0.0
  0
LINE
  5
1E8
330
17
100
AcDbEntity
  8
细实线
370
18
100
AcDbLine
 10
-208.0
 20
18.0
 30
0.0
 11
-208.0
 21
76.0
 31
0.0
  0
LINE
  5
1E9
330
17
100
AcDbEntity
  8
细实线
370
18
100
AcDbLine
 10
-222.74473679720185
 20
10.324375854318827
 30
0.0
 11
-270.2555553659634
 21
43.59180916267949
 31
0.0
  0
LINE
  5
1EA
330
17
100
AcDbEntity
  8
细实线
370
18
100
AcDbLine
 10
-222.74473679720185
 20
-10.32437585431883
 30
0.0
 11
-270.25555536596335
 21
-43.59180916267951
 31
0.0
  0
LINE
  5
1EB
330
17
100
AcDbEntity
  8
细实线
370
18
100
AcDbLine
 10
-208.0
 20
-18.0
 30
0.0
 11
-208.0
 21
-76.0
 31
0.0
  0
LINE
  5
1EC
330
17
100
AcDbEntity
  8
细实线
370
18
100
AcDbLine
 10
-193.25526320279815
 20
-10.324375854318838
 30
0.0
 11
-145.74444463403665
 21
-43.59180916267953
 31
0.0
  0
LINE
  5
1ED
330
17
100
AcDbEntity
  8
轮廓
370
50
100
AcDbLine
 10
-142.0
 20
28.0
 30
0.0
 11
-142.0
 21
58.0
 31
0.0
  0
LINE
  5
1EE
330
17
100
AcDbEntity
  8
轮廓
370
50
100
AcDbLine
 10
-154.0
 20
58.0
 30
0.0
 11
-130.0
 21
58.0
 31
0.0
  0
LINE
  5
1EF
330
17
100
AcDbEntity
  8
轮廓
370
50
100
AcDbLine
 10
-130.0
 20
58.0
 30
0.0
 11
-130.0
 21
70.0
 31
0.0
  0
LINE
  5
1F0
330
17
100
AcDbEntity
  8
轮廓
370
50
100
AcDbLine
 10
-130.0
 20
70.0
 30
0.0
 11
-154.0
 21
70.0
 31
0.0
  0
LINE
  5
1F1
330
17
100
AcDbEntity
  8
轮廓
370
50
100
AcDbLine
 10
-154.0
 20
70.0
 30
0.0
 11
-154.0
 21
58.0
 31
0.0
  0
LINE
  5
1F2
330
17
100
AcDbEntity
  8
轮廓
370
50
100
AcDbLine
 10
78.0
 20
-82.5
 30
0.0
 11
92.0
 21
-82.5
 31
0.0
  0
LINE
  5
1F3
330
17
100
AcDbEntity
  8
轮廓
370
50
100
AcDbLine
 10
92.0
 20
-82.5
 30
0.0
 11
92.0
 21
82.5
 31
0.0
  0
LINE
  5
1F4
330
17
100
AcDbEntity
  8
轮廓
370
50
100
AcDbLine
 10
92.0
 20
82.5
 30
0.0
 11
78.0
 21
82.5
 31
0.0
  0
LINE
  5
1F5
330
17
100
AcDbEntity
  8
轮廓
370
50
100
AcDbLine
 10
78.0
 20
82.5
 30
0.0
 11
78.0
 21
-82.5
 31
0.0
  0
LINE
  5
1F6
330
17
100
AcDbEntity
  8
轮廓
370
50
100
AcDbLine
 10
92.0
 20
-78.0
 30
0.0
 11
268.0
 21
-78.0
 31
0.0
  0
LINE
  5
1F7
330
17
100
AcDbEntity
  8
轮廓
370
50
100
AcDbLine
 10
268.0
 20
-78.0
 30
0.0
 11
268.0
 21
78.0
 31
0.0
  0
LINE
  5
1F8
330
17
100
AcDbEntity
  8
轮廓
370
50
100
AcDbLine
 10
268.0
 20
78.0
 30
0.0
 11
92.0
 21
78.0
 31
0.0
  0
LINE
  5
1F9
330
17
100
AcDbEntity
  8
轮廓
370
50
100
AcDbLine
 10
92.0
 20
78.0
 30
0.0
 11
92.0
 21
-78.0
 31
0.0
  0
LINE
  5
1FA
330
17
100
AcDbEntity
  8
剖面线
370
13
100
AcDbLine
 10
86.34314575050762
 20
-82.5
 30
0.0
 11
91.99999999999999
 21
-76.84314575050763
 31
0.0
  0
LINE
  5
1FB
330
17
100
AcDbEntity
  8
剖面线
370
13
100
AcDbLine
 10
80.68629150101525
 20
-82.5
 30
0.0
 11
92.0
 21
-71.18629150101525
 31
0.0
  0
LINE
  5
1FC
330
17
100
AcDbEntity
  8
剖面线
370
13
100
AcDbLine
 10
78.0
 20
-79.52943725152288
 30
0.0
 11
92.0
 21
-65.52943725152288
 31
0.0
  0
LINE
  5
1FD
330
17
100
AcDbEntity
  8
剖面线
370
13
100
AcDbLine
 10
77.99999999999999
 20
-73.87258300203047
 30
0.0
 11
92.0
 21
-59.87258300203045
 31
0.0
  0
LINE
  5
1FE
330
17
100
AcDbEntity
  8
剖面线
370
13
100
AcDbLine
 10
78.00000000000001
 20
-68.2157287525381
 30
0.0
 11
92.0
 21
-54.21572875253811
 31
0.0
  0
LINE
  5
1FF
330
17
100
AcDbEntity
  8
剖面线
370
13
100
AcDbLine
 10
78.0
 20
-62.558874503045715
 30
0.0
 11
91.99999999999999
 21
-48.55887450304573
 31
0.0
  0
LINE
  5
200
330
17
100
AcDbEntity
  8
剖面线
370
13
100
AcDbLine
 10
78.00000000000001
 20
-56.90202025355333
 30
0.0
 11
92.0
 21
-42.90202025355336
 31
0.0
  0
LINE
  5
201
330
17
100
AcDbEntity
  8
剖面线
370
13
100
AcDbLine
 10
78.0
 20
-51.24516600406098
 30
0.0
 11
92.0
 21
-37.24516600406099
 31
0.0
  0
LINE
  5
202
330
17
100
AcDbEntity
  8
剖面线
370
13
100
AcDbLine
 10
78.00000000000001
 20
-45.58831175456854
 30
0.0
 11
91.99999999999999
 21
-31.588311754568565
 31
0.0
  0
LINE
  5
203
330
17
100
AcDbEntity
  8
剖面线
370
13
100
AcDbLine
 10
78.00000000000001
 20
-39.93145750507621
 30
0.0
 11
92.00000000000001
 21
-25.931457505076224
 31
0.0
  0
LINE
  5
204
330
17
100
AcDbEntity
  8
剖面线
370
13
100
AcDbLine
 10
78.0
 20
-34.27460325558383
 30
0.0
 11
92.0
 21
-20.2746032555838
 31
0.0
  0
LINE
  5
205
330
17
100
AcDbEntity
  8
剖面线
370
13
100
AcDbLine
 10
78.0
 20
-28.61774900609143
 30
0.0
 11
92.0
 21
-14.617749006091458
 31
0.0
  0
LINE
  5
206
330
17
100
AcDbEntity
  8
剖面线
370
13
100
AcDbLine
 10
78.0
 20
-22.96089475659909
 30
0.0
 11
92.0
 21
-8.960894756599089
 31
0.0
  0
LINE
  5
207
330
17
100
AcDbEntity
  8
剖面线
370
13
100
AcDbLine
 10
78.0
 20
-17.30404050710669
 30
0.0
 11
92.0
 21
-3.304040507106663
 31
0.0
  0
LINE
  5
208
330
17
100
AcDbEntity
  8
剖面线
370
13
100
AcDbLine
 10
78.00000000000001
 20
-11.647186257614294
 30
0.0
 11
89.64718625761434
 21
0.0
 31
0.0
  0
LINE
  5
209
330
17
100
AcDbEntity
  8
剖面线
370
13
100
AcDbLine
 10
78.0
 20
-5.990332008121925
 30
0.0
 11
83.9903320081219
 21
0.0
 31
0.0
  0
LINE
  5
20A
330
17
100
AcDbEntity
  8
剖面线
370
13
100
AcDbLine
 10
78.0
 20
-0.33347775862952744
 30
0.0
 11
78.33347775862956
 21
0.0
 31
0.0
  0
LINE
  5
20B
330
17
100
AcDbEntity
  8
剖面线
370
13
100
AcDbLine
 10
268.0
 20
-78.0
 30
0.0
 11
268.0
 21
-78.0
 31
0.0
  0
LINE
  5
20C
330
17
100
AcDbEntity
  8
剖面线
370
13
100
AcDbLine
 10
260.92893218813447
 20
-78.0
 30
0.0
 11
268.0
 21
-70.92893218813452
 31
0.0
  0
LINE
  5
20D
330
17
100
AcDbEntity
  8
剖面线
370
13
100
AcDbLine
 10
253.85786437626902
 20
-78.0
 30
0.0
 11
268.0
 21
-63.85786437626905
 31
0.0
  0
LINE
  5
20E
330
17
100
AcDbEntity
  8
剖面线
370
13
100
AcDbLine
 10
246.78679656440357
 20
-78.0
 30
0.0
 11
268.0
 21
-56.78679656440357
 31
0.0
  0
LINE
  5
20F
330
17
100
AcDbEntity
  8
剖面线
370
13
100
AcDbLine
 10
239.71572875253807
 20
-78.0
 30
0.0
 11
268.0
 21
-49.7157287525381
 31
0.0
  0
LINE
  5
210
330
17
100
AcDbEntity
  8
剖面线
370
13
100
AcDbLine
 10
232.64466094067262
 20
-78.0
 30
0.0
 11
268.0
 21
-42.64466094067262
 31
0.0
  0
LINE
  5
211
330
17
100
AcDbEntity
  8
剖面线
370
13
100
AcDbLine
 10
225.57359312880712
 20
-78.0
 30
0.0
 11
268.0
 21
-35.57359312880715
 31
0.0
  0
LINE
  5
212
330
17
100
AcDbEntity
  8
剖面线
370
13
100
AcDbLine
 10
218.50252531694164
 20
-78.0
 30
0.0
 11
268.0
 21
-28.50252531694167
 31
0.0
  0
LINE
  5
213
330
17
100
AcDbEntity
  8
剖面线
370
13
100
AcDbLine
 10
211.43145750507617
 20
-78.0
 30
0.0
 11
268.0
 21
-21.431457505076196
 31
0.0
  0
LINE
  5
214
330
17
100
AcDbEntity
  8
剖面线
370
13
100
AcDbLine
 10
204.3603896932107
 20
-78.0
 30
0.0
 11
268.0
 21
-14.36038969321072
 31
0.0
  0
LINE
  5
215
330
17
100
AcDbEntity
  8
剖面线
370
13
100
AcDbLine
 10
197.28932188134524
 20
-77.99999999999997
 30
0.0
 11
268.0
 21
-7.289321881345188
 31
0.0
  0
LINE
  5
216
330
17
100
AcDbEntity
  8
剖面线
370
13
100
AcDbLine
 10
190.21825406947977
 20
-78.0
 30
0.0
 11
268.0
 21
-0.21825406947976944
 31
0.0
  0
LINE
  5
217
330
17
100
AcDbEntity
  8
剖面线
370
13
100
AcDbLine
 10
183.14718625761427
 20
-78.0
 30
0.0
 11
261.1471862576143
 21
0.0
 31
0.0
  0
LINE
  5
218
330
17
100
AcDbEntity
  8
剖面线
370
13
100
AcDbLine
 10
176.07611844574882
 20
-78.0
 30
0.0
 11
254.07611844574882
 21
0.0
 31
0.0
  0
LINE
  5
219
330
17
100
AcDbEntity
  8
剖面线
370
13
100
AcDbLine
 10
169.00505063388334
 20
-78.0
 30
0.0
 11
247.0050506338834
 21
0.0
 31
0.0
  0
LINE
  5
21A
330
17
100
AcDbEntity
  8
剖面线
370
13
100
AcDbLine
 10
161.93398282201787
 20
-77.99999999999997
 30
0.0
 11
239.93398282201787
 21
0.0
 31
0.0
  0
LINE
  5
21B
330
17
100
AcDbEntity
  8
剖面线
370
13
100
AcDbLine
 10
154.8629150101524
 20
-78.0
 30
0.0
 11
232.8629150101524
 21
0.0
 31
0.0
  0
LINE
  5
21C
330
17
100
AcDbEntity
  8
剖面线
370
13
100
AcDbLine
 10
147.79184719828692
 20
-78.00000000000003
 30
0.0
 11
225.79184719828692
 21
0.0
 31
0.0
  0
LINE
  5
21D
330
17
100
AcDbEntity
  8
剖面线
370
13
100
AcDbLine
 10
140.72077938642144
 20
-78.0
 30
0.0
 11
218.72077938642144
 21
0.0
 31
0.0
  0
LINE
  5
21E
330
17
100
AcDbEntity
  8
剖面线
370
13
100
AcDbLine
 10
133.64971157455597
 20
-78.0
 30
0.0
 11
211.64971157455597
 21
0.0
 31
0.0
  0
LINE
  5
21F
330
17
100
AcDbEntity
  8
剖面线
370
13
100
AcDbLine
 10
126.57864376269048
 20
-78.0
 30
0.0
 11
204.5786437626905
 21
0.0
 31
0.0
  0
LINE
  5
220
330
17
100
AcDbEntity
  8
剖面线
370
13
100
AcDbLine
 10
119.507575950825
 20
-78.0
 30
0.0
 11
197.50757595082501
 21
0.0
 31
0.0
  0
LINE
  5
221
330
17
100
AcDbEntity
  8
剖面线
370
13
100
AcDbLine
 10
112.43650813895955
 20
-78.0
 30
0.0
 11
190.4365081389596
 21
0.0
 31
0.0
  0
LINE
  5
222
330
17
100
AcDbEntity
  8
剖面线
370
13
100
AcDbLine
 10
105.36544032709405
 20
-78.0
 30
0.0
 11
183.36544032709406
 21
0.0
 31
0.0
  0
LINE
  5
223
330
17
100
AcDbEntity
  8
剖面线
370
13
100
AcDbLine
 10
98.29437251522855
 20
-78.00000000000003
 30
0.0
 11
176.2943725152286
 21
0.0
 31
0.0
  0
LINE
  5
224
330
17
100
AcDbEntity
  8
剖面线
370
13
100
AcDbLine
 10
92.00000000000001
 20
-77.22330470336308
 30
0.0
 11
169.2233047033631
 21
0.0
 31
0.0
  0
LINE
  5
225
330
17
100
AcDbEntity
  8
剖面线
370
13
100
AcDbLine
 10
91.99999999999999
 20
-70.15223689149764
 30
0.0
 11
162.1522368914977
 21
0.0
 31
0.0
  0
LINE
  5
226
330
17
100
AcDbEntity
  8
剖面线
370
13
100
AcDbLine
 10
92.00000000000001
 20
-63.08116907963216
 30
0.0
 11
155.08116907963216
 21
0.0
 31
0.0
  0
LINE
  5
227
330
17
100
AcDbEntity
  8
剖面线
370
13
100
AcDbLine
 10
91.99999999999999
 20
-56.010101267766686
 30
0.0
 11
148.0101012677667
 21
0.0
 31
0.0
  0
LINE
  5
228
330
17
100
AcDbEntity
  8
剖面线
370
13
100
AcDbLine
 10
91.99999999999999
 20
-48.93903345590121
 30
0.0
 11
140.9390334559012
 21
2.842170943040401e-14
 31
0.0
  0
LINE
  5
229
330
17
100
AcDbEntity
  8
剖面线
370
13
100
AcDbLine
 10
91.99999999999999
 20
-41.86796564403576
 30
0.0
 11
133.86796564403573
 21
0.0
 31
0.0
  0
LINE
  5
22A
330
17
100
AcDbEntity
  8
剖面线
370
13
100
AcDbLine
 10
92.00000000000004
 20
-34.7968978321702
 30
0.0
 11
126.79689783217027
 21
2.842170943040401e-14
 31
0.0
  0
LINE
  5
22B
330
17
100
AcDbEntity
  8
剖面线
370
13
100
AcDbLine
 10
91.99999999999996
 20
-27.725830020304812
 30
0.0
 11
119.72583002030477
 21
0.0
 31
0.0
  0
LINE
  5
22C
330
17
100
AcDbEntity
  8
剖面线
370
13
100
AcDbLine
 10
92.0
 20
-20.65476220843931
 30
0.0
 11
112.65476220843931
 21
-2.842170943040401e-14
 31
0.0
  0
LINE
  5
22D
330
17
100
AcDbEntity
  8
剖面线
370
13
100
AcDbLine
 10
91.99999999999997
 20
-13.583694396573861
 30
0.0
 11
105.58369439657386
 21
0.0
 31
0.0
  0
LINE
  5
22E
330
17
100
AcDbEntity
  8
剖面线
370
13
100
AcDbLine
 10
92.0
 20
-6.512626584708357
 30
0.0
 11
98.51262658470836
 21
0.0
 31
0.0
  0
LINE
  5
22F
330
17
100
AcDbEntity
  8
细实线
370
18
100
AcDbLine
 10
110.0
 20
-52.0
 30
0.0
 11
246.0
 21
-52.0
 31
0.0
  0
LINE
  5
230
330
17
100
AcDbEntity
  8
细实线
370
18
100
AcDbLine
 10
246.0
 20
-52.0
 30
0.0
 11
246.0
 21
52.0
 31
0.0
  0
LINE
  5
231
330
17
100
AcDbEntity
  8
细实线
370
18
100
AcDbLine
 10
246.0
 20
52.0
 30
0.0
 11
110.0
 21
52.0
 31
0.0
  0
LINE
  5
232
330
17
100
AcDbEntity
  8
细实线
370
18
100
AcDbLine
 10
110.0
 20
52.0
 30
0.0
 11
110.0
 21
-52.0
 31
0.0
  0
LINE
  5
233
330
17
100
AcDbEntity
  8
剖面线
370
13
100
AcDbLine
 10
245.99999999999997
 20
-52.0
 30
0.0
 11
246.00000000000003
 21
-51.99999999999994
 31
0.0
  0
LINE
  5
234
330
17
100
AcDbEntity
  8
剖面线
370
13
100
AcDbLine
 10
241.4745166004061
 20
-52.0
 30
0.0
 11
245.99999999999997
 21
-47.47451660040613
 31
0.0
  0
LINE
  5
235
330
17
100
AcDbEntity
  8
剖面线
370
13
100
AcDbLine
 10
236.94903320081224
 20
-52.00000000000003
 30
0.0
 11
246.0
 21
-42.949033200812266
 31
0.0
  0
LINE
  5
236
330
17
100
AcDbEntity
  8
剖面线
370
13
100
AcDbLine
 10
232.42354980121837
 20
-52.0
 30
0.0
 11
246.0
 21
-38.42354980121837
 31
0.0
  0
LINE
  5
237
330
17
100
AcDbEntity
  8
剖面线
370
13
100
AcDbLine
 10
227.89806640162448
 20
-52.0
 30
0.0
 11
246.0
 21
-33.898066401624476
 31
0.0
  0
LINE
  5
238
330
17
100
AcDbEntity
  8
剖面线
370
13
100
AcDbLine
 10
223.37258300203055
 20
-52.0
 30
0.0
 11
246.0
 21
-29.37258300203058
 31
0.0
  0
LINE
  5
239
330
17
100
AcDbEntity
  8
剖面线
370
13
100
AcDbLine
 10
218.84709960243666
 20
-52.0
 30
0.0
 11
246.0
 21
-24.847099602436685
 31
0.0
  0
LINE
  5
23A
330
17
100
AcDbEntity
  8
剖面线
370
13
100
AcDbLine
 10
214.3216162028428
 20
-51.99999999999997
 30
0.0
 11
246.0
 21
-20.32161620284279
 31
0.0
  0
LINE
  5
23B
330
17
100
AcDbEntity
  8
剖面线
370
13
100
AcDbLine
 10
209.79613280324892
 20
-52.0
 30
0.0
 11
246.00000000000003
 21
-15.796132803248895
 31
0.0
  0
LINE
  5
23C
330
17
100
AcDbEntity
  8
剖面线
370
13
100
AcDbLine
 10
205.27064940365503
 20
-52.0
 30
0.0
 11
246.00000000000003
 21
-11.270649403655
 31
0.0
  0
LINE
  5
23D
330
17
100
AcDbEntity
  8
剖面线
370
13
100
AcDbLine
 10
200.7451660040611
 20
-52.0
 30
0.0
 11
246.00000000000003
 21
-6.745166004061105
 31
0.0
  0
LINE
  5
23E
330
17
100
AcDbEntity
  8
剖面线
370
13
100
AcDbLine
 10
196.2196826044672
 20
-52.0
 30
0.0
 11
246.00000000000003
 21
-2.2196826044672093
 31
0.0
  0
LINE
  5
23F
330
17
100
AcDbEntity
  8
剖面线
370
13
100
AcDbLine
 10
191.69419920487334
 20
-51.99999999999997
 30
0.0
 11
243.69419920487334
 21
0.0
 31
0.0
  0
LINE
  5
240
330
17
100
AcDbEntity
  8
剖面线
370
13
100
AcDbLine
 10
187.16871580527948
 20
-52.0
 30
0.0
 11
239.1687158052795
 21
0.0
 31
0.0
  0
LINE
  5
241
330
17
100
AcDbEntity
  8
剖面线
370
13
100
AcDbLine
 10
182.64323240568558
 20
-52.0
 30
0.0
 11
234.64323240568564
 21
0.0
 31
0.0
  0
LINE
  5
242
330
17
100
AcDbEntity
  8
剖面线
370
13
100
AcDbLine
 10
178.11774900609169
 20
-52.0
 30
0.0
 11
230.11774900609169
 21
0.0
 31
0.0
  0
LINE
  5
243
330
17
100
AcDbEntity
  8
剖面线
370
13
100
AcDbLine
 10
173.5922656064978
 20
-51.99999999999997
 30
0.0
 11
225.59226560649785
 21
0.0
 31
0.0
  0
LINE
  5
244
330
17
100
AcDbEntity
  8
剖面线
370
13
100
AcDbLine
 10
169.0667822069039
 20
-52.0
 30
0.0
 11
221.06678220690395
 21
0.0
 31
0.0
  0
LINE
  5
245
330
17
100
AcDbEntity
  8
剖面线
370
13
100
AcDbLine
 10
164.54129880731003
 20
-52.00000000000003
 30
0.0
 11
216.54129880731006
 21
0.0
 31
0.0
  0
LINE
  5
246
330
17
100
AcDbEntity
  8
剖面线
370
13
100
AcDbLine
 10
160.01581540771616
 20
-52.0
 30
0.0
 11
212.01581540771616
 21
0.0
 31
0.0
  0
LINE
  5
247
330
17
100
AcDbEntity
  8
剖面线
370
13
100
AcDbLine
 10
155.49033200812224
 20
-52.0
 30
0.0
 11
207.49033200812227
 21
0.0
 31
0.0
  0
LINE
  5
248
330
17
100
AcDbEntity
  8
剖面线
370
13
100
AcDbLine
 10
150.96484860852834
 20
-52.0
 30
0.0
 11
202.96484860852837
 21
0.0
 31
0.0
  0
LINE
  5
249
330
17
100
AcDbEntity
  8
剖面线
370
13
100
AcDbLine
 10
146.43936520893448
 20
-52.0
 30
0.0
 11
198.43936520893448
 21
0.0
 31
0.0
  0
LINE
  5
24A
330
17
100
AcDbEntity
  8
剖面线
370
13
100
AcDbLine
 10
141.91388180934058
 20
-51.99999999999997
 30
0.0
 11
193.91388180934058
 21
0.0
 31
0.0
  0
LINE
  5
24B
330
17
100
AcDbEntity
  8
剖面线
370
13
100
AcDbLine
 10
137.38839840974669
 20
-52.0
 30
0.0
 11
189.38839840974669
 21
2.842170943040401e-14
 31
0.0
  0
LINE
  5
24C
330
17
100
AcDbEntity
  8
剖面线
370
13
100
AcDbLine
 10
132.8629150101528
 20
-52.0
 30
0.0
 11
184.86291501015282
 21
0.0
 31
0.0
  0
LINE
  5
24D
330
17
100
AcDbEntity
  8
剖面线
370
13
100
AcDbLine
 10
128.3374316105589
 20
-52.0
 30
0.0
 11
180.3374316105589
 21
0.0
 31
0.0
  0
LINE
  5
24E
330
17
100
AcDbEntity
  8
剖面线
370
13
100
AcDbLine
 10
123.81194821096499
 20
-52.0
 30
0.0
 11
175.811948210965
 21
0.0
 31
0.0
  0
LINE
  5
24F
330
17
100
AcDbEntity
  8
剖面线
370
13
100
AcDbLine
 10
119.2864648113711
 20
-51.99999999999997
 30
0.0
 11
171.28646481137108
 21
0.0
 31
0.0
  0
LINE
  5
250
330
17
100
AcDbEntity
  8
剖面线
370
13
100
AcDbLine
 10
114.76098141177721
 20
-52.0
 30
0.0
 11
166.7609814117772
 21
0.0
 31
0.0
  0
LINE
  5
251
330
17
100
AcDbEntity
  8
剖面线
370
13
100
AcDbLine
 10
110.23549801218324
 20
-52.0
 30
0.0
 11
162.23549801218326
 21
0.0
 31
0.0
  0
LINE
  5
252
330
17
100
AcDbEntity
  8
剖面线
370
13
100
AcDbLine
 10
109.99999999999999
 20
-47.71001461258936
 30
0.0
 11
157.71001461258936
 21
0.0
 31
0.0
  0
LINE
  5
253
330
17
100
AcDbEntity
  8
剖面线
370
13
100
AcDbLine
 10
110.0
 20
-43.18453121299544
 30
0.0
 11
153.1845312129954
 21
-2.842170943040401e-14
 31
0.0
  0
LINE
  5
254
330
17
100
AcDbEntity
  8
剖面线
370
13
100
AcDbLine
 10
110.0
 20
-38.659047813401514
 30
0.0
 11
148.65904781340154
 21
0.0
 31
0.0
  0
LINE
  5
255
330
17
100
AcDbEntity
  8
剖面线
370
13
100
AcDbLine
 10
110.0
 20
-34.13356441380762
 30
0.0
 11
144.13356441380765
 21
0.0
 31
0.0
  0
LINE
  5
256
330
17
100
AcDbEntity
  8
剖面线
370
13
100
AcDbLine
 10
109.99999999999999
 20
-29.608081014213724
 30
0.0
 11
139.60808101421372
 21
0.0
 31
0.0
  0
LINE
  5
257
330
17
100
AcDbEntity
  8
剖面线
370
13
100
AcDbLine
 10
110.00000000000001
 20
-25.08259761461983
 30
0.0
 11
135.08259761461983
 21
0.0
 31
0.0
  0
LINE
  5
258
330
17
100
AcDbEntity
  8
剖面线
370
13
100
AcDbLine
 10
110.0
 20
-20.557114215025905
 30
0.0
 11
130.55711421502593
 21
2.842170943040401e-14
 31
0.0
  0
LINE
  5
259
330
17
100
AcDbEntity
  8
剖面线
370
13
100
AcDbLine
 10
110.0
 20
-16.03163081543198
 30
0.0
 11
126.03163081543201
 21
0.0
 31
0.0
  0
LINE
  5
25A
330
17
100
AcDbEntity
  8
剖面线
370
13
100
AcDbLine
 10
110.00000000000003
 20
-11.506147415838086
 30
0.0
 11
121.50614741583809
 21
0.0
 31
0.0
  0
LINE
  5
25B
330
17
100
AcDbEntity
  8
剖面线
370
13
100
AcDbLine
 10
109.99999999999999
 20
-6.980664016244219
 30
0.0
 11
116.98066401624418
 21
0.0
 31
0.0
  0
LINE
  5
25C
330
17
100
AcDbEntity
  8
剖面线
370
13
100
AcDbLine
 10
110.0
 20
-2.455180616650239
 30
0.0
 11
112.45518061665027
 21
0.0
 31
0.0
  0
CIRCLE
  5
25D
330
17
100
AcDbEntity
  8
细实线
370
18
100
AcDbCircle
 10
258.0
 20
0.0
 30
0.0
 40
9.0
  0
TEXT
  5
25E
330
17
100
AcDbEntity
  8
文字
100
AcDbText
 10
180.0
 20
86.0
 30
0.0
 40
3.2
  1
0.55 kW
  7
CN
 72
1
 11
180.0
 21
86.0
 31
0.0
100
AcDbText
 73
1
  0
LINE
  5
25F
330
17
100
AcDbEntity
  8
轮廓
370
50
100
AcDbLine
 10
-78.0
 20
46.0
 30
0.0
 11
70.0
 21
46.0
 31
0.0
  0
LINE
  5
260
330
17
100
AcDbEntity
  8
轮廓
370
50
100
AcDbLine
 10
70.0
 20
46.0
 30
0.0
 11
70.0
 21
150.0
 31
0.0
  0
LINE
  5
261
330
17
100
AcDbEntity
  8
轮廓
370
50
100
AcDbLine
 10
70.0
 20
150.0
 30
0.0
 11
-78.0
 21
150.0
 31
0.0
  0
LINE
  5
262
330
17
100
AcDbEntity
  8
轮廓
370
50
100
AcDbLine
 10
-78.0
 20
150.0
 30
0.0
 11
-78.0
 21
46.0
 31
0.0
  0
LINE
  5
263
330
17
100
AcDbEntity
  8
细实线
370
18
100
AcDbLine
 10
-28.0
 20
122.0
 30
0.0
 11
28.0
 21
122.0
 31
0.0
  0
LINE
  5
264
330
17
100
AcDbEntity
  8
细实线
370
18
100
AcDbLine
 10
28.0
 20
122.0
 30
0.0
 11
28.0
 21
142.0
 31
0.0
  0
LINE
  5
265
330
17
100
AcDbEntity
  8
细实线
370
18
100
AcDbLine
 10
28.0
 20
142.0
 30
0.0
 11
-28.0
 21
142.0
 31
0.0
  0
LINE
  5
266
330
17
100
AcDbEntity
  8
细实线
370
18
100
AcDbLine
 10
-28.0
 20
142.0
 30
0.0
 11
-28.0
 21
122.0
 31
0.0
  0
TEXT
  5
267
330
17
100
AcDbEntity
  8
文字
100
AcDbText
 10
0.0
 20
132.0
 30
0.0
 40
3.0
  1
LCD
  7
CN
 72
1
 11
0.0
 21
132.0
 31
0.0
100
AcDbText
 73
2
  0
CIRCLE
  5
268
330
17
100
AcDbEntity
  8
细实线
370
18
100
AcDbCircle
 10
-50.0
 20
132.0
 30
0.0
 40
8.0
  0
CIRCLE
  5
269
330
17
100
AcDbEntity
  8
细实线
370
18
100
AcDbCircle
 10
50.0
 20
132.0
 30
0.0
 40
8.0
  0
LINE
  5
26A
330
17
100
AcDbEntity
  8
细实线
370
18
100
AcDbLine
 10
-68.0
 20
56.0
 30
0.0
 11
60.0
 21
56.0
 31
0.0
  0
LINE
  5
26B
330
17
100
AcDbEntity
  8
细实线
370
18
100
AcDbLine
 10
60.0
 20
56.0
 30
0.0
 11
60.0
 21
114.0
 31
0.0
  0
LINE
  5
26C
330
17
100
AcDbEntity
  8
细实线
370
18
100
AcDbLine
 10
60.0
 20
114.0
 30
0.0
 11
-68.0
 21
114.0
 31
0.0
  0
LINE
  5
26D
330
17
100
AcDbEntity
  8
细实线
370
18
100
AcDbLine
 10
-68.0
 20
114.0
 30
0.0
 11
-68.0
 21
56.0
 31
0.0
  0
TEXT
  5
26E
330
17
100
AcDbEntity
  8
文字
100
AcDbText
 10
-4.0
 20
74.0
 30
0.0
 40
3.0
  1
电子 / 加热器
  7
CN
 72
1
 11
-4.0
 21
74.0
 31
0.0
100
AcDbText
 73
2
  0
LINE
  5
26F
330
17
100
AcDbEntity
  8
轮廓
370
50
100
AcDbLine
 10
-198.0
 20
46.0
 30
0.0
 11
-78.0
 21
46.0
 31
0.0
  0
LINE
  5
270
330
17
100
AcDbEntity
  8
轮廓
370
50
100
AcDbLine
 10
-78.0
 20
46.0
 30
0.0
 11
-78.0
 21
138.0
 31
0.0
  0
LINE
  5
271
330
17
100
AcDbEntity
  8
轮廓
370
50
100
AcDbLine
 10
-78.0
 20
138.0
 30
0.0
 11
-198.0
 21
138.0
 31
0.0
  0
LINE
  5
272
330
17
100
AcDbEntity
  8
轮廓
370
50
100
AcDbLine
 10
-198.0
 20
138.0
 30
0.0
 11
-198.0
 21
46.0
 31
0.0
  0
LINE
  5
273
330
17
100
AcDbEntity
  8
密封
370
50
100
AcDbLine
 10
-86.0
 20
46.0
 30
0.0
 11
-78.0
 21
46.0
 31
0.0
  0
LINE
  5
274
330
17
100
AcDbEntity
  8
密封
370
50
100
AcDbLine
 10
-78.0
 20
46.0
 30
0.0
 11
-78.0
 21
138.0
 31
0.0
  0
LINE
  5
275
330
17
100
AcDbEntity
  8
密封
370
50
100
AcDbLine
 10
-78.0
 20
138.0
 30
0.0
 11
-86.0
 21
138.0
 31
0.0
  0
LINE
  5
276
330
17
100
AcDbEntity
  8
密封
370
50
100
AcDbLine
 10
-86.0
 20
138.0
 30
0.0
 11
-86.0
 21
46.0
 31
0.0
  0
LINE
  5
277
330
17
100
AcDbEntity
  8
密封
370
50
100
AcDbLine
 10
-198.0
 20
46.0
 30
0.0
 11
-198.0
 21
138.0
 31
0.0
  0
LINE
  5
278
330
17
100
AcDbEntity
  8
密封
370
50
100
AcDbLine
 10
-201.0
 20
54.0
 30
0.0
 11
-201.0
 21
130.0
 31
0.0
  0
LINE
  5
279
330
17
100
AcDbEntity
  8
细实线
370
18
100
AcDbLine
 10
-216.0
 20
64.0
 30
0.0
 11
-198.0
 21
64.0
 31
0.0
  0
LINE
  5
27A
330
17
100
AcDbEntity
  8
细实线
370
18
100
AcDbLine
 10
-198.0
 20
64.0
 30
0.0
 11
-198.0
 21
78.0
 31
0.0
  0
LINE
  5
27B
330
17
100
AcDbEntity
  8
细实线
370
18
100
AcDbLine
 10
-198.0
 20
78.0
 30
0.0
 11
-216.0
 21
78.0
 31
0.0
  0
LINE
  5
27C
330
17
100
AcDbEntity
  8
细实线
370
18
100
AcDbLine
 10
-216.0
 20
78.0
 30
0.0
 11
-216.0
 21
64.0
 31
0.0
  0
LINE
  5
27D
330
17
100
AcDbEntity
  8
细实线
370
18
100
AcDbLine
 10
-216.0
 20
94.0
 30
0.0
 11
-198.0
 21
94.0
 31
0.0
  0
LINE
  5
27E
330
17
100
AcDbEntity
  8
细实线
370
18
100
AcDbLine
 10
-198.0
 20
94.0
 30
0.0
 11
-198.0
 21
108.0
 31
0.0
  0
LINE
  5
27F
330
17
100
AcDbEntity
  8
细实线
370
18
100
AcDbLine
 10
-198.0
 20
108.0
 30
0.0
 11
-216.0
 21
108.0
 31
0.0
  0
LINE
  5
280
330
17
100
AcDbEntity
  8
细实线
370
18
100
AcDbLine
 10
-216.0
 20
108.0
 30
0.0
 11
-216.0
 21
94.0
 31
0.0
  0
TEXT
  5
281
330
17
100
AcDbEntity
  8
文字
100
AcDbText
 10
-142.0
 20
92.0
 30
0.0
 40
3.2
  1
端子舱
  7
CN
 72
1
 11
-142.0
 21
92.0
 31
0.0
100
AcDbText
 73
2
  0
LINE
  5
282
330
17
100
AcDbEntity
  8
密封
370
50
100
AcDbLine
 10
-118.0
 20
46.0
 30
0.0
 11
78.0
 21
46.0
 31
0.0
  0
LINE
  5
283
330
17
100
AcDbEntity
  8
轮廓
370
50
100
AcDbLine
 10
-62.5
 20
-247.5
 30
0.0
 11
62.5
 21
-247.5
 31
0.0
  0
LINE
  5
284
330
17
100
AcDbEntity
  8
轮廓
370
50
100
AcDbLine
 10
62.5
 20
-247.5
 30
0.0
 11
62.5
 21
-225.5
 31
0.0
  0
LINE
  5
285
330
17
100
AcDbEntity
  8
轮廓
370
50
100
AcDbLine
 10
62.5
 20
-225.5
 30
0.0
 11
-62.5
 21
-225.5
 31
0.0
  0
LINE
  5
286
330
17
100
AcDbEntity
  8
轮廓
370
50
100
AcDbLine
 10
-62.5
 20
-225.5
 30
0.0
 11
-62.5
 21
-247.5
 31
0.0
  0
LINE
  5
287
330
17
100
AcDbEntity
  8
剖面线
370
13
100
AcDbLine
 10
57.55025253169414
 20
-247.5
 30
0.0
 11
62.5
 21
-242.55025253169413
 31
0.0
  0
LINE
  5
288
330
17
100
AcDbEntity
  8
剖面线
370
13
100
AcDbLine
 10
52.6005050633883
 20
-247.5
 30
0.0
 11
62.5
 21
-237.6005050633883
 31
0.0
  0
LINE
  5
289
330
17
100
AcDbEntity
  8
剖面线
370
13
100
AcDbLine
 10
47.6507575950825
 20
-247.5
 30
0.0
 11
62.5
 21
-232.6507575950825
 31
0.0
  0
LINE
  5
28A
330
17
100
AcDbEntity
  8
剖面线
370
13
100
AcDbLine
 10
42.70101012677666
 20
-247.5
 30
0.0
 11
62.5
 21
-227.70101012677668
 31
0.0
  0
LINE
  5
28B
330
17
100
AcDbEntity
  8
剖面线
370
13
100
AcDbLine
 10
37.75126265847079
 20
-247.5
 30
0.0
 11
59.7512626584708
 21
-225.5
 31
0.0
  0
LINE
  5
28C
330
17
100
AcDbEntity
  8
剖面线
370
13
100
AcDbLine
 10
32.80151519016499
 20
-247.5
 30
0.0
 11
54.801515190165
 21
-225.5
 31
0.0
  0
LINE
  5
28D
330
17
100
AcDbEntity
  8
剖面线
370
13
100
AcDbLine
 10
27.85176772185915
 20
-247.5
 30
0.0
 11
49.851767721859154
 21
-225.5
 31
0.0
  0
LINE
  5
28E
330
17
100
AcDbEntity
  8
剖面线
370
13
100
AcDbLine
 10
22.90202025355328
 20
-247.5
 30
0.0
 11
44.90202025355329
 21
-225.5
 31
0.0
  0
LINE
  5
28F
330
17
100
AcDbEntity
  8
剖面线
370
13
100
AcDbLine
 10
17.952272785247487
 20
-247.5
 30
0.0
 11
39.952272785247494
 21
-225.5
 31
0.0
  0
LINE
  5
290
330
17
100
AcDbEntity
  8
剖面线
370
13
100
AcDbLine
 10
13.0025253169417
 20
-247.5
 30
0.0
 11
35.0025253169417
 21
-225.5
 31
0.0
  0
LINE
  5
291
330
17
100
AcDbEntity
  8
剖面线
370
13
100
AcDbLine
 10
8.052777848635788
 20
-247.5
 30
0.0
 11
30.0527778486358
 21
-225.5
 31
0.0
  0
LINE
  5
292
330
17
100
AcDbEntity
  8
剖面线
370
13
100
AcDbLine
 10
3.103030380329985
 20
-247.5
 30
0.0
 11
25.10303038032999
 21
-225.5
 31
0.0
  0
LINE
  5
293
330
17
100
AcDbEntity
  8
剖面线
370
13
100
AcDbLine
 10
-1.8467170879758603
 20
-247.5
 30
0.0
 11
20.153282912024146
 21
-225.5
 31
0.0
  0
LINE
  5
294
330
17
100
AcDbEntity
  8
剖面线
370
13
100
AcDbLine
 10
-6.796464556281663
 20
-247.5
 30
0.0
 11
15.203535443718344
 21
-225.5
 31
0.0
  0
LINE
  5
295
330
17
100
AcDbEntity
  8
剖面线
370
13
100
AcDbLine
 10
-11.746212024587507
 20
-247.5
 30
0.0
 11
10.253787975412497
 21
-225.5
 31
0.0
  0
LINE
  5
296
330
17
100
AcDbEntity
  8
剖面线
370
13
100
AcDbLine
 10
-14.666522241370473
 20
-245.4705627484771
 30
0.0
 11
5.304040507106638
 21
-225.5
 31
0.0
  0
LINE
  5
297
330
17
100
AcDbEntity
  8
剖面线
370
13
100
AcDbLine
 10
-17.14139597552338
 20
-242.99568901432423
 30
0.0
 11
0.3542930388008507
 21
-225.5
 31
0.0
  0
LINE
  5
298
330
17
100
AcDbEntity
  8
剖面线
370
13
100
AcDbLine
 10
-19.616269709676303
 20
-240.5208152801713
 30
0.0
 11
-4.595454429505008
 21
-225.5
 31
0.0
  0
LINE
  5
299
330
17
100
AcDbEntity
  8
剖面线
370
13
100
AcDbLine
 10
-22.091143443829225
 20
-238.04594154601838
 30
0.0
 11
-9.54520189781084
 21
-225.5
 31
0.0
  0
LINE
  5
29A
330
17
100
AcDbEntity
  8
剖面线
370
13
100
AcDbLine
 10
-24.566017177982133
 20
-235.57106781186548
 30
0.0
 11
-14.494949366116655
 21
-225.5
 31
0.0
  0
LINE
  5
29B
330
17
100
AcDbEntity
  8
剖面线
370
13
100
AcDbLine
 10
-27.040890912135055
 20
-233.09619407771254
 30
0.0
 11
-19.444696834422516
 21
-225.5
 31
0.0
  0
LINE
  5
29C
330
17
100
AcDbEntity
  8
剖面线
370
13
100
AcDbLine
 10
-29.515764646287963
 20
-230.62132034355963
 30
0.0
 11
-24.39444430272833
 21
-225.5
 31
0.0
  0
LINE
  5
29D
330
17
100
AcDbEntity
  8
剖面线
370
13
100
AcDbLine
 10
-31.990638380440885
 20
-228.14644660940672
 30
0.0
 11
-29.34419177103416
 21
-225.5
 31
0.0
  0
LINE
  5
29E
330
17
100
AcDbEntity
  8
剖面线
370
13
100
AcDbLine
 10
-34.46551211459379
 20
-225.6715728752538
 30
0.0
 11
-34.293939239340006
 21
-225.5
 31
0.0
  0
LINE
  5
29F
330
17
100
AcDbEntity
  8
细实线
370
18
100
AcDbLine
 10
-35.0
 20
-250.5
 30
0.0
 11
35.0
 21
-250.5
 31
0.0
  0
LINE
  5
2A0
330
17
100
AcDbEntity
  8
细实线
370
18
100
AcDbLine
 10
35.0
 20
-250.5
 30
0.0
 11
35.0
 21
-247.5
 31
0.0
  0
LINE
  5
2A1
330
17
100
AcDbEntity
  8
细实线
370
18
100
AcDbLine
 10
35.0
 20
-247.5
 30
0.0
 11
-35.0
 21
-247.5
 31
0.0
  0
LINE
  5
2A2
330
17
100
AcDbEntity
  8
细实线
370
18
100
AcDbLine
 10
-35.0
 20
-247.5
 30
0.0
 11
-35.0
 21
-250.5
 31
0.0
  0
CIRCLE
  5
2A3
330
17
100
AcDbEntity
  8
细实线
370
18
100
AcDbCircle
 10
-51.0
 20
-236.5
 30
0.0
 40
5.5
  0
CIRCLE
  5
2A4
330
17
100
AcDbEntity
  8
细实线
370
18
100
AcDbCircle
 10
51.0
 20
-236.5
 30
0.0
 40
5.5
  0
LINE
  5
2A5
330
17
100
AcDbEntity
  8
细实线
370
18
100
AcDbLine
 10
-16.0
 20
-245.5
 30
0.0
 11
16.0
 21
-245.5
 31
0.0
  0
LINE
  5
2A6
330
17
100
AcDbEntity
  8
细实线
370
18
100
AcDbLine
 10
16.0
 20
-245.5
 30
0.0
 11
16.0
 21
-227.5
 31
0.0
  0
LINE
  5
2A7
330
17
100
AcDbEntity
  8
细实线
370
18
100
AcDbLine
 10
16.0
 20
-227.5
 30
0.0
 11
-16.0
 21
-227.5
 31
0.0
  0
LINE
  5
2A8
330
17
100
AcDbEntity
  8
细实线
370
18
100
AcDbLine
 10
-16.0
 20
-227.5
 30
0.0
 11
-16.0
 21
-245.5
 31
0.0
  0
LINE
  5
2A9
330
17
100
AcDbEntity
  8
标注
370
18
100
AcDbLine
 10
-4.0
 20
150.0
 30
0.0
 11
95.0
 21
188.0
 31
0.0
  0
CIRCLE
  5
2AA
330
17
100
AcDbEntity
  8
轮廓
370
50
100
AcDbCircle
 10
95.0
 20
188.0
 30
0.0
 40
4.5
  0
TEXT
  5
2AB
330
17
100
AcDbEntity
  8
文字
100
AcDbText
 10
95.0
 20
188.0
 30
0.0
 40
3.2
  1
1
  7
CN
 72
1
 11
95.0
 21
188.0
 31
0.0
100
AcDbText
 73
2
  0
LINE
  5
2AC
330
17
100
AcDbEntity
  8
标注
370
18
100
AcDbLine
 10
-82.0
 20
128.0
 30
0.0
 11
-70.0
 21
188.0
 31
0.0
  0
CIRCLE
  5
2AD
330
17
100
AcDbEntity
  8
轮廓
370
50
100
AcDbCircle
 10
-70.0
 20
188.0
 30
0.0
 40
4.5
  0
TEXT
  5
2AE
330
17
100
AcDbEntity
  8
文字
100
AcDbText
 10
-70.0
 20
188.0
 30
0.0
 40
3.2
  1
2
  7
CN
 72
1
 11
-70.0
 21
188.0
 31
0.0
100
AcDbText
 73
2
  0
LINE
  5
2AF
330
17
100
AcDbEntity
  8
标注
370
18
100
AcDbLine
 10
-138.0
 20
138.0
 30
0.0
 11
-160.0
 21
188.0
 31
0.0
  0
CIRCLE
  5
2B0
330
17
100
AcDbEntity
  8
轮廓
370
50
100
AcDbCircle
 10
-160.0
 20
188.0
 30
0.0
 40
4.5
  0
TEXT
  5
2B1
330
17
100
AcDbEntity
  8
文字
100
AcDbText
 10
-160.0
 20
188.0
 30
0.0
 40
3.2
  1
3
  7
CN
 72
1
 11
-160.0
 21
188.0
 31
0.0
100
AcDbText
 73
2
  0
LINE
  5
2B2
330
17
100
AcDbEntity
  8
标注
370
18
100
AcDbLine
 10
248.0
 20
78.0
 30
0.0
 11
250.0
 21
120.0
 31
0.0
  0
CIRCLE
  5
2B3
330
17
100
AcDbEntity
  8
轮廓
370
50
100
AcDbCircle
 10
250.0
 20
120.0
 30
0.0
 40
4.5
  0
TEXT
  5
2B4
330
17
100
AcDbEntity
  8
文字
100
AcDbText
 10
250.0
 20
120.0
 30
0.0
 40
3.2
  1
4
  7
CN
 72
1
 11
250.0
 21
120.0
 31
0.0
100
AcDbText
 73
2
  0
LINE
  5
2B5
330
17
100
AcDbEntity
  8
标注
370
18
100
AcDbLine
 10
10.0
 20
22.5
 30
0.0
 11
95.0
 21
70.0
 31
0.0
  0
CIRCLE
  5
2B6
330
17
100
AcDbEntity
  8
轮廓
370
50
100
AcDbCircle
 10
95.0
 20
70.0
 30
0.0
 40
4.5
  0
TEXT
  5
2B7
330
17
100
AcDbEntity
  8
文字
100
AcDbText
 10
95.0
 20
70.0
 30
0.0
 40
3.2
  1
5
  7
CN
 72
1
 11
95.0
 21
70.0
 31
0.0
100
AcDbText
 73
2
  0
LINE
  5
2B8
330
17
100
AcDbEntity
  8
标注
370
18
100
AcDbLine
 10
-64.0
 20
-18.0
 30
0.0
 11
-64.0
 21
-78.0
 31
0.0
  0
CIRCLE
  5
2B9
330
17
100
AcDbEntity
  8
轮廓
370
50
100
AcDbCircle
 10
-64.0
 20
-78.0
 30
0.0
 40
4.5
  0
TEXT
  5
2BA
330
17
100
AcDbEntity
  8
文字
100
AcDbText
 10
-64.0
 20
-78.0
 30
0.0
 40
3.2
  1
6
  7
CN
 72
1
 11
-64.0
 21
-78.0
 31
0.0
100
AcDbText
 73
2
  0
LINE
  5
2BB
330
17
100
AcDbEntity
  8
标注
370
18
100
AcDbLine
 10
62.99999999999999
 20
-127.5
 30
0.0
 11
130.0
 21
-127.5
 31
0.0
  0
CIRCLE
  5
2BC
330
17
100
AcDbEntity
  8
轮廓
370
50
100
AcDbCircle
 10
130.0
 20
-127.5
 30
0.0
 40
4.5
  0
TEXT
  5
2BD
330
17
100
AcDbEntity
  8
文字
100
AcDbText
 10
130.0
 20
-127.5
 30
0.0
 40
3.2
  1
7
  7
CN
 72
1
 11
130.0
 21
-127.5
 31
0.0
100
AcDbText
 73
2
  0
LINE
  5
2BE
330
17
100
AcDbEntity
  8
标注
370
18
100
AcDbLine
 10
8.0
 20
-26.0
 30
0.0
 11
55.0
 21
-55.0
 31
0.0
  0
CIRCLE
  5
2BF
330
17
100
AcDbEntity
  8
轮廓
370
50
100
AcDbCircle
 10
55.0
 20
-55.0
 30
0.0
 40
4.5
  0
TEXT
  5
2C0
330
17
100
AcDbEntity
  8
文字
100
AcDbText
 10
55.0
 20
-55.0
 30
0.0
 40
3.2
  1
8
  7
CN
 72
1
 11
55.0
 21
-55.0
 31
0.0
100
AcDbText
 73
2
  0
LINE
  5
2C1
330
17
100
AcDbEntity
  8
标注
370
18
100
AcDbLine
 10
22.0
 20
28.0
 30
0.0
 11
95.0
 21
28.0
 31
0.0
  0
CIRCLE
  5
2C2
330
17
100
AcDbEntity
  8
轮廓
370
50
100
AcDbCircle
 10
95.0
 20
28.0
 30
0.0
 40
4.5
  0
TEXT
  5
2C3
330
17
100
AcDbEntity
  8
文字
100
AcDbText
 10
95.0
 20
28.0
 30
0.0
 40
3.2
  1
9
  7
CN
 72
1
 11
95.0
 21
28.0
 31
0.0
100
AcDbText
 73
2
  0
LINE
  5
2C4
330
17
100
AcDbEntity
  8
标注
370
18
100
AcDbLine
 10
-208.0
 20
90.0
 30
0.0
 11
-208.0
 21
130.0
 31
0.0
  0
CIRCLE
  5
2C5
330
17
100
AcDbEntity
  8
轮廓
370
50
100
AcDbCircle
 10
-208.0
 20
130.0
 30
0.0
 40
4.5
  0
TEXT
  5
2C6
330
17
100
AcDbEntity
  8
文字
100
AcDbText
 10
-208.0
 20
130.0
 30
0.0
 40
3.2
  1
10
  7
CN
 72
1
 11
-208.0
 21
130.0
 31
0.0
100
AcDbText
 73
2
  0
LINE
  5
2C7
330
17
100
AcDbEntity
  8
标注
370
18
100
AcDbLine
 10
-112.0
 20
-80.0
 30
0.0
 11
-154.0
 21
-80.0
 31
0.0
  0
CIRCLE
  5
2C8
330
17
100
AcDbEntity
  8
轮廓
370
50
100
AcDbCircle
 10
-154.0
 20
-80.0
 30
0.0
 40
4.5
  0
TEXT
  5
2C9
330
17
100
AcDbEntity
  8
文字
100
AcDbText
 10
-154.0
 20
-80.0
 30
0.0
 40
3.2
  1
11
  7
CN
 72
1
 11
-154.0
 21
-80.0
 31
0.0
100
AcDbText
 73
2
  0
LINE
  5
2CA
330
17
100
AcDbEntity
  8
标注
370
18
100
AcDbLine
 10
62.5
 20
-243.5
 30
0.0
 11
95.0
 21
-265.5
 31
0.0
  0
CIRCLE
  5
2CB
330
17
100
AcDbEntity
  8
轮廓
370
50
100
AcDbCircle
 10
95.0
 20
-265.5
 30
0.0
 40
4.5
  0
TEXT
  5
2CC
330
17
100
AcDbEntity
  8
文字
100
AcDbText
 10
95.0
 20
-265.5
 30
0.0
 40
3.2
  1
12
  7
CN
 72
1
 11
95.0
 21
-265.5
 31
0.0
100
AcDbText
 73
2
  0
LINE
  5
2CD
330
17
100
AcDbEntity
  8
标注
370
18
100
AcDbLine
 10
0.0
 20
-239.5
 30
0.0
 11
-95.0
 21
-265.5
 31
0.0
  0
CIRCLE
  5
2CE
330
17
100
AcDbEntity
  8
轮廓
370
50
100
AcDbCircle
 10
-95.0
 20
-265.5
 30
0.0
 40
4.5
  0
TEXT
  5
2CF
330
17
100
AcDbEntity
  8
文字
100
AcDbText
 10
-95.0
 20
-265.5
 30
0.0
 40
3.2
  1
13
  7
CN
 72
1
 11
-95.0
 21
-265.5
 31
0.0
100
AcDbText
 73
2
  0
LINE
  5
2D0
330
17
100
AcDbEntity
  8
标注
370
18
100
AcDbLine
 10
42.0
 20
0.0
 30
0.0
 11
42.0
 21
-107.5
 31
0.0
  0
LINE
  5
2D1
330
17
100
AcDbEntity
  8
标注
370
18
100
AcDbLine
 10
39.8
 20
0.0
 30
0.0
 11
44.2
 21
0.0
 31
0.0
  0
LINE
  5
2D2
330
17
100
AcDbEntity
  8
标注
370
18
100
AcDbLine
 10
39.8
 20
-107.5
 30
0.0
 11
44.2
 21
-107.5
 31
0.0
  0
TEXT
  5
2D3
330
17
100
AcDbEntity
  8
标注
100
AcDbText
 10
48.5
 20
-53.75
 30
0.0
 40
3.5
  1
a=107.5
 50
90.0
  7
CN
 72
1
 11
48.5
 21
-53.75
 31
0.0
100
AcDbText
 73
2
  0
LINE
  5
2D4
330
17
100
AcDbEntity
  8
标注
370
18
100
AcDbLine
 10
-298.0
 20
-273.5
 30
0.0
 11
268.0
 21
-273.5
 31
0.0
  0
LINE
  5
2D5
330
17
100
AcDbEntity
  8
标注
370
18
100
AcDbLine
 10
-298.0
 20
-275.7
 30
0.0
 11
-298.0
 21
-271.3
 31
0.0
  0
LINE
  5
2D6
330
17
100
AcDbEntity
  8
标注
370
18
100
AcDbLine
 10
268.0
 20
-275.7
 30
0.0
 11
268.0
 21
-271.3
 31
0.0
  0
LINE
  5
2D7
330
17
100
AcDbEntity
  8
标注
370
18
100
AcDbLine
 10
-298.0
 20
-273.5
 30
0.0
 11
-295.0
 21
-272.4
 31
0.0
  0
LINE
  5
2D8
330
17
100
AcDbEntity
  8
标注
370
18
100
AcDbLine
 10
-298.0
 20
-273.5
 30
0.0
 11
-295.0
 21
-274.6
 31
0.0
  0
LINE
  5
2D9
330
17
100
AcDbEntity
  8
标注
370
18
100
AcDbLine
 10
268.0
 20
-273.5
 30
0.0
 11
265.0
 21
-272.4
 31
0.0
  0
LINE
  5
2DA
330
17
100
AcDbEntity
  8
标注
370
18
100
AcDbLine
 10
268.0
 20
-273.5
 30
0.0
 11
265.0
 21
-274.6
 31
0.0
  0
TEXT
  5
2DB
330
17
100
AcDbEntity
  8
标注
100
AcDbText
 10
-15.0
 20
-271.1
 30
0.0
 40
3.5
  1
L=566
  7
CN
 72
1
 11
-15.0
 21
-271.1
 31
0.0
100
AcDbText
 73
1
  0
LINE
  5
2DC
330
17
100
AcDbEntity
  8
标注
370
18
100
AcDbLine
 10
-326.0
 20
-250.5
 30
0.0
 11
-326.0
 21
150.0
 31
0.0
  0
LINE
  5
2DD
330
17
100
AcDbEntity
  8
标注
370
18
100
AcDbLine
 10
-328.2
 20
-250.5
 30
0.0
 11
-323.8
 21
-250.5
 31
0.0
  0
LINE
  5
2DE
330
17
100
AcDbEntity
  8
标注
370
18
100
AcDbLine
 10
-328.2
 20
150.0
 30
0.0
 11
-323.8
 21
150.0
 31
0.0
  0
TEXT
  5
2DF
330
17
100
AcDbEntity
  8
标注
100
AcDbText
 10
-332.5
 20
-50.25
 30
0.0
 40
3.5
  1
H=400
 50
90.0
  7
CN
 72
1
 11
-332.5
 21
-50.25
 31
0.0
100
AcDbText
 73
2
  0
LINE
  5
2E0
330
17
100
AcDbEntity
  8
标注
370
18
100
AcDbLine
 10
-62.5
 20
-297.5
 30
0.0
 11
62.5
 21
-297.5
 31
0.0
  0
LINE
  5
2E1
330
17
100
AcDbEntity
  8
标注
370
18
100
AcDbLine
 10
-62.5
 20
-299.7
 30
0.0
 11
-62.5
 21
-295.3
 31
0.0
  0
LINE
  5
2E2
330
17
100
AcDbEntity
  8
标注
370
18
100
AcDbLine
 10
62.5
 20
-299.7
 30
0.0
 11
62.5
 21
-295.3
 31
0.0
  0
LINE
  5
2E3
330
17
100
AcDbEntity
  8
标注
370
18
100
AcDbLine
 10
-62.5
 20
-297.5
 30
0.0
 11
-59.5
 21
-296.4
 31
0.0
  0
LINE
  5
2E4
330
17
100
AcDbEntity
  8
标注
370
18
100
AcDbLine
 10
-62.5
 20
-297.5
 30
0.0
 11
-59.5
 21
-298.6
 31
0.0
  0
LINE
  5
2E5
330
17
100
AcDbEntity
  8
标注
370
18
100
AcDbLine
 10
62.5
 20
-297.5
 30
0.0
 11
59.5
 21
-296.4
 31
0.0
  0
LINE
  5
2E6
330
17
100
AcDbEntity
  8
标注
370
18
100
AcDbLine
 10
62.5
 20
-297.5
 30
0.0
 11
59.5
 21
-298.6
 31
0.0
  0
TEXT
  5
2E7
330
17
100
AcDbEntity
  8
标注
100
AcDbText
 10
0.0
 20
-295.1
 30
0.0
 40
3.5
  1
F10 dia 125
  7
CN
 72
1
 11
0.0
 21
-295.1
 31
0.0
100
AcDbText
 73
1
  0
TEXT
  5
2E8
330
17
100
AcDbEntity
  8
文字
100
AcDbText
 10
0.0
 20
168.0
 30
0.0
 40
3.2
  1
d1=40  d2=175  m=2.5  z1=1  z2=70  q=16
  7
CN
 72
1
 11
0.0
 21
168.0
 31
0.0
100
AcDbText
 73
1
  0
TEXT
  5
2E9
330
17
100
AcDbEntity
  8
文字
100
AcDbText
 10
0.0
 20
160.0
 30
0.0
 40
3.2
  1
ISO 5210 F10  bore 20 (type A)  100 Nm
  7
CN
 72
1
 11
0.0
 21
160.0
 31
0.0
100
AcDbText
 73
1
  0
TEXT
  5
2EA
330
17
100
AcDbEntity
  8
文字
100
AcDbText
 10
0.0
 20
210.0
 30
0.0
 40
6.0
  1
EA10 智能电动执行机构  总成半剖方案图
  7
CN
 72
1
 11
0.0
 21
210.0
 31
0.0
100
AcDbText
 73
1
  0
TEXT
  5
2EB
330
17
100
AcDbEntity
  8
文字
100
AcDbText
 10
0.0
 20
200.0
 30
0.0
 40
3.2
  1
Step 3  比例 1:1  上半外形 / 下半剖视（蜗杆轴线以下）  三道密封环见件2及分型面  公差不在本步
  7
CN
 72
1
 11
0.0
 21
200.0
 31
0.0
100
AcDbText
 73
1
  0
TEXT
  5
2EC
330
17
100
AcDbEntity
  8
文字
100
AcDbText
 10
310.0
 20
202.0
 30
0.0
 40
4.0
  1
明细表
  7
CN
 11
310.0
 21
202.0
 31
0.0
100
AcDbText
  0
LINE
  5
2ED
330
17
100
AcDbEntity
  8
细实线
370
18
100
AcDbLine
 10
302.0
 20
26.0
 30
0.0
 11
478.0
 21
26.0
 31
0.0
  0
LINE
  5
2EE
330
17
100
AcDbEntity
  8
细实线
370
18
100
AcDbLine
 10
478.0
 20
26.0
 30
0.0
 11
478.0
 21
210.0
 31
0.0
  0
LINE
  5
2EF
330
17
100
AcDbEntity
  8
细实线
370
18
100
AcDbLine
 10
478.0
 20
210.0
 30
0.0
 11
302.0
 21
210.0
 31
0.0
  0
LINE
  5
2F0
330
17
100
AcDbEntity
  8
细实线
370
18
100
AcDbLine
 10
302.0
 20
210.0
 30
0.0
 11
302.0
 21
26.0
 31
0.0
  0
TEXT
  5
2F1
330
17
100
AcDbEntity
  8
文字
100
AcDbText
 10
310.0
 20
190.0
 30
0.0
 40
3.0
  1
1 控制仓（电子/显示/加热器）
  7
CN
 11
310.0
 21
190.0
 31
0.0
100
AcDbText
  0
TEXT
  5
2F2
330
17
100
AcDbEntity
  8
文字
100
AcDbText
 10
310.0
 20
178.0
 30
0.0
 40
3.0
  1
2 双密封隔板（端子舱|电子仓）
  7
CN
 11
310.0
 21
178.0
 31
0.0
100
AcDbText
  0
TEXT
  5
2F3
330
17
100
AcDbEntity
  8
文字
100
AcDbText
 10
310.0
 20
166.0
 30
0.0
 40
3.0
  1
3 端子舱（格兰可漏，水停本舱）
  7
CN
 11
310.0
 21
166.0
 31
0.0
100
AcDbText
  0
TEXT
  5
2F4
330
17
100
AcDbEntity
  8
文字
100
AcDbText
 10
310.0
 20
154.0
 30
0.0
 40
3.0
  1
4 可拆电机 0.55 kW 四极 S2
  7
CN
 11
310.0
 21
154.0
 31
0.0
100
AcDbText
  0
TEXT
  5
2F5
330
17
100
AcDbEntity
  8
文字
100
AcDbText
 10
310.0
 20
142.0
 30
0.0
 40
3.0
  1
5 蜗杆 m=2.5 z1=1 钢
  7
CN
 11
310.0
 21
142.0
 31
0.0
100
AcDbText
  0
TEXT
  5
2F6
330
17
100
AcDbEntity
  8
文字
100
AcDbText
 10
310.0
 20
130.0
 30
0.0
 40
3.0
  1
6 力矩传感垫圈（蜗杆轴向力）
  7
CN
 11
310.0
 21
130.0
 31
0.0
100
AcDbText
  0
TEXT
  5
2F7
330
17
100
AcDbEntity
  8
文字
100
AcDbText
 10
310.0
 20
118.0
 30
0.0
 40
3.0
  1
7 蜗轮 z2=70 锡青铜
  7
CN
 11
310.0
 21
118.0
 31
0.0
100
AcDbText
  0
TEXT
  5
2F8
330
17
100
AcDbEntity
  8
文字
100
AcDbText
 10
310.0
 20
106.0
 30
0.0
 40
3.0
  1
8 锤击齿侧间隙 12°
  7
CN
 11
310.0
 21
106.0
 31
0.0
100
AcDbText
  0
TEXT
  5
2F9
330
17
100
AcDbEntity
  8
文字
100
AcDbText
 10
310.0
 20
94.0
 30
0.0
 40
3.0
  1
9 绝对编码器（输出轴，失电保持）
  7
CN
 11
310.0
 21
94.0
 31
0.0
100
AcDbText
  0
TEXT
  5
2FA
330
17
100
AcDbEntity
  8
文字
100
AcDbText
 10
310.0
 20
82.0
 30
0.0
 40
3.0
  1
10 手轮及离合器（可挂锁）
  7
CN
 11
310.0
 21
82.0
 31
0.0
100
AcDbText
  0
TEXT
  5
2FB
330
17
100
AcDbEntity
  8
文字
100
AcDbText
 10
310.0
 20
70.0
 30
0.0
 40
3.0
  1
11 油浴齿轮箱
  7
CN
 11
310.0
 21
70.0
 31
0.0
100
AcDbText
  0
TEXT
  5
2FC
330
17
100
AcDbEntity
  8
文字
100
AcDbText
 10
310.0
 20
58.0
 30
0.0
 40
3.0
  1
12 可拆推力底座 ISO 5210 F10
  7
CN
 11
310.0
 21
58.0
 31
0.0
100
AcDbText
  0
TEXT
  5
2FD
330
17
100
AcDbEntity
  8
文字
100
AcDbText
 10
310.0
 20
46.0
 30
0.0
 40
3.0
  1
13 阀杆螺母 型A
  7
CN
 11
310.0
 21
46.0
 31
0.0
100
AcDbText
  0
TEXT
  5
2FE
330
17
100
AcDbEntity
  8
文字
100
AcDbText
 10
-298.0
 20
-320.5
 30
0.0
 40
3.0
  1
说明：
  7
CN
 11
-298.0
 21
-320.5
 31
0.0
100
AcDbText
  0
TEXT
  5
2FF
330
17
100
AcDbEntity
  8
文字
100
AcDbText
 10
-298.0
 20
-328.5
 30
0.0
 40
3.0
  1
1. 三道密封必须各自成环：端子盖、隔板(件2)、控制仓/齿轮箱分型。
  7
CN
 11
-298.0
 21
-328.5
 31
0.0
100
AcDbText
  0
TEXT
  5
300
330
17
100
AcDbEntity
  8
文字
100
AcDbText
 10
-298.0
 20
-336.5
 30
0.0
 40
3.0
  1
2. 电机法兰、推力底座可拆；控制电子与阀同体（一体化）。
  7
CN
 11
-298.0
 21
-336.5
 31
0.0
100
AcDbText
  0
TEXT
  5
301
330
17
100
AcDbEntity
  8
文字
100
AcDbText
 10
-298.0
 20
-344.5
 30
0.0
 40
3.0
  1
3. 产品定义稿 φ32 通孔超出 F10 型A（标准 Φ20），Step 4 在 F10/F14 中二选一。
  7
CN
 11
-298.0
 21
-344.5
 31
0.0
100
AcDbText
  0
TEXT
  5
302
330
17
100
AcDbEntity
  8
文字
100
AcDbText
 10
-298.0
 20
-352.5
 30
0.0
 40
3.0
  1
4. 本图不定公差、粗糙度、轴承型号；Step 4 再拆蜗杆/轴承/离合器。
  7
CN
 11
-298.0
 21
-352.5
 31
0.0
100
AcDbText
  0
ENDSEC
  0
SECTION
  2
OBJECTS
  0
DICTIONARY
  5
A
330
0
100
AcDbDictionary
281
1
  3
ACAD_COLOR
350
B
  3
ACAD_GROUP
350
C
  3
ACAD_LAYOUT
350
D
  3
ACAD_MATERIAL
350
E
  3
ACAD_MLEADERSTYLE
350
F
  3
ACAD_MLINESTYLE
350
10
  3
ACAD_PLOTSETTINGS
350
11
  3
ACAD_PLOTSTYLENAME
350
12
  3
ACAD_SCALELIST
350
14
  3
ACAD_TABLESTYLE
350
15
  3
ACAD_VISUALSTYLE
350
16
  3
EZDXF_META
350
2D
  0
DICTIONARY
  5
B
330
A
100
AcDbDictionary
281
1
  0
DICTIONARY
  5
C
330
A
100
AcDbDictionary
281
1
  0
DICTIONARY
  5
D
330
A
100
AcDbDictionary
281
1
  3
Model
350
1A
  3
Layout1
350
1E
  0
DICTIONARY
  5
E
330
A
100
AcDbDictionary
281
1
  3
ByBlock
350
1F
  3
ByLayer
350
20
  3
Global
350
21
  0
DICTIONARY
  5
F
330
A
100
AcDbDictionary
281
1
  3
Standard
350
2C
  0
DICTIONARY
  5
10
330
A
100
AcDbDictionary
281
1
  3
Standard
350
22
  0
DICTIONARY
  5
11
330
A
100
AcDbDictionary
281
1
  0
ACDBDICTIONARYWDFLT
  5
12
330
A
100
AcDbDictionary
281
1
  3
Normal
350
13
100
AcDbDictionaryWithDefault
340
13
  0
ACDBPLACEHOLDER
  5
13
330
12
  0
DICTIONARY
  5
14
330
A
100
AcDbDictionary
281
1
  0
DICTIONARY
  5
15
330
A
100
AcDbDictionary
281
1
  0
DICTIONARY
  5
16
330
A
100
AcDbDictionary
281
1
  3
2dWireframe
350
5A
  3
Basic
350
5B
  3
Brighten
350
5C
  3
ColorChange
350
5D
  3
Conceptual
350
5E
  3
Dim
350
5F
  3
EdgeColorOff
350
60
  3
Facepattern
350
61
  3
Flat
350
62
  3
FlatWithEdges
350
63
  3
Gouraud
350
64
  3
GouraudWithEdges
350
65
  3
Hidden
350
66
  3
JitterOff
350
67
  3
Linepattern
350
68
  3
Modeling
350
69
  3
OverhangOff
350
6A
  3
Realistic
350
6B
  3
Shaded
350
6C
  3
Shaded with edges
350
6D
  3
Shades of Gray
350
6E
  3
Sketchy
350
6F
  3
Thicken
350
70
  3
Wireframe
350
71
  3
X-Ray
350
72
  0
LAYOUT
  5
1A
330
D
100
AcDbPlotSettings
  1

  4
A3
  6

 40
7.5
 41
20.0
 42
7.5
 43
20.0
 44
420.0
 45
297.0
 46
0.0
 47
0.0
 48
0.0
 49
0.0
140
0.0
141
0.0
142
1.0
143
1.0
 70
1024
 72
1
 73
0
 74
5
  7

 75
16
 76
0
 77
2
 78
300
147
1.0
148
0.0
149
0.0
100
AcDbLayout
  1
Model
 70
1
 71
0
 10
0.0
 20
0.0
 11
420.0
 21
297.0
 12
0.0
 22
0.0
 32
0.0
 14
1e+20
 24
1e+20
 34
1e+20
 15
-1e+20
 25
-1e+20
 35
-1e+20
146
0.0
 13
0.0
 23
0.0
 33
0.0
 16
1.0
 26
0.0
 36
0.0
 17
0.0
 27
1.0
 37
0.0
 76
1
330
17
  0
LAYOUT
  5
1E
330
D
100
AcDbPlotSettings
  1

  4
A3
  6

 40
7.5
 41
20.0
 42
7.5
 43
20.0
 44
420.0
 45
297.0
 46
0.0
 47
0.0
 48
0.0
 49
0.0
140
0.0
141
0.0
142
1.0
143
1.0
 70
0
 72
1
 73
0
 74
5
  7

 75
16
 76
0
 77
2
 78
300
147
1.0
148
0.0
149
0.0
100
AcDbLayout
  1
Layout1
 70
1
 71
1
 10
0.0
 20
0.0
 11
420.0
 21
297.0
 12
0.0
 22
0.0
 32
0.0
 14
1e+20
 24
1e+20
 34
1e+20
 15
-1e+20
 25
-1e+20
 35
-1e+20
146
0.0
 13
0.0
 23
0.0
 33
0.0
 16
1.0
 26
0.0
 36
0.0
 17
0.0
 27
1.0
 37
0.0
 76
1
330
1B
  0
MATERIAL
  5
1F
102
{ACAD_REACTORS
330
E
102
}
330
E
100
AcDbMaterial
  1
ByBlock
  2

 70
0
 40
1.0
 71
1
 41
1.0
 91
-1023410177
 42
1.0
 72
1
  3

 73
1
 74
1
 75
1
 44
0.5
 73
0
 45
1.0
 46
1.0
 77
1
  4

 78
1
 79
1
170
1
 48
1.0
171
1
  6

172
1
173
1
174
1
140
1.0
141
1.0
175
1
  7

176
1
177
1
178
1
143
1.0
179
1
  8

270
1
271
1
272
1
145
1.0
146
1.0
273
1
  9

274
1
275
1
276
1
 42
1.0
 72
1
  3

 73
1
 74
1
 75
1
 94
63
  0
MATERIAL
  5
20
102
{ACAD_REACTORS
330
E
102
}
330
E
100
AcDbMaterial
  1
ByLayer
  2

 70
0
 40
1.0
 71
1
 41
1.0
 91
-1023410177
 42
1.0
 72
1
  3

 73
1
 74
1
 75
1
 44
0.5
 73
0
 45
1.0
 46
1.0
 77
1
  4

 78
1
 79
1
170
1
 48
1.0
171
1
  6

172
1
173
1
174
1
140
1.0
141
1.0
175
1
  7

176
1
177
1
178
1
143
1.0
179
1
  8

270
1
271
1
272
1
145
1.0
146
1.0
273
1
  9

274
1
275
1
276
1
 42
1.0
 72
1
  3

 73
1
 74
1
 75
1
 94
63
  0
MATERIAL
  5
21
102
{ACAD_REACTORS
330
E
102
}
330
E
100
AcDbMaterial
  1
Global
  2

 70
0
 40
1.0
 71
1
 41
1.0
 91
-1023410177
 42
1.0
 72
1
  3

 73
1
 74
1
 75
1
 44
0.5
 73
0
 45
1.0
 46
1.0
 77
1
  4

 78
1
 79
1
170
1
 48
1.0
171
1
  6

172
1
173
1
174
1
140
1.0
141
1.0
175
1
  7

176
1
177
1
178
1
143
1.0
179
1
  8

270
1
271
1
272
1
145
1.0
146
1.0
273
1
  9

274
1
275
1
276
1
 42
1.0
 72
1
  3

 73
1
 74
1
 75
1
 94
63
  0
MLINESTYLE
  5
22
102
{ACAD_REACTORS
330
10
102
}
330
10
100
AcDbMlineStyle
  2
Standard
 70
0
  3

 62
256
 51
90.0
 52
90.0
 71
2
 49
0.5
 62
256
  6
BYLAYER
 49
-0.5
 62
256
  6
BYLAYER
  0
MLEADERSTYLE
  5
2C
102
{ACAD_REACTORS
330
F
102
}
330
F
100
AcDbMLeaderStyle
179
2
170
2
171
1
172
0
 90
2
 40
0.0
 41
0.0
173
1
 91
-1056964608
 92
-2
290
1
 42
2.0
291
1
 43
8.0
  3
Standard
 44
4.0
300

342
29
174
1
175
1
176
0
178
1
 93
-1056964608
 45
4.0
292
0
297
0
 46
4.0
 94
-1056964608
 47
1.0
 49
1.0
140
1.0
294
1
141
0.0
177
0
142
1.0
295
0
296
0
143
3.75
271
0
272
9
273
9
  0
DICTIONARY
  5
2D
330
A
100
AcDbDictionary
280
1
281
1
  3
CREATED_BY_EZDXF
350
2E
  3
WRITTEN_BY_EZDXF
350
306
  0
DICTIONARYVAR
  5
2E
330
2D
100
DictionaryVariables
280
0
  1
1.4.4 @ 2026-08-14T11:24:14.209789+00:00
  0
VISUALSTYLE
  5
5A
102
{ACAD_REACTORS
330
16
102
}
330
16
100
AcDbVisualStyle
  2
2dWireframe
 70
4
177
3
291
0
 70
58
 90
2
176
1
 90
2
176
1
 90
0
176
1
 90
0
176
1
 40
0.6
176
1
 40
30.0
176
1
 62
7
420
16777215
176
1
 90
1
176
1
 90
4
176
1
 62
7
176
1
 62
257
176
1
 90
1
176
1
 90
1
176
1
 40
1.0
176
1
 90
8
176
1
 62
7
176
1
 40
1.0
176
1
 90
1
176
1
 90
6
176
1
 90
2
176
1
 62
7
176
1
 90
5
176
1
 90
0
176
1
 90
0
176
1
290
0
176
1
 90
1
176
1
 40
0.0
176
1
 90
0
176
1
290
1
176
1
290
1
176
1
290
0
176
1
290
0
176
1
290
0
176
1
290
0
176
1
290
0
176
1
290
0
176
1
290
0
176
1
 90
50
176
1
 40
0.0
176
1
 40
1.0
176
1
 90
0
176
1
 62
18
420
0
176
1
 90
50
176
1
 90
3
176
1
 62
5
420
255
176
1
290
0
176
1
 90
50
176
1
 90
50
176
1
 90
50
176
1
290
0
176
1
 90
50
176
1
 62
256
176
0
 40
1.0
176
0
 90
2
176
1
  1
strokes_ogs.tif
176
1
290
0
176
1
 40
1.0
176
1
 40
1.0
176
1
  0
VISUALSTYLE
  5
5B
102
{ACAD_REACTORS
330
16
102
}
330
16
100
AcDbVisualStyle
  2
Basic
 70
7
177
3
291
1
 70
58
 90
2
176
1
 90
2
176
1
 90
0
176
1
 90
1
176
1
 40
0.6
176
1
 40
30.0
176
1
 62
7
420
16777215
176
1
 90
1
176
1
 90
4
176
1
 62
7
176
1
 62
257
176
1
 90
1
176
1
 90
1
176
1
 40
1.0
176
1
 90
8
176
1
 62
7
176
1
 40
1.0
176
1
 90
1
176
1
 90
6
176
1
 90
2
176
1
 62
7
176
1
 90
5
176
1
 90
0
176
1
 90
0
176
1
290
0
176
1
 90
1
176
1
 40
0.0
176
1
 90
0
176
1
290
0
176
1
290
1
176
1
290
1
176
1
290
0
176
1
290
0
176
1
290
0
176
1
290
0
176
1
290
0
176
1
290
0
176
1
 90
50
176
1
 40
0.0
176
1
 40
1.0
176
1
 90
0
176
1
 62
18
420
0
176
1
 90
50
176
1
 90
3
176
1
 62
5
420
255
176
1
290
0
176
1
 90
50
176
1
 90
50
176
1
 90
50
176
1
290
0
176
1
 90
50
176
1
 62
256
176
0
 40
1.0
176
0
 90
2
176
1
  1
strokes_ogs.tif
176
1
290
0
176
1
 40
1.0
176
1
 40
1.0
176
1
  0
VISUALSTYLE
  5
5C
102
{ACAD_REACTORS
330
16
102
}
330
16
100
AcDbVisualStyle
  2
Brighten
 70
12
177
3
291
1
 70
58
 90
2
176
1
 90
2
176
1
 90
0
176
1
 90
2
176
1
 40
0.6
176
1
 40
30.0
176
1
 62
7
420
16777215
176
1
 90
1
176
1
 90
4
176
1
 62
7
176
1
 62
257
176
1
 90
1
176
1
 90
1
176
1
 40
1.0
176
1
 90
8
176
1
 62
7
176
1
 40
1.0
176
1
 90
1
176
1
 90
6
176
1
 90
2
176
1
 62
7
176
1
 90
5
176
1
 90
0
176
1
 90
0
176
1
290
0
176
1
 90
1
176
1
 40
0.0
176
1
 90
0
176
1
290
0
176
1
290
1
176
1
290
1
176
1
290
0
176
1
290
0
176
1
290
0
176
1
290
0
176
1
290
0
176
1
290
0
176
1
 90
50
176
1
 40
0.0
176
1
 40
1.0
176
1
 90
0
176
1
 62
18
420
0
176
1
 90
50
176
1
 90
3
176
1
 62
5
420
255
176
1
290
0
176
1
 90
50
176
1
 90
50
176
1
 90
50
176
1
290
0
176
1
 90
50
176
1
 62
256
176
0
 40
1.0
176
0
 90
2
176
1
  1
strokes_ogs.tif
176
1
290
0
176
1
 40
1.0
176
1
 40
1.0
176
1
  0
VISUALSTYLE
  5
5D
102
{ACAD_REACTORS
330
16
102
}
330
16
100
AcDbVisualStyle
  2
ColorChange
 70
16
177
3
291
1
 70
58
 90
2
176
1
 90
2
176
1
 90
0
176
1
 90
2
176
1
 40
0.6
176
1
 40
30.0
176
1
 62
7
420
16777215
176
1
 90
1
176
1
 90
4
176
1
 62
7
176
1
 62
257
176
1
 90
1
176
1
 90
1
176
1
 40
1.0
176
1
 90
8
176
1
 62
7
176
1
 40
1.0
176
1
 90
1
176
1
 90
6
176
1
 90
2
176
1
 62
7
176
1
 90
5
176
1
 90
0
176
1
 90
0
176
1
290
0
176
1
 90
1
176
1
 40
0.0
176
1
 90
0
176
1
290
0
176
1
290
1
176
1
290
1
176
1
290
0
176
1
290
0
176
1
290
0
176
1
290
0
176
1
290
0
176
1
290
0
176
1
 90
50
176
1
 40
0.0
176
1
 40
1.0
176
1
 90
0
176
1
 62
18
420
0
176
1
 90
50
176
1
 90
3
176
1
 62
5
420
255
176
1
290
0
176
1
 90
50
176
1
 90
50
176
1
 90
50
176
1
290
0
176
1
 90
50
176
1
 62
256
176
0
 40
1.0
176
0
 90
2
176
1
  1
strokes_ogs.tif
176
1
290
0
176
1
 40
1.0
176
1
 40
1.0
176
1
  0
VISUALSTYLE
  5
5E
102
{ACAD_REACTORS
330
16
102
}
330
16
100
AcDbVisualStyle
  2
Conceptual
 70
9
177
3
291
0
 70
58
 90
2
176
1
 90
2
176
1
 90
0
176
1
 90
3
176
1
 40
0.6
176
1
 40
30.0
176
1
 62
7
420
16777215
176
1
 90
1
176
1
 90
4
176
1
 62
7
176
1
 62
257
176
1
 90
1
176
1
 90
1
176
1
 40
1.0
176
1
 90
8
176
1
 62
7
176
1
 40
1.0
176
1
 90
1
176
1
 90
6
176
1
 90
2
176
1
 62
7
176
1
 90
5
176
1
 90
0
176
1
 90
0
176
1
290
0
176
1
 90
1
176
1
 40
0.0
176
1
 90
0
176
1
290
0
176
1
290
1
176
1
290
1
176
1
290
0
176
1
290
0
176
1
290
0
176
1
290
0
176
1
290
0
176
1
290
0
176
1
 90
50
176
1
 40
0.0
176
1
 40
1.0
176
1
 90
0
176
1
 62
18
420
0
176
1
 90
50
176
1
 90
3
176
1
 62
5
420
255
176
1
290
0
176
1
 90
50
176
1
 90
50
176
1
 90
50
176
1
290
0
176
1
 90
50
176
1
 62
256
176
0
 40
1.0
176
0
 90
2
176
1
  1
strokes_ogs.tif
176
1
290
0
176
1
 40
1.0
176
1
 40
1.0
176
1
  0
VISUALSTYLE
  5
5F
102
{ACAD_REACTORS
330
16
102
}
330
16
100
AcDbVisualStyle
  2
Dim
 70
11
177
3
291
1
 70
58
 90
2
176
1
 90
2
176
1
 90
0
176
1
 90
2
176
1
 40
0.6
176
1
 40
30.0
176
1
 62
7
420
16777215
176
1
 90
1
176
1
 90
4
176
1
 62
7
176
1
 62
257
176
1
 90
1
176
1
 90
1
176
1
 40
1.0
176
1
 90
8
176
1
 62
7
176
1
 40
1.0
176
1
 90
1
176
1
 90
6
176
1
 90
2
176
1
 62
7
176
1
 90
5
176
1
 90
0
176
1
 90
0
176
1
290
0
176
1
 90
1
176
1
 40
0.0
176
1
 90
0
176
1
290
0
176
1
290
1
176
1
290
1
176
1
290
0
176
1
290
0
176
1
290
0
176
1
290
0
176
1
290
0
176
1
290
0
176
1
 90
50
176
1
 40
0.0
176
1
 40
1.0
176
1
 90
0
176
1
 62
18
420
0
176
1
 90
50
176
1
 90
3
176
1
 62
5
420
255
176
1
290
0
176
1
 90
50
176
1
 90
50
176
1
 90
50
176
1
290
0
176
1
 90
50
176
1
 62
256
176
0
 40
1.0
176
0
 90
2
176
1
  1
strokes_ogs.tif
176
1
290
0
176
1
 40
1.0
176
1
 40
1.0
176
1
  0
VISUALSTYLE
  5
60
102
{ACAD_REACTORS
330
16
102
}
330
16
100
AcDbVisualStyle
  2
EdgeColorOff
 70
22
177
3
291
1
 70
58
 90
2
176
1
 90
2
176
1
 90
0
176
1
 90
2
176
1
 40
0.6
176
1
 40
30.0
176
1
 62
7
420
16777215
176
1
 90
1
176
1
 90
4
176
1
 62
7
176
1
 62
257
176
1
 90
1
176
1
 90
1
176
1
 40
1.0
176
1
 90
8
176
1
 62
7
176
1
 40
1.0
176
1
 90
1
176
1
 90
6
176
1
 90
2
176
1
 62
7
176
1
 90
5
176
1
 90
0
176
1
 90
0
176
1
290
0
176
1
 90
1
176
1
 40
0.0
176
1
 90
0
176
1
290
0
176
1
290
1
176
1
290
1
176
1
290
0
176
1
290
0
176
1
290
0
176
1
290
0
176
1
290
0
176
1
290
0
176
1
 90
50
176
1
 40
0.0
176
1
 40
1.0
176
1
 90
0
176
1
 62
18
420
0
176
1
 90
50
176
1
 90
3
176
1
 62
5
420
255
176
1
290
0
176
1
 90
50
176
1
 90
50
176
1
 90
50
176
1
290
0
176
1
 90
50
176
1
 62
256
176
0
 40
1.0
176
0
 90
2
176
1
  1
strokes_ogs.tif
176
1
290
0
176
1
 40
1.0
176
1
 40
1.0
176
1
  0
VISUALSTYLE
  5
61
102
{ACAD_REACTORS
330
16
102
}
330
16
100
AcDbVisualStyle
  2
Facepattern
 70
15
177
3
291
1
 70
58
 90
2
176
1
 90
2
176
1
 90
0
176
1
 90
2
176
1
 40
0.6
176
1
 40
30.0
176
1
 62
7
420
16777215
176
1
 90
1
176
1
 90
4
176
1
 62
7
176
1
 62
257
176
1
 90
1
176
1
 90
1
176
1
 40
1.0
176
1
 90
8
176
1
 62
7
176
1
 40
1.0
176
1
 90
1
176
1
 90
6
176
1
 90
2
176
1
 62
7
176
1
 90
5
176
1
 90
0
176
1
 90
0
176
1
290
0
176
1
 90
1
176
1
 40
0.0
176
1
 90
0
176
1
290
0
176
1
290
1
176
1
290
1
176
1
290
0
176
1
290
0
176
1
290
0
176
1
290
0
176
1
290
0
176
1
290
0
176
1
 90
50
176
1
 40
0.0
176
1
 40
1.0
176
1
 90
0
176
1
 62
18
420
0
176
1
 90
50
176
1
 90
3
176
1
 62
5
420
255
176
1
290
0
176
1
 90
50
176
1
 90
50
176
1
 90
50
176
1
290
0
176
1
 90
50
176
1
 62
256
176
0
 40
1.0
176
0
 90
2
176
1
  1
strokes_ogs.tif
176
1
290
0
176
1
 40
1.0
176
1
 40
1.0
176
1
  0
VISUALSTYLE
  5
62
102
{ACAD_REACTORS
330
16
102
}
330
16
100
AcDbVisualStyle
  2
Flat
 70
0
177
3
291
1
 70
58
 90
2
176
1
 90
2
176
1
 90
0
176
1
 90
2
176
1
 40
0.6
176
1
 40
30.0
176
1
 62
7
420
16777215
176
1
 90
1
176
1
 90
4
176
1
 62
7
176
1
 62
257
176
1
 90
1
176
1
 90
1
176
1
 40
1.0
176
1
 90
8
176
1
 62
7
176
1
 40
1.0
176
1
 90
1
176
1
 90
6
176
1
 90
2
176
1
 62
7
176
1
 90
5
176
1
 90
0
176
1
 90
0
176
1
290
0
176
1
 90
1
176
1
 40
0.0
176
1
 90
0
176
1
290
0
176
1
290
1
176
1
290
1
176
1
290
0
176
1
290
0
176
1
290
0
176
1
290
0
176
1
290
0
176
1
290
0
176
1
 90
50
176
1
 40
0.0
176
1
 40
1.0
176
1
 90
0
176
1
 62
18
420
0
176
1
 90
50
176
1
 90
3
176
1
 62
5
420
255
176
1
290
0
176
1
 90
50
176
1
 90
50
176
1
 90
50
176
1
290
0
176
1
 90
50
176
1
 62
256
176
0
 40
1.0
176
0
 90
2
176
1
  1
strokes_ogs.tif
176
1
290
0
176
1
 40
1.0
176
1
 40
1.0
176
1
  0
VISUALSTYLE
  5
63
102
{ACAD_REACTORS
330
16
102
}
330
16
100
AcDbVisualStyle
  2
FlatWithEdges
 70
1
177
3
291
1
 70
58
 90
2
176
1
 90
2
176
1
 90
0
176
1
 90
2
176
1
 40
0.6
176
1
 40
30.0
176
1
 62
7
420
16777215
176
1
 90
1
176
1
 90
4
176
1
 62
7
176
1
 62
257
176
1
 90
1
176
1
 90
1
176
1
 40
1.0
176
1
 90
8
176
1
 62
7
176
1
 40
1.0
176
1
 90
1
176
1
 90
6
176
1
 90
2
176
1
 62
7
176
1
 90
5
176
1
 90
0
176
1
 90
0
176
1
290
0
176
1
 90
1
176
1
 40
0.0
176
1
 90
0
176
1
290
0
176
1
290
1
176
1
290
1
176
1
290
0
176
1
290
0
176
1
290
0
176
1
290
0
176
1
290
0
176
1
290
0
176
1
 90
50
176
1
 40
0.0
176
1
 40
1.0
176
1
 90
0
176
1
 62
18
420
0
176
1
 90
50
176
1
 90
3
176
1
 62
5
420
255
176
1
290
0
176
1
 90
50
176
1
 90
50
176
1
 90
50
176
1
290
0
176
1
 90
50
176
1
 62
256
176
0
 40
1.0
176
0
 90
2
176
1
  1
strokes_ogs.tif
176
1
290
0
176
1
 40
1.0
176
1
 40
1.0
176
1
  0
VISUALSTYLE
  5
64
102
{ACAD_REACTORS
330
16
102
}
330
16
100
AcDbVisualStyle
  2
Gouraud
 70
2
177
3
291
1
 70
58
 90
2
176
1
 90
2
176
1
 90
0
176
1
 90
2
176
1
 40
0.6
176
1
 40
30.0
176
1
 62
7
420
16777215
176
1
 90
1
176
1
 90
4
176
1
 62
7
176
1
 62
257
176
1
 90
1
176
1
 90
1
176
1
 40
1.0
176
1
 90
8
176
1
 62
7
176
1
 40
1.0
176
1
 90
1
176
1
 90
6
176
1
 90
2
176
1
 62
7
176
1
 90
5
176
1
 90
0
176
1
 90
0
176
1
290
0
176
1
 90
1
176
1
 40
0.0
176
1
 90
0
176
1
290
0
176
1
290
1
176
1
290
1
176
1
290
0
176
1
290
0
176
1
290
0
176
1
290
0
176
1
290
0
176
1
290
0
176
1
 90
50
176
1
 40
0.0
176
1
 40
1.0
176
1
 90
0
176
1
 62
18
420
0
176
1
 90
50
176
1
 90
3
176
1
 62
5
420
255
176
1
290
0
176
1
 90
50
176
1
 90
50
176
1
 90
50
176
1
290
0
176
1
 90
50
176
1
 62
256
176
0
 40
1.0
176
0
 90
2
176
1
  1
strokes_ogs.tif
176
1
290
0
176
1
 40
1.0
176
1
 40
1.0
176
1
  0
VISUALSTYLE
  5
65
102
{ACAD_REACTORS
330
16
102
}
330
16
100
AcDbVisualStyle
  2
GouraudWithEdges
 70
3
177
3
291
1
 70
58
 90
2
176
1
 90
2
176
1
 90
0
176
1
 90
2
176
1
 40
0.6
176
1
 40
30.0
176
1
 62
7
420
16777215
176
1
 90
1
176
1
 90
4
176
1
 62
7
176
1
 62
257
176
1
 90
1
176
1
 90
1
176
1
 40
1.0
176
1
 90
8
176
1
 62
7
176
1
 40
1.0
176
1
 90
1
176
1
 90
6
176
1
 90
2
176
1
 62
7
176
1
 90
5
176
1
 90
0
176
1
 90
0
176
1
290
0
176
1
 90
1
176
1
 40
0.0
176
1
 90
0
176
1
290
0
176
1
290
1
176
1
290
1
176
1
290
0
176
1
290
0
176
1
290
0
176
1
290
0
176
1
290
0
176
1
290
0
176
1
 90
50
176
1
 40
0.0
176
1
 40
1.0
176
1
 90
0
176
1
 62
18
420
0
176
1
 90
50
176
1
 90
3
176
1
 62
5
420
255
176
1
290
0
176
1
 90
50
176
1
 90
50
176
1
 90
50
176
1
290
0
176
1
 90
50
176
1
 62
256
176
0
 40
1.0
176
0
 90
2
176
1
  1
strokes_ogs.tif
176
1
290
0
176
1
 40
1.0
176
1
 40
1.0
176
1
  0
VISUALSTYLE
  5
66
102
{ACAD_REACTORS
330
16
102
}
330
16
100
AcDbVisualStyle
  2
Hidden
 70
6
177
3
291
0
 70
58
 90
2
176
1
 90
2
176
1
 90
0
176
1
 90
1
176
1
 40
0.6
176
1
 40
30.0
176
1
 62
7
420
16777215
176
1
 90
1
176
1
 90
4
176
1
 62
7
176
1
 62
257
176
1
 90
1
176
1
 90
1
176
1
 40
1.0
176
1
 90
8
176
1
 62
7
176
1
 40
1.0
176
1
 90
1
176
1
 90
6
176
1
 90
2
176
1
 62
7
176
1
 90
5
176
1
 90
0
176
1
 90
0
176
1
290
0
176
1
 90
1
176
1
 40
0.0
176
1
 90
0
176
1
290
0
176
1
290
1
176
1
290
1
176
1
290
0
176
1
290
0
176
1
290
0
176
1
290
0
176
1
290
0
176
1
290
0
176
1
 90
50
176
1
 40
0.0
176
1
 40
1.0
176
1
 90
0
176
1
 62
18
420
0
176
1
 90
50
176
1
 90
3
176
1
 62
5
420
255
176
1
290
0
176
1
 90
50
176
1
 90
50
176
1
 90
50
176
1
290
0
176
1
 90
50
176
1
 62
256
176
0
 40
1.0
176
0
 90
2
176
1
  1
strokes_ogs.tif
176
1
290
0
176
1
 40
1.0
176
1
 40
1.0
176
1
  0
VISUALSTYLE
  5
67
102
{ACAD_REACTORS
330
16
102
}
330
16
100
AcDbVisualStyle
  2
JitterOff
 70
20
177
3
291
1
 70
58
 90
2
176
1
 90
2
176
1
 90
0
176
1
 90
2
176
1
 40
0.6
176
1
 40
30.0
176
1
 62
7
420
16777215
176
1
 90
1
176
1
 90
4
176
1
 62
7
176
1
 62
257
176
1
 90
1
176
1
 90
1
176
1
 40
1.0
176
1
 90
8
176
1
 62
7
176
1
 40
1.0
176
1
 90
1
176
1
 90
6
176
1
 90
2
176
1
 62
7
176
1
 90
5
176
1
 90
0
176
1
 90
0
176
1
290
0
176
1
 90
1
176
1
 40
0.0
176
1
 90
0
176
1
290
0
176
1
290
1
176
1
290
1
176
1
290
0
176
1
290
0
176
1
290
0
176
1
290
0
176
1
290
0
176
1
290
0
176
1
 90
50
176
1
 40
0.0
176
1
 40
1.0
176
1
 90
0
176
1
 62
18
420
0
176
1
 90
50
176
1
 90
3
176
1
 62
5
420
255
176
1
290
0
176
1
 90
50
176
1
 90
50
176
1
 90
50
176
1
290
0
176
1
 90
50
176
1
 62
256
176
0
 40
1.0
176
0
 90
2
176
1
  1
strokes_ogs.tif
176
1
290
0
176
1
 40
1.0
176
1
 40
1.0
176
1
  0
VISUALSTYLE
  5
68
102
{ACAD_REACTORS
330
16
102
}
330
16
100
AcDbVisualStyle
  2
Linepattern
 70
14
177
3
291
1
 70
58
 90
2
176
1
 90
2
176
1
 90
0
176
1
 90
2
176
1
 40
0.6
176
1
 40
30.0
176
1
 62
7
420
16777215
176
1
 90
1
176
1
 90
4
176
1
 62
7
176
1
 62
257
176
1
 90
1
176
1
 90
1
176
1
 40
1.0
176
1
 90
8
176
1
 62
7
176
1
 40
1.0
176
1
 90
1
176
1
 90
6
176
1
 90
2
176
1
 62
7
176
1
 90
5
176
1
 90
0
176
1
 90
0
176
1
290
0
176
1
 90
1
176
1
 40
0.0
176
1
 90
0
176
1
290
0
176
1
290
1
176
1
290
1
176
1
290
0
176
1
290
0
176
1
290
0
176
1
290
0
176
1
290
0
176
1
290
0
176
1
 90
50
176
1
 40
0.0
176
1
 40
1.0
176
1
 90
0
176
1
 62
18
420
0
176
1
 90
50
176
1
 90
3
176
1
 62
5
420
255
176
1
290
0
176
1
 90
50
176
1
 90
50
176
1
 90
50
176
1
290
0
176
1
 90
50
176
1
 62
256
176
0
 40
1.0
176
0
 90
2
176
1
  1
strokes_ogs.tif
176
1
290
0
176
1
 40
1.0
176
1
 40
1.0
176
1
  0
VISUALSTYLE
  5
69
102
{ACAD_REACTORS
330
16
102
}
330
16
100
AcDbVisualStyle
  2
Modeling
 70
10
177
3
291
0
 70
58
 90
2
176
1
 90
2
176
1
 90
0
176
1
 90
2
176
1
 40
0.6
176
1
 40
30.0
176
1
 62
7
420
16777215
176
1
 90
1
176
1
 90
4
176
1
 62
7
176
1
 62
257
176
1
 90
1
176
1
 90
1
176
1
 40
1.0
176
1
 90
8
176
1
 62
7
176
1
 40
1.0
176
1
 90
1
176
1
 90
6
176
1
 90
2
176
1
 62
7
176
1
 90
5
176
1
 90
0
176
1
 90
0
176
1
290
0
176
1
 90
1
176
1
 40
0.0
176
1
 90
0
176
1
290
0
176
1
290
1
176
1
290
1
176
1
290
0
176
1
290
0
176
1
290
0
176
1
290
0
176
1
290
0
176
1
290
0
176
1
 90
50
176
1
 40
0.0
176
1
 40
1.0
176
1
 90
0
176
1
 62
18
420
0
176
1
 90
50
176
1
 90
3
176
1
 62
5
420
255
176
1
290
0
176
1
 90
50
176
1
 90
50
176
1
 90
50
176
1
290
0
176
1
 90
50
176
1
 62
256
176
0
 40
1.0
176
0
 90
2
176
1
  1
strokes_ogs.tif
176
1
290
0
176
1
 40
1.0
176
1
 40
1.0
176
1
  0
VISUALSTYLE
  5
6A
102
{ACAD_REACTORS
330
16
102
}
330
16
100
AcDbVisualStyle
  2
OverhangOff
 70
21
177
3
291
1
 70
58
 90
2
176
1
 90
2
176
1
 90
0
176
1
 90
2
176
1
 40
0.6
176
1
 40
30.0
176
1
 62
7
420
16777215
176
1
 90
1
176
1
 90
4
176
1
 62
7
176
1
 62
257
176
1
 90
1
176
1
 90
1
176
1
 40
1.0
176
1
 90
8
176
1
 62
7
176
1
 40
1.0
176
1
 90
1
176
1
 90
6
176
1
 90
2
176
1
 62
7
176
1
 90
5
176
1
 90
0
176
1
 90
0
176
1
290
0
176
1
 90
1
176
1
 40
0.0
176
1
 90
0
176
1
290
0
176
1
290
1
176
1
290
1
176
1
290
0
176
1
290
0
176
1
290
0
176
1
290
0
176
1
290
0
176
1
290
0
176
1
 90
50
176
1
 40
0.0
176
1
 40
1.0
176
1
 90
0
176
1
 62
18
420
0
176
1
 90
50
176
1
 90
3
176
1
 62
5
420
255
176
1
290
0
176
1
 90
50
176
1
 90
50
176
1
 90
50
176
1
290
0
176
1
 90
50
176
1
 62
256
176
0
 40
1.0
176
0
 90
2
176
1
  1
strokes_ogs.tif
176
1
290
0
176
1
 40
1.0
176
1
 40
1.0
176
1
  0
VISUALSTYLE
  5
6B
102
{ACAD_REACTORS
330
16
102
}
330
16
100
AcDbVisualStyle
  2
Realistic
 70
8
177
3
291
0
 70
58
 90
2
176
1
 90
2
176
1
 90
0
176
1
 90
2
176
1
 40
0.6
176
1
 40
30.0
176
1
 62
7
420
16777215
176
1
 90
1
176
1
 90
4
176
1
 62
7
176
1
 62
257
176
1
 90
1
176
1
 90
1
176
1
 40
1.0
176
1
 90
8
176
1
 62
7
176
1
 40
1.0
176
1
 90
1
176
1
 90
6
176
1
 90
2
176
1
 62
7
176
1
 90
5
176
1
 90
0
176
1
 90
0
176
1
290
0
176
1
 90
1
176
1
 40
0.0
176
1
 90
0
176
1
290
0
176
1
290
1
176
1
290
1
176
1
290
0
176
1
290
0
176
1
290
0
176
1
290
0
176
1
290
0
176
1
290
0
176
1
 90
50
176
1
 40
0.0
176
1
 40
1.0
176
1
 90
0
176
1
 62
18
420
0
176
1
 90
50
176
1
 90
3
176
1
 62
5
420
255
176
1
290
0
176
1
 90
50
176
1
 90
50
176
1
 90
50
176
1
290
0
176
1
 90
50
176
1
 62
256
176
0
 40
1.0
176
0
 90
2
176
1
  1
strokes_ogs.tif
176
1
290
0
176
1
 40
1.0
176
1
 40
1.0
176
1
  0
VISUALSTYLE
  5
6C
102
{ACAD_REACTORS
330
16
102
}
330
16
100
AcDbVisualStyle
  2
Shaded
 70
27
177
3
291
0
 70
58
 90
2
176
1
 90
2
176
1
 90
0
176
1
 90
2
176
1
 40
0.6
176
1
 40
30.0
176
1
 62
7
420
16777215
176
1
 90
1
176
1
 90
4
176
1
 62
7
176
1
 62
257
176
1
 90
1
176
1
 90
1
176
1
 40
1.0
176
1
 90
8
176
1
 62
7
176
1
 40
1.0
176
1
 90
1
176
1
 90
6
176
1
 90
2
176
1
 62
7
176
1
 90
5
176
1
 90
0
176
1
 90
0
176
1
290
0
176
1
 90
1
176
1
 40
0.0
176
1
 90
0
176
1
290
0
176
1
290
1
176
1
290
1
176
1
290
0
176
1
290
0
176
1
290
0
176
1
290
0
176
1
290
0
176
1
290
0
176
1
 90
50
176
1
 40
0.0
176
1
 40
1.0
176
1
 90
0
176
1
 62
18
420
0
176
1
 90
50
176
1
 90
3
176
1
 62
5
420
255
176
1
290
0
176
1
 90
50
176
1
 90
50
176
1
 90
50
176
1
290
0
176
1
 90
50
176
1
 62
256
176
0
 40
1.0
176
0
 90
2
176
1
  1
strokes_ogs.tif
176
1
290
0
176
1
 40
1.0
176
1
 40
1.0
176
1
  0
VISUALSTYLE
  5
6D
102
{ACAD_REACTORS
330
16
102
}
330
16
100
AcDbVisualStyle
  2
Shaded with edges
 70
26
177
3
291
0
 70
58
 90
2
176
1
 90
2
176
1
 90
0
176
1
 90
2
176
1
 40
0.6
176
1
 40
30.0
176
1
 62
7
420
16777215
176
1
 90
1
176
1
 90
4
176
1
 62
7
176
1
 62
257
176
1
 90
1
176
1
 90
1
176
1
 40
1.0
176
1
 90
8
176
1
 62
7
176
1
 40
1.0
176
1
 90
1
176
1
 90
6
176
1
 90
2
176
1
 62
7
176
1
 90
5
176
1
 90
0
176
1
 90
0
176
1
290
0
176
1
 90
1
176
1
 40
0.0
176
1
 90
0
176
1
290
0
176
1
290
1
176
1
290
1
176
1
290
0
176
1
290
0
176
1
290
0
176
1
290
0
176
1
290
0
176
1
290
0
176
1
 90
50
176
1
 40
0.0
176
1
 40
1.0
176
1
 90
0
176
1
 62
18
420
0
176
1
 90
50
176
1
 90
3
176
1
 62
5
420
255
176
1
290
0
176
1
 90
50
176
1
 90
50
176
1
 90
50
176
1
290
0
176
1
 90
50
176
1
 62
256
176
0
 40
1.0
176
0
 90
2
176
1
  1
strokes_ogs.tif
176
1
290
0
176
1
 40
1.0
176
1
 40
1.0
176
1
  0
VISUALSTYLE
  5
6E
102
{ACAD_REACTORS
330
16
102
}
330
16
100
AcDbVisualStyle
  2
Shades of Gray
 70
23
177
3
291
0
 70
58
 90
2
176
1
 90
2
176
1
 90
0
176
1
 90
2
176
1
 40
0.6
176
1
 40
30.0
176
1
 62
7
420
16777215
176
1
 90
1
176
1
 90
4
176
1
 62
7
176
1
 62
257
176
1
 90
1
176
1
 90
1
176
1
 40
1.0
176
1
 90
8
176
1
 62
7
176
1
 40
1.0
176
1
 90
1
176
1
 90
6
176
1
 90
2
176
1
 62
7
176
1
 90
5
176
1
 90
0
176
1
 90
0
176
1
290
0
176
1
 90
1
176
1
 40
0.0
176
1
 90
0
176
1
290
0
176
1
290
1
176
1
290
1
176
1
290
0
176
1
290
0
176
1
290
0
176
1
290
0
176
1
290
0
176
1
290
0
176
1
 90
50
176
1
 40
0.0
176
1
 40
1.0
176
1
 90
0
176
1
 62
18
420
0
176
1
 90
50
176
1
 90
3
176
1
 62
5
420
255
176
1
290
0
176
1
 90
50
176
1
 90
50
176
1
 90
50
176
1
290
0
176
1
 90
50
176
1
 62
256
176
0
 40
1.0
176
0
 90
2
176
1
  1
strokes_ogs.tif
176
1
290
0
176
1
 40
1.0
176
1
 40
1.0
176
1
  0
VISUALSTYLE
  5
6F
102
{ACAD_REACTORS
330
16
102
}
330
16
100
AcDbVisualStyle
  2
Sketchy
 70
24
177
3
291
0
 70
58
 90
2
176
1
 90
2
176
1
 90
0
176
1
 90
1
176
1
 40
0.6
176
1
 40
30.0
176
1
 62
7
420
16777215
176
1
 90
1
176
1
 90
4
176
1
 62
7
176
1
 62
257
176
1
 90
1
176
1
 90
1
176
1
 40
1.0
176
1
 90
8
176
1
 62
7
176
1
 40
1.0
176
1
 90
1
176
1
 90
6
176
1
 90
2
176
1
 62
7
176
1
 90
5
176
1
 90
0
176
1
 90
0
176
1
290
0
176
1
 90
1
176
1
 40
0.0
176
1
 90
0
176
1
290
0
176
1
290
1
176
1
290
1
176
1
290
0
176
1
290
0
176
1
290
0
176
1
290
0
176
1
290
0
176
1
290
0
176
1
 90
50
176
1
 40
0.0
176
1
 40
1.0
176
1
 90
0
176
1
 62
18
420
0
176
1
 90
50
176
1
 90
3
176
1
 62
5
420
255
176
1
290
0
176
1
 90
50
176
1
 90
50
176
1
 90
50
176
1
290
0
176
1
 90
50
176
1
 62
256
176
0
 40
1.0
176
0
 90
2
176
1
  1
strokes_ogs.tif
176
1
290
0
176
1
 40
1.0
176
1
 40
1.0
176
1
  0
VISUALSTYLE
  5
70
102
{ACAD_REACTORS
330
16
102
}
330
16
100
AcDbVisualStyle
  2
Thicken
 70
13
177
3
291
1
 70
58
 90
2
176
1
 90
2
176
1
 90
0
176
1
 90
2
176
1
 40
0.6
176
1
 40
30.0
176
1
 62
7
420
16777215
176
1
 90
1
176
1
 90
4
176
1
 62
7
176
1
 62
257
176
1
 90
1
176
1
 90
1
176
1
 40
1.0
176
1
 90
8
176
1
 62
7
176
1
 40
1.0
176
1
 90
1
176
1
 90
6
176
1
 90
2
176
1
 62
7
176
1
 90
5
176
1
 90
0
176
1
 90
0
176
1
290
0
176
1
 90
1
176
1
 40
0.0
176
1
 90
0
176
1
290
0
176
1
290
1
176
1
290
1
176
1
290
0
176
1
290
0
176
1
290
0
176
1
290
0
176
1
290
0
176
1
290
0
176
1
 90
50
176
1
 40
0.0
176
1
 40
1.0
176
1
 90
0
176
1
 62
18
420
0
176
1
 90
50
176
1
 90
3
176
1
 62
5
420
255
176
1
290
0
176
1
 90
50
176
1
 90
50
176
1
 90
50
176
1
290
0
176
1
 90
50
176
1
 62
256
176
0
 40
1.0
176
0
 90
2
176
1
  1
strokes_ogs.tif
176
1
290
0
176
1
 40
1.0
176
1
 40
1.0
176
1
  0
VISUALSTYLE
  5
71
102
{ACAD_REACTORS
330
16
102
}
330
16
100
AcDbVisualStyle
  2
Wireframe
 70
5
177
3
291
0
 70
58
 90
2
176
1
 90
2
176
1
 90
0
176
1
 90
0
176
1
 40
0.6
176
1
 40
30.0
176
1
 62
7
420
16777215
176
1
 90
1
176
1
 90
4
176
1
 62
7
176
1
 62
257
176
1
 90
1
176
1
 90
1
176
1
 40
1.0
176
1
 90
8
176
1
 62
7
176
1
 40
1.0
176
1
 90
1
176
1
 90
6
176
1
 90
2
176
1
 62
7
176
1
 90
5
176
1
 90
0
176
1
 90
0
176
1
290
0
176
1
 90
1
176
1
 40
0.0
176
1
 90
0
176
1
290
0
176
1
290
1
176
1
290
1
176
1
290
0
176
1
290
0
176
1
290
0
176
1
290
0
176
1
290
0
176
1
290
0
176
1
 90
50
176
1
 40
0.0
176
1
 40
1.0
176
1
 90
0
176
1
 62
18
420
0
176
1
 90
50
176
1
 90
3
176
1
 62
5
420
255
176
1
290
0
176
1
 90
50
176
1
 90
50
176
1
 90
50
176
1
290
0
176
1
 90
50
176
1
 62
256
176
0
 40
1.0
176
0
 90
2
176
1
  1
strokes_ogs.tif
176
1
290
0
176
1
 40
1.0
176
1
 40
1.0
176
1
  0
VISUALSTYLE
  5
72
102
{ACAD_REACTORS
330
16
102
}
330
16
100
AcDbVisualStyle
  2
X-Ray
 70
25
177
3
291
0
 70
58
 90
2
176
1
 90
2
176
1
 90
0
176
1
 90
2
176
1
 40
0.5
176
1
 40
30.0
176
1
 62
7
420
16777215
176
1
 90
1
176
1
 90
4
176
1
 62
7
176
1
 62
257
176
1
 90
1
176
1
 90
1
176
1
 40
1.0
176
1
 90
8
176
1
 62
7
176
1
 40
1.0
176
1
 90
1
176
1
 90
6
176
1
 90
2
176
1
 62
7
176
1
 90
5
176
1
 90
0
176
1
 90
0
176
1
290
0
176
1
 90
1
176
1
 40
0.0
176
1
 90
0
176
1
290
0
176
1
290
1
176
1
290
1
176
1
290
0
176
1
290
0
176
1
290
0
176
1
290
0
176
1
290
0
176
1
290
0
176
1
 90
50
176
1
 40
0.0
176
1
 40
1.0
176
1
 90
0
176
1
 62
18
420
0
176
1
 90
50
176
1
 90
3
176
1
 62
5
420
255
176
1
290
0
176
1
 90
50
176
1
 90
50
176
1
 90
50
176
1
290
0
176
1
 90
50
176
1
 62
256
176
0
 40
1.0
176
0
 90
2
176
1
  1
strokes_ogs.tif
176
1
290
0
176
1
 40
1.0
176
1
 40
1.0
176
1
  0
DICTIONARYVAR
  5
306
330
2D
100
DictionaryVariables
280
0
  1
1.4.4 @ 2026-08-14T11:24:14.349465+00:00
  0
ENDSEC
  0
EOF
