# FY301 placeholder mesh: piezo_disk
o piezo_disk
v 0.000000 0.000000 -0.022500
v 0.000000 0.000000 0.022500
v 0.550000 0.000000 -0.022500
v 0.550000 0.000000 0.022500
v 0.547352 0.053909 -0.022500
v 0.547352 0.053909 0.022500
v 0.539432 0.107300 -0.022500
v 0.539432 0.107300 0.022500
v 0.526317 0.159657 -0.022500
v 0.526317 0.159657 0.022500
v 0.508134 0.210476 -0.022500
v 0.508134 0.210476 0.022500
v 0.485057 0.259268 -0.022500
v 0.485057 0.259268 0.022500
v 0.457308 0.305564 -0.022500
v 0.457308 0.305564 0.022500
v 0.425156 0.348916 -0.022500
v 0.425156 0.348916 0.022500
v 0.388909 0.388909 -0.022500
v 0.388909 0.388909 0.022500
v 0.348916 0.425156 -0.022500
v 0.348916 0.425156 0.022500
v 0.305564 0.457308 -0.022500
v 0.305564 0.457308 0.022500
v 0.259268 0.485057 -0.022500
v 0.259268 0.485057 0.022500
v 0.210476 0.508134 -0.022500
v 0.210476 0.508134 0.022500
v 0.159657 0.526317 -0.022500
v 0.159657 0.526317 0.022500
v 0.107300 0.539432 -0.022500
v 0.107300 0.539432 0.022500
v 0.053909 0.547352 -0.022500
v 0.053909 0.547352 0.022500
v 0.000000 0.550000 -0.022500
v 0.000000 0.550000 0.022500
v -0.053909 0.547352 -0.022500
v -0.053909 0.547352 0.022500
v -0.107300 0.539432 -0.022500
v -0.107300 0.539432 0.022500
v -0.159657 0.526317 -0.022500
v -0.159657 0.526317 0.022500
v -0.210476 0.508134 -0.022500
v -0.210476 0.508134 0.022500
v -0.259268 0.485057 -0.022500
v -0.259268 0.485057 0.022500
v -0.305564 0.457308 -0.022500
v -0.305564 0.457308 0.022500
v -0.348916 0.425156 -0.022500
v -0.348916 0.425156 0.022500
v -0.388909 0.388909 -0.022500
v -0.388909 0.388909 0.022500
v -0.425156 0.348916 -0.022500
v -0.425156 0.348916 0.022500
v -0.457308 0.305564 -0.022500
v -0.457308 0.305564 0.022500
v -0.485057 0.259268 -0.022500
v -0.485057 0.259268 0.022500
v -0.508134 0.210476 -0.022500
v -0.508134 0.210476 0.022500
v -0.526317 0.159657 -0.022500
v -0.526317 0.159657 0.022500
v -0.539432 0.107300 -0.022500
v -0.539432 0.107300 0.022500
v -0.547352 0.053909 -0.022500
v -0.547352 0.053909 0.022500
v -0.550000 0.000000 -0.022500
v -0.550000 0.000000 0.022500
v -0.547352 -0.053909 -0.022500
v -0.547352 -0.053909 0.022500
v -0.539432 -0.107300 -0.022500
v -0.539432 -0.107300 0.022500
v -0.526317 -0.159657 -0.022500
v -0.526317 -0.159657 0.022500
v -0.508134 -0.210476 -0.022500
v -0.508134 -0.210476 0.022500
v -0.485057 -0.259268 -0.022500
v -0.485057 -0.259268 0.022500
v -0.457308 -0.305564 -0.022500
v -0.457308 -0.305564 0.022500
v -0.425156 -0.348916 -0.022500
v -0.425156 -0.348916 0.022500
v -0.388909 -0.388909 -0.022500
v -0.388909 -0.388909 0.022500
v -0.348916 -0.425156 -0.022500
v -0.348916 -0.425156 0.022500
v -0.305564 -0.457308 -0.022500
v -0.305564 -0.457308 0.022500
v -0.259268 -0.485057 -0.022500
v -0.259268 -0.485057 0.022500
v -0.210476 -0.508134 -0.022500
v -0.210476 -0.508134 0.022500
v -0.159657 -0.526317 -0.022500
v -0.159657 -0.526317 0.022500
v -0.107300 -0.539432 -0.022500
v -0.107300 -0.539432 0.022500
v -0.053909 -0.547352 -0.022500
v -0.053909 -0.547352 0.022500
v -0.000000 -0.550000 -0.022500
v -0.000000 -0.550000 0.022500
v 0.053909 -0.547352 -0.022500
v 0.053909 -0.547352 0.022500
v 0.107300 -0.539432 -0.022500
v 0.107300 -0.539432 0.022500
v 0.159657 -0.526317 -0.022500
v 0.159657 -0.526317 0.022500
v 0.210476 -0.508134 -0.022500
v 0.210476 -0.508134 0.022500
v 0.259268 -0.485057 -0.022500
v 0.259268 -0.485057 0.022500
v 0.305564 -0.457308 -0.022500
v 0.305564 -0.457308 0.022500
v 0.348916 -0.425156 -0.022500
v 0.348916 -0.425156 0.022500
v 0.388909 -0.388909 -0.022500
v 0.388909 -0.388909 0.022500
v 0.425156 -0.348916 -0.022500
v 0.425156 -0.348916 0.022500
v 0.457308 -0.305564 -0.022500
v 0.457308 -0.305564 0.022500
v 0.485057 -0.259268 -0.022500
v 0.485057 -0.259268 0.022500
v 0.508134 -0.210476 -0.022500
v 0.508134 -0.210476 0.022500
v 0.526317 -0.159657 -0.022500
v 0.526317 -0.159657 0.022500
v 0.539432 -0.107300 -0.022500
v 0.539432 -0.107300 0.022500
v 0.547352 -0.053909 -0.022500
v 0.547352 -0.053909 0.022500
f 1 3 5
f 2 6 4
f 3 4 6 5
f 1 5 7
f 2 8 6
f 5 6 8 7
f 1 7 9
f 2 10 8
f 7 8 10 9
f 1 9 11
f 2 12 10
f 9 10 12 11
f 1 11 13
f 2 14 12
f 11 12 14 13
f 1 13 15
f 2 16 14
f 13 14 16 15
f 1 15 17
f 2 18 16
f 15 16 18 17
f 1 17 19
f 2 20 18
f 17 18 20 19
f 1 19 21
f 2 22 20
f 19 20 22 21
f 1 21 23
f 2 24 22
f 21 22 24 23
f 1 23 25
f 2 26 24
f 23 24 26 25
f 1 25 27
f 2 28 26
f 25 26 28 27
f 1 27 29
f 2 30 28
f 27 28 30 29
f 1 29 31
f 2 32 30
f 29 30 32 31
f 1 31 33
f 2 34 32
f 31 32 34 33
f 1 33 35
f 2 36 34
f 33 34 36 35
f 1 35 37
f 2 38 36
f 35 36 38 37
f 1 37 39
f 2 40 38
f 37 38 40 39
f 1 39 41
f 2 42 40
f 39 40 42 41
f 1 41 43
f 2 44 42
f 41 42 44 43
f 1 43 45
f 2 46 44
f 43 44 46 45
f 1 45 47
f 2 48 46
f 45 46 48 47
f 1 47 49
f 2 50 48
f 47 48 50 49
f 1 49 51
f 2 52 50
f 49 50 52 51
f 1 51 53
f 2 54 52
f 51 52 54 53
f 1 53 55
f 2 56 54
f 53 54 56 55
f 1 55 57
f 2 58 56
f 55 56 58 57
f 1 57 59
f 2 60 58
f 57 58 60 59
f 1 59 61
f 2 62 60
f 59 60 62 61
f 1 61 63
f 2 64 62
f 61 62 64 63
f 1 63 65
f 2 66 64
f 63 64 66 65
f 1 65 67
f 2 68 66
f 65 66 68 67
f 1 67 69
f 2 70 68
f 67 68 70 69
f 1 69 71
f 2 72 70
f 69 70 72 71
f 1 71 73
f 2 74 72
f 71 72 74 73
f 1 73 75
f 2 76 74
f 73 74 76 75
f 1 75 77
f 2 78 76
f 75 76 78 77
f 1 77 79
f 2 80 78
f 77 78 80 79
f 1 79 81
f 2 82 80
f 79 80 82 81
f 1 81 83
f 2 84 82
f 81 82 84 83
f 1 83 85
f 2 86 84
f 83 84 86 85
f 1 85 87
f 2 88 86
f 85 86 88 87
f 1 87 89
f 2 90 88
f 87 88 90 89
f 1 89 91
f 2 92 90
f 89 90 92 91
f 1 91 93
f 2 94 92
f 91 92 94 93
f 1 93 95
f 2 96 94
f 93 94 96 95
f 1 95 97
f 2 98 96
f 95 96 98 97
f 1 97 99
f 2 100 98
f 97 98 100 99
f 1 99 101
f 2 102 100
f 99 100 102 101
f 1 101 103
f 2 104 102
f 101 102 104 103
f 1 103 105
f 2 106 104
f 103 104 106 105
f 1 105 107
f 2 108 106
f 105 106 108 107
f 1 107 109
f 2 110 108
f 107 108 110 109
f 1 109 111
f 2 112 110
f 109 110 112 111
f 1 111 113
f 2 114 112
f 111 112 114 113
f 1 113 115
f 2 116 114
f 113 114 116 115
f 1 115 117
f 2 118 116
f 115 116 118 117
f 1 117 119
f 2 120 118
f 117 118 120 119
f 1 119 121
f 2 122 120
f 119 120 122 121
f 1 121 123
f 2 124 122
f 121 122 124 123
f 1 123 125
f 2 126 124
f 123 124 126 125
f 1 125 127
f 2 128 126
f 125 126 128 127
f 1 127 129
f 2 130 128
f 127 128 130 129
f 1 129 3
f 2 4 130
f 129 130 4 3
