  0
SECTION
  2
HEADER
  9
$ACADVER
  1
AC1027
  9
$ACADMAINTVER
 70
105
  9
$DWGCODEPAGE
  3
ANSI_1252
  9
$LASTSAVEDBY
  1
ezdxf
  9
$REQUIREDVERSIONS
160
0
  9
$INSBASE
 10
0.0
 20
0.0
 30
0.0
  9
$EXTMIN
 10
1e+20
 20
1e+20
 30
1e+20
  9
$EXTMAX
 10
-1e+20
 20
-1e+20
 30
-1e+20
  9
$LIMMIN
 10
0.0
 20
0.0
  9
$LIMMAX
 10
420.0
 20
297.0
  9
$ORTHOMODE
 70
0
  9
$REGENMODE
 70
1
  9
$FILLMODE
 70
1
  9
$QTEXTMODE
 70
0
  9
$MIRRTEXT
 70
1
  9
$LTSCALE
 40
1.0
  9
$ATTMODE
 70
1
  9
$TEXTSIZE
 40
2.5
  9
$TRACEWID
 40
1.0
  9
$TEXTSTYLE
  7
OpenSans
  9
$CLAYER
  8
0
  9
$CELTYPE
  6
ByLayer
  9
$CECOLOR
 62
256
  9
$CELTSCALE
 40
1.0
  9
$DISPSILH
 70
0
  9
$DIMSCALE
 40
1.0
  9
$DIMASZ
 40
0.175
  9
$DIMEXO
 40
0.125
  9
$DIMDLI
 40
3.75
  9
$DIMRND
 40
0.0
  9
$DIMDLE
 40
0.0
  9
$DIMEXE
 40
0.375
  9
$DIMTP
 40
0.0
  9
$DIMTM
 40
0.0
  9
$DIMTXT
 40
0.25
  9
$DIMCEN
 40
2.5
  9
$DIMTSZ
 40
0.0
  9
$DIMTOL
 70
0
  9
$DIMLIM
 70
0
  9
$DIMTIH
 70
0
  9
$DIMTOH
 70
0
  9
$DIMSE1
 70
0
  9
$DIMSE2
 70
0
  9
$DIMTAD
 70
1
  9
$DIMZIN
 70
12
  9
$DIMBLK
  1
ARCHTICK
  9
$DIMASO
 70
1
  9
$DIMSHO
 70
1
  9
$DIMPOST
  1

  9
$DIMAPOST
  1

  9
$DIMALT
 70
0
  9
$DIMALTD
 70
3
  9
$DIMALTF
 40
0.03937007874
  9
$DIMLFAC
 40
100.0
  9
$DIMTOFL
 70
1
  9
$DIMTVP
 40
0.0
  9
$DIMTIX
 70
0
  9
$DIMSOXD
 70
0
  9
$DIMSAH
 70
0
  9
$DIMBLK1
  1

  9
$DIMBLK2
  1

  9
$DIMSTYLE
  2
EZDXF
  9
$DIMCLRD
 70
0
  9
$DIMCLRE
 70
0
  9
$DIMCLRT
 70
0
  9
$DIMTFAC
 40
0.5
  9
$DIMGAP
 40
0.1
  9
$DIMJUST
 70
0
  9
$DIMSD1
 70
0
  9
$DIMSD2
 70
0
  9
$DIMTOLJ
 70
0
  9
$DIMTZIN
 70
8
  9
$DIMALTZ
 70
0
  9
$DIMALTTZ
 70
0
  9
$DIMUPT
 70
1
  9
$DIMDEC
 70
2
  9
$DIMTDEC
 70
2
  9
$DIMALTU
 70
2
  9
$DIMALTTD
 70
3
  9
$DIMTXSTY
  7
OpenSansCondensed-Light
  9
$DIMAUNIT
 70
0
  9
$DIMADEC
 70
2
  9
$DIMALTRND
 40
0.0
  9
$DIMAZIN
 70
3
  9
$DIMDSEP
 70
46
  9
$DIMATFIT
 70
3
  9
$DIMFRAC
 70
0
  9
$DIMLDRBLK
  1

  9
$DIMLUNIT
 70
2
  9
$DIMLWD
 70
-2
  9
$DIMLWE
 70
-2
  9
$DIMTMOVE
 70
2
  9
$DIMFXL
 40
1.0
  9
$DIMFXLON
 70
0
  9
$DIMJOGANG
 40
0.785398163397
  9
$DIMTFILL
 70
0
  9
$DIMTFILLCLR
 70
0
  9
$DIMARCSYM
 70
0
  9
$DIMLTYPE
  6

  9
$DIMLTEX1
  6

  9
$DIMLTEX2
  6

  9
$DIMTXTDIRECTION
 70
0
  9
$LUNITS
 70
2
  9
$LUPREC
 70
4
  9
$SKETCHINC
 40
1.0
  9
$FILLETRAD
 40
10.0
  9
$AUNITS
 70
0
  9
$AUPREC
 70
2
  9
$MENU
  1
.
  9
$ELEVATION
 40
0.0
  9
$PELEVATION
 40
0.0
  9
$THICKNESS
 40
0.0
  9
$LIMCHECK
 70
0
  9
$CHAMFERA
 40
0.0
  9
$CHAMFERB
 40
0.0
  9
$CHAMFERC
 40
0.0
  9
$CHAMFERD
 40
0.0
  9
$SKPOLY
 70
0
  9
$TDCREATE
 40
2461257.0439699073
  9
$TDUCREATE
 40
2458532.153996898
  9
$TDUPDATE
 40
2461257.0439699073
  9
$TDUUPDATE
 40
2458532.1544311
  9
$TDINDWG
 40
0.0
  9
$TDUSRTIMER
 40
0.0
  9
$USRTIMER
 70
1
  9
$ANGBASE
 50
0.0
  9
$ANGDIR
 70
0
  9
$PDMODE
 70
0
  9
$PDSIZE
 40
0.0
  9
$PLINEWID
 40
0.0
  9
$SPLFRAME
 70
0
  9
$SPLINETYPE
 70
6
  9
$SPLINESEGS
 70
8
  9
$HANDSEED
  5
40E
  9
$SURFTAB1
 70
6
  9
$SURFTAB2
 70
6
  9
$SURFTYPE
 70
6
  9
$SURFU
 70
6
  9
$SURFV
 70
6
  9
$UCSBASE
  2

  9
$UCSNAME
  2

  9
$UCSORG
 10
0.0
 20
0.0
 30
0.0
  9
$UCSXDIR
 10
1.0
 20
0.0
 30
0.0
  9
$UCSYDIR
 10
0.0
 20
1.0
 30
0.0
  9
$UCSORTHOREF
  2

  9
$UCSORTHOVIEW
 70
0
  9
$UCSORGTOP
 10
0.0
 20
0.0
 30
0.0
  9
$UCSORGBOTTOM
 10
0.0
 20
0.0
 30
0.0
  9
$UCSORGLEFT
 10
0.0
 20
0.0
 30
0.0
  9
$UCSORGRIGHT
 10
0.0
 20
0.0
 30
0.0
  9
$UCSORGFRONT
 10
0.0
 20
0.0
 30
0.0
  9
$UCSORGBACK
 10
0.0
 20
0.0
 30
0.0
  9
$PUCSBASE
  2

  9
$PUCSNAME
  2

  9
$PUCSORG
 10
0.0
 20
0.0
 30
0.0
  9
$PUCSXDIR
 10
1.0
 20
0.0
 30
0.0
  9
$PUCSYDIR
 10
0.0
 20
1.0
 30
0.0
  9
$PUCSORTHOREF
  2

  9
$PUCSORTHOVIEW
 70
0
  9
$PUCSORGTOP
 10
0.0
 20
0.0
 30
0.0
  9
$PUCSORGBOTTOM
 10
0.0
 20
0.0
 30
0.0
  9
$PUCSORGLEFT
 10
0.0
 20
0.0
 30
0.0
  9
$PUCSORGRIGHT
 10
0.0
 20
0.0
 30
0.0
  9
$PUCSORGFRONT
 10
0.0
 20
0.0
 30
0.0
  9
$PUCSORGBACK
 10
0.0
 20
0.0
 30
0.0
  9
$USERI1
 70
0
  9
$USERI2
 70
0
  9
$USERI3
 70
0
  9
$USERI4
 70
0
  9
$USERI5
 70
0
  9
$USERR1
 40
0.0
  9
$USERR2
 40
0.0
  9
$USERR3
 40
0.0
  9
$USERR4
 40
0.0
  9
$USERR5
 40
0.0
  9
$WORLDVIEW
 70
1
  9
$SHADEDGE
 70
3
  9
$SHADEDIF
 70
70
  9
$TILEMODE
 70
1
  9
$MAXACTVP
 70
64
  9
$PINSBASE
 10
0.0
 20
0.0
 30
0.0
  9
$PLIMCHECK
 70
0
  9
$PEXTMIN
 10
1e+20
 20
1e+20
 30
1e+20
  9
$PEXTMAX
 10
-1e+20
 20
-1e+20
 30
-1e+20
  9
$PLIMMIN
 10
0.0
 20
0.0
  9
$PLIMMAX
 10
420.0
 20
297.0
  9
$UNITMODE
 70
0
  9
$VISRETAIN
 70
1
  9
$PLINEGEN
 70
0
  9
$PSLTSCALE
 70
1
  9
$TREEDEPTH
 70
3020
  9
$CMLSTYLE
  2
Standard
  9
$CMLJUST
 70
0
  9
$CMLSCALE
 40
20.0
  9
$PROXYGRAPHICS
 70
1
  9
$MEASUREMENT
 70
1
  9
$CELWEIGHT
370
-1
  9
$ENDCAPS
280
0
  9
$JOINSTYLE
280
0
  9
$LWDISPLAY
290
0
  9
$INSUNITS
 70
4
  9
$HYPERLINKBASE
  1

  9
$STYLESHEET
  1

  9
$XEDIT
290
1
  9
$CEPSNTYPE
380
0
  9
$PSTYLEMODE
290
1
  9
$FINGERPRINTGUID
  2
{F80E8023-BA8D-45E1-A907-2AB836A5CBBE}
  9
$VERSIONGUID
  2
{02A635E6-7E85-4046-ABAC-2DBF8ACF68BB}
  9
$EXTNAMES
290
1
  9
$PSVPSCALE
 40
0.0
  9
$OLESTARTUP
290
0
  9
$SORTENTS
280
127
  9
$INDEXCTL
280
0
  9
$HIDETEXT
280
1
  9
$XCLIPFRAME
280
1
  9
$HALOGAP
280
0
  9
$OBSCOLOR
 70
257
  9
$OBSLTYPE
280
0
  9
$INTERSECTIONDISPLAY
280
0
  9
$INTERSECTIONCOLOR
 70
257
  9
$DIMASSOC
280
2
  9
$PROJECTNAME
  1

  9
$CAMERADISPLAY
290
0
  9
$LENSLENGTH
 40
50.0
  9
$CAMERAHEIGHT
 40
0.0
  9
$STEPSPERSEC
 40
24.0
  9
$STEPSIZE
 40
100.0
  9
$3DDWFPREC
 40
2.0
  9
$PSOLWIDTH
 40
0.005
  9
$PSOLHEIGHT
 40
0.08
  9
$LOFTANG1
 40
1.570796326795
  9
$LOFTANG2
 40
1.570796326795
  9
$LOFTMAG1
 40
0.0
  9
$LOFTMAG2
 40
0.0
  9
$LOFTPARAM
 70
7
  9
$LOFTNORMALS
280
1
  9
$LATITUDE
 40
37.795
  9
$LONGITUDE
 40
-122.394
  9
$NORTHDIRECTION
 40
0.0
  9
$TIMEZONE
 70
-8000
  9
$LIGHTGLYPHDISPLAY
280
1
  9
$TILEMODELIGHTSYNCH
280
1
  9
$CMATERIAL
347
20
  9
$SOLIDHIST
280
0
  9
$SHOWHIST
280
1
  9
$DWFFRAME
280
2
  9
$DGNFRAME
280
2
  9
$REALWORLDSCALE
290
1
  9
$INTERFERECOLOR
 62
256
  9
$CSHADOW
280
0
  9
$SHADOWPLANELOCATION
 40
0.0
  0
ENDSEC
  0
SECTION
  2
CLASSES
  0
CLASS
  1
ACDBDICTIONARYWDFLT
  2
AcDbDictionaryWithDefault
  3
ObjectDBX Classes
 90
0
 91
0
280
0
281
0
  0
CLASS
  1
SUN
  2
AcDbSun
  3
SCENEOE
 90
1153
 91
0
280
0
281
0
  0
CLASS
  1
VISUALSTYLE
  2
AcDbVisualStyle
  3
ObjectDBX Classes
 90
4095
 91
0
280
0
281
0
  0
CLASS
  1
MATERIAL
  2
AcDbMaterial
  3
ObjectDBX Classes
 90
1153
 91
0
280
0
281
0
  0
CLASS
  1
SCALE
  2
AcDbScale
  3
ObjectDBX Classes
 90
1153
 91
0
280
0
281
0
  0
CLASS
  1
TABLESTYLE
  2
AcDbTableStyle
  3
ObjectDBX Classes
 90
4095
 91
0
280
0
281
0
  0
CLASS
  1
MLEADERSTYLE
  2
AcDbMLeaderStyle
  3
ACDB_MLEADERSTYLE_CLASS
 90
4095
 91
0
280
0
281
0
  0
CLASS
  1
DICTIONARYVAR
  2
AcDbDictionaryVar
  3
ObjectDBX Classes
 90
0
 91
0
280
0
281
0
  0
CLASS
  1
CELLSTYLEMAP
  2
AcDbCellStyleMap
  3
ObjectDBX Classes
 90
1152
 91
0
280
0
281
0
  0
CLASS
  1
MENTALRAYRENDERSETTINGS
  2
AcDbMentalRayRenderSettings
  3
SCENEOE
 90
1024
 91
0
280
0
281
0
  0
CLASS
  1
ACDBDETAILVIEWSTYLE
  2
AcDbDetailViewStyle
  3
ObjectDBX Classes
 90
1025
 91
0
280
0
281
0
  0
CLASS
  1
ACDBSECTIONVIEWSTYLE
  2
AcDbSectionViewStyle
  3
ObjectDBX Classes
 90
1025
 91
0
280
0
281
0
  0
CLASS
  1
RASTERVARIABLES
  2
AcDbRasterVariables
  3
ISM
 90
0
 91
0
280
0
281
0
  0
CLASS
  1
ACDBPLACEHOLDER
  2
AcDbPlaceHolder
  3
ObjectDBX Classes
 90
0
 91
0
280
0
281
0
  0
CLASS
  1
LAYOUT
  2
AcDbLayout
  3
ObjectDBX Classes
 90
0
 91
0
280
0
281
0
  0
ENDSEC
  0
SECTION
  2
TABLES
  0
TABLE
  2
VPORT
  5
8
330
0
100
AcDbSymbolTable
 70
1
  0
VPORT
  5
40A
330
8
100
AcDbSymbolTableRecord
100
AcDbViewportTableRecord
  2
*Active
 70
0
 10
0.0
 20
0.0
 11
1.0
 21
1.0
 12
900.0
 22
159.04219653179194
 13
0.0
 23
0.0
 14
0.5
 24
0.5
 15
0.5
 25
0.5
 16
0.0
 26
0.0
 36
1.0
 17
0.0
 27
0.0
 37
0.0
 40
900.0
 41
1.34
 42
50.0
 43
0.0
 44
0.0
 50
0.0
 51
0.0
 71
0
 72
1000
 73
1
 74
3
 75
0
 76
0
 77
0
 78
0
281
0
 65
1
110
0.0
120
0.0
130
0.0
111
1.0
121
0.0
131
0.0
112
0.0
122
1.0
132
0.0
 79
0
146
0.0
  0
ENDTAB
  0
TABLE
  2
LTYPE
  5
2
330
0
100
AcDbSymbolTable
 70
21
  0
LTYPE
  5
24
330
2
100
AcDbSymbolTableRecord
100
AcDbLinetypeTableRecord
  2
ByBlock
 70
0
  3

 72
65
 73
0
 40
0.0
  0
LTYPE
  5
25
330
2
100
AcDbSymbolTableRecord
100
AcDbLinetypeTableRecord
  2
ByLayer
 70
0
  3

 72
65
 73
0
 40
0.0
  0
LTYPE
  5
26
330
2
100
AcDbSymbolTableRecord
100
AcDbLinetypeTableRecord
  2
Continuous
 70
0
  3

 72
65
 73
0
 40
0.0
  0
LTYPE
  5
2F
330
2
100
AcDbSymbolTableRecord
100
AcDbLinetypeTableRecord
  2
CENTER
 70
0
  3
Center ____ _ ____ _ ____ _ ____ _ ____ _ ____
 72
65
 73
4
 40
5.08
 49
3.175
 74
0
 49
-0.635
 74
0
 49
0.635
 74
0
 49
-0.635
 74
0
  0
LTYPE
  5
30
330
2
100
AcDbSymbolTableRecord
100
AcDbLinetypeTableRecord
  2
CENTERX2
 70
0
  3
Center (2x) ________  __  ________  __  ________
 72
65
 73
4
 40
8.89
 49
6.35
 74
0
 49
-0.635
 74
0
 49
1.27
 74
0
 49
-0.635
 74
0
  0
LTYPE
  5
31
330
2
100
AcDbSymbolTableRecord
100
AcDbLinetypeTableRecord
  2
CENTER2
 70
0
  3
Center (.5x) ____ _ ____ _ ____ _ ____ _ ____
 72
65
 73
4
 40
2.54
 49
1.587
 74
0
 49
-0.318
 74
0
 49
0.318
 74
0
 49
-0.318
 74
0
  0
LTYPE
  5
32
330
2
100
AcDbSymbolTableRecord
100
AcDbLinetypeTableRecord
  2
DASHED
 70
0
  3
Dashed __ __ __ __ __ __ __ __ __ __ __ __ __ _
 72
65
 73
2
 40
1.524
 49
1.27
 74
0
 49
-0.254
 74
0
  0
LTYPE
  5
33
330
2
100
AcDbSymbolTableRecord
100
AcDbLinetypeTableRecord
  2
DASHEDX2
 70
0
  3
Dashed (2x) ____  ____  ____  ____  ____  ____
 72
65
 73
2
 40
3.048
 49
2.54
 74
0
 49
-0.508
 74
0
  0
LTYPE
  5
34
330
2
100
AcDbSymbolTableRecord
100
AcDbLinetypeTableRecord
  2
DASHED2
 70
0
  3
Dashed (.5x) _ _ _ _ _ _ _ _ _ _ _ _ _ _
 72
65
 73
2
 40
0.762
 49
0.635
 74
0
 49
-0.127
 74
0
  0
LTYPE
  5
35
330
2
100
AcDbSymbolTableRecord
100
AcDbLinetypeTableRecord
  2
PHANTOM
 70
0
  3
Phantom ______  __  __  ______  __  __  ______
 72
65
 73
6
 40
6.35
 49
3.175
 74
0
 49
-0.635
 74
0
 49
0.635
 74
0
 49
-0.635
 74
0
 49
0.635
 74
0
 49
-0.635
 74
0
  0
LTYPE
  5
36
330
2
100
AcDbSymbolTableRecord
100
AcDbLinetypeTableRecord
  2
PHANTOMX2
 70
0
  3
Phantom (2x)____________    ____    ____    ____________
 72
65
 73
6
 40
10.795
 49
6.35
 74
0
 49
-0.635
 74
0
 49
1.27
 74
0
 49
-0.635
 74
0
 49
1.27
 74
0
 49
-0.635
 74
0
  0
LTYPE
  5
37
330
2
100
AcDbSymbolTableRecord
100
AcDbLinetypeTableRecord
  2
PHANTOM2
 70
0
  3
Phantom (.5x) ___ _ _ ___ _ _ ___ _ _ ___ _ _ ___
 72
65
 73
6
 40
3.175
 49
1.587
 74
0
 49
-0.318
 74
0
 49
0.318
 74
0
 49
-0.318
 74
0
 49
0.318
 74
0
 49
-0.318
 74
0
  0
LTYPE
  5
38
330
2
100
AcDbSymbolTableRecord
100
AcDbLinetypeTableRecord
  2
DASHDOT
 70
0
  3
Dash dot __ . __ . __ . __ . __ . __ . __ . __
 72
65
 73
4
 40
3.556
 49
2.54
 74
0
 49
-0.508
 74
0
 49
0.0
 74
0
 49
-0.508
 74
0
  0
LTYPE
  5
39
330
2
100
AcDbSymbolTableRecord
100
AcDbLinetypeTableRecord
  2
DASHDOTX2
 70
0
  3
Dash dot (2x) ____  .  ____  .  ____  .  ____
 72
65
 73
4
 40
6.096
 49
5.08
 74
0
 49
-0.508
 74
0
 49
0.0
 74
0
 49
-0.508
 74
0
  0
LTYPE
  5
3A
330
2
100
AcDbSymbolTableRecord
100
AcDbLinetypeTableRecord
  2
DASHDOT2
 70
0
  3
Dash dot (.5x) _ . _ . _ . _ . _ . _ . _ . _
 72
65
 73
4
 40
1.778
 49
1.27
 74
0
 49
-0.254
 74
0
 49
0.0
 74
0
 49
-0.254
 74
0
  0
LTYPE
  5
3B
330
2
100
AcDbSymbolTableRecord
100
AcDbLinetypeTableRecord
  2
DOT
 70
0
  3
Dot .  .  .  .  .  .  .  .  .  .  .  .  .  .  .  .
 72
65
 73
2
 40
0.508
 49
0.0
 74
0
 49
-0.508
 74
0
  0
LTYPE
  5
3C
330
2
100
AcDbSymbolTableRecord
100
AcDbLinetypeTableRecord
  2
DOTX2
 70
0
  3
Dot (2x) .    .    .    .    .    .    .    . 
 72
65
 73
2
 40
1.016
 49
0.0
 74
0
 49
-1.016
 74
0
  0
LTYPE
  5
3D
330
2
100
AcDbSymbolTableRecord
100
AcDbLinetypeTableRecord
  2
DOT2
 70
0
  3
Dot (.5) . . . . . . . . . . . . . . . . . . . 
 72
65
 73
2
 40
0.254
 49
0.0
 74
0
 49
-0.254
 74
0
  0
LTYPE
  5
3E
330
2
100
AcDbSymbolTableRecord
100
AcDbLinetypeTableRecord
  2
DIVIDE
 70
0
  3
Divide __ . . __ . . __ . . __ . . __ . . __
 72
65
 73
6
 40
4.064
 49
2.54
 74
0
 49
-0.508
 74
0
 49
0.0
 74
0
 49
-0.508
 74
0
 49
0.0
 74
0
 49
-0.508
 74
0
  0
LTYPE
  5
3F
330
2
100
AcDbSymbolTableRecord
100
AcDbLinetypeTableRecord
  2
DIVIDEX2
 70
0
  3
Divide (2x) ____  . .  ____  . .  ____  . .  ____
 72
65
 73
6
 40
6.604
 49
5.08
 74
0
 49
-0.508
 74
0
 49
0.0
 74
0
 49
-0.508
 74
0
 49
0.0
 74
0
 49
-0.508
 74
0
  0
LTYPE
  5
40
330
2
100
AcDbSymbolTableRecord
100
AcDbLinetypeTableRecord
  2
DIVIDE2
 70
0
  3
Divide(.5x) _ . _ . _ . _ . _ . _ . _ . _
 72
65
 73
6
 40
2.032
 49
1.27
 74
0
 49
-0.254
 74
0
 49
0.0
 74
0
 49
-0.254
 74
0
 49
0.0
 74
0
 49
-0.254
 74
0
  0
ENDTAB
  0
TABLE
  2
LAYER
  5
1
330
0
100
AcDbSymbolTable
 70
11
  0
LAYER
  5
27
330
1
100
AcDbSymbolTableRecord
100
AcDbLayerTableRecord
  2
0
 70
0
 62
7
  6
Continuous
370
-3
390
13
347
21
  0
LAYER
  5
28
330
1
100
AcDbSymbolTableRecord
100
AcDbLayerTableRecord
  2
Defpoints
 70
0
 62
7
  6
Continuous
290
0
370
-3
390
13
347
21
  0
LAYER
  5
8A
330
1
100
AcDbSymbolTableRecord
100
AcDbLayerTableRecord
  2
轮廓
 70
0
 62
7
  6
Continuous
370
50
390
13
347
21
  0
LAYER
  5
8B
330
1
100
AcDbSymbolTableRecord
100
AcDbLayerTableRecord
  2
细实线
 70
0
 62
7
  6
Continuous
370
18
390
13
347
21
  0
LAYER
  5
8C
330
1
100
AcDbSymbolTableRecord
100
AcDbLayerTableRecord
  2
中心线
 70
0
 62
1
  6
CENTER
370
18
390
13
347
21
  0
LAYER
  5
8D
330
1
100
AcDbSymbolTableRecord
100
AcDbLayerTableRecord
  2
虚线
 70
0
 62
7
  6
DASHED
370
18
390
13
347
21
  0
LAYER
  5
8E
330
1
100
AcDbSymbolTableRecord
100
AcDbLayerTableRecord
  2
剖面线
 70
0
 62
7
  6
Continuous
370
13
390
13
347
21
  0
LAYER
  5
8F
330
1
100
AcDbSymbolTableRecord
100
AcDbLayerTableRecord
  2
标注
 70
0
 62
3
  6
Continuous
370
18
390
13
347
21
  0
LAYER
  5
90
330
1
100
AcDbSymbolTableRecord
100
AcDbLayerTableRecord
  2
文字
 70
0
 62
7
  6
Continuous
370
18
390
13
347
21
  0
LAYER
  5
91
330
1
100
AcDbSymbolTableRecord
100
AcDbLayerTableRecord
  2
图框
 70
0
 62
7
  6
Continuous
370
18
390
13
347
21
  0
LAYER
  5
92
330
1
100
AcDbSymbolTableRecord
100
AcDbLayerTableRecord
  2
表格
 70
0
 62
7
  6
Continuous
370
18
390
13
347
21
  0
ENDTAB
  0
TABLE
  2
STYLE
  5
5
330
0
100
AcDbSymbolTable
 70
27
  0
STYLE
  5
29
330
5
100
AcDbSymbolTableRecord
100
AcDbTextStyleTableRecord
  2
Standard
 70
0
 40
0.0
 41
1.0
 50
0.0
 71
0
 42
2.5
  3
simhei.ttf
  4

  0
STYLE
  5
41
330
5
100
AcDbSymbolTableRecord
100
AcDbTextStyleTableRecord
  2
OpenSans-Light
 70
0
 40
0.0
 41
1.0
 50
0.0
 71
0
 42
2.5
  3
OpenSans-Light.ttf
  4

  0
STYLE
  5
42
330
5
100
AcDbSymbolTableRecord
100
AcDbTextStyleTableRecord
  2
OpenSans-Light-Italic
 70
0
 40
0.0
 41
1.0
 50
0.0
 71
0
 42
2.5
  3
OpenSans-LightItalic.ttf
  4

  0
STYLE
  5
43
330
5
100
AcDbSymbolTableRecord
100
AcDbTextStyleTableRecord
  2
OpenSans
 70
0
 40
0.0
 41
1.0
 50
0.0
 71
0
 42
2.5
  3
OpenSans-Regular.ttf
  4

  0
STYLE
  5
44
330
5
100
AcDbSymbolTableRecord
100
AcDbTextStyleTableRecord
  2
OpenSans-Italic
 70
0
 40
0.0
 41
1.0
 50
0.0
 71
0
 42
2.5
  3
OpenSans-Italic.ttf
  4

  0
STYLE
  5
45
330
5
100
AcDbSymbolTableRecord
100
AcDbTextStyleTableRecord
  2
OpenSans-SemiBold
 70
0
 40
0.0
 41
1.0
 50
0.0
 71
0
 42
2.5
  3
OpenSans-SemiBold.ttf
  4

  0
STYLE
  5
46
330
5
100
AcDbSymbolTableRecord
100
AcDbTextStyleTableRecord
  2
OpenSans-SemiBoldItalic
 70
0
 40
0.0
 41
1.0
 50
0.0
 71
0
 42
2.5
  3
OpenSans-SemiBoldItalic.ttf
  4

  0
STYLE
  5
47
330
5
100
AcDbSymbolTableRecord
100
AcDbTextStyleTableRecord
  2
OpenSans-Bold
 70
0
 40
0.0
 41
1.0
 50
0.0
 71
0
 42
2.5
  3
OpenSans-Bold.ttf
  4

  0
STYLE
  5
48
330
5
100
AcDbSymbolTableRecord
100
AcDbTextStyleTableRecord
  2
OpenSans-BoldItalic
 70
0
 40
0.0
 41
1.0
 50
0.0
 71
0
 42
2.5
  3
OpenSans-BoldItalic.ttf
  4

  0
STYLE
  5
49
330
5
100
AcDbSymbolTableRecord
100
AcDbTextStyleTableRecord
  2
OpenSans-ExtraBold
 70
0
 40
0.0
 41
1.0
 50
0.0
 71
0
 42
2.5
  3
OpenSans-ExtraBold.ttf
  4

  0
STYLE
  5
4A
330
5
100
AcDbSymbolTableRecord
100
AcDbTextStyleTableRecord
  2
OpenSans-ExtraBoldItalic
 70
0
 40
0.0
 41
1.0
 50
0.0
 71
0
 42
2.5
  3
OpenSans-ExtraBoldItalic.ttf
  4

  0
STYLE
  5
4B
330
5
100
AcDbSymbolTableRecord
100
AcDbTextStyleTableRecord
  2
OpenSansCondensed-Bold
 70
0
 40
0.0
 41
1.0
 50
0.0
 71
0
 42
2.5
  3
OpenSansCondensed-Bold.ttf
  4

  0
STYLE
  5
4C
330
5
100
AcDbSymbolTableRecord
100
AcDbTextStyleTableRecord
  2
OpenSansCondensed-Light
 70
0
 40
0.0
 41
1.0
 50
0.0
 71
0
 42
2.5
  3
OpenSansCondensed-Light.ttf
  4

  0
STYLE
  5
4D
330
5
100
AcDbSymbolTableRecord
100
AcDbTextStyleTableRecord
  2
OpenSansCondensed-Italic
 70
0
 40
0.0
 41
1.0
 50
0.0
 71
0
 42
2.5
  3
OpenSansCondensed-LightItalic.ttf
  4

  0
STYLE
  5
4E
330
5
100
AcDbSymbolTableRecord
100
AcDbTextStyleTableRecord
  2
LiberationSans
 70
0
 40
0.0
 41
1.0
 50
0.0
 71
0
 42
2.5
  3
LiberationSans-Regular.ttf
  4

  0
STYLE
  5
4F
330
5
100
AcDbSymbolTableRecord
100
AcDbTextStyleTableRecord
  2
LiberationSans-Bold
 70
0
 40
0.0
 41
1.0
 50
0.0
 71
0
 42
2.5
  3
LiberationSans-Bold.ttf
  4

  0
STYLE
  5
50
330
5
100
AcDbSymbolTableRecord
100
AcDbTextStyleTableRecord
  2
LiberationSans-BoldItalic
 70
0
 40
0.0
 41
1.0
 50
0.0
 71
0
 42
2.5
  3
LiberationSans-BoldItalic.ttf
  4

  0
STYLE
  5
51
330
5
100
AcDbSymbolTableRecord
100
AcDbTextStyleTableRecord
  2
LiberationSans-Italic
 70
0
 40
0.0
 41
1.0
 50
0.0
 71
0
 42
2.5
  3
LiberationSans-Italic.ttf
  4

  0
STYLE
  5
52
330
5
100
AcDbSymbolTableRecord
100
AcDbTextStyleTableRecord
  2
LiberationSerif
 70
0
 40
0.0
 41
1.0
 50
0.0
 71
0
 42
2.5
  3
LiberationSerif-Regular.ttf
  4

  0
STYLE
  5
53
330
5
100
AcDbSymbolTableRecord
100
AcDbTextStyleTableRecord
  2
LiberationSerif-Bold
 70
0
 40
0.0
 41
1.0
 50
0.0
 71
0
 42
2.5
  3
LiberationSerif-Bold.ttf
  4

  0
STYLE
  5
54
330
5
100
AcDbSymbolTableRecord
100
AcDbTextStyleTableRecord
  2
LiberationSerif-BoldItalic
 70
0
 40
0.0
 41
1.0
 50
0.0
 71
0
 42
2.5
  3
LiberationSerif-BoldItalic.ttf
  4

  0
STYLE
  5
55
330
5
100
AcDbSymbolTableRecord
100
AcDbTextStyleTableRecord
  2
LiberationSerif-Italic
 70
0
 40
0.0
 41
1.0
 50
0.0
 71
0
 42
2.5
  3
LiberationSerif-Italic.ttf
  4

  0
STYLE
  5
56
330
5
100
AcDbSymbolTableRecord
100
AcDbTextStyleTableRecord
  2
LiberationMono
 70
0
 40
0.0
 41
1.0
 50
0.0
 71
0
 42
2.5
  3
LiberationMono-Regular.ttf
  4

  0
STYLE
  5
57
330
5
100
AcDbSymbolTableRecord
100
AcDbTextStyleTableRecord
  2
LiberationMono-Bold
 70
0
 40
0.0
 41
1.0
 50
0.0
 71
0
 42
2.5
  3
LiberationMono-Bold.ttf
  4

  0
STYLE
  5
58
330
5
100
AcDbSymbolTableRecord
100
AcDbTextStyleTableRecord
  2
LiberationMono-BoldItalic
 70
0
 40
0.0
 41
1.0
 50
0.0
 71
0
 42
2.5
  3
LiberationMono-BoldItalic.ttf
  4

  0
STYLE
  5
59
330
5
100
AcDbSymbolTableRecord
100
AcDbTextStyleTableRecord
  2
LiberationMono-Italic
 70
0
 40
0.0
 41
1.0
 50
0.0
 71
0
 42
2.5
  3
LiberationMono-Italic.ttf
  4

  0
STYLE
  5
93
330
5
100
AcDbSymbolTableRecord
100
AcDbTextStyleTableRecord
  2
CN
 70
0
 40
0.0
 41
1.0
 50
0.0
 71
0
 42
2.5
  3
simhei.ttf
  4

  0
ENDTAB
  0
TABLE
  2
VIEW
  5
7
330
0
100
AcDbSymbolTable
 70
0
  0
ENDTAB
  0
TABLE
  2
UCS
  5
6
330
0
100
AcDbSymbolTable
 70
0
  0
ENDTAB
  0
TABLE
  2
APPID
  5
3
330
0
100
AcDbSymbolTable
 70
3
  0
APPID
  5
2A
330
3
100
AcDbSymbolTableRecord
100
AcDbRegAppTableRecord
  2
ACAD
 70
0
  0
APPID
  5
40B
330
3
100
AcDbSymbolTableRecord
100
AcDbRegAppTableRecord
  2
HATCHBACKGROUNDCOLOR
 70
0
  0
APPID
  5
40C
330
3
100
AcDbSymbolTableRecord
100
AcDbRegAppTableRecord
  2
EZDXF
 70
0
  0
ENDTAB
  0
TABLE
  2
DIMSTYLE
  5
4
330
0
100
AcDbSymbolTable
 70
12
100
AcDbDimStyleTable
  0
DIMSTYLE
105
2B
330
4
100
AcDbSymbolTableRecord
100
AcDbDimStyleTableRecord
  2
Standard
 70
0
 40
1.0
 41
2.5
 42
0.625
 43
3.75
 44
1.25
 45
0.0
 46
0.0
 47
0.0
 48
0.0
 49
2.5
140
2.5
141
2.5
142
0.0
143
0.03937007874
144
1.0
145
0.0
146
1.0
147
0.625
148
0.0
 69
0
 70
0
 71
0
 72
0
 73
0
 74
0
 75
0
 76
0
 77
1
 78
8
 79
3
170
0
171
3
172
1
173
0
174
0
175
0
176
0
177
0
178
0
179
2
271
2
272
2
273
2
274
3
275
0
276
0
277
2
278
44
279
0
280
0
281
0
282
0
283
0
284
8
285
0
286
0
288
0
289
3
290
0
371
-2
372
-2
  0
DIMSTYLE
105
73
330
4
100
AcDbSymbolTableRecord
100
AcDbDimStyleTableRecord
  2
EZDXF
 70
0
 40
1.0
 41
0.175
 42
0.125
 43
3.75
 44
0.375
 45
0.0
 46
0.0
 47
0.0
 48
0.0
 49
2.5
140
0.25
141
2.5
142
0.0
143
0.03937007874
144
100.0
145
0.0
146
0.5
147
0.1
148
0.0
 69
0
 70
0
 71
0
 72
0
 73
0
 74
0
 75
0
 76
0
 77
1
 78
12
 79
3
170
0
171
3
172
1
173
0
174
0
175
0
176
0
177
0
178
0
179
2
271
2
272
2
273
2
274
3
275
0
276
0
277
2
278
46
279
2
280
0
281
0
282
0
283
0
284
8
285
0
286
0
288
1
289
3
290
0
340
4C
342
74
371
-2
372
-2
  0
DIMSTYLE
105
7C
330
4
100
AcDbSymbolTableRecord
100
AcDbDimStyleTableRecord
  2
EZ_M_100_H25_CM
 70
0
 40
1.0
 41
0.25
 42
0.125
 43
3.75
 44
0.375
 45
0.0
 46
0.0
 47
0.0
 48
0.0
 49
2.5
140
0.25
141
2.5
142
0.125
143
0.03937007874
144
100.0
145
0.0
146
0.5
147
0.1
148
0.0
 69
0
 70
0
 71
0
 72
0
 73
0
 74
0
 75
0
 76
0
 77
1
 78
12
 79
3
170
0
171
3
172
1
173
0
174
0
175
0
176
0
177
0
178
0
179
2
271
2
272
2
273
2
274
3
275
0
276
0
277
2
278
46
279
2
280
0
281
0
282
0
283
0
284
8
285
0
286
0
288
1
289
3
290
0
340
4C
371
-2
372
-2
  0
DIMSTYLE
105
7D
330
4
100
AcDbSymbolTableRecord
100
AcDbDimStyleTableRecord
  2
EZ_M_50_H25_CM
 70
0
 40
1.0
 41
0.125
 42
0.0625
 43
3.75
 44
0.1875
 45
0.0
 46
0.0
 47
0.0
 48
0.0
 49
2.5
140
0.125
141
2.5
142
0.0625
143
0.03937007874
144
100.0
145
0.0
146
0.5
147
0.05
148
0.0
 69
0
 70
0
 71
0
 72
0
 73
0
 74
0
 75
0
 76
0
 77
1
 78
12
 79
3
170
0
171
3
172
1
173
0
174
0
175
0
176
0
177
0
178
0
179
2
271
2
272
2
273
2
274
3
275
0
276
0
277
2
278
46
279
2
280
0
281
0
282
0
283
0
284
8
285
0
286
0
288
1
289
3
290
0
340
4C
371
-2
372
-2
  0
DIMSTYLE
105
7E
330
4
100
AcDbSymbolTableRecord
100
AcDbDimStyleTableRecord
  2
EZ_M_25_H25_CM
 70
0
 40
1.0
 41
0.0625
 42
0.03125
 43
3.75
 44
0.09375
 45
0.0
 46
0.0
 47
0.0
 48
0.0
 49
2.5
140
0.0625
141
2.5
142
0.03125
143
0.03937007874
144
100.0
145
0.0
146
0.5
147
0.025
148
0.0
 69
0
 70
0
 71
0
 72
0
 73
0
 74
0
 75
0
 76
0
 77
1
 78
12
 79
3
170
0
171
3
172
1
173
0
174
0
175
0
176
0
177
0
178
0
179
2
271
2
272
2
273
2
274
3
275
0
276
0
277
2
278
46
279
2
280
0
281
0
282
0
283
0
284
8
285
0
286
0
288
1
289
3
290
0
340
4C
371
-2
372
-2
  0
DIMSTYLE
105
7F
330
4
100
AcDbSymbolTableRecord
100
AcDbDimStyleTableRecord
  2
EZ_M_20_H25_CM
 70
0
 40
1.0
 41
0.05
 42
0.025
 43
3.75
 44
0.07500000000000001
 45
0.0
 46
0.0
 47
0.0
 48
0.0
 49
2.5
140
0.05
141
2.5
142
0.025
143
0.03937007874
144
100.0
145
0.0
146
0.5
147
0.020000000000000004
148
0.0
 69
0
 70
0
 71
0
 72
0
 73
0
 74
0
 75
0
 76
0
 77
1
 78
12
 79
3
170
0
171
3
172
1
173
0
174
0
175
0
176
0
177
0
178
0
179
2
271
2
272
2
273
2
274
3
275
0
276
0
277
2
278
46
279
2
280
0
281
0
282
0
283
0
284
8
285
0
286
0
288
1
289
3
290
0
340
4C
371
-2
372
-2
  0
DIMSTYLE
105
80
330
4
100
AcDbSymbolTableRecord
100
AcDbDimStyleTableRecord
  2
EZ_M_10_H25_CM
 70
0
 40
1.0
 41
0.025
 42
0.0125
 43
3.75
 44
0.037500000000000006
 45
0.0
 46
0.0
 47
0.0
 48
0.0
 49
2.5
140
0.025
141
2.5
142
0.0125
143
0.03937007874
144
100.0
145
0.0
146
0.5
147
0.010000000000000002
148
0.0
 69
0
 70
0
 71
0
 72
0
 73
0
 74
0
 75
0
 76
0
 77
1
 78
12
 79
3
170
0
171
3
172
1
173
0
174
0
175
0
176
0
177
0
178
0
179
2
271
2
272
2
273
2
274
3
275
0
276
0
277
2
278
46
279
2
280
0
281
0
282
0
283
0
284
8
285
0
286
0
288
1
289
3
290
0
340
4C
371
-2
372
-2
  0
DIMSTYLE
105
81
330
4
100
AcDbSymbolTableRecord
100
AcDbDimStyleTableRecord
  2
EZ_M_5_H25_CM
 70
0
 40
1.0
 41
0.0125
 42
0.00625
 43
3.75
 44
0.018750000000000003
 45
0.0
 46
0.0
 47
0.0
 48
0.0
 49
2.5
140
0.0125
141
2.5
142
0.00625
143
0.03937007874
144
100.0
145
0.0
146
0.5
147
0.005000000000000001
148
0.0
 69
0
 70
0
 71
0
 72
0
 73
0
 74
0
 75
0
 76
0
 77
1
 78
12
 79
3
170
0
171
3
172
1
173
0
174
0
175
0
176
0
177
0
178
0
179
2
271
2
272
2
273
2
274
3
275
0
276
0
277
2
278
46
279
2
280
0
281
0
282
0
283
0
284
8
285
0
286
0
288
1
289
3
290
0
340
4C
371
-2
372
-2
  0
DIMSTYLE
105
82
330
4
100
AcDbSymbolTableRecord
100
AcDbDimStyleTableRecord
  2
EZ_M_1_H25_CM
 70
0
 40
1.0
 41
0.0025
 42
0.00125
 43
3.75
 44
0.00375
 45
0.0
 46
0.0
 47
0.0
 48
0.0
 49
2.5
140
0.0025
141
2.5
142
0.00125
143
0.03937007874
144
100.0
145
0.0
146
0.5
147
0.001
148
0.0
 69
0
 70
0
 71
0
 72
0
 73
0
 74
0
 75
0
 76
0
 77
1
 78
12
 79
3
170
0
171
3
172
1
173
0
174
0
175
0
176
0
177
0
178
0
179
2
271
2
272
2
273
2
274
3
275
0
276
0
277
2
278
46
279
2
280
0
281
0
282
0
283
0
284
8
285
0
286
0
288
1
289
3
290
0
340
4C
371
-2
372
-2
  0
DIMSTYLE
105
83
330
4
100
AcDbSymbolTableRecord
100
AcDbDimStyleTableRecord
  2
EZ_RADIUS
 70
0
 40
1.0
 41
0.25
 42
0.125
 43
3.75
 44
0.375
 45
0.0
 46
0.0
 47
0.0
 48
0.0
 49
2.5
140
0.25
141
0.0
142
0.0
143
0.03937007874
144
100.0
145
0.0
146
0.5
147
0.1
148
0.0
 69
0
 70
0
 71
0
 72
0
 73
0
 74
0
 75
0
 76
0
 77
1
 78
12
 79
3
170
0
171
3
172
0
173
0
174
0
175
0
176
0
177
0
178
0
179
2
271
2
272
2
273
2
274
3
275
0
276
0
277
2
278
46
279
1
280
0
281
0
282
0
283
0
284
8
285
0
286
0
288
1
289
3
290
0
340
4C
342
84
371
-2
372
-2
  0
DIMSTYLE
105
88
330
4
100
AcDbSymbolTableRecord
100
AcDbDimStyleTableRecord
  2
EZ_RADIUS_INSIDE
 70
0
 40
1.0
 41
0.25
 42
0.125
 43
3.75
 44
0.375
 45
0.0
 46
0.0
 47
0.0
 48
0.0
 49
2.5
140
0.25
141
0.0
142
0.0
143
0.03937007874
144
100.0
145
0.0
146
0.5
147
0.1
148
0.0
 69
0
 70
0
 71
0
 72
0
 73
0
 74
0
 75
0
 76
0
 77
0
 78
12
 79
3
170
0
171
3
172
0
173
0
174
1
175
0
176
0
177
0
178
0
179
2
271
2
272
2
273
2
274
3
275
0
276
0
277
2
278
46
279
0
280
0
281
0
282
0
283
0
284
8
285
0
286
0
288
1
289
0
290
0
340
4C
342
84
371
-2
372
-2
  0
DIMSTYLE
105
89
330
4
100
AcDbSymbolTableRecord
100
AcDbDimStyleTableRecord
  2
EZ_CURVED
 70
0
 40
1.0
 41
0.25
 42
0.125
 43
3.75
 44
0.375
 45
0.0
 46
0.0
 47
0.0
 48
0.0
 49
2.5
140
0.25
141
2.5
142
0.0
143
0.03937007874
144
100.0
145
0.0
146
0.5
147
0.1
148
0.0
 69
0
 70
0
 71
0
 72
0
 73
0
 74
0
 75
0
 76
0
 77
1
 78
12
 79
2
 90
2
170
0
171
3
172
1
173
0
174
0
175
0
176
0
177
0
178
0
179
2
271
2
272
2
273
2
274
3
275
0
276
0
277
2
278
46
279
2
280
0
281
0
282
0
283
0
284
8
285
0
286
0
288
1
289
3
290
0
340
4C
371
-2
372
-2
  0
ENDTAB
  0
TABLE
  2
BLOCK_RECORD
  5
9
330
0
100
AcDbSymbolTable
 70
5
  0
BLOCK_RECORD
  5
17
330
9
100
AcDbSymbolTableRecord
100
AcDbBlockTableRecord
  2
*Model_Space
340
1A
 70
0
280
1
281
0
  0
BLOCK_RECORD
  5
1B
330
9
100
AcDbSymbolTableRecord
100
AcDbBlockTableRecord
  2
*Paper_Space
340
1E
 70
0
280
1
281
0
  0
BLOCK_RECORD
  5
74
330
9
100
AcDbSymbolTableRecord
100
AcDbBlockTableRecord
  2
_ARCHTICK
340
0
 70
0
280
1
281
0
  0
BLOCK_RECORD
  5
78
330
9
100
AcDbSymbolTableRecord
100
AcDbBlockTableRecord
  2
_CLOSEDFILLED
340
0
 70
0
280
1
281
0
  0
BLOCK_RECORD
  5
84
330
9
100
AcDbSymbolTableRecord
100
AcDbBlockTableRecord
  2
_CLOSEDBLANK
340
0
 70
0
280
1
281
0
  0
ENDTAB
  0
ENDSEC
  0
SECTION
  2
BLOCKS
  0
BLOCK
  5
18
330
17
100
AcDbEntity
  8
0
100
AcDbBlockBegin
  2
*Model_Space
 70
0
 10
0.0
 20
0.0
 30
0.0
  3
*Model_Space
  1

  0
ENDBLK
  5
19
330
17
100
AcDbEntity
  8
0
100
AcDbBlockEnd
  0
BLOCK
  5
1C
330
1B
100
AcDbEntity
  8
0
100
AcDbBlockBegin
  2
*Paper_Space
 70
0
 10
0.0
 20
0.0
 30
0.0
  3
*Paper_Space
  1

  0
ENDBLK
  5
1D
330
1B
100
AcDbEntity
  8
0
100
AcDbBlockEnd
  0
BLOCK
  5
75
330
74
100
AcDbEntity
  8
0
100
AcDbBlockBegin
  2
_ARCHTICK
 70
0
 10
0.0
 20
0.0
 30
0.0
  3
_ARCHTICK
  1

  0
LWPOLYLINE
  5
77
330
74
100
AcDbEntity
  8
0
  6
BYBLOCK
 62
0
100
AcDbPolyline
 90
2
 70
0
 43
0.15
 10
-0.5
 20
-0.5
 10
0.5
 20
0.5
  0
ENDBLK
  5
76
330
74
100
AcDbEntity
  8
0
100
AcDbBlockEnd
  0
BLOCK
  5
79
330
78
100
AcDbEntity
  8
0
100
AcDbBlockBegin
  2
_CLOSEDFILLED
 70
0
 10
0.0
 20
0.0
 30
0.0
  3
_CLOSEDFILLED
  1

  0
SOLID
  5
7B
330
78
100
AcDbEntity
  8
0
  6
BYBLOCK
 62
0
100
AcDbTrace
 10
-1.0
 20
0.16439898372402537
 30
0.0
 11
0.0
 21
0.0
 31
0.0
 12
-1.0
 22
-0.16439898372402537
 32
0.0
 13
-1.0
 23
-0.16439898372402537
 33
0.0
  0
ENDBLK
  5
7A
330
78
100
AcDbEntity
  8
0
100
AcDbBlockEnd
  0
BLOCK
  5
85
330
84
100
AcDbEntity
  8
0
100
AcDbBlockBegin
  2
_CLOSEDBLANK
 70
0
 10
0.0
 20
0.0
 30
0.0
  3
_CLOSEDBLANK
  1

  0
LWPOLYLINE
  5
87
330
84
100
AcDbEntity
  8
0
  6
BYBLOCK
 62
0
100
AcDbPolyline
 90
3
 70
1
 10
-1.0
 20
0.16439898372402537
 10
0.0
 20
0.0
 10
-1.0
 20
-0.16439898372402537
  0
ENDBLK
  5
86
330
84
100
AcDbEntity
  8
0
100
AcDbBlockEnd
  0
ENDSEC
  0
SECTION
  2
ENTITIES
  0
LINE
  5
94
330
17
100
AcDbEntity
  8
图框
  6
Continuous
370
50
100
AcDbLine
 10
0.0
 20
0.0
 30
0.0
 11
420.0
 21
0.0
 31
0.0
  0
LINE
  5
95
330
17
100
AcDbEntity
  8
图框
  6
Continuous
370
50
100
AcDbLine
 10
420.0
 20
0.0
 30
0.0
 11
420.0
 21
297.0
 31
0.0
  0
LINE
  5
96
330
17
100
AcDbEntity
  8
图框
  6
Continuous
370
50
100
AcDbLine
 10
420.0
 20
297.0
 30
0.0
 11
0.0
 21
297.0
 31
0.0
  0
LINE
  5
97
330
17
100
AcDbEntity
  8
图框
  6
Continuous
370
50
100
AcDbLine
 10
0.0
 20
297.0
 30
0.0
 11
0.0
 21
0.0
 31
0.0
  0
LINE
  5
98
330
17
100
AcDbEntity
  8
图框
  6
Continuous
370
18
100
AcDbLine
 10
10.0
 20
10.0
 30
0.0
 11
410.0
 21
10.0
 31
0.0
  0
LINE
  5
99
330
17
100
AcDbEntity
  8
图框
  6
Continuous
370
18
100
AcDbLine
 10
410.0
 20
10.0
 30
0.0
 11
410.0
 21
287.0
 31
0.0
  0
LINE
  5
9A
330
17
100
AcDbEntity
  8
图框
  6
Continuous
370
18
100
AcDbLine
 10
410.0
 20
287.0
 30
0.0
 11
10.0
 21
287.0
 31
0.0
  0
LINE
  5
9B
330
17
100
AcDbEntity
  8
图框
  6
Continuous
370
18
100
AcDbLine
 10
10.0
 20
287.0
 30
0.0
 11
10.0
 21
10.0
 31
0.0
  0
LINE
  5
9C
330
17
100
AcDbEntity
  8
图框
  6
Continuous
370
50
100
AcDbLine
 10
230.0
 20
10.0
 30
0.0
 11
410.0
 21
10.0
 31
0.0
  0
LINE
  5
9D
330
17
100
AcDbEntity
  8
图框
  6
Continuous
370
50
100
AcDbLine
 10
410.0
 20
10.0
 30
0.0
 11
410.0
 21
66.0
 31
0.0
  0
LINE
  5
9E
330
17
100
AcDbEntity
  8
图框
  6
Continuous
370
50
100
AcDbLine
 10
410.0
 20
66.0
 30
0.0
 11
230.0
 21
66.0
 31
0.0
  0
LINE
  5
9F
330
17
100
AcDbEntity
  8
图框
  6
Continuous
370
50
100
AcDbLine
 10
230.0
 20
66.0
 30
0.0
 11
230.0
 21
10.0
 31
0.0
  0
LINE
  5
A0
330
17
100
AcDbEntity
  8
图框
  6
Continuous
370
18
100
AcDbLine
 10
230.0
 20
26.0
 30
0.0
 11
410.0
 21
26.0
 31
0.0
  0
LINE
  5
A1
330
17
100
AcDbEntity
  8
图框
  6
Continuous
370
18
100
AcDbLine
 10
230.0
 20
38.0
 30
0.0
 11
410.0
 21
38.0
 31
0.0
  0
LINE
  5
A2
330
17
100
AcDbEntity
  8
图框
  6
Continuous
370
18
100
AcDbLine
 10
230.0
 20
50.0
 30
0.0
 11
410.0
 21
50.0
 31
0.0
  0
LINE
  5
A3
330
17
100
AcDbEntity
  8
图框
  6
Continuous
370
18
100
AcDbLine
 10
230.0
 20
66.0
 30
0.0
 11
410.0
 21
66.0
 31
0.0
  0
LINE
  5
A4
330
17
100
AcDbEntity
  8
图框
  6
Continuous
370
18
100
AcDbLine
 10
280.0
 20
10.0
 30
0.0
 11
280.0
 21
66.0
 31
0.0
  0
LINE
  5
A5
330
17
100
AcDbEntity
  8
图框
  6
Continuous
370
18
100
AcDbLine
 10
350.0
 20
10.0
 30
0.0
 11
350.0
 21
66.0
 31
0.0
  0
LINE
  5
A6
330
17
100
AcDbEntity
  8
图框
  6
Continuous
370
18
100
AcDbLine
 10
380.0
 20
10.0
 30
0.0
 11
380.0
 21
66.0
 31
0.0
  0
TEXT
  5
A7
330
17
100
AcDbEntity
  8
文字
100
AcDbText
 10
255.0
 20
58.0
 30
0.0
 40
3.5
  1
生产加工图
  7
CN
 72
1
 11
255.0
 21
58.0
 31
0.0
100
AcDbText
 73
2
  0
TEXT
  5
A8
330
17
100
AcDbEntity
  8
文字
100
AcDbText
 10
315.0
 20
58.0
 30
0.0
 40
4.0
  1
法兰对夹孔板 总装配图
  7
CN
 72
1
 11
315.0
 21
58.0
 31
0.0
100
AcDbText
 73
2
  0
TEXT
  5
A9
330
17
100
AcDbEntity
  8
文字
100
AcDbText
 10
365.0
 20
58.0
 30
0.0
 40
2.6
  1
材料F304/F304L
  7
CN
 72
1
 11
365.0
 21
58.0
 31
0.0
100
AcDbText
 73
2
  0
TEXT
  5
AA
330
17
100
AcDbEntity
  8
文字
100
AcDbText
 10
395.0
 20
58.0
 30
0.0
 40
2.8
  1
比例 1:2.5
  7
CN
 72
1
 11
395.0
 21
58.0
 31
0.0
100
AcDbText
 73
2
  0
TEXT
  5
AB
330
17
100
AcDbEntity
  8
文字
100
AcDbText
 10
255.0
 20
38.0
 30
0.0
 40
3.0
  1
位号 FE-1002
  7
CN
 72
1
 11
255.0
 21
38.0
 31
0.0
100
AcDbText
 73
2
  0
TEXT
  5
AC
330
17
100
AcDbEntity
  8
文字
100
AcDbText
 10
315.0
 20
38.0
 30
0.0
 40
3.0
  1
图号 FE-1002-00-A
  7
CN
 72
1
 11
315.0
 21
38.0
 31
0.0
100
AcDbText
 73
2
  0
TEXT
  5
AD
330
17
100
AcDbEntity
  8
文字
100
AcDbText
 10
365.0
 20
38.0
 30
0.0
 40
2.6
  1
共4张
  7
CN
 72
1
 11
365.0
 21
38.0
 31
0.0
100
AcDbText
 73
2
  0
TEXT
  5
AE
330
17
100
AcDbEntity
  8
文字
100
AcDbText
 10
395.0
 20
38.0
 30
0.0
 40
2.6
  1
第1张
  7
CN
 72
1
 11
395.0
 21
38.0
 31
0.0
100
AcDbText
 73
2
  0
TEXT
  5
AF
330
17
100
AcDbEntity
  8
文字
100
AcDbText
 10
255.0
 20
26.0
 30
0.0
 40
2.6
  1
出厂号 26031402
  7
CN
 72
1
 11
255.0
 21
26.0
 31
0.0
100
AcDbText
 73
2
  0
TEXT
  5
B0
330
17
100
AcDbEntity
  8
文字
100
AcDbText
 10
315.0
 20
26.0
 30
0.0
 40
2.6
  1
型号 ROH10×JX25N2
  7
CN
 72
1
 11
315.0
 21
26.0
 31
0.0
100
AcDbText
 73
2
  0
TEXT
  5
B1
330
17
100
AcDbEntity
  8
文字
100
AcDbText
 10
365.0
 20
26.0
 30
0.0
 40
2.6
  1
单位 mm
  7
CN
 72
1
 11
365.0
 21
26.0
 31
0.0
100
AcDbText
 73
2
  0
TEXT
  5
B2
330
17
100
AcDbEntity
  8
文字
100
AcDbText
 10
395.0
 20
26.0
 30
0.0
 40
2.4
  1
R2013
  7
CN
 72
1
 11
395.0
 21
26.0
 31
0.0
100
AcDbText
 73
2
  0
TEXT
  5
B3
330
17
100
AcDbEntity
  8
文字
100
AcDbText
 10
242.0
 20
16.0
 30
0.0
 40
2.4
  1
设计
  7
CN
 72
1
 11
242.0
 21
16.0
 31
0.0
100
AcDbText
 73
2
  0
TEXT
  5
B4
330
17
100
AcDbEntity
  8
文字
100
AcDbText
 10
270.0
 20
16.0
 30
0.0
 40
2.4
  1
校核
  7
CN
 72
1
 11
270.0
 21
16.0
 31
0.0
100
AcDbText
 73
2
  0
TEXT
  5
B5
330
17
100
AcDbEntity
  8
文字
100
AcDbText
 10
300.0
 20
16.0
 30
0.0
 40
2.4
  1
审核
  7
CN
 72
1
 11
300.0
 21
16.0
 31
0.0
100
AcDbText
 73
2
  0
TEXT
  5
B6
330
17
100
AcDbEntity
  8
文字
100
AcDbText
 10
360.0
 20
16.0
 30
0.0
 40
2.6
  1
DN250 PN25 HG/T20592 RF 法兰取压
  7
CN
 72
1
 11
360.0
 21
16.0
 31
0.0
100
AcDbText
 73
2
  0
TEXT
  5
B7
330
17
100
AcDbEntity
  8
文字
100
AcDbText
 10
14.0
 20
279.0
 30
0.0
 40
5.0
  1
FE-1002  法兰对夹孔板 总装配图
  7
CN
 11
14.0
 21
279.0
 31
0.0
100
AcDbText
  0
LINE
  5
B8
330
17
100
AcDbEntity
  8
中心线
  6
CENTER
370
18
100
AcDbLine
 10
22.0
 20
95.0
 30
0.0
 11
208.4
 21
95.0
 31
0.0
  0
LINE
  5
B9
330
17
100
AcDbEntity
  8
轮廓
  6
Continuous
370
50
100
AcDbLine
 10
30.0
 20
149.6
 30
0.0
 11
78.0
 21
149.6
 31
0.0
  0
LINE
  5
BA
330
17
100
AcDbEntity
  8
轮廓
  6
Continuous
370
50
100
AcDbLine
 10
30.0
 20
40.4
 30
0.0
 11
78.0
 21
40.4
 31
0.0
  0
LINE
  5
BB
330
17
100
AcDbEntity
  8
虚线
  6
DASHED
370
18
100
AcDbLine
 10
30.0
 20
148.0
 30
0.0
 11
78.0
 21
148.0
 31
0.0
  0
LINE
  5
BC
330
17
100
AcDbEntity
  8
虚线
  6
DASHED
370
18
100
AcDbLine
 10
30.0
 20
42.0
 30
0.0
 11
78.0
 21
42.0
 31
0.0
  0
LINE
  5
BD
330
17
100
AcDbEntity
  8
轮廓
  6
Continuous
370
50
100
AcDbLine
 10
152.4
 20
149.6
 30
0.0
 11
200.4
 21
149.6
 31
0.0
  0
LINE
  5
BE
330
17
100
AcDbEntity
  8
轮廓
  6
Continuous
370
50
100
AcDbLine
 10
152.4
 20
40.4
 30
0.0
 11
200.4
 21
40.4
 31
0.0
  0
LINE
  5
BF
330
17
100
AcDbEntity
  8
虚线
  6
DASHED
370
18
100
AcDbLine
 10
152.4
 20
148.0
 30
0.0
 11
200.4
 21
148.0
 31
0.0
  0
LINE
  5
C0
330
17
100
AcDbEntity
  8
虚线
  6
DASHED
370
18
100
AcDbLine
 10
152.4
 20
42.0
 30
0.0
 11
200.4
 21
42.0
 31
0.0
  0
LINE
  5
C1
330
17
100
AcDbEntity
  8
轮廓
  6
Continuous
370
50
100
AcDbLine
 10
100.4
 20
180.0
 30
0.0
 11
113.2
 21
180.0
 31
0.0
  0
LINE
  5
C2
330
17
100
AcDbEntity
  8
轮廓
  6
Continuous
370
50
100
AcDbLine
 10
113.2
 20
180.0
 30
0.0
 11
113.2
 21
10.0
 31
0.0
  0
LINE
  5
C3
330
17
100
AcDbEntity
  8
轮廓
  6
Continuous
370
50
100
AcDbLine
 10
113.2
 20
10.0
 30
0.0
 11
100.4
 21
10.0
 31
0.0
  0
LINE
  5
C4
330
17
100
AcDbEntity
  8
轮廓
  6
Continuous
370
50
100
AcDbLine
 10
100.4
 20
10.0
 30
0.0
 11
100.4
 21
180.0
 31
0.0
  0
LINE
  5
C5
330
17
100
AcDbEntity
  8
细实线
  6
Continuous
370
18
100
AcDbLine
 10
100.4
 20
148.0
 30
0.0
 11
113.2
 21
148.0
 31
0.0
  0
LINE
  5
C6
330
17
100
AcDbEntity
  8
细实线
  6
Continuous
370
18
100
AcDbLine
 10
100.4
 20
42.0
 30
0.0
 11
113.2
 21
42.0
 31
0.0
  0
LINE
  5
C7
330
17
100
AcDbEntity
  8
细实线
  6
Continuous
370
18
100
AcDbLine
 10
112.4
 20
162.0
 30
0.0
 11
113.2
 21
162.0
 31
0.0
  0
LINE
  5
C8
330
17
100
AcDbEntity
  8
细实线
  6
Continuous
370
18
100
AcDbLine
 10
112.4
 20
28.0
 30
0.0
 11
113.2
 21
28.0
 31
0.0
  0
LINE
  5
C9
330
17
100
AcDbEntity
  8
轮廓
  6
Continuous
370
50
100
AcDbLine
 10
78.0
 20
154.6
 30
0.0
 11
100.4
 21
154.6
 31
0.0
  0
LINE
  5
CA
330
17
100
AcDbEntity
  8
轮廓
  6
Continuous
370
50
100
AcDbLine
 10
78.0
 20
35.4
 30
0.0
 11
100.4
 21
35.4
 31
0.0
  0
LINE
  5
CB
330
17
100
AcDbEntity
  8
虚线
  6
DASHED
370
18
100
AcDbLine
 10
78.0
 20
148.0
 30
0.0
 11
100.4
 21
148.0
 31
0.0
  0
LINE
  5
CC
330
17
100
AcDbEntity
  8
虚线
  6
DASHED
370
18
100
AcDbLine
 10
78.0
 20
42.0
 30
0.0
 11
100.4
 21
42.0
 31
0.0
  0
CIRCLE
  5
CD
330
17
100
AcDbEntity
  8
细实线
  6
Continuous
370
18
100
AcDbCircle
 10
106.80000000000001
 20
161.60000000000002
 30
0.0
 40
14.0
  0
CIRCLE
  5
CE
330
17
100
AcDbEntity
  8
虚线
  6
DASHED
370
18
100
AcDbCircle
 10
106.80000000000001
 20
28.39999999999999
 30
0.0
 40
3.5
  0
LINE
  5
CF
330
17
100
AcDbEntity
  8
剖面线
  6
Continuous
370
13
100
AcDbLine
 10
106.83603896932111
 20
10.000000000000014
 30
0.0
 11
113.2
 21
16.363961030678908
 31
0.0
  0
LINE
  5
D0
330
17
100
AcDbEntity
  8
剖面线
  6
Continuous
370
13
100
AcDbLine
 10
100.47207793864216
 20
9.999999999999986
 30
0.0
 11
113.2
 21
22.72792206135783
 31
0.0
  0
LINE
  5
D1
330
17
100
AcDbEntity
  8
剖面线
  6
Continuous
370
13
100
AcDbLine
 10
100.4
 20
16.291883092036784
 30
0.0
 11
113.19999999999999
 21
29.091883092036767
 31
0.0
  0
LINE
  5
D2
330
17
100
AcDbEntity
  8
剖面线
  6
Continuous
370
13
100
AcDbLine
 10
100.4
 20
22.655844122715706
 30
0.0
 11
113.19999999999999
 21
35.45584412271569
 31
0.0
  0
LINE
  5
D3
330
17
100
AcDbEntity
  8
剖面线
  6
Continuous
370
13
100
AcDbLine
 10
100.4
 20
29.01980515339463
 30
0.0
 11
113.20000000000002
 21
41.81980515339464
 31
0.0
  0
LINE
  5
D4
330
17
100
AcDbEntity
  8
剖面线
  6
Continuous
370
13
100
AcDbLine
 10
100.4
 20
35.38376618407355
 30
0.0
 11
107.01623381592646
 21
42.0
 31
0.0
  0
LINE
  5
D5
330
17
100
AcDbEntity
  8
剖面线
  6
Continuous
370
13
100
AcDbLine
 10
100.4
 20
41.74772721475247
 30
0.0
 11
100.65227278524753
 21
42.0
 31
0.0
  0
LINE
  5
D6
330
17
100
AcDbEntity
  8
轮廓
  6
Continuous
370
50
100
AcDbLine
 10
117.2
 20
180.0
 30
0.0
 11
130.0
 21
180.0
 31
0.0
  0
LINE
  5
D7
330
17
100
AcDbEntity
  8
轮廓
  6
Continuous
370
50
100
AcDbLine
 10
130.0
 20
180.0
 30
0.0
 11
130.0
 21
10.0
 31
0.0
  0
LINE
  5
D8
330
17
100
AcDbEntity
  8
轮廓
  6
Continuous
370
50
100
AcDbLine
 10
130.0
 20
10.0
 30
0.0
 11
117.2
 21
10.0
 31
0.0
  0
LINE
  5
D9
330
17
100
AcDbEntity
  8
轮廓
  6
Continuous
370
50
100
AcDbLine
 10
117.2
 20
10.0
 30
0.0
 11
117.2
 21
180.0
 31
0.0
  0
LINE
  5
DA
330
17
100
AcDbEntity
  8
细实线
  6
Continuous
370
18
100
AcDbLine
 10
117.2
 20
148.0
 30
0.0
 11
130.0
 21
148.0
 31
0.0
  0
LINE
  5
DB
330
17
100
AcDbEntity
  8
细实线
  6
Continuous
370
18
100
AcDbLine
 10
117.2
 20
42.0
 30
0.0
 11
130.0
 21
42.0
 31
0.0
  0
LINE
  5
DC
330
17
100
AcDbEntity
  8
细实线
  6
Continuous
370
18
100
AcDbLine
 10
117.2
 20
162.0
 30
0.0
 11
118.0
 21
162.0
 31
0.0
  0
LINE
  5
DD
330
17
100
AcDbEntity
  8
细实线
  6
Continuous
370
18
100
AcDbLine
 10
117.2
 20
28.0
 30
0.0
 11
118.0
 21
28.0
 31
0.0
  0
LINE
  5
DE
330
17
100
AcDbEntity
  8
轮廓
  6
Continuous
370
50
100
AcDbLine
 10
130.0
 20
154.6
 30
0.0
 11
152.4
 21
154.6
 31
0.0
  0
LINE
  5
DF
330
17
100
AcDbEntity
  8
轮廓
  6
Continuous
370
50
100
AcDbLine
 10
130.0
 20
35.4
 30
0.0
 11
152.4
 21
35.4
 31
0.0
  0
LINE
  5
E0
330
17
100
AcDbEntity
  8
虚线
  6
DASHED
370
18
100
AcDbLine
 10
130.0
 20
148.0
 30
0.0
 11
152.4
 21
148.0
 31
0.0
  0
LINE
  5
E1
330
17
100
AcDbEntity
  8
虚线
  6
DASHED
370
18
100
AcDbLine
 10
130.0
 20
42.0
 30
0.0
 11
152.4
 21
42.0
 31
0.0
  0
CIRCLE
  5
E2
330
17
100
AcDbEntity
  8
细实线
  6
Continuous
370
18
100
AcDbCircle
 10
123.60000000000001
 20
161.60000000000002
 30
0.0
 40
14.0
  0
CIRCLE
  5
E3
330
17
100
AcDbEntity
  8
虚线
  6
DASHED
370
18
100
AcDbCircle
 10
123.60000000000001
 20
28.39999999999999
 30
0.0
 40
3.5
  0
LINE
  5
E4
330
17
100
AcDbEntity
  8
剖面线
  6
Continuous
370
13
100
AcDbLine
 10
130.0
 20
10.0
 30
0.0
 11
130.0
 21
10.0
 31
0.0
  0
LINE
  5
E5
330
17
100
AcDbEntity
  8
剖面线
  6
Continuous
370
13
100
AcDbLine
 10
123.63603896932108
 20
10.0
 30
0.0
 11
130.0
 21
16.363961030678922
 31
0.0
  0
LINE
  5
E6
330
17
100
AcDbEntity
  8
剖面线
  6
Continuous
370
13
100
AcDbLine
 10
117.27207793864216
 20
10.0
 30
0.0
 11
130.0
 21
22.727922061357845
 31
0.0
  0
LINE
  5
E7
330
17
100
AcDbEntity
  8
剖面线
  6
Continuous
370
13
100
AcDbLine
 10
117.19999999999999
 20
16.291883092036755
 30
0.0
 11
129.42260094890543
 21
28.514484040942193
 31
0.0
  0
LINE
  5
E8
330
17
100
AcDbEntity
  8
剖面线
  6
Continuous
370
13
100
AcDbLine
 10
117.20000000000002
 20
22.655844122715706
 30
0.0
 11
126.24062043356597
 21
31.696464556281654
 31
0.0
  0
LINE
  5
E9
330
17
100
AcDbEntity
  8
剖面线
  6
Continuous
370
13
100
AcDbLine
 10
117.20000000000002
 20
29.01980515339463
 30
0.0
 11
123.0586399182265
 21
34.878445071621115
 31
0.0
  0
LINE
  5
EA
330
17
100
AcDbEntity
  8
剖面线
  6
Continuous
370
13
100
AcDbLine
 10
117.2
 20
35.383766184073565
 30
0.0
 11
119.87665940288703
 21
38.06042558696059
 31
0.0
  0
LINE
  5
EB
330
17
100
AcDbEntity
  8
细实线
  6
Continuous
370
18
100
AcDbLine
 10
113.2
 20
28.0
 30
0.0
 11
114.0
 21
28.0
 31
0.0
  0
LINE
  5
EC
330
17
100
AcDbEntity
  8
细实线
  6
Continuous
370
18
100
AcDbLine
 10
114.0
 20
28.0
 30
0.0
 11
114.0
 21
162.0
 31
0.0
  0
LINE
  5
ED
330
17
100
AcDbEntity
  8
细实线
  6
Continuous
370
18
100
AcDbLine
 10
114.0
 20
162.0
 30
0.0
 11
113.2
 21
162.0
 31
0.0
  0
LINE
  5
EE
330
17
100
AcDbEntity
  8
细实线
  6
Continuous
370
18
100
AcDbLine
 10
113.2
 20
162.0
 30
0.0
 11
113.2
 21
28.0
 31
0.0
  0
LINE
  5
EF
330
17
100
AcDbEntity
  8
细实线
  6
Continuous
370
18
100
AcDbLine
 10
116.4
 20
28.0
 30
0.0
 11
117.2
 21
28.0
 31
0.0
  0
LINE
  5
F0
330
17
100
AcDbEntity
  8
细实线
  6
Continuous
370
18
100
AcDbLine
 10
117.2
 20
28.0
 30
0.0
 11
117.2
 21
162.0
 31
0.0
  0
LINE
  5
F1
330
17
100
AcDbEntity
  8
细实线
  6
Continuous
370
18
100
AcDbLine
 10
117.2
 20
162.0
 30
0.0
 11
116.4
 21
162.0
 31
0.0
  0
LINE
  5
F2
330
17
100
AcDbEntity
  8
细实线
  6
Continuous
370
18
100
AcDbLine
 10
116.4
 20
162.0
 30
0.0
 11
116.4
 21
28.0
 31
0.0
  0
LINE
  5
F3
330
17
100
AcDbEntity
  8
轮廓
  6
Continuous
370
50
100
AcDbLine
 10
114.0
 20
31.0
 30
0.0
 11
116.4
 21
31.0
 31
0.0
  0
LINE
  5
F4
330
17
100
AcDbEntity
  8
轮廓
  6
Continuous
370
50
100
AcDbLine
 10
116.4
 20
31.0
 30
0.0
 11
116.4
 21
159.0
 31
0.0
  0
LINE
  5
F5
330
17
100
AcDbEntity
  8
轮廓
  6
Continuous
370
50
100
AcDbLine
 10
116.4
 20
159.0
 30
0.0
 11
114.0
 21
159.0
 31
0.0
  0
LINE
  5
F6
330
17
100
AcDbEntity
  8
轮廓
  6
Continuous
370
50
100
AcDbLine
 10
114.0
 20
159.0
 30
0.0
 11
114.0
 21
31.0
 31
0.0
  0
LINE
  5
F7
330
17
100
AcDbEntity
  8
剖面线
  6
Continuous
370
13
100
AcDbLine
 10
116.4
 20
31.0
 30
0.0
 11
116.4
 21
31.0
 31
0.0
  0
LINE
  5
F8
330
17
100
AcDbEntity
  8
剖面线
  6
Continuous
370
13
100
AcDbLine
 10
114.0
 20
33.54974746830581
 30
0.0
 11
116.4
 21
35.949747468305816
 31
0.0
  0
LINE
  5
F9
330
17
100
AcDbEntity
  8
剖面线
  6
Continuous
370
13
100
AcDbLine
 10
113.99999999999999
 20
38.49949493661164
 30
0.0
 11
116.40000000000002
 21
40.899494936611674
 31
0.0
  0
LINE
  5
FA
330
17
100
AcDbEntity
  8
剖面线
  6
Continuous
370
13
100
AcDbLine
 10
114.0
 20
43.4492424049175
 30
0.0
 11
116.4
 21
45.849242404917504
 31
0.0
  0
LINE
  5
FB
330
17
100
AcDbEntity
  8
剖面线
  6
Continuous
370
13
100
AcDbLine
 10
114.0
 20
48.398989873223314
 30
0.0
 11
116.4
 21
50.79898987322332
 31
0.0
  0
LINE
  5
FC
330
17
100
AcDbEntity
  8
剖面线
  6
Continuous
370
13
100
AcDbLine
 10
113.99999999999999
 20
53.348737341529144
 30
0.0
 11
116.40000000000002
 21
55.74873734152918
 31
0.0
  0
LINE
  5
FD
330
17
100
AcDbEntity
  8
剖面线
  6
Continuous
370
13
100
AcDbLine
 10
114.0
 20
58.298484809835
 30
0.0
 11
116.4
 21
60.69848480983501
 31
0.0
  0
LINE
  5
FE
330
17
100
AcDbEntity
  8
剖面线
  6
Continuous
370
13
100
AcDbLine
 10
114.0
 20
63.24823227814082
 30
0.0
 11
115.1444263558534
 21
64.39265863399422
 31
0.0
  0
LINE
  5
FF
330
17
100
AcDbEntity
  8
轮廓
  6
Continuous
370
50
100
AcDbLine
 10
114.0
 20
122.236
 30
0.0
 11
115.0
 21
122.236
 31
0.0
  0
LINE
  5
100
330
17
100
AcDbEntity
  8
轮廓
  6
Continuous
370
50
100
AcDbLine
 10
114.0
 20
67.764
 30
0.0
 11
115.0
 21
67.764
 31
0.0
  0
LINE
  5
101
330
17
100
AcDbEntity
  8
轮廓
  6
Continuous
370
50
100
AcDbLine
 10
115.0
 20
122.236
 30
0.0
 11
116.4
 21
123.636
 31
0.0
  0
LINE
  5
102
330
17
100
AcDbEntity
  8
轮廓
  6
Continuous
370
50
100
AcDbLine
 10
115.0
 20
67.764
 30
0.0
 11
116.4
 21
66.364
 31
0.0
  0
LINE
  5
103
330
17
100
AcDbEntity
  8
轮廓
  6
Continuous
370
50
100
AcDbLine
 10
116.4
 20
123.636
 30
0.0
 11
116.4
 21
66.364
 31
0.0
  0
LINE
  5
104
330
17
100
AcDbEntity
  8
轮廓
  6
Continuous
370
50
100
AcDbLine
 10
114.0
 20
122.236
 30
0.0
 11
114.0
 21
67.764
 31
0.0
  0
LINE
  5
105
330
17
100
AcDbEntity
  8
轮廓
  6
Continuous
370
50
100
AcDbLine
 10
115.2
 20
159.0
 30
0.0
 11
115.2
 21
169.0
 31
0.0
  0
LINE
  5
106
330
17
100
AcDbEntity
  8
轮廓
  6
Continuous
370
50
100
AcDbLine
 10
108.0
 20
169.0
 30
0.0
 11
122.4
 21
169.0
 31
0.0
  0
LINE
  5
107
330
17
100
AcDbEntity
  8
轮廓
  6
Continuous
370
50
100
AcDbLine
 10
122.4
 20
169.0
 30
0.0
 11
122.4
 21
180.2
 31
0.0
  0
LINE
  5
108
330
17
100
AcDbEntity
  8
轮廓
  6
Continuous
370
50
100
AcDbLine
 10
122.4
 20
180.2
 30
0.0
 11
108.0
 21
180.2
 31
0.0
  0
LINE
  5
109
330
17
100
AcDbEntity
  8
轮廓
  6
Continuous
370
50
100
AcDbLine
 10
108.0
 20
180.2
 30
0.0
 11
108.0
 21
169.0
 31
0.0
  0
LINE
  5
10A
330
17
100
AcDbEntity
  8
轮廓
  6
Continuous
370
50
100
AcDbLine
 10
99.58
 20
180.0
 30
0.0
 11
99.58
 21
220.0
 31
0.0
  0
LINE
  5
10B
330
17
100
AcDbEntity
  8
轮廓
  6
Continuous
370
50
100
AcDbLine
 10
108.10000000000001
 20
180.0
 30
0.0
 11
108.10000000000001
 21
220.0
 31
0.0
  0
LINE
  5
10C
330
17
100
AcDbEntity
  8
轮廓
  6
Continuous
370
50
100
AcDbLine
 10
99.58
 20
220.0
 30
0.0
 11
108.10000000000001
 21
220.0
 31
0.0
  0
LINE
  5
10D
330
17
100
AcDbEntity
  8
虚线
  6
DASHED
370
18
100
AcDbLine
 10
103.84
 20
180.0
 30
0.0
 11
103.84
 21
148.0
 31
0.0
  0
LINE
  5
10E
330
17
100
AcDbEntity
  8
轮廓
  6
Continuous
370
50
100
AcDbLine
 10
122.30000000000001
 20
180.0
 30
0.0
 11
122.30000000000001
 21
220.0
 31
0.0
  0
LINE
  5
10F
330
17
100
AcDbEntity
  8
轮廓
  6
Continuous
370
50
100
AcDbLine
 10
130.82
 20
180.0
 30
0.0
 11
130.82
 21
220.0
 31
0.0
  0
LINE
  5
110
330
17
100
AcDbEntity
  8
轮廓
  6
Continuous
370
50
100
AcDbLine
 10
122.30000000000001
 20
220.0
 30
0.0
 11
130.82
 21
220.0
 31
0.0
  0
LINE
  5
111
330
17
100
AcDbEntity
  8
虚线
  6
DASHED
370
18
100
AcDbLine
 10
126.56
 20
180.0
 30
0.0
 11
126.56
 21
148.0
 31
0.0
  0
LINE
  5
112
330
17
100
AcDbEntity
  8
轮廓
  6
Continuous
370
50
100
AcDbLine
 10
102.4
 20
160.12
 30
0.0
 11
128.0
 21
160.12
 31
0.0
  0
LINE
  5
113
330
17
100
AcDbEntity
  8
轮廓
  6
Continuous
370
50
100
AcDbLine
 10
100.4
 20
157.72
 30
0.0
 11
104.4
 21
157.72
 31
0.0
  0
LINE
  5
114
330
17
100
AcDbEntity
  8
轮廓
  6
Continuous
370
50
100
AcDbLine
 10
104.4
 20
157.72
 30
0.0
 11
104.4
 21
162.52
 31
0.0
  0
LINE
  5
115
330
17
100
AcDbEntity
  8
轮廓
  6
Continuous
370
50
100
AcDbLine
 10
104.4
 20
162.52
 30
0.0
 11
100.4
 21
162.52
 31
0.0
  0
LINE
  5
116
330
17
100
AcDbEntity
  8
轮廓
  6
Continuous
370
50
100
AcDbLine
 10
100.4
 20
162.52
 30
0.0
 11
100.4
 21
157.72
 31
0.0
  0
LINE
  5
117
330
17
100
AcDbEntity
  8
轮廓
  6
Continuous
370
50
100
AcDbLine
 10
126.0
 20
157.72
 30
0.0
 11
130.0
 21
157.72
 31
0.0
  0
LINE
  5
118
330
17
100
AcDbEntity
  8
轮廓
  6
Continuous
370
50
100
AcDbLine
 10
130.0
 20
157.72
 30
0.0
 11
130.0
 21
162.52
 31
0.0
  0
LINE
  5
119
330
17
100
AcDbEntity
  8
轮廓
  6
Continuous
370
50
100
AcDbLine
 10
130.0
 20
162.52
 30
0.0
 11
126.0
 21
162.52
 31
0.0
  0
LINE
  5
11A
330
17
100
AcDbEntity
  8
轮廓
  6
Continuous
370
50
100
AcDbLine
 10
126.0
 20
162.52
 30
0.0
 11
126.0
 21
157.72
 31
0.0
  0
LINE
  5
11B
330
17
100
AcDbEntity
  8
轮廓
  6
Continuous
370
50
100
AcDbLine
 10
102.4
 20
29.879999999999995
 30
0.0
 11
128.0
 21
29.879999999999995
 31
0.0
  0
LINE
  5
11C
330
17
100
AcDbEntity
  8
轮廓
  6
Continuous
370
50
100
AcDbLine
 10
100.4
 20
27.47999999999999
 30
0.0
 11
104.4
 21
27.47999999999999
 31
0.0
  0
LINE
  5
11D
330
17
100
AcDbEntity
  8
轮廓
  6
Continuous
370
50
100
AcDbLine
 10
104.4
 20
27.47999999999999
 30
0.0
 11
104.4
 21
32.279999999999994
 31
0.0
  0
LINE
  5
11E
330
17
100
AcDbEntity
  8
轮廓
  6
Continuous
370
50
100
AcDbLine
 10
104.4
 20
32.279999999999994
 30
0.0
 11
100.4
 21
32.279999999999994
 31
0.0
  0
LINE
  5
11F
330
17
100
AcDbEntity
  8
轮廓
  6
Continuous
370
50
100
AcDbLine
 10
100.4
 20
32.279999999999994
 30
0.0
 11
100.4
 21
27.47999999999999
 31
0.0
  0
LINE
  5
120
330
17
100
AcDbEntity
  8
轮廓
  6
Continuous
370
50
100
AcDbLine
 10
126.0
 20
27.47999999999999
 30
0.0
 11
130.0
 21
27.47999999999999
 31
0.0
  0
LINE
  5
121
330
17
100
AcDbEntity
  8
轮廓
  6
Continuous
370
50
100
AcDbLine
 10
130.0
 20
27.47999999999999
 30
0.0
 11
130.0
 21
32.279999999999994
 31
0.0
  0
LINE
  5
122
330
17
100
AcDbEntity
  8
轮廓
  6
Continuous
370
50
100
AcDbLine
 10
130.0
 20
32.279999999999994
 30
0.0
 11
126.0
 21
32.279999999999994
 31
0.0
  0
LINE
  5
123
330
17
100
AcDbEntity
  8
轮廓
  6
Continuous
370
50
100
AcDbLine
 10
126.0
 20
32.279999999999994
 30
0.0
 11
126.0
 21
27.47999999999999
 31
0.0
  0
LINE
  5
124
330
17
100
AcDbEntity
  8
标注
  6
Continuous
370
18
100
AcDbLine
 10
106.80000000000001
 20
10.0
 30
0.0
 11
94.4
 21
-12.0
 31
0.0
  0
CIRCLE
  5
125
330
17
100
AcDbEntity
  8
轮廓
  6
Continuous
370
50
100
AcDbCircle
 10
94.4
 20
-12.0
 30
0.0
 40
4.5
  0
TEXT
  5
126
330
17
100
AcDbEntity
  8
文字
100
AcDbText
 10
94.4
 20
-12.0
 30
0.0
 40
3.2
  1
1
  7
CN
 72
1
 11
94.4
 21
-12.0
 31
0.0
100
AcDbText
 73
2
  0
LINE
  5
127
330
17
100
AcDbEntity
  8
标注
  6
Continuous
370
18
100
AcDbLine
 10
123.60000000000001
 20
10.0
 30
0.0
 11
133.2
 21
-12.0
 31
0.0
  0
CIRCLE
  5
128
330
17
100
AcDbEntity
  8
轮廓
  6
Continuous
370
50
100
AcDbCircle
 10
133.2
 20
-12.0
 30
0.0
 40
4.5
  0
TEXT
  5
129
330
17
100
AcDbEntity
  8
文字
100
AcDbText
 10
133.2
 20
-12.0
 30
0.0
 40
3.2
  1
2
  7
CN
 72
1
 11
133.2
 21
-12.0
 31
0.0
100
AcDbText
 73
2
  0
LINE
  5
12A
330
17
100
AcDbEntity
  8
标注
  6
Continuous
370
18
100
AcDbLine
 10
115.2
 20
31.0
 30
0.0
 11
115.2
 21
-12.0
 31
0.0
  0
CIRCLE
  5
12B
330
17
100
AcDbEntity
  8
轮廓
  6
Continuous
370
50
100
AcDbCircle
 10
115.2
 20
-12.0
 30
0.0
 40
4.5
  0
TEXT
  5
12C
330
17
100
AcDbEntity
  8
文字
100
AcDbText
 10
115.2
 20
-12.0
 30
0.0
 40
3.2
  1
3
  7
CN
 72
1
 11
115.2
 21
-12.0
 31
0.0
100
AcDbText
 73
2
  0
LINE
  5
12D
330
17
100
AcDbEntity
  8
标注
  6
Continuous
370
18
100
AcDbLine
 10
103.84
 20
220.0
 30
0.0
 11
89.84
 21
230.0
 31
0.0
  0
CIRCLE
  5
12E
330
17
100
AcDbEntity
  8
轮廓
  6
Continuous
370
50
100
AcDbCircle
 10
89.84
 20
230.0
 30
0.0
 40
4.5
  0
TEXT
  5
12F
330
17
100
AcDbEntity
  8
文字
100
AcDbText
 10
89.84
 20
230.0
 30
0.0
 40
3.2
  1
4
  7
CN
 72
1
 11
89.84
 21
230.0
 31
0.0
100
AcDbText
 73
2
  0
LINE
  5
130
330
17
100
AcDbEntity
  8
标注
  6
Continuous
370
18
100
AcDbLine
 10
126.56
 20
220.0
 30
0.0
 11
140.56
 21
230.0
 31
0.0
  0
CIRCLE
  5
131
330
17
100
AcDbEntity
  8
轮廓
  6
Continuous
370
50
100
AcDbCircle
 10
140.56
 20
230.0
 30
0.0
 40
4.5
  0
TEXT
  5
132
330
17
100
AcDbEntity
  8
文字
100
AcDbText
 10
140.56
 20
230.0
 30
0.0
 40
3.2
  1
5
  7
CN
 72
1
 11
140.56
 21
230.0
 31
0.0
100
AcDbText
 73
2
  0
LINE
  5
133
330
17
100
AcDbEntity
  8
标注
  6
Continuous
370
18
100
AcDbLine
 10
108.80000000000001
 20
160.12
 30
0.0
 11
108.80000000000001
 21
212.0
 31
0.0
  0
CIRCLE
  5
134
330
17
100
AcDbEntity
  8
轮廓
  6
Continuous
370
50
100
AcDbCircle
 10
108.80000000000001
 20
212.0
 30
0.0
 40
4.5
  0
TEXT
  5
135
330
17
100
AcDbEntity
  8
文字
100
AcDbText
 10
108.80000000000001
 20
212.0
 30
0.0
 40
3.2
  1
6
  7
CN
 72
1
 11
108.80000000000001
 21
212.0
 31
0.0
100
AcDbText
 73
2
  0
LINE
  5
136
330
17
100
AcDbEntity
  8
标注
  6
Continuous
370
18
100
AcDbLine
 10
113.60000000000001
 20
162.0
 30
0.0
 11
101.2
 21
202.0
 31
0.0
  0
CIRCLE
  5
137
330
17
100
AcDbEntity
  8
轮廓
  6
Continuous
370
50
100
AcDbCircle
 10
101.2
 20
202.0
 30
0.0
 40
4.5
  0
TEXT
  5
138
330
17
100
AcDbEntity
  8
文字
100
AcDbText
 10
101.2
 20
202.0
 30
0.0
 40
3.2
  1
7
  7
CN
 72
1
 11
101.2
 21
202.0
 31
0.0
100
AcDbText
 73
2
  0
LINE
  5
139
330
17
100
AcDbEntity
  8
标注
  6
Continuous
370
18
100
AcDbLine
 10
54.0
 20
149.6
 30
0.0
 11
54.0
 21
202.0
 31
0.0
  0
CIRCLE
  5
13A
330
17
100
AcDbEntity
  8
轮廓
  6
Continuous
370
50
100
AcDbCircle
 10
54.0
 20
202.0
 30
0.0
 40
4.5
  0
TEXT
  5
13B
330
17
100
AcDbEntity
  8
文字
100
AcDbText
 10
54.0
 20
202.0
 30
0.0
 40
3.2
  1
8
  7
CN
 72
1
 11
54.0
 21
202.0
 31
0.0
100
AcDbText
 73
2
  0
LINE
  5
13C
330
17
100
AcDbEntity
  8
标注
  6
Continuous
370
18
100
AcDbLine
 10
100.4
 20
-18.0
 30
0.0
 11
130.0
 21
-18.0
 31
0.0
  0
LINE
  5
13D
330
17
100
AcDbEntity
  8
标注
  6
Continuous
370
18
100
AcDbLine
 10
100.4
 20
-19.8
 30
0.0
 11
100.4
 21
-16.2
 31
0.0
  0
LINE
  5
13E
330
17
100
AcDbEntity
  8
标注
  6
Continuous
370
18
100
AcDbLine
 10
130.0
 20
-19.8
 30
0.0
 11
130.0
 21
-16.2
 31
0.0
  0
LINE
  5
13F
330
17
100
AcDbEntity
  8
标注
  6
Continuous
370
18
100
AcDbLine
 10
100.4
 20
-18.0
 30
0.0
 11
103.0
 21
-17.1
 31
0.0
  0
LINE
  5
140
330
17
100
AcDbEntity
  8
标注
  6
Continuous
370
18
100
AcDbLine
 10
100.4
 20
-18.0
 30
0.0
 11
103.0
 21
-18.9
 31
0.0
  0
LINE
  5
141
330
17
100
AcDbEntity
  8
标注
  6
Continuous
370
18
100
AcDbLine
 10
130.0
 20
-18.0
 30
0.0
 11
127.4
 21
-17.1
 31
0.0
  0
LINE
  5
142
330
17
100
AcDbEntity
  8
标注
  6
Continuous
370
18
100
AcDbLine
 10
130.0
 20
-18.0
 30
0.0
 11
127.4
 21
-18.9
 31
0.0
  0
TEXT
  5
143
330
17
100
AcDbEntity
  8
标注
100
AcDbText
 10
115.2
 20
-15.8
 30
0.0
 40
3.2
  1
≈74
  7
CN
 72
1
 11
115.2
 21
-15.8
 31
0.0
100
AcDbText
 73
1
  0
LINE
  5
144
330
17
100
AcDbEntity
  8
标注
  6
Continuous
370
18
100
AcDbLine
 10
20.0
 20
10.0
 30
0.0
 11
20.0
 21
180.0
 31
0.0
  0
LINE
  5
145
330
17
100
AcDbEntity
  8
标注
  6
Continuous
370
18
100
AcDbLine
 10
18.2
 20
10.0
 30
0.0
 11
21.8
 21
10.0
 31
0.0
  0
LINE
  5
146
330
17
100
AcDbEntity
  8
标注
  6
Continuous
370
18
100
AcDbLine
 10
18.2
 20
180.0
 30
0.0
 11
21.8
 21
180.0
 31
0.0
  0
LINE
  5
147
330
17
100
AcDbEntity
  8
标注
  6
Continuous
370
18
100
AcDbLine
 10
20.0
 20
10.0
 30
0.0
 11
19.1
 21
12.6
 31
0.0
  0
LINE
  5
148
330
17
100
AcDbEntity
  8
标注
  6
Continuous
370
18
100
AcDbLine
 10
20.0
 20
10.0
 30
0.0
 11
20.9
 21
12.6
 31
0.0
  0
LINE
  5
149
330
17
100
AcDbEntity
  8
标注
  6
Continuous
370
18
100
AcDbLine
 10
20.0
 20
180.0
 30
0.0
 11
19.1
 21
177.4
 31
0.0
  0
LINE
  5
14A
330
17
100
AcDbEntity
  8
标注
  6
Continuous
370
18
100
AcDbLine
 10
20.0
 20
180.0
 30
0.0
 11
20.9
 21
177.4
 31
0.0
  0
TEXT
  5
14B
330
17
100
AcDbEntity
  8
标注
100
AcDbText
 10
14.5
 20
95.0
 30
0.0
 40
3.2
  1
Φ425
 50
90.0
  7
CN
 72
1
 11
14.5
 21
95.0
 31
0.0
100
AcDbText
 73
2
  0
TEXT
  5
14C
330
17
100
AcDbEntity
  8
标注
100
AcDbText
 10
54.0
 20
154.4
 30
0.0
 40
3.0
  1
Φ273.0×4.0
  7
CN
 72
1
 11
54.0
 21
154.4
 31
0.0
100
AcDbText
 73
1
  0
TEXT
  5
14D
330
17
100
AcDbEntity
  8
标注
100
AcDbText
 10
124.4
 20
95.0
 30
0.0
 40
3.0
  1
d=Φ136.18
  7
CN
 11
124.4
 21
95.0
 31
0.0
100
AcDbText
 73
2
  0
TEXT
  5
14E
330
17
100
AcDbEntity
  8
标注
100
AcDbText
 10
115.2
 20
236.0
 30
0.0
 40
2.8
  1
取压距孔板面 25.4±0.8
  7
CN
 72
1
 11
115.2
 21
236.0
 31
0.0
100
AcDbText
 73
1
  0
LINE
  5
14F
330
17
100
AcDbEntity
  8
标注
  6
Continuous
370
18
100
AcDbLine
 10
100.4
 20
-28.0
 30
0.0
 11
118.0
 21
-28.0
 31
0.0
  0
LINE
  5
150
330
17
100
AcDbEntity
  8
标注
  6
Continuous
370
18
100
AcDbLine
 10
118.0
 20
-28.0
 30
0.0
 11
113.2
 21
-24.0
 31
0.0
  0
LINE
  5
151
330
17
100
AcDbEntity
  8
标注
  6
Continuous
370
18
100
AcDbLine
 10
118.0
 20
-28.0
 30
0.0
 11
113.2
 21
-32.0
 31
0.0
  0
TEXT
  5
152
330
17
100
AcDbEntity
  8
文字
100
AcDbText
 10
108.80000000000001
 20
-36.0
 30
0.0
 40
3.5
  1
介质流向（下游侧倒角）
  7
CN
 72
1
 11
108.80000000000001
 21
-36.0
 31
0.0
100
AcDbText
 73
3
  0
TEXT
  5
153
330
17
100
AcDbEntity
  8
文字
100
AcDbText
 10
180.0
 20
81.0
 30
0.0
 40
3.5
  1
明细表
  7
CN
 72
1
 11
180.0
 21
81.0
 31
0.0
100
AcDbText
 73
1
  0
LINE
  5
154
330
17
100
AcDbEntity
  8
表格
  6
Continuous
370
18
100
AcDbLine
 10
30.0
 20
70.5
 30
0.0
 11
48.0
 21
70.5
 31
0.0
  0
LINE
  5
155
330
17
100
AcDbEntity
  8
表格
  6
Continuous
370
18
100
AcDbLine
 10
48.0
 20
70.5
 30
0.0
 11
48.0
 21
78.0
 31
0.0
  0
LINE
  5
156
330
17
100
AcDbEntity
  8
表格
  6
Continuous
370
18
100
AcDbLine
 10
48.0
 20
78.0
 30
0.0
 11
30.0
 21
78.0
 31
0.0
  0
LINE
  5
157
330
17
100
AcDbEntity
  8
表格
  6
Continuous
370
18
100
AcDbLine
 10
30.0
 20
78.0
 30
0.0
 11
30.0
 21
70.5
 31
0.0
  0
TEXT
  5
158
330
17
100
AcDbEntity
  8
表格
100
AcDbText
 10
31.2
 20
74.25
 30
0.0
 40
2.4
  1
序号
  7
CN
 11
31.2
 21
74.25
 31
0.0
100
AcDbText
 73
2
  0
LINE
  5
159
330
17
100
AcDbEntity
  8
表格
  6
Continuous
370
18
100
AcDbLine
 10
48.0
 20
70.5
 30
0.0
 11
90.0
 21
70.5
 31
0.0
  0
LINE
  5
15A
330
17
100
AcDbEntity
  8
表格
  6
Continuous
370
18
100
AcDbLine
 10
90.0
 20
70.5
 30
0.0
 11
90.0
 21
78.0
 31
0.0
  0
LINE
  5
15B
330
17
100
AcDbEntity
  8
表格
  6
Continuous
370
18
100
AcDbLine
 10
90.0
 20
78.0
 30
0.0
 11
48.0
 21
78.0
 31
0.0
  0
LINE
  5
15C
330
17
100
AcDbEntity
  8
表格
  6
Continuous
370
18
100
AcDbLine
 10
48.0
 20
78.0
 30
0.0
 11
48.0
 21
70.5
 31
0.0
  0
TEXT
  5
15D
330
17
100
AcDbEntity
  8
表格
100
AcDbText
 10
49.2
 20
74.25
 30
0.0
 40
2.4
  1
代号
  7
CN
 11
49.2
 21
74.25
 31
0.0
100
AcDbText
 73
2
  0
LINE
  5
15E
330
17
100
AcDbEntity
  8
表格
  6
Continuous
370
18
100
AcDbLine
 10
90.0
 20
70.5
 30
0.0
 11
138.0
 21
70.5
 31
0.0
  0
LINE
  5
15F
330
17
100
AcDbEntity
  8
表格
  6
Continuous
370
18
100
AcDbLine
 10
138.0
 20
70.5
 30
0.0
 11
138.0
 21
78.0
 31
0.0
  0
LINE
  5
160
330
17
100
AcDbEntity
  8
表格
  6
Continuous
370
18
100
AcDbLine
 10
138.0
 20
78.0
 30
0.0
 11
90.0
 21
78.0
 31
0.0
  0
LINE
  5
161
330
17
100
AcDbEntity
  8
表格
  6
Continuous
370
18
100
AcDbLine
 10
90.0
 20
78.0
 30
0.0
 11
90.0
 21
70.5
 31
0.0
  0
TEXT
  5
162
330
17
100
AcDbEntity
  8
表格
100
AcDbText
 10
91.2
 20
74.25
 30
0.0
 40
2.4
  1
名称
  7
CN
 11
91.2
 21
74.25
 31
0.0
100
AcDbText
 73
2
  0
LINE
  5
163
330
17
100
AcDbEntity
  8
表格
  6
Continuous
370
18
100
AcDbLine
 10
138.0
 20
70.5
 30
0.0
 11
268.0
 21
70.5
 31
0.0
  0
LINE
  5
164
330
17
100
AcDbEntity
  8
表格
  6
Continuous
370
18
100
AcDbLine
 10
268.0
 20
70.5
 30
0.0
 11
268.0
 21
78.0
 31
0.0
  0
LINE
  5
165
330
17
100
AcDbEntity
  8
表格
  6
Continuous
370
18
100
AcDbLine
 10
268.0
 20
78.0
 30
0.0
 11
138.0
 21
78.0
 31
0.0
  0
LINE
  5
166
330
17
100
AcDbEntity
  8
表格
  6
Continuous
370
18
100
AcDbLine
 10
138.0
 20
78.0
 30
0.0
 11
138.0
 21
70.5
 31
0.0
  0
TEXT
  5
167
330
17
100
AcDbEntity
  8
表格
100
AcDbText
 10
139.2
 20
74.25
 30
0.0
 40
2.4
  1
规格及材料
  7
CN
 11
139.2
 21
74.25
 31
0.0
100
AcDbText
 73
2
  0
LINE
  5
168
330
17
100
AcDbEntity
  8
表格
  6
Continuous
370
18
100
AcDbLine
 10
268.0
 20
70.5
 30
0.0
 11
290.0
 21
70.5
 31
0.0
  0
LINE
  5
169
330
17
100
AcDbEntity
  8
表格
  6
Continuous
370
18
100
AcDbLine
 10
290.0
 20
70.5
 30
0.0
 11
290.0
 21
78.0
 31
0.0
  0
LINE
  5
16A
330
17
100
AcDbEntity
  8
表格
  6
Continuous
370
18
100
AcDbLine
 10
290.0
 20
78.0
 30
0.0
 11
268.0
 21
78.0
 31
0.0
  0
LINE
  5
16B
330
17
100
AcDbEntity
  8
表格
  6
Continuous
370
18
100
AcDbLine
 10
268.0
 20
78.0
 30
0.0
 11
268.0
 21
70.5
 31
0.0
  0
TEXT
  5
16C
330
17
100
AcDbEntity
  8
表格
100
AcDbText
 10
269.2
 20
74.25
 30
0.0
 40
2.4
  1
数量
  7
CN
 11
269.2
 21
74.25
 31
0.0
100
AcDbText
 73
2
  0
LINE
  5
16D
330
17
100
AcDbEntity
  8
表格
  6
Continuous
370
18
100
AcDbLine
 10
290.0
 20
70.5
 30
0.0
 11
330.0
 21
70.5
 31
0.0
  0
LINE
  5
16E
330
17
100
AcDbEntity
  8
表格
  6
Continuous
370
18
100
AcDbLine
 10
330.0
 20
70.5
 30
0.0
 11
330.0
 21
78.0
 31
0.0
  0
LINE
  5
16F
330
17
100
AcDbEntity
  8
表格
  6
Continuous
370
18
100
AcDbLine
 10
330.0
 20
78.0
 30
0.0
 11
290.0
 21
78.0
 31
0.0
  0
LINE
  5
170
330
17
100
AcDbEntity
  8
表格
  6
Continuous
370
18
100
AcDbLine
 10
290.0
 20
78.0
 30
0.0
 11
290.0
 21
70.5
 31
0.0
  0
TEXT
  5
171
330
17
100
AcDbEntity
  8
表格
100
AcDbText
 10
291.2
 20
74.25
 30
0.0
 40
2.4
  1
备注
  7
CN
 11
291.2
 21
74.25
 31
0.0
100
AcDbText
 73
2
  0
LINE
  5
172
330
17
100
AcDbEntity
  8
表格
  6
Continuous
370
18
100
AcDbLine
 10
30.0
 20
63.0
 30
0.0
 11
48.0
 21
63.0
 31
0.0
  0
LINE
  5
173
330
17
100
AcDbEntity
  8
表格
  6
Continuous
370
18
100
AcDbLine
 10
48.0
 20
63.0
 30
0.0
 11
48.0
 21
70.5
 31
0.0
  0
LINE
  5
174
330
17
100
AcDbEntity
  8
表格
  6
Continuous
370
18
100
AcDbLine
 10
48.0
 20
70.5
 30
0.0
 11
30.0
 21
70.5
 31
0.0
  0
LINE
  5
175
330
17
100
AcDbEntity
  8
表格
  6
Continuous
370
18
100
AcDbLine
 10
30.0
 20
70.5
 30
0.0
 11
30.0
 21
63.0
 31
0.0
  0
TEXT
  5
176
330
17
100
AcDbEntity
  8
表格
100
AcDbText
 10
31.2
 20
66.75
 30
0.0
 40
2.2
  1
1
  7
CN
 11
31.2
 21
66.75
 31
0.0
100
AcDbText
 73
2
  0
LINE
  5
177
330
17
100
AcDbEntity
  8
表格
  6
Continuous
370
18
100
AcDbLine
 10
48.0
 20
63.0
 30
0.0
 11
90.0
 21
63.0
 31
0.0
  0
LINE
  5
178
330
17
100
AcDbEntity
  8
表格
  6
Continuous
370
18
100
AcDbLine
 10
90.0
 20
63.0
 30
0.0
 11
90.0
 21
70.5
 31
0.0
  0
LINE
  5
179
330
17
100
AcDbEntity
  8
表格
  6
Continuous
370
18
100
AcDbLine
 10
90.0
 20
70.5
 30
0.0
 11
48.0
 21
70.5
 31
0.0
  0
LINE
  5
17A
330
17
100
AcDbEntity
  8
表格
  6
Continuous
370
18
100
AcDbLine
 10
48.0
 20
70.5
 30
0.0
 11
48.0
 21
63.0
 31
0.0
  0
TEXT
  5
17B
330
17
100
AcDbEntity
  8
表格
100
AcDbText
 10
49.2
 20
66.75
 30
0.0
 40
2.2
  1
FE-1002-00-1
  7
CN
 11
49.2
 21
66.75
 31
0.0
100
AcDbText
 73
2
  0
LINE
  5
17C
330
17
100
AcDbEntity
  8
表格
  6
Continuous
370
18
100
AcDbLine
 10
90.0
 20
63.0
 30
0.0
 11
138.0
 21
63.0
 31
0.0
  0
LINE
  5
17D
330
17
100
AcDbEntity
  8
表格
  6
Continuous
370
18
100
AcDbLine
 10
138.0
 20
63.0
 30
0.0
 11
138.0
 21
70.5
 31
0.0
  0
LINE
  5
17E
330
17
100
AcDbEntity
  8
表格
  6
Continuous
370
18
100
AcDbLine
 10
138.0
 20
70.5
 30
0.0
 11
90.0
 21
70.5
 31
0.0
  0
LINE
  5
17F
330
17
100
AcDbEntity
  8
表格
  6
Continuous
370
18
100
AcDbLine
 10
90.0
 20
70.5
 30
0.0
 11
90.0
 21
63.0
 31
0.0
  0
TEXT
  5
180
330
17
100
AcDbEntity
  8
表格
100
AcDbText
 10
91.2
 20
66.75
 30
0.0
 40
2.2
  1
上游取压法兰
  7
CN
 11
91.2
 21
66.75
 31
0.0
100
AcDbText
 73
2
  0
LINE
  5
181
330
17
100
AcDbEntity
  8
表格
  6
Continuous
370
18
100
AcDbLine
 10
138.0
 20
63.0
 30
0.0
 11
268.0
 21
63.0
 31
0.0
  0
LINE
  5
182
330
17
100
AcDbEntity
  8
表格
  6
Continuous
370
18
100
AcDbLine
 10
268.0
 20
63.0
 30
0.0
 11
268.0
 21
70.5
 31
0.0
  0
LINE
  5
183
330
17
100
AcDbEntity
  8
表格
  6
Continuous
370
18
100
AcDbLine
 10
268.0
 20
70.5
 30
0.0
 11
138.0
 21
70.5
 31
0.0
  0
LINE
  5
184
330
17
100
AcDbEntity
  8
表格
  6
Continuous
370
18
100
AcDbLine
 10
138.0
 20
70.5
 30
0.0
 11
138.0
 21
63.0
 31
0.0
  0
TEXT
  5
185
330
17
100
AcDbEntity
  8
表格
100
AcDbText
 10
139.2
 20
66.75
 30
0.0
 40
2.2
  1
WN RF DN250 PN25 F304/F304L
  7
CN
 11
139.2
 21
66.75
 31
0.0
100
AcDbText
 73
2
  0
LINE
  5
186
330
17
100
AcDbEntity
  8
表格
  6
Continuous
370
18
100
AcDbLine
 10
268.0
 20
63.0
 30
0.0
 11
290.0
 21
63.0
 31
0.0
  0
LINE
  5
187
330
17
100
AcDbEntity
  8
表格
  6
Continuous
370
18
100
AcDbLine
 10
290.0
 20
63.0
 30
0.0
 11
290.0
 21
70.5
 31
0.0
  0
LINE
  5
188
330
17
100
AcDbEntity
  8
表格
  6
Continuous
370
18
100
AcDbLine
 10
290.0
 20
70.5
 30
0.0
 11
268.0
 21
70.5
 31
0.0
  0
LINE
  5
189
330
17
100
AcDbEntity
  8
表格
  6
Continuous
370
18
100
AcDbLine
 10
268.0
 20
70.5
 30
0.0
 11
268.0
 21
63.0
 31
0.0
  0
TEXT
  5
18A
330
17
100
AcDbEntity
  8
表格
100
AcDbText
 10
269.2
 20
66.75
 30
0.0
 40
2.2
  1
1
  7
CN
 11
269.2
 21
66.75
 31
0.0
100
AcDbText
 73
2
  0
LINE
  5
18B
330
17
100
AcDbEntity
  8
表格
  6
Continuous
370
18
100
AcDbLine
 10
290.0
 20
63.0
 30
0.0
 11
330.0
 21
63.0
 31
0.0
  0
LINE
  5
18C
330
17
100
AcDbEntity
  8
表格
  6
Continuous
370
18
100
AcDbLine
 10
330.0
 20
63.0
 30
0.0
 11
330.0
 21
70.5
 31
0.0
  0
LINE
  5
18D
330
17
100
AcDbEntity
  8
表格
  6
Continuous
370
18
100
AcDbLine
 10
330.0
 20
70.5
 30
0.0
 11
290.0
 21
70.5
 31
0.0
  0
LINE
  5
18E
330
17
100
AcDbEntity
  8
表格
  6
Continuous
370
18
100
AcDbLine
 10
290.0
 20
70.5
 30
0.0
 11
290.0
 21
63.0
 31
0.0
  0
TEXT
  5
18F
330
17
100
AcDbEntity
  8
表格
100
AcDbText
 10
291.2
 20
66.75
 30
0.0
 40
2.2
  1
HG/T20592
  7
CN
 11
291.2
 21
66.75
 31
0.0
100
AcDbText
 73
2
  0
LINE
  5
190
330
17
100
AcDbEntity
  8
表格
  6
Continuous
370
18
100
AcDbLine
 10
30.0
 20
55.5
 30
0.0
 11
48.0
 21
55.5
 31
0.0
  0
LINE
  5
191
330
17
100
AcDbEntity
  8
表格
  6
Continuous
370
18
100
AcDbLine
 10
48.0
 20
55.5
 30
0.0
 11
48.0
 21
63.0
 31
0.0
  0
LINE
  5
192
330
17
100
AcDbEntity
  8
表格
  6
Continuous
370
18
100
AcDbLine
 10
48.0
 20
63.0
 30
0.0
 11
30.0
 21
63.0
 31
0.0
  0
LINE
  5
193
330
17
100
AcDbEntity
  8
表格
  6
Continuous
370
18
100
AcDbLine
 10
30.0
 20
63.0
 30
0.0
 11
30.0
 21
55.5
 31
0.0
  0
TEXT
  5
194
330
17
100
AcDbEntity
  8
表格
100
AcDbText
 10
31.2
 20
59.25
 30
0.0
 40
2.2
  1
2
  7
CN
 11
31.2
 21
59.25
 31
0.0
100
AcDbText
 73
2
  0
LINE
  5
195
330
17
100
AcDbEntity
  8
表格
  6
Continuous
370
18
100
AcDbLine
 10
48.0
 20
55.5
 30
0.0
 11
90.0
 21
55.5
 31
0.0
  0
LINE
  5
196
330
17
100
AcDbEntity
  8
表格
  6
Continuous
370
18
100
AcDbLine
 10
90.0
 20
55.5
 30
0.0
 11
90.0
 21
63.0
 31
0.0
  0
LINE
  5
197
330
17
100
AcDbEntity
  8
表格
  6
Continuous
370
18
100
AcDbLine
 10
90.0
 20
63.0
 30
0.0
 11
48.0
 21
63.0
 31
0.0
  0
LINE
  5
198
330
17
100
AcDbEntity
  8
表格
  6
Continuous
370
18
100
AcDbLine
 10
48.0
 20
63.0
 30
0.0
 11
48.0
 21
55.5
 31
0.0
  0
TEXT
  5
199
330
17
100
AcDbEntity
  8
表格
100
AcDbText
 10
49.2
 20
59.25
 30
0.0
 40
2.2
  1
FE-1002-00-2
  7
CN
 11
49.2
 21
59.25
 31
0.0
100
AcDbText
 73
2
  0
LINE
  5
19A
330
17
100
AcDbEntity
  8
表格
  6
Continuous
370
18
100
AcDbLine
 10
90.0
 20
55.5
 30
0.0
 11
138.0
 21
55.5
 31
0.0
  0
LINE
  5
19B
330
17
100
AcDbEntity
  8
表格
  6
Continuous
370
18
100
AcDbLine
 10
138.0
 20
55.5
 30
0.0
 11
138.0
 21
63.0
 31
0.0
  0
LINE
  5
19C
330
17
100
AcDbEntity
  8
表格
  6
Continuous
370
18
100
AcDbLine
 10
138.0
 20
63.0
 30
0.0
 11
90.0
 21
63.0
 31
0.0
  0
LINE
  5
19D
330
17
100
AcDbEntity
  8
表格
  6
Continuous
370
18
100
AcDbLine
 10
90.0
 20
63.0
 30
0.0
 11
90.0
 21
55.5
 31
0.0
  0
TEXT
  5
19E
330
17
100
AcDbEntity
  8
表格
100
AcDbText
 10
91.2
 20
59.25
 30
0.0
 40
2.2
  1
下游取压法兰
  7
CN
 11
91.2
 21
59.25
 31
0.0
100
AcDbText
 73
2
  0
LINE
  5
19F
330
17
100
AcDbEntity
  8
表格
  6
Continuous
370
18
100
AcDbLine
 10
138.0
 20
55.5
 30
0.0
 11
268.0
 21
55.5
 31
0.0
  0
LINE
  5
1A0
330
17
100
AcDbEntity
  8
表格
  6
Continuous
370
18
100
AcDbLine
 10
268.0
 20
55.5
 30
0.0
 11
268.0
 21
63.0
 31
0.0
  0
LINE
  5
1A1
330
17
100
AcDbEntity
  8
表格
  6
Continuous
370
18
100
AcDbLine
 10
268.0
 20
63.0
 30
0.0
 11
138.0
 21
63.0
 31
0.0
  0
LINE
  5
1A2
330
17
100
AcDbEntity
  8
表格
  6
Continuous
370
18
100
AcDbLine
 10
138.0
 20
63.0
 30
0.0
 11
138.0
 21
55.5
 31
0.0
  0
TEXT
  5
1A3
330
17
100
AcDbEntity
  8
表格
100
AcDbText
 10
139.2
 20
59.25
 30
0.0
 40
2.2
  1
WN RF DN250 PN25 F304/F304L
  7
CN
 11
139.2
 21
59.25
 31
0.0
100
AcDbText
 73
2
  0
LINE
  5
1A4
330
17
100
AcDbEntity
  8
表格
  6
Continuous
370
18
100
AcDbLine
 10
268.0
 20
55.5
 30
0.0
 11
290.0
 21
55.5
 31
0.0
  0
LINE
  5
1A5
330
17
100
AcDbEntity
  8
表格
  6
Continuous
370
18
100
AcDbLine
 10
290.0
 20
55.5
 30
0.0
 11
290.0
 21
63.0
 31
0.0
  0
LINE
  5
1A6
330
17
100
AcDbEntity
  8
表格
  6
Continuous
370
18
100
AcDbLine
 10
290.0
 20
63.0
 30
0.0
 11
268.0
 21
63.0
 31
0.0
  0
LINE
  5
1A7
330
17
100
AcDbEntity
  8
表格
  6
Continuous
370
18
100
AcDbLine
 10
268.0
 20
63.0
 30
0.0
 11
268.0
 21
55.5
 31
0.0
  0
TEXT
  5
1A8
330
17
100
AcDbEntity
  8
表格
100
AcDbText
 10
269.2
 20
59.25
 30
0.0
 40
2.2
  1
1
  7
CN
 11
269.2
 21
59.25
 31
0.0
100
AcDbText
 73
2
  0
LINE
  5
1A9
330
17
100
AcDbEntity
  8
表格
  6
Continuous
370
18
100
AcDbLine
 10
290.0
 20
55.5
 30
0.0
 11
330.0
 21
55.5
 31
0.0
  0
LINE
  5
1AA
330
17
100
AcDbEntity
  8
表格
  6
Continuous
370
18
100
AcDbLine
 10
330.0
 20
55.5
 30
0.0
 11
330.0
 21
63.0
 31
0.0
  0
LINE
  5
1AB
330
17
100
AcDbEntity
  8
表格
  6
Continuous
370
18
100
AcDbLine
 10
330.0
 20
63.0
 30
0.0
 11
290.0
 21
63.0
 31
0.0
  0
LINE
  5
1AC
330
17
100
AcDbEntity
  8
表格
  6
Continuous
370
18
100
AcDbLine
 10
290.0
 20
63.0
 30
0.0
 11
290.0
 21
55.5
 31
0.0
  0
TEXT
  5
1AD
330
17
100
AcDbEntity
  8
表格
100
AcDbText
 10
291.2
 20
59.25
 30
0.0
 40
2.2
  1
与1对称
  7
CN
 11
291.2
 21
59.25
 31
0.0
100
AcDbText
 73
2
  0
LINE
  5
1AE
330
17
100
AcDbEntity
  8
表格
  6
Continuous
370
18
100
AcDbLine
 10
30.0
 20
48.0
 30
0.0
 11
48.0
 21
48.0
 31
0.0
  0
LINE
  5
1AF
330
17
100
AcDbEntity
  8
表格
  6
Continuous
370
18
100
AcDbLine
 10
48.0
 20
48.0
 30
0.0
 11
48.0
 21
55.5
 31
0.0
  0
LINE
  5
1B0
330
17
100
AcDbEntity
  8
表格
  6
Continuous
370
18
100
AcDbLine
 10
48.0
 20
55.5
 30
0.0
 11
30.0
 21
55.5
 31
0.0
  0
LINE
  5
1B1
330
17
100
AcDbEntity
  8
表格
  6
Continuous
370
18
100
AcDbLine
 10
30.0
 20
55.5
 30
0.0
 11
30.0
 21
48.0
 31
0.0
  0
TEXT
  5
1B2
330
17
100
AcDbEntity
  8
表格
100
AcDbText
 10
31.2
 20
51.75
 30
0.0
 40
2.2
  1
3
  7
CN
 11
31.2
 21
51.75
 31
0.0
100
AcDbText
 73
2
  0
LINE
  5
1B3
330
17
100
AcDbEntity
  8
表格
  6
Continuous
370
18
100
AcDbLine
 10
48.0
 20
48.0
 30
0.0
 11
90.0
 21
48.0
 31
0.0
  0
LINE
  5
1B4
330
17
100
AcDbEntity
  8
表格
  6
Continuous
370
18
100
AcDbLine
 10
90.0
 20
48.0
 30
0.0
 11
90.0
 21
55.5
 31
0.0
  0
LINE
  5
1B5
330
17
100
AcDbEntity
  8
表格
  6
Continuous
370
18
100
AcDbLine
 10
90.0
 20
55.5
 30
0.0
 11
48.0
 21
55.5
 31
0.0
  0
LINE
  5
1B6
330
17
100
AcDbEntity
  8
表格
  6
Continuous
370
18
100
AcDbLine
 10
48.0
 20
55.5
 30
0.0
 11
48.0
 21
48.0
 31
0.0
  0
TEXT
  5
1B7
330
17
100
AcDbEntity
  8
表格
100
AcDbText
 10
49.2
 20
51.75
 30
0.0
 40
2.2
  1
FE-1002-00-3
  7
CN
 11
49.2
 21
51.75
 31
0.0
100
AcDbText
 73
2
  0
LINE
  5
1B8
330
17
100
AcDbEntity
  8
表格
  6
Continuous
370
18
100
AcDbLine
 10
90.0
 20
48.0
 30
0.0
 11
138.0
 21
48.0
 31
0.0
  0
LINE
  5
1B9
330
17
100
AcDbEntity
  8
表格
  6
Continuous
370
18
100
AcDbLine
 10
138.0
 20
48.0
 30
0.0
 11
138.0
 21
55.5
 31
0.0
  0
LINE
  5
1BA
330
17
100
AcDbEntity
  8
表格
  6
Continuous
370
18
100
AcDbLine
 10
138.0
 20
55.5
 30
0.0
 11
90.0
 21
55.5
 31
0.0
  0
LINE
  5
1BB
330
17
100
AcDbEntity
  8
表格
  6
Continuous
370
18
100
AcDbLine
 10
90.0
 20
55.5
 30
0.0
 11
90.0
 21
48.0
 31
0.0
  0
TEXT
  5
1BC
330
17
100
AcDbEntity
  8
表格
100
AcDbText
 10
91.2
 20
51.75
 30
0.0
 40
2.2
  1
孔板片
  7
CN
 11
91.2
 21
51.75
 31
0.0
100
AcDbText
 73
2
  0
LINE
  5
1BD
330
17
100
AcDbEntity
  8
表格
  6
Continuous
370
18
100
AcDbLine
 10
138.0
 20
48.0
 30
0.0
 11
268.0
 21
48.0
 31
0.0
  0
LINE
  5
1BE
330
17
100
AcDbEntity
  8
表格
  6
Continuous
370
18
100
AcDbLine
 10
268.0
 20
48.0
 30
0.0
 11
268.0
 21
55.5
 31
0.0
  0
LINE
  5
1BF
330
17
100
AcDbEntity
  8
表格
  6
Continuous
370
18
100
AcDbLine
 10
268.0
 20
55.5
 30
0.0
 11
138.0
 21
55.5
 31
0.0
  0
LINE
  5
1C0
330
17
100
AcDbEntity
  8
表格
  6
Continuous
370
18
100
AcDbLine
 10
138.0
 20
55.5
 30
0.0
 11
138.0
 21
48.0
 31
0.0
  0
TEXT
  5
1C1
330
17
100
AcDbEntity
  8
表格
100
AcDbText
 10
139.2
 20
51.75
 30
0.0
 40
2.2
  1
Φ320.0×6.0 孔Φ136.18 F304/F304L
  7
CN
 11
139.2
 21
51.75
 31
0.0
100
AcDbText
 73
2
  0
LINE
  5
1C2
330
17
100
AcDbEntity
  8
表格
  6
Continuous
370
18
100
AcDbLine
 10
268.0
 20
48.0
 30
0.0
 11
290.0
 21
48.0
 31
0.0
  0
LINE
  5
1C3
330
17
100
AcDbEntity
  8
表格
  6
Continuous
370
18
100
AcDbLine
 10
290.0
 20
48.0
 30
0.0
 11
290.0
 21
55.5
 31
0.0
  0
LINE
  5
1C4
330
17
100
AcDbEntity
  8
表格
  6
Continuous
370
18
100
AcDbLine
 10
290.0
 20
55.5
 30
0.0
 11
268.0
 21
55.5
 31
0.0
  0
LINE
  5
1C5
330
17
100
AcDbEntity
  8
表格
  6
Continuous
370
18
100
AcDbLine
 10
268.0
 20
55.5
 30
0.0
 11
268.0
 21
48.0
 31
0.0
  0
TEXT
  5
1C6
330
17
100
AcDbEntity
  8
表格
100
AcDbText
 10
269.2
 20
51.75
 30
0.0
 40
2.2
  1
1
  7
CN
 11
269.2
 21
51.75
 31
0.0
100
AcDbText
 73
2
  0
LINE
  5
1C7
330
17
100
AcDbEntity
  8
表格
  6
Continuous
370
18
100
AcDbLine
 10
290.0
 20
48.0
 30
0.0
 11
330.0
 21
48.0
 31
0.0
  0
LINE
  5
1C8
330
17
100
AcDbEntity
  8
表格
  6
Continuous
370
18
100
AcDbLine
 10
330.0
 20
48.0
 30
0.0
 11
330.0
 21
55.5
 31
0.0
  0
LINE
  5
1C9
330
17
100
AcDbEntity
  8
表格
  6
Continuous
370
18
100
AcDbLine
 10
330.0
 20
55.5
 30
0.0
 11
290.0
 21
55.5
 31
0.0
  0
LINE
  5
1CA
330
17
100
AcDbEntity
  8
表格
  6
Continuous
370
18
100
AcDbLine
 10
290.0
 20
55.5
 30
0.0
 11
290.0
 21
48.0
 31
0.0
  0
TEXT
  5
1CB
330
17
100
AcDbEntity
  8
表格
100
AcDbText
 10
291.2
 20
51.75
 30
0.0
 40
2.2
  1
FE-1002
  7
CN
 11
291.2
 21
51.75
 31
0.0
100
AcDbText
 73
2
  0
LINE
  5
1CC
330
17
100
AcDbEntity
  8
表格
  6
Continuous
370
18
100
AcDbLine
 10
30.0
 20
40.5
 30
0.0
 11
48.0
 21
40.5
 31
0.0
  0
LINE
  5
1CD
330
17
100
AcDbEntity
  8
表格
  6
Continuous
370
18
100
AcDbLine
 10
48.0
 20
40.5
 30
0.0
 11
48.0
 21
48.0
 31
0.0
  0
LINE
  5
1CE
330
17
100
AcDbEntity
  8
表格
  6
Continuous
370
18
100
AcDbLine
 10
48.0
 20
48.0
 30
0.0
 11
30.0
 21
48.0
 31
0.0
  0
LINE
  5
1CF
330
17
100
AcDbEntity
  8
表格
  6
Continuous
370
18
100
AcDbLine
 10
30.0
 20
48.0
 30
0.0
 11
30.0
 21
40.5
 31
0.0
  0
TEXT
  5
1D0
330
17
100
AcDbEntity
  8
表格
100
AcDbText
 10
31.2
 20
44.25
 30
0.0
 40
2.2
  1
4
  7
CN
 11
31.2
 21
44.25
 31
0.0
100
AcDbText
 73
2
  0
LINE
  5
1D1
330
17
100
AcDbEntity
  8
表格
  6
Continuous
370
18
100
AcDbLine
 10
48.0
 20
40.5
 30
0.0
 11
90.0
 21
40.5
 31
0.0
  0
LINE
  5
1D2
330
17
100
AcDbEntity
  8
表格
  6
Continuous
370
18
100
AcDbLine
 10
90.0
 20
40.5
 30
0.0
 11
90.0
 21
48.0
 31
0.0
  0
LINE
  5
1D3
330
17
100
AcDbEntity
  8
表格
  6
Continuous
370
18
100
AcDbLine
 10
90.0
 20
48.0
 30
0.0
 11
48.0
 21
48.0
 31
0.0
  0
LINE
  5
1D4
330
17
100
AcDbEntity
  8
表格
  6
Continuous
370
18
100
AcDbLine
 10
48.0
 20
48.0
 30
0.0
 11
48.0
 21
40.5
 31
0.0
  0
TEXT
  5
1D5
330
17
100
AcDbEntity
  8
表格
100
AcDbText
 10
49.2
 20
44.25
 30
0.0
 40
2.2
  1
FE-1002-00-4
  7
CN
 11
49.2
 21
44.25
 31
0.0
100
AcDbText
 73
2
  0
LINE
  5
1D6
330
17
100
AcDbEntity
  8
表格
  6
Continuous
370
18
100
AcDbLine
 10
90.0
 20
40.5
 30
0.0
 11
138.0
 21
40.5
 31
0.0
  0
LINE
  5
1D7
330
17
100
AcDbEntity
  8
表格
  6
Continuous
370
18
100
AcDbLine
 10
138.0
 20
40.5
 30
0.0
 11
138.0
 21
48.0
 31
0.0
  0
LINE
  5
1D8
330
17
100
AcDbEntity
  8
表格
  6
Continuous
370
18
100
AcDbLine
 10
138.0
 20
48.0
 30
0.0
 11
90.0
 21
48.0
 31
0.0
  0
LINE
  5
1D9
330
17
100
AcDbEntity
  8
表格
  6
Continuous
370
18
100
AcDbLine
 10
90.0
 20
48.0
 30
0.0
 11
90.0
 21
40.5
 31
0.0
  0
TEXT
  5
1DA
330
17
100
AcDbEntity
  8
表格
100
AcDbText
 10
91.2
 20
44.25
 30
0.0
 40
2.2
  1
上游取压管
  7
CN
 11
91.2
 21
44.25
 31
0.0
100
AcDbText
 73
2
  0
LINE
  5
1DB
330
17
100
AcDbEntity
  8
表格
  6
Continuous
370
18
100
AcDbLine
 10
138.0
 20
40.5
 30
0.0
 11
268.0
 21
40.5
 31
0.0
  0
LINE
  5
1DC
330
17
100
AcDbEntity
  8
表格
  6
Continuous
370
18
100
AcDbLine
 10
268.0
 20
40.5
 30
0.0
 11
268.0
 21
48.0
 31
0.0
  0
LINE
  5
1DD
330
17
100
AcDbEntity
  8
表格
  6
Continuous
370
18
100
AcDbLine
 10
268.0
 20
48.0
 30
0.0
 11
138.0
 21
48.0
 31
0.0
  0
LINE
  5
1DE
330
17
100
AcDbEntity
  8
表格
  6
Continuous
370
18
100
AcDbLine
 10
138.0
 20
48.0
 30
0.0
 11
138.0
 21
40.5
 31
0.0
  0
TEXT
  5
1DF
330
17
100
AcDbEntity
  8
表格
100
AcDbText
 10
139.2
 20
44.25
 30
0.0
 40
2.2
  1
DN15 Φ21.3×2.77 L=100.0 F304/F304L
  7
CN
 11
139.2
 21
44.25
 31
0.0
100
AcDbText
 73
2
  0
LINE
  5
1E0
330
17
100
AcDbEntity
  8
表格
  6
Continuous
370
18
100
AcDbLine
 10
268.0
 20
40.5
 30
0.0
 11
290.0
 21
40.5
 31
0.0
  0
LINE
  5
1E1
330
17
100
AcDbEntity
  8
表格
  6
Continuous
370
18
100
AcDbLine
 10
290.0
 20
40.5
 30
0.0
 11
290.0
 21
48.0
 31
0.0
  0
LINE
  5
1E2
330
17
100
AcDbEntity
  8
表格
  6
Continuous
370
18
100
AcDbLine
 10
290.0
 20
48.0
 30
0.0
 11
268.0
 21
48.0
 31
0.0
  0
LINE
  5
1E3
330
17
100
AcDbEntity
  8
表格
  6
Continuous
370
18
100
AcDbLine
 10
268.0
 20
48.0
 30
0.0
 11
268.0
 21
40.5
 31
0.0
  0
TEXT
  5
1E4
330
17
100
AcDbEntity
  8
表格
100
AcDbText
 10
269.2
 20
44.25
 30
0.0
 40
2.2
  1
1
  7
CN
 11
269.2
 21
44.25
 31
0.0
100
AcDbText
 73
2
  0
LINE
  5
1E5
330
17
100
AcDbEntity
  8
表格
  6
Continuous
370
18
100
AcDbLine
 10
290.0
 20
40.5
 30
0.0
 11
330.0
 21
40.5
 31
0.0
  0
LINE
  5
1E6
330
17
100
AcDbEntity
  8
表格
  6
Continuous
370
18
100
AcDbLine
 10
330.0
 20
40.5
 30
0.0
 11
330.0
 21
48.0
 31
0.0
  0
LINE
  5
1E7
330
17
100
AcDbEntity
  8
表格
  6
Continuous
370
18
100
AcDbLine
 10
330.0
 20
48.0
 30
0.0
 11
290.0
 21
48.0
 31
0.0
  0
LINE
  5
1E8
330
17
100
AcDbEntity
  8
表格
  6
Continuous
370
18
100
AcDbLine
 10
290.0
 20
48.0
 30
0.0
 11
290.0
 21
40.5
 31
0.0
  0
TEXT
  5
1E9
330
17
100
AcDbEntity
  8
表格
100
AcDbText
 10
291.2
 20
44.25
 30
0.0
 40
2.2
  1
BW
  7
CN
 11
291.2
 21
44.25
 31
0.0
100
AcDbText
 73
2
  0
LINE
  5
1EA
330
17
100
AcDbEntity
  8
表格
  6
Continuous
370
18
100
AcDbLine
 10
30.0
 20
33.0
 30
0.0
 11
48.0
 21
33.0
 31
0.0
  0
LINE
  5
1EB
330
17
100
AcDbEntity
  8
表格
  6
Continuous
370
18
100
AcDbLine
 10
48.0
 20
33.0
 30
0.0
 11
48.0
 21
40.5
 31
0.0
  0
LINE
  5
1EC
330
17
100
AcDbEntity
  8
表格
  6
Continuous
370
18
100
AcDbLine
 10
48.0
 20
40.5
 30
0.0
 11
30.0
 21
40.5
 31
0.0
  0
LINE
  5
1ED
330
17
100
AcDbEntity
  8
表格
  6
Continuous
370
18
100
AcDbLine
 10
30.0
 20
40.5
 30
0.0
 11
30.0
 21
33.0
 31
0.0
  0
TEXT
  5
1EE
330
17
100
AcDbEntity
  8
表格
100
AcDbText
 10
31.2
 20
36.75
 30
0.0
 40
2.2
  1
5
  7
CN
 11
31.2
 21
36.75
 31
0.0
100
AcDbText
 73
2
  0
LINE
  5
1EF
330
17
100
AcDbEntity
  8
表格
  6
Continuous
370
18
100
AcDbLine
 10
48.0
 20
33.0
 30
0.0
 11
90.0
 21
33.0
 31
0.0
  0
LINE
  5
1F0
330
17
100
AcDbEntity
  8
表格
  6
Continuous
370
18
100
AcDbLine
 10
90.0
 20
33.0
 30
0.0
 11
90.0
 21
40.5
 31
0.0
  0
LINE
  5
1F1
330
17
100
AcDbEntity
  8
表格
  6
Continuous
370
18
100
AcDbLine
 10
90.0
 20
40.5
 30
0.0
 11
48.0
 21
40.5
 31
0.0
  0
LINE
  5
1F2
330
17
100
AcDbEntity
  8
表格
  6
Continuous
370
18
100
AcDbLine
 10
48.0
 20
40.5
 30
0.0
 11
48.0
 21
33.0
 31
0.0
  0
TEXT
  5
1F3
330
17
100
AcDbEntity
  8
表格
100
AcDbText
 10
49.2
 20
36.75
 30
0.0
 40
2.2
  1
FE-1002-00-4
  7
CN
 11
49.2
 21
36.75
 31
0.0
100
AcDbText
 73
2
  0
LINE
  5
1F4
330
17
100
AcDbEntity
  8
表格
  6
Continuous
370
18
100
AcDbLine
 10
90.0
 20
33.0
 30
0.0
 11
138.0
 21
33.0
 31
0.0
  0
LINE
  5
1F5
330
17
100
AcDbEntity
  8
表格
  6
Continuous
370
18
100
AcDbLine
 10
138.0
 20
33.0
 30
0.0
 11
138.0
 21
40.5
 31
0.0
  0
LINE
  5
1F6
330
17
100
AcDbEntity
  8
表格
  6
Continuous
370
18
100
AcDbLine
 10
138.0
 20
40.5
 30
0.0
 11
90.0
 21
40.5
 31
0.0
  0
LINE
  5
1F7
330
17
100
AcDbEntity
  8
表格
  6
Continuous
370
18
100
AcDbLine
 10
90.0
 20
40.5
 30
0.0
 11
90.0
 21
33.0
 31
0.0
  0
TEXT
  5
1F8
330
17
100
AcDbEntity
  8
表格
100
AcDbText
 10
91.2
 20
36.75
 30
0.0
 40
2.2
  1
下游取压管
  7
CN
 11
91.2
 21
36.75
 31
0.0
100
AcDbText
 73
2
  0
LINE
  5
1F9
330
17
100
AcDbEntity
  8
表格
  6
Continuous
370
18
100
AcDbLine
 10
138.0
 20
33.0
 30
0.0
 11
268.0
 21
33.0
 31
0.0
  0
LINE
  5
1FA
330
17
100
AcDbEntity
  8
表格
  6
Continuous
370
18
100
AcDbLine
 10
268.0
 20
33.0
 30
0.0
 11
268.0
 21
40.5
 31
0.0
  0
LINE
  5
1FB
330
17
100
AcDbEntity
  8
表格
  6
Continuous
370
18
100
AcDbLine
 10
268.0
 20
40.5
 30
0.0
 11
138.0
 21
40.5
 31
0.0
  0
LINE
  5
1FC
330
17
100
AcDbEntity
  8
表格
  6
Continuous
370
18
100
AcDbLine
 10
138.0
 20
40.5
 30
0.0
 11
138.0
 21
33.0
 31
0.0
  0
TEXT
  5
1FD
330
17
100
AcDbEntity
  8
表格
100
AcDbText
 10
139.2
 20
36.75
 30
0.0
 40
2.2
  1
DN15 Φ21.3×2.77 L=100.0 F304/F304L
  7
CN
 11
139.2
 21
36.75
 31
0.0
100
AcDbText
 73
2
  0
LINE
  5
1FE
330
17
100
AcDbEntity
  8
表格
  6
Continuous
370
18
100
AcDbLine
 10
268.0
 20
33.0
 30
0.0
 11
290.0
 21
33.0
 31
0.0
  0
LINE
  5
1FF
330
17
100
AcDbEntity
  8
表格
  6
Continuous
370
18
100
AcDbLine
 10
290.0
 20
33.0
 30
0.0
 11
290.0
 21
40.5
 31
0.0
  0
LINE
  5
200
330
17
100
AcDbEntity
  8
表格
  6
Continuous
370
18
100
AcDbLine
 10
290.0
 20
40.5
 30
0.0
 11
268.0
 21
40.5
 31
0.0
  0
LINE
  5
201
330
17
100
AcDbEntity
  8
表格
  6
Continuous
370
18
100
AcDbLine
 10
268.0
 20
40.5
 30
0.0
 11
268.0
 21
33.0
 31
0.0
  0
TEXT
  5
202
330
17
100
AcDbEntity
  8
表格
100
AcDbText
 10
269.2
 20
36.75
 30
0.0
 40
2.2
  1
1
  7
CN
 11
269.2
 21
36.75
 31
0.0
100
AcDbText
 73
2
  0
LINE
  5
203
330
17
100
AcDbEntity
  8
表格
  6
Continuous
370
18
100
AcDbLine
 10
290.0
 20
33.0
 30
0.0
 11
330.0
 21
33.0
 31
0.0
  0
LINE
  5
204
330
17
100
AcDbEntity
  8
表格
  6
Continuous
370
18
100
AcDbLine
 10
330.0
 20
33.0
 30
0.0
 11
330.0
 21
40.5
 31
0.0
  0
LINE
  5
205
330
17
100
AcDbEntity
  8
表格
  6
Continuous
370
18
100
AcDbLine
 10
330.0
 20
40.5
 30
0.0
 11
290.0
 21
40.5
 31
0.0
  0
LINE
  5
206
330
17
100
AcDbEntity
  8
表格
  6
Continuous
370
18
100
AcDbLine
 10
290.0
 20
40.5
 30
0.0
 11
290.0
 21
33.0
 31
0.0
  0
TEXT
  5
207
330
17
100
AcDbEntity
  8
表格
100
AcDbText
 10
291.2
 20
36.75
 30
0.0
 40
2.2
  1
BW
  7
CN
 11
291.2
 21
36.75
 31
0.0
100
AcDbText
 73
2
  0
LINE
  5
208
330
17
100
AcDbEntity
  8
表格
  6
Continuous
370
18
100
AcDbLine
 10
30.0
 20
25.5
 30
0.0
 11
48.0
 21
25.5
 31
0.0
  0
LINE
  5
209
330
17
100
AcDbEntity
  8
表格
  6
Continuous
370
18
100
AcDbLine
 10
48.0
 20
25.5
 30
0.0
 11
48.0
 21
33.0
 31
0.0
  0
LINE
  5
20A
330
17
100
AcDbEntity
  8
表格
  6
Continuous
370
18
100
AcDbLine
 10
48.0
 20
33.0
 30
0.0
 11
30.0
 21
33.0
 31
0.0
  0
LINE
  5
20B
330
17
100
AcDbEntity
  8
表格
  6
Continuous
370
18
100
AcDbLine
 10
30.0
 20
33.0
 30
0.0
 11
30.0
 21
25.5
 31
0.0
  0
TEXT
  5
20C
330
17
100
AcDbEntity
  8
表格
100
AcDbText
 10
31.2
 20
29.25
 30
0.0
 40
2.2
  1
6
  7
CN
 11
31.2
 21
29.25
 31
0.0
100
AcDbText
 73
2
  0
LINE
  5
20D
330
17
100
AcDbEntity
  8
表格
  6
Continuous
370
18
100
AcDbLine
 10
48.0
 20
25.5
 30
0.0
 11
90.0
 21
25.5
 31
0.0
  0
LINE
  5
20E
330
17
100
AcDbEntity
  8
表格
  6
Continuous
370
18
100
AcDbLine
 10
90.0
 20
25.5
 30
0.0
 11
90.0
 21
33.0
 31
0.0
  0
LINE
  5
20F
330
17
100
AcDbEntity
  8
表格
  6
Continuous
370
18
100
AcDbLine
 10
90.0
 20
33.0
 30
0.0
 11
48.0
 21
33.0
 31
0.0
  0
LINE
  5
210
330
17
100
AcDbEntity
  8
表格
  6
Continuous
370
18
100
AcDbLine
 10
48.0
 20
33.0
 30
0.0
 11
48.0
 21
25.5
 31
0.0
  0
TEXT
  5
211
330
17
100
AcDbEntity
  8
表格
100
AcDbText
 10
49.2
 20
29.25
 30
0.0
 40
2.2
  1
-
  7
CN
 11
49.2
 21
29.25
 31
0.0
100
AcDbText
 73
2
  0
LINE
  5
212
330
17
100
AcDbEntity
  8
表格
  6
Continuous
370
18
100
AcDbLine
 10
90.0
 20
25.5
 30
0.0
 11
138.0
 21
25.5
 31
0.0
  0
LINE
  5
213
330
17
100
AcDbEntity
  8
表格
  6
Continuous
370
18
100
AcDbLine
 10
138.0
 20
25.5
 30
0.0
 11
138.0
 21
33.0
 31
0.0
  0
LINE
  5
214
330
17
100
AcDbEntity
  8
表格
  6
Continuous
370
18
100
AcDbLine
 10
138.0
 20
33.0
 30
0.0
 11
90.0
 21
33.0
 31
0.0
  0
LINE
  5
215
330
17
100
AcDbEntity
  8
表格
  6
Continuous
370
18
100
AcDbLine
 10
90.0
 20
33.0
 30
0.0
 11
90.0
 21
25.5
 31
0.0
  0
TEXT
  5
216
330
17
100
AcDbEntity
  8
表格
100
AcDbText
 10
91.2
 20
29.25
 30
0.0
 40
2.2
  1
螺柱/螺母
  7
CN
 11
91.2
 21
29.25
 31
0.0
100
AcDbText
 73
2
  0
LINE
  5
217
330
17
100
AcDbEntity
  8
表格
  6
Continuous
370
18
100
AcDbLine
 10
138.0
 20
25.5
 30
0.0
 11
268.0
 21
25.5
 31
0.0
  0
LINE
  5
218
330
17
100
AcDbEntity
  8
表格
  6
Continuous
370
18
100
AcDbLine
 10
268.0
 20
25.5
 30
0.0
 11
268.0
 21
33.0
 31
0.0
  0
LINE
  5
219
330
17
100
AcDbEntity
  8
表格
  6
Continuous
370
18
100
AcDbLine
 10
268.0
 20
33.0
 30
0.0
 11
138.0
 21
33.0
 31
0.0
  0
LINE
  5
21A
330
17
100
AcDbEntity
  8
表格
  6
Continuous
370
18
100
AcDbLine
 10
138.0
 20
33.0
 30
0.0
 11
138.0
 21
25.5
 31
0.0
  0
TEXT
  5
21B
330
17
100
AcDbEntity
  8
表格
100
AcDbText
 10
139.2
 20
29.25
 30
0.0
 40
2.2
  1
M27 全螺纹  螺柱B8M / 螺母B8M
  7
CN
 11
139.2
 21
29.25
 31
0.0
100
AcDbText
 73
2
  0
LINE
  5
21C
330
17
100
AcDbEntity
  8
表格
  6
Continuous
370
18
100
AcDbLine
 10
268.0
 20
25.5
 30
0.0
 11
290.0
 21
25.5
 31
0.0
  0
LINE
  5
21D
330
17
100
AcDbEntity
  8
表格
  6
Continuous
370
18
100
AcDbLine
 10
290.0
 20
25.5
 30
0.0
 11
290.0
 21
33.0
 31
0.0
  0
LINE
  5
21E
330
17
100
AcDbEntity
  8
表格
  6
Continuous
370
18
100
AcDbLine
 10
290.0
 20
33.0
 30
0.0
 11
268.0
 21
33.0
 31
0.0
  0
LINE
  5
21F
330
17
100
AcDbEntity
  8
表格
  6
Continuous
370
18
100
AcDbLine
 10
268.0
 20
33.0
 30
0.0
 11
268.0
 21
25.5
 31
0.0
  0
TEXT
  5
220
330
17
100
AcDbEntity
  8
表格
100
AcDbText
 10
269.2
 20
29.25
 30
0.0
 40
2.2
  1
12
  7
CN
 11
269.2
 21
29.25
 31
0.0
100
AcDbText
 73
2
  0
LINE
  5
221
330
17
100
AcDbEntity
  8
表格
  6
Continuous
370
18
100
AcDbLine
 10
290.0
 20
25.5
 30
0.0
 11
330.0
 21
25.5
 31
0.0
  0
LINE
  5
222
330
17
100
AcDbEntity
  8
表格
  6
Continuous
370
18
100
AcDbLine
 10
330.0
 20
25.5
 30
0.0
 11
330.0
 21
33.0
 31
0.0
  0
LINE
  5
223
330
17
100
AcDbEntity
  8
表格
  6
Continuous
370
18
100
AcDbLine
 10
330.0
 20
33.0
 30
0.0
 11
290.0
 21
33.0
 31
0.0
  0
LINE
  5
224
330
17
100
AcDbEntity
  8
表格
  6
Continuous
370
18
100
AcDbLine
 10
290.0
 20
33.0
 30
0.0
 11
290.0
 21
25.5
 31
0.0
  0
TEXT
  5
225
330
17
100
AcDbEntity
  8
表格
100
AcDbText
 10
291.2
 20
29.25
 30
0.0
 40
2.2
  1
含垫圈
  7
CN
 11
291.2
 21
29.25
 31
0.0
100
AcDbText
 73
2
  0
LINE
  5
226
330
17
100
AcDbEntity
  8
表格
  6
Continuous
370
18
100
AcDbLine
 10
30.0
 20
18.0
 30
0.0
 11
48.0
 21
18.0
 31
0.0
  0
LINE
  5
227
330
17
100
AcDbEntity
  8
表格
  6
Continuous
370
18
100
AcDbLine
 10
48.0
 20
18.0
 30
0.0
 11
48.0
 21
25.5
 31
0.0
  0
LINE
  5
228
330
17
100
AcDbEntity
  8
表格
  6
Continuous
370
18
100
AcDbLine
 10
48.0
 20
25.5
 30
0.0
 11
30.0
 21
25.5
 31
0.0
  0
LINE
  5
229
330
17
100
AcDbEntity
  8
表格
  6
Continuous
370
18
100
AcDbLine
 10
30.0
 20
25.5
 30
0.0
 11
30.0
 21
18.0
 31
0.0
  0
TEXT
  5
22A
330
17
100
AcDbEntity
  8
表格
100
AcDbText
 10
31.2
 20
21.75
 30
0.0
 40
2.2
  1
7
  7
CN
 11
31.2
 21
21.75
 31
0.0
100
AcDbText
 73
2
  0
LINE
  5
22B
330
17
100
AcDbEntity
  8
表格
  6
Continuous
370
18
100
AcDbLine
 10
48.0
 20
18.0
 30
0.0
 11
90.0
 21
18.0
 31
0.0
  0
LINE
  5
22C
330
17
100
AcDbEntity
  8
表格
  6
Continuous
370
18
100
AcDbLine
 10
90.0
 20
18.0
 30
0.0
 11
90.0
 21
25.5
 31
0.0
  0
LINE
  5
22D
330
17
100
AcDbEntity
  8
表格
  6
Continuous
370
18
100
AcDbLine
 10
90.0
 20
25.5
 30
0.0
 11
48.0
 21
25.5
 31
0.0
  0
LINE
  5
22E
330
17
100
AcDbEntity
  8
表格
  6
Continuous
370
18
100
AcDbLine
 10
48.0
 20
25.5
 30
0.0
 11
48.0
 21
18.0
 31
0.0
  0
TEXT
  5
22F
330
17
100
AcDbEntity
  8
表格
100
AcDbText
 10
49.2
 20
21.75
 30
0.0
 40
2.2
  1
-
  7
CN
 11
49.2
 21
21.75
 31
0.0
100
AcDbText
 73
2
  0
LINE
  5
230
330
17
100
AcDbEntity
  8
表格
  6
Continuous
370
18
100
AcDbLine
 10
90.0
 20
18.0
 30
0.0
 11
138.0
 21
18.0
 31
0.0
  0
LINE
  5
231
330
17
100
AcDbEntity
  8
表格
  6
Continuous
370
18
100
AcDbLine
 10
138.0
 20
18.0
 30
0.0
 11
138.0
 21
25.5
 31
0.0
  0
LINE
  5
232
330
17
100
AcDbEntity
  8
表格
  6
Continuous
370
18
100
AcDbLine
 10
138.0
 20
25.5
 30
0.0
 11
90.0
 21
25.5
 31
0.0
  0
LINE
  5
233
330
17
100
AcDbEntity
  8
表格
  6
Continuous
370
18
100
AcDbLine
 10
90.0
 20
25.5
 30
0.0
 11
90.0
 21
18.0
 31
0.0
  0
TEXT
  5
234
330
17
100
AcDbEntity
  8
表格
100
AcDbText
 10
91.2
 20
21.75
 30
0.0
 40
2.2
  1
缠绕垫
  7
CN
 11
91.2
 21
21.75
 31
0.0
100
AcDbText
 73
2
  0
LINE
  5
235
330
17
100
AcDbEntity
  8
表格
  6
Continuous
370
18
100
AcDbLine
 10
138.0
 20
18.0
 30
0.0
 11
268.0
 21
18.0
 31
0.0
  0
LINE
  5
236
330
17
100
AcDbEntity
  8
表格
  6
Continuous
370
18
100
AcDbLine
 10
268.0
 20
18.0
 30
0.0
 11
268.0
 21
25.5
 31
0.0
  0
LINE
  5
237
330
17
100
AcDbEntity
  8
表格
  6
Continuous
370
18
100
AcDbLine
 10
268.0
 20
25.5
 30
0.0
 11
138.0
 21
25.5
 31
0.0
  0
LINE
  5
238
330
17
100
AcDbEntity
  8
表格
  6
Continuous
370
18
100
AcDbLine
 10
138.0
 20
25.5
 30
0.0
 11
138.0
 21
18.0
 31
0.0
  0
TEXT
  5
239
330
17
100
AcDbEntity
  8
表格
100
AcDbText
 10
139.2
 20
21.75
 30
0.0
 40
2.2
  1
DN250 PN25  缠绕垫 PN25 RF 内环304+柔性石墨(深冷)
  7
CN
 11
139.2
 21
21.75
 31
0.0
100
AcDbText
 73
2
  0
LINE
  5
23A
330
17
100
AcDbEntity
  8
表格
  6
Continuous
370
18
100
AcDbLine
 10
268.0
 20
18.0
 30
0.0
 11
290.0
 21
18.0
 31
0.0
  0
LINE
  5
23B
330
17
100
AcDbEntity
  8
表格
  6
Continuous
370
18
100
AcDbLine
 10
290.0
 20
18.0
 30
0.0
 11
290.0
 21
25.5
 31
0.0
  0
LINE
  5
23C
330
17
100
AcDbEntity
  8
表格
  6
Continuous
370
18
100
AcDbLine
 10
290.0
 20
25.5
 30
0.0
 11
268.0
 21
25.5
 31
0.0
  0
LINE
  5
23D
330
17
100
AcDbEntity
  8
表格
  6
Continuous
370
18
100
AcDbLine
 10
268.0
 20
25.5
 30
0.0
 11
268.0
 21
18.0
 31
0.0
  0
TEXT
  5
23E
330
17
100
AcDbEntity
  8
表格
100
AcDbText
 10
269.2
 20
21.75
 30
0.0
 40
2.2
  1
2
  7
CN
 11
269.2
 21
21.75
 31
0.0
100
AcDbText
 73
2
  0
LINE
  5
23F
330
17
100
AcDbEntity
  8
表格
  6
Continuous
370
18
100
AcDbLine
 10
290.0
 20
18.0
 30
0.0
 11
330.0
 21
18.0
 31
0.0
  0
LINE
  5
240
330
17
100
AcDbEntity
  8
表格
  6
Continuous
370
18
100
AcDbLine
 10
330.0
 20
18.0
 30
0.0
 11
330.0
 21
25.5
 31
0.0
  0
LINE
  5
241
330
17
100
AcDbEntity
  8
表格
  6
Continuous
370
18
100
AcDbLine
 10
330.0
 20
25.5
 30
0.0
 11
290.0
 21
25.5
 31
0.0
  0
LINE
  5
242
330
17
100
AcDbEntity
  8
表格
  6
Continuous
370
18
100
AcDbLine
 10
290.0
 20
25.5
 30
0.0
 11
290.0
 21
18.0
 31
0.0
  0
TEXT
  5
243
330
17
100
AcDbEntity
  8
表格
100
AcDbText
 10
291.2
 20
21.75
 30
0.0
 40
2.2
  1
深冷
  7
CN
 11
291.2
 21
21.75
 31
0.0
100
AcDbText
 73
2
  0
LINE
  5
244
330
17
100
AcDbEntity
  8
表格
  6
Continuous
370
18
100
AcDbLine
 10
30.0
 20
10.5
 30
0.0
 11
48.0
 21
10.5
 31
0.0
  0
LINE
  5
245
330
17
100
AcDbEntity
  8
表格
  6
Continuous
370
18
100
AcDbLine
 10
48.0
 20
10.5
 30
0.0
 11
48.0
 21
18.0
 31
0.0
  0
LINE
  5
246
330
17
100
AcDbEntity
  8
表格
  6
Continuous
370
18
100
AcDbLine
 10
48.0
 20
18.0
 30
0.0
 11
30.0
 21
18.0
 31
0.0
  0
LINE
  5
247
330
17
100
AcDbEntity
  8
表格
  6
Continuous
370
18
100
AcDbLine
 10
30.0
 20
18.0
 30
0.0
 11
30.0
 21
10.5
 31
0.0
  0
TEXT
  5
248
330
17
100
AcDbEntity
  8
表格
100
AcDbText
 10
31.2
 20
14.25
 30
0.0
 40
2.2
  1
8
  7
CN
 11
31.2
 21
14.25
 31
0.0
100
AcDbText
 73
2
  0
LINE
  5
249
330
17
100
AcDbEntity
  8
表格
  6
Continuous
370
18
100
AcDbLine
 10
48.0
 20
10.5
 30
0.0
 11
90.0
 21
10.5
 31
0.0
  0
LINE
  5
24A
330
17
100
AcDbEntity
  8
表格
  6
Continuous
370
18
100
AcDbLine
 10
90.0
 20
10.5
 30
0.0
 11
90.0
 21
18.0
 31
0.0
  0
LINE
  5
24B
330
17
100
AcDbEntity
  8
表格
  6
Continuous
370
18
100
AcDbLine
 10
90.0
 20
18.0
 30
0.0
 11
48.0
 21
18.0
 31
0.0
  0
LINE
  5
24C
330
17
100
AcDbEntity
  8
表格
  6
Continuous
370
18
100
AcDbLine
 10
48.0
 20
18.0
 30
0.0
 11
48.0
 21
10.5
 31
0.0
  0
TEXT
  5
24D
330
17
100
AcDbEntity
  8
表格
100
AcDbText
 10
49.2
 20
14.25
 30
0.0
 40
2.2
  1
FE-1002-00-5
  7
CN
 11
49.2
 21
14.25
 31
0.0
100
AcDbText
 73
2
  0
LINE
  5
24E
330
17
100
AcDbEntity
  8
表格
  6
Continuous
370
18
100
AcDbLine
 10
90.0
 20
10.5
 30
0.0
 11
138.0
 21
10.5
 31
0.0
  0
LINE
  5
24F
330
17
100
AcDbEntity
  8
表格
  6
Continuous
370
18
100
AcDbLine
 10
138.0
 20
10.5
 30
0.0
 11
138.0
 21
18.0
 31
0.0
  0
LINE
  5
250
330
17
100
AcDbEntity
  8
表格
  6
Continuous
370
18
100
AcDbLine
 10
138.0
 20
18.0
 30
0.0
 11
90.0
 21
18.0
 31
0.0
  0
LINE
  5
251
330
17
100
AcDbEntity
  8
表格
  6
Continuous
370
18
100
AcDbLine
 10
90.0
 20
18.0
 30
0.0
 11
90.0
 21
10.5
 31
0.0
  0
TEXT
  5
252
330
17
100
AcDbEntity
  8
表格
100
AcDbText
 10
91.2
 20
14.25
 30
0.0
 40
2.2
  1
短节
  7
CN
 11
91.2
 21
14.25
 31
0.0
100
AcDbText
 73
2
  0
LINE
  5
253
330
17
100
AcDbEntity
  8
表格
  6
Continuous
370
18
100
AcDbLine
 10
138.0
 20
10.5
 30
0.0
 11
268.0
 21
10.5
 31
0.0
  0
LINE
  5
254
330
17
100
AcDbEntity
  8
表格
  6
Continuous
370
18
100
AcDbLine
 10
268.0
 20
10.5
 30
0.0
 11
268.0
 21
18.0
 31
0.0
  0
LINE
  5
255
330
17
100
AcDbEntity
  8
表格
  6
Continuous
370
18
100
AcDbLine
 10
268.0
 20
18.0
 30
0.0
 11
138.0
 21
18.0
 31
0.0
  0
LINE
  5
256
330
17
100
AcDbEntity
  8
表格
  6
Continuous
370
18
100
AcDbLine
 10
138.0
 20
18.0
 30
0.0
 11
138.0
 21
10.5
 31
0.0
  0
TEXT
  5
257
330
17
100
AcDbEntity
  8
表格
100
AcDbText
 10
139.2
 20
14.25
 30
0.0
 40
2.2
  1
Φ273.0×4.0 L=120.0 F304/F304L
  7
CN
 11
139.2
 21
14.25
 31
0.0
100
AcDbText
 73
2
  0
LINE
  5
258
330
17
100
AcDbEntity
  8
表格
  6
Continuous
370
18
100
AcDbLine
 10
268.0
 20
10.5
 30
0.0
 11
290.0
 21
10.5
 31
0.0
  0
LINE
  5
259
330
17
100
AcDbEntity
  8
表格
  6
Continuous
370
18
100
AcDbLine
 10
290.0
 20
10.5
 30
0.0
 11
290.0
 21
18.0
 31
0.0
  0
LINE
  5
25A
330
17
100
AcDbEntity
  8
表格
  6
Continuous
370
18
100
AcDbLine
 10
290.0
 20
18.0
 30
0.0
 11
268.0
 21
18.0
 31
0.0
  0
LINE
  5
25B
330
17
100
AcDbEntity
  8
表格
  6
Continuous
370
18
100
AcDbLine
 10
268.0
 20
18.0
 30
0.0
 11
268.0
 21
10.5
 31
0.0
  0
TEXT
  5
25C
330
17
100
AcDbEntity
  8
表格
100
AcDbText
 10
269.2
 20
14.25
 30
0.0
 40
2.2
  1
2
  7
CN
 11
269.2
 21
14.25
 31
0.0
100
AcDbText
 73
2
  0
LINE
  5
25D
330
17
100
AcDbEntity
  8
表格
  6
Continuous
370
18
100
AcDbLine
 10
290.0
 20
10.5
 30
0.0
 11
330.0
 21
10.5
 31
0.0
  0
LINE
  5
25E
330
17
100
AcDbEntity
  8
表格
  6
Continuous
370
18
100
AcDbLine
 10
330.0
 20
10.5
 30
0.0
 11
330.0
 21
18.0
 31
0.0
  0
LINE
  5
25F
330
17
100
AcDbEntity
  8
表格
  6
Continuous
370
18
100
AcDbLine
 10
330.0
 20
18.0
 30
0.0
 11
290.0
 21
18.0
 31
0.0
  0
LINE
  5
260
330
17
100
AcDbEntity
  8
表格
  6
Continuous
370
18
100
AcDbLine
 10
290.0
 20
18.0
 30
0.0
 11
290.0
 21
10.5
 31
0.0
  0
TEXT
  5
261
330
17
100
AcDbEntity
  8
表格
100
AcDbText
 10
291.2
 20
14.25
 30
0.0
 40
2.2
  1
BW
  7
CN
 11
291.2
 21
14.25
 31
0.0
100
AcDbText
 73
2
  0
TEXT
  5
262
330
17
100
AcDbEntity
  8
文字
100
AcDbText
 10
30.0
 20
272.0
 30
0.0
 40
3.2
  1
技术要求
  7
CN
 11
30.0
 21
272.0
 31
0.0
100
AcDbText
 73
3
  0
TEXT
  5
263
330
17
100
AcDbEntity
  8
文字
100
AcDbText
 10
30.0
 20
264.8
 30
0.0
 40
2.6
  1
1. 按 GB/T2624.2 / ISO5167-2 法兰取压；孔径 d=136.18（20℃），深冷按 Fa=0.9938 复核。
  7
CN
 11
30.0
 21
264.8
 31
0.0
100
AcDbText
 73
3
  0
TEXT
  5
264
330
17
100
AcDbEntity
  8
文字
100
AcDbText
 10
30.0
 20
257.6
 30
0.0
 40
2.6
  1
2. 取压孔轴线距孔板上/下游端面 25.4±0.8；取压孔径 Φ8.0（≤13 且 <0.13D）。
  7
CN
 11
30.0
 21
257.6
 31
0.0
100
AcDbText
 73
3
  0
TEXT
  5
265
330
17
100
AcDbEntity
  8
文字
100
AcDbText
 10
30.0
 20
250.4
 30
0.0
 40
2.6
  1
3. 孔板上游迎流，下游 45° 倒角；入口锐边不得倒钝；装配时手柄朝上。
  7
CN
 11
30.0
 21
250.4
 31
0.0
100
AcDbText
 73
3
  0
TEXT
  5
266
330
17
100
AcDbEntity
  8
文字
100
AcDbText
 10
30.0
 20
243.2
 30
0.0
 40
2.6
  1
4. 介质 LNG，Tf=-162.0℃，Pf=600.0 kPaG；材料 F304/F304L；深冷焊接及酸洗钝化按批复 WPS。
  7
CN
 11
30.0
 21
243.2
 31
0.0
100
AcDbText
 73
3
  0
TEXT
  5
267
330
17
100
AcDbEntity
  8
文字
100
AcDbText
 10
30.0
 20
236.0
 30
0.0
 40
2.6
  1
5. 紧固对角均匀；禁止磕碰孔口；强度/密封试验按管道试验规程，取压管口封闭。
  7
CN
 11
30.0
 21
236.0
 31
0.0
100
AcDbText
 73
3
  0
TEXT
  5
268
330
17
100
AcDbEntity
  8
文字
100
AcDbText
 10
30.0
 20
228.8
 30
0.0
 40
2.6
  1
6. 未注公差 IT12；未注形位公差 GB/T1184-K级。详见零件图。
  7
CN
 11
30.0
 21
228.8
 31
0.0
100
AcDbText
 73
3
  0
LINE
  5
269
330
17
100
AcDbEntity
  8
图框
  6
Continuous
370
50
100
AcDbLine
 10
460.0
 20
0.0
 30
0.0
 11
880.0
 21
0.0
 31
0.0
  0
LINE
  5
26A
330
17
100
AcDbEntity
  8
图框
  6
Continuous
370
50
100
AcDbLine
 10
880.0
 20
0.0
 30
0.0
 11
880.0
 21
297.0
 31
0.0
  0
LINE
  5
26B
330
17
100
AcDbEntity
  8
图框
  6
Continuous
370
50
100
AcDbLine
 10
880.0
 20
297.0
 30
0.0
 11
460.0
 21
297.0
 31
0.0
  0
LINE
  5
26C
330
17
100
AcDbEntity
  8
图框
  6
Continuous
370
50
100
AcDbLine
 10
460.0
 20
297.0
 30
0.0
 11
460.0
 21
0.0
 31
0.0
  0
LINE
  5
26D
330
17
100
AcDbEntity
  8
图框
  6
Continuous
370
18
100
AcDbLine
 10
470.0
 20
10.0
 30
0.0
 11
870.0
 21
10.0
 31
0.0
  0
LINE
  5
26E
330
17
100
AcDbEntity
  8
图框
  6
Continuous
370
18
100
AcDbLine
 10
870.0
 20
10.0
 30
0.0
 11
870.0
 21
287.0
 31
0.0
  0
LINE
  5
26F
330
17
100
AcDbEntity
  8
图框
  6
Continuous
370
18
100
AcDbLine
 10
870.0
 20
287.0
 30
0.0
 11
470.0
 21
287.0
 31
0.0
  0
LINE
  5
270
330
17
100
AcDbEntity
  8
图框
  6
Continuous
370
18
100
AcDbLine
 10
470.0
 20
287.0
 30
0.0
 11
470.0
 21
10.0
 31
0.0
  0
LINE
  5
271
330
17
100
AcDbEntity
  8
图框
  6
Continuous
370
50
100
AcDbLine
 10
690.0
 20
10.0
 30
0.0
 11
870.0
 21
10.0
 31
0.0
  0
LINE
  5
272
330
17
100
AcDbEntity
  8
图框
  6
Continuous
370
50
100
AcDbLine
 10
870.0
 20
10.0
 30
0.0
 11
870.0
 21
66.0
 31
0.0
  0
LINE
  5
273
330
17
100
AcDbEntity
  8
图框
  6
Continuous
370
50
100
AcDbLine
 10
870.0
 20
66.0
 30
0.0
 11
690.0
 21
66.0
 31
0.0
  0
LINE
  5
274
330
17
100
AcDbEntity
  8
图框
  6
Continuous
370
50
100
AcDbLine
 10
690.0
 20
66.0
 30
0.0
 11
690.0
 21
10.0
 31
0.0
  0
LINE
  5
275
330
17
100
AcDbEntity
  8
图框
  6
Continuous
370
18
100
AcDbLine
 10
690.0
 20
26.0
 30
0.0
 11
870.0
 21
26.0
 31
0.0
  0
LINE
  5
276
330
17
100
AcDbEntity
  8
图框
  6
Continuous
370
18
100
AcDbLine
 10
690.0
 20
38.0
 30
0.0
 11
870.0
 21
38.0
 31
0.0
  0
LINE
  5
277
330
17
100
AcDbEntity
  8
图框
  6
Continuous
370
18
100
AcDbLine
 10
690.0
 20
50.0
 30
0.0
 11
870.0
 21
50.0
 31
0.0
  0
LINE
  5
278
330
17
100
AcDbEntity
  8
图框
  6
Continuous
370
18
100
AcDbLine
 10
690.0
 20
66.0
 30
0.0
 11
870.0
 21
66.0
 31
0.0
  0
LINE
  5
279
330
17
100
AcDbEntity
  8
图框
  6
Continuous
370
18
100
AcDbLine
 10
740.0
 20
10.0
 30
0.0
 11
740.0
 21
66.0
 31
0.0
  0
LINE
  5
27A
330
17
100
AcDbEntity
  8
图框
  6
Continuous
370
18
100
AcDbLine
 10
810.0
 20
10.0
 30
0.0
 11
810.0
 21
66.0
 31
0.0
  0
LINE
  5
27B
330
17
100
AcDbEntity
  8
图框
  6
Continuous
370
18
100
AcDbLine
 10
840.0
 20
10.0
 30
0.0
 11
840.0
 21
66.0
 31
0.0
  0
TEXT
  5
27C
330
17
100
AcDbEntity
  8
文字
100
AcDbText
 10
715.0
 20
58.0
 30
0.0
 40
3.5
  1
生产加工图
  7
CN
 72
1
 11
715.0
 21
58.0
 31
0.0
100
AcDbText
 73
2
  0
TEXT
  5
27D
330
17
100
AcDbEntity
  8
文字
100
AcDbText
 10
775.0
 20
58.0
 30
0.0
 40
4.0
  1
孔板片 机加工图
  7
CN
 72
1
 11
775.0
 21
58.0
 31
0.0
100
AcDbText
 73
2
  0
TEXT
  5
27E
330
17
100
AcDbEntity
  8
文字
100
AcDbText
 10
825.0
 20
58.0
 30
0.0
 40
2.6
  1
材料F304/F304L
  7
CN
 72
1
 11
825.0
 21
58.0
 31
0.0
100
AcDbText
 73
2
  0
TEXT
  5
27F
330
17
100
AcDbEntity
  8
文字
100
AcDbText
 10
855.0
 20
58.0
 30
0.0
 40
2.8
  1
比例 1:2 / 剖视2:1
  7
CN
 72
1
 11
855.0
 21
58.0
 31
0.0
100
AcDbText
 73
2
  0
TEXT
  5
280
330
17
100
AcDbEntity
  8
文字
100
AcDbText
 10
715.0
 20
38.0
 30
0.0
 40
3.0
  1
位号 FE-1002
  7
CN
 72
1
 11
715.0
 21
38.0
 31
0.0
100
AcDbText
 73
2
  0
TEXT
  5
281
330
17
100
AcDbEntity
  8
文字
100
AcDbText
 10
775.0
 20
38.0
 30
0.0
 40
3.0
  1
图号 FE-1002-00-3
  7
CN
 72
1
 11
775.0
 21
38.0
 31
0.0
100
AcDbText
 73
2
  0
TEXT
  5
282
330
17
100
AcDbEntity
  8
文字
100
AcDbText
 10
825.0
 20
38.0
 30
0.0
 40
2.6
  1
共4张
  7
CN
 72
1
 11
825.0
 21
38.0
 31
0.0
100
AcDbText
 73
2
  0
TEXT
  5
283
330
17
100
AcDbEntity
  8
文字
100
AcDbText
 10
855.0
 20
38.0
 30
0.0
 40
2.6
  1
第2张
  7
CN
 72
1
 11
855.0
 21
38.0
 31
0.0
100
AcDbText
 73
2
  0
TEXT
  5
284
330
17
100
AcDbEntity
  8
文字
100
AcDbText
 10
715.0
 20
26.0
 30
0.0
 40
2.6
  1
出厂号 26031402
  7
CN
 72
1
 11
715.0
 21
26.0
 31
0.0
100
AcDbText
 73
2
  0
TEXT
  5
285
330
17
100
AcDbEntity
  8
文字
100
AcDbText
 10
775.0
 20
26.0
 30
0.0
 40
2.6
  1
型号 ROH10×JX25N2
  7
CN
 72
1
 11
775.0
 21
26.0
 31
0.0
100
AcDbText
 73
2
  0
TEXT
  5
286
330
17
100
AcDbEntity
  8
文字
100
AcDbText
 10
825.0
 20
26.0
 30
0.0
 40
2.6
  1
单位 mm
  7
CN
 72
1
 11
825.0
 21
26.0
 31
0.0
100
AcDbText
 73
2
  0
TEXT
  5
287
330
17
100
AcDbEntity
  8
文字
100
AcDbText
 10
855.0
 20
26.0
 30
0.0
 40
2.4
  1
R2013
  7
CN
 72
1
 11
855.0
 21
26.0
 31
0.0
100
AcDbText
 73
2
  0
TEXT
  5
288
330
17
100
AcDbEntity
  8
文字
100
AcDbText
 10
702.0
 20
16.0
 30
0.0
 40
2.4
  1
设计
  7
CN
 72
1
 11
702.0
 21
16.0
 31
0.0
100
AcDbText
 73
2
  0
TEXT
  5
289
330
17
100
AcDbEntity
  8
文字
100
AcDbText
 10
730.0
 20
16.0
 30
0.0
 40
2.4
  1
校核
  7
CN
 72
1
 11
730.0
 21
16.0
 31
0.0
100
AcDbText
 73
2
  0
TEXT
  5
28A
330
17
100
AcDbEntity
  8
文字
100
AcDbText
 10
760.0
 20
16.0
 30
0.0
 40
2.4
  1
审核
  7
CN
 72
1
 11
760.0
 21
16.0
 31
0.0
100
AcDbText
 73
2
  0
TEXT
  5
28B
330
17
100
AcDbEntity
  8
文字
100
AcDbText
 10
820.0
 20
16.0
 30
0.0
 40
2.6
  1
DN250 PN25 HG/T20592 RF 法兰取压
  7
CN
 72
1
 11
820.0
 21
16.0
 31
0.0
100
AcDbText
 73
2
  0
TEXT
  5
28C
330
17
100
AcDbEntity
  8
文字
100
AcDbText
 10
474.0
 20
279.0
 30
0.0
 40
5.0
  1
FE-1002  孔板片 机加工图
  7
CN
 11
474.0
 21
279.0
 31
0.0
100
AcDbText
  0
CIRCLE
  5
28D
330
17
100
AcDbEntity
  8
轮廓
  6
Continuous
370
50
100
AcDbCircle
 10
590.0
 20
155.0
 30
0.0
 40
80.0
  0
CIRCLE
  5
28E
330
17
100
AcDbEntity
  8
轮廓
  6
Continuous
370
50
100
AcDbCircle
 10
590.0
 20
155.0
 30
0.0
 40
34.045
  0
LINE
  5
28F
330
17
100
AcDbEntity
  8
中心线
  6
CENTER
370
18
100
AcDbLine
 10
502.5
 20
155.0
 30
0.0
 11
677.5
 21
155.0
 31
0.0
  0
LINE
  5
290
330
17
100
AcDbEntity
  8
中心线
  6
CENTER
370
18
100
AcDbLine
 10
590.0
 20
67.5
 30
0.0
 11
590.0
 21
262.5
 31
0.0
  0
LINE
  5
291
330
17
100
AcDbEntity
  8
轮廓
  6
Continuous
370
50
100
AcDbLine
 10
581.0
 20
235.0
 30
0.0
 11
599.0
 21
235.0
 31
0.0
  0
LINE
  5
292
330
17
100
AcDbEntity
  8
轮廓
  6
Continuous
370
50
100
AcDbLine
 10
599.0
 20
235.0
 30
0.0
 11
599.0
 21
260.0
 31
0.0
  0
LINE
  5
293
330
17
100
AcDbEntity
  8
轮廓
  6
Continuous
370
50
100
AcDbLine
 10
599.0
 20
260.0
 30
0.0
 11
581.0
 21
260.0
 31
0.0
  0
LINE
  5
294
330
17
100
AcDbEntity
  8
轮廓
  6
Continuous
370
50
100
AcDbLine
 10
581.0
 20
260.0
 30
0.0
 11
581.0
 21
235.0
 31
0.0
  0
TEXT
  5
295
330
17
100
AcDbEntity
  8
文字
100
AcDbText
 10
590.0
 20
250.5
 30
0.0
 40
3.0
  1
FE-1002
  7
CN
 72
1
 11
590.0
 21
250.5
 31
0.0
100
AcDbText
 73
2
  0
TEXT
  5
296
330
17
100
AcDbEntity
  8
文字
100
AcDbText
 10
590.0
 20
243.0
 30
0.0
 40
2.5
  1
UP
  7
CN
 72
1
 11
590.0
 21
243.0
 31
0.0
100
AcDbText
 73
2
  0
TEXT
  5
297
330
17
100
AcDbEntity
  8
文字
100
AcDbText
 10
590.0
 20
238.0
 30
0.0
 40
2.4
  1
d=136.18
  7
CN
 72
1
 11
590.0
 21
238.0
 31
0.0
100
AcDbText
 73
2
  0
LINE
  5
298
330
17
100
AcDbEntity
  8
标注
  6
Continuous
370
18
100
AcDbLine
 10
630.045
 20
145.0
 30
0.0
 11
644.045
 21
145.0
 31
0.0
  0
LINE
  5
299
330
17
100
AcDbEntity
  8
标注
  6
Continuous
370
18
100
AcDbLine
 10
644.045
 20
145.0
 30
0.0
 11
641.045
 21
147.0
 31
0.0
  0
LINE
  5
29A
330
17
100
AcDbEntity
  8
标注
  6
Continuous
370
18
100
AcDbLine
 10
644.045
 20
145.0
 30
0.0
 11
641.045
 21
143.0
 31
0.0
  0
TEXT
  5
29B
330
17
100
AcDbEntity
  8
标注
100
AcDbText
 10
637.045
 20
141.0
 30
0.0
 40
2.5
  1
流向刻印→
  7
CN
 72
1
 11
637.045
 21
141.0
 31
0.0
100
AcDbText
 73
3
  0
LINE
  5
29C
330
17
100
AcDbEntity
  8
标注
  6
Continuous
370
18
100
AcDbLine
 10
510.0
 20
57.0
 30
0.0
 11
670.0
 21
57.0
 31
0.0
  0
LINE
  5
29D
330
17
100
AcDbEntity
  8
标注
  6
Continuous
370
18
100
AcDbLine
 10
510.0
 20
55.2
 30
0.0
 11
510.0
 21
58.8
 31
0.0
  0
LINE
  5
29E
330
17
100
AcDbEntity
  8
标注
  6
Continuous
370
18
100
AcDbLine
 10
670.0
 20
55.2
 30
0.0
 11
670.0
 21
58.8
 31
0.0
  0
LINE
  5
29F
330
17
100
AcDbEntity
  8
标注
  6
Continuous
370
18
100
AcDbLine
 10
510.0
 20
57.0
 30
0.0
 11
512.6
 21
57.9
 31
0.0
  0
LINE
  5
2A0
330
17
100
AcDbEntity
  8
标注
  6
Continuous
370
18
100
AcDbLine
 10
510.0
 20
57.0
 30
0.0
 11
512.6
 21
56.1
 31
0.0
  0
LINE
  5
2A1
330
17
100
AcDbEntity
  8
标注
  6
Continuous
370
18
100
AcDbLine
 10
670.0
 20
57.0
 30
0.0
 11
667.4
 21
57.9
 31
0.0
  0
LINE
  5
2A2
330
17
100
AcDbEntity
  8
标注
  6
Continuous
370
18
100
AcDbLine
 10
670.0
 20
57.0
 30
0.0
 11
667.4
 21
56.1
 31
0.0
  0
TEXT
  5
2A3
330
17
100
AcDbEntity
  8
标注
100
AcDbText
 10
590.0
 20
59.2
 30
0.0
 40
3.2
  1
Φ320.0 0/-0.2
  7
CN
 72
1
 11
590.0
 21
59.2
 31
0.0
100
AcDbText
 73
1
  0
LINE
  5
2A4
330
17
100
AcDbEntity
  8
标注
  6
Continuous
370
18
100
AcDbLine
 10
555.955
 20
163.0
 30
0.0
 11
624.045
 21
163.0
 31
0.0
  0
LINE
  5
2A5
330
17
100
AcDbEntity
  8
标注
  6
Continuous
370
18
100
AcDbLine
 10
555.955
 20
161.2
 30
0.0
 11
555.955
 21
164.8
 31
0.0
  0
LINE
  5
2A6
330
17
100
AcDbEntity
  8
标注
  6
Continuous
370
18
100
AcDbLine
 10
624.045
 20
161.2
 30
0.0
 11
624.045
 21
164.8
 31
0.0
  0
LINE
  5
2A7
330
17
100
AcDbEntity
  8
标注
  6
Continuous
370
18
100
AcDbLine
 10
555.955
 20
163.0
 30
0.0
 11
558.5550000000001
 21
163.9
 31
0.0
  0
LINE
  5
2A8
330
17
100
AcDbEntity
  8
标注
  6
Continuous
370
18
100
AcDbLine
 10
555.955
 20
163.0
 30
0.0
 11
558.5550000000001
 21
162.1
 31
0.0
  0
LINE
  5
2A9
330
17
100
AcDbEntity
  8
标注
  6
Continuous
370
18
100
AcDbLine
 10
624.045
 20
163.0
 30
0.0
 11
621.4449999999999
 21
163.9
 31
0.0
  0
LINE
  5
2AA
330
17
100
AcDbEntity
  8
标注
  6
Continuous
370
18
100
AcDbLine
 10
624.045
 20
163.0
 30
0.0
 11
621.4449999999999
 21
162.1
 31
0.0
  0
TEXT
  5
2AB
330
17
100
AcDbEntity
  8
标注
100
AcDbText
 10
590.0
 20
165.2
 30
0.0
 40
3.2
  1
Φ136.18 ±0.05
  7
CN
 72
1
 11
590.0
 21
165.2
 31
0.0
100
AcDbText
 73
1
  0
LINE
  5
2AC
330
17
100
AcDbEntity
  8
标注
  6
Continuous
370
18
100
AcDbLine
 10
686.0
 20
235.0
 30
0.0
 11
686.0
 21
260.0
 31
0.0
  0
LINE
  5
2AD
330
17
100
AcDbEntity
  8
标注
  6
Continuous
370
18
100
AcDbLine
 10
684.2
 20
235.0
 30
0.0
 11
687.8
 21
235.0
 31
0.0
  0
LINE
  5
2AE
330
17
100
AcDbEntity
  8
标注
  6
Continuous
370
18
100
AcDbLine
 10
684.2
 20
260.0
 30
0.0
 11
687.8
 21
260.0
 31
0.0
  0
LINE
  5
2AF
330
17
100
AcDbEntity
  8
标注
  6
Continuous
370
18
100
AcDbLine
 10
686.0
 20
235.0
 30
0.0
 11
685.1
 21
237.6
 31
0.0
  0
LINE
  5
2B0
330
17
100
AcDbEntity
  8
标注
  6
Continuous
370
18
100
AcDbLine
 10
686.0
 20
235.0
 30
0.0
 11
686.9
 21
237.6
 31
0.0
  0
LINE
  5
2B1
330
17
100
AcDbEntity
  8
标注
  6
Continuous
370
18
100
AcDbLine
 10
686.0
 20
260.0
 30
0.0
 11
685.1
 21
257.4
 31
0.0
  0
LINE
  5
2B2
330
17
100
AcDbEntity
  8
标注
  6
Continuous
370
18
100
AcDbLine
 10
686.0
 20
260.0
 30
0.0
 11
686.9
 21
257.4
 31
0.0
  0
TEXT
  5
2B3
330
17
100
AcDbEntity
  8
标注
100
AcDbText
 10
691.5
 20
247.5
 30
0.0
 40
3.2
  1
50.0
 50
90.0
  7
CN
 72
1
 11
691.5
 21
247.5
 31
0.0
100
AcDbText
 73
2
  0
LINE
  5
2B4
330
17
100
AcDbEntity
  8
标注
  6
Continuous
370
18
100
AcDbLine
 10
581.0
 20
268.0
 30
0.0
 11
599.0
 21
268.0
 31
0.0
  0
LINE
  5
2B5
330
17
100
AcDbEntity
  8
标注
  6
Continuous
370
18
100
AcDbLine
 10
581.0
 20
266.2
 30
0.0
 11
581.0
 21
269.8
 31
0.0
  0
LINE
  5
2B6
330
17
100
AcDbEntity
  8
标注
  6
Continuous
370
18
100
AcDbLine
 10
599.0
 20
266.2
 30
0.0
 11
599.0
 21
269.8
 31
0.0
  0
LINE
  5
2B7
330
17
100
AcDbEntity
  8
标注
  6
Continuous
370
18
100
AcDbLine
 10
581.0
 20
268.0
 30
0.0
 11
583.6
 21
268.9
 31
0.0
  0
LINE
  5
2B8
330
17
100
AcDbEntity
  8
标注
  6
Continuous
370
18
100
AcDbLine
 10
581.0
 20
268.0
 30
0.0
 11
583.6
 21
267.1
 31
0.0
  0
LINE
  5
2B9
330
17
100
AcDbEntity
  8
标注
  6
Continuous
370
18
100
AcDbLine
 10
599.0
 20
268.0
 30
0.0
 11
596.4
 21
268.9
 31
0.0
  0
LINE
  5
2BA
330
17
100
AcDbEntity
  8
标注
  6
Continuous
370
18
100
AcDbLine
 10
599.0
 20
268.0
 30
0.0
 11
596.4
 21
267.1
 31
0.0
  0
TEXT
  5
2BB
330
17
100
AcDbEntity
  8
标注
100
AcDbText
 10
590.0
 20
270.2
 30
0.0
 40
3.2
  1
36.0
  7
CN
 72
1
 11
590.0
 21
270.2
 31
0.0
100
AcDbText
 73
1
  0
LINE
  5
2BC
330
17
100
AcDbEntity
  8
标注
  6
Continuous
370
18
100
AcDbLine
 10
534.0
 20
199.0
 30
0.0
 11
532.25
 21
202.5
 31
0.0
  0
LINE
  5
2BD
330
17
100
AcDbEntity
  8
标注
  6
Continuous
370
18
100
AcDbLine
 10
534.0
 20
199.0
 30
0.0
 11
535.75
 21
202.5
 31
0.0
  0
LINE
  5
2BE
330
17
100
AcDbEntity
  8
标注
  6
Continuous
370
18
100
AcDbLine
 10
532.25
 20
202.5
 30
0.0
 11
535.225
 21
202.5
 31
0.0
  0
TEXT
  5
2BF
330
17
100
AcDbEntity
  8
标注
100
AcDbText
 10
536.45
 20
200.925
 30
0.0
 40
2.4
  1
Ra1.6
  7
CN
 11
536.45
 21
200.925
 31
0.0
100
AcDbText
  0
TEXT
  5
2C0
330
17
100
AcDbEntity
  8
文字
100
AcDbText
 10
590.0
 20
288.0
 30
0.0
 40
3.5
  1
上游面（迎流）
  7
CN
 72
1
 11
590.0
 21
288.0
 31
0.0
100
AcDbText
 73
1
  0
TEXT
  5
2C1
330
17
100
AcDbEntity
  8
文字
100
AcDbText
 10
590.0
 20
78.0
 30
0.0
 40
2.8
  1
主视 比例 1:2
  7
CN
 72
1
 11
590.0
 21
78.0
 31
0.0
100
AcDbText
 73
1
  0
LINE
  5
2C2
330
17
100
AcDbEntity
  8
轮廓
  6
Continuous
370
50
100
AcDbLine
 10
760.0
 20
-25.0
 30
0.0
 11
772.0
 21
-25.0
 31
0.0
  0
LINE
  5
2C3
330
17
100
AcDbEntity
  8
轮廓
  6
Continuous
370
50
100
AcDbLine
 10
772.0
 20
-25.0
 30
0.0
 11
772.0
 21
335.0
 31
0.0
  0
LINE
  5
2C4
330
17
100
AcDbEntity
  8
轮廓
  6
Continuous
370
50
100
AcDbLine
 10
772.0
 20
335.0
 30
0.0
 11
760.0
 21
335.0
 31
0.0
  0
LINE
  5
2C5
330
17
100
AcDbEntity
  8
轮廓
  6
Continuous
370
50
100
AcDbLine
 10
760.0
 20
335.0
 30
0.0
 11
760.0
 21
-25.0
 31
0.0
  0
LINE
  5
2C6
330
17
100
AcDbEntity
  8
轮廓
  6
Continuous
370
50
100
AcDbLine
 10
760.0
 20
291.18
 30
0.0
 11
765.0
 21
291.18
 31
0.0
  0
LINE
  5
2C7
330
17
100
AcDbEntity
  8
轮廓
  6
Continuous
370
50
100
AcDbLine
 10
760.0
 20
18.819999999999993
 30
0.0
 11
765.0
 21
18.819999999999993
 31
0.0
  0
LINE
  5
2C8
330
17
100
AcDbEntity
  8
轮廓
  6
Continuous
370
50
100
AcDbLine
 10
765.0
 20
291.18
 30
0.0
 11
772.0
 21
298.18
 31
0.0
  0
LINE
  5
2C9
330
17
100
AcDbEntity
  8
轮廓
  6
Continuous
370
50
100
AcDbLine
 10
765.0
 20
18.819999999999993
 30
0.0
 11
772.0
 21
11.819999999999993
 31
0.0
  0
LINE
  5
2CA
330
17
100
AcDbEntity
  8
轮廓
  6
Continuous
370
50
100
AcDbLine
 10
772.0
 20
298.18
 30
0.0
 11
772.0
 21
11.819999999999993
 31
0.0
  0
LINE
  5
2CB
330
17
100
AcDbEntity
  8
轮廓
  6
Continuous
370
50
100
AcDbLine
 10
760.0
 20
291.18
 30
0.0
 11
760.0
 21
18.819999999999993
 31
0.0
  0
LINE
  5
2CC
330
17
100
AcDbEntity
  8
中心线
  6
CENTER
370
18
100
AcDbLine
 10
744.0
 20
155.0
 30
0.0
 11
788.0
 21
155.0
 31
0.0
  0
LINE
  5
2CD
330
17
100
AcDbEntity
  8
剖面线
  6
Continuous
370
13
100
AcDbLine
 10
760.0
 20
155.0
 30
0.0
 11
772.0
 21
143.0
 31
0.0
  0
LINE
  5
2CE
330
17
100
AcDbEntity
  8
剖面线
  6
Continuous
370
13
100
AcDbLine
 10
760.0
 20
151.0
 30
0.0
 11
772.0
 21
139.0
 31
0.0
  0
LINE
  5
2CF
330
17
100
AcDbEntity
  8
剖面线
  6
Continuous
370
13
100
AcDbLine
 10
760.0
 20
147.0
 30
0.0
 11
772.0
 21
135.0
 31
0.0
  0
LINE
  5
2D0
330
17
100
AcDbEntity
  8
剖面线
  6
Continuous
370
13
100
AcDbLine
 10
760.0
 20
143.0
 30
0.0
 11
772.0
 21
131.0
 31
0.0
  0
LINE
  5
2D1
330
17
100
AcDbEntity
  8
剖面线
  6
Continuous
370
13
100
AcDbLine
 10
760.0
 20
139.0
 30
0.0
 11
772.0
 21
127.0
 31
0.0
  0
LINE
  5
2D2
330
17
100
AcDbEntity
  8
剖面线
  6
Continuous
370
13
100
AcDbLine
 10
760.0
 20
135.0
 30
0.0
 11
772.0
 21
123.0
 31
0.0
  0
LINE
  5
2D3
330
17
100
AcDbEntity
  8
剖面线
  6
Continuous
370
13
100
AcDbLine
 10
760.0
 20
131.0
 30
0.0
 11
772.0
 21
119.0
 31
0.0
  0
LINE
  5
2D4
330
17
100
AcDbEntity
  8
剖面线
  6
Continuous
370
13
100
AcDbLine
 10
760.0
 20
127.0
 30
0.0
 11
772.0
 21
115.0
 31
0.0
  0
LINE
  5
2D5
330
17
100
AcDbEntity
  8
剖面线
  6
Continuous
370
13
100
AcDbLine
 10
760.0
 20
123.0
 30
0.0
 11
772.0
 21
111.0
 31
0.0
  0
LINE
  5
2D6
330
17
100
AcDbEntity
  8
剖面线
  6
Continuous
370
13
100
AcDbLine
 10
760.0
 20
119.0
 30
0.0
 11
772.0
 21
107.0
 31
0.0
  0
LINE
  5
2D7
330
17
100
AcDbEntity
  8
剖面线
  6
Continuous
370
13
100
AcDbLine
 10
760.0
 20
115.0
 30
0.0
 11
772.0
 21
103.0
 31
0.0
  0
LINE
  5
2D8
330
17
100
AcDbEntity
  8
剖面线
  6
Continuous
370
13
100
AcDbLine
 10
760.0
 20
111.0
 30
0.0
 11
772.0
 21
99.0
 31
0.0
  0
LINE
  5
2D9
330
17
100
AcDbEntity
  8
剖面线
  6
Continuous
370
13
100
AcDbLine
 10
760.0
 20
107.0
 30
0.0
 11
772.0
 21
95.0
 31
0.0
  0
LINE
  5
2DA
330
17
100
AcDbEntity
  8
剖面线
  6
Continuous
370
13
100
AcDbLine
 10
760.0
 20
103.0
 30
0.0
 11
772.0
 21
91.0
 31
0.0
  0
LINE
  5
2DB
330
17
100
AcDbEntity
  8
剖面线
  6
Continuous
370
13
100
AcDbLine
 10
760.0
 20
99.0
 30
0.0
 11
772.0
 21
87.0
 31
0.0
  0
LINE
  5
2DC
330
17
100
AcDbEntity
  8
剖面线
  6
Continuous
370
13
100
AcDbLine
 10
760.0
 20
95.0
 30
0.0
 11
772.0
 21
83.0
 31
0.0
  0
LINE
  5
2DD
330
17
100
AcDbEntity
  8
剖面线
  6
Continuous
370
13
100
AcDbLine
 10
760.0
 20
91.0
 30
0.0
 11
772.0
 21
79.0
 31
0.0
  0
LINE
  5
2DE
330
17
100
AcDbEntity
  8
剖面线
  6
Continuous
370
13
100
AcDbLine
 10
760.0
 20
87.0
 30
0.0
 11
772.0
 21
75.0
 31
0.0
  0
LINE
  5
2DF
330
17
100
AcDbEntity
  8
剖面线
  6
Continuous
370
13
100
AcDbLine
 10
760.0
 20
83.0
 30
0.0
 11
772.0
 21
71.0
 31
0.0
  0
LINE
  5
2E0
330
17
100
AcDbEntity
  8
剖面线
  6
Continuous
370
13
100
AcDbLine
 10
760.0
 20
79.0
 30
0.0
 11
772.0
 21
67.0
 31
0.0
  0
LINE
  5
2E1
330
17
100
AcDbEntity
  8
剖面线
  6
Continuous
370
13
100
AcDbLine
 10
760.0
 20
75.0
 30
0.0
 11
772.0
 21
63.0
 31
0.0
  0
LINE
  5
2E2
330
17
100
AcDbEntity
  8
剖面线
  6
Continuous
370
13
100
AcDbLine
 10
760.0
 20
71.0
 30
0.0
 11
772.0
 21
59.0
 31
0.0
  0
LINE
  5
2E3
330
17
100
AcDbEntity
  8
剖面线
  6
Continuous
370
13
100
AcDbLine
 10
760.0
 20
67.0
 30
0.0
 11
772.0
 21
55.0
 31
0.0
  0
LINE
  5
2E4
330
17
100
AcDbEntity
  8
剖面线
  6
Continuous
370
13
100
AcDbLine
 10
760.0
 20
63.0
 30
0.0
 11
772.0
 21
51.0
 31
0.0
  0
LINE
  5
2E5
330
17
100
AcDbEntity
  8
剖面线
  6
Continuous
370
13
100
AcDbLine
 10
760.0
 20
59.0
 30
0.0
 11
772.0
 21
47.0
 31
0.0
  0
LINE
  5
2E6
330
17
100
AcDbEntity
  8
剖面线
  6
Continuous
370
13
100
AcDbLine
 10
760.0
 20
55.0
 30
0.0
 11
772.0
 21
43.0
 31
0.0
  0
LINE
  5
2E7
330
17
100
AcDbEntity
  8
剖面线
  6
Continuous
370
13
100
AcDbLine
 10
760.0
 20
51.0
 30
0.0
 11
772.0
 21
39.0
 31
0.0
  0
LINE
  5
2E8
330
17
100
AcDbEntity
  8
剖面线
  6
Continuous
370
13
100
AcDbLine
 10
760.0
 20
47.0
 30
0.0
 11
772.0
 21
35.0
 31
0.0
  0
LINE
  5
2E9
330
17
100
AcDbEntity
  8
剖面线
  6
Continuous
370
13
100
AcDbLine
 10
760.0
 20
43.0
 30
0.0
 11
772.0
 21
31.0
 31
0.0
  0
LINE
  5
2EA
330
17
100
AcDbEntity
  8
剖面线
  6
Continuous
370
13
100
AcDbLine
 10
760.0
 20
39.0
 30
0.0
 11
772.0
 21
27.0
 31
0.0
  0
LINE
  5
2EB
330
17
100
AcDbEntity
  8
剖面线
  6
Continuous
370
13
100
AcDbLine
 10
760.0
 20
35.0
 30
0.0
 11
772.0
 21
23.0
 31
0.0
  0
LINE
  5
2EC
330
17
100
AcDbEntity
  8
剖面线
  6
Continuous
370
13
100
AcDbLine
 10
760.0
 20
31.0
 30
0.0
 11
772.0
 21
19.0
 31
0.0
  0
LINE
  5
2ED
330
17
100
AcDbEntity
  8
剖面线
  6
Continuous
370
13
100
AcDbLine
 10
760.0
 20
27.0
 30
0.0
 11
772.0
 21
15.0
 31
0.0
  0
LINE
  5
2EE
330
17
100
AcDbEntity
  8
剖面线
  6
Continuous
370
13
100
AcDbLine
 10
760.0
 20
23.0
 30
0.0
 11
772.0
 21
11.0
 31
0.0
  0
LINE
  5
2EF
330
17
100
AcDbEntity
  8
剖面线
  6
Continuous
370
13
100
AcDbLine
 10
760.0
 20
19.0
 30
0.0
 11
772.0
 21
7.0
 31
0.0
  0
LINE
  5
2F0
330
17
100
AcDbEntity
  8
剖面线
  6
Continuous
370
13
100
AcDbLine
 10
760.0
 20
15.0
 30
0.0
 11
772.0
 21
3.0
 31
0.0
  0
LINE
  5
2F1
330
17
100
AcDbEntity
  8
剖面线
  6
Continuous
370
13
100
AcDbLine
 10
760.0
 20
11.0
 30
0.0
 11
772.0
 21
-1.0
 31
0.0
  0
LINE
  5
2F2
330
17
100
AcDbEntity
  8
剖面线
  6
Continuous
370
13
100
AcDbLine
 10
760.0
 20
7.0
 30
0.0
 11
772.0
 21
-5.0
 31
0.0
  0
LINE
  5
2F3
330
17
100
AcDbEntity
  8
剖面线
  6
Continuous
370
13
100
AcDbLine
 10
760.0
 20
3.0
 30
0.0
 11
772.0
 21
-9.0
 31
0.0
  0
LINE
  5
2F4
330
17
100
AcDbEntity
  8
剖面线
  6
Continuous
370
13
100
AcDbLine
 10
760.0
 20
-1.0
 30
0.0
 11
772.0
 21
-13.0
 31
0.0
  0
LINE
  5
2F5
330
17
100
AcDbEntity
  8
剖面线
  6
Continuous
370
13
100
AcDbLine
 10
760.0
 20
-5.0
 30
0.0
 11
772.0
 21
-17.0
 31
0.0
  0
LINE
  5
2F6
330
17
100
AcDbEntity
  8
剖面线
  6
Continuous
370
13
100
AcDbLine
 10
760.0
 20
-9.0
 30
0.0
 11
772.0
 21
-21.0
 31
0.0
  0
LINE
  5
2F7
330
17
100
AcDbEntity
  8
剖面线
  6
Continuous
370
13
100
AcDbLine
 10
760.0
 20
-13.0
 30
0.0
 11
772.0
 21
-25.0
 31
0.0
  0
LINE
  5
2F8
330
17
100
AcDbEntity
  8
剖面线
  6
Continuous
370
13
100
AcDbLine
 10
760.0
 20
-17.0
 30
0.0
 11
772.0
 21
-29.0
 31
0.0
  0
LINE
  5
2F9
330
17
100
AcDbEntity
  8
剖面线
  6
Continuous
370
13
100
AcDbLine
 10
760.0
 20
-21.0
 30
0.0
 11
772.0
 21
-33.0
 31
0.0
  0
LINE
  5
2FA
330
17
100
AcDbEntity
  8
标注
  6
Continuous
370
18
100
AcDbLine
 10
760.0
 20
-39.0
 30
0.0
 11
772.0
 21
-39.0
 31
0.0
  0
LINE
  5
2FB
330
17
100
AcDbEntity
  8
标注
  6
Continuous
370
18
100
AcDbLine
 10
760.0
 20
-40.8
 30
0.0
 11
760.0
 21
-37.2
 31
0.0
  0
LINE
  5
2FC
330
17
100
AcDbEntity
  8
标注
  6
Continuous
370
18
100
AcDbLine
 10
772.0
 20
-40.8
 30
0.0
 11
772.0
 21
-37.2
 31
0.0
  0
LINE
  5
2FD
330
17
100
AcDbEntity
  8
标注
  6
Continuous
370
18
100
AcDbLine
 10
760.0
 20
-39.0
 30
0.0
 11
762.6
 21
-38.1
 31
0.0
  0
LINE
  5
2FE
330
17
100
AcDbEntity
  8
标注
  6
Continuous
370
18
100
AcDbLine
 10
760.0
 20
-39.0
 30
0.0
 11
762.6
 21
-39.9
 31
0.0
  0
LINE
  5
2FF
330
17
100
AcDbEntity
  8
标注
  6
Continuous
370
18
100
AcDbLine
 10
772.0
 20
-39.0
 30
0.0
 11
769.4
 21
-38.1
 31
0.0
  0
LINE
  5
300
330
17
100
AcDbEntity
  8
标注
  6
Continuous
370
18
100
AcDbLine
 10
772.0
 20
-39.0
 30
0.0
 11
769.4
 21
-39.9
 31
0.0
  0
TEXT
  5
301
330
17
100
AcDbEntity
  8
标注
100
AcDbText
 10
766.0
 20
-36.8
 30
0.0
 40
3.2
  1
E=6.0
  7
CN
 72
1
 11
766.0
 21
-36.8
 31
0.0
100
AcDbText
 73
1
  0
LINE
  5
302
330
17
100
AcDbEntity
  8
标注
  6
Continuous
370
18
100
AcDbLine
 10
760.0
 20
309.18
 30
0.0
 11
765.0
 21
309.18
 31
0.0
  0
LINE
  5
303
330
17
100
AcDbEntity
  8
标注
  6
Continuous
370
18
100
AcDbLine
 10
760.0
 20
307.38
 30
0.0
 11
760.0
 21
310.98
 31
0.0
  0
LINE
  5
304
330
17
100
AcDbEntity
  8
标注
  6
Continuous
370
18
100
AcDbLine
 10
765.0
 20
307.38
 30
0.0
 11
765.0
 21
310.98
 31
0.0
  0
LINE
  5
305
330
17
100
AcDbEntity
  8
标注
  6
Continuous
370
18
100
AcDbLine
 10
760.0
 20
309.18
 30
0.0
 11
762.6
 21
310.08
 31
0.0
  0
LINE
  5
306
330
17
100
AcDbEntity
  8
标注
  6
Continuous
370
18
100
AcDbLine
 10
760.0
 20
309.18
 30
0.0
 11
762.6
 21
308.28000000000003
 31
0.0
  0
LINE
  5
307
330
17
100
AcDbEntity
  8
标注
  6
Continuous
370
18
100
AcDbLine
 10
765.0
 20
309.18
 30
0.0
 11
762.4
 21
310.08
 31
0.0
  0
LINE
  5
308
330
17
100
AcDbEntity
  8
标注
  6
Continuous
370
18
100
AcDbLine
 10
765.0
 20
309.18
 30
0.0
 11
762.4
 21
308.28000000000003
 31
0.0
  0
TEXT
  5
309
330
17
100
AcDbEntity
  8
标注
100
AcDbText
 10
762.5
 20
311.38
 30
0.0
 40
3.2
  1
e=2.5
  7
CN
 72
1
 11
762.5
 21
311.38
 31
0.0
100
AcDbText
 73
1
  0
TEXT
  5
30A
330
17
100
AcDbEntity
  8
标注
100
AcDbText
 10
768.5
 20
310.18
 30
0.0
 40
3.0
  1
45.0°
  7
CN
 72
1
 11
768.5
 21
310.18
 31
0.0
100
AcDbText
 73
1
  0
LINE
  5
30B
330
17
100
AcDbEntity
  8
标注
  6
Continuous
370
18
100
AcDbLine
 10
786.0
 20
18.819999999999993
 30
0.0
 11
786.0
 21
291.18
 31
0.0
  0
LINE
  5
30C
330
17
100
AcDbEntity
  8
标注
  6
Continuous
370
18
100
AcDbLine
 10
784.2
 20
18.819999999999993
 30
0.0
 11
787.8
 21
18.819999999999993
 31
0.0
  0
LINE
  5
30D
330
17
100
AcDbEntity
  8
标注
  6
Continuous
370
18
100
AcDbLine
 10
784.2
 20
291.18
 30
0.0
 11
787.8
 21
291.18
 31
0.0
  0
LINE
  5
30E
330
17
100
AcDbEntity
  8
标注
  6
Continuous
370
18
100
AcDbLine
 10
786.0
 20
18.819999999999993
 30
0.0
 11
785.1
 21
21.419999999999995
 31
0.0
  0
LINE
  5
30F
330
17
100
AcDbEntity
  8
标注
  6
Continuous
370
18
100
AcDbLine
 10
786.0
 20
18.819999999999993
 30
0.0
 11
786.9
 21
21.419999999999995
 31
0.0
  0
LINE
  5
310
330
17
100
AcDbEntity
  8
标注
  6
Continuous
370
18
100
AcDbLine
 10
786.0
 20
291.18
 30
0.0
 11
785.1
 21
288.58
 31
0.0
  0
LINE
  5
311
330
17
100
AcDbEntity
  8
标注
  6
Continuous
370
18
100
AcDbLine
 10
786.0
 20
291.18
 30
0.0
 11
786.9
 21
288.58
 31
0.0
  0
TEXT
  5
312
330
17
100
AcDbEntity
  8
标注
100
AcDbText
 10
791.5
 20
155.0
 30
0.0
 40
3.2
  1
Φ136.18
 50
90.0
  7
CN
 72
1
 11
791.5
 21
155.0
 31
0.0
100
AcDbText
 73
2
  0
LINE
  5
313
330
17
100
AcDbEntity
  8
标注
  6
Continuous
370
18
100
AcDbLine
 10
748.0
 20
307.18
 30
0.0
 11
746.25
 21
310.68
 31
0.0
  0
LINE
  5
314
330
17
100
AcDbEntity
  8
标注
  6
Continuous
370
18
100
AcDbLine
 10
748.0
 20
307.18
 30
0.0
 11
749.75
 21
310.68
 31
0.0
  0
LINE
  5
315
330
17
100
AcDbEntity
  8
标注
  6
Continuous
370
18
100
AcDbLine
 10
746.25
 20
310.68
 30
0.0
 11
749.225
 21
310.68
 31
0.0
  0
TEXT
  5
316
330
17
100
AcDbEntity
  8
标注
100
AcDbText
 10
750.45
 20
309.105
 30
0.0
 40
2.4
  1
Ra0.8
  7
CN
 11
750.45
 21
309.105
 31
0.0
100
AcDbText
  0
TEXT
  5
317
330
17
100
AcDbEntity
  8
文字
100
AcDbText
 10
766.0
 20
355.0
 30
0.0
 40
3.2
  1
A—A  比例 2:1（下游倒角）
  7
CN
 72
1
 11
766.0
 21
355.0
 31
0.0
100
AcDbText
 73
1
  0
TEXT
  5
318
330
17
100
AcDbEntity
  8
文字
100
AcDbText
 10
766.0
 20
88.0
 30
0.0
 40
2.6
  1
入口锐边 G≤0.0004d，禁止倒钝/倒圆
  7
CN
 72
1
 11
766.0
 21
88.0
 31
0.0
100
AcDbText
 73
1
  0
TEXT
  5
319
330
17
100
AcDbEntity
  8
文字
100
AcDbText
 10
480.0
 20
70.0
 30
0.0
 40
3.0
  1
零件技术要求：
  7
CN
 11
480.0
 21
70.0
 31
0.0
100
AcDbText
 73
3
  0
TEXT
  5
31A
330
17
100
AcDbEntity
  8
文字
100
AcDbText
 10
480.0
 20
63.5
 30
0.0
 40
2.5
  1
1. 材料 F304/F304L，板材或锻件，交货态固溶。
  7
CN
 11
480.0
 21
63.5
 31
0.0
100
AcDbText
 73
3
  0
TEXT
  5
31B
330
17
100
AcDbEntity
  8
文字
100
AcDbText
 10
480.0
 20
57.0
 30
0.0
 40
2.5
  1
2. 孔径 Φ136.18±0.05（20℃）；外径 Φ320.00/-0.2。
  7
CN
 11
480.0
 21
57.0
 31
0.0
100
AcDbText
 73
3
  0
TEXT
  5
31C
330
17
100
AcDbEntity
  8
文字
100
AcDbText
 10
480.0
 20
50.5
 30
0.0
 40
2.5
  1
3. 上游面平面度 0.01；粗糙度如图。孔口圆柱度 0.01。
  7
CN
 11
480.0
 21
50.5
 31
0.0
100
AcDbText
 73
3
  0
TEXT
  5
31D
330
17
100
AcDbEntity
  8
文字
100
AcDbText
 10
480.0
 20
44.0
 30
0.0
 40
2.5
  1
4. 下游倒角 45°，孔口圆柱段厚度 e 如图；锐边保持。
  7
CN
 11
480.0
 21
44.0
 31
0.0
100
AcDbText
 73
3
  0
TEXT
  5
31E
330
17
100
AcDbEntity
  8
文字
100
AcDbText
 10
480.0
 20
37.5
 30
0.0
 40
2.5
  1
5. 手柄刻印：FE-1002 / DN250 / UP / d=136.18 / 流向箭头。
  7
CN
 11
480.0
 21
37.5
 31
0.0
100
AcDbText
 73
3
  0
TEXT
  5
31F
330
17
100
AcDbEntity
  8
文字
100
AcDbText
 10
480.0
 20
31.0
 30
0.0
 40
2.5
  1
6. 去毛刺，锐边倒钝除外；清洗洁净度按仪表管线。
  7
CN
 11
480.0
 21
31.0
 31
0.0
100
AcDbText
 73
3
  0
TEXT
  5
320
330
17
100
AcDbEntity
  8
文字
100
AcDbText
 10
480.0
 20
24.5
 30
0.0
 40
2.5
  1
7. 件数：1。
  7
CN
 11
480.0
 21
24.5
 31
0.0
100
AcDbText
 73
3
  0
LINE
  5
321
330
17
100
AcDbEntity
  8
图框
  6
Continuous
370
50
100
AcDbLine
 10
920.0
 20
0.0
 30
0.0
 11
1340.0
 21
0.0
 31
0.0
  0
LINE
  5
322
330
17
100
AcDbEntity
  8
图框
  6
Continuous
370
50
100
AcDbLine
 10
1340.0
 20
0.0
 30
0.0
 11
1340.0
 21
297.0
 31
0.0
  0
LINE
  5
323
330
17
100
AcDbEntity
  8
图框
  6
Continuous
370
50
100
AcDbLine
 10
1340.0
 20
297.0
 30
0.0
 11
920.0
 21
297.0
 31
0.0
  0
LINE
  5
324
330
17
100
AcDbEntity
  8
图框
  6
Continuous
370
50
100
AcDbLine
 10
920.0
 20
297.0
 30
0.0
 11
920.0
 21
0.0
 31
0.0
  0
LINE
  5
325
330
17
100
AcDbEntity
  8
图框
  6
Continuous
370
18
100
AcDbLine
 10
930.0
 20
10.0
 30
0.0
 11
1330.0
 21
10.0
 31
0.0
  0
LINE
  5
326
330
17
100
AcDbEntity
  8
图框
  6
Continuous
370
18
100
AcDbLine
 10
1330.0
 20
10.0
 30
0.0
 11
1330.0
 21
287.0
 31
0.0
  0
LINE
  5
327
330
17
100
AcDbEntity
  8
图框
  6
Continuous
370
18
100
AcDbLine
 10
1330.0
 20
287.0
 30
0.0
 11
930.0
 21
287.0
 31
0.0
  0
LINE
  5
328
330
17
100
AcDbEntity
  8
图框
  6
Continuous
370
18
100
AcDbLine
 10
930.0
 20
287.0
 30
0.0
 11
930.0
 21
10.0
 31
0.0
  0
LINE
  5
329
330
17
100
AcDbEntity
  8
图框
  6
Continuous
370
50
100
AcDbLine
 10
1150.0
 20
10.0
 30
0.0
 11
1330.0
 21
10.0
 31
0.0
  0
LINE
  5
32A
330
17
100
AcDbEntity
  8
图框
  6
Continuous
370
50
100
AcDbLine
 10
1330.0
 20
10.0
 30
0.0
 11
1330.0
 21
66.0
 31
0.0
  0
LINE
  5
32B
330
17
100
AcDbEntity
  8
图框
  6
Continuous
370
50
100
AcDbLine
 10
1330.0
 20
66.0
 30
0.0
 11
1150.0
 21
66.0
 31
0.0
  0
LINE
  5
32C
330
17
100
AcDbEntity
  8
图框
  6
Continuous
370
50
100
AcDbLine
 10
1150.0
 20
66.0
 30
0.0
 11
1150.0
 21
10.0
 31
0.0
  0
LINE
  5
32D
330
17
100
AcDbEntity
  8
图框
  6
Continuous
370
18
100
AcDbLine
 10
1150.0
 20
26.0
 30
0.0
 11
1330.0
 21
26.0
 31
0.0
  0
LINE
  5
32E
330
17
100
AcDbEntity
  8
图框
  6
Continuous
370
18
100
AcDbLine
 10
1150.0
 20
38.0
 30
0.0
 11
1330.0
 21
38.0
 31
0.0
  0
LINE
  5
32F
330
17
100
AcDbEntity
  8
图框
  6
Continuous
370
18
100
AcDbLine
 10
1150.0
 20
50.0
 30
0.0
 11
1330.0
 21
50.0
 31
0.0
  0
LINE
  5
330
330
17
100
AcDbEntity
  8
图框
  6
Continuous
370
18
100
AcDbLine
 10
1150.0
 20
66.0
 30
0.0
 11
1330.0
 21
66.0
 31
0.0
  0
LINE
  5
331
330
17
100
AcDbEntity
  8
图框
  6
Continuous
370
18
100
AcDbLine
 10
1200.0
 20
10.0
 30
0.0
 11
1200.0
 21
66.0
 31
0.0
  0
LINE
  5
332
330
17
100
AcDbEntity
  8
图框
  6
Continuous
370
18
100
AcDbLine
 10
1270.0
 20
10.0
 30
0.0
 11
1270.0
 21
66.0
 31
0.0
  0
LINE
  5
333
330
17
100
AcDbEntity
  8
图框
  6
Continuous
370
18
100
AcDbLine
 10
1300.0
 20
10.0
 30
0.0
 11
1300.0
 21
66.0
 31
0.0
  0
TEXT
  5
334
330
17
100
AcDbEntity
  8
文字
100
AcDbText
 10
1175.0
 20
58.0
 30
0.0
 40
3.5
  1
生产加工图
  7
CN
 72
1
 11
1175.0
 21
58.0
 31
0.0
100
AcDbText
 73
2
  0
TEXT
  5
335
330
17
100
AcDbEntity
  8
文字
100
AcDbText
 10
1235.0
 20
58.0
 30
0.0
 40
4.0
  1
取压法兰 机加工图
  7
CN
 72
1
 11
1235.0
 21
58.0
 31
0.0
100
AcDbText
 73
2
  0
TEXT
  5
336
330
17
100
AcDbEntity
  8
文字
100
AcDbText
 10
1285.0
 20
58.0
 30
0.0
 40
2.6
  1
材料F304/F304L
  7
CN
 72
1
 11
1285.0
 21
58.0
 31
0.0
100
AcDbText
 73
2
  0
TEXT
  5
337
330
17
100
AcDbEntity
  8
文字
100
AcDbText
 10
1315.0
 20
58.0
 30
0.0
 40
2.8
  1
比例 1:3
  7
CN
 72
1
 11
1315.0
 21
58.0
 31
0.0
100
AcDbText
 73
2
  0
TEXT
  5
338
330
17
100
AcDbEntity
  8
文字
100
AcDbText
 10
1175.0
 20
38.0
 30
0.0
 40
3.0
  1
位号 FE-1002
  7
CN
 72
1
 11
1175.0
 21
38.0
 31
0.0
100
AcDbText
 73
2
  0
TEXT
  5
339
330
17
100
AcDbEntity
  8
文字
100
AcDbText
 10
1235.0
 20
38.0
 30
0.0
 40
3.0
  1
图号 FE-1002-00-1/2
  7
CN
 72
1
 11
1235.0
 21
38.0
 31
0.0
100
AcDbText
 73
2
  0
TEXT
  5
33A
330
17
100
AcDbEntity
  8
文字
100
AcDbText
 10
1285.0
 20
38.0
 30
0.0
 40
2.6
  1
共4张
  7
CN
 72
1
 11
1285.0
 21
38.0
 31
0.0
100
AcDbText
 73
2
  0
TEXT
  5
33B
330
17
100
AcDbEntity
  8
文字
100
AcDbText
 10
1315.0
 20
38.0
 30
0.0
 40
2.6
  1
第3张
  7
CN
 72
1
 11
1315.0
 21
38.0
 31
0.0
100
AcDbText
 73
2
  0
TEXT
  5
33C
330
17
100
AcDbEntity
  8
文字
100
AcDbText
 10
1175.0
 20
26.0
 30
0.0
 40
2.6
  1
出厂号 26031402
  7
CN
 72
1
 11
1175.0
 21
26.0
 31
0.0
100
AcDbText
 73
2
  0
TEXT
  5
33D
330
17
100
AcDbEntity
  8
文字
100
AcDbText
 10
1235.0
 20
26.0
 30
0.0
 40
2.6
  1
型号 ROH10×JX25N2
  7
CN
 72
1
 11
1235.0
 21
26.0
 31
0.0
100
AcDbText
 73
2
  0
TEXT
  5
33E
330
17
100
AcDbEntity
  8
文字
100
AcDbText
 10
1285.0
 20
26.0
 30
0.0
 40
2.6
  1
单位 mm
  7
CN
 72
1
 11
1285.0
 21
26.0
 31
0.0
100
AcDbText
 73
2
  0
TEXT
  5
33F
330
17
100
AcDbEntity
  8
文字
100
AcDbText
 10
1315.0
 20
26.0
 30
0.0
 40
2.4
  1
R2013
  7
CN
 72
1
 11
1315.0
 21
26.0
 31
0.0
100
AcDbText
 73
2
  0
TEXT
  5
340
330
17
100
AcDbEntity
  8
文字
100
AcDbText
 10
1162.0
 20
16.0
 30
0.0
 40
2.4
  1
设计
  7
CN
 72
1
 11
1162.0
 21
16.0
 31
0.0
100
AcDbText
 73
2
  0
TEXT
  5
341
330
17
100
AcDbEntity
  8
文字
100
AcDbText
 10
1190.0
 20
16.0
 30
0.0
 40
2.4
  1
校核
  7
CN
 72
1
 11
1190.0
 21
16.0
 31
0.0
100
AcDbText
 73
2
  0
TEXT
  5
342
330
17
100
AcDbEntity
  8
文字
100
AcDbText
 10
1220.0
 20
16.0
 30
0.0
 40
2.4
  1
审核
  7
CN
 72
1
 11
1220.0
 21
16.0
 31
0.0
100
AcDbText
 73
2
  0
TEXT
  5
343
330
17
100
AcDbEntity
  8
文字
100
AcDbText
 10
1280.0
 20
16.0
 30
0.0
 40
2.6
  1
DN250 PN25 HG/T20592 RF 法兰取压
  7
CN
 72
1
 11
1280.0
 21
16.0
 31
0.0
100
AcDbText
 73
2
  0
TEXT
  5
344
330
17
100
AcDbEntity
  8
文字
100
AcDbText
 10
934.0
 20
279.0
 30
0.0
 40
5.0
  1
FE-1002  取压法兰 机加工图
  7
CN
 11
934.0
 21
279.0
 31
0.0
100
AcDbText
  0
LINE
  5
345
330
17
100
AcDbEntity
  8
轮廓
  6
Continuous
370
50
100
AcDbLine
 10
960.0
 20
79.16666666666667
 30
0.0
 11
970.6666666666666
 21
79.16666666666667
 31
0.0
  0
LINE
  5
346
330
17
100
AcDbEntity
  8
轮廓
  6
Continuous
370
50
100
AcDbLine
 10
970.6666666666666
 20
79.16666666666667
 30
0.0
 11
970.6666666666666
 21
220.83333333333331
 31
0.0
  0
LINE
  5
347
330
17
100
AcDbEntity
  8
轮廓
  6
Continuous
370
50
100
AcDbLine
 10
970.6666666666666
 20
220.83333333333331
 30
0.0
 11
960.0
 21
220.83333333333331
 31
0.0
  0
LINE
  5
348
330
17
100
AcDbEntity
  8
轮廓
  6
Continuous
370
50
100
AcDbLine
 10
960.0
 20
220.83333333333331
 30
0.0
 11
960.0
 21
79.16666666666667
 31
0.0
  0
LINE
  5
349
330
17
100
AcDbEntity
  8
细实线
  6
Continuous
370
18
100
AcDbLine
 10
960.0
 20
194.16666666666666
 30
0.0
 11
970.6666666666666
 21
194.16666666666666
 31
0.0
  0
LINE
  5
34A
330
17
100
AcDbEntity
  8
细实线
  6
Continuous
370
18
100
AcDbLine
 10
960.0
 20
105.83333333333334
 30
0.0
 11
970.6666666666666
 21
105.83333333333334
 31
0.0
  0
LINE
  5
34B
330
17
100
AcDbEntity
  8
细实线
  6
Continuous
370
18
100
AcDbLine
 10
970.0
 20
205.83333333333331
 30
0.0
 11
970.6666666666666
 21
205.83333333333331
 31
0.0
  0
LINE
  5
34C
330
17
100
AcDbEntity
  8
细实线
  6
Continuous
370
18
100
AcDbLine
 10
970.0
 20
94.16666666666667
 30
0.0
 11
970.6666666666666
 21
94.16666666666667
 31
0.0
  0
LINE
  5
34D
330
17
100
AcDbEntity
  8
轮廓
  6
Continuous
370
50
100
AcDbLine
 10
941.3333333333334
 20
199.66666666666666
 30
0.0
 11
960.0
 21
199.66666666666666
 31
0.0
  0
LINE
  5
34E
330
17
100
AcDbEntity
  8
轮廓
  6
Continuous
370
50
100
AcDbLine
 10
941.3333333333334
 20
100.33333333333334
 30
0.0
 11
960.0
 21
100.33333333333334
 31
0.0
  0
LINE
  5
34F
330
17
100
AcDbEntity
  8
虚线
  6
DASHED
370
18
100
AcDbLine
 10
941.3333333333334
 20
194.16666666666666
 30
0.0
 11
960.0
 21
194.16666666666666
 31
0.0
  0
LINE
  5
350
330
17
100
AcDbEntity
  8
虚线
  6
DASHED
370
18
100
AcDbLine
 10
941.3333333333334
 20
105.83333333333334
 30
0.0
 11
960.0
 21
105.83333333333334
 31
0.0
  0
LINE
  5
351
330
17
100
AcDbEntity
  8
轮廓
  6
Continuous
370
50
100
AcDbLine
 10
941.3333333333334
 20
195.5
 30
0.0
 11
938.0
 21
195.5
 31
0.0
  0
LINE
  5
352
330
17
100
AcDbEntity
  8
轮廓
  6
Continuous
370
50
100
AcDbLine
 10
941.3333333333334
 20
104.5
 30
0.0
 11
938.0
 21
104.5
 31
0.0
  0
LINE
  5
353
330
17
100
AcDbEntity
  8
中心线
  6
CENTER
370
18
100
AcDbLine
 10
936.3333333333334
 20
150.0
 30
0.0
 11
977.3333333333334
 21
150.0
 31
0.0
  0
LINE
  5
354
330
17
100
AcDbEntity
  8
虚线
  6
DASHED
370
18
100
AcDbLine
 10
962.8666666666667
 20
194.16666666666666
 30
0.0
 11
962.8666666666667
 21
220.83333333333331
 31
0.0
  0
LINE
  5
355
330
17
100
AcDbEntity
  8
细实线
  6
Continuous
370
18
100
AcDbLine
 10
961.5333333333333
 20
194.16666666666666
 30
0.0
 11
961.5333333333333
 21
221.83333333333331
 31
0.0
  0
LINE
  5
356
330
17
100
AcDbEntity
  8
细实线
  6
Continuous
370
18
100
AcDbLine
 10
964.2
 20
194.16666666666666
 30
0.0
 11
964.2
 21
221.83333333333331
 31
0.0
  0
LINE
  5
357
330
17
100
AcDbEntity
  8
轮廓
  6
Continuous
370
50
100
AcDbLine
 10
959.3166666666667
 20
220.83333333333331
 30
0.0
 11
966.4166666666666
 21
220.83333333333331
 31
0.0
  0
LINE
  5
358
330
17
100
AcDbEntity
  8
轮廓
  6
Continuous
370
50
100
AcDbLine
 10
966.4166666666666
 20
220.83333333333331
 30
0.0
 11
966.4166666666666
 21
254.16666666666666
 31
0.0
  0
LINE
  5
359
330
17
100
AcDbEntity
  8
轮廓
  6
Continuous
370
50
100
AcDbLine
 10
966.4166666666666
 20
254.16666666666666
 30
0.0
 11
959.3166666666667
 21
254.16666666666666
 31
0.0
  0
LINE
  5
35A
330
17
100
AcDbEntity
  8
轮廓
  6
Continuous
370
50
100
AcDbLine
 10
959.3166666666667
 20
254.16666666666666
 30
0.0
 11
959.3166666666667
 21
220.83333333333331
 31
0.0
  0
LINE
  5
35B
330
17
100
AcDbEntity
  8
标注
  6
Continuous
370
18
100
AcDbLine
 10
960.0
 20
63.16666666666667
 30
0.0
 11
970.6666666666666
 21
63.16666666666667
 31
0.0
  0
LINE
  5
35C
330
17
100
AcDbEntity
  8
标注
  6
Continuous
370
18
100
AcDbLine
 10
960.0
 20
61.366666666666674
 30
0.0
 11
960.0
 21
64.96666666666667
 31
0.0
  0
LINE
  5
35D
330
17
100
AcDbEntity
  8
标注
  6
Continuous
370
18
100
AcDbLine
 10
970.6666666666666
 20
61.366666666666674
 30
0.0
 11
970.6666666666666
 21
64.96666666666667
 31
0.0
  0
LINE
  5
35E
330
17
100
AcDbEntity
  8
标注
  6
Continuous
370
18
100
AcDbLine
 10
960.0
 20
63.16666666666667
 30
0.0
 11
962.6
 21
64.06666666666668
 31
0.0
  0
LINE
  5
35F
330
17
100
AcDbEntity
  8
标注
  6
Continuous
370
18
100
AcDbLine
 10
960.0
 20
63.16666666666667
 30
0.0
 11
962.6
 21
62.26666666666667
 31
0.0
  0
LINE
  5
360
330
17
100
AcDbEntity
  8
标注
  6
Continuous
370
18
100
AcDbLine
 10
970.6666666666666
 20
63.16666666666667
 30
0.0
 11
968.0666666666666
 21
64.06666666666668
 31
0.0
  0
LINE
  5
361
330
17
100
AcDbEntity
  8
标注
  6
Continuous
370
18
100
AcDbLine
 10
970.6666666666666
 20
63.16666666666667
 30
0.0
 11
968.0666666666666
 21
62.26666666666667
 31
0.0
  0
TEXT
  5
362
330
17
100
AcDbEntity
  8
标注
100
AcDbText
 10
965.3333333333333
 20
65.36666666666667
 30
0.0
 40
3.2
  1
C=32.0
  7
CN
 72
1
 11
965.3333333333333
 21
65.36666666666667
 31
0.0
100
AcDbText
 73
1
  0
LINE
  5
363
330
17
100
AcDbEntity
  8
标注
  6
Continuous
370
18
100
AcDbLine
 10
941.3333333333334
 20
47.16666666666667
 30
0.0
 11
970.6666666666666
 21
47.16666666666667
 31
0.0
  0
LINE
  5
364
330
17
100
AcDbEntity
  8
标注
  6
Continuous
370
18
100
AcDbLine
 10
941.3333333333334
 20
45.366666666666674
 30
0.0
 11
941.3333333333334
 21
48.96666666666667
 31
0.0
  0
LINE
  5
365
330
17
100
AcDbEntity
  8
标注
  6
Continuous
370
18
100
AcDbLine
 10
970.6666666666666
 20
45.366666666666674
 30
0.0
 11
970.6666666666666
 21
48.96666666666667
 31
0.0
  0
LINE
  5
366
330
17
100
AcDbEntity
  8
标注
  6
Continuous
370
18
100
AcDbLine
 10
941.3333333333334
 20
47.16666666666667
 30
0.0
 11
943.9333333333334
 21
48.06666666666667
 31
0.0
  0
LINE
  5
367
330
17
100
AcDbEntity
  8
标注
  6
Continuous
370
18
100
AcDbLine
 10
941.3333333333334
 20
47.16666666666667
 30
0.0
 11
943.9333333333334
 21
46.26666666666667
 31
0.0
  0
LINE
  5
368
330
17
100
AcDbEntity
  8
标注
  6
Continuous
370
18
100
AcDbLine
 10
970.6666666666666
 20
47.16666666666667
 30
0.0
 11
968.0666666666666
 21
48.06666666666667
 31
0.0
  0
LINE
  5
369
330
17
100
AcDbEntity
  8
标注
  6
Continuous
370
18
100
AcDbLine
 10
970.6666666666666
 20
47.16666666666667
 30
0.0
 11
968.0666666666666
 21
46.26666666666667
 31
0.0
  0
TEXT
  5
36A
330
17
100
AcDbEntity
  8
标注
100
AcDbText
 10
956.0
 20
49.366666666666674
 30
0.0
 40
3.2
  1
H=88.0
  7
CN
 72
1
 11
956.0
 21
49.366666666666674
 31
0.0
100
AcDbText
 73
1
  0
LINE
  5
36B
330
17
100
AcDbEntity
  8
标注
  6
Continuous
370
18
100
AcDbLine
 10
962.8666666666667
 20
266.16666666666663
 30
0.0
 11
970.6666666666666
 21
266.16666666666663
 31
0.0
  0
LINE
  5
36C
330
17
100
AcDbEntity
  8
标注
  6
Continuous
370
18
100
AcDbLine
 10
962.8666666666667
 20
264.3666666666666
 30
0.0
 11
962.8666666666667
 21
267.96666666666664
 31
0.0
  0
LINE
  5
36D
330
17
100
AcDbEntity
  8
标注
  6
Continuous
370
18
100
AcDbLine
 10
970.6666666666666
 20
264.3666666666666
 30
0.0
 11
970.6666666666666
 21
267.96666666666664
 31
0.0
  0
LINE
  5
36E
330
17
100
AcDbEntity
  8
标注
  6
Continuous
370
18
100
AcDbLine
 10
962.8666666666667
 20
266.16666666666663
 30
0.0
 11
965.4666666666667
 21
267.0666666666666
 31
0.0
  0
LINE
  5
36F
330
17
100
AcDbEntity
  8
标注
  6
Continuous
370
18
100
AcDbLine
 10
962.8666666666667
 20
266.16666666666663
 30
0.0
 11
965.4666666666667
 21
265.26666666666665
 31
0.0
  0
LINE
  5
370
330
17
100
AcDbEntity
  8
标注
  6
Continuous
370
18
100
AcDbLine
 10
970.6666666666666
 20
266.16666666666663
 30
0.0
 11
968.0666666666666
 21
267.0666666666666
 31
0.0
  0
LINE
  5
371
330
17
100
AcDbEntity
  8
标注
  6
Continuous
370
18
100
AcDbLine
 10
970.6666666666666
 20
266.16666666666663
 30
0.0
 11
968.0666666666666
 21
265.26666666666665
 31
0.0
  0
TEXT
  5
372
330
17
100
AcDbEntity
  8
标注
100
AcDbText
 10
966.7666666666667
 20
268.3666666666666
 30
0.0
 40
3.2
  1
23.4
  7
CN
 72
1
 11
966.7666666666667
 21
268.3666666666666
 31
0.0
100
AcDbText
 73
1
  0
LINE
  5
373
330
17
100
AcDbEntity
  8
标注
  6
Continuous
370
18
100
AcDbLine
 10
984.6666666666666
 20
79.16666666666667
 30
0.0
 11
984.6666666666666
 21
220.83333333333331
 31
0.0
  0
LINE
  5
374
330
17
100
AcDbEntity
  8
标注
  6
Continuous
370
18
100
AcDbLine
 10
982.8666666666667
 20
79.16666666666667
 30
0.0
 11
986.4666666666666
 21
79.16666666666667
 31
0.0
  0
LINE
  5
375
330
17
100
AcDbEntity
  8
标注
  6
Continuous
370
18
100
AcDbLine
 10
982.8666666666667
 20
220.83333333333331
 30
0.0
 11
986.4666666666666
 21
220.83333333333331
 31
0.0
  0
LINE
  5
376
330
17
100
AcDbEntity
  8
标注
  6
Continuous
370
18
100
AcDbLine
 10
984.6666666666666
 20
79.16666666666667
 30
0.0
 11
983.7666666666667
 21
81.76666666666667
 31
0.0
  0
LINE
  5
377
330
17
100
AcDbEntity
  8
标注
  6
Continuous
370
18
100
AcDbLine
 10
984.6666666666666
 20
79.16666666666667
 30
0.0
 11
985.5666666666666
 21
81.76666666666667
 31
0.0
  0
LINE
  5
378
330
17
100
AcDbEntity
  8
标注
  6
Continuous
370
18
100
AcDbLine
 10
984.6666666666666
 20
220.83333333333331
 30
0.0
 11
983.7666666666667
 21
218.23333333333332
 31
0.0
  0
LINE
  5
379
330
17
100
AcDbEntity
  8
标注
  6
Continuous
370
18
100
AcDbLine
 10
984.6666666666666
 20
220.83333333333331
 30
0.0
 11
985.5666666666666
 21
218.23333333333332
 31
0.0
  0
TEXT
  5
37A
330
17
100
AcDbEntity
  8
标注
100
AcDbText
 10
990.1666666666666
 20
150.0
 30
0.0
 40
3.2
  1
Φ425
 50
90.0
  7
CN
 72
1
 11
990.1666666666666
 21
150.0
 31
0.0
100
AcDbText
 73
2
  0
LINE
  5
37B
330
17
100
AcDbEntity
  8
标注
  6
Continuous
370
18
100
AcDbLine
 10
929.3333333333334
 20
104.5
 30
0.0
 11
929.3333333333334
 21
195.5
 31
0.0
  0
LINE
  5
37C
330
17
100
AcDbEntity
  8
标注
  6
Continuous
370
18
100
AcDbLine
 10
927.5333333333334
 20
104.5
 30
0.0
 11
931.1333333333333
 21
104.5
 31
0.0
  0
LINE
  5
37D
330
17
100
AcDbEntity
  8
标注
  6
Continuous
370
18
100
AcDbLine
 10
927.5333333333334
 20
195.5
 30
0.0
 11
931.1333333333333
 21
195.5
 31
0.0
  0
LINE
  5
37E
330
17
100
AcDbEntity
  8
标注
  6
Continuous
370
18
100
AcDbLine
 10
929.3333333333334
 20
104.5
 30
0.0
 11
928.4333333333334
 21
107.1
 31
0.0
  0
LINE
  5
37F
330
17
100
AcDbEntity
  8
标注
  6
Continuous
370
18
100
AcDbLine
 10
929.3333333333334
 20
104.5
 30
0.0
 11
930.2333333333333
 21
107.1
 31
0.0
  0
LINE
  5
380
330
17
100
AcDbEntity
  8
标注
  6
Continuous
370
18
100
AcDbLine
 10
929.3333333333334
 20
195.5
 30
0.0
 11
928.4333333333334
 21
192.9
 31
0.0
  0
LINE
  5
381
330
17
100
AcDbEntity
  8
标注
  6
Continuous
370
18
100
AcDbLine
 10
929.3333333333334
 20
195.5
 30
0.0
 11
930.2333333333333
 21
192.9
 31
0.0
  0
TEXT
  5
382
330
17
100
AcDbEntity
  8
标注
100
AcDbText
 10
923.8333333333334
 20
150.0
 30
0.0
 40
3.2
  1
Φ273.0
 50
90.0
  7
CN
 72
1
 11
923.8333333333334
 21
150.0
 31
0.0
100
AcDbText
 73
2
  0
TEXT
  5
383
330
17
100
AcDbEntity
  8
标注
100
AcDbText
 10
966.8666666666667
 20
185.41666666666666
 30
0.0
 40
2.6
  1
取压孔Φ8.0
  7
CN
 11
966.8666666666667
 21
185.41666666666666
 31
0.0
100
AcDbText
  0
TEXT
  5
384
330
17
100
AcDbEntity
  8
标注
100
AcDbText
 10
962.8666666666667
 20
261.5
 30
0.0
 40
2.5
  1
装配后距孔板面25.4±0.8
  7
CN
 72
1
 11
962.8666666666667
 21
261.5
 31
0.0
100
AcDbText
 73
1
  0
TEXT
  5
385
330
17
100
AcDbEntity
  8
文字
100
AcDbText
 10
965.3333333333334
 20
78.0
 30
0.0
 40
3.0
  1
半剖主视（密封面朝右=孔板侧）
  7
CN
 72
1
 11
965.3333333333334
 21
78.0
 31
0.0
100
AcDbText
 73
1
  0
CIRCLE
  5
386
330
17
100
AcDbEntity
  8
轮廓
  6
Continuous
370
50
100
AcDbCircle
 10
1220.0
 20
155.0
 30
0.0
 40
60.71428571428571
  0
CIRCLE
  5
387
330
17
100
AcDbEntity
  8
细实线
  6
Continuous
370
18
100
AcDbCircle
 10
1220.0
 20
155.0
 30
0.0
 40
47.857142857142854
  0
CIRCLE
  5
388
330
17
100
AcDbEntity
  8
轮廓
  6
Continuous
370
50
100
AcDbCircle
 10
1220.0
 20
155.0
 30
0.0
 40
37.857142857142854
  0
CIRCLE
  5
389
330
17
100
AcDbEntity
  8
中心线
  6
CENTER
370
18
100
AcDbCircle
 10
1220.0
 20
155.0
 30
0.0
 40
52.857142857142854
  0
CIRCLE
  5
38A
330
17
100
AcDbEntity
  8
细实线
  6
Continuous
370
18
100
AcDbCircle
 10
1220.0
 20
207.85714285714286
 30
0.0
 40
4.285714285714286
  0
CIRCLE
  5
38B
330
17
100
AcDbEntity
  8
细实线
  6
Continuous
370
18
100
AcDbCircle
 10
1193.5714285714287
 20
200.7756284857489
 30
0.0
 40
4.285714285714286
  0
CIRCLE
  5
38C
330
17
100
AcDbEntity
  8
细实线
  6
Continuous
370
18
100
AcDbCircle
 10
1174.224371514251
 20
181.42857142857142
 30
0.0
 40
4.285714285714286
  0
CIRCLE
  5
38D
330
17
100
AcDbEntity
  8
细实线
  6
Continuous
370
18
100
AcDbCircle
 10
1167.142857142857
 20
155.0
 30
0.0
 40
4.285714285714286
  0
CIRCLE
  5
38E
330
17
100
AcDbEntity
  8
细实线
  6
Continuous
370
18
100
AcDbCircle
 10
1174.224371514251
 20
128.57142857142856
 30
0.0
 40
4.285714285714286
  0
CIRCLE
  5
38F
330
17
100
AcDbEntity
  8
细实线
  6
Continuous
370
18
100
AcDbCircle
 10
1193.5714285714284
 20
109.22437151425112
 30
0.0
 40
4.285714285714286
  0
CIRCLE
  5
390
330
17
100
AcDbEntity
  8
细实线
  6
Continuous
370
18
100
AcDbCircle
 10
1220.0
 20
102.14285714285714
 30
0.0
 40
4.285714285714286
  0
CIRCLE
  5
391
330
17
100
AcDbEntity
  8
细实线
  6
Continuous
370
18
100
AcDbCircle
 10
1246.4285714285713
 20
109.2243715142511
 30
0.0
 40
4.285714285714286
  0
CIRCLE
  5
392
330
17
100
AcDbEntity
  8
细实线
  6
Continuous
370
18
100
AcDbCircle
 10
1265.775628485749
 20
128.57142857142856
 30
0.0
 40
4.285714285714286
  0
CIRCLE
  5
393
330
17
100
AcDbEntity
  8
细实线
  6
Continuous
370
18
100
AcDbCircle
 10
1272.857142857143
 20
155.0
 30
0.0
 40
4.285714285714286
  0
CIRCLE
  5
394
330
17
100
AcDbEntity
  8
细实线
  6
Continuous
370
18
100
AcDbCircle
 10
1265.775628485749
 20
181.42857142857142
 30
0.0
 40
4.285714285714286
  0
CIRCLE
  5
395
330
17
100
AcDbEntity
  8
细实线
  6
Continuous
370
18
100
AcDbCircle
 10
1246.4285714285713
 20
200.7756284857489
 30
0.0
 40
4.285714285714286
  0
CIRCLE
  5
396
330
17
100
AcDbEntity
  8
轮廓
  6
Continuous
370
50
100
AcDbCircle
 10
1220.0
 20
204.28571428571428
 30
0.0
 40
2.3428571428571425
  0
LINE
  5
397
330
17
100
AcDbEntity
  8
中心线
  6
CENTER
370
18
100
AcDbLine
 10
1149.2857142857142
 20
155.0
 30
0.0
 11
1290.7142857142858
 21
155.0
 31
0.0
  0
LINE
  5
398
330
17
100
AcDbEntity
  8
中心线
  6
CENTER
370
18
100
AcDbLine
 10
1220.0
 20
84.28571428571429
 30
0.0
 11
1220.0
 21
225.71428571428572
 31
0.0
  0
LINE
  5
399
330
17
100
AcDbEntity
  8
标注
  6
Continuous
370
18
100
AcDbLine
 10
1167.142857142857
 20
78.28571428571429
 30
0.0
 11
1272.857142857143
 21
78.28571428571429
 31
0.0
  0
LINE
  5
39A
330
17
100
AcDbEntity
  8
标注
  6
Continuous
370
18
100
AcDbLine
 10
1167.142857142857
 20
76.4857142857143
 30
0.0
 11
1167.142857142857
 21
80.08571428571429
 31
0.0
  0
LINE
  5
39B
330
17
100
AcDbEntity
  8
标注
  6
Continuous
370
18
100
AcDbLine
 10
1272.857142857143
 20
76.4857142857143
 30
0.0
 11
1272.857142857143
 21
80.08571428571429
 31
0.0
  0
LINE
  5
39C
330
17
100
AcDbEntity
  8
标注
  6
Continuous
370
18
100
AcDbLine
 10
1167.142857142857
 20
78.28571428571429
 30
0.0
 11
1169.742857142857
 21
79.1857142857143
 31
0.0
  0
LINE
  5
39D
330
17
100
AcDbEntity
  8
标注
  6
Continuous
370
18
100
AcDbLine
 10
1167.142857142857
 20
78.28571428571429
 30
0.0
 11
1169.742857142857
 21
77.38571428571429
 31
0.0
  0
LINE
  5
39E
330
17
100
AcDbEntity
  8
标注
  6
Continuous
370
18
100
AcDbLine
 10
1272.857142857143
 20
78.28571428571429
 30
0.0
 11
1270.257142857143
 21
79.1857142857143
 31
0.0
  0
LINE
  5
39F
330
17
100
AcDbEntity
  8
标注
  6
Continuous
370
18
100
AcDbLine
 10
1272.857142857143
 20
78.28571428571429
 30
0.0
 11
1270.257142857143
 21
77.38571428571429
 31
0.0
  0
TEXT
  5
3A0
330
17
100
AcDbEntity
  8
标注
100
AcDbText
 10
1220.0
 20
80.4857142857143
 30
0.0
 40
3.2
  1
Φ370
  7
CN
 72
1
 11
1220.0
 21
80.4857142857143
 31
0.0
100
AcDbText
 73
1
  0
TEXT
  5
3A1
330
17
100
AcDbEntity
  8
标注
100
AcDbText
 10
1220.0
 20
66.28571428571429
 30
0.0
 40
2.6
  1
12×Φ30  螺栓M27
  7
CN
 72
1
 11
1220.0
 21
66.28571428571429
 31
0.0
100
AcDbText
 73
3
  0
TEXT
  5
3A2
330
17
100
AcDbEntity
  8
标注
100
AcDbText
 10
1220.0
 20
229.71428571428572
 30
0.0
 40
2.6
  1
RF Φ335×2.0
  7
CN
 72
1
 11
1220.0
 21
229.71428571428572
 31
0.0
100
AcDbText
 73
1
  0
TEXT
  5
3A3
330
17
100
AcDbEntity
  8
文字
100
AcDbText
 10
1220.0
 20
78.0
 30
0.0
 40
3.0
  1
密封面视
  7
CN
 72
1
 11
1220.0
 21
78.0
 31
0.0
100
AcDbText
 73
1
  0
TEXT
  5
3A4
330
17
100
AcDbEntity
  8
文字
100
AcDbText
 10
938.0
 20
68.0
 30
0.0
 40
3.0
  1
零件技术要求：
  7
CN
 11
938.0
 21
68.0
 31
0.0
100
AcDbText
 73
3
  0
TEXT
  5
3A5
330
17
100
AcDbEntity
  8
文字
100
AcDbText
 10
938.0
 20
61.8
 30
0.0
 40
2.4
  1
1. 法兰按 HG/T20592-2009 PN25 DN250 带颈对焊 RF；材料 F304/F304L。
  7
CN
 11
938.0
 21
61.8
 31
0.0
100
AcDbText
 73
3
  0
TEXT
  5
3A6
330
17
100
AcDbEntity
  8
文字
100
AcDbText
 10
938.0
 20
55.6
 30
0.0
 40
2.4
  1
2. 颈部内径与管道内径对齐 D=265.0；焊端 Φ273.0×4.0。
  7
CN
 11
938.0
 21
55.6
 31
0.0
100
AcDbText
 73
3
  0
TEXT
  5
3A7
330
17
100
AcDbEntity
  8
文字
100
AcDbText
 10
938.0
 20
49.4
 30
0.0
 40
2.4
  1
3. 法兰取压：孔轴线距密封面 23.4（垫片2.0），保证装后距孔板面 25.4±0.8。
  7
CN
 11
938.0
 21
49.4
 31
0.0
100
AcDbText
 73
3
  0
TEXT
  5
3A8
330
17
100
AcDbEntity
  8
文字
100
AcDbText
 10
938.0
 20
43.2
 30
0.0
 40
2.4
  1
4. 取压管 DN15 Φ21.3×2.77 与法兰外圆焊接，坡口/焊脚按 WPS；内孔与取压孔贯通无毛刺。
  7
CN
 11
938.0
 21
43.2
 31
0.0
100
AcDbText
 73
3
  0
TEXT
  5
3A9
330
17
100
AcDbEntity
  8
文字
100
AcDbText
 10
938.0
 20
37.0
 30
0.0
 40
2.4
  1
5. 上/下游法兰各 1 件，取压方位对称；螺栓孔可配钻。
  7
CN
 11
938.0
 21
37.0
 31
0.0
100
AcDbText
 73
3
  0
TEXT
  5
3AA
330
17
100
AcDbEntity
  8
文字
100
AcDbText
 10
938.0
 20
30.799999999999997
 30
0.0
 40
2.4
  1
6. RF 密封面粗糙度 Ra3.2；其余非加工面保留。
  7
CN
 11
938.0
 21
30.799999999999997
 31
0.0
100
AcDbText
 73
3
  0
TEXT
  5
3AB
330
17
100
AcDbEntity
  8
文字
100
AcDbText
 10
938.0
 20
24.6
 30
0.0
 40
2.4
  1
7. 件数：上游1 + 下游1。
  7
CN
 11
938.0
 21
24.6
 31
0.0
100
AcDbText
 73
3
  0
LINE
  5
3AC
330
17
100
AcDbEntity
  8
图框
  6
Continuous
370
50
100
AcDbLine
 10
1380.0
 20
0.0
 30
0.0
 11
1800.0
 21
0.0
 31
0.0
  0
LINE
  5
3AD
330
17
100
AcDbEntity
  8
图框
  6
Continuous
370
50
100
AcDbLine
 10
1800.0
 20
0.0
 30
0.0
 11
1800.0
 21
297.0
 31
0.0
  0
LINE
  5
3AE
330
17
100
AcDbEntity
  8
图框
  6
Continuous
370
50
100
AcDbLine
 10
1800.0
 20
297.0
 30
0.0
 11
1380.0
 21
297.0
 31
0.0
  0
LINE
  5
3AF
330
17
100
AcDbEntity
  8
图框
  6
Continuous
370
50
100
AcDbLine
 10
1380.0
 20
297.0
 30
0.0
 11
1380.0
 21
0.0
 31
0.0
  0
LINE
  5
3B0
330
17
100
AcDbEntity
  8
图框
  6
Continuous
370
18
100
AcDbLine
 10
1390.0
 20
10.0
 30
0.0
 11
1790.0
 21
10.0
 31
0.0
  0
LINE
  5
3B1
330
17
100
AcDbEntity
  8
图框
  6
Continuous
370
18
100
AcDbLine
 10
1790.0
 20
10.0
 30
0.0
 11
1790.0
 21
287.0
 31
0.0
  0
LINE
  5
3B2
330
17
100
AcDbEntity
  8
图框
  6
Continuous
370
18
100
AcDbLine
 10
1790.0
 20
287.0
 30
0.0
 11
1390.0
 21
287.0
 31
0.0
  0
LINE
  5
3B3
330
17
100
AcDbEntity
  8
图框
  6
Continuous
370
18
100
AcDbLine
 10
1390.0
 20
287.0
 30
0.0
 11
1390.0
 21
10.0
 31
0.0
  0
LINE
  5
3B4
330
17
100
AcDbEntity
  8
图框
  6
Continuous
370
50
100
AcDbLine
 10
1610.0
 20
10.0
 30
0.0
 11
1790.0
 21
10.0
 31
0.0
  0
LINE
  5
3B5
330
17
100
AcDbEntity
  8
图框
  6
Continuous
370
50
100
AcDbLine
 10
1790.0
 20
10.0
 30
0.0
 11
1790.0
 21
66.0
 31
0.0
  0
LINE
  5
3B6
330
17
100
AcDbEntity
  8
图框
  6
Continuous
370
50
100
AcDbLine
 10
1790.0
 20
66.0
 30
0.0
 11
1610.0
 21
66.0
 31
0.0
  0
LINE
  5
3B7
330
17
100
AcDbEntity
  8
图框
  6
Continuous
370
50
100
AcDbLine
 10
1610.0
 20
66.0
 30
0.0
 11
1610.0
 21
10.0
 31
0.0
  0
LINE
  5
3B8
330
17
100
AcDbEntity
  8
图框
  6
Continuous
370
18
100
AcDbLine
 10
1610.0
 20
26.0
 30
0.0
 11
1790.0
 21
26.0
 31
0.0
  0
LINE
  5
3B9
330
17
100
AcDbEntity
  8
图框
  6
Continuous
370
18
100
AcDbLine
 10
1610.0
 20
38.0
 30
0.0
 11
1790.0
 21
38.0
 31
0.0
  0
LINE
  5
3BA
330
17
100
AcDbEntity
  8
图框
  6
Continuous
370
18
100
AcDbLine
 10
1610.0
 20
50.0
 30
0.0
 11
1790.0
 21
50.0
 31
0.0
  0
LINE
  5
3BB
330
17
100
AcDbEntity
  8
图框
  6
Continuous
370
18
100
AcDbLine
 10
1610.0
 20
66.0
 30
0.0
 11
1790.0
 21
66.0
 31
0.0
  0
LINE
  5
3BC
330
17
100
AcDbEntity
  8
图框
  6
Continuous
370
18
100
AcDbLine
 10
1660.0
 20
10.0
 30
0.0
 11
1660.0
 21
66.0
 31
0.0
  0
LINE
  5
3BD
330
17
100
AcDbEntity
  8
图框
  6
Continuous
370
18
100
AcDbLine
 10
1730.0
 20
10.0
 30
0.0
 11
1730.0
 21
66.0
 31
0.0
  0
LINE
  5
3BE
330
17
100
AcDbEntity
  8
图框
  6
Continuous
370
18
100
AcDbLine
 10
1760.0
 20
10.0
 30
0.0
 11
1760.0
 21
66.0
 31
0.0
  0
TEXT
  5
3BF
330
17
100
AcDbEntity
  8
文字
100
AcDbText
 10
1635.0
 20
58.0
 30
0.0
 40
3.5
  1
生产加工图
  7
CN
 72
1
 11
1635.0
 21
58.0
 31
0.0
100
AcDbText
 73
2
  0
TEXT
  5
3C0
330
17
100
AcDbEntity
  8
文字
100
AcDbText
 10
1695.0
 20
58.0
 30
0.0
 40
4.0
  1
取压管 / 短节 机加工图
  7
CN
 72
1
 11
1695.0
 21
58.0
 31
0.0
100
AcDbText
 73
2
  0
TEXT
  5
3C1
330
17
100
AcDbEntity
  8
文字
100
AcDbText
 10
1745.0
 20
58.0
 30
0.0
 40
2.6
  1
材料F304/F304L
  7
CN
 72
1
 11
1745.0
 21
58.0
 31
0.0
100
AcDbText
 73
2
  0
TEXT
  5
3C2
330
17
100
AcDbEntity
  8
文字
100
AcDbText
 10
1775.0
 20
58.0
 30
0.0
 40
2.8
  1
比例 2:1 / 1:2
  7
CN
 72
1
 11
1775.0
 21
58.0
 31
0.0
100
AcDbText
 73
2
  0
TEXT
  5
3C3
330
17
100
AcDbEntity
  8
文字
100
AcDbText
 10
1635.0
 20
38.0
 30
0.0
 40
3.0
  1
位号 FE-1002
  7
CN
 72
1
 11
1635.0
 21
38.0
 31
0.0
100
AcDbText
 73
2
  0
TEXT
  5
3C4
330
17
100
AcDbEntity
  8
文字
100
AcDbText
 10
1695.0
 20
38.0
 30
0.0
 40
3.0
  1
图号 FE-1002-00-4/5
  7
CN
 72
1
 11
1695.0
 21
38.0
 31
0.0
100
AcDbText
 73
2
  0
TEXT
  5
3C5
330
17
100
AcDbEntity
  8
文字
100
AcDbText
 10
1745.0
 20
38.0
 30
0.0
 40
2.6
  1
共4张
  7
CN
 72
1
 11
1745.0
 21
38.0
 31
0.0
100
AcDbText
 73
2
  0
TEXT
  5
3C6
330
17
100
AcDbEntity
  8
文字
100
AcDbText
 10
1775.0
 20
38.0
 30
0.0
 40
2.6
  1
第4张
  7
CN
 72
1
 11
1775.0
 21
38.0
 31
0.0
100
AcDbText
 73
2
  0
TEXT
  5
3C7
330
17
100
AcDbEntity
  8
文字
100
AcDbText
 10
1635.0
 20
26.0
 30
0.0
 40
2.6
  1
出厂号 26031402
  7
CN
 72
1
 11
1635.0
 21
26.0
 31
0.0
100
AcDbText
 73
2
  0
TEXT
  5
3C8
330
17
100
AcDbEntity
  8
文字
100
AcDbText
 10
1695.0
 20
26.0
 30
0.0
 40
2.6
  1
型号 ROH10×JX25N2
  7
CN
 72
1
 11
1695.0
 21
26.0
 31
0.0
100
AcDbText
 73
2
  0
TEXT
  5
3C9
330
17
100
AcDbEntity
  8
文字
100
AcDbText
 10
1745.0
 20
26.0
 30
0.0
 40
2.6
  1
单位 mm
  7
CN
 72
1
 11
1745.0
 21
26.0
 31
0.0
100
AcDbText
 73
2
  0
TEXT
  5
3CA
330
17
100
AcDbEntity
  8
文字
100
AcDbText
 10
1775.0
 20
26.0
 30
0.0
 40
2.4
  1
R2013
  7
CN
 72
1
 11
1775.0
 21
26.0
 31
0.0
100
AcDbText
 73
2
  0
TEXT
  5
3CB
330
17
100
AcDbEntity
  8
文字
100
AcDbText
 10
1622.0
 20
16.0
 30
0.0
 40
2.4
  1
设计
  7
CN
 72
1
 11
1622.0
 21
16.0
 31
0.0
100
AcDbText
 73
2
  0
TEXT
  5
3CC
330
17
100
AcDbEntity
  8
文字
100
AcDbText
 10
1650.0
 20
16.0
 30
0.0
 40
2.4
  1
校核
  7
CN
 72
1
 11
1650.0
 21
16.0
 31
0.0
100
AcDbText
 73
2
  0
TEXT
  5
3CD
330
17
100
AcDbEntity
  8
文字
100
AcDbText
 10
1680.0
 20
16.0
 30
0.0
 40
2.4
  1
审核
  7
CN
 72
1
 11
1680.0
 21
16.0
 31
0.0
100
AcDbText
 73
2
  0
TEXT
  5
3CE
330
17
100
AcDbEntity
  8
文字
100
AcDbText
 10
1740.0
 20
16.0
 30
0.0
 40
2.6
  1
DN250 PN25 HG/T20592 RF 法兰取压
  7
CN
 72
1
 11
1740.0
 21
16.0
 31
0.0
100
AcDbText
 73
2
  0
TEXT
  5
3CF
330
17
100
AcDbEntity
  8
文字
100
AcDbText
 10
1394.0
 20
279.0
 30
0.0
 40
5.0
  1
FE-1002  取压管 / 短节 机加工图
  7
CN
 11
1394.0
 21
279.0
 31
0.0
100
AcDbText
  0
LINE
  5
3D0
330
17
100
AcDbEntity
  8
轮廓
  6
Continuous
370
50
100
AcDbLine
 10
1430.0
 20
158.7
 30
0.0
 11
1630.0
 21
158.7
 31
0.0
  0
LINE
  5
3D1
330
17
100
AcDbEntity
  8
轮廓
  6
Continuous
370
50
100
AcDbLine
 10
1630.0
 20
158.7
 30
0.0
 11
1630.0
 21
201.3
 31
0.0
  0
LINE
  5
3D2
330
17
100
AcDbEntity
  8
轮廓
  6
Continuous
370
50
100
AcDbLine
 10
1630.0
 20
201.3
 30
0.0
 11
1430.0
 21
201.3
 31
0.0
  0
LINE
  5
3D3
330
17
100
AcDbEntity
  8
轮廓
  6
Continuous
370
50
100
AcDbLine
 10
1430.0
 20
201.3
 30
0.0
 11
1430.0
 21
158.7
 31
0.0
  0
LINE
  5
3D4
330
17
100
AcDbEntity
  8
虚线
  6
DASHED
370
18
100
AcDbLine
 10
1430.0
 20
164.24
 30
0.0
 11
1630.0
 21
164.24
 31
0.0
  0
LINE
  5
3D5
330
17
100
AcDbEntity
  8
虚线
  6
DASHED
370
18
100
AcDbLine
 10
1430.0
 20
195.76
 30
0.0
 11
1630.0
 21
195.76
 31
0.0
  0
LINE
  5
3D6
330
17
100
AcDbEntity
  8
中心线
  6
CENTER
370
18
100
AcDbLine
 10
1422.0
 20
180.0
 30
0.0
 11
1638.0
 21
180.0
 31
0.0
  0
LINE
  5
3D7
330
17
100
AcDbEntity
  8
轮廓
  6
Continuous
370
50
100
AcDbLine
 10
1430.0
 20
158.7
 30
0.0
 11
1435.0
 21
164.24
 31
0.0
  0
LINE
  5
3D8
330
17
100
AcDbEntity
  8
轮廓
  6
Continuous
370
50
100
AcDbLine
 10
1430.0
 20
201.3
 30
0.0
 11
1435.0
 21
195.76
 31
0.0
  0
LINE
  5
3D9
330
17
100
AcDbEntity
  8
轮廓
  6
Continuous
370
50
100
AcDbLine
 10
1630.0
 20
158.7
 30
0.0
 11
1625.0
 21
164.24
 31
0.0
  0
LINE
  5
3DA
330
17
100
AcDbEntity
  8
轮廓
  6
Continuous
370
50
100
AcDbLine
 10
1630.0
 20
201.3
 30
0.0
 11
1625.0
 21
195.76
 31
0.0
  0
LINE
  5
3DB
330
17
100
AcDbEntity
  8
标注
  6
Continuous
370
18
100
AcDbLine
 10
1430.0
 20
144.7
 30
0.0
 11
1630.0
 21
144.7
 31
0.0
  0
LINE
  5
3DC
330
17
100
AcDbEntity
  8
标注
  6
Continuous
370
18
100
AcDbLine
 10
1430.0
 20
142.89999999999998
 30
0.0
 11
1430.0
 21
146.5
 31
0.0
  0
LINE
  5
3DD
330
17
100
AcDbEntity
  8
标注
  6
Continuous
370
18
100
AcDbLine
 10
1630.0
 20
142.89999999999998
 30
0.0
 11
1630.0
 21
146.5
 31
0.0
  0
LINE
  5
3DE
330
17
100
AcDbEntity
  8
标注
  6
Continuous
370
18
100
AcDbLine
 10
1430.0
 20
144.7
 30
0.0
 11
1432.6
 21
145.6
 31
0.0
  0
LINE
  5
3DF
330
17
100
AcDbEntity
  8
标注
  6
Continuous
370
18
100
AcDbLine
 10
1430.0
 20
144.7
 30
0.0
 11
1432.6
 21
143.79999999999998
 31
0.0
  0
LINE
  5
3E0
330
17
100
AcDbEntity
  8
标注
  6
Continuous
370
18
100
AcDbLine
 10
1630.0
 20
144.7
 30
0.0
 11
1627.4
 21
145.6
 31
0.0
  0
LINE
  5
3E1
330
17
100
AcDbEntity
  8
标注
  6
Continuous
370
18
100
AcDbLine
 10
1630.0
 20
144.7
 30
0.0
 11
1627.4
 21
143.79999999999998
 31
0.0
  0
TEXT
  5
3E2
330
17
100
AcDbEntity
  8
标注
100
AcDbText
 10
1530.0
 20
146.89999999999998
 30
0.0
 40
3.2
  1
L=100.0
  7
CN
 72
1
 11
1530.0
 21
146.89999999999998
 31
0.0
100
AcDbText
 73
1
  0
LINE
  5
3E3
330
17
100
AcDbEntity
  8
标注
  6
Continuous
370
18
100
AcDbLine
 10
1642.0
 20
158.7
 30
0.0
 11
1642.0
 21
201.3
 31
0.0
  0
LINE
  5
3E4
330
17
100
AcDbEntity
  8
标注
  6
Continuous
370
18
100
AcDbLine
 10
1640.2
 20
158.7
 30
0.0
 11
1643.8
 21
158.7
 31
0.0
  0
LINE
  5
3E5
330
17
100
AcDbEntity
  8
标注
  6
Continuous
370
18
100
AcDbLine
 10
1640.2
 20
201.3
 30
0.0
 11
1643.8
 21
201.3
 31
0.0
  0
LINE
  5
3E6
330
17
100
AcDbEntity
  8
标注
  6
Continuous
370
18
100
AcDbLine
 10
1642.0
 20
158.7
 30
0.0
 11
1641.1
 21
161.29999999999998
 31
0.0
  0
LINE
  5
3E7
330
17
100
AcDbEntity
  8
标注
  6
Continuous
370
18
100
AcDbLine
 10
1642.0
 20
158.7
 30
0.0
 11
1642.9
 21
161.29999999999998
 31
0.0
  0
LINE
  5
3E8
330
17
100
AcDbEntity
  8
标注
  6
Continuous
370
18
100
AcDbLine
 10
1642.0
 20
201.3
 30
0.0
 11
1641.1
 21
198.70000000000002
 31
0.0
  0
LINE
  5
3E9
330
17
100
AcDbEntity
  8
标注
  6
Continuous
370
18
100
AcDbLine
 10
1642.0
 20
201.3
 30
0.0
 11
1642.9
 21
198.70000000000002
 31
0.0
  0
TEXT
  5
3EA
330
17
100
AcDbEntity
  8
标注
100
AcDbText
 10
1647.5
 20
180.0
 30
0.0
 40
3.2
  1
Φ21.3×2.77
 50
90.0
  7
CN
 72
1
 11
1647.5
 21
180.0
 31
0.0
100
AcDbText
 73
2
  0
TEXT
  5
3EB
330
17
100
AcDbEntity
  8
文字
100
AcDbText
 10
1530.0
 20
219.3
 30
0.0
 40
3.2
  1
取压管  DN15(1/2")  BW  F304/F304L  件数2  比例2:1
  7
CN
 72
1
 11
1530.0
 21
219.3
 31
0.0
100
AcDbText
 73
1
  0
TEXT
  5
3EC
330
17
100
AcDbEntity
  8
文字
100
AcDbText
 10
1530.0
 20
130.7
 30
0.0
 40
2.5
  1
一端焊法兰，一端接仪表阀/管件；坡口 GB/T985.1
  7
CN
 72
1
 11
1530.0
 21
130.7
 31
0.0
100
AcDbText
 73
3
  0
LINE
  5
3ED
330
17
100
AcDbEntity
  8
轮廓
  6
Continuous
370
50
100
AcDbLine
 10
1430.0
 20
31.75
 30
0.0
 11
1490.0
 21
31.75
 31
0.0
  0
LINE
  5
3EE
330
17
100
AcDbEntity
  8
轮廓
  6
Continuous
370
50
100
AcDbLine
 10
1490.0
 20
31.75
 30
0.0
 11
1490.0
 21
168.25
 31
0.0
  0
LINE
  5
3EF
330
17
100
AcDbEntity
  8
轮廓
  6
Continuous
370
50
100
AcDbLine
 10
1490.0
 20
168.25
 30
0.0
 11
1430.0
 21
168.25
 31
0.0
  0
LINE
  5
3F0
330
17
100
AcDbEntity
  8
轮廓
  6
Continuous
370
50
100
AcDbLine
 10
1430.0
 20
168.25
 30
0.0
 11
1430.0
 21
31.75
 31
0.0
  0
LINE
  5
3F1
330
17
100
AcDbEntity
  8
虚线
  6
DASHED
370
18
100
AcDbLine
 10
1430.0
 20
33.75
 30
0.0
 11
1490.0
 21
33.75
 31
0.0
  0
LINE
  5
3F2
330
17
100
AcDbEntity
  8
虚线
  6
DASHED
370
18
100
AcDbLine
 10
1430.0
 20
166.25
 30
0.0
 11
1490.0
 21
166.25
 31
0.0
  0
LINE
  5
3F3
330
17
100
AcDbEntity
  8
中心线
  6
CENTER
370
18
100
AcDbLine
 10
1420.0
 20
100.0
 30
0.0
 11
1500.0
 21
100.0
 31
0.0
  0
LINE
  5
3F4
330
17
100
AcDbEntity
  8
标注
  6
Continuous
370
18
100
AcDbLine
 10
1430.0
 20
17.75
 30
0.0
 11
1490.0
 21
17.75
 31
0.0
  0
LINE
  5
3F5
330
17
100
AcDbEntity
  8
标注
  6
Continuous
370
18
100
AcDbLine
 10
1430.0
 20
15.95
 30
0.0
 11
1430.0
 21
19.55
 31
0.0
  0
LINE
  5
3F6
330
17
100
AcDbEntity
  8
标注
  6
Continuous
370
18
100
AcDbLine
 10
1490.0
 20
15.95
 30
0.0
 11
1490.0
 21
19.55
 31
0.0
  0
LINE
  5
3F7
330
17
100
AcDbEntity
  8
标注
  6
Continuous
370
18
100
AcDbLine
 10
1430.0
 20
17.75
 30
0.0
 11
1432.6
 21
18.65
 31
0.0
  0
LINE
  5
3F8
330
17
100
AcDbEntity
  8
标注
  6
Continuous
370
18
100
AcDbLine
 10
1430.0
 20
17.75
 30
0.0
 11
1432.6
 21
16.85
 31
0.0
  0
LINE
  5
3F9
330
17
100
AcDbEntity
  8
标注
  6
Continuous
370
18
100
AcDbLine
 10
1490.0
 20
17.75
 30
0.0
 11
1487.4
 21
18.65
 31
0.0
  0
LINE
  5
3FA
330
17
100
AcDbEntity
  8
标注
  6
Continuous
370
18
100
AcDbLine
 10
1490.0
 20
17.75
 30
0.0
 11
1487.4
 21
16.85
 31
0.0
  0
TEXT
  5
3FB
330
17
100
AcDbEntity
  8
标注
100
AcDbText
 10
1460.0
 20
19.95
 30
0.0
 40
3.2
  1
L=120.0
  7
CN
 72
1
 11
1460.0
 21
19.95
 31
0.0
100
AcDbText
 73
1
  0
LINE
  5
3FC
330
17
100
AcDbEntity
  8
标注
  6
Continuous
370
18
100
AcDbLine
 10
1504.0
 20
31.75
 30
0.0
 11
1504.0
 21
168.25
 31
0.0
  0
LINE
  5
3FD
330
17
100
AcDbEntity
  8
标注
  6
Continuous
370
18
100
AcDbLine
 10
1502.2
 20
31.75
 30
0.0
 11
1505.8
 21
31.75
 31
0.0
  0
LINE
  5
3FE
330
17
100
AcDbEntity
  8
标注
  6
Continuous
370
18
100
AcDbLine
 10
1502.2
 20
168.25
 30
0.0
 11
1505.8
 21
168.25
 31
0.0
  0
LINE
  5
3FF
330
17
100
AcDbEntity
  8
标注
  6
Continuous
370
18
100
AcDbLine
 10
1504.0
 20
31.75
 30
0.0
 11
1503.1
 21
34.35
 31
0.0
  0
LINE
  5
400
330
17
100
AcDbEntity
  8
标注
  6
Continuous
370
18
100
AcDbLine
 10
1504.0
 20
31.75
 30
0.0
 11
1504.9
 21
34.35
 31
0.0
  0
LINE
  5
401
330
17
100
AcDbEntity
  8
标注
  6
Continuous
370
18
100
AcDbLine
 10
1504.0
 20
168.25
 30
0.0
 11
1503.1
 21
165.65
 31
0.0
  0
LINE
  5
402
330
17
100
AcDbEntity
  8
标注
  6
Continuous
370
18
100
AcDbLine
 10
1504.0
 20
168.25
 30
0.0
 11
1504.9
 21
165.65
 31
0.0
  0
TEXT
  5
403
330
17
100
AcDbEntity
  8
标注
100
AcDbText
 10
1509.5
 20
100.0
 30
0.0
 40
3.2
  1
Φ273.0×4.0
 50
90.0
  7
CN
 72
1
 11
1509.5
 21
100.0
 31
0.0
100
AcDbText
 73
2
  0
TEXT
  5
404
330
17
100
AcDbEntity
  8
文字
100
AcDbText
 10
1460.0
 20
184.25
 30
0.0
 40
3.2
  1
短节  F304/F304L  件数2  比例1:2  （两端 BW 接法兰颈/工艺管线）
  7
CN
 72
1
 11
1460.0
 21
184.25
 31
0.0
100
AcDbText
 73
1
  0
TEXT
  5
405
330
17
100
AcDbEntity
  8
文字
100
AcDbText
 10
1400.0
 20
55.0
 30
0.0
 40
3.0
  1
说明：
  7
CN
 11
1400.0
 21
55.0
 31
0.0
100
AcDbText
 73
3
  0
TEXT
  5
406
330
17
100
AcDbEntity
  8
文字
100
AcDbText
 10
1400.0
 20
48.0
 30
0.0
 40
2.5
  1
1. 取压管、短节材料与法兰同炉号/同牌号为宜。
  7
CN
 11
1400.0
 21
48.0
 31
0.0
100
AcDbText
 73
3
  0
TEXT
  5
407
330
17
100
AcDbEntity
  8
文字
100
AcDbText
 10
1400.0
 20
41.0
 30
0.0
 40
2.5
  1
2. 深冷不锈钢焊后酸洗钝化；焊缝 PT/RT 按业主规格。
  7
CN
 11
1400.0
 21
41.0
 31
0.0
100
AcDbText
 73
3
  0
TEXT
  5
408
330
17
100
AcDbEntity
  8
文字
100
AcDbText
 10
1400.0
 20
34.0
 30
0.0
 40
2.5
  1
3. 本套装置为流量测量孔板（非限流孔板），孔径与锐边按计量标准执行。
  7
CN
 11
1400.0
 21
34.0
 31
0.0
100
AcDbText
 73
3
  0
TEXT
  5
409
330
17
100
AcDbEntity
  8
文字
100
AcDbText
 10
1400.0
 20
27.0
 30
0.0
 40
2.5
  1
4. 配套计算书：FE-1002.RO  S/N 26031402  β=0.5139  D=265.0。
  7
CN
 11
1400.0
 21
27.0
 31
0.0
100
AcDbText
 73
3
  0
ENDSEC
  0
SECTION
  2
OBJECTS
  0
DICTIONARY
  5
A
330
0
100
AcDbDictionary
281
1
  3
ACAD_COLOR
350
B
  3
ACAD_GROUP
350
C
  3
ACAD_LAYOUT
350
D
  3
ACAD_MATERIAL
350
E
  3
ACAD_MLEADERSTYLE
350
F
  3
ACAD_MLINESTYLE
350
10
  3
ACAD_PLOTSETTINGS
350
11
  3
ACAD_PLOTSTYLENAME
350
12
  3
ACAD_SCALELIST
350
14
  3
ACAD_TABLESTYLE
350
15
  3
ACAD_VISUALSTYLE
350
16
  3
EZDXF_META
350
2D
  0
DICTIONARY
  5
B
330
A
100
AcDbDictionary
281
1
  0
DICTIONARY
  5
C
330
A
100
AcDbDictionary
281
1
  0
DICTIONARY
  5
D
330
A
100
AcDbDictionary
281
1
  3
Model
350
1A
  3
Layout1
350
1E
  0
DICTIONARY
  5
E
330
A
100
AcDbDictionary
281
1
  3
ByBlock
350
1F
  3
ByLayer
350
20
  3
Global
350
21
  0
DICTIONARY
  5
F
330
A
100
AcDbDictionary
281
1
  3
Standard
350
2C
  0
DICTIONARY
  5
10
330
A
100
AcDbDictionary
281
1
  3
Standard
350
22
  0
DICTIONARY
  5
11
330
A
100
AcDbDictionary
281
1
  0
ACDBDICTIONARYWDFLT
  5
12
330
A
100
AcDbDictionary
281
1
  3
Normal
350
13
100
AcDbDictionaryWithDefault
340
13
  0
ACDBPLACEHOLDER
  5
13
330
12
  0
DICTIONARY
  5
14
330
A
100
AcDbDictionary
281
1
  0
DICTIONARY
  5
15
330
A
100
AcDbDictionary
281
1
  0
DICTIONARY
  5
16
330
A
100
AcDbDictionary
281
1
  3
2dWireframe
350
5A
  3
Basic
350
5B
  3
Brighten
350
5C
  3
ColorChange
350
5D
  3
Conceptual
350
5E
  3
Dim
350
5F
  3
EdgeColorOff
350
60
  3
Facepattern
350
61
  3
Flat
350
62
  3
FlatWithEdges
350
63
  3
Gouraud
350
64
  3
GouraudWithEdges
350
65
  3
Hidden
350
66
  3
JitterOff
350
67
  3
Linepattern
350
68
  3
Modeling
350
69
  3
OverhangOff
350
6A
  3
Realistic
350
6B
  3
Shaded
350
6C
  3
Shaded with edges
350
6D
  3
Shades of Gray
350
6E
  3
Sketchy
350
6F
  3
Thicken
350
70
  3
Wireframe
350
71
  3
X-Ray
350
72
  0
LAYOUT
  5
1A
330
D
100
AcDbPlotSettings
  1

  4
A3
  6

 40
7.5
 41
20.0
 42
7.5
 43
20.0
 44
420.0
 45
297.0
 46
0.0
 47
0.0
 48
0.0
 49
0.0
140
0.0
141
0.0
142
1.0
143
1.0
 70
1024
 72
1
 73
0
 74
5
  7

 75
16
 76
0
 77
2
 78
300
147
1.0
148
0.0
149
0.0
100
AcDbLayout
  1
Model
 70
1
 71
0
 10
0.0
 20
0.0
 11
420.0
 21
297.0
 12
0.0
 22
0.0
 32
0.0
 14
1e+20
 24
1e+20
 34
1e+20
 15
-1e+20
 25
-1e+20
 35
-1e+20
146
0.0
 13
0.0
 23
0.0
 33
0.0
 16
1.0
 26
0.0
 36
0.0
 17
0.0
 27
1.0
 37
0.0
 76
1
330
17
  0
LAYOUT
  5
1E
330
D
100
AcDbPlotSettings
  1

  4
A3
  6

 40
7.5
 41
20.0
 42
7.5
 43
20.0
 44
420.0
 45
297.0
 46
0.0
 47
0.0
 48
0.0
 49
0.0
140
0.0
141
0.0
142
1.0
143
1.0
 70
0
 72
1
 73
0
 74
5
  7

 75
16
 76
0
 77
2
 78
300
147
1.0
148
0.0
149
0.0
100
AcDbLayout
  1
Layout1
 70
1
 71
1
 10
0.0
 20
0.0
 11
420.0
 21
297.0
 12
0.0
 22
0.0
 32
0.0
 14
1e+20
 24
1e+20
 34
1e+20
 15
-1e+20
 25
-1e+20
 35
-1e+20
146
0.0
 13
0.0
 23
0.0
 33
0.0
 16
1.0
 26
0.0
 36
0.0
 17
0.0
 27
1.0
 37
0.0
 76
1
330
1B
  0
MATERIAL
  5
1F
102
{ACAD_REACTORS
330
E
102
}
330
E
100
AcDbMaterial
  1
ByBlock
  2

 70
0
 40
1.0
 71
1
 41
1.0
 91
-1023410177
 42
1.0
 72
1
  3

 73
1
 74
1
 75
1
 44
0.5
 73
0
 45
1.0
 46
1.0
 77
1
  4

 78
1
 79
1
170
1
 48
1.0
171
1
  6

172
1
173
1
174
1
140
1.0
141
1.0
175
1
  7

176
1
177
1
178
1
143
1.0
179
1
  8

270
1
271
1
272
1
145
1.0
146
1.0
273
1
  9

274
1
275
1
276
1
 42
1.0
 72
1
  3

 73
1
 74
1
 75
1
 94
63
  0
MATERIAL
  5
20
102
{ACAD_REACTORS
330
E
102
}
330
E
100
AcDbMaterial
  1
ByLayer
  2

 70
0
 40
1.0
 71
1
 41
1.0
 91
-1023410177
 42
1.0
 72
1
  3

 73
1
 74
1
 75
1
 44
0.5
 73
0
 45
1.0
 46
1.0
 77
1
  4

 78
1
 79
1
170
1
 48
1.0
171
1
  6

172
1
173
1
174
1
140
1.0
141
1.0
175
1
  7

176
1
177
1
178
1
143
1.0
179
1
  8

270
1
271
1
272
1
145
1.0
146
1.0
273
1
  9

274
1
275
1
276
1
 42
1.0
 72
1
  3

 73
1
 74
1
 75
1
 94
63
  0
MATERIAL
  5
21
102
{ACAD_REACTORS
330
E
102
}
330
E
100
AcDbMaterial
  1
Global
  2

 70
0
 40
1.0
 71
1
 41
1.0
 91
-1023410177
 42
1.0
 72
1
  3

 73
1
 74
1
 75
1
 44
0.5
 73
0
 45
1.0
 46
1.0
 77
1
  4

 78
1
 79
1
170
1
 48
1.0
171
1
  6

172
1
173
1
174
1
140
1.0
141
1.0
175
1
  7

176
1
177
1
178
1
143
1.0
179
1
  8

270
1
271
1
272
1
145
1.0
146
1.0
273
1
  9

274
1
275
1
276
1
 42
1.0
 72
1
  3

 73
1
 74
1
 75
1
 94
63
  0
MLINESTYLE
  5
22
102
{ACAD_REACTORS
330
10
102
}
330
10
100
AcDbMlineStyle
  2
Standard
 70
0
  3

 62
256
 51
90.0
 52
90.0
 71
2
 49
0.5
 62
256
  6
BYLAYER
 49
-0.5
 62
256
  6
BYLAYER
  0
MLEADERSTYLE
  5
2C
102
{ACAD_REACTORS
330
F
102
}
330
F
100
AcDbMLeaderStyle
179
2
170
2
171
1
172
0
 90
2
 40
0.0
 41
0.0
173
1
 91
-1056964608
 92
-2
290
1
 42
2.0
291
1
 43
8.0
  3
Standard
 44
4.0
300

342
29
174
1
175
1
176
0
178
1
 93
-1056964608
 45
4.0
292
0
297
0
 46
4.0
 94
-1056964608
 47
1.0
 49
1.0
140
1.0
294
1
141
0.0
177
0
142
1.0
295
0
296
0
143
3.75
271
0
272
9
273
9
  0
DICTIONARY
  5
2D
330
A
100
AcDbDictionary
280
1
281
1
  3
CREATED_BY_EZDXF
350
2E
  3
WRITTEN_BY_EZDXF
350
40D
  0
DICTIONARYVAR
  5
2E
330
2D
100
DictionaryVariables
280
0
  1
1.4.4 @ 2026-08-03T17:03:19.662424+00:00
  0
VISUALSTYLE
  5
5A
102
{ACAD_REACTORS
330
16
102
}
330
16
100
AcDbVisualStyle
  2
2dWireframe
 70
4
177
3
291
0
 70
58
 90
2
176
1
 90
2
176
1
 90
0
176
1
 90
0
176
1
 40
0.6
176
1
 40
30.0
176
1
 62
7
420
16777215
176
1
 90
1
176
1
 90
4
176
1
 62
7
176
1
 62
257
176
1
 90
1
176
1
 90
1
176
1
 40
1.0
176
1
 90
8
176
1
 62
7
176
1
 40
1.0
176
1
 90
1
176
1
 90
6
176
1
 90
2
176
1
 62
7
176
1
 90
5
176
1
 90
0
176
1
 90
0
176
1
290
0
176
1
 90
1
176
1
 40
0.0
176
1
 90
0
176
1
290
1
176
1
290
1
176
1
290
0
176
1
290
0
176
1
290
0
176
1
290
0
176
1
290
0
176
1
290
0
176
1
290
0
176
1
 90
50
176
1
 40
0.0
176
1
 40
1.0
176
1
 90
0
176
1
 62
18
420
0
176
1
 90
50
176
1
 90
3
176
1
 62
5
420
255
176
1
290
0
176
1
 90
50
176
1
 90
50
176
1
 90
50
176
1
290
0
176
1
 90
50
176
1
 62
256
176
0
 40
1.0
176
0
 90
2
176
1
  1
strokes_ogs.tif
176
1
290
0
176
1
 40
1.0
176
1
 40
1.0
176
1
  0
VISUALSTYLE
  5
5B
102
{ACAD_REACTORS
330
16
102
}
330
16
100
AcDbVisualStyle
  2
Basic
 70
7
177
3
291
1
 70
58
 90
2
176
1
 90
2
176
1
 90
0
176
1
 90
1
176
1
 40
0.6
176
1
 40
30.0
176
1
 62
7
420
16777215
176
1
 90
1
176
1
 90
4
176
1
 62
7
176
1
 62
257
176
1
 90
1
176
1
 90
1
176
1
 40
1.0
176
1
 90
8
176
1
 62
7
176
1
 40
1.0
176
1
 90
1
176
1
 90
6
176
1
 90
2
176
1
 62
7
176
1
 90
5
176
1
 90
0
176
1
 90
0
176
1
290
0
176
1
 90
1
176
1
 40
0.0
176
1
 90
0
176
1
290
0
176
1
290
1
176
1
290
1
176
1
290
0
176
1
290
0
176
1
290
0
176
1
290
0
176
1
290
0
176
1
290
0
176
1
 90
50
176
1
 40
0.0
176
1
 40
1.0
176
1
 90
0
176
1
 62
18
420
0
176
1
 90
50
176
1
 90
3
176
1
 62
5
420
255
176
1
290
0
176
1
 90
50
176
1
 90
50
176
1
 90
50
176
1
290
0
176
1
 90
50
176
1
 62
256
176
0
 40
1.0
176
0
 90
2
176
1
  1
strokes_ogs.tif
176
1
290
0
176
1
 40
1.0
176
1
 40
1.0
176
1
  0
VISUALSTYLE
  5
5C
102
{ACAD_REACTORS
330
16
102
}
330
16
100
AcDbVisualStyle
  2
Brighten
 70
12
177
3
291
1
 70
58
 90
2
176
1
 90
2
176
1
 90
0
176
1
 90
2
176
1
 40
0.6
176
1
 40
30.0
176
1
 62
7
420
16777215
176
1
 90
1
176
1
 90
4
176
1
 62
7
176
1
 62
257
176
1
 90
1
176
1
 90
1
176
1
 40
1.0
176
1
 90
8
176
1
 62
7
176
1
 40
1.0
176
1
 90
1
176
1
 90
6
176
1
 90
2
176
1
 62
7
176
1
 90
5
176
1
 90
0
176
1
 90
0
176
1
290
0
176
1
 90
1
176
1
 40
0.0
176
1
 90
0
176
1
290
0
176
1
290
1
176
1
290
1
176
1
290
0
176
1
290
0
176
1
290
0
176
1
290
0
176
1
290
0
176
1
290
0
176
1
 90
50
176
1
 40
0.0
176
1
 40
1.0
176
1
 90
0
176
1
 62
18
420
0
176
1
 90
50
176
1
 90
3
176
1
 62
5
420
255
176
1
290
0
176
1
 90
50
176
1
 90
50
176
1
 90
50
176
1
290
0
176
1
 90
50
176
1
 62
256
176
0
 40
1.0
176
0
 90
2
176
1
  1
strokes_ogs.tif
176
1
290
0
176
1
 40
1.0
176
1
 40
1.0
176
1
  0
VISUALSTYLE
  5
5D
102
{ACAD_REACTORS
330
16
102
}
330
16
100
AcDbVisualStyle
  2
ColorChange
 70
16
177
3
291
1
 70
58
 90
2
176
1
 90
2
176
1
 90
0
176
1
 90
2
176
1
 40
0.6
176
1
 40
30.0
176
1
 62
7
420
16777215
176
1
 90
1
176
1
 90
4
176
1
 62
7
176
1
 62
257
176
1
 90
1
176
1
 90
1
176
1
 40
1.0
176
1
 90
8
176
1
 62
7
176
1
 40
1.0
176
1
 90
1
176
1
 90
6
176
1
 90
2
176
1
 62
7
176
1
 90
5
176
1
 90
0
176
1
 90
0
176
1
290
0
176
1
 90
1
176
1
 40
0.0
176
1
 90
0
176
1
290
0
176
1
290
1
176
1
290
1
176
1
290
0
176
1
290
0
176
1
290
0
176
1
290
0
176
1
290
0
176
1
290
0
176
1
 90
50
176
1
 40
0.0
176
1
 40
1.0
176
1
 90
0
176
1
 62
18
420
0
176
1
 90
50
176
1
 90
3
176
1
 62
5
420
255
176
1
290
0
176
1
 90
50
176
1
 90
50
176
1
 90
50
176
1
290
0
176
1
 90
50
176
1
 62
256
176
0
 40
1.0
176
0
 90
2
176
1
  1
strokes_ogs.tif
176
1
290
0
176
1
 40
1.0
176
1
 40
1.0
176
1
  0
VISUALSTYLE
  5
5E
102
{ACAD_REACTORS
330
16
102
}
330
16
100
AcDbVisualStyle
  2
Conceptual
 70
9
177
3
291
0
 70
58
 90
2
176
1
 90
2
176
1
 90
0
176
1
 90
3
176
1
 40
0.6
176
1
 40
30.0
176
1
 62
7
420
16777215
176
1
 90
1
176
1
 90
4
176
1
 62
7
176
1
 62
257
176
1
 90
1
176
1
 90
1
176
1
 40
1.0
176
1
 90
8
176
1
 62
7
176
1
 40
1.0
176
1
 90
1
176
1
 90
6
176
1
 90
2
176
1
 62
7
176
1
 90
5
176
1
 90
0
176
1
 90
0
176
1
290
0
176
1
 90
1
176
1
 40
0.0
176
1
 90
0
176
1
290
0
176
1
290
1
176
1
290
1
176
1
290
0
176
1
290
0
176
1
290
0
176
1
290
0
176
1
290
0
176
1
290
0
176
1
 90
50
176
1
 40
0.0
176
1
 40
1.0
176
1
 90
0
176
1
 62
18
420
0
176
1
 90
50
176
1
 90
3
176
1
 62
5
420
255
176
1
290
0
176
1
 90
50
176
1
 90
50
176
1
 90
50
176
1
290
0
176
1
 90
50
176
1
 62
256
176
0
 40
1.0
176
0
 90
2
176
1
  1
strokes_ogs.tif
176
1
290
0
176
1
 40
1.0
176
1
 40
1.0
176
1
  0
VISUALSTYLE
  5
5F
102
{ACAD_REACTORS
330
16
102
}
330
16
100
AcDbVisualStyle
  2
Dim
 70
11
177
3
291
1
 70
58
 90
2
176
1
 90
2
176
1
 90
0
176
1
 90
2
176
1
 40
0.6
176
1
 40
30.0
176
1
 62
7
420
16777215
176
1
 90
1
176
1
 90
4
176
1
 62
7
176
1
 62
257
176
1
 90
1
176
1
 90
1
176
1
 40
1.0
176
1
 90
8
176
1
 62
7
176
1
 40
1.0
176
1
 90
1
176
1
 90
6
176
1
 90
2
176
1
 62
7
176
1
 90
5
176
1
 90
0
176
1
 90
0
176
1
290
0
176
1
 90
1
176
1
 40
0.0
176
1
 90
0
176
1
290
0
176
1
290
1
176
1
290
1
176
1
290
0
176
1
290
0
176
1
290
0
176
1
290
0
176
1
290
0
176
1
290
0
176
1
 90
50
176
1
 40
0.0
176
1
 40
1.0
176
1
 90
0
176
1
 62
18
420
0
176
1
 90
50
176
1
 90
3
176
1
 62
5
420
255
176
1
290
0
176
1
 90
50
176
1
 90
50
176
1
 90
50
176
1
290
0
176
1
 90
50
176
1
 62
256
176
0
 40
1.0
176
0
 90
2
176
1
  1
strokes_ogs.tif
176
1
290
0
176
1
 40
1.0
176
1
 40
1.0
176
1
  0
VISUALSTYLE
  5
60
102
{ACAD_REACTORS
330
16
102
}
330
16
100
AcDbVisualStyle
  2
EdgeColorOff
 70
22
177
3
291
1
 70
58
 90
2
176
1
 90
2
176
1
 90
0
176
1
 90
2
176
1
 40
0.6
176
1
 40
30.0
176
1
 62
7
420
16777215
176
1
 90
1
176
1
 90
4
176
1
 62
7
176
1
 62
257
176
1
 90
1
176
1
 90
1
176
1
 40
1.0
176
1
 90
8
176
1
 62
7
176
1
 40
1.0
176
1
 90
1
176
1
 90
6
176
1
 90
2
176
1
 62
7
176
1
 90
5
176
1
 90
0
176
1
 90
0
176
1
290
0
176
1
 90
1
176
1
 40
0.0
176
1
 90
0
176
1
290
0
176
1
290
1
176
1
290
1
176
1
290
0
176
1
290
0
176
1
290
0
176
1
290
0
176
1
290
0
176
1
290
0
176
1
 90
50
176
1
 40
0.0
176
1
 40
1.0
176
1
 90
0
176
1
 62
18
420
0
176
1
 90
50
176
1
 90
3
176
1
 62
5
420
255
176
1
290
0
176
1
 90
50
176
1
 90
50
176
1
 90
50
176
1
290
0
176
1
 90
50
176
1
 62
256
176
0
 40
1.0
176
0
 90
2
176
1
  1
strokes_ogs.tif
176
1
290
0
176
1
 40
1.0
176
1
 40
1.0
176
1
  0
VISUALSTYLE
  5
61
102
{ACAD_REACTORS
330
16
102
}
330
16
100
AcDbVisualStyle
  2
Facepattern
 70
15
177
3
291
1
 70
58
 90
2
176
1
 90
2
176
1
 90
0
176
1
 90
2
176
1
 40
0.6
176
1
 40
30.0
176
1
 62
7
420
16777215
176
1
 90
1
176
1
 90
4
176
1
 62
7
176
1
 62
257
176
1
 90
1
176
1
 90
1
176
1
 40
1.0
176
1
 90
8
176
1
 62
7
176
1
 40
1.0
176
1
 90
1
176
1
 90
6
176
1
 90
2
176
1
 62
7
176
1
 90
5
176
1
 90
0
176
1
 90
0
176
1
290
0
176
1
 90
1
176
1
 40
0.0
176
1
 90
0
176
1
290
0
176
1
290
1
176
1
290
1
176
1
290
0
176
1
290
0
176
1
290
0
176
1
290
0
176
1
290
0
176
1
290
0
176
1
 90
50
176
1
 40
0.0
176
1
 40
1.0
176
1
 90
0
176
1
 62
18
420
0
176
1
 90
50
176
1
 90
3
176
1
 62
5
420
255
176
1
290
0
176
1
 90
50
176
1
 90
50
176
1
 90
50
176
1
290
0
176
1
 90
50
176
1
 62
256
176
0
 40
1.0
176
0
 90
2
176
1
  1
strokes_ogs.tif
176
1
290
0
176
1
 40
1.0
176
1
 40
1.0
176
1
  0
VISUALSTYLE
  5
62
102
{ACAD_REACTORS
330
16
102
}
330
16
100
AcDbVisualStyle
  2
Flat
 70
0
177
3
291
1
 70
58
 90
2
176
1
 90
2
176
1
 90
0
176
1
 90
2
176
1
 40
0.6
176
1
 40
30.0
176
1
 62
7
420
16777215
176
1
 90
1
176
1
 90
4
176
1
 62
7
176
1
 62
257
176
1
 90
1
176
1
 90
1
176
1
 40
1.0
176
1
 90
8
176
1
 62
7
176
1
 40
1.0
176
1
 90
1
176
1
 90
6
176
1
 90
2
176
1
 62
7
176
1
 90
5
176
1
 90
0
176
1
 90
0
176
1
290
0
176
1
 90
1
176
1
 40
0.0
176
1
 90
0
176
1
290
0
176
1
290
1
176
1
290
1
176
1
290
0
176
1
290
0
176
1
290
0
176
1
290
0
176
1
290
0
176
1
290
0
176
1
 90
50
176
1
 40
0.0
176
1
 40
1.0
176
1
 90
0
176
1
 62
18
420
0
176
1
 90
50
176
1
 90
3
176
1
 62
5
420
255
176
1
290
0
176
1
 90
50
176
1
 90
50
176
1
 90
50
176
1
290
0
176
1
 90
50
176
1
 62
256
176
0
 40
1.0
176
0
 90
2
176
1
  1
strokes_ogs.tif
176
1
290
0
176
1
 40
1.0
176
1
 40
1.0
176
1
  0
VISUALSTYLE
  5
63
102
{ACAD_REACTORS
330
16
102
}
330
16
100
AcDbVisualStyle
  2
FlatWithEdges
 70
1
177
3
291
1
 70
58
 90
2
176
1
 90
2
176
1
 90
0
176
1
 90
2
176
1
 40
0.6
176
1
 40
30.0
176
1
 62
7
420
16777215
176
1
 90
1
176
1
 90
4
176
1
 62
7
176
1
 62
257
176
1
 90
1
176
1
 90
1
176
1
 40
1.0
176
1
 90
8
176
1
 62
7
176
1
 40
1.0
176
1
 90
1
176
1
 90
6
176
1
 90
2
176
1
 62
7
176
1
 90
5
176
1
 90
0
176
1
 90
0
176
1
290
0
176
1
 90
1
176
1
 40
0.0
176
1
 90
0
176
1
290
0
176
1
290
1
176
1
290
1
176
1
290
0
176
1
290
0
176
1
290
0
176
1
290
0
176
1
290
0
176
1
290
0
176
1
 90
50
176
1
 40
0.0
176
1
 40
1.0
176
1
 90
0
176
1
 62
18
420
0
176
1
 90
50
176
1
 90
3
176
1
 62
5
420
255
176
1
290
0
176
1
 90
50
176
1
 90
50
176
1
 90
50
176
1
290
0
176
1
 90
50
176
1
 62
256
176
0
 40
1.0
176
0
 90
2
176
1
  1
strokes_ogs.tif
176
1
290
0
176
1
 40
1.0
176
1
 40
1.0
176
1
  0
VISUALSTYLE
  5
64
102
{ACAD_REACTORS
330
16
102
}
330
16
100
AcDbVisualStyle
  2
Gouraud
 70
2
177
3
291
1
 70
58
 90
2
176
1
 90
2
176
1
 90
0
176
1
 90
2
176
1
 40
0.6
176
1
 40
30.0
176
1
 62
7
420
16777215
176
1
 90
1
176
1
 90
4
176
1
 62
7
176
1
 62
257
176
1
 90
1
176
1
 90
1
176
1
 40
1.0
176
1
 90
8
176
1
 62
7
176
1
 40
1.0
176
1
 90
1
176
1
 90
6
176
1
 90
2
176
1
 62
7
176
1
 90
5
176
1
 90
0
176
1
 90
0
176
1
290
0
176
1
 90
1
176
1
 40
0.0
176
1
 90
0
176
1
290
0
176
1
290
1
176
1
290
1
176
1
290
0
176
1
290
0
176
1
290
0
176
1
290
0
176
1
290
0
176
1
290
0
176
1
 90
50
176
1
 40
0.0
176
1
 40
1.0
176
1
 90
0
176
1
 62
18
420
0
176
1
 90
50
176
1
 90
3
176
1
 62
5
420
255
176
1
290
0
176
1
 90
50
176
1
 90
50
176
1
 90
50
176
1
290
0
176
1
 90
50
176
1
 62
256
176
0
 40
1.0
176
0
 90
2
176
1
  1
strokes_ogs.tif
176
1
290
0
176
1
 40
1.0
176
1
 40
1.0
176
1
  0
VISUALSTYLE
  5
65
102
{ACAD_REACTORS
330
16
102
}
330
16
100
AcDbVisualStyle
  2
GouraudWithEdges
 70
3
177
3
291
1
 70
58
 90
2
176
1
 90
2
176
1
 90
0
176
1
 90
2
176
1
 40
0.6
176
1
 40
30.0
176
1
 62
7
420
16777215
176
1
 90
1
176
1
 90
4
176
1
 62
7
176
1
 62
257
176
1
 90
1
176
1
 90
1
176
1
 40
1.0
176
1
 90
8
176
1
 62
7
176
1
 40
1.0
176
1
 90
1
176
1
 90
6
176
1
 90
2
176
1
 62
7
176
1
 90
5
176
1
 90
0
176
1
 90
0
176
1
290
0
176
1
 90
1
176
1
 40
0.0
176
1
 90
0
176
1
290
0
176
1
290
1
176
1
290
1
176
1
290
0
176
1
290
0
176
1
290
0
176
1
290
0
176
1
290
0
176
1
290
0
176
1
 90
50
176
1
 40
0.0
176
1
 40
1.0
176
1
 90
0
176
1
 62
18
420
0
176
1
 90
50
176
1
 90
3
176
1
 62
5
420
255
176
1
290
0
176
1
 90
50
176
1
 90
50
176
1
 90
50
176
1
290
0
176
1
 90
50
176
1
 62
256
176
0
 40
1.0
176
0
 90
2
176
1
  1
strokes_ogs.tif
176
1
290
0
176
1
 40
1.0
176
1
 40
1.0
176
1
  0
VISUALSTYLE
  5
66
102
{ACAD_REACTORS
330
16
102
}
330
16
100
AcDbVisualStyle
  2
Hidden
 70
6
177
3
291
0
 70
58
 90
2
176
1
 90
2
176
1
 90
0
176
1
 90
1
176
1
 40
0.6
176
1
 40
30.0
176
1
 62
7
420
16777215
176
1
 90
1
176
1
 90
4
176
1
 62
7
176
1
 62
257
176
1
 90
1
176
1
 90
1
176
1
 40
1.0
176
1
 90
8
176
1
 62
7
176
1
 40
1.0
176
1
 90
1
176
1
 90
6
176
1
 90
2
176
1
 62
7
176
1
 90
5
176
1
 90
0
176
1
 90
0
176
1
290
0
176
1
 90
1
176
1
 40
0.0
176
1
 90
0
176
1
290
0
176
1
290
1
176
1
290
1
176
1
290
0
176
1
290
0
176
1
290
0
176
1
290
0
176
1
290
0
176
1
290
0
176
1
 90
50
176
1
 40
0.0
176
1
 40
1.0
176
1
 90
0
176
1
 62
18
420
0
176
1
 90
50
176
1
 90
3
176
1
 62
5
420
255
176
1
290
0
176
1
 90
50
176
1
 90
50
176
1
 90
50
176
1
290
0
176
1
 90
50
176
1
 62
256
176
0
 40
1.0
176
0
 90
2
176
1
  1
strokes_ogs.tif
176
1
290
0
176
1
 40
1.0
176
1
 40
1.0
176
1
  0
VISUALSTYLE
  5
67
102
{ACAD_REACTORS
330
16
102
}
330
16
100
AcDbVisualStyle
  2
JitterOff
 70
20
177
3
291
1
 70
58
 90
2
176
1
 90
2
176
1
 90
0
176
1
 90
2
176
1
 40
0.6
176
1
 40
30.0
176
1
 62
7
420
16777215
176
1
 90
1
176
1
 90
4
176
1
 62
7
176
1
 62
257
176
1
 90
1
176
1
 90
1
176
1
 40
1.0
176
1
 90
8
176
1
 62
7
176
1
 40
1.0
176
1
 90
1
176
1
 90
6
176
1
 90
2
176
1
 62
7
176
1
 90
5
176
1
 90
0
176
1
 90
0
176
1
290
0
176
1
 90
1
176
1
 40
0.0
176
1
 90
0
176
1
290
0
176
1
290
1
176
1
290
1
176
1
290
0
176
1
290
0
176
1
290
0
176
1
290
0
176
1
290
0
176
1
290
0
176
1
 90
50
176
1
 40
0.0
176
1
 40
1.0
176
1
 90
0
176
1
 62
18
420
0
176
1
 90
50
176
1
 90
3
176
1
 62
5
420
255
176
1
290
0
176
1
 90
50
176
1
 90
50
176
1
 90
50
176
1
290
0
176
1
 90
50
176
1
 62
256
176
0
 40
1.0
176
0
 90
2
176
1
  1
strokes_ogs.tif
176
1
290
0
176
1
 40
1.0
176
1
 40
1.0
176
1
  0
VISUALSTYLE
  5
68
102
{ACAD_REACTORS
330
16
102
}
330
16
100
AcDbVisualStyle
  2
Linepattern
 70
14
177
3
291
1
 70
58
 90
2
176
1
 90
2
176
1
 90
0
176
1
 90
2
176
1
 40
0.6
176
1
 40
30.0
176
1
 62
7
420
16777215
176
1
 90
1
176
1
 90
4
176
1
 62
7
176
1
 62
257
176
1
 90
1
176
1
 90
1
176
1
 40
1.0
176
1
 90
8
176
1
 62
7
176
1
 40
1.0
176
1
 90
1
176
1
 90
6
176
1
 90
2
176
1
 62
7
176
1
 90
5
176
1
 90
0
176
1
 90
0
176
1
290
0
176
1
 90
1
176
1
 40
0.0
176
1
 90
0
176
1
290
0
176
1
290
1
176
1
290
1
176
1
290
0
176
1
290
0
176
1
290
0
176
1
290
0
176
1
290
0
176
1
290
0
176
1
 90
50
176
1
 40
0.0
176
1
 40
1.0
176
1
 90
0
176
1
 62
18
420
0
176
1
 90
50
176
1
 90
3
176
1
 62
5
420
255
176
1
290
0
176
1
 90
50
176
1
 90
50
176
1
 90
50
176
1
290
0
176
1
 90
50
176
1
 62
256
176
0
 40
1.0
176
0
 90
2
176
1
  1
strokes_ogs.tif
176
1
290
0
176
1
 40
1.0
176
1
 40
1.0
176
1
  0
VISUALSTYLE
  5
69
102
{ACAD_REACTORS
330
16
102
}
330
16
100
AcDbVisualStyle
  2
Modeling
 70
10
177
3
291
0
 70
58
 90
2
176
1
 90
2
176
1
 90
0
176
1
 90
2
176
1
 40
0.6
176
1
 40
30.0
176
1
 62
7
420
16777215
176
1
 90
1
176
1
 90
4
176
1
 62
7
176
1
 62
257
176
1
 90
1
176
1
 90
1
176
1
 40
1.0
176
1
 90
8
176
1
 62
7
176
1
 40
1.0
176
1
 90
1
176
1
 90
6
176
1
 90
2
176
1
 62
7
176
1
 90
5
176
1
 90
0
176
1
 90
0
176
1
290
0
176
1
 90
1
176
1
 40
0.0
176
1
 90
0
176
1
290
0
176
1
290
1
176
1
290
1
176
1
290
0
176
1
290
0
176
1
290
0
176
1
290
0
176
1
290
0
176
1
290
0
176
1
 90
50
176
1
 40
0.0
176
1
 40
1.0
176
1
 90
0
176
1
 62
18
420
0
176
1
 90
50
176
1
 90
3
176
1
 62
5
420
255
176
1
290
0
176
1
 90
50
176
1
 90
50
176
1
 90
50
176
1
290
0
176
1
 90
50
176
1
 62
256
176
0
 40
1.0
176
0
 90
2
176
1
  1
strokes_ogs.tif
176
1
290
0
176
1
 40
1.0
176
1
 40
1.0
176
1
  0
VISUALSTYLE
  5
6A
102
{ACAD_REACTORS
330
16
102
}
330
16
100
AcDbVisualStyle
  2
OverhangOff
 70
21
177
3
291
1
 70
58
 90
2
176
1
 90
2
176
1
 90
0
176
1
 90
2
176
1
 40
0.6
176
1
 40
30.0
176
1
 62
7
420
16777215
176
1
 90
1
176
1
 90
4
176
1
 62
7
176
1
 62
257
176
1
 90
1
176
1
 90
1
176
1
 40
1.0
176
1
 90
8
176
1
 62
7
176
1
 40
1.0
176
1
 90
1
176
1
 90
6
176
1
 90
2
176
1
 62
7
176
1
 90
5
176
1
 90
0
176
1
 90
0
176
1
290
0
176
1
 90
1
176
1
 40
0.0
176
1
 90
0
176
1
290
0
176
1
290
1
176
1
290
1
176
1
290
0
176
1
290
0
176
1
290
0
176
1
290
0
176
1
290
0
176
1
290
0
176
1
 90
50
176
1
 40
0.0
176
1
 40
1.0
176
1
 90
0
176
1
 62
18
420
0
176
1
 90
50
176
1
 90
3
176
1
 62
5
420
255
176
1
290
0
176
1
 90
50
176
1
 90
50
176
1
 90
50
176
1
290
0
176
1
 90
50
176
1
 62
256
176
0
 40
1.0
176
0
 90
2
176
1
  1
strokes_ogs.tif
176
1
290
0
176
1
 40
1.0
176
1
 40
1.0
176
1
  0
VISUALSTYLE
  5
6B
102
{ACAD_REACTORS
330
16
102
}
330
16
100
AcDbVisualStyle
  2
Realistic
 70
8
177
3
291
0
 70
58
 90
2
176
1
 90
2
176
1
 90
0
176
1
 90
2
176
1
 40
0.6
176
1
 40
30.0
176
1
 62
7
420
16777215
176
1
 90
1
176
1
 90
4
176
1
 62
7
176
1
 62
257
176
1
 90
1
176
1
 90
1
176
1
 40
1.0
176
1
 90
8
176
1
 62
7
176
1
 40
1.0
176
1
 90
1
176
1
 90
6
176
1
 90
2
176
1
 62
7
176
1
 90
5
176
1
 90
0
176
1
 90
0
176
1
290
0
176
1
 90
1
176
1
 40
0.0
176
1
 90
0
176
1
290
0
176
1
290
1
176
1
290
1
176
1
290
0
176
1
290
0
176
1
290
0
176
1
290
0
176
1
290
0
176
1
290
0
176
1
 90
50
176
1
 40
0.0
176
1
 40
1.0
176
1
 90
0
176
1
 62
18
420
0
176
1
 90
50
176
1
 90
3
176
1
 62
5
420
255
176
1
290
0
176
1
 90
50
176
1
 90
50
176
1
 90
50
176
1
290
0
176
1
 90
50
176
1
 62
256
176
0
 40
1.0
176
0
 90
2
176
1
  1
strokes_ogs.tif
176
1
290
0
176
1
 40
1.0
176
1
 40
1.0
176
1
  0
VISUALSTYLE
  5
6C
102
{ACAD_REACTORS
330
16
102
}
330
16
100
AcDbVisualStyle
  2
Shaded
 70
27
177
3
291
0
 70
58
 90
2
176
1
 90
2
176
1
 90
0
176
1
 90
2
176
1
 40
0.6
176
1
 40
30.0
176
1
 62
7
420
16777215
176
1
 90
1
176
1
 90
4
176
1
 62
7
176
1
 62
257
176
1
 90
1
176
1
 90
1
176
1
 40
1.0
176
1
 90
8
176
1
 62
7
176
1
 40
1.0
176
1
 90
1
176
1
 90
6
176
1
 90
2
176
1
 62
7
176
1
 90
5
176
1
 90
0
176
1
 90
0
176
1
290
0
176
1
 90
1
176
1
 40
0.0
176
1
 90
0
176
1
290
0
176
1
290
1
176
1
290
1
176
1
290
0
176
1
290
0
176
1
290
0
176
1
290
0
176
1
290
0
176
1
290
0
176
1
 90
50
176
1
 40
0.0
176
1
 40
1.0
176
1
 90
0
176
1
 62
18
420
0
176
1
 90
50
176
1
 90
3
176
1
 62
5
420
255
176
1
290
0
176
1
 90
50
176
1
 90
50
176
1
 90
50
176
1
290
0
176
1
 90
50
176
1
 62
256
176
0
 40
1.0
176
0
 90
2
176
1
  1
strokes_ogs.tif
176
1
290
0
176
1
 40
1.0
176
1
 40
1.0
176
1
  0
VISUALSTYLE
  5
6D
102
{ACAD_REACTORS
330
16
102
}
330
16
100
AcDbVisualStyle
  2
Shaded with edges
 70
26
177
3
291
0
 70
58
 90
2
176
1
 90
2
176
1
 90
0
176
1
 90
2
176
1
 40
0.6
176
1
 40
30.0
176
1
 62
7
420
16777215
176
1
 90
1
176
1
 90
4
176
1
 62
7
176
1
 62
257
176
1
 90
1
176
1
 90
1
176
1
 40
1.0
176
1
 90
8
176
1
 62
7
176
1
 40
1.0
176
1
 90
1
176
1
 90
6
176
1
 90
2
176
1
 62
7
176
1
 90
5
176
1
 90
0
176
1
 90
0
176
1
290
0
176
1
 90
1
176
1
 40
0.0
176
1
 90
0
176
1
290
0
176
1
290
1
176
1
290
1
176
1
290
0
176
1
290
0
176
1
290
0
176
1
290
0
176
1
290
0
176
1
290
0
176
1
 90
50
176
1
 40
0.0
176
1
 40
1.0
176
1
 90
0
176
1
 62
18
420
0
176
1
 90
50
176
1
 90
3
176
1
 62
5
420
255
176
1
290
0
176
1
 90
50
176
1
 90
50
176
1
 90
50
176
1
290
0
176
1
 90
50
176
1
 62
256
176
0
 40
1.0
176
0
 90
2
176
1
  1
strokes_ogs.tif
176
1
290
0
176
1
 40
1.0
176
1
 40
1.0
176
1
  0
VISUALSTYLE
  5
6E
102
{ACAD_REACTORS
330
16
102
}
330
16
100
AcDbVisualStyle
  2
Shades of Gray
 70
23
177
3
291
0
 70
58
 90
2
176
1
 90
2
176
1
 90
0
176
1
 90
2
176
1
 40
0.6
176
1
 40
30.0
176
1
 62
7
420
16777215
176
1
 90
1
176
1
 90
4
176
1
 62
7
176
1
 62
257
176
1
 90
1
176
1
 90
1
176
1
 40
1.0
176
1
 90
8
176
1
 62
7
176
1
 40
1.0
176
1
 90
1
176
1
 90
6
176
1
 90
2
176
1
 62
7
176
1
 90
5
176
1
 90
0
176
1
 90
0
176
1
290
0
176
1
 90
1
176
1
 40
0.0
176
1
 90
0
176
1
290
0
176
1
290
1
176
1
290
1
176
1
290
0
176
1
290
0
176
1
290
0
176
1
290
0
176
1
290
0
176
1
290
0
176
1
 90
50
176
1
 40
0.0
176
1
 40
1.0
176
1
 90
0
176
1
 62
18
420
0
176
1
 90
50
176
1
 90
3
176
1
 62
5
420
255
176
1
290
0
176
1
 90
50
176
1
 90
50
176
1
 90
50
176
1
290
0
176
1
 90
50
176
1
 62
256
176
0
 40
1.0
176
0
 90
2
176
1
  1
strokes_ogs.tif
176
1
290
0
176
1
 40
1.0
176
1
 40
1.0
176
1
  0
VISUALSTYLE
  5
6F
102
{ACAD_REACTORS
330
16
102
}
330
16
100
AcDbVisualStyle
  2
Sketchy
 70
24
177
3
291
0
 70
58
 90
2
176
1
 90
2
176
1
 90
0
176
1
 90
1
176
1
 40
0.6
176
1
 40
30.0
176
1
 62
7
420
16777215
176
1
 90
1
176
1
 90
4
176
1
 62
7
176
1
 62
257
176
1
 90
1
176
1
 90
1
176
1
 40
1.0
176
1
 90
8
176
1
 62
7
176
1
 40
1.0
176
1
 90
1
176
1
 90
6
176
1
 90
2
176
1
 62
7
176
1
 90
5
176
1
 90
0
176
1
 90
0
176
1
290
0
176
1
 90
1
176
1
 40
0.0
176
1
 90
0
176
1
290
0
176
1
290
1
176
1
290
1
176
1
290
0
176
1
290
0
176
1
290
0
176
1
290
0
176
1
290
0
176
1
290
0
176
1
 90
50
176
1
 40
0.0
176
1
 40
1.0
176
1
 90
0
176
1
 62
18
420
0
176
1
 90
50
176
1
 90
3
176
1
 62
5
420
255
176
1
290
0
176
1
 90
50
176
1
 90
50
176
1
 90
50
176
1
290
0
176
1
 90
50
176
1
 62
256
176
0
 40
1.0
176
0
 90
2
176
1
  1
strokes_ogs.tif
176
1
290
0
176
1
 40
1.0
176
1
 40
1.0
176
1
  0
VISUALSTYLE
  5
70
102
{ACAD_REACTORS
330
16
102
}
330
16
100
AcDbVisualStyle
  2
Thicken
 70
13
177
3
291
1
 70
58
 90
2
176
1
 90
2
176
1
 90
0
176
1
 90
2
176
1
 40
0.6
176
1
 40
30.0
176
1
 62
7
420
16777215
176
1
 90
1
176
1
 90
4
176
1
 62
7
176
1
 62
257
176
1
 90
1
176
1
 90
1
176
1
 40
1.0
176
1
 90
8
176
1
 62
7
176
1
 40
1.0
176
1
 90
1
176
1
 90
6
176
1
 90
2
176
1
 62
7
176
1
 90
5
176
1
 90
0
176
1
 90
0
176
1
290
0
176
1
 90
1
176
1
 40
0.0
176
1
 90
0
176
1
290
0
176
1
290
1
176
1
290
1
176
1
290
0
176
1
290
0
176
1
290
0
176
1
290
0
176
1
290
0
176
1
290
0
176
1
 90
50
176
1
 40
0.0
176
1
 40
1.0
176
1
 90
0
176
1
 62
18
420
0
176
1
 90
50
176
1
 90
3
176
1
 62
5
420
255
176
1
290
0
176
1
 90
50
176
1
 90
50
176
1
 90
50
176
1
290
0
176
1
 90
50
176
1
 62
256
176
0
 40
1.0
176
0
 90
2
176
1
  1
strokes_ogs.tif
176
1
290
0
176
1
 40
1.0
176
1
 40
1.0
176
1
  0
VISUALSTYLE
  5
71
102
{ACAD_REACTORS
330
16
102
}
330
16
100
AcDbVisualStyle
  2
Wireframe
 70
5
177
3
291
0
 70
58
 90
2
176
1
 90
2
176
1
 90
0
176
1
 90
0
176
1
 40
0.6
176
1
 40
30.0
176
1
 62
7
420
16777215
176
1
 90
1
176
1
 90
4
176
1
 62
7
176
1
 62
257
176
1
 90
1
176
1
 90
1
176
1
 40
1.0
176
1
 90
8
176
1
 62
7
176
1
 40
1.0
176
1
 90
1
176
1
 90
6
176
1
 90
2
176
1
 62
7
176
1
 90
5
176
1
 90
0
176
1
 90
0
176
1
290
0
176
1
 90
1
176
1
 40
0.0
176
1
 90
0
176
1
290
0
176
1
290
1
176
1
290
1
176
1
290
0
176
1
290
0
176
1
290
0
176
1
290
0
176
1
290
0
176
1
290
0
176
1
 90
50
176
1
 40
0.0
176
1
 40
1.0
176
1
 90
0
176
1
 62
18
420
0
176
1
 90
50
176
1
 90
3
176
1
 62
5
420
255
176
1
290
0
176
1
 90
50
176
1
 90
50
176
1
 90
50
176
1
290
0
176
1
 90
50
176
1
 62
256
176
0
 40
1.0
176
0
 90
2
176
1
  1
strokes_ogs.tif
176
1
290
0
176
1
 40
1.0
176
1
 40
1.0
176
1
  0
VISUALSTYLE
  5
72
102
{ACAD_REACTORS
330
16
102
}
330
16
100
AcDbVisualStyle
  2
X-Ray
 70
25
177
3
291
0
 70
58
 90
2
176
1
 90
2
176
1
 90
0
176
1
 90
2
176
1
 40
0.5
176
1
 40
30.0
176
1
 62
7
420
16777215
176
1
 90
1
176
1
 90
4
176
1
 62
7
176
1
 62
257
176
1
 90
1
176
1
 90
1
176
1
 40
1.0
176
1
 90
8
176
1
 62
7
176
1
 40
1.0
176
1
 90
1
176
1
 90
6
176
1
 90
2
176
1
 62
7
176
1
 90
5
176
1
 90
0
176
1
 90
0
176
1
290
0
176
1
 90
1
176
1
 40
0.0
176
1
 90
0
176
1
290
0
176
1
290
1
176
1
290
1
176
1
290
0
176
1
290
0
176
1
290
0
176
1
290
0
176
1
290
0
176
1
290
0
176
1
 90
50
176
1
 40
0.0
176
1
 40
1.0
176
1
 90
0
176
1
 62
18
420
0
176
1
 90
50
176
1
 90
3
176
1
 62
5
420
255
176
1
290
0
176
1
 90
50
176
1
 90
50
176
1
 90
50
176
1
290
0
176
1
 90
50
176
1
 62
256
176
0
 40
1.0
176
0
 90
2
176
1
  1
strokes_ogs.tif
176
1
290
0
176
1
 40
1.0
176
1
 40
1.0
176
1
  0
DICTIONARYVAR
  5
40D
330
2D
100
DictionaryVariables
280
0
  1
1.4.4 @ 2026-08-03T17:03:19.900990+00:00
  0
ENDSEC
  0
EOF
