  0
SECTION
  2
HEADER
  9
$ACADVER
  1
AC1027
  9
$ACADMAINTVER
 70
105
  9
$DWGCODEPAGE
  3
ANSI_1252
  9
$LASTSAVEDBY
  1
ezdxf
  9
$REQUIREDVERSIONS
160
0
  9
$INSBASE
 10
0.0
 20
0.0
 30
0.0
  9
$EXTMIN
 10
1e+20
 20
1e+20
 30
1e+20
  9
$EXTMAX
 10
-1e+20
 20
-1e+20
 30
-1e+20
  9
$LIMMIN
 10
0.0
 20
0.0
  9
$LIMMAX
 10
420.0
 20
297.0
  9
$ORTHOMODE
 70
0
  9
$REGENMODE
 70
1
  9
$FILLMODE
 70
1
  9
$QTEXTMODE
 70
0
  9
$MIRRTEXT
 70
1
  9
$LTSCALE
 40
1.0
  9
$ATTMODE
 70
1
  9
$TEXTSIZE
 40
2.5
  9
$TRACEWID
 40
1.0
  9
$TEXTSTYLE
  7
OpenSans
  9
$CLAYER
  8
0
  9
$CELTYPE
  6
ByLayer
  9
$CECOLOR
 62
256
  9
$CELTSCALE
 40
1.0
  9
$DISPSILH
 70
0
  9
$DIMSCALE
 40
1.0
  9
$DIMASZ
 40
0.175
  9
$DIMEXO
 40
0.125
  9
$DIMDLI
 40
3.75
  9
$DIMRND
 40
0.0
  9
$DIMDLE
 40
0.0
  9
$DIMEXE
 40
0.375
  9
$DIMTP
 40
0.0
  9
$DIMTM
 40
0.0
  9
$DIMTXT
 40
0.25
  9
$DIMCEN
 40
2.5
  9
$DIMTSZ
 40
0.0
  9
$DIMTOL
 70
0
  9
$DIMLIM
 70
0
  9
$DIMTIH
 70
0
  9
$DIMTOH
 70
0
  9
$DIMSE1
 70
0
  9
$DIMSE2
 70
0
  9
$DIMTAD
 70
1
  9
$DIMZIN
 70
12
  9
$DIMBLK
  1
ARCHTICK
  9
$DIMASO
 70
1
  9
$DIMSHO
 70
1
  9
$DIMPOST
  1

  9
$DIMAPOST
  1

  9
$DIMALT
 70
0
  9
$DIMALTD
 70
3
  9
$DIMALTF
 40
0.03937007874
  9
$DIMLFAC
 40
100.0
  9
$DIMTOFL
 70
1
  9
$DIMTVP
 40
0.0
  9
$DIMTIX
 70
0
  9
$DIMSOXD
 70
0
  9
$DIMSAH
 70
0
  9
$DIMBLK1
  1

  9
$DIMBLK2
  1

  9
$DIMSTYLE
  2
EZDXF
  9
$DIMCLRD
 70
0
  9
$DIMCLRE
 70
0
  9
$DIMCLRT
 70
0
  9
$DIMTFAC
 40
0.5
  9
$DIMGAP
 40
0.1
  9
$DIMJUST
 70
0
  9
$DIMSD1
 70
0
  9
$DIMSD2
 70
0
  9
$DIMTOLJ
 70
0
  9
$DIMTZIN
 70
8
  9
$DIMALTZ
 70
0
  9
$DIMALTTZ
 70
0
  9
$DIMUPT
 70
1
  9
$DIMDEC
 70
2
  9
$DIMTDEC
 70
2
  9
$DIMALTU
 70
2
  9
$DIMALTTD
 70
3
  9
$DIMTXSTY
  7
OpenSansCondensed-Light
  9
$DIMAUNIT
 70
0
  9
$DIMADEC
 70
2
  9
$DIMALTRND
 40
0.0
  9
$DIMAZIN
 70
3
  9
$DIMDSEP
 70
46
  9
$DIMATFIT
 70
3
  9
$DIMFRAC
 70
0
  9
$DIMLDRBLK
  1

  9
$DIMLUNIT
 70
2
  9
$DIMLWD
 70
-2
  9
$DIMLWE
 70
-2
  9
$DIMTMOVE
 70
2
  9
$DIMFXL
 40
1.0
  9
$DIMFXLON
 70
0
  9
$DIMJOGANG
 40
0.785398163397
  9
$DIMTFILL
 70
0
  9
$DIMTFILLCLR
 70
0
  9
$DIMARCSYM
 70
0
  9
$DIMLTYPE
  6

  9
$DIMLTEX1
  6

  9
$DIMLTEX2
  6

  9
$DIMTXTDIRECTION
 70
0
  9
$LUNITS
 70
2
  9
$LUPREC
 70
4
  9
$SKETCHINC
 40
1.0
  9
$FILLETRAD
 40
10.0
  9
$AUNITS
 70
0
  9
$AUPREC
 70
2
  9
$MENU
  1
.
  9
$ELEVATION
 40
0.0
  9
$PELEVATION
 40
0.0
  9
$THICKNESS
 40
0.0
  9
$LIMCHECK
 70
0
  9
$CHAMFERA
 40
0.0
  9
$CHAMFERB
 40
0.0
  9
$CHAMFERC
 40
0.0
  9
$CHAMFERD
 40
0.0
  9
$SKPOLY
 70
0
  9
$TDCREATE
 40
2461257.0307754627
  9
$TDUCREATE
 40
2458532.153996898
  9
$TDUPDATE
 40
2461257.0307754627
  9
$TDUUPDATE
 40
2458532.1544311
  9
$TDINDWG
 40
0.0
  9
$TDUSRTIMER
 40
0.0
  9
$USRTIMER
 70
1
  9
$ANGBASE
 50
0.0
  9
$ANGDIR
 70
0
  9
$PDMODE
 70
0
  9
$PDSIZE
 40
0.0
  9
$PLINEWID
 40
0.0
  9
$SPLFRAME
 70
0
  9
$SPLINETYPE
 70
6
  9
$SPLINESEGS
 70
8
  9
$HANDSEED
  5
35F
  9
$SURFTAB1
 70
6
  9
$SURFTAB2
 70
6
  9
$SURFTYPE
 70
6
  9
$SURFU
 70
6
  9
$SURFV
 70
6
  9
$UCSBASE
  2

  9
$UCSNAME
  2

  9
$UCSORG
 10
0.0
 20
0.0
 30
0.0
  9
$UCSXDIR
 10
1.0
 20
0.0
 30
0.0
  9
$UCSYDIR
 10
0.0
 20
1.0
 30
0.0
  9
$UCSORTHOREF
  2

  9
$UCSORTHOVIEW
 70
0
  9
$UCSORGTOP
 10
0.0
 20
0.0
 30
0.0
  9
$UCSORGBOTTOM
 10
0.0
 20
0.0
 30
0.0
  9
$UCSORGLEFT
 10
0.0
 20
0.0
 30
0.0
  9
$UCSORGRIGHT
 10
0.0
 20
0.0
 30
0.0
  9
$UCSORGFRONT
 10
0.0
 20
0.0
 30
0.0
  9
$UCSORGBACK
 10
0.0
 20
0.0
 30
0.0
  9
$PUCSBASE
  2

  9
$PUCSNAME
  2

  9
$PUCSORG
 10
0.0
 20
0.0
 30
0.0
  9
$PUCSXDIR
 10
1.0
 20
0.0
 30
0.0
  9
$PUCSYDIR
 10
0.0
 20
1.0
 30
0.0
  9
$PUCSORTHOREF
  2

  9
$PUCSORTHOVIEW
 70
0
  9
$PUCSORGTOP
 10
0.0
 20
0.0
 30
0.0
  9
$PUCSORGBOTTOM
 10
0.0
 20
0.0
 30
0.0
  9
$PUCSORGLEFT
 10
0.0
 20
0.0
 30
0.0
  9
$PUCSORGRIGHT
 10
0.0
 20
0.0
 30
0.0
  9
$PUCSORGFRONT
 10
0.0
 20
0.0
 30
0.0
  9
$PUCSORGBACK
 10
0.0
 20
0.0
 30
0.0
  9
$USERI1
 70
0
  9
$USERI2
 70
0
  9
$USERI3
 70
0
  9
$USERI4
 70
0
  9
$USERI5
 70
0
  9
$USERR1
 40
0.0
  9
$USERR2
 40
0.0
  9
$USERR3
 40
0.0
  9
$USERR4
 40
0.0
  9
$USERR5
 40
0.0
  9
$WORLDVIEW
 70
1
  9
$SHADEDGE
 70
3
  9
$SHADEDIF
 70
70
  9
$TILEMODE
 70
1
  9
$MAXACTVP
 70
64
  9
$PINSBASE
 10
0.0
 20
0.0
 30
0.0
  9
$PLIMCHECK
 70
0
  9
$PEXTMIN
 10
1e+20
 20
1e+20
 30
1e+20
  9
$PEXTMAX
 10
-1e+20
 20
-1e+20
 30
-1e+20
  9
$PLIMMIN
 10
0.0
 20
0.0
  9
$PLIMMAX
 10
420.0
 20
297.0
  9
$UNITMODE
 70
0
  9
$VISRETAIN
 70
1
  9
$PLINEGEN
 70
0
  9
$PSLTSCALE
 70
1
  9
$TREEDEPTH
 70
3020
  9
$CMLSTYLE
  2
Standard
  9
$CMLJUST
 70
0
  9
$CMLSCALE
 40
20.0
  9
$PROXYGRAPHICS
 70
1
  9
$MEASUREMENT
 70
1
  9
$CELWEIGHT
370
-1
  9
$ENDCAPS
280
0
  9
$JOINSTYLE
280
0
  9
$LWDISPLAY
290
0
  9
$INSUNITS
 70
4
  9
$HYPERLINKBASE
  1

  9
$STYLESHEET
  1

  9
$XEDIT
290
1
  9
$CEPSNTYPE
380
0
  9
$PSTYLEMODE
290
1
  9
$FINGERPRINTGUID
  2
{9F1D710E-FFA8-4FB4-A534-2AA8C7E754AF}
  9
$VERSIONGUID
  2
{86A9796F-2A88-47C0-91D0-FA21E84A88A6}
  9
$EXTNAMES
290
1
  9
$PSVPSCALE
 40
0.0
  9
$OLESTARTUP
290
0
  9
$SORTENTS
280
127
  9
$INDEXCTL
280
0
  9
$HIDETEXT
280
1
  9
$XCLIPFRAME
280
1
  9
$HALOGAP
280
0
  9
$OBSCOLOR
 70
257
  9
$OBSLTYPE
280
0
  9
$INTERSECTIONDISPLAY
280
0
  9
$INTERSECTIONCOLOR
 70
257
  9
$DIMASSOC
280
2
  9
$PROJECTNAME
  1

  9
$CAMERADISPLAY
290
0
  9
$LENSLENGTH
 40
50.0
  9
$CAMERAHEIGHT
 40
0.0
  9
$STEPSPERSEC
 40
24.0
  9
$STEPSIZE
 40
100.0
  9
$3DDWFPREC
 40
2.0
  9
$PSOLWIDTH
 40
0.005
  9
$PSOLHEIGHT
 40
0.08
  9
$LOFTANG1
 40
1.570796326795
  9
$LOFTANG2
 40
1.570796326795
  9
$LOFTMAG1
 40
0.0
  9
$LOFTMAG2
 40
0.0
  9
$LOFTPARAM
 70
7
  9
$LOFTNORMALS
280
1
  9
$LATITUDE
 40
37.795
  9
$LONGITUDE
 40
-122.394
  9
$NORTHDIRECTION
 40
0.0
  9
$TIMEZONE
 70
-8000
  9
$LIGHTGLYPHDISPLAY
280
1
  9
$TILEMODELIGHTSYNCH
280
1
  9
$CMATERIAL
347
20
  9
$SOLIDHIST
280
0
  9
$SHOWHIST
280
1
  9
$DWFFRAME
280
2
  9
$DGNFRAME
280
2
  9
$REALWORLDSCALE
290
1
  9
$INTERFERECOLOR
 62
256
  9
$CSHADOW
280
0
  9
$SHADOWPLANELOCATION
 40
0.0
  0
ENDSEC
  0
SECTION
  2
CLASSES
  0
CLASS
  1
ACDBDICTIONARYWDFLT
  2
AcDbDictionaryWithDefault
  3
ObjectDBX Classes
 90
0
 91
0
280
0
281
0
  0
CLASS
  1
SUN
  2
AcDbSun
  3
SCENEOE
 90
1153
 91
0
280
0
281
0
  0
CLASS
  1
VISUALSTYLE
  2
AcDbVisualStyle
  3
ObjectDBX Classes
 90
4095
 91
0
280
0
281
0
  0
CLASS
  1
MATERIAL
  2
AcDbMaterial
  3
ObjectDBX Classes
 90
1153
 91
0
280
0
281
0
  0
CLASS
  1
SCALE
  2
AcDbScale
  3
ObjectDBX Classes
 90
1153
 91
0
280
0
281
0
  0
CLASS
  1
TABLESTYLE
  2
AcDbTableStyle
  3
ObjectDBX Classes
 90
4095
 91
0
280
0
281
0
  0
CLASS
  1
MLEADERSTYLE
  2
AcDbMLeaderStyle
  3
ACDB_MLEADERSTYLE_CLASS
 90
4095
 91
0
280
0
281
0
  0
CLASS
  1
DICTIONARYVAR
  2
AcDbDictionaryVar
  3
ObjectDBX Classes
 90
0
 91
0
280
0
281
0
  0
CLASS
  1
CELLSTYLEMAP
  2
AcDbCellStyleMap
  3
ObjectDBX Classes
 90
1152
 91
0
280
0
281
0
  0
CLASS
  1
MENTALRAYRENDERSETTINGS
  2
AcDbMentalRayRenderSettings
  3
SCENEOE
 90
1024
 91
0
280
0
281
0
  0
CLASS
  1
ACDBDETAILVIEWSTYLE
  2
AcDbDetailViewStyle
  3
ObjectDBX Classes
 90
1025
 91
0
280
0
281
0
  0
CLASS
  1
ACDBSECTIONVIEWSTYLE
  2
AcDbSectionViewStyle
  3
ObjectDBX Classes
 90
1025
 91
0
280
0
281
0
  0
CLASS
  1
RASTERVARIABLES
  2
AcDbRasterVariables
  3
ISM
 90
0
 91
0
280
0
281
0
  0
CLASS
  1
LAYOUT
  2
AcDbLayout
  3
ObjectDBX Classes
 90
0
 91
0
280
0
281
0
  0
CLASS
  1
ACDBPLACEHOLDER
  2
AcDbPlaceHolder
  3
ObjectDBX Classes
 90
0
 91
0
280
0
281
0
  0
ENDSEC
  0
SECTION
  2
TABLES
  0
TABLE
  2
VPORT
  5
8
330
0
100
AcDbSymbolTable
 70
1
  0
VPORT
  5
35B
330
8
100
AcDbSymbolTableRecord
100
AcDbViewportTableRecord
  2
*Active
 70
0
 10
0.0
 20
0.0
 11
1.0
 21
1.0
 12
505.87745664739884
 22
-329.0
 13
0.0
 23
0.0
 14
0.5
 24
0.5
 15
0.5
 25
0.5
 16
0.0
 26
0.0
 36
1.0
 17
0.0
 27
0.0
 37
0.0
 40
1378.0
 41
1.34
 42
50.0
 43
0.0
 44
0.0
 50
0.0
 51
0.0
 71
0
 72
1000
 73
1
 74
3
 75
0
 76
0
 77
0
 78
0
281
0
 65
1
110
0.0
120
0.0
130
0.0
111
1.0
121
0.0
131
0.0
112
0.0
122
1.0
132
0.0
 79
0
146
0.0
  0
ENDTAB
  0
TABLE
  2
LTYPE
  5
2
330
0
100
AcDbSymbolTable
 70
21
  0
LTYPE
  5
24
330
2
100
AcDbSymbolTableRecord
100
AcDbLinetypeTableRecord
  2
ByBlock
 70
0
  3

 72
65
 73
0
 40
0.0
  0
LTYPE
  5
25
330
2
100
AcDbSymbolTableRecord
100
AcDbLinetypeTableRecord
  2
ByLayer
 70
0
  3

 72
65
 73
0
 40
0.0
  0
LTYPE
  5
26
330
2
100
AcDbSymbolTableRecord
100
AcDbLinetypeTableRecord
  2
Continuous
 70
0
  3

 72
65
 73
0
 40
0.0
  0
LTYPE
  5
2F
330
2
100
AcDbSymbolTableRecord
100
AcDbLinetypeTableRecord
  2
CENTER
 70
0
  3
Center ____ _ ____ _ ____ _ ____ _ ____ _ ____
 72
65
 73
4
 40
5.08
 49
3.175
 74
0
 49
-0.635
 74
0
 49
0.635
 74
0
 49
-0.635
 74
0
  0
LTYPE
  5
30
330
2
100
AcDbSymbolTableRecord
100
AcDbLinetypeTableRecord
  2
CENTERX2
 70
0
  3
Center (2x) ________  __  ________  __  ________
 72
65
 73
4
 40
8.89
 49
6.35
 74
0
 49
-0.635
 74
0
 49
1.27
 74
0
 49
-0.635
 74
0
  0
LTYPE
  5
31
330
2
100
AcDbSymbolTableRecord
100
AcDbLinetypeTableRecord
  2
CENTER2
 70
0
  3
Center (.5x) ____ _ ____ _ ____ _ ____ _ ____
 72
65
 73
4
 40
2.54
 49
1.587
 74
0
 49
-0.318
 74
0
 49
0.318
 74
0
 49
-0.318
 74
0
  0
LTYPE
  5
32
330
2
100
AcDbSymbolTableRecord
100
AcDbLinetypeTableRecord
  2
DASHED
 70
0
  3
Dashed __ __ __ __ __ __ __ __ __ __ __ __ __ _
 72
65
 73
2
 40
1.524
 49
1.27
 74
0
 49
-0.254
 74
0
  0
LTYPE
  5
33
330
2
100
AcDbSymbolTableRecord
100
AcDbLinetypeTableRecord
  2
DASHEDX2
 70
0
  3
Dashed (2x) ____  ____  ____  ____  ____  ____
 72
65
 73
2
 40
3.048
 49
2.54
 74
0
 49
-0.508
 74
0
  0
LTYPE
  5
34
330
2
100
AcDbSymbolTableRecord
100
AcDbLinetypeTableRecord
  2
DASHED2
 70
0
  3
Dashed (.5x) _ _ _ _ _ _ _ _ _ _ _ _ _ _
 72
65
 73
2
 40
0.762
 49
0.635
 74
0
 49
-0.127
 74
0
  0
LTYPE
  5
35
330
2
100
AcDbSymbolTableRecord
100
AcDbLinetypeTableRecord
  2
PHANTOM
 70
0
  3
Phantom ______  __  __  ______  __  __  ______
 72
65
 73
6
 40
6.35
 49
3.175
 74
0
 49
-0.635
 74
0
 49
0.635
 74
0
 49
-0.635
 74
0
 49
0.635
 74
0
 49
-0.635
 74
0
  0
LTYPE
  5
36
330
2
100
AcDbSymbolTableRecord
100
AcDbLinetypeTableRecord
  2
PHANTOMX2
 70
0
  3
Phantom (2x)____________    ____    ____    ____________
 72
65
 73
6
 40
10.795
 49
6.35
 74
0
 49
-0.635
 74
0
 49
1.27
 74
0
 49
-0.635
 74
0
 49
1.27
 74
0
 49
-0.635
 74
0
  0
LTYPE
  5
37
330
2
100
AcDbSymbolTableRecord
100
AcDbLinetypeTableRecord
  2
PHANTOM2
 70
0
  3
Phantom (.5x) ___ _ _ ___ _ _ ___ _ _ ___ _ _ ___
 72
65
 73
6
 40
3.175
 49
1.587
 74
0
 49
-0.318
 74
0
 49
0.318
 74
0
 49
-0.318
 74
0
 49
0.318
 74
0
 49
-0.318
 74
0
  0
LTYPE
  5
38
330
2
100
AcDbSymbolTableRecord
100
AcDbLinetypeTableRecord
  2
DASHDOT
 70
0
  3
Dash dot __ . __ . __ . __ . __ . __ . __ . __
 72
65
 73
4
 40
3.556
 49
2.54
 74
0
 49
-0.508
 74
0
 49
0.0
 74
0
 49
-0.508
 74
0
  0
LTYPE
  5
39
330
2
100
AcDbSymbolTableRecord
100
AcDbLinetypeTableRecord
  2
DASHDOTX2
 70
0
  3
Dash dot (2x) ____  .  ____  .  ____  .  ____
 72
65
 73
4
 40
6.096
 49
5.08
 74
0
 49
-0.508
 74
0
 49
0.0
 74
0
 49
-0.508
 74
0
  0
LTYPE
  5
3A
330
2
100
AcDbSymbolTableRecord
100
AcDbLinetypeTableRecord
  2
DASHDOT2
 70
0
  3
Dash dot (.5x) _ . _ . _ . _ . _ . _ . _ . _
 72
65
 73
4
 40
1.778
 49
1.27
 74
0
 49
-0.254
 74
0
 49
0.0
 74
0
 49
-0.254
 74
0
  0
LTYPE
  5
3B
330
2
100
AcDbSymbolTableRecord
100
AcDbLinetypeTableRecord
  2
DOT
 70
0
  3
Dot .  .  .  .  .  .  .  .  .  .  .  .  .  .  .  .
 72
65
 73
2
 40
0.508
 49
0.0
 74
0
 49
-0.508
 74
0
  0
LTYPE
  5
3C
330
2
100
AcDbSymbolTableRecord
100
AcDbLinetypeTableRecord
  2
DOTX2
 70
0
  3
Dot (2x) .    .    .    .    .    .    .    . 
 72
65
 73
2
 40
1.016
 49
0.0
 74
0
 49
-1.016
 74
0
  0
LTYPE
  5
3D
330
2
100
AcDbSymbolTableRecord
100
AcDbLinetypeTableRecord
  2
DOT2
 70
0
  3
Dot (.5) . . . . . . . . . . . . . . . . . . . 
 72
65
 73
2
 40
0.254
 49
0.0
 74
0
 49
-0.254
 74
0
  0
LTYPE
  5
3E
330
2
100
AcDbSymbolTableRecord
100
AcDbLinetypeTableRecord
  2
DIVIDE
 70
0
  3
Divide __ . . __ . . __ . . __ . . __ . . __
 72
65
 73
6
 40
4.064
 49
2.54
 74
0
 49
-0.508
 74
0
 49
0.0
 74
0
 49
-0.508
 74
0
 49
0.0
 74
0
 49
-0.508
 74
0
  0
LTYPE
  5
3F
330
2
100
AcDbSymbolTableRecord
100
AcDbLinetypeTableRecord
  2
DIVIDEX2
 70
0
  3
Divide (2x) ____  . .  ____  . .  ____  . .  ____
 72
65
 73
6
 40
6.604
 49
5.08
 74
0
 49
-0.508
 74
0
 49
0.0
 74
0
 49
-0.508
 74
0
 49
0.0
 74
0
 49
-0.508
 74
0
  0
LTYPE
  5
40
330
2
100
AcDbSymbolTableRecord
100
AcDbLinetypeTableRecord
  2
DIVIDE2
 70
0
  3
Divide(.5x) _ . _ . _ . _ . _ . _ . _ . _
 72
65
 73
6
 40
2.032
 49
1.27
 74
0
 49
-0.254
 74
0
 49
0.0
 74
0
 49
-0.254
 74
0
 49
0.0
 74
0
 49
-0.254
 74
0
  0
ENDTAB
  0
TABLE
  2
LAYER
  5
1
330
0
100
AcDbSymbolTable
 70
10
  0
LAYER
  5
27
330
1
100
AcDbSymbolTableRecord
100
AcDbLayerTableRecord
  2
0
 70
0
 62
7
  6
Continuous
370
-3
390
13
347
21
  0
LAYER
  5
28
330
1
100
AcDbSymbolTableRecord
100
AcDbLayerTableRecord
  2
Defpoints
 70
0
 62
7
  6
Continuous
290
0
370
-3
390
13
347
21
  0
LAYER
  5
8A
330
1
100
AcDbSymbolTableRecord
100
AcDbLayerTableRecord
  2
轮廓
 70
0
 62
7
  6
Continuous
370
50
390
13
347
21
  0
LAYER
  5
8B
330
1
100
AcDbSymbolTableRecord
100
AcDbLayerTableRecord
  2
细实线
 70
0
 62
7
  6
Continuous
370
18
390
13
347
21
  0
LAYER
  5
8C
330
1
100
AcDbSymbolTableRecord
100
AcDbLayerTableRecord
  2
中心线
 70
0
 62
1
  6
CENTER
370
18
390
13
347
21
  0
LAYER
  5
8D
330
1
100
AcDbSymbolTableRecord
100
AcDbLayerTableRecord
  2
虚线
 70
0
 62
7
  6
DASHED
370
18
390
13
347
21
  0
LAYER
  5
8E
330
1
100
AcDbSymbolTableRecord
100
AcDbLayerTableRecord
  2
剖面线
 70
0
 62
7
  6
Continuous
370
13
390
13
347
21
  0
LAYER
  5
8F
330
1
100
AcDbSymbolTableRecord
100
AcDbLayerTableRecord
  2
标注
 70
0
 62
3
  6
Continuous
370
18
390
13
347
21
  0
LAYER
  5
90
330
1
100
AcDbSymbolTableRecord
100
AcDbLayerTableRecord
  2
文字
 70
0
 62
7
  6
Continuous
370
18
390
13
347
21
  0
LAYER
  5
91
330
1
100
AcDbSymbolTableRecord
100
AcDbLayerTableRecord
  2
表格
 70
0
 62
7
  6
Continuous
370
18
390
13
347
21
  0
ENDTAB
  0
TABLE
  2
STYLE
  5
5
330
0
100
AcDbSymbolTable
 70
27
  0
STYLE
  5
29
330
5
100
AcDbSymbolTableRecord
100
AcDbTextStyleTableRecord
  2
Standard
 70
0
 40
0.0
 41
1.0
 50
0.0
 71
0
 42
2.5
  3
simhei.ttf
  4

  0
STYLE
  5
41
330
5
100
AcDbSymbolTableRecord
100
AcDbTextStyleTableRecord
  2
OpenSans-Light
 70
0
 40
0.0
 41
1.0
 50
0.0
 71
0
 42
2.5
  3
OpenSans-Light.ttf
  4

  0
STYLE
  5
42
330
5
100
AcDbSymbolTableRecord
100
AcDbTextStyleTableRecord
  2
OpenSans-Light-Italic
 70
0
 40
0.0
 41
1.0
 50
0.0
 71
0
 42
2.5
  3
OpenSans-LightItalic.ttf
  4

  0
STYLE
  5
43
330
5
100
AcDbSymbolTableRecord
100
AcDbTextStyleTableRecord
  2
OpenSans
 70
0
 40
0.0
 41
1.0
 50
0.0
 71
0
 42
2.5
  3
OpenSans-Regular.ttf
  4

  0
STYLE
  5
44
330
5
100
AcDbSymbolTableRecord
100
AcDbTextStyleTableRecord
  2
OpenSans-Italic
 70
0
 40
0.0
 41
1.0
 50
0.0
 71
0
 42
2.5
  3
OpenSans-Italic.ttf
  4

  0
STYLE
  5
45
330
5
100
AcDbSymbolTableRecord
100
AcDbTextStyleTableRecord
  2
OpenSans-SemiBold
 70
0
 40
0.0
 41
1.0
 50
0.0
 71
0
 42
2.5
  3
OpenSans-SemiBold.ttf
  4

  0
STYLE
  5
46
330
5
100
AcDbSymbolTableRecord
100
AcDbTextStyleTableRecord
  2
OpenSans-SemiBoldItalic
 70
0
 40
0.0
 41
1.0
 50
0.0
 71
0
 42
2.5
  3
OpenSans-SemiBoldItalic.ttf
  4

  0
STYLE
  5
47
330
5
100
AcDbSymbolTableRecord
100
AcDbTextStyleTableRecord
  2
OpenSans-Bold
 70
0
 40
0.0
 41
1.0
 50
0.0
 71
0
 42
2.5
  3
OpenSans-Bold.ttf
  4

  0
STYLE
  5
48
330
5
100
AcDbSymbolTableRecord
100
AcDbTextStyleTableRecord
  2
OpenSans-BoldItalic
 70
0
 40
0.0
 41
1.0
 50
0.0
 71
0
 42
2.5
  3
OpenSans-BoldItalic.ttf
  4

  0
STYLE
  5
49
330
5
100
AcDbSymbolTableRecord
100
AcDbTextStyleTableRecord
  2
OpenSans-ExtraBold
 70
0
 40
0.0
 41
1.0
 50
0.0
 71
0
 42
2.5
  3
OpenSans-ExtraBold.ttf
  4

  0
STYLE
  5
4A
330
5
100
AcDbSymbolTableRecord
100
AcDbTextStyleTableRecord
  2
OpenSans-ExtraBoldItalic
 70
0
 40
0.0
 41
1.0
 50
0.0
 71
0
 42
2.5
  3
OpenSans-ExtraBoldItalic.ttf
  4

  0
STYLE
  5
4B
330
5
100
AcDbSymbolTableRecord
100
AcDbTextStyleTableRecord
  2
OpenSansCondensed-Bold
 70
0
 40
0.0
 41
1.0
 50
0.0
 71
0
 42
2.5
  3
OpenSansCondensed-Bold.ttf
  4

  0
STYLE
  5
4C
330
5
100
AcDbSymbolTableRecord
100
AcDbTextStyleTableRecord
  2
OpenSansCondensed-Light
 70
0
 40
0.0
 41
1.0
 50
0.0
 71
0
 42
2.5
  3
OpenSansCondensed-Light.ttf
  4

  0
STYLE
  5
4D
330
5
100
AcDbSymbolTableRecord
100
AcDbTextStyleTableRecord
  2
OpenSansCondensed-Italic
 70
0
 40
0.0
 41
1.0
 50
0.0
 71
0
 42
2.5
  3
OpenSansCondensed-LightItalic.ttf
  4

  0
STYLE
  5
4E
330
5
100
AcDbSymbolTableRecord
100
AcDbTextStyleTableRecord
  2
LiberationSans
 70
0
 40
0.0
 41
1.0
 50
0.0
 71
0
 42
2.5
  3
LiberationSans-Regular.ttf
  4

  0
STYLE
  5
4F
330
5
100
AcDbSymbolTableRecord
100
AcDbTextStyleTableRecord
  2
LiberationSans-Bold
 70
0
 40
0.0
 41
1.0
 50
0.0
 71
0
 42
2.5
  3
LiberationSans-Bold.ttf
  4

  0
STYLE
  5
50
330
5
100
AcDbSymbolTableRecord
100
AcDbTextStyleTableRecord
  2
LiberationSans-BoldItalic
 70
0
 40
0.0
 41
1.0
 50
0.0
 71
0
 42
2.5
  3
LiberationSans-BoldItalic.ttf
  4

  0
STYLE
  5
51
330
5
100
AcDbSymbolTableRecord
100
AcDbTextStyleTableRecord
  2
LiberationSans-Italic
 70
0
 40
0.0
 41
1.0
 50
0.0
 71
0
 42
2.5
  3
LiberationSans-Italic.ttf
  4

  0
STYLE
  5
52
330
5
100
AcDbSymbolTableRecord
100
AcDbTextStyleTableRecord
  2
LiberationSerif
 70
0
 40
0.0
 41
1.0
 50
0.0
 71
0
 42
2.5
  3
LiberationSerif-Regular.ttf
  4

  0
STYLE
  5
53
330
5
100
AcDbSymbolTableRecord
100
AcDbTextStyleTableRecord
  2
LiberationSerif-Bold
 70
0
 40
0.0
 41
1.0
 50
0.0
 71
0
 42
2.5
  3
LiberationSerif-Bold.ttf
  4

  0
STYLE
  5
54
330
5
100
AcDbSymbolTableRecord
100
AcDbTextStyleTableRecord
  2
LiberationSerif-BoldItalic
 70
0
 40
0.0
 41
1.0
 50
0.0
 71
0
 42
2.5
  3
LiberationSerif-BoldItalic.ttf
  4

  0
STYLE
  5
55
330
5
100
AcDbSymbolTableRecord
100
AcDbTextStyleTableRecord
  2
LiberationSerif-Italic
 70
0
 40
0.0
 41
1.0
 50
0.0
 71
0
 42
2.5
  3
LiberationSerif-Italic.ttf
  4

  0
STYLE
  5
56
330
5
100
AcDbSymbolTableRecord
100
AcDbTextStyleTableRecord
  2
LiberationMono
 70
0
 40
0.0
 41
1.0
 50
0.0
 71
0
 42
2.5
  3
LiberationMono-Regular.ttf
  4

  0
STYLE
  5
57
330
5
100
AcDbSymbolTableRecord
100
AcDbTextStyleTableRecord
  2
LiberationMono-Bold
 70
0
 40
0.0
 41
1.0
 50
0.0
 71
0
 42
2.5
  3
LiberationMono-Bold.ttf
  4

  0
STYLE
  5
58
330
5
100
AcDbSymbolTableRecord
100
AcDbTextStyleTableRecord
  2
LiberationMono-BoldItalic
 70
0
 40
0.0
 41
1.0
 50
0.0
 71
0
 42
2.5
  3
LiberationMono-BoldItalic.ttf
  4

  0
STYLE
  5
59
330
5
100
AcDbSymbolTableRecord
100
AcDbTextStyleTableRecord
  2
LiberationMono-Italic
 70
0
 40
0.0
 41
1.0
 50
0.0
 71
0
 42
2.5
  3
LiberationMono-Italic.ttf
  4

  0
STYLE
  5
92
330
5
100
AcDbSymbolTableRecord
100
AcDbTextStyleTableRecord
  2
CN
 70
0
 40
0.0
 41
1.0
 50
0.0
 71
0
 42
2.5
  3
simhei.ttf
  4

  0
ENDTAB
  0
TABLE
  2
VIEW
  5
7
330
0
100
AcDbSymbolTable
 70
0
  0
ENDTAB
  0
TABLE
  2
UCS
  5
6
330
0
100
AcDbSymbolTable
 70
0
  0
ENDTAB
  0
TABLE
  2
APPID
  5
3
330
0
100
AcDbSymbolTable
 70
3
  0
APPID
  5
2A
330
3
100
AcDbSymbolTableRecord
100
AcDbRegAppTableRecord
  2
ACAD
 70
0
  0
APPID
  5
35C
330
3
100
AcDbSymbolTableRecord
100
AcDbRegAppTableRecord
  2
HATCHBACKGROUNDCOLOR
 70
0
  0
APPID
  5
35D
330
3
100
AcDbSymbolTableRecord
100
AcDbRegAppTableRecord
  2
EZDXF
 70
0
  0
ENDTAB
  0
TABLE
  2
DIMSTYLE
  5
4
330
0
100
AcDbSymbolTable
 70
13
100
AcDbDimStyleTable
  0
DIMSTYLE
105
2B
330
4
100
AcDbSymbolTableRecord
100
AcDbDimStyleTableRecord
  2
Standard
 70
0
 40
1.0
 41
2.5
 42
0.625
 43
3.75
 44
1.25
 45
0.0
 46
0.0
 47
0.0
 48
0.0
 49
2.5
140
2.5
141
2.5
142
0.0
143
0.03937007874
144
1.0
145
0.0
146
1.0
147
0.625
148
0.0
 69
0
 70
0
 71
0
 72
0
 73
0
 74
0
 75
0
 76
0
 77
1
 78
8
 79
3
170
0
171
3
172
1
173
0
174
0
175
0
176
0
177
0
178
0
179
2
271
2
272
2
273
2
274
3
275
0
276
0
277
2
278
44
279
0
280
0
281
0
282
0
283
0
284
8
285
0
286
0
288
0
289
3
290
0
371
-2
372
-2
  0
DIMSTYLE
105
73
330
4
100
AcDbSymbolTableRecord
100
AcDbDimStyleTableRecord
  2
EZDXF
 70
0
 40
1.0
 41
0.175
 42
0.125
 43
3.75
 44
0.375
 45
0.0
 46
0.0
 47
0.0
 48
0.0
 49
2.5
140
0.25
141
2.5
142
0.0
143
0.03937007874
144
100.0
145
0.0
146
0.5
147
0.1
148
0.0
 69
0
 70
0
 71
0
 72
0
 73
0
 74
0
 75
0
 76
0
 77
1
 78
12
 79
3
170
0
171
3
172
1
173
0
174
0
175
0
176
0
177
0
178
0
179
2
271
2
272
2
273
2
274
3
275
0
276
0
277
2
278
46
279
2
280
0
281
0
282
0
283
0
284
8
285
0
286
0
288
1
289
3
290
0
340
4C
342
74
371
-2
372
-2
  0
DIMSTYLE
105
7C
330
4
100
AcDbSymbolTableRecord
100
AcDbDimStyleTableRecord
  2
EZ_M_100_H25_CM
 70
0
 40
1.0
 41
0.25
 42
0.125
 43
3.75
 44
0.375
 45
0.0
 46
0.0
 47
0.0
 48
0.0
 49
2.5
140
0.25
141
2.5
142
0.125
143
0.03937007874
144
100.0
145
0.0
146
0.5
147
0.1
148
0.0
 69
0
 70
0
 71
0
 72
0
 73
0
 74
0
 75
0
 76
0
 77
1
 78
12
 79
3
170
0
171
3
172
1
173
0
174
0
175
0
176
0
177
0
178
0
179
2
271
2
272
2
273
2
274
3
275
0
276
0
277
2
278
46
279
2
280
0
281
0
282
0
283
0
284
8
285
0
286
0
288
1
289
3
290
0
340
4C
371
-2
372
-2
  0
DIMSTYLE
105
7D
330
4
100
AcDbSymbolTableRecord
100
AcDbDimStyleTableRecord
  2
EZ_M_50_H25_CM
 70
0
 40
1.0
 41
0.125
 42
0.0625
 43
3.75
 44
0.1875
 45
0.0
 46
0.0
 47
0.0
 48
0.0
 49
2.5
140
0.125
141
2.5
142
0.0625
143
0.03937007874
144
100.0
145
0.0
146
0.5
147
0.05
148
0.0
 69
0
 70
0
 71
0
 72
0
 73
0
 74
0
 75
0
 76
0
 77
1
 78
12
 79
3
170
0
171
3
172
1
173
0
174
0
175
0
176
0
177
0
178
0
179
2
271
2
272
2
273
2
274
3
275
0
276
0
277
2
278
46
279
2
280
0
281
0
282
0
283
0
284
8
285
0
286
0
288
1
289
3
290
0
340
4C
371
-2
372
-2
  0
DIMSTYLE
105
7E
330
4
100
AcDbSymbolTableRecord
100
AcDbDimStyleTableRecord
  2
EZ_M_25_H25_CM
 70
0
 40
1.0
 41
0.0625
 42
0.03125
 43
3.75
 44
0.09375
 45
0.0
 46
0.0
 47
0.0
 48
0.0
 49
2.5
140
0.0625
141
2.5
142
0.03125
143
0.03937007874
144
100.0
145
0.0
146
0.5
147
0.025
148
0.0
 69
0
 70
0
 71
0
 72
0
 73
0
 74
0
 75
0
 76
0
 77
1
 78
12
 79
3
170
0
171
3
172
1
173
0
174
0
175
0
176
0
177
0
178
0
179
2
271
2
272
2
273
2
274
3
275
0
276
0
277
2
278
46
279
2
280
0
281
0
282
0
283
0
284
8
285
0
286
0
288
1
289
3
290
0
340
4C
371
-2
372
-2
  0
DIMSTYLE
105
7F
330
4
100
AcDbSymbolTableRecord
100
AcDbDimStyleTableRecord
  2
EZ_M_20_H25_CM
 70
0
 40
1.0
 41
0.05
 42
0.025
 43
3.75
 44
0.07500000000000001
 45
0.0
 46
0.0
 47
0.0
 48
0.0
 49
2.5
140
0.05
141
2.5
142
0.025
143
0.03937007874
144
100.0
145
0.0
146
0.5
147
0.020000000000000004
148
0.0
 69
0
 70
0
 71
0
 72
0
 73
0
 74
0
 75
0
 76
0
 77
1
 78
12
 79
3
170
0
171
3
172
1
173
0
174
0
175
0
176
0
177
0
178
0
179
2
271
2
272
2
273
2
274
3
275
0
276
0
277
2
278
46
279
2
280
0
281
0
282
0
283
0
284
8
285
0
286
0
288
1
289
3
290
0
340
4C
371
-2
372
-2
  0
DIMSTYLE
105
80
330
4
100
AcDbSymbolTableRecord
100
AcDbDimStyleTableRecord
  2
EZ_M_10_H25_CM
 70
0
 40
1.0
 41
0.025
 42
0.0125
 43
3.75
 44
0.037500000000000006
 45
0.0
 46
0.0
 47
0.0
 48
0.0
 49
2.5
140
0.025
141
2.5
142
0.0125
143
0.03937007874
144
100.0
145
0.0
146
0.5
147
0.010000000000000002
148
0.0
 69
0
 70
0
 71
0
 72
0
 73
0
 74
0
 75
0
 76
0
 77
1
 78
12
 79
3
170
0
171
3
172
1
173
0
174
0
175
0
176
0
177
0
178
0
179
2
271
2
272
2
273
2
274
3
275
0
276
0
277
2
278
46
279
2
280
0
281
0
282
0
283
0
284
8
285
0
286
0
288
1
289
3
290
0
340
4C
371
-2
372
-2
  0
DIMSTYLE
105
81
330
4
100
AcDbSymbolTableRecord
100
AcDbDimStyleTableRecord
  2
EZ_M_5_H25_CM
 70
0
 40
1.0
 41
0.0125
 42
0.00625
 43
3.75
 44
0.018750000000000003
 45
0.0
 46
0.0
 47
0.0
 48
0.0
 49
2.5
140
0.0125
141
2.5
142
0.00625
143
0.03937007874
144
100.0
145
0.0
146
0.5
147
0.005000000000000001
148
0.0
 69
0
 70
0
 71
0
 72
0
 73
0
 74
0
 75
0
 76
0
 77
1
 78
12
 79
3
170
0
171
3
172
1
173
0
174
0
175
0
176
0
177
0
178
0
179
2
271
2
272
2
273
2
274
3
275
0
276
0
277
2
278
46
279
2
280
0
281
0
282
0
283
0
284
8
285
0
286
0
288
1
289
3
290
0
340
4C
371
-2
372
-2
  0
DIMSTYLE
105
82
330
4
100
AcDbSymbolTableRecord
100
AcDbDimStyleTableRecord
  2
EZ_M_1_H25_CM
 70
0
 40
1.0
 41
0.0025
 42
0.00125
 43
3.75
 44
0.00375
 45
0.0
 46
0.0
 47
0.0
 48
0.0
 49
2.5
140
0.0025
141
2.5
142
0.00125
143
0.03937007874
144
100.0
145
0.0
146
0.5
147
0.001
148
0.0
 69
0
 70
0
 71
0
 72
0
 73
0
 74
0
 75
0
 76
0
 77
1
 78
12
 79
3
170
0
171
3
172
1
173
0
174
0
175
0
176
0
177
0
178
0
179
2
271
2
272
2
273
2
274
3
275
0
276
0
277
2
278
46
279
2
280
0
281
0
282
0
283
0
284
8
285
0
286
0
288
1
289
3
290
0
340
4C
371
-2
372
-2
  0
DIMSTYLE
105
83
330
4
100
AcDbSymbolTableRecord
100
AcDbDimStyleTableRecord
  2
EZ_RADIUS
 70
0
 40
1.0
 41
0.25
 42
0.125
 43
3.75
 44
0.375
 45
0.0
 46
0.0
 47
0.0
 48
0.0
 49
2.5
140
0.25
141
0.0
142
0.0
143
0.03937007874
144
100.0
145
0.0
146
0.5
147
0.1
148
0.0
 69
0
 70
0
 71
0
 72
0
 73
0
 74
0
 75
0
 76
0
 77
1
 78
12
 79
3
170
0
171
3
172
0
173
0
174
0
175
0
176
0
177
0
178
0
179
2
271
2
272
2
273
2
274
3
275
0
276
0
277
2
278
46
279
1
280
0
281
0
282
0
283
0
284
8
285
0
286
0
288
1
289
3
290
0
340
4C
342
84
371
-2
372
-2
  0
DIMSTYLE
105
88
330
4
100
AcDbSymbolTableRecord
100
AcDbDimStyleTableRecord
  2
EZ_RADIUS_INSIDE
 70
0
 40
1.0
 41
0.25
 42
0.125
 43
3.75
 44
0.375
 45
0.0
 46
0.0
 47
0.0
 48
0.0
 49
2.5
140
0.25
141
0.0
142
0.0
143
0.03937007874
144
100.0
145
0.0
146
0.5
147
0.1
148
0.0
 69
0
 70
0
 71
0
 72
0
 73
0
 74
0
 75
0
 76
0
 77
0
 78
12
 79
3
170
0
171
3
172
0
173
0
174
1
175
0
176
0
177
0
178
0
179
2
271
2
272
2
273
2
274
3
275
0
276
0
277
2
278
46
279
0
280
0
281
0
282
0
283
0
284
8
285
0
286
0
288
1
289
0
290
0
340
4C
342
84
371
-2
372
-2
  0
DIMSTYLE
105
89
330
4
100
AcDbSymbolTableRecord
100
AcDbDimStyleTableRecord
  2
EZ_CURVED
 70
0
 40
1.0
 41
0.25
 42
0.125
 43
3.75
 44
0.375
 45
0.0
 46
0.0
 47
0.0
 48
0.0
 49
2.5
140
0.25
141
2.5
142
0.0
143
0.03937007874
144
100.0
145
0.0
146
0.5
147
0.1
148
0.0
 69
0
 70
0
 71
0
 72
0
 73
0
 74
0
 75
0
 76
0
 77
1
 78
12
 79
2
 90
2
170
0
171
3
172
1
173
0
174
0
175
0
176
0
177
0
178
0
179
2
271
2
272
2
273
2
274
3
275
0
276
0
277
2
278
46
279
2
280
0
281
0
282
0
283
0
284
8
285
0
286
0
288
1
289
3
290
0
340
4C
371
-2
372
-2
  0
DIMSTYLE
105
93
330
4
100
AcDbSymbolTableRecord
100
AcDbDimStyleTableRecord
  2
MECH
 70
0
 40
1.0
 41
2.5
 42
1.0
 43
3.75
 44
1.5
 45
0.0
 46
0.0
 47
0.0
 48
0.0
 49
2.5
140
3.5
141
2.5
142
0.0
143
0.03937007874
144
1.0
145
0.0
146
1.0
147
1.0
148
0.0
 69
0
 70
0
 71
0
 72
0
 73
0
 74
0
 75
0
 76
0
 77
1
 78
8
 79
3
170
0
171
3
172
1
173
0
174
0
175
0
176
0
177
0
178
0
179
2
271
2
272
2
273
2
274
3
275
0
276
0
277
2
278
44
279
0
280
0
281
0
282
0
283
0
284
8
285
0
286
0
288
0
289
3
290
0
371
-2
372
-2
  0
ENDTAB
  0
TABLE
  2
BLOCK_RECORD
  5
9
330
0
100
AcDbSymbolTable
 70
5
  0
BLOCK_RECORD
  5
17
330
9
100
AcDbSymbolTableRecord
100
AcDbBlockTableRecord
  2
*Model_Space
340
1A
 70
0
280
1
281
0
  0
BLOCK_RECORD
  5
1B
330
9
100
AcDbSymbolTableRecord
100
AcDbBlockTableRecord
  2
*Paper_Space
340
1E
 70
0
280
1
281
0
  0
BLOCK_RECORD
  5
74
330
9
100
AcDbSymbolTableRecord
100
AcDbBlockTableRecord
  2
_ARCHTICK
340
0
 70
0
280
1
281
0
  0
BLOCK_RECORD
  5
78
330
9
100
AcDbSymbolTableRecord
100
AcDbBlockTableRecord
  2
_CLOSEDFILLED
340
0
 70
0
280
1
281
0
  0
BLOCK_RECORD
  5
84
330
9
100
AcDbSymbolTableRecord
100
AcDbBlockTableRecord
  2
_CLOSEDBLANK
340
0
 70
0
280
1
281
0
  0
ENDTAB
  0
ENDSEC
  0
SECTION
  2
BLOCKS
  0
BLOCK
  5
18
330
17
100
AcDbEntity
  8
0
100
AcDbBlockBegin
  2
*Model_Space
 70
0
 10
0.0
 20
0.0
 30
0.0
  3
*Model_Space
  1

  0
ENDBLK
  5
19
330
17
100
AcDbEntity
  8
0
100
AcDbBlockEnd
  0
BLOCK
  5
1C
330
1B
100
AcDbEntity
  8
0
100
AcDbBlockBegin
  2
*Paper_Space
 70
0
 10
0.0
 20
0.0
 30
0.0
  3
*Paper_Space
  1

  0
ENDBLK
  5
1D
330
1B
100
AcDbEntity
  8
0
100
AcDbBlockEnd
  0
BLOCK
  5
75
330
74
100
AcDbEntity
  8
0
100
AcDbBlockBegin
  2
_ARCHTICK
 70
0
 10
0.0
 20
0.0
 30
0.0
  3
_ARCHTICK
  1

  0
LWPOLYLINE
  5
77
330
74
100
AcDbEntity
  8
0
  6
BYBLOCK
 62
0
100
AcDbPolyline
 90
2
 70
0
 43
0.15
 10
-0.5
 20
-0.5
 10
0.5
 20
0.5
  0
ENDBLK
  5
76
330
74
100
AcDbEntity
  8
0
100
AcDbBlockEnd
  0
BLOCK
  5
79
330
78
100
AcDbEntity
  8
0
100
AcDbBlockBegin
  2
_CLOSEDFILLED
 70
0
 10
0.0
 20
0.0
 30
0.0
  3
_CLOSEDFILLED
  1

  0
SOLID
  5
7B
330
78
100
AcDbEntity
  8
0
  6
BYBLOCK
 62
0
100
AcDbTrace
 10
-1.0
 20
0.16439898372402537
 30
0.0
 11
0.0
 21
0.0
 31
0.0
 12
-1.0
 22
-0.16439898372402537
 32
0.0
 13
-1.0
 23
-0.16439898372402537
 33
0.0
  0
ENDBLK
  5
7A
330
78
100
AcDbEntity
  8
0
100
AcDbBlockEnd
  0
BLOCK
  5
85
330
84
100
AcDbEntity
  8
0
100
AcDbBlockBegin
  2
_CLOSEDBLANK
 70
0
 10
0.0
 20
0.0
 30
0.0
  3
_CLOSEDBLANK
  1

  0
LWPOLYLINE
  5
87
330
84
100
AcDbEntity
  8
0
  6
BYBLOCK
 62
0
100
AcDbPolyline
 90
3
 70
1
 10
-1.0
 20
0.16439898372402537
 10
0.0
 20
0.0
 10
-1.0
 20
-0.16439898372402537
  0
ENDBLK
  5
86
330
84
100
AcDbEntity
  8
0
100
AcDbBlockEnd
  0
ENDSEC
  0
SECTION
  2
ENTITIES
  0
LINE
  5
94
330
17
100
AcDbEntity
  8
中心线
  6
CENTER
370
18
100
AcDbLine
 10
-30.0
 20
0.0
 30
0.0
 11
418.0
 21
0.0
 31
0.0
  0
LINE
  5
95
330
17
100
AcDbEntity
  8
轮廓
370
50
100
AcDbLine
 10
0.0
 20
136.5
 30
0.0
 11
100.0
 21
136.5
 31
0.0
  0
LINE
  5
96
330
17
100
AcDbEntity
  8
轮廓
370
50
100
AcDbLine
 10
0.0
 20
-136.5
 30
0.0
 11
100.0
 21
-136.5
 31
0.0
  0
LINE
  5
97
330
17
100
AcDbEntity
  8
虚线
  6
DASHED
370
18
100
AcDbLine
 10
0.0
 20
132.5
 30
0.0
 11
100.0
 21
132.5
 31
0.0
  0
LINE
  5
98
330
17
100
AcDbEntity
  8
虚线
  6
DASHED
370
18
100
AcDbLine
 10
0.0
 20
-132.5
 30
0.0
 11
100.0
 21
-132.5
 31
0.0
  0
LINE
  5
99
330
17
100
AcDbEntity
  8
剖面线
370
13
100
AcDbLine
 10
94.34314575050767
 20
-136.5
 30
0.0
 11
98.34314575050767
 21
-132.5
 31
0.0
  0
LINE
  5
9A
330
17
100
AcDbEntity
  8
剖面线
370
13
100
AcDbLine
 10
88.68629150101526
 20
-136.5
 30
0.0
 11
92.68629150101526
 21
-132.5
 31
0.0
  0
LINE
  5
9B
330
17
100
AcDbEntity
  8
剖面线
370
13
100
AcDbLine
 10
83.02943725152289
 20
-136.5
 30
0.0
 11
87.02943725152289
 21
-132.5
 31
0.0
  0
LINE
  5
9C
330
17
100
AcDbEntity
  8
剖面线
370
13
100
AcDbLine
 10
77.37258300203052
 20
-136.5
 30
0.0
 11
81.37258300203052
 21
-132.5
 31
0.0
  0
LINE
  5
9D
330
17
100
AcDbEntity
  8
剖面线
370
13
100
AcDbLine
 10
71.71572875253811
 20
-136.5
 30
0.0
 11
75.71572875253811
 21
-132.5
 31
0.0
  0
LINE
  5
9E
330
17
100
AcDbEntity
  8
剖面线
370
13
100
AcDbLine
 10
66.05887450304577
 20
-136.5
 30
0.0
 11
70.05887450304577
 21
-132.5
 31
0.0
  0
LINE
  5
9F
330
17
100
AcDbEntity
  8
剖面线
370
13
100
AcDbLine
 10
60.40202025355336
 20
-136.5
 30
0.0
 11
64.40202025355336
 21
-132.5
 31
0.0
  0
LINE
  5
A0
330
17
100
AcDbEntity
  8
剖面线
370
13
100
AcDbLine
 10
54.74516600406099
 20
-136.5
 30
0.0
 11
58.74516600406099
 21
-132.5
 31
0.0
  0
LINE
  5
A1
330
17
100
AcDbEntity
  8
剖面线
370
13
100
AcDbLine
 10
49.08831175456862
 20
-136.5
 30
0.0
 11
53.08831175456862
 21
-132.5
 31
0.0
  0
LINE
  5
A2
330
17
100
AcDbEntity
  8
剖面线
370
13
100
AcDbLine
 10
43.43145750507622
 20
-136.5
 30
0.0
 11
47.43145750507621
 21
-132.5
 31
0.0
  0
LINE
  5
A3
330
17
100
AcDbEntity
  8
剖面线
370
13
100
AcDbLine
 10
37.77460325558386
 20
-136.5
 30
0.0
 11
41.77460325558387
 21
-132.5
 31
0.0
  0
LINE
  5
A4
330
17
100
AcDbEntity
  8
剖面线
370
13
100
AcDbLine
 10
32.117749006091465
 20
-136.5
 30
0.0
 11
36.11774900609146
 21
-132.5
 31
0.0
  0
LINE
  5
A5
330
17
100
AcDbEntity
  8
剖面线
370
13
100
AcDbLine
 10
26.46089475659909
 20
-136.5
 30
0.0
 11
30.46089475659908
 21
-132.5
 31
0.0
  0
LINE
  5
A6
330
17
100
AcDbEntity
  8
剖面线
370
13
100
AcDbLine
 10
20.80404050710672
 20
-136.5
 30
0.0
 11
24.80404050710672
 21
-132.5
 31
0.0
  0
LINE
  5
A7
330
17
100
AcDbEntity
  8
剖面线
370
13
100
AcDbLine
 10
15.147186257614308
 20
-136.5
 30
0.0
 11
19.147186257614308
 21
-132.5
 31
0.0
  0
LINE
  5
A8
330
17
100
AcDbEntity
  8
剖面线
370
13
100
AcDbLine
 10
9.490332008121968
 20
-136.5
 30
0.0
 11
13.490332008121968
 21
-132.5
 31
0.0
  0
LINE
  5
A9
330
17
100
AcDbEntity
  8
剖面线
370
13
100
AcDbLine
 10
3.833477758629556
 20
-136.5
 30
0.0
 11
7.833477758629556
 21
-132.5
 31
0.0
  0
LINE
  5
AA
330
17
100
AcDbEntity
  8
剖面线
370
13
100
AcDbLine
 10
0.0
 20
-134.6766235091372
 30
0.0
 11
2.176623509137187
 21
-132.5
 31
0.0
  0
LINE
  5
AB
330
17
100
AcDbEntity
  8
轮廓
370
50
100
AcDbLine
 10
288.0
 20
136.5
 30
0.0
 11
388.0
 21
136.5
 31
0.0
  0
LINE
  5
AC
330
17
100
AcDbEntity
  8
轮廓
370
50
100
AcDbLine
 10
288.0
 20
-136.5
 30
0.0
 11
388.0
 21
-136.5
 31
0.0
  0
LINE
  5
AD
330
17
100
AcDbEntity
  8
虚线
  6
DASHED
370
18
100
AcDbLine
 10
288.0
 20
132.5
 30
0.0
 11
388.0
 21
132.5
 31
0.0
  0
LINE
  5
AE
330
17
100
AcDbEntity
  8
虚线
  6
DASHED
370
18
100
AcDbLine
 10
288.0
 20
-132.5
 30
0.0
 11
388.0
 21
-132.5
 31
0.0
  0
LINE
  5
AF
330
17
100
AcDbEntity
  8
剖面线
370
13
100
AcDbLine
 10
348.40202025355336
 20
-136.5
 30
0.0
 11
351.0195526217005
 21
-133.88246763185288
 31
0.0
  0
LINE
  5
B0
330
17
100
AcDbEntity
  8
剖面线
370
13
100
AcDbLine
 10
342.74516600406105
 20
-136.5
 30
0.0
 11
346.74516600406105
 21
-132.5
 31
0.0
  0
LINE
  5
B1
330
17
100
AcDbEntity
  8
剖面线
370
13
100
AcDbLine
 10
337.0883117545686
 20
-136.5
 30
0.0
 11
341.0883117545686
 21
-132.5
 31
0.0
  0
LINE
  5
B2
330
17
100
AcDbEntity
  8
剖面线
370
13
100
AcDbLine
 10
331.4314575050762
 20
-136.5
 30
0.0
 11
335.4314575050762
 21
-132.5
 31
0.0
  0
LINE
  5
B3
330
17
100
AcDbEntity
  8
剖面线
370
13
100
AcDbLine
 10
325.77460325558377
 20
-136.5
 30
0.0
 11
329.77460325558377
 21
-132.5
 31
0.0
  0
LINE
  5
B4
330
17
100
AcDbEntity
  8
剖面线
370
13
100
AcDbLine
 10
320.11774900609146
 20
-136.5
 30
0.0
 11
324.11774900609146
 21
-132.5
 31
0.0
  0
LINE
  5
B5
330
17
100
AcDbEntity
  8
剖面线
370
13
100
AcDbLine
 10
314.46089475659915
 20
-136.5
 30
0.0
 11
318.46089475659915
 21
-132.5
 31
0.0
  0
LINE
  5
B6
330
17
100
AcDbEntity
  8
剖面线
370
13
100
AcDbLine
 10
308.8040405071067
 20
-136.5
 30
0.0
 11
312.8040405071067
 21
-132.5
 31
0.0
  0
LINE
  5
B7
330
17
100
AcDbEntity
  8
剖面线
370
13
100
AcDbLine
 10
303.1471862576143
 20
-136.5
 30
0.0
 11
307.1471862576143
 21
-132.5
 31
0.0
  0
LINE
  5
B8
330
17
100
AcDbEntity
  8
剖面线
370
13
100
AcDbLine
 10
297.49033200812187
 20
-136.5
 30
0.0
 11
301.49033200812187
 21
-132.5
 31
0.0
  0
LINE
  5
B9
330
17
100
AcDbEntity
  8
剖面线
370
13
100
AcDbLine
 10
291.83347775862956
 20
-136.5
 30
0.0
 11
295.83347775862956
 21
-132.5
 31
0.0
  0
LINE
  5
BA
330
17
100
AcDbEntity
  8
剖面线
370
13
100
AcDbLine
 10
288.0
 20
-134.67662350913722
 30
0.0
 11
290.17662350913724
 21
-132.5
 31
0.0
  0
LINE
  5
BB
330
17
100
AcDbEntity
  8
轮廓
370
50
100
AcDbLine
 10
156.0
 20
212.5
 30
0.0
 11
188.0
 21
212.5
 31
0.0
  0
LINE
  5
BC
330
17
100
AcDbEntity
  8
轮廓
370
50
100
AcDbLine
 10
188.0
 20
212.5
 30
0.0
 11
188.0
 21
-212.5
 31
0.0
  0
LINE
  5
BD
330
17
100
AcDbEntity
  8
轮廓
370
50
100
AcDbLine
 10
188.0
 20
-212.5
 30
0.0
 11
156.0
 21
-212.5
 31
0.0
  0
LINE
  5
BE
330
17
100
AcDbEntity
  8
轮廓
370
50
100
AcDbLine
 10
156.0
 20
-212.5
 30
0.0
 11
156.0
 21
212.5
 31
0.0
  0
LINE
  5
BF
330
17
100
AcDbEntity
  8
细实线
370
18
100
AcDbLine
 10
156.0
 20
132.5
 30
0.0
 11
188.0
 21
132.5
 31
0.0
  0
LINE
  5
C0
330
17
100
AcDbEntity
  8
细实线
370
18
100
AcDbLine
 10
156.0
 20
-132.5
 30
0.0
 11
188.0
 21
-132.5
 31
0.0
  0
LINE
  5
C1
330
17
100
AcDbEntity
  8
细实线
370
18
100
AcDbLine
 10
186.0
 20
167.5
 30
0.0
 11
188.0
 21
167.5
 31
0.0
  0
LINE
  5
C2
330
17
100
AcDbEntity
  8
细实线
370
18
100
AcDbLine
 10
186.0
 20
-167.5
 30
0.0
 11
188.0
 21
-167.5
 31
0.0
  0
CIRCLE
  5
C3
330
17
100
AcDbEntity
  8
细实线
370
18
100
AcDbCircle
 10
172.0
 20
170.20000000000002
 30
0.0
 40
7.5
  0
CIRCLE
  5
C4
330
17
100
AcDbEntity
  8
虚线
  6
DASHED
370
18
100
AcDbCircle
 10
172.0
 20
-170.20000000000002
 30
0.0
 40
7.5
  0
LINE
  5
C5
330
17
100
AcDbEntity
  8
剖面线
370
13
100
AcDbLine
 10
179.51471862576153
 20
-212.5
 30
0.0
 11
188.0
 21
-204.01471862576153
 31
0.0
  0
LINE
  5
C6
330
17
100
AcDbEntity
  8
剖面线
370
13
100
AcDbLine
 10
171.029437251523
 20
-212.5
 30
0.0
 11
188.0
 21
-195.529437251523
 31
0.0
  0
LINE
  5
C7
330
17
100
AcDbEntity
  8
剖面线
370
13
100
AcDbLine
 10
162.54415587728442
 20
-212.5
 30
0.0
 11
188.0
 21
-187.0441558772844
 31
0.0
  0
LINE
  5
C8
330
17
100
AcDbEntity
  8
剖面线
370
13
100
AcDbLine
 10
156.0
 20
-210.55887450304584
 30
0.0
 11
188.0
 21
-178.55887450304584
 31
0.0
  0
LINE
  5
C9
330
17
100
AcDbEntity
  8
剖面线
370
13
100
AcDbLine
 10
156.0
 20
-202.07359312880726
 30
0.0
 11
188.0
 21
-170.07359312880726
 31
0.0
  0
LINE
  5
CA
330
17
100
AcDbEntity
  8
剖面线
370
13
100
AcDbLine
 10
156.0
 20
-193.58831175456868
 30
0.0
 11
188.0
 21
-161.58831175456868
 31
0.0
  0
LINE
  5
CB
330
17
100
AcDbEntity
  8
剖面线
370
13
100
AcDbLine
 10
156.0
 20
-185.10303038033015
 30
0.0
 11
188.0
 21
-153.10303038033015
 31
0.0
  0
LINE
  5
CC
330
17
100
AcDbEntity
  8
剖面线
370
13
100
AcDbLine
 10
156.0
 20
-176.61774900609157
 30
0.0
 11
188.0
 21
-144.61774900609157
 31
0.0
  0
LINE
  5
CD
330
17
100
AcDbEntity
  8
剖面线
370
13
100
AcDbLine
 10
156.0
 20
-168.132467631853
 30
0.0
 11
188.0
 21
-136.132467631853
 31
0.0
  0
LINE
  5
CE
330
17
100
AcDbEntity
  8
剖面线
370
13
100
AcDbLine
 10
156.0
 20
-159.6471862576144
 30
0.0
 11
183.1471862576144
 21
-132.5
 31
0.0
  0
LINE
  5
CF
330
17
100
AcDbEntity
  8
剖面线
370
13
100
AcDbLine
 10
156.0
 20
-151.16190488337583
 30
0.0
 11
174.66190488337583
 21
-132.5
 31
0.0
  0
LINE
  5
D0
330
17
100
AcDbEntity
  8
剖面线
370
13
100
AcDbLine
 10
156.0
 20
-142.6766235091373
 30
0.0
 11
166.1766235091373
 21
-132.5
 31
0.0
  0
LINE
  5
D1
330
17
100
AcDbEntity
  8
剖面线
370
13
100
AcDbLine
 10
156.0
 20
-134.1913421348987
 30
0.0
 11
157.6913421348987
 21
-132.5
 31
0.0
  0
LINE
  5
D2
330
17
100
AcDbEntity
  8
轮廓
370
50
100
AcDbLine
 10
100.0
 20
149.0
 30
0.0
 11
156.0
 21
149.0
 31
0.0
  0
LINE
  5
D3
330
17
100
AcDbEntity
  8
轮廓
370
50
100
AcDbLine
 10
100.0
 20
-149.0
 30
0.0
 11
156.0
 21
-149.0
 31
0.0
  0
LINE
  5
D4
330
17
100
AcDbEntity
  8
虚线
  6
DASHED
370
18
100
AcDbLine
 10
100.0
 20
132.5
 30
0.0
 11
156.0
 21
132.5
 31
0.0
  0
LINE
  5
D5
330
17
100
AcDbEntity
  8
虚线
  6
DASHED
370
18
100
AcDbLine
 10
100.0
 20
-132.5
 30
0.0
 11
156.0
 21
-132.5
 31
0.0
  0
LINE
  5
D6
330
17
100
AcDbEntity
  8
剖面线
370
13
100
AcDbLine
 10
148.92893218813458
 20
-149.0
 30
0.0
 11
156.0
 21
-141.92893218813458
 31
0.0
  0
LINE
  5
D7
330
17
100
AcDbEntity
  8
剖面线
370
13
100
AcDbLine
 10
141.8578643762691
 20
-149.0
 30
0.0
 11
156.0
 21
-134.8578643762691
 31
0.0
  0
LINE
  5
D8
330
17
100
AcDbEntity
  8
剖面线
370
13
100
AcDbLine
 10
134.78679656440363
 20
-149.0
 30
0.0
 11
151.28679656440363
 21
-132.5
 31
0.0
  0
LINE
  5
D9
330
17
100
AcDbEntity
  8
剖面线
370
13
100
AcDbLine
 10
127.71572875253817
 20
-149.0
 30
0.0
 11
144.21572875253815
 21
-132.5
 31
0.0
  0
LINE
  5
DA
330
17
100
AcDbEntity
  8
剖面线
370
13
100
AcDbLine
 10
120.64466094067267
 20
-149.0
 30
0.0
 11
137.14466094067268
 21
-132.5
 31
0.0
  0
LINE
  5
DB
330
17
100
AcDbEntity
  8
剖面线
370
13
100
AcDbLine
 10
113.57359312880722
 20
-149.0
 30
0.0
 11
130.0735931288072
 21
-132.5
 31
0.0
  0
LINE
  5
DC
330
17
100
AcDbEntity
  8
剖面线
370
13
100
AcDbLine
 10
106.50252531694171
 20
-149.0
 30
0.0
 11
123.00252531694171
 21
-132.5
 31
0.0
  0
LINE
  5
DD
330
17
100
AcDbEntity
  8
剖面线
370
13
100
AcDbLine
 10
100.0
 20
-148.43145750507625
 30
0.0
 11
115.93145750507627
 21
-132.5
 31
0.0
  0
LINE
  5
DE
330
17
100
AcDbEntity
  8
剖面线
370
13
100
AcDbLine
 10
100.0
 20
-141.36038969321078
 30
0.0
 11
108.86038969321076
 21
-132.5
 31
0.0
  0
LINE
  5
DF
330
17
100
AcDbEntity
  8
剖面线
370
13
100
AcDbLine
 10
100.0
 20
-134.2893218813453
 30
0.0
 11
101.78932188134532
 21
-132.5
 31
0.0
  0
LINE
  5
E0
330
17
100
AcDbEntity
  8
轮廓
370
50
100
AcDbLine
 10
200.0
 20
212.5
 30
0.0
 11
232.0
 21
212.5
 31
0.0
  0
LINE
  5
E1
330
17
100
AcDbEntity
  8
轮廓
370
50
100
AcDbLine
 10
232.0
 20
212.5
 30
0.0
 11
232.0
 21
-212.5
 31
0.0
  0
LINE
  5
E2
330
17
100
AcDbEntity
  8
轮廓
370
50
100
AcDbLine
 10
232.0
 20
-212.5
 30
0.0
 11
200.0
 21
-212.5
 31
0.0
  0
LINE
  5
E3
330
17
100
AcDbEntity
  8
轮廓
370
50
100
AcDbLine
 10
200.0
 20
-212.5
 30
0.0
 11
200.0
 21
212.5
 31
0.0
  0
LINE
  5
E4
330
17
100
AcDbEntity
  8
细实线
370
18
100
AcDbLine
 10
200.0
 20
132.5
 30
0.0
 11
232.0
 21
132.5
 31
0.0
  0
LINE
  5
E5
330
17
100
AcDbEntity
  8
细实线
370
18
100
AcDbLine
 10
200.0
 20
-132.5
 30
0.0
 11
232.0
 21
-132.5
 31
0.0
  0
LINE
  5
E6
330
17
100
AcDbEntity
  8
细实线
370
18
100
AcDbLine
 10
202.0
 20
167.5
 30
0.0
 11
200.0
 21
167.5
 31
0.0
  0
LINE
  5
E7
330
17
100
AcDbEntity
  8
细实线
370
18
100
AcDbLine
 10
202.0
 20
-167.5
 30
0.0
 11
200.0
 21
-167.5
 31
0.0
  0
CIRCLE
  5
E8
330
17
100
AcDbEntity
  8
细实线
370
18
100
AcDbCircle
 10
216.0
 20
170.20000000000002
 30
0.0
 40
7.5
  0
CIRCLE
  5
E9
330
17
100
AcDbEntity
  8
虚线
  6
DASHED
370
18
100
AcDbCircle
 10
216.0
 20
-170.20000000000002
 30
0.0
 40
7.5
  0
LINE
  5
EA
330
17
100
AcDbEntity
  8
剖面线
370
13
100
AcDbLine
 10
223.51471862576156
 20
-212.5
 30
0.0
 11
232.0
 21
-204.01471862576153
 31
0.0
  0
LINE
  5
EB
330
17
100
AcDbEntity
  8
剖面线
370
13
100
AcDbLine
 10
215.02943725152292
 20
-212.5
 30
0.0
 11
232.0
 21
-195.52943725152295
 31
0.0
  0
LINE
  5
EC
330
17
100
AcDbEntity
  8
剖面线
370
13
100
AcDbLine
 10
206.54415587728437
 20
-212.5
 30
0.0
 11
232.0
 21
-187.04415587728437
 31
0.0
  0
LINE
  5
ED
330
17
100
AcDbEntity
  8
剖面线
370
13
100
AcDbLine
 10
200.0
 20
-210.55887450304579
 30
0.0
 11
232.0
 21
-178.55887450304579
 31
0.0
  0
LINE
  5
EE
330
17
100
AcDbEntity
  8
剖面线
370
13
100
AcDbLine
 10
200.0
 20
-202.0735931288072
 30
0.0
 11
232.0
 21
-170.0735931288072
 31
0.0
  0
LINE
  5
EF
330
17
100
AcDbEntity
  8
剖面线
370
13
100
AcDbLine
 10
200.0
 20
-193.58831175456868
 30
0.0
 11
232.0
 21
-161.58831175456868
 31
0.0
  0
LINE
  5
F0
330
17
100
AcDbEntity
  8
剖面线
370
13
100
AcDbLine
 10
200.0
 20
-185.1030303803301
 30
0.0
 11
232.0
 21
-153.1030303803301
 31
0.0
  0
LINE
  5
F1
330
17
100
AcDbEntity
  8
剖面线
370
13
100
AcDbLine
 10
200.0
 20
-176.61774900609151
 30
0.0
 11
232.0
 21
-144.61774900609151
 31
0.0
  0
LINE
  5
F2
330
17
100
AcDbEntity
  8
剖面线
370
13
100
AcDbLine
 10
200.0
 20
-168.13246763185293
 30
0.0
 11
232.0
 21
-136.13246763185293
 31
0.0
  0
LINE
  5
F3
330
17
100
AcDbEntity
  8
剖面线
370
13
100
AcDbLine
 10
200.0
 20
-159.64718625761435
 30
0.0
 11
227.14718625761435
 21
-132.5
 31
0.0
  0
LINE
  5
F4
330
17
100
AcDbEntity
  8
剖面线
370
13
100
AcDbLine
 10
200.0
 20
-151.16190488337583
 30
0.0
 11
218.66190488337583
 21
-132.5
 31
0.0
  0
LINE
  5
F5
330
17
100
AcDbEntity
  8
剖面线
370
13
100
AcDbLine
 10
200.0
 20
-142.67662350913724
 30
0.0
 11
210.17662350913724
 21
-132.5
 31
0.0
  0
LINE
  5
F6
330
17
100
AcDbEntity
  8
剖面线
370
13
100
AcDbLine
 10
200.0
 20
-134.19134213489866
 30
0.0
 11
201.69134213489866
 21
-132.5
 31
0.0
  0
LINE
  5
F7
330
17
100
AcDbEntity
  8
轮廓
370
50
100
AcDbLine
 10
232.0
 20
149.0
 30
0.0
 11
288.0
 21
149.0
 31
0.0
  0
LINE
  5
F8
330
17
100
AcDbEntity
  8
轮廓
370
50
100
AcDbLine
 10
232.0
 20
-149.0
 30
0.0
 11
288.0
 21
-149.0
 31
0.0
  0
LINE
  5
F9
330
17
100
AcDbEntity
  8
虚线
  6
DASHED
370
18
100
AcDbLine
 10
232.0
 20
132.5
 30
0.0
 11
288.0
 21
132.5
 31
0.0
  0
LINE
  5
FA
330
17
100
AcDbEntity
  8
虚线
  6
DASHED
370
18
100
AcDbLine
 10
232.0
 20
-132.5
 30
0.0
 11
288.0
 21
-132.5
 31
0.0
  0
LINE
  5
FB
330
17
100
AcDbEntity
  8
剖面线
370
13
100
AcDbLine
 10
280.92893218813464
 20
-149.0
 30
0.0
 11
288.0
 21
-141.92893218813464
 31
0.0
  0
LINE
  5
FC
330
17
100
AcDbEntity
  8
剖面线
370
13
100
AcDbLine
 10
273.85786437626916
 20
-149.0
 30
0.0
 11
288.0
 21
-134.85786437626916
 31
0.0
  0
LINE
  5
FD
330
17
100
AcDbEntity
  8
剖面线
370
13
100
AcDbLine
 10
266.7867965644037
 20
-149.0
 30
0.0
 11
283.2867965644037
 21
-132.5
 31
0.0
  0
LINE
  5
FE
330
17
100
AcDbEntity
  8
剖面线
370
13
100
AcDbLine
 10
259.7157287525382
 20
-149.0
 30
0.0
 11
276.2157287525382
 21
-132.5
 31
0.0
  0
LINE
  5
FF
330
17
100
AcDbEntity
  8
剖面线
370
13
100
AcDbLine
 10
252.64466094067274
 20
-149.0
 30
0.0
 11
269.14466094067274
 21
-132.5
 31
0.0
  0
LINE
  5
100
330
17
100
AcDbEntity
  8
剖面线
370
13
100
AcDbLine
 10
245.57359312880726
 20
-149.0
 30
0.0
 11
262.07359312880726
 21
-132.5
 31
0.0
  0
LINE
  5
101
330
17
100
AcDbEntity
  8
剖面线
370
13
100
AcDbLine
 10
238.50252531694179
 20
-149.0
 30
0.0
 11
255.00252531694179
 21
-132.5
 31
0.0
  0
LINE
  5
102
330
17
100
AcDbEntity
  8
剖面线
370
13
100
AcDbLine
 10
232.0
 20
-148.4314575050763
 30
0.0
 11
247.9314575050763
 21
-132.5
 31
0.0
  0
LINE
  5
103
330
17
100
AcDbEntity
  8
剖面线
370
13
100
AcDbLine
 10
232.0
 20
-141.36038969321083
 30
0.0
 11
240.86038969321083
 21
-132.5
 31
0.0
  0
LINE
  5
104
330
17
100
AcDbEntity
  8
剖面线
370
13
100
AcDbLine
 10
232.0
 20
-134.28932188134536
 30
0.0
 11
233.78932188134536
 21
-132.5
 31
0.0
  0
LINE
  5
105
330
17
100
AcDbEntity
  8
细实线
370
18
100
AcDbLine
 10
188.0
 20
167.5
 30
0.0
 11
190.0
 21
167.5
 31
0.0
  0
LINE
  5
106
330
17
100
AcDbEntity
  8
细实线
370
18
100
AcDbLine
 10
190.0
 20
167.5
 30
0.0
 11
190.0
 21
-167.5
 31
0.0
  0
LINE
  5
107
330
17
100
AcDbEntity
  8
细实线
370
18
100
AcDbLine
 10
190.0
 20
-167.5
 30
0.0
 11
188.0
 21
-167.5
 31
0.0
  0
LINE
  5
108
330
17
100
AcDbEntity
  8
细实线
370
18
100
AcDbLine
 10
188.0
 20
-167.5
 30
0.0
 11
188.0
 21
167.5
 31
0.0
  0
LINE
  5
109
330
17
100
AcDbEntity
  8
细实线
370
18
100
AcDbLine
 10
198.0
 20
167.5
 30
0.0
 11
200.0
 21
167.5
 31
0.0
  0
LINE
  5
10A
330
17
100
AcDbEntity
  8
细实线
370
18
100
AcDbLine
 10
200.0
 20
167.5
 30
0.0
 11
200.0
 21
-167.5
 31
0.0
  0
LINE
  5
10B
330
17
100
AcDbEntity
  8
细实线
370
18
100
AcDbLine
 10
200.0
 20
-167.5
 30
0.0
 11
198.0
 21
-167.5
 31
0.0
  0
LINE
  5
10C
330
17
100
AcDbEntity
  8
细实线
370
18
100
AcDbLine
 10
198.0
 20
-167.5
 30
0.0
 11
198.0
 21
167.5
 31
0.0
  0
LINE
  5
10D
330
17
100
AcDbEntity
  8
轮廓
370
50
100
AcDbLine
 10
190.0
 20
160.0
 30
0.0
 11
198.0
 21
160.0
 31
0.0
  0
LINE
  5
10E
330
17
100
AcDbEntity
  8
轮廓
370
50
100
AcDbLine
 10
198.0
 20
160.0
 30
0.0
 11
198.0
 21
-160.0
 31
0.0
  0
LINE
  5
10F
330
17
100
AcDbEntity
  8
轮廓
370
50
100
AcDbLine
 10
198.0
 20
-160.0
 30
0.0
 11
190.0
 21
-160.0
 31
0.0
  0
LINE
  5
110
330
17
100
AcDbEntity
  8
轮廓
370
50
100
AcDbLine
 10
190.0
 20
-160.0
 30
0.0
 11
190.0
 21
160.0
 31
0.0
  0
LINE
  5
111
330
17
100
AcDbEntity
  8
剖面线
370
13
100
AcDbLine
 10
198.0
 20
-160.0
 30
0.0
 11
198.0
 21
-160.0
 31
0.0
  0
LINE
  5
112
330
17
100
AcDbEntity
  8
剖面线
370
13
100
AcDbLine
 10
192.3431457505076
 20
-160.0
 30
0.0
 11
198.0
 21
-154.3431457505076
 31
0.0
  0
LINE
  5
113
330
17
100
AcDbEntity
  8
剖面线
370
13
100
AcDbLine
 10
190.0
 20
-156.68629150101526
 30
0.0
 11
198.0
 21
-148.68629150101526
 31
0.0
  0
LINE
  5
114
330
17
100
AcDbEntity
  8
剖面线
370
13
100
AcDbLine
 10
190.0
 20
-151.02943725152292
 30
0.0
 11
198.0
 21
-143.02943725152292
 31
0.0
  0
LINE
  5
115
330
17
100
AcDbEntity
  8
剖面线
370
13
100
AcDbLine
 10
190.0
 20
-145.37258300203052
 30
0.0
 11
198.0
 21
-137.37258300203052
 31
0.0
  0
LINE
  5
116
330
17
100
AcDbEntity
  8
剖面线
370
13
100
AcDbLine
 10
190.0
 20
-139.7157287525381
 30
0.0
 11
198.0
 21
-131.7157287525381
 31
0.0
  0
LINE
  5
117
330
17
100
AcDbEntity
  8
剖面线
370
13
100
AcDbLine
 10
190.0
 20
-134.0588745030457
 30
0.0
 11
198.0
 21
-126.0588745030457
 31
0.0
  0
LINE
  5
118
330
17
100
AcDbEntity
  8
剖面线
370
13
100
AcDbLine
 10
190.0
 20
-128.40202025355336
 30
0.0
 11
198.0
 21
-120.40202025355336
 31
0.0
  0
LINE
  5
119
330
17
100
AcDbEntity
  8
剖面线
370
13
100
AcDbLine
 10
190.0
 20
-122.74516600406102
 30
0.0
 11
198.00000000000003
 21
-114.74516600406099
 31
0.0
  0
LINE
  5
11A
330
17
100
AcDbEntity
  8
剖面线
370
13
100
AcDbLine
 10
190.0
 20
-117.08831175456862
 30
0.0
 11
198.0
 21
-109.08831175456862
 31
0.0
  0
LINE
  5
11B
330
17
100
AcDbEntity
  8
剖面线
370
13
100
AcDbLine
 10
190.0
 20
-111.4314575050762
 30
0.0
 11
198.0
 21
-103.4314575050762
 31
0.0
  0
LINE
  5
11C
330
17
100
AcDbEntity
  8
剖面线
370
13
100
AcDbLine
 10
190.0
 20
-105.7746032555838
 30
0.0
 11
198.0
 21
-97.7746032555838
 31
0.0
  0
LINE
  5
11D
330
17
100
AcDbEntity
  8
剖面线
370
13
100
AcDbLine
 10
190.0
 20
-100.11774900609146
 30
0.0
 11
198.0
 21
-92.11774900609146
 31
0.0
  0
LINE
  5
11E
330
17
100
AcDbEntity
  8
剖面线
370
13
100
AcDbLine
 10
190.0
 20
-94.46089475659912
 30
0.0
 11
198.0
 21
-86.46089475659912
 31
0.0
  0
LINE
  5
11F
330
17
100
AcDbEntity
  8
剖面线
370
13
100
AcDbLine
 10
190.0
 20
-88.80404050710672
 30
0.0
 11
198.0
 21
-80.80404050710672
 31
0.0
  0
LINE
  5
120
330
17
100
AcDbEntity
  8
剖面线
370
13
100
AcDbLine
 10
190.0
 20
-83.1471862576143
 30
0.0
 11
198.0
 21
-75.1471862576143
 31
0.0
  0
LINE
  5
121
330
17
100
AcDbEntity
  8
剖面线
370
13
100
AcDbLine
 10
190.0
 20
-77.4903320081219
 30
0.0
 11
198.0
 21
-69.4903320081219
 31
0.0
  0
LINE
  5
122
330
17
100
AcDbEntity
  8
剖面线
370
13
100
AcDbLine
 10
190.0
 20
-71.83347775862956
 30
0.0
 11
198.0
 21
-63.833477758629556
 31
0.0
  0
LINE
  5
123
330
17
100
AcDbEntity
  8
剖面线
370
13
100
AcDbLine
 10
190.0
 20
-66.17662350913722
 30
0.0
 11
198.0
 21
-58.176623509137215
 31
0.0
  0
LINE
  5
124
330
17
100
AcDbEntity
  8
剖面线
370
13
100
AcDbLine
 10
190.0
 20
-60.51976925964482
 30
0.0
 11
198.0
 21
-52.51976925964482
 31
0.0
  0
LINE
  5
125
330
17
100
AcDbEntity
  8
剖面线
370
13
100
AcDbLine
 10
190.0
 20
-54.86291501015239
 30
0.0
 11
198.0
 21
-46.86291501015239
 31
0.0
  0
LINE
  5
126
330
17
100
AcDbEntity
  8
剖面线
370
13
100
AcDbLine
 10
190.0
 20
-49.206060760659994
 30
0.0
 11
198.0
 21
-41.206060760659994
 31
0.0
  0
LINE
  5
127
330
17
100
AcDbEntity
  8
剖面线
370
13
100
AcDbLine
 10
190.0
 20
-43.549206511167654
 30
0.0
 11
198.0
 21
-35.549206511167654
 31
0.0
  0
LINE
  5
128
330
17
100
AcDbEntity
  8
剖面线
370
13
100
AcDbLine
 10
190.00000000000006
 20
-37.8923522616752
 30
0.0
 11
198.0
 21
-29.892352261675228
 31
0.0
  0
LINE
  5
129
330
17
100
AcDbEntity
  8
剖面线
370
13
100
AcDbLine
 10
190.0
 20
-32.235498012182916
 30
0.0
 11
198.0
 21
-24.235498012182916
 31
0.0
  0
LINE
  5
12A
330
17
100
AcDbEntity
  8
剖面线
370
13
100
AcDbLine
 10
190.0
 20
-26.57864376269049
 30
0.0
 11
198.0
 21
-18.57864376269049
 31
0.0
  0
LINE
  5
12B
330
17
100
AcDbEntity
  8
剖面线
370
13
100
AcDbLine
 10
190.0
 20
-20.92178951319812
 30
0.0
 11
198.0
 21
-12.92178951319812
 31
0.0
  0
LINE
  5
12C
330
17
100
AcDbEntity
  8
剖面线
370
13
100
AcDbLine
 10
190.0
 20
-15.264935263705752
 30
0.0
 11
198.0
 21
-7.264935263705752
 31
0.0
  0
LINE
  5
12D
330
17
100
AcDbEntity
  8
剖面线
370
13
100
AcDbLine
 10
190.0
 20
-9.608081014213326
 30
0.0
 11
198.0
 21
-1.6080810142133544
 31
0.0
  0
LINE
  5
12E
330
17
100
AcDbEntity
  8
剖面线
370
13
100
AcDbLine
 10
190.0
 20
-3.9512267647210138
 30
0.0
 11
193.951226764721
 21
0.0
 31
0.0
  0
LINE
  5
12F
330
17
100
AcDbEntity
  8
轮廓
370
50
100
AcDbLine
 10
190.0
 20
68.09
 30
0.0
 11
193.0
 21
68.09
 31
0.0
  0
LINE
  5
130
330
17
100
AcDbEntity
  8
轮廓
370
50
100
AcDbLine
 10
190.0
 20
-68.09
 30
0.0
 11
193.0
 21
-68.09
 31
0.0
  0
LINE
  5
131
330
17
100
AcDbEntity
  8
轮廓
370
50
100
AcDbLine
 10
193.0
 20
68.09
 30
0.0
 11
198.0
 21
73.09
 31
0.0
  0
LINE
  5
132
330
17
100
AcDbEntity
  8
轮廓
370
50
100
AcDbLine
 10
193.0
 20
-68.09
 30
0.0
 11
198.0
 21
-73.09
 31
0.0
  0
LINE
  5
133
330
17
100
AcDbEntity
  8
轮廓
370
50
100
AcDbLine
 10
198.0
 20
73.09
 30
0.0
 11
198.0
 21
-73.09
 31
0.0
  0
LINE
  5
134
330
17
100
AcDbEntity
  8
轮廓
370
50
100
AcDbLine
 10
190.0
 20
68.09
 30
0.0
 11
190.0
 21
-68.09
 31
0.0
  0
LINE
  5
135
330
17
100
AcDbEntity
  8
轮廓
370
50
100
AcDbLine
 10
194.0
 20
160.0
 30
0.0
 11
194.0
 21
188.0
 31
0.0
  0
LINE
  5
136
330
17
100
AcDbEntity
  8
轮廓
370
50
100
AcDbLine
 10
174.0
 20
188.0
 30
0.0
 11
214.0
 21
188.0
 31
0.0
  0
LINE
  5
137
330
17
100
AcDbEntity
  8
轮廓
370
50
100
AcDbLine
 10
214.0
 20
188.0
 30
0.0
 11
214.0
 21
218.25
 31
0.0
  0
LINE
  5
138
330
17
100
AcDbEntity
  8
轮廓
370
50
100
AcDbLine
 10
214.0
 20
218.25
 30
0.0
 11
174.0
 21
218.25
 31
0.0
  0
LINE
  5
139
330
17
100
AcDbEntity
  8
轮廓
370
50
100
AcDbLine
 10
174.0
 20
218.25
 30
0.0
 11
174.0
 21
188.0
 31
0.0
  0
TEXT
  5
13A
330
17
100
AcDbEntity
  8
文字
100
AcDbText
 10
194.0
 20
203.4
 30
0.0
 40
4.0
  1
3
  7
CN
 72
1
 11
194.0
 21
203.4
 31
0.0
100
AcDbText
 73
2
  0
LINE
  5
13B
330
17
100
AcDbEntity
  8
轮廓
370
50
100
AcDbLine
 10
153.95
 20
212.5
 30
0.0
 11
153.95
 21
302.5
 31
0.0
  0
LINE
  5
13C
330
17
100
AcDbEntity
  8
轮廓
370
50
100
AcDbLine
 10
175.25
 20
212.5
 30
0.0
 11
175.25
 21
302.5
 31
0.0
  0
LINE
  5
13D
330
17
100
AcDbEntity
  8
轮廓
370
50
100
AcDbLine
 10
153.95
 20
302.5
 30
0.0
 11
175.25
 21
302.5
 31
0.0
  0
LINE
  5
13E
330
17
100
AcDbEntity
  8
虚线
  6
DASHED
370
18
100
AcDbLine
 10
164.6
 20
212.5
 30
0.0
 11
164.6
 21
132.5
 31
0.0
  0
LINE
  5
13F
330
17
100
AcDbEntity
  8
轮廓
370
50
100
AcDbLine
 10
212.75
 20
212.5
 30
0.0
 11
212.75
 21
302.5
 31
0.0
  0
LINE
  5
140
330
17
100
AcDbEntity
  8
轮廓
370
50
100
AcDbLine
 10
234.05
 20
212.5
 30
0.0
 11
234.05
 21
302.5
 31
0.0
  0
LINE
  5
141
330
17
100
AcDbEntity
  8
轮廓
370
50
100
AcDbLine
 10
212.75
 20
302.5
 30
0.0
 11
234.05
 21
302.5
 31
0.0
  0
LINE
  5
142
330
17
100
AcDbEntity
  8
虚线
  6
DASHED
370
18
100
AcDbLine
 10
223.4
 20
212.5
 30
0.0
 11
223.4
 21
132.5
 31
0.0
  0
LINE
  5
143
330
17
100
AcDbEntity
  8
轮廓
370
50
100
AcDbLine
 10
160.0
 20
162.8
 30
0.0
 11
228.0
 21
162.8
 31
0.0
  0
LINE
  5
144
330
17
100
AcDbEntity
  8
轮廓
370
50
100
AcDbLine
 10
156.0
 20
167.8
 30
0.0
 11
164.0
 21
167.8
 31
0.0
  0
LINE
  5
145
330
17
100
AcDbEntity
  8
轮廓
370
50
100
AcDbLine
 10
164.0
 20
167.8
 30
0.0
 11
164.0
 21
157.8
 31
0.0
  0
LINE
  5
146
330
17
100
AcDbEntity
  8
轮廓
370
50
100
AcDbLine
 10
164.0
 20
157.8
 30
0.0
 11
156.0
 21
157.8
 31
0.0
  0
LINE
  5
147
330
17
100
AcDbEntity
  8
轮廓
370
50
100
AcDbLine
 10
156.0
 20
157.8
 30
0.0
 11
156.0
 21
167.8
 31
0.0
  0
LINE
  5
148
330
17
100
AcDbEntity
  8
轮廓
370
50
100
AcDbLine
 10
224.0
 20
167.8
 30
0.0
 11
232.0
 21
167.8
 31
0.0
  0
LINE
  5
149
330
17
100
AcDbEntity
  8
轮廓
370
50
100
AcDbLine
 10
232.0
 20
167.8
 30
0.0
 11
232.0
 21
157.8
 31
0.0
  0
LINE
  5
14A
330
17
100
AcDbEntity
  8
轮廓
370
50
100
AcDbLine
 10
232.0
 20
157.8
 30
0.0
 11
224.0
 21
157.8
 31
0.0
  0
LINE
  5
14B
330
17
100
AcDbEntity
  8
轮廓
370
50
100
AcDbLine
 10
224.0
 20
157.8
 30
0.0
 11
224.0
 21
167.8
 31
0.0
  0
LINE
  5
14C
330
17
100
AcDbEntity
  8
轮廓
370
50
100
AcDbLine
 10
160.0
 20
-162.8
 30
0.0
 11
228.0
 21
-162.8
 31
0.0
  0
LINE
  5
14D
330
17
100
AcDbEntity
  8
轮廓
370
50
100
AcDbLine
 10
156.0
 20
-157.8
 30
0.0
 11
164.0
 21
-157.8
 31
0.0
  0
LINE
  5
14E
330
17
100
AcDbEntity
  8
轮廓
370
50
100
AcDbLine
 10
164.0
 20
-157.8
 30
0.0
 11
164.0
 21
-167.8
 31
0.0
  0
LINE
  5
14F
330
17
100
AcDbEntity
  8
轮廓
370
50
100
AcDbLine
 10
164.0
 20
-167.8
 30
0.0
 11
156.0
 21
-167.8
 31
0.0
  0
LINE
  5
150
330
17
100
AcDbEntity
  8
轮廓
370
50
100
AcDbLine
 10
156.0
 20
-167.8
 30
0.0
 11
156.0
 21
-157.8
 31
0.0
  0
LINE
  5
151
330
17
100
AcDbEntity
  8
轮廓
370
50
100
AcDbLine
 10
224.0
 20
-157.8
 30
0.0
 11
232.0
 21
-157.8
 31
0.0
  0
LINE
  5
152
330
17
100
AcDbEntity
  8
轮廓
370
50
100
AcDbLine
 10
232.0
 20
-157.8
 30
0.0
 11
232.0
 21
-167.8
 31
0.0
  0
LINE
  5
153
330
17
100
AcDbEntity
  8
轮廓
370
50
100
AcDbLine
 10
232.0
 20
-167.8
 30
0.0
 11
224.0
 21
-167.8
 31
0.0
  0
LINE
  5
154
330
17
100
AcDbEntity
  8
轮廓
370
50
100
AcDbLine
 10
224.0
 20
-167.8
 30
0.0
 11
224.0
 21
-157.8
 31
0.0
  0
LINE
  5
155
330
17
100
AcDbEntity
  8
标注
370
18
100
AcDbLine
 10
172.0
 20
-212.5
 30
0.0
 11
162.0
 21
-242.5
 31
0.0
  0
CIRCLE
  5
156
330
17
100
AcDbEntity
  8
轮廓
370
50
100
AcDbCircle
 10
162.0
 20
-242.5
 30
0.0
 40
5.0
  0
TEXT
  5
157
330
17
100
AcDbEntity
  8
文字
100
AcDbText
 10
162.0
 20
-242.5
 30
0.0
 40
3.5
  1
1
  7
CN
 72
1
 11
162.0
 21
-242.5
 31
0.0
100
AcDbText
 73
2
  0
LINE
  5
158
330
17
100
AcDbEntity
  8
标注
370
18
100
AcDbLine
 10
216.0
 20
-212.5
 30
0.0
 11
226.0
 21
-242.5
 31
0.0
  0
CIRCLE
  5
159
330
17
100
AcDbEntity
  8
轮廓
370
50
100
AcDbCircle
 10
226.0
 20
-242.5
 30
0.0
 40
5.0
  0
TEXT
  5
15A
330
17
100
AcDbEntity
  8
文字
100
AcDbText
 10
226.0
 20
-242.5
 30
0.0
 40
3.5
  1
2
  7
CN
 72
1
 11
226.0
 21
-242.5
 31
0.0
100
AcDbText
 73
2
  0
LINE
  5
15B
330
17
100
AcDbEntity
  8
标注
370
18
100
AcDbLine
 10
194.0
 20
-160.0
 30
0.0
 11
194.0
 21
-242.5
 31
0.0
  0
CIRCLE
  5
15C
330
17
100
AcDbEntity
  8
轮廓
370
50
100
AcDbCircle
 10
194.0
 20
-242.5
 30
0.0
 40
5.0
  0
TEXT
  5
15D
330
17
100
AcDbEntity
  8
文字
100
AcDbText
 10
194.0
 20
-242.5
 30
0.0
 40
3.5
  1
3
  7
CN
 72
1
 11
194.0
 21
-242.5
 31
0.0
100
AcDbText
 73
2
  0
LINE
  5
15E
330
17
100
AcDbEntity
  8
标注
370
18
100
AcDbLine
 10
164.6
 20
302.5
 30
0.0
 11
139.6
 21
320.5
 31
0.0
  0
CIRCLE
  5
15F
330
17
100
AcDbEntity
  8
轮廓
370
50
100
AcDbCircle
 10
139.6
 20
320.5
 30
0.0
 40
5.0
  0
TEXT
  5
160
330
17
100
AcDbEntity
  8
文字
100
AcDbText
 10
139.6
 20
320.5
 30
0.0
 40
3.5
  1
4
  7
CN
 72
1
 11
139.6
 21
320.5
 31
0.0
100
AcDbText
 73
2
  0
LINE
  5
161
330
17
100
AcDbEntity
  8
标注
370
18
100
AcDbLine
 10
223.4
 20
302.5
 30
0.0
 11
248.4
 21
320.5
 31
0.0
  0
CIRCLE
  5
162
330
17
100
AcDbEntity
  8
轮廓
370
50
100
AcDbCircle
 10
248.4
 20
320.5
 30
0.0
 40
5.0
  0
TEXT
  5
163
330
17
100
AcDbEntity
  8
文字
100
AcDbText
 10
248.4
 20
320.5
 30
0.0
 40
3.5
  1
5
  7
CN
 72
1
 11
248.4
 21
320.5
 31
0.0
100
AcDbText
 73
2
  0
LINE
  5
164
330
17
100
AcDbEntity
  8
标注
370
18
100
AcDbLine
 10
194.0
 20
162.8
 30
0.0
 11
194.0
 21
267.5
 31
0.0
  0
CIRCLE
  5
165
330
17
100
AcDbEntity
  8
轮廓
370
50
100
AcDbCircle
 10
194.0
 20
267.5
 30
0.0
 40
5.0
  0
TEXT
  5
166
330
17
100
AcDbEntity
  8
文字
100
AcDbText
 10
194.0
 20
267.5
 30
0.0
 40
3.5
  1
6
  7
CN
 72
1
 11
194.0
 21
267.5
 31
0.0
100
AcDbText
 73
2
  0
LINE
  5
167
330
17
100
AcDbEntity
  8
标注
370
18
100
AcDbLine
 10
189.0
 20
167.5
 30
0.0
 11
168.0
 21
247.5
 31
0.0
  0
CIRCLE
  5
168
330
17
100
AcDbEntity
  8
轮廓
370
50
100
AcDbCircle
 10
168.0
 20
247.5
 30
0.0
 40
5.0
  0
TEXT
  5
169
330
17
100
AcDbEntity
  8
文字
100
AcDbText
 10
168.0
 20
247.5
 30
0.0
 40
3.5
  1
7
  7
CN
 72
1
 11
168.0
 21
247.5
 31
0.0
100
AcDbText
 73
2
  0
LINE
  5
16A
330
17
100
AcDbEntity
  8
标注
370
18
100
AcDbLine
 10
50.0
 20
136.5
 30
0.0
 11
50.0
 21
247.5
 31
0.0
  0
CIRCLE
  5
16B
330
17
100
AcDbEntity
  8
轮廓
370
50
100
AcDbCircle
 10
50.0
 20
247.5
 30
0.0
 40
5.0
  0
TEXT
  5
16C
330
17
100
AcDbEntity
  8
文字
100
AcDbText
 10
50.0
 20
247.5
 30
0.0
 40
3.5
  1
8
  7
CN
 72
1
 11
50.0
 21
247.5
 31
0.0
100
AcDbText
 73
2
  0
LINE
  5
16D
330
17
100
AcDbEntity
  8
标注
370
18
100
AcDbLine
 10
156.0
 20
-264.5
 30
0.0
 11
232.0
 21
-264.5
 31
0.0
  0
LINE
  5
16E
330
17
100
AcDbEntity
  8
标注
370
18
100
AcDbLine
 10
156.0
 20
-266.5
 30
0.0
 11
156.0
 21
-262.5
 31
0.0
  0
LINE
  5
16F
330
17
100
AcDbEntity
  8
标注
370
18
100
AcDbLine
 10
232.0
 20
-266.5
 30
0.0
 11
232.0
 21
-262.5
 31
0.0
  0
LINE
  5
170
330
17
100
AcDbEntity
  8
标注
370
18
100
AcDbLine
 10
156.0
 20
-264.5
 30
0.0
 11
159.0
 21
-263.4
 31
0.0
  0
LINE
  5
171
330
17
100
AcDbEntity
  8
标注
370
18
100
AcDbLine
 10
156.0
 20
-264.5
 30
0.0
 11
159.0
 21
-265.6
 31
0.0
  0
LINE
  5
172
330
17
100
AcDbEntity
  8
标注
370
18
100
AcDbLine
 10
232.0
 20
-264.5
 30
0.0
 11
229.0
 21
-263.4
 31
0.0
  0
LINE
  5
173
330
17
100
AcDbEntity
  8
标注
370
18
100
AcDbLine
 10
232.0
 20
-264.5
 30
0.0
 11
229.0
 21
-265.6
 31
0.0
  0
TEXT
  5
174
330
17
100
AcDbEntity
  8
文字
100
AcDbText
 10
194.0
 20
-262.0
 30
0.0
 40
3.5
  1
装配长 ≈76
  7
CN
 72
1
 11
194.0
 21
-262.0
 31
0.0
100
AcDbText
 73
1
  0
LINE
  5
175
330
17
100
AcDbEntity
  8
标注
370
18
100
AcDbLine
 10
-22.0
 20
-212.5
 30
0.0
 11
-22.0
 21
212.5
 31
0.0
  0
LINE
  5
176
330
17
100
AcDbEntity
  8
标注
370
18
100
AcDbLine
 10
-24.0
 20
-212.5
 30
0.0
 11
-20.0
 21
-212.5
 31
0.0
  0
LINE
  5
177
330
17
100
AcDbEntity
  8
标注
370
18
100
AcDbLine
 10
-24.0
 20
212.5
 30
0.0
 11
-20.0
 21
212.5
 31
0.0
  0
LINE
  5
178
330
17
100
AcDbEntity
  8
标注
370
18
100
AcDbLine
 10
-22.0
 20
-212.5
 30
0.0
 11
-23.1
 21
-209.5
 31
0.0
  0
LINE
  5
179
330
17
100
AcDbEntity
  8
标注
370
18
100
AcDbLine
 10
-22.0
 20
-212.5
 30
0.0
 11
-20.9
 21
-209.5
 31
0.0
  0
LINE
  5
17A
330
17
100
AcDbEntity
  8
标注
370
18
100
AcDbLine
 10
-22.0
 20
212.5
 30
0.0
 11
-23.1
 21
209.5
 31
0.0
  0
LINE
  5
17B
330
17
100
AcDbEntity
  8
标注
370
18
100
AcDbLine
 10
-22.0
 20
212.5
 30
0.0
 11
-20.9
 21
209.5
 31
0.0
  0
TEXT
  5
17C
330
17
100
AcDbEntity
  8
文字
100
AcDbText
 10
-28.0
 20
0.0
 30
0.0
 40
3.5
  1
Φ425
 50
90.0
  7
CN
 72
1
 11
-28.0
 21
0.0
 31
0.0
100
AcDbText
 73
2
  0
TEXT
  5
17D
330
17
100
AcDbEntity
  8
文字
100
AcDbText
 10
50.0
 20
146.5
 30
0.0
 40
3.5
  1
Φ273.0×4.0
  7
CN
 72
1
 11
50.0
 21
146.5
 31
0.0
100
AcDbText
 73
1
  0
TEXT
  5
17E
330
17
100
AcDbEntity
  8
文字
100
AcDbText
 10
214.0
 20
0.0
 30
0.0
 40
3.5
  1
Φ136.18
  7
CN
 11
214.0
 21
0.0
 31
0.0
100
AcDbText
 73
2
  0
TEXT
  5
17F
330
17
100
AcDbEntity
  8
文字
100
AcDbText
 10
194.0
 20
284.5
 30
0.0
 40
3.0
  1
取压 25.4±0.8
  7
CN
 72
1
 11
194.0
 21
284.5
 31
0.0
100
AcDbText
 73
1
  0
LINE
  5
180
330
17
100
AcDbEntity
  8
轮廓
370
50
100
AcDbLine
 10
176.0
 20
-284.5
 30
0.0
 11
207.0
 21
-284.5
 31
0.0
  0
LINE
  5
181
330
17
100
AcDbEntity
  8
轮廓
370
50
100
AcDbLine
 10
207.0
 20
-284.5
 30
0.0
 11
196.0
 21
-280.5
 31
0.0
  0
LINE
  5
182
330
17
100
AcDbEntity
  8
轮廓
370
50
100
AcDbLine
 10
207.0
 20
-284.5
 30
0.0
 11
196.0
 21
-288.5
 31
0.0
  0
TEXT
  5
183
330
17
100
AcDbEntity
  8
文字
100
AcDbText
 10
194.0
 20
-292.5
 30
0.0
 40
4.0
  1
介质流向 →（下游侧倒角）
  7
CN
 72
1
 11
194.0
 21
-292.5
 31
0.0
100
AcDbText
 73
3
  0
TEXT
  5
184
330
17
100
AcDbEntity
  8
文字
100
AcDbText
 10
194.0
 20
307.5
 30
0.0
 40
5.5
  1
FE-1002 法兰对夹孔板总装  DN250  HG/T20592 PN25 RF  ROH10×JX25N2
  7
CN
 72
1
 11
194.0
 21
307.5
 31
0.0
100
AcDbText
 73
1
  0
TEXT
  5
185
330
17
100
AcDbEntity
  8
文字
100
AcDbText
 10
194.0
 20
294.5
 30
0.0
 40
3.8
  1
D=265.0  d=136.18  β=0.5139  材质F304/F304L  Tf=-162.0℃  Pf=600.0kPaG
  7
CN
 72
1
 11
194.0
 21
294.5
 31
0.0
100
AcDbText
 73
1
  0
LINE
  5
186
330
17
100
AcDbEntity
  8
表格
370
18
100
AcDbLine
 10
-60.0
 20
-320.0
 30
0.0
 11
620.0
 21
-320.0
 31
0.0
  0
LINE
  5
187
330
17
100
AcDbEntity
  8
表格
370
18
100
AcDbLine
 10
620.0
 20
-320.0
 30
0.0
 11
620.0
 21
360.0
 31
0.0
  0
LINE
  5
188
330
17
100
AcDbEntity
  8
表格
370
18
100
AcDbLine
 10
620.0
 20
360.0
 30
0.0
 11
-60.0
 21
360.0
 31
0.0
  0
LINE
  5
189
330
17
100
AcDbEntity
  8
表格
370
18
100
AcDbLine
 10
-60.0
 20
360.0
 30
0.0
 11
-60.0
 21
-320.0
 31
0.0
  0
TEXT
  5
18A
330
17
100
AcDbEntity
  8
文字
100
AcDbText
 10
280.0
 20
352.0
 30
0.0
 40
5.0
  1

  7
CN
 72
1
 11
280.0
 21
352.0
 31
0.0
100
AcDbText
 73
3
  0
TEXT
  5
18B
330
17
100
AcDbEntity
  8
文字
100
AcDbText
 10
280.0
 20
340.0
 30
0.0
 40
6.0
  1
A  总装配图（半剖）
  7
CN
 72
1
 11
280.0
 21
340.0
 31
0.0
100
AcDbText
 73
1
  0
CIRCLE
  5
18C
330
17
100
AcDbEntity
  8
轮廓
370
50
100
AcDbCircle
 10
790.0
 20
100.0
 30
0.0
 40
160.0
  0
CIRCLE
  5
18D
330
17
100
AcDbEntity
  8
轮廓
370
50
100
AcDbCircle
 10
790.0
 20
100.0
 30
0.0
 40
68.09
  0
LINE
  5
18E
330
17
100
AcDbEntity
  8
中心线
  6
CENTER
370
18
100
AcDbLine
 10
612.0
 20
100.0
 30
0.0
 11
968.0
 21
100.0
 31
0.0
  0
LINE
  5
18F
330
17
100
AcDbEntity
  8
中心线
  6
CENTER
370
18
100
AcDbLine
 10
790.0
 20
-78.0
 30
0.0
 11
790.0
 21
325.0
 31
0.0
  0
LINE
  5
190
330
17
100
AcDbEntity
  8
轮廓
370
50
100
AcDbLine
 10
770.0
 20
260.0
 30
0.0
 11
810.0
 21
260.0
 31
0.0
  0
LINE
  5
191
330
17
100
AcDbEntity
  8
轮廓
370
50
100
AcDbLine
 10
810.0
 20
260.0
 30
0.0
 11
810.0
 21
315.0
 31
0.0
  0
LINE
  5
192
330
17
100
AcDbEntity
  8
轮廓
370
50
100
AcDbLine
 10
810.0
 20
315.0
 30
0.0
 11
770.0
 21
315.0
 31
0.0
  0
LINE
  5
193
330
17
100
AcDbEntity
  8
轮廓
370
50
100
AcDbLine
 10
770.0
 20
315.0
 30
0.0
 11
770.0
 21
260.0
 31
0.0
  0
TEXT
  5
194
330
17
100
AcDbEntity
  8
文字
100
AcDbText
 10
790.0
 20
290.25
 30
0.0
 40
3.2
  1
FE-1002
  7
CN
 72
1
 11
790.0
 21
290.25
 31
0.0
100
AcDbText
 73
2
  0
TEXT
  5
195
330
17
100
AcDbEntity
  8
文字
100
AcDbText
 10
790.0
 20
273.75
 30
0.0
 40
2.8
  1
UPSTREAM
  7
CN
 72
1
 11
790.0
 21
273.75
 31
0.0
100
AcDbText
 73
2
  0
LINE
  5
196
330
17
100
AcDbEntity
  8
细实线
370
18
100
AcDbLine
 10
873.09
 20
75.0
 30
0.0
 11
903.09
 21
75.0
 31
0.0
  0
LINE
  5
197
330
17
100
AcDbEntity
  8
细实线
370
18
100
AcDbLine
 10
903.09
 20
75.0
 30
0.0
 11
896.09
 21
79.0
 31
0.0
  0
LINE
  5
198
330
17
100
AcDbEntity
  8
细实线
370
18
100
AcDbLine
 10
903.09
 20
75.0
 30
0.0
 11
896.09
 21
71.0
 31
0.0
  0
TEXT
  5
199
330
17
100
AcDbEntity
  8
文字
100
AcDbText
 10
888.09
 20
68.0
 30
0.0
 40
2.8
  1
流向刻印
  7
CN
 72
1
 11
888.09
 21
68.0
 31
0.0
100
AcDbText
 73
3
  0
LINE
  5
19A
330
17
100
AcDbEntity
  8
标注
370
18
100
AcDbLine
 10
630.0
 20
-88.0
 30
0.0
 11
950.0
 21
-88.0
 31
0.0
  0
LINE
  5
19B
330
17
100
AcDbEntity
  8
标注
370
18
100
AcDbLine
 10
630.0
 20
-90.0
 30
0.0
 11
630.0
 21
-86.0
 31
0.0
  0
LINE
  5
19C
330
17
100
AcDbEntity
  8
标注
370
18
100
AcDbLine
 10
950.0
 20
-90.0
 30
0.0
 11
950.0
 21
-86.0
 31
0.0
  0
LINE
  5
19D
330
17
100
AcDbEntity
  8
标注
370
18
100
AcDbLine
 10
630.0
 20
-88.0
 30
0.0
 11
633.0
 21
-86.9
 31
0.0
  0
LINE
  5
19E
330
17
100
AcDbEntity
  8
标注
370
18
100
AcDbLine
 10
630.0
 20
-88.0
 30
0.0
 11
633.0
 21
-89.1
 31
0.0
  0
LINE
  5
19F
330
17
100
AcDbEntity
  8
标注
370
18
100
AcDbLine
 10
950.0
 20
-88.0
 30
0.0
 11
947.0
 21
-86.9
 31
0.0
  0
LINE
  5
1A0
330
17
100
AcDbEntity
  8
标注
370
18
100
AcDbLine
 10
950.0
 20
-88.0
 30
0.0
 11
947.0
 21
-89.1
 31
0.0
  0
TEXT
  5
1A1
330
17
100
AcDbEntity
  8
文字
100
AcDbText
 10
790.0
 20
-85.5
 30
0.0
 40
3.5
  1
Φ320.0
  7
CN
 72
1
 11
790.0
 21
-85.5
 31
0.0
100
AcDbText
 73
1
  0
LINE
  5
1A2
330
17
100
AcDbEntity
  8
标注
370
18
100
AcDbLine
 10
721.91
 20
112.0
 30
0.0
 11
858.09
 21
112.0
 31
0.0
  0
LINE
  5
1A3
330
17
100
AcDbEntity
  8
标注
370
18
100
AcDbLine
 10
721.91
 20
110.0
 30
0.0
 11
721.91
 21
114.0
 31
0.0
  0
LINE
  5
1A4
330
17
100
AcDbEntity
  8
标注
370
18
100
AcDbLine
 10
858.09
 20
110.0
 30
0.0
 11
858.09
 21
114.0
 31
0.0
  0
LINE
  5
1A5
330
17
100
AcDbEntity
  8
标注
370
18
100
AcDbLine
 10
721.91
 20
112.0
 30
0.0
 11
724.91
 21
113.1
 31
0.0
  0
LINE
  5
1A6
330
17
100
AcDbEntity
  8
标注
370
18
100
AcDbLine
 10
721.91
 20
112.0
 30
0.0
 11
724.91
 21
110.9
 31
0.0
  0
LINE
  5
1A7
330
17
100
AcDbEntity
  8
标注
370
18
100
AcDbLine
 10
858.09
 20
112.0
 30
0.0
 11
855.09
 21
113.1
 31
0.0
  0
LINE
  5
1A8
330
17
100
AcDbEntity
  8
标注
370
18
100
AcDbLine
 10
858.09
 20
112.0
 30
0.0
 11
855.09
 21
110.9
 31
0.0
  0
TEXT
  5
1A9
330
17
100
AcDbEntity
  8
文字
100
AcDbText
 10
790.0
 20
114.5
 30
0.0
 40
3.5
  1
Φ136.18±0.05
  7
CN
 72
1
 11
790.0
 21
114.5
 31
0.0
100
AcDbText
 73
1
  0
LINE
  5
1AA
330
17
100
AcDbEntity
  8
标注
370
18
100
AcDbLine
 10
972.0
 20
260.0
 30
0.0
 11
972.0
 21
315.0
 31
0.0
  0
LINE
  5
1AB
330
17
100
AcDbEntity
  8
标注
370
18
100
AcDbLine
 10
970.0
 20
260.0
 30
0.0
 11
974.0
 21
260.0
 31
0.0
  0
LINE
  5
1AC
330
17
100
AcDbEntity
  8
标注
370
18
100
AcDbLine
 10
970.0
 20
315.0
 30
0.0
 11
974.0
 21
315.0
 31
0.0
  0
LINE
  5
1AD
330
17
100
AcDbEntity
  8
标注
370
18
100
AcDbLine
 10
972.0
 20
260.0
 30
0.0
 11
970.9
 21
263.0
 31
0.0
  0
LINE
  5
1AE
330
17
100
AcDbEntity
  8
标注
370
18
100
AcDbLine
 10
972.0
 20
260.0
 30
0.0
 11
973.1
 21
263.0
 31
0.0
  0
LINE
  5
1AF
330
17
100
AcDbEntity
  8
标注
370
18
100
AcDbLine
 10
972.0
 20
315.0
 30
0.0
 11
970.9
 21
312.0
 31
0.0
  0
LINE
  5
1B0
330
17
100
AcDbEntity
  8
标注
370
18
100
AcDbLine
 10
972.0
 20
315.0
 30
0.0
 11
973.1
 21
312.0
 31
0.0
  0
TEXT
  5
1B1
330
17
100
AcDbEntity
  8
文字
100
AcDbText
 10
978.0
 20
287.5
 30
0.0
 40
3.5
  1
55.0
 50
90.0
  7
CN
 72
1
 11
978.0
 21
287.5
 31
0.0
100
AcDbText
 73
2
  0
LINE
  5
1B2
330
17
100
AcDbEntity
  8
标注
370
18
100
AcDbLine
 10
770.0
 20
323.0
 30
0.0
 11
810.0
 21
323.0
 31
0.0
  0
LINE
  5
1B3
330
17
100
AcDbEntity
  8
标注
370
18
100
AcDbLine
 10
770.0
 20
321.0
 30
0.0
 11
770.0
 21
325.0
 31
0.0
  0
LINE
  5
1B4
330
17
100
AcDbEntity
  8
标注
370
18
100
AcDbLine
 10
810.0
 20
321.0
 30
0.0
 11
810.0
 21
325.0
 31
0.0
  0
LINE
  5
1B5
330
17
100
AcDbEntity
  8
标注
370
18
100
AcDbLine
 10
770.0
 20
323.0
 30
0.0
 11
773.0
 21
324.1
 31
0.0
  0
LINE
  5
1B6
330
17
100
AcDbEntity
  8
标注
370
18
100
AcDbLine
 10
770.0
 20
323.0
 30
0.0
 11
773.0
 21
321.9
 31
0.0
  0
LINE
  5
1B7
330
17
100
AcDbEntity
  8
标注
370
18
100
AcDbLine
 10
810.0
 20
323.0
 30
0.0
 11
807.0
 21
324.1
 31
0.0
  0
LINE
  5
1B8
330
17
100
AcDbEntity
  8
标注
370
18
100
AcDbLine
 10
810.0
 20
323.0
 30
0.0
 11
807.0
 21
321.9
 31
0.0
  0
TEXT
  5
1B9
330
17
100
AcDbEntity
  8
文字
100
AcDbText
 10
790.0
 20
325.5
 30
0.0
 40
3.5
  1
40.0
  7
CN
 72
1
 11
790.0
 21
325.5
 31
0.0
100
AcDbText
 73
1
  0
TEXT
  5
1BA
330
17
100
AcDbEntity
  8
文字
100
AcDbText
 10
790.0
 20
343.0
 30
0.0
 40
4.0
  1
孔板片 主视（上游面）
  7
CN
 72
1
 11
790.0
 21
343.0
 31
0.0
100
AcDbText
 73
1
  0
TEXT
  5
1BB
330
17
100
AcDbEntity
  8
文字
100
AcDbText
 10
790.0
 20
-105.0
 30
0.0
 40
3.0
  1
上游面 Ra1.6  孔口 Ra0.8  锐边无倒圆
  7
CN
 72
1
 11
790.0
 21
-105.0
 31
0.0
100
AcDbText
 73
3
  0
LINE
  5
1BC
330
17
100
AcDbEntity
  8
轮廓
370
50
100
AcDbLine
 10
980.0
 20
-60.0
 30
0.0
 11
988.0
 21
-60.0
 31
0.0
  0
LINE
  5
1BD
330
17
100
AcDbEntity
  8
轮廓
370
50
100
AcDbLine
 10
988.0
 20
-60.0
 30
0.0
 11
988.0
 21
260.0
 31
0.0
  0
LINE
  5
1BE
330
17
100
AcDbEntity
  8
轮廓
370
50
100
AcDbLine
 10
988.0
 20
260.0
 30
0.0
 11
980.0
 21
260.0
 31
0.0
  0
LINE
  5
1BF
330
17
100
AcDbEntity
  8
轮廓
370
50
100
AcDbLine
 10
980.0
 20
260.0
 30
0.0
 11
980.0
 21
-60.0
 31
0.0
  0
LINE
  5
1C0
330
17
100
AcDbEntity
  8
轮廓
370
50
100
AcDbLine
 10
980.0
 20
168.09
 30
0.0
 11
983.0
 21
168.09
 31
0.0
  0
LINE
  5
1C1
330
17
100
AcDbEntity
  8
轮廓
370
50
100
AcDbLine
 10
983.0
 20
168.09
 30
0.0
 11
988.0
 21
173.09
 31
0.0
  0
LINE
  5
1C2
330
17
100
AcDbEntity
  8
轮廓
370
50
100
AcDbLine
 10
980.0
 20
31.909999999999997
 30
0.0
 11
983.0
 21
31.909999999999997
 31
0.0
  0
LINE
  5
1C3
330
17
100
AcDbEntity
  8
轮廓
370
50
100
AcDbLine
 10
983.0
 20
31.909999999999997
 30
0.0
 11
988.0
 21
26.909999999999997
 31
0.0
  0
LINE
  5
1C4
330
17
100
AcDbEntity
  8
轮廓
370
50
100
AcDbLine
 10
980.0
 20
168.09
 30
0.0
 11
980.0
 21
31.909999999999997
 31
0.0
  0
LINE
  5
1C5
330
17
100
AcDbEntity
  8
轮廓
370
50
100
AcDbLine
 10
988.0
 20
173.09
 30
0.0
 11
988.0
 21
26.909999999999997
 31
0.0
  0
LINE
  5
1C6
330
17
100
AcDbEntity
  8
中心线
  6
CENTER
370
18
100
AcDbLine
 10
965.0
 20
100.0
 30
0.0
 11
1003.0
 21
100.0
 31
0.0
  0
LINE
  5
1C7
330
17
100
AcDbEntity
  8
标注
370
18
100
AcDbLine
 10
980.0
 20
-82.0
 30
0.0
 11
988.0
 21
-82.0
 31
0.0
  0
LINE
  5
1C8
330
17
100
AcDbEntity
  8
标注
370
18
100
AcDbLine
 10
980.0
 20
-84.0
 30
0.0
 11
980.0
 21
-80.0
 31
0.0
  0
LINE
  5
1C9
330
17
100
AcDbEntity
  8
标注
370
18
100
AcDbLine
 10
988.0
 20
-84.0
 30
0.0
 11
988.0
 21
-80.0
 31
0.0
  0
LINE
  5
1CA
330
17
100
AcDbEntity
  8
标注
370
18
100
AcDbLine
 10
980.0
 20
-82.0
 30
0.0
 11
983.0
 21
-80.9
 31
0.0
  0
LINE
  5
1CB
330
17
100
AcDbEntity
  8
标注
370
18
100
AcDbLine
 10
980.0
 20
-82.0
 30
0.0
 11
983.0
 21
-83.1
 31
0.0
  0
LINE
  5
1CC
330
17
100
AcDbEntity
  8
标注
370
18
100
AcDbLine
 10
988.0
 20
-82.0
 30
0.0
 11
985.0
 21
-80.9
 31
0.0
  0
LINE
  5
1CD
330
17
100
AcDbEntity
  8
标注
370
18
100
AcDbLine
 10
988.0
 20
-82.0
 30
0.0
 11
985.0
 21
-83.1
 31
0.0
  0
TEXT
  5
1CE
330
17
100
AcDbEntity
  8
文字
100
AcDbText
 10
984.0
 20
-79.5
 30
0.0
 40
3.5
  1
E=8.0
  7
CN
 72
1
 11
984.0
 21
-79.5
 31
0.0
100
AcDbText
 73
1
  0
LINE
  5
1CF
330
17
100
AcDbEntity
  8
标注
370
18
100
AcDbLine
 10
980.0
 20
191.09
 30
0.0
 11
983.0
 21
191.09
 31
0.0
  0
LINE
  5
1D0
330
17
100
AcDbEntity
  8
标注
370
18
100
AcDbLine
 10
980.0
 20
189.09
 30
0.0
 11
980.0
 21
193.09
 31
0.0
  0
LINE
  5
1D1
330
17
100
AcDbEntity
  8
标注
370
18
100
AcDbLine
 10
983.0
 20
189.09
 30
0.0
 11
983.0
 21
193.09
 31
0.0
  0
LINE
  5
1D2
330
17
100
AcDbEntity
  8
标注
370
18
100
AcDbLine
 10
980.0
 20
191.09
 30
0.0
 11
983.0
 21
192.19
 31
0.0
  0
LINE
  5
1D3
330
17
100
AcDbEntity
  8
标注
370
18
100
AcDbLine
 10
980.0
 20
191.09
 30
0.0
 11
983.0
 21
189.99
 31
0.0
  0
LINE
  5
1D4
330
17
100
AcDbEntity
  8
标注
370
18
100
AcDbLine
 10
983.0
 20
191.09
 30
0.0
 11
980.0
 21
192.19
 31
0.0
  0
LINE
  5
1D5
330
17
100
AcDbEntity
  8
标注
370
18
100
AcDbLine
 10
983.0
 20
191.09
 30
0.0
 11
980.0
 21
189.99
 31
0.0
  0
TEXT
  5
1D6
330
17
100
AcDbEntity
  8
文字
100
AcDbText
 10
981.5
 20
193.59
 30
0.0
 40
3.5
  1
e=3.0
  7
CN
 72
1
 11
981.5
 21
193.59
 31
0.0
100
AcDbText
 73
1
  0
TEXT
  5
1D7
330
17
100
AcDbEntity
  8
文字
100
AcDbText
 10
985.75
 20
178.84
 30
0.0
 40
3.2
  1
45.0°
  7
CN
 72
1
 11
985.75
 21
178.84
 31
0.0
100
AcDbText
 73
1
  0
LINE
  5
1D8
330
17
100
AcDbEntity
  8
标注
370
18
100
AcDbLine
 10
1006.0
 20
31.909999999999997
 30
0.0
 11
1006.0
 21
168.09
 31
0.0
  0
LINE
  5
1D9
330
17
100
AcDbEntity
  8
标注
370
18
100
AcDbLine
 10
1004.0
 20
31.909999999999997
 30
0.0
 11
1008.0
 21
31.909999999999997
 31
0.0
  0
LINE
  5
1DA
330
17
100
AcDbEntity
  8
标注
370
18
100
AcDbLine
 10
1004.0
 20
168.09
 30
0.0
 11
1008.0
 21
168.09
 31
0.0
  0
LINE
  5
1DB
330
17
100
AcDbEntity
  8
标注
370
18
100
AcDbLine
 10
1006.0
 20
31.909999999999997
 30
0.0
 11
1004.9
 21
34.91
 31
0.0
  0
LINE
  5
1DC
330
17
100
AcDbEntity
  8
标注
370
18
100
AcDbLine
 10
1006.0
 20
31.909999999999997
 30
0.0
 11
1007.1
 21
34.91
 31
0.0
  0
LINE
  5
1DD
330
17
100
AcDbEntity
  8
标注
370
18
100
AcDbLine
 10
1006.0
 20
168.09
 30
0.0
 11
1004.9
 21
165.09
 31
0.0
  0
LINE
  5
1DE
330
17
100
AcDbEntity
  8
标注
370
18
100
AcDbLine
 10
1006.0
 20
168.09
 30
0.0
 11
1007.1
 21
165.09
 31
0.0
  0
TEXT
  5
1DF
330
17
100
AcDbEntity
  8
文字
100
AcDbText
 10
1012.0
 20
100.0
 30
0.0
 40
3.5
  1
Φ136.18
 50
90.0
  7
CN
 72
1
 11
1012.0
 21
100.0
 31
0.0
100
AcDbText
 73
2
  0
LINE
  5
1E0
330
17
100
AcDbEntity
  8
标注
370
18
100
AcDbLine
 10
962.0
 20
-60.0
 30
0.0
 11
962.0
 21
260.0
 31
0.0
  0
LINE
  5
1E1
330
17
100
AcDbEntity
  8
标注
370
18
100
AcDbLine
 10
960.0
 20
-60.0
 30
0.0
 11
964.0
 21
-60.0
 31
0.0
  0
LINE
  5
1E2
330
17
100
AcDbEntity
  8
标注
370
18
100
AcDbLine
 10
960.0
 20
260.0
 30
0.0
 11
964.0
 21
260.0
 31
0.0
  0
LINE
  5
1E3
330
17
100
AcDbEntity
  8
标注
370
18
100
AcDbLine
 10
962.0
 20
-60.0
 30
0.0
 11
960.9
 21
-57.0
 31
0.0
  0
LINE
  5
1E4
330
17
100
AcDbEntity
  8
标注
370
18
100
AcDbLine
 10
962.0
 20
-60.0
 30
0.0
 11
963.1
 21
-57.0
 31
0.0
  0
LINE
  5
1E5
330
17
100
AcDbEntity
  8
标注
370
18
100
AcDbLine
 10
962.0
 20
260.0
 30
0.0
 11
960.9
 21
257.0
 31
0.0
  0
LINE
  5
1E6
330
17
100
AcDbEntity
  8
标注
370
18
100
AcDbLine
 10
962.0
 20
260.0
 30
0.0
 11
963.1
 21
257.0
 31
0.0
  0
TEXT
  5
1E7
330
17
100
AcDbEntity
  8
文字
100
AcDbText
 10
956.0
 20
100.0
 30
0.0
 40
3.5
  1
Φ320.0
 50
90.0
  7
CN
 72
1
 11
956.0
 21
100.0
 31
0.0
100
AcDbText
 73
2
  0
TEXT
  5
1E8
330
17
100
AcDbEntity
  8
文字
100
AcDbText
 10
984.0
 20
295.0
 30
0.0
 40
4.0
  1
A-A 剖视（下游侧倒角）
  7
CN
 72
1
 11
984.0
 21
295.0
 31
0.0
100
AcDbText
 73
1
  0
TEXT
  5
1E9
330
17
100
AcDbEntity
  8
文字
100
AcDbText
 10
984.0
 20
-100.0
 30
0.0
 40
3.2
  1
材料 F304/F304L  件数 1
  7
CN
 72
1
 11
984.0
 21
-100.0
 31
0.0
100
AcDbText
 73
3
  0
TEXT
  5
1EA
330
17
100
AcDbEntity
  8
文字
100
AcDbText
 10
984.0
 20
-112.0
 30
0.0
 40
3.0
  1
孔口上游锐边 G≤0.0004d；禁止倒钝
  7
CN
 72
1
 11
984.0
 21
-112.0
 31
0.0
100
AcDbText
 73
3
  0
TEXT
  5
1EB
330
17
100
AcDbEntity
  8
文字
100
AcDbText
 10
880.0
 20
260.0
 30
0.0
 40
6.0
  1
B  孔板片机加工图
  7
CN
 72
1
 11
880.0
 21
260.0
 31
0.0
100
AcDbText
 73
1
  0
LINE
  5
1EC
330
17
100
AcDbEntity
  8
轮廓
370
50
100
AcDbLine
 10
0.0
 20
-862.5
 30
0.0
 11
32.0
 21
-862.5
 31
0.0
  0
LINE
  5
1ED
330
17
100
AcDbEntity
  8
轮廓
370
50
100
AcDbLine
 10
32.0
 20
-862.5
 30
0.0
 11
32.0
 21
-437.5
 31
0.0
  0
LINE
  5
1EE
330
17
100
AcDbEntity
  8
轮廓
370
50
100
AcDbLine
 10
32.0
 20
-437.5
 30
0.0
 11
0.0
 21
-437.5
 31
0.0
  0
LINE
  5
1EF
330
17
100
AcDbEntity
  8
轮廓
370
50
100
AcDbLine
 10
0.0
 20
-437.5
 30
0.0
 11
0.0
 21
-862.5
 31
0.0
  0
LINE
  5
1F0
330
17
100
AcDbEntity
  8
细实线
370
18
100
AcDbLine
 10
0.0
 20
-517.5
 30
0.0
 11
32.0
 21
-517.5
 31
0.0
  0
LINE
  5
1F1
330
17
100
AcDbEntity
  8
细实线
370
18
100
AcDbLine
 10
0.0
 20
-782.5
 30
0.0
 11
32.0
 21
-782.5
 31
0.0
  0
LINE
  5
1F2
330
17
100
AcDbEntity
  8
细实线
370
18
100
AcDbLine
 10
30.0
 20
-482.5
 30
0.0
 11
32.0
 21
-482.5
 31
0.0
  0
LINE
  5
1F3
330
17
100
AcDbEntity
  8
细实线
370
18
100
AcDbLine
 10
30.0
 20
-817.5
 30
0.0
 11
32.0
 21
-817.5
 31
0.0
  0
LINE
  5
1F4
330
17
100
AcDbEntity
  8
轮廓
370
50
100
AcDbLine
 10
-56.0
 20
-501.0
 30
0.0
 11
0.0
 21
-501.0
 31
0.0
  0
LINE
  5
1F5
330
17
100
AcDbEntity
  8
轮廓
370
50
100
AcDbLine
 10
-56.0
 20
-799.0
 30
0.0
 11
0.0
 21
-799.0
 31
0.0
  0
LINE
  5
1F6
330
17
100
AcDbEntity
  8
虚线
  6
DASHED
370
18
100
AcDbLine
 10
-56.0
 20
-517.5
 30
0.0
 11
0.0
 21
-517.5
 31
0.0
  0
LINE
  5
1F7
330
17
100
AcDbEntity
  8
虚线
  6
DASHED
370
18
100
AcDbLine
 10
-56.0
 20
-782.5
 30
0.0
 11
0.0
 21
-782.5
 31
0.0
  0
LINE
  5
1F8
330
17
100
AcDbEntity
  8
轮廓
370
50
100
AcDbLine
 10
-56.0
 20
-513.5
 30
0.0
 11
-64.0
 21
-513.5
 31
0.0
  0
LINE
  5
1F9
330
17
100
AcDbEntity
  8
轮廓
370
50
100
AcDbLine
 10
-56.0
 20
-786.5
 30
0.0
 11
-64.0
 21
-786.5
 31
0.0
  0
LINE
  5
1FA
330
17
100
AcDbEntity
  8
虚线
  6
DASHED
370
18
100
AcDbLine
 10
8.600000000000001
 20
-517.5
 30
0.0
 11
8.600000000000001
 21
-437.5
 31
0.0
  0
LINE
  5
1FB
330
17
100
AcDbEntity
  8
细实线
370
18
100
AcDbLine
 10
4.600000000000001
 20
-517.5
 30
0.0
 11
4.600000000000001
 21
-432.5
 31
0.0
  0
LINE
  5
1FC
330
17
100
AcDbEntity
  8
细实线
370
18
100
AcDbLine
 10
12.600000000000001
 20
-517.5
 30
0.0
 11
12.600000000000001
 21
-432.5
 31
0.0
  0
LINE
  5
1FD
330
17
100
AcDbEntity
  8
轮廓
370
50
100
AcDbLine
 10
-2.049999999999999
 20
-437.5
 30
0.0
 11
19.25
 21
-437.5
 31
0.0
  0
LINE
  5
1FE
330
17
100
AcDbEntity
  8
轮廓
370
50
100
AcDbLine
 10
19.25
 20
-437.5
 30
0.0
 11
19.25
 21
-347.5
 31
0.0
  0
LINE
  5
1FF
330
17
100
AcDbEntity
  8
轮廓
370
50
100
AcDbLine
 10
19.25
 20
-347.5
 30
0.0
 11
-2.049999999999999
 21
-347.5
 31
0.0
  0
LINE
  5
200
330
17
100
AcDbEntity
  8
轮廓
370
50
100
AcDbLine
 10
-2.049999999999999
 20
-347.5
 30
0.0
 11
-2.049999999999999
 21
-437.5
 31
0.0
  0
LINE
  5
201
330
17
100
AcDbEntity
  8
虚线
  6
DASHED
370
18
100
AcDbLine
 10
-0.049999999999998934
 20
-437.5
 30
0.0
 11
-0.049999999999998934
 21
-347.5
 31
0.0
  0
LINE
  5
202
330
17
100
AcDbEntity
  8
虚线
  6
DASHED
370
18
100
AcDbLine
 10
17.25
 20
-437.5
 30
0.0
 11
17.25
 21
-347.5
 31
0.0
  0
LINE
  5
203
330
17
100
AcDbEntity
  8
中心线
  6
CENTER
370
18
100
AcDbLine
 10
-81.0
 20
-650.0
 30
0.0
 11
57.0
 21
-650.0
 31
0.0
  0
LINE
  5
204
330
17
100
AcDbEntity
  8
标注
370
18
100
AcDbLine
 10
0.0
 20
-890.5
 30
0.0
 11
32.0
 21
-890.5
 31
0.0
  0
LINE
  5
205
330
17
100
AcDbEntity
  8
标注
370
18
100
AcDbLine
 10
0.0
 20
-892.5
 30
0.0
 11
0.0
 21
-888.5
 31
0.0
  0
LINE
  5
206
330
17
100
AcDbEntity
  8
标注
370
18
100
AcDbLine
 10
32.0
 20
-892.5
 30
0.0
 11
32.0
 21
-888.5
 31
0.0
  0
LINE
  5
207
330
17
100
AcDbEntity
  8
标注
370
18
100
AcDbLine
 10
0.0
 20
-890.5
 30
0.0
 11
3.0
 21
-889.4
 31
0.0
  0
LINE
  5
208
330
17
100
AcDbEntity
  8
标注
370
18
100
AcDbLine
 10
0.0
 20
-890.5
 30
0.0
 11
3.0
 21
-891.6
 31
0.0
  0
LINE
  5
209
330
17
100
AcDbEntity
  8
标注
370
18
100
AcDbLine
 10
32.0
 20
-890.5
 30
0.0
 11
29.0
 21
-889.4
 31
0.0
  0
LINE
  5
20A
330
17
100
AcDbEntity
  8
标注
370
18
100
AcDbLine
 10
32.0
 20
-890.5
 30
0.0
 11
29.0
 21
-891.6
 31
0.0
  0
TEXT
  5
20B
330
17
100
AcDbEntity
  8
文字
100
AcDbText
 10
16.0
 20
-888.0
 30
0.0
 40
3.5
  1
C=32.0
  7
CN
 72
1
 11
16.0
 21
-888.0
 31
0.0
100
AcDbText
 73
1
  0
LINE
  5
20C
330
17
100
AcDbEntity
  8
标注
370
18
100
AcDbLine
 10
-56.0
 20
-910.5
 30
0.0
 11
32.0
 21
-910.5
 31
0.0
  0
LINE
  5
20D
330
17
100
AcDbEntity
  8
标注
370
18
100
AcDbLine
 10
-56.0
 20
-912.5
 30
0.0
 11
-56.0
 21
-908.5
 31
0.0
  0
LINE
  5
20E
330
17
100
AcDbEntity
  8
标注
370
18
100
AcDbLine
 10
32.0
 20
-912.5
 30
0.0
 11
32.0
 21
-908.5
 31
0.0
  0
LINE
  5
20F
330
17
100
AcDbEntity
  8
标注
370
18
100
AcDbLine
 10
-56.0
 20
-910.5
 30
0.0
 11
-53.0
 21
-909.4
 31
0.0
  0
LINE
  5
210
330
17
100
AcDbEntity
  8
标注
370
18
100
AcDbLine
 10
-56.0
 20
-910.5
 30
0.0
 11
-53.0
 21
-911.6
 31
0.0
  0
LINE
  5
211
330
17
100
AcDbEntity
  8
标注
370
18
100
AcDbLine
 10
32.0
 20
-910.5
 30
0.0
 11
29.0
 21
-909.4
 31
0.0
  0
LINE
  5
212
330
17
100
AcDbEntity
  8
标注
370
18
100
AcDbLine
 10
32.0
 20
-910.5
 30
0.0
 11
29.0
 21
-911.6
 31
0.0
  0
TEXT
  5
213
330
17
100
AcDbEntity
  8
文字
100
AcDbText
 10
-12.0
 20
-908.0
 30
0.0
 40
3.5
  1
H=88.0
  7
CN
 72
1
 11
-12.0
 21
-908.0
 31
0.0
100
AcDbText
 73
1
  0
LINE
  5
214
330
17
100
AcDbEntity
  8
标注
370
18
100
AcDbLine
 10
8.600000000000001
 20
-329.5
 30
0.0
 11
32.0
 21
-329.5
 31
0.0
  0
LINE
  5
215
330
17
100
AcDbEntity
  8
标注
370
18
100
AcDbLine
 10
8.600000000000001
 20
-331.5
 30
0.0
 11
8.600000000000001
 21
-327.5
 31
0.0
  0
LINE
  5
216
330
17
100
AcDbEntity
  8
标注
370
18
100
AcDbLine
 10
32.0
 20
-331.5
 30
0.0
 11
32.0
 21
-327.5
 31
0.0
  0
LINE
  5
217
330
17
100
AcDbEntity
  8
标注
370
18
100
AcDbLine
 10
8.600000000000001
 20
-329.5
 30
0.0
 11
11.600000000000001
 21
-328.4
 31
0.0
  0
LINE
  5
218
330
17
100
AcDbEntity
  8
标注
370
18
100
AcDbLine
 10
8.600000000000001
 20
-329.5
 30
0.0
 11
11.600000000000001
 21
-330.6
 31
0.0
  0
LINE
  5
219
330
17
100
AcDbEntity
  8
标注
370
18
100
AcDbLine
 10
32.0
 20
-329.5
 30
0.0
 11
29.0
 21
-328.4
 31
0.0
  0
LINE
  5
21A
330
17
100
AcDbEntity
  8
标注
370
18
100
AcDbLine
 10
32.0
 20
-329.5
 30
0.0
 11
29.0
 21
-330.6
 31
0.0
  0
TEXT
  5
21B
330
17
100
AcDbEntity
  8
文字
100
AcDbText
 10
20.3
 20
-327.0
 30
0.0
 40
3.5
  1
23.4（机加）
  7
CN
 72
1
 11
20.3
 21
-327.0
 31
0.0
100
AcDbText
 73
1
  0
LINE
  5
21C
330
17
100
AcDbEntity
  8
标注
370
18
100
AcDbLine
 10
54.0
 20
-862.5
 30
0.0
 11
54.0
 21
-437.5
 31
0.0
  0
LINE
  5
21D
330
17
100
AcDbEntity
  8
标注
370
18
100
AcDbLine
 10
52.0
 20
-862.5
 30
0.0
 11
56.0
 21
-862.5
 31
0.0
  0
LINE
  5
21E
330
17
100
AcDbEntity
  8
标注
370
18
100
AcDbLine
 10
52.0
 20
-437.5
 30
0.0
 11
56.0
 21
-437.5
 31
0.0
  0
LINE
  5
21F
330
17
100
AcDbEntity
  8
标注
370
18
100
AcDbLine
 10
54.0
 20
-862.5
 30
0.0
 11
52.9
 21
-859.5
 31
0.0
  0
LINE
  5
220
330
17
100
AcDbEntity
  8
标注
370
18
100
AcDbLine
 10
54.0
 20
-862.5
 30
0.0
 11
55.1
 21
-859.5
 31
0.0
  0
LINE
  5
221
330
17
100
AcDbEntity
  8
标注
370
18
100
AcDbLine
 10
54.0
 20
-437.5
 30
0.0
 11
52.9
 21
-440.5
 31
0.0
  0
LINE
  5
222
330
17
100
AcDbEntity
  8
标注
370
18
100
AcDbLine
 10
54.0
 20
-437.5
 30
0.0
 11
55.1
 21
-440.5
 31
0.0
  0
TEXT
  5
223
330
17
100
AcDbEntity
  8
文字
100
AcDbText
 10
60.0
 20
-650.0
 30
0.0
 40
3.5
  1
Φ425
 50
90.0
  7
CN
 72
1
 11
60.0
 21
-650.0
 31
0.0
100
AcDbText
 73
2
  0
LINE
  5
224
330
17
100
AcDbEntity
  8
标注
370
18
100
AcDbLine
 10
-76.0
 20
-786.5
 30
0.0
 11
-76.0
 21
-513.5
 31
0.0
  0
LINE
  5
225
330
17
100
AcDbEntity
  8
标注
370
18
100
AcDbLine
 10
-78.0
 20
-786.5
 30
0.0
 11
-74.0
 21
-786.5
 31
0.0
  0
LINE
  5
226
330
17
100
AcDbEntity
  8
标注
370
18
100
AcDbLine
 10
-78.0
 20
-513.5
 30
0.0
 11
-74.0
 21
-513.5
 31
0.0
  0
LINE
  5
227
330
17
100
AcDbEntity
  8
标注
370
18
100
AcDbLine
 10
-76.0
 20
-786.5
 30
0.0
 11
-77.1
 21
-783.5
 31
0.0
  0
LINE
  5
228
330
17
100
AcDbEntity
  8
标注
370
18
100
AcDbLine
 10
-76.0
 20
-786.5
 30
0.0
 11
-74.9
 21
-783.5
 31
0.0
  0
LINE
  5
229
330
17
100
AcDbEntity
  8
标注
370
18
100
AcDbLine
 10
-76.0
 20
-513.5
 30
0.0
 11
-77.1
 21
-516.5
 31
0.0
  0
LINE
  5
22A
330
17
100
AcDbEntity
  8
标注
370
18
100
AcDbLine
 10
-76.0
 20
-513.5
 30
0.0
 11
-74.9
 21
-516.5
 31
0.0
  0
TEXT
  5
22B
330
17
100
AcDbEntity
  8
文字
100
AcDbText
 10
-82.0
 20
-650.0
 30
0.0
 40
3.5
  1
Φ273.0
 50
90.0
  7
CN
 72
1
 11
-82.0
 21
-650.0
 31
0.0
100
AcDbText
 73
2
  0
TEXT
  5
22C
330
17
100
AcDbEntity
  8
文字
100
AcDbText
 10
22.6
 20
-543.75
 30
0.0
 40
3.0
  1
取压孔 Φ8.0
  7
CN
 11
22.6
 21
-543.75
 31
0.0
100
AcDbText
  0
TEXT
  5
22D
330
17
100
AcDbEntity
  8
文字
100
AcDbText
 10
8.600000000000001
 20
-335.5
 30
0.0
 40
3.0
  1
装配后距孔板面 25.4±0.8
  7
CN
 72
1
 11
8.600000000000001
 21
-335.5
 31
0.0
100
AcDbText
 73
1
  0
TEXT
  5
22E
330
17
100
AcDbEntity
  8
文字
100
AcDbText
 10
16.0
 20
-307.5
 30
0.0
 40
3.8
  1
取压法兰 WN RF  HG/T20592 PN25 DN250  材料F304/F304L  2件（上/下游各1，镜像）
  7
CN
 72
1
 11
16.0
 21
-307.5
 31
0.0
100
AcDbText
 73
1
  0
TEXT
  5
22F
330
17
100
AcDbEntity
  8
文字
100
AcDbText
 10
16.0
 20
-319.5
 30
0.0
 40
3.2
  1
螺栓圆 Φ370  12×Φ30  螺栓M27  RF Φ335×2.0
  7
CN
 72
1
 11
16.0
 21
-319.5
 31
0.0
100
AcDbText
 73
1
  0
CIRCLE
  5
230
330
17
100
AcDbEntity
  8
轮廓
370
50
100
AcDbCircle
 10
320.0
 20
-650.0
 30
0.0
 40
212.5
  0
CIRCLE
  5
231
330
17
100
AcDbEntity
  8
细实线
370
18
100
AcDbCircle
 10
320.0
 20
-650.0
 30
0.0
 40
167.5
  0
CIRCLE
  5
232
330
17
100
AcDbEntity
  8
轮廓
370
50
100
AcDbCircle
 10
320.0
 20
-650.0
 30
0.0
 40
132.5
  0
CIRCLE
  5
233
330
17
100
AcDbEntity
  8
中心线
  6
CENTER
370
18
100
AcDbCircle
 10
320.0
 20
-650.0
 30
0.0
 40
185.0
  0
CIRCLE
  5
234
330
17
100
AcDbEntity
  8
细实线
370
18
100
AcDbCircle
 10
320.0
 20
-465.0
 30
0.0
 40
15.0
  0
CIRCLE
  5
235
330
17
100
AcDbEntity
  8
细实线
370
18
100
AcDbCircle
 10
227.50000000000006
 20
-489.7853002998788
 30
0.0
 40
15.0
  0
CIRCLE
  5
236
330
17
100
AcDbEntity
  8
细实线
370
18
100
AcDbCircle
 10
159.78530029987883
 20
-557.5
 30
0.0
 40
15.0
  0
CIRCLE
  5
237
330
17
100
AcDbEntity
  8
细实线
370
18
100
AcDbCircle
 10
135.0
 20
-650.0
 30
0.0
 40
15.0
  0
CIRCLE
  5
238
330
17
100
AcDbEntity
  8
细实线
370
18
100
AcDbCircle
 10
159.78530029987886
 20
-742.5
 30
0.0
 40
15.0
  0
CIRCLE
  5
239
330
17
100
AcDbEntity
  8
细实线
370
18
100
AcDbCircle
 10
227.49999999999991
 20
-810.2146997001212
 30
0.0
 40
15.0
  0
CIRCLE
  5
23A
330
17
100
AcDbEntity
  8
细实线
370
18
100
AcDbCircle
 10
319.99999999999994
 20
-835.0
 30
0.0
 40
15.0
  0
CIRCLE
  5
23B
330
17
100
AcDbEntity
  8
细实线
370
18
100
AcDbCircle
 10
412.5
 20
-810.2146997001212
 30
0.0
 40
15.0
  0
CIRCLE
  5
23C
330
17
100
AcDbEntity
  8
细实线
370
18
100
AcDbCircle
 10
480.21469970012106
 20
-742.5000000000001
 30
0.0
 40
15.0
  0
CIRCLE
  5
23D
330
17
100
AcDbEntity
  8
细实线
370
18
100
AcDbCircle
 10
505.0
 20
-650.0
 30
0.0
 40
15.0
  0
CIRCLE
  5
23E
330
17
100
AcDbEntity
  8
细实线
370
18
100
AcDbCircle
 10
480.2146997001212
 20
-557.5
 30
0.0
 40
15.0
  0
CIRCLE
  5
23F
330
17
100
AcDbEntity
  8
细实线
370
18
100
AcDbCircle
 10
412.49999999999994
 20
-489.7853002998788
 30
0.0
 40
15.0
  0
CIRCLE
  5
240
330
17
100
AcDbEntity
  8
轮廓
370
50
100
AcDbCircle
 10
320.0
 20
-477.5
 30
0.0
 40
4.0
  0
LINE
  5
241
330
17
100
AcDbEntity
  8
中心线
  6
CENTER
370
18
100
AcDbLine
 10
92.5
 20
-650.0
 30
0.0
 11
547.5
 21
-650.0
 31
0.0
  0
LINE
  5
242
330
17
100
AcDbEntity
  8
中心线
  6
CENTER
370
18
100
AcDbLine
 10
320.0
 20
-877.5
 30
0.0
 11
320.0
 21
-422.5
 31
0.0
  0
LINE
  5
243
330
17
100
AcDbEntity
  8
标注
370
18
100
AcDbLine
 10
135.0
 20
-887.5
 30
0.0
 11
505.0
 21
-887.5
 31
0.0
  0
LINE
  5
244
330
17
100
AcDbEntity
  8
标注
370
18
100
AcDbLine
 10
135.0
 20
-889.5
 30
0.0
 11
135.0
 21
-885.5
 31
0.0
  0
LINE
  5
245
330
17
100
AcDbEntity
  8
标注
370
18
100
AcDbLine
 10
505.0
 20
-889.5
 30
0.0
 11
505.0
 21
-885.5
 31
0.0
  0
LINE
  5
246
330
17
100
AcDbEntity
  8
标注
370
18
100
AcDbLine
 10
135.0
 20
-887.5
 30
0.0
 11
138.0
 21
-886.4
 31
0.0
  0
LINE
  5
247
330
17
100
AcDbEntity
  8
标注
370
18
100
AcDbLine
 10
135.0
 20
-887.5
 30
0.0
 11
138.0
 21
-888.6
 31
0.0
  0
LINE
  5
248
330
17
100
AcDbEntity
  8
标注
370
18
100
AcDbLine
 10
505.0
 20
-887.5
 30
0.0
 11
502.0
 21
-886.4
 31
0.0
  0
LINE
  5
249
330
17
100
AcDbEntity
  8
标注
370
18
100
AcDbLine
 10
505.0
 20
-887.5
 30
0.0
 11
502.0
 21
-888.6
 31
0.0
  0
TEXT
  5
24A
330
17
100
AcDbEntity
  8
文字
100
AcDbText
 10
320.0
 20
-885.0
 30
0.0
 40
3.5
  1
Φ370
  7
CN
 72
1
 11
320.0
 21
-885.0
 31
0.0
100
AcDbText
 73
1
  0
TEXT
  5
24B
330
17
100
AcDbEntity
  8
文字
100
AcDbText
 10
320.0
 20
-415.5
 30
0.0
 40
4.0
  1
密封面视
  7
CN
 72
1
 11
320.0
 21
-415.5
 31
0.0
100
AcDbText
 73
1
  0
TEXT
  5
24C
330
17
100
AcDbEntity
  8
文字
100
AcDbText
 10
320.0
 20
-904.5
 30
0.0
 40
3.0
  1
取压口朝上（或按配管）
  7
CN
 72
1
 11
320.0
 21
-904.5
 31
0.0
100
AcDbText
 73
3
  0
TEXT
  5
24D
330
17
100
AcDbEntity
  8
文字
100
AcDbText
 10
200.0
 20
-380.0
 30
0.0
 40
6.0
  1
C  取压法兰机加工图
  7
CN
 72
1
 11
200.0
 21
-380.0
 31
0.0
100
AcDbText
 73
1
  0
LINE
  5
24E
330
17
100
AcDbEntity
  8
轮廓
370
50
100
AcDbLine
 10
700.0
 20
-576.625
 30
0.0
 11
925.0
 21
-576.625
 31
0.0
  0
LINE
  5
24F
330
17
100
AcDbEntity
  8
轮廓
370
50
100
AcDbLine
 10
925.0
 20
-576.625
 30
0.0
 11
925.0
 21
-523.375
 31
0.0
  0
LINE
  5
250
330
17
100
AcDbEntity
  8
轮廓
370
50
100
AcDbLine
 10
925.0
 20
-523.375
 30
0.0
 11
700.0
 21
-523.375
 31
0.0
  0
LINE
  5
251
330
17
100
AcDbEntity
  8
轮廓
370
50
100
AcDbLine
 10
700.0
 20
-523.375
 30
0.0
 11
700.0
 21
-576.625
 31
0.0
  0
LINE
  5
252
330
17
100
AcDbEntity
  8
虚线
  6
DASHED
370
18
100
AcDbLine
 10
700.0
 20
-571.625
 30
0.0
 11
925.0
 21
-571.625
 31
0.0
  0
LINE
  5
253
330
17
100
AcDbEntity
  8
虚线
  6
DASHED
370
18
100
AcDbLine
 10
700.0
 20
-528.375
 30
0.0
 11
925.0
 21
-528.375
 31
0.0
  0
LINE
  5
254
330
17
100
AcDbEntity
  8
中心线
  6
CENTER
370
18
100
AcDbLine
 10
690.0
 20
-550.0
 30
0.0
 11
935.0
 21
-550.0
 31
0.0
  0
LINE
  5
255
330
17
100
AcDbEntity
  8
轮廓
370
50
100
AcDbLine
 10
700.0
 20
-576.625
 30
0.0
 11
706.0
 21
-571.625
 31
0.0
  0
LINE
  5
256
330
17
100
AcDbEntity
  8
轮廓
370
50
100
AcDbLine
 10
700.0
 20
-523.375
 30
0.0
 11
706.0
 21
-528.375
 31
0.0
  0
LINE
  5
257
330
17
100
AcDbEntity
  8
轮廓
370
50
100
AcDbLine
 10
925.0
 20
-576.625
 30
0.0
 11
919.0
 21
-571.625
 31
0.0
  0
LINE
  5
258
330
17
100
AcDbEntity
  8
轮廓
370
50
100
AcDbLine
 10
925.0
 20
-523.375
 30
0.0
 11
919.0
 21
-528.375
 31
0.0
  0
LINE
  5
259
330
17
100
AcDbEntity
  8
标注
370
18
100
AcDbLine
 10
700.0
 20
-594.625
 30
0.0
 11
925.0
 21
-594.625
 31
0.0
  0
LINE
  5
25A
330
17
100
AcDbEntity
  8
标注
370
18
100
AcDbLine
 10
700.0
 20
-596.625
 30
0.0
 11
700.0
 21
-592.625
 31
0.0
  0
LINE
  5
25B
330
17
100
AcDbEntity
  8
标注
370
18
100
AcDbLine
 10
925.0
 20
-596.625
 30
0.0
 11
925.0
 21
-592.625
 31
0.0
  0
LINE
  5
25C
330
17
100
AcDbEntity
  8
标注
370
18
100
AcDbLine
 10
700.0
 20
-594.625
 30
0.0
 11
703.0
 21
-593.525
 31
0.0
  0
LINE
  5
25D
330
17
100
AcDbEntity
  8
标注
370
18
100
AcDbLine
 10
700.0
 20
-594.625
 30
0.0
 11
703.0
 21
-595.725
 31
0.0
  0
LINE
  5
25E
330
17
100
AcDbEntity
  8
标注
370
18
100
AcDbLine
 10
925.0
 20
-594.625
 30
0.0
 11
922.0
 21
-593.525
 31
0.0
  0
LINE
  5
25F
330
17
100
AcDbEntity
  8
标注
370
18
100
AcDbLine
 10
925.0
 20
-594.625
 30
0.0
 11
922.0
 21
-595.725
 31
0.0
  0
TEXT
  5
260
330
17
100
AcDbEntity
  8
文字
100
AcDbText
 10
812.5
 20
-592.125
 30
0.0
 40
3.5
  1
L=90.0
  7
CN
 72
1
 11
812.5
 21
-592.125
 31
0.0
100
AcDbText
 73
1
  0
LINE
  5
261
330
17
100
AcDbEntity
  8
标注
370
18
100
AcDbLine
 10
941.0
 20
-576.625
 30
0.0
 11
941.0
 21
-523.375
 31
0.0
  0
LINE
  5
262
330
17
100
AcDbEntity
  8
标注
370
18
100
AcDbLine
 10
939.0
 20
-576.625
 30
0.0
 11
943.0
 21
-576.625
 31
0.0
  0
LINE
  5
263
330
17
100
AcDbEntity
  8
标注
370
18
100
AcDbLine
 10
939.0
 20
-523.375
 30
0.0
 11
943.0
 21
-523.375
 31
0.0
  0
LINE
  5
264
330
17
100
AcDbEntity
  8
标注
370
18
100
AcDbLine
 10
941.0
 20
-576.625
 30
0.0
 11
939.9
 21
-573.625
 31
0.0
  0
LINE
  5
265
330
17
100
AcDbEntity
  8
标注
370
18
100
AcDbLine
 10
941.0
 20
-576.625
 30
0.0
 11
942.1
 21
-573.625
 31
0.0
  0
LINE
  5
266
330
17
100
AcDbEntity
  8
标注
370
18
100
AcDbLine
 10
941.0
 20
-523.375
 30
0.0
 11
939.9
 21
-526.375
 31
0.0
  0
LINE
  5
267
330
17
100
AcDbEntity
  8
标注
370
18
100
AcDbLine
 10
941.0
 20
-523.375
 30
0.0
 11
942.1
 21
-526.375
 31
0.0
  0
TEXT
  5
268
330
17
100
AcDbEntity
  8
文字
100
AcDbText
 10
947.0
 20
-550.0
 30
0.0
 40
3.5
  1
Φ21.3×2.0
 50
90.0
  7
CN
 72
1
 11
947.0
 21
-550.0
 31
0.0
100
AcDbText
 73
2
  0
TEXT
  5
269
330
17
100
AcDbEntity
  8
文字
100
AcDbText
 10
812.5
 20
-501.375
 30
0.0
 40
3.5
  1
取压管 DN15(1/2") BW  材料F304/F304L  件数 2  （一端焊法兰，一端接仪表阀/管件）
  7
CN
 72
1
 11
812.5
 21
-501.375
 31
0.0
100
AcDbText
 73
1
  0
TEXT
  5
26A
330
17
100
AcDbEntity
  8
文字
100
AcDbText
 10
812.5
 20
-611.625
 30
0.0
 40
3.0
  1
坡口按 GB/T 985.1；深冷焊后酸洗钝化
  7
CN
 72
1
 11
812.5
 21
-611.625
 31
0.0
100
AcDbText
 73
3
  0
TEXT
  5
26B
330
17
100
AcDbEntity
  8
文字
100
AcDbText
 10
820.0
 20
-470.0
 30
0.0
 40
6.0
  1
D  取压管机加工图
  7
CN
 72
1
 11
820.0
 21
-470.0
 31
0.0
100
AcDbText
 73
1
  0
TEXT
  5
26C
330
17
100
AcDbEntity
  8
文字
100
AcDbText
 10
902.0
 20
-642.0
 30
0.0
 40
4.5
  1
明细表
  7
CN
 72
1
 11
902.0
 21
-642.0
 31
0.0
100
AcDbText
 73
1
  0
LINE
  5
26D
330
17
100
AcDbEntity
  8
表格
370
18
100
AcDbLine
 10
700.0
 20
-664.0
 30
0.0
 11
728.0
 21
-664.0
 31
0.0
  0
LINE
  5
26E
330
17
100
AcDbEntity
  8
表格
370
18
100
AcDbLine
 10
728.0
 20
-664.0
 30
0.0
 11
728.0
 21
-650.0
 31
0.0
  0
LINE
  5
26F
330
17
100
AcDbEntity
  8
表格
370
18
100
AcDbLine
 10
728.0
 20
-650.0
 30
0.0
 11
700.0
 21
-650.0
 31
0.0
  0
LINE
  5
270
330
17
100
AcDbEntity
  8
表格
370
18
100
AcDbLine
 10
700.0
 20
-650.0
 30
0.0
 11
700.0
 21
-664.0
 31
0.0
  0
TEXT
  5
271
330
17
100
AcDbEntity
  8
文字
100
AcDbText
 10
702.0
 20
-657.0
 30
0.0
 40
3.0
  1
序号
  7
CN
 11
702.0
 21
-657.0
 31
0.0
100
AcDbText
 73
2
  0
LINE
  5
272
330
17
100
AcDbEntity
  8
表格
370
18
100
AcDbLine
 10
728.0
 20
-664.0
 30
0.0
 11
798.0
 21
-664.0
 31
0.0
  0
LINE
  5
273
330
17
100
AcDbEntity
  8
表格
370
18
100
AcDbLine
 10
798.0
 20
-664.0
 30
0.0
 11
798.0
 21
-650.0
 31
0.0
  0
LINE
  5
274
330
17
100
AcDbEntity
  8
表格
370
18
100
AcDbLine
 10
798.0
 20
-650.0
 30
0.0
 11
728.0
 21
-650.0
 31
0.0
  0
LINE
  5
275
330
17
100
AcDbEntity
  8
表格
370
18
100
AcDbLine
 10
728.0
 20
-650.0
 30
0.0
 11
728.0
 21
-664.0
 31
0.0
  0
TEXT
  5
276
330
17
100
AcDbEntity
  8
文字
100
AcDbText
 10
730.0
 20
-657.0
 30
0.0
 40
3.0
  1
名称
  7
CN
 11
730.0
 21
-657.0
 31
0.0
100
AcDbText
 73
2
  0
LINE
  5
277
330
17
100
AcDbEntity
  8
表格
370
18
100
AcDbLine
 10
798.0
 20
-664.0
 30
0.0
 11
998.0
 21
-664.0
 31
0.0
  0
LINE
  5
278
330
17
100
AcDbEntity
  8
表格
370
18
100
AcDbLine
 10
998.0
 20
-664.0
 30
0.0
 11
998.0
 21
-650.0
 31
0.0
  0
LINE
  5
279
330
17
100
AcDbEntity
  8
表格
370
18
100
AcDbLine
 10
998.0
 20
-650.0
 30
0.0
 11
798.0
 21
-650.0
 31
0.0
  0
LINE
  5
27A
330
17
100
AcDbEntity
  8
表格
370
18
100
AcDbLine
 10
798.0
 20
-650.0
 30
0.0
 11
798.0
 21
-664.0
 31
0.0
  0
TEXT
  5
27B
330
17
100
AcDbEntity
  8
文字
100
AcDbText
 10
800.0
 20
-657.0
 30
0.0
 40
3.0
  1
规格/材料
  7
CN
 11
800.0
 21
-657.0
 31
0.0
100
AcDbText
 73
2
  0
LINE
  5
27C
330
17
100
AcDbEntity
  8
表格
370
18
100
AcDbLine
 10
998.0
 20
-664.0
 30
0.0
 11
1034.0
 21
-664.0
 31
0.0
  0
LINE
  5
27D
330
17
100
AcDbEntity
  8
表格
370
18
100
AcDbLine
 10
1034.0
 20
-664.0
 30
0.0
 11
1034.0
 21
-650.0
 31
0.0
  0
LINE
  5
27E
330
17
100
AcDbEntity
  8
表格
370
18
100
AcDbLine
 10
1034.0
 20
-650.0
 30
0.0
 11
998.0
 21
-650.0
 31
0.0
  0
LINE
  5
27F
330
17
100
AcDbEntity
  8
表格
370
18
100
AcDbLine
 10
998.0
 20
-650.0
 30
0.0
 11
998.0
 21
-664.0
 31
0.0
  0
TEXT
  5
280
330
17
100
AcDbEntity
  8
文字
100
AcDbText
 10
1000.0
 20
-657.0
 30
0.0
 40
3.0
  1
数量
  7
CN
 11
1000.0
 21
-657.0
 31
0.0
100
AcDbText
 73
2
  0
LINE
  5
281
330
17
100
AcDbEntity
  8
表格
370
18
100
AcDbLine
 10
1034.0
 20
-664.0
 30
0.0
 11
1104.0
 21
-664.0
 31
0.0
  0
LINE
  5
282
330
17
100
AcDbEntity
  8
表格
370
18
100
AcDbLine
 10
1104.0
 20
-664.0
 30
0.0
 11
1104.0
 21
-650.0
 31
0.0
  0
LINE
  5
283
330
17
100
AcDbEntity
  8
表格
370
18
100
AcDbLine
 10
1104.0
 20
-650.0
 30
0.0
 11
1034.0
 21
-650.0
 31
0.0
  0
LINE
  5
284
330
17
100
AcDbEntity
  8
表格
370
18
100
AcDbLine
 10
1034.0
 20
-650.0
 30
0.0
 11
1034.0
 21
-664.0
 31
0.0
  0
TEXT
  5
285
330
17
100
AcDbEntity
  8
文字
100
AcDbText
 10
1036.0
 20
-657.0
 30
0.0
 40
3.0
  1
备注
  7
CN
 11
1036.0
 21
-657.0
 31
0.0
100
AcDbText
 73
2
  0
LINE
  5
286
330
17
100
AcDbEntity
  8
表格
370
18
100
AcDbLine
 10
700.0
 20
-678.0
 30
0.0
 11
728.0
 21
-678.0
 31
0.0
  0
LINE
  5
287
330
17
100
AcDbEntity
  8
表格
370
18
100
AcDbLine
 10
728.0
 20
-678.0
 30
0.0
 11
728.0
 21
-664.0
 31
0.0
  0
LINE
  5
288
330
17
100
AcDbEntity
  8
表格
370
18
100
AcDbLine
 10
728.0
 20
-664.0
 30
0.0
 11
700.0
 21
-664.0
 31
0.0
  0
LINE
  5
289
330
17
100
AcDbEntity
  8
表格
370
18
100
AcDbLine
 10
700.0
 20
-664.0
 30
0.0
 11
700.0
 21
-678.0
 31
0.0
  0
TEXT
  5
28A
330
17
100
AcDbEntity
  8
文字
100
AcDbText
 10
702.0
 20
-671.0
 30
0.0
 40
2.8
  1
1
  7
CN
 11
702.0
 21
-671.0
 31
0.0
100
AcDbText
 73
2
  0
LINE
  5
28B
330
17
100
AcDbEntity
  8
表格
370
18
100
AcDbLine
 10
728.0
 20
-678.0
 30
0.0
 11
798.0
 21
-678.0
 31
0.0
  0
LINE
  5
28C
330
17
100
AcDbEntity
  8
表格
370
18
100
AcDbLine
 10
798.0
 20
-678.0
 30
0.0
 11
798.0
 21
-664.0
 31
0.0
  0
LINE
  5
28D
330
17
100
AcDbEntity
  8
表格
370
18
100
AcDbLine
 10
798.0
 20
-664.0
 30
0.0
 11
728.0
 21
-664.0
 31
0.0
  0
LINE
  5
28E
330
17
100
AcDbEntity
  8
表格
370
18
100
AcDbLine
 10
728.0
 20
-664.0
 30
0.0
 11
728.0
 21
-678.0
 31
0.0
  0
TEXT
  5
28F
330
17
100
AcDbEntity
  8
文字
100
AcDbText
 10
730.0
 20
-671.0
 30
0.0
 40
2.8
  1
上游取压法兰
  7
CN
 11
730.0
 21
-671.0
 31
0.0
100
AcDbText
 73
2
  0
LINE
  5
290
330
17
100
AcDbEntity
  8
表格
370
18
100
AcDbLine
 10
798.0
 20
-678.0
 30
0.0
 11
998.0
 21
-678.0
 31
0.0
  0
LINE
  5
291
330
17
100
AcDbEntity
  8
表格
370
18
100
AcDbLine
 10
998.0
 20
-678.0
 30
0.0
 11
998.0
 21
-664.0
 31
0.0
  0
LINE
  5
292
330
17
100
AcDbEntity
  8
表格
370
18
100
AcDbLine
 10
998.0
 20
-664.0
 30
0.0
 11
798.0
 21
-664.0
 31
0.0
  0
LINE
  5
293
330
17
100
AcDbEntity
  8
表格
370
18
100
AcDbLine
 10
798.0
 20
-664.0
 30
0.0
 11
798.0
 21
-678.0
 31
0.0
  0
TEXT
  5
294
330
17
100
AcDbEntity
  8
文字
100
AcDbText
 10
800.0
 20
-671.0
 30
0.0
 40
2.8
  1
WN RF DN250 PN25 F304/F304L
  7
CN
 11
800.0
 21
-671.0
 31
0.0
100
AcDbText
 73
2
  0
LINE
  5
295
330
17
100
AcDbEntity
  8
表格
370
18
100
AcDbLine
 10
998.0
 20
-678.0
 30
0.0
 11
1034.0
 21
-678.0
 31
0.0
  0
LINE
  5
296
330
17
100
AcDbEntity
  8
表格
370
18
100
AcDbLine
 10
1034.0
 20
-678.0
 30
0.0
 11
1034.0
 21
-664.0
 31
0.0
  0
LINE
  5
297
330
17
100
AcDbEntity
  8
表格
370
18
100
AcDbLine
 10
1034.0
 20
-664.0
 30
0.0
 11
998.0
 21
-664.0
 31
0.0
  0
LINE
  5
298
330
17
100
AcDbEntity
  8
表格
370
18
100
AcDbLine
 10
998.0
 20
-664.0
 30
0.0
 11
998.0
 21
-678.0
 31
0.0
  0
TEXT
  5
299
330
17
100
AcDbEntity
  8
文字
100
AcDbText
 10
1000.0
 20
-671.0
 30
0.0
 40
2.8
  1
1
  7
CN
 11
1000.0
 21
-671.0
 31
0.0
100
AcDbText
 73
2
  0
LINE
  5
29A
330
17
100
AcDbEntity
  8
表格
370
18
100
AcDbLine
 10
1034.0
 20
-678.0
 30
0.0
 11
1104.0
 21
-678.0
 31
0.0
  0
LINE
  5
29B
330
17
100
AcDbEntity
  8
表格
370
18
100
AcDbLine
 10
1104.0
 20
-678.0
 30
0.0
 11
1104.0
 21
-664.0
 31
0.0
  0
LINE
  5
29C
330
17
100
AcDbEntity
  8
表格
370
18
100
AcDbLine
 10
1104.0
 20
-664.0
 30
0.0
 11
1034.0
 21
-664.0
 31
0.0
  0
LINE
  5
29D
330
17
100
AcDbEntity
  8
表格
370
18
100
AcDbLine
 10
1034.0
 20
-664.0
 30
0.0
 11
1034.0
 21
-678.0
 31
0.0
  0
TEXT
  5
29E
330
17
100
AcDbEntity
  8
文字
100
AcDbText
 10
1036.0
 20
-671.0
 30
0.0
 40
2.8
  1
HG/T20592
  7
CN
 11
1036.0
 21
-671.0
 31
0.0
100
AcDbText
 73
2
  0
LINE
  5
29F
330
17
100
AcDbEntity
  8
表格
370
18
100
AcDbLine
 10
700.0
 20
-692.0
 30
0.0
 11
728.0
 21
-692.0
 31
0.0
  0
LINE
  5
2A0
330
17
100
AcDbEntity
  8
表格
370
18
100
AcDbLine
 10
728.0
 20
-692.0
 30
0.0
 11
728.0
 21
-678.0
 31
0.0
  0
LINE
  5
2A1
330
17
100
AcDbEntity
  8
表格
370
18
100
AcDbLine
 10
728.0
 20
-678.0
 30
0.0
 11
700.0
 21
-678.0
 31
0.0
  0
LINE
  5
2A2
330
17
100
AcDbEntity
  8
表格
370
18
100
AcDbLine
 10
700.0
 20
-678.0
 30
0.0
 11
700.0
 21
-692.0
 31
0.0
  0
TEXT
  5
2A3
330
17
100
AcDbEntity
  8
文字
100
AcDbText
 10
702.0
 20
-685.0
 30
0.0
 40
2.8
  1
2
  7
CN
 11
702.0
 21
-685.0
 31
0.0
100
AcDbText
 73
2
  0
LINE
  5
2A4
330
17
100
AcDbEntity
  8
表格
370
18
100
AcDbLine
 10
728.0
 20
-692.0
 30
0.0
 11
798.0
 21
-692.0
 31
0.0
  0
LINE
  5
2A5
330
17
100
AcDbEntity
  8
表格
370
18
100
AcDbLine
 10
798.0
 20
-692.0
 30
0.0
 11
798.0
 21
-678.0
 31
0.0
  0
LINE
  5
2A6
330
17
100
AcDbEntity
  8
表格
370
18
100
AcDbLine
 10
798.0
 20
-678.0
 30
0.0
 11
728.0
 21
-678.0
 31
0.0
  0
LINE
  5
2A7
330
17
100
AcDbEntity
  8
表格
370
18
100
AcDbLine
 10
728.0
 20
-678.0
 30
0.0
 11
728.0
 21
-692.0
 31
0.0
  0
TEXT
  5
2A8
330
17
100
AcDbEntity
  8
文字
100
AcDbText
 10
730.0
 20
-685.0
 30
0.0
 40
2.8
  1
下游取压法兰
  7
CN
 11
730.0
 21
-685.0
 31
0.0
100
AcDbText
 73
2
  0
LINE
  5
2A9
330
17
100
AcDbEntity
  8
表格
370
18
100
AcDbLine
 10
798.0
 20
-692.0
 30
0.0
 11
998.0
 21
-692.0
 31
0.0
  0
LINE
  5
2AA
330
17
100
AcDbEntity
  8
表格
370
18
100
AcDbLine
 10
998.0
 20
-692.0
 30
0.0
 11
998.0
 21
-678.0
 31
0.0
  0
LINE
  5
2AB
330
17
100
AcDbEntity
  8
表格
370
18
100
AcDbLine
 10
998.0
 20
-678.0
 30
0.0
 11
798.0
 21
-678.0
 31
0.0
  0
LINE
  5
2AC
330
17
100
AcDbEntity
  8
表格
370
18
100
AcDbLine
 10
798.0
 20
-678.0
 30
0.0
 11
798.0
 21
-692.0
 31
0.0
  0
TEXT
  5
2AD
330
17
100
AcDbEntity
  8
文字
100
AcDbText
 10
800.0
 20
-685.0
 30
0.0
 40
2.8
  1
WN RF DN250 PN25 F304/F304L
  7
CN
 11
800.0
 21
-685.0
 31
0.0
100
AcDbText
 73
2
  0
LINE
  5
2AE
330
17
100
AcDbEntity
  8
表格
370
18
100
AcDbLine
 10
998.0
 20
-692.0
 30
0.0
 11
1034.0
 21
-692.0
 31
0.0
  0
LINE
  5
2AF
330
17
100
AcDbEntity
  8
表格
370
18
100
AcDbLine
 10
1034.0
 20
-692.0
 30
0.0
 11
1034.0
 21
-678.0
 31
0.0
  0
LINE
  5
2B0
330
17
100
AcDbEntity
  8
表格
370
18
100
AcDbLine
 10
1034.0
 20
-678.0
 30
0.0
 11
998.0
 21
-678.0
 31
0.0
  0
LINE
  5
2B1
330
17
100
AcDbEntity
  8
表格
370
18
100
AcDbLine
 10
998.0
 20
-678.0
 30
0.0
 11
998.0
 21
-692.0
 31
0.0
  0
TEXT
  5
2B2
330
17
100
AcDbEntity
  8
文字
100
AcDbText
 10
1000.0
 20
-685.0
 30
0.0
 40
2.8
  1
1
  7
CN
 11
1000.0
 21
-685.0
 31
0.0
100
AcDbText
 73
2
  0
LINE
  5
2B3
330
17
100
AcDbEntity
  8
表格
370
18
100
AcDbLine
 10
1034.0
 20
-692.0
 30
0.0
 11
1104.0
 21
-692.0
 31
0.0
  0
LINE
  5
2B4
330
17
100
AcDbEntity
  8
表格
370
18
100
AcDbLine
 10
1104.0
 20
-692.0
 30
0.0
 11
1104.0
 21
-678.0
 31
0.0
  0
LINE
  5
2B5
330
17
100
AcDbEntity
  8
表格
370
18
100
AcDbLine
 10
1104.0
 20
-678.0
 30
0.0
 11
1034.0
 21
-678.0
 31
0.0
  0
LINE
  5
2B6
330
17
100
AcDbEntity
  8
表格
370
18
100
AcDbLine
 10
1034.0
 20
-678.0
 30
0.0
 11
1034.0
 21
-692.0
 31
0.0
  0
TEXT
  5
2B7
330
17
100
AcDbEntity
  8
文字
100
AcDbText
 10
1036.0
 20
-685.0
 30
0.0
 40
2.8
  1
与1镜像，下游
  7
CN
 11
1036.0
 21
-685.0
 31
0.0
100
AcDbText
 73
2
  0
LINE
  5
2B8
330
17
100
AcDbEntity
  8
表格
370
18
100
AcDbLine
 10
700.0
 20
-706.0
 30
0.0
 11
728.0
 21
-706.0
 31
0.0
  0
LINE
  5
2B9
330
17
100
AcDbEntity
  8
表格
370
18
100
AcDbLine
 10
728.0
 20
-706.0
 30
0.0
 11
728.0
 21
-692.0
 31
0.0
  0
LINE
  5
2BA
330
17
100
AcDbEntity
  8
表格
370
18
100
AcDbLine
 10
728.0
 20
-692.0
 30
0.0
 11
700.0
 21
-692.0
 31
0.0
  0
LINE
  5
2BB
330
17
100
AcDbEntity
  8
表格
370
18
100
AcDbLine
 10
700.0
 20
-692.0
 30
0.0
 11
700.0
 21
-706.0
 31
0.0
  0
TEXT
  5
2BC
330
17
100
AcDbEntity
  8
文字
100
AcDbText
 10
702.0
 20
-699.0
 30
0.0
 40
2.8
  1
3
  7
CN
 11
702.0
 21
-699.0
 31
0.0
100
AcDbText
 73
2
  0
LINE
  5
2BD
330
17
100
AcDbEntity
  8
表格
370
18
100
AcDbLine
 10
728.0
 20
-706.0
 30
0.0
 11
798.0
 21
-706.0
 31
0.0
  0
LINE
  5
2BE
330
17
100
AcDbEntity
  8
表格
370
18
100
AcDbLine
 10
798.0
 20
-706.0
 30
0.0
 11
798.0
 21
-692.0
 31
0.0
  0
LINE
  5
2BF
330
17
100
AcDbEntity
  8
表格
370
18
100
AcDbLine
 10
798.0
 20
-692.0
 30
0.0
 11
728.0
 21
-692.0
 31
0.0
  0
LINE
  5
2C0
330
17
100
AcDbEntity
  8
表格
370
18
100
AcDbLine
 10
728.0
 20
-692.0
 30
0.0
 11
728.0
 21
-706.0
 31
0.0
  0
TEXT
  5
2C1
330
17
100
AcDbEntity
  8
文字
100
AcDbText
 10
730.0
 20
-699.0
 30
0.0
 40
2.8
  1
孔板片
  7
CN
 11
730.0
 21
-699.0
 31
0.0
100
AcDbText
 73
2
  0
LINE
  5
2C2
330
17
100
AcDbEntity
  8
表格
370
18
100
AcDbLine
 10
798.0
 20
-706.0
 30
0.0
 11
998.0
 21
-706.0
 31
0.0
  0
LINE
  5
2C3
330
17
100
AcDbEntity
  8
表格
370
18
100
AcDbLine
 10
998.0
 20
-706.0
 30
0.0
 11
998.0
 21
-692.0
 31
0.0
  0
LINE
  5
2C4
330
17
100
AcDbEntity
  8
表格
370
18
100
AcDbLine
 10
998.0
 20
-692.0
 30
0.0
 11
798.0
 21
-692.0
 31
0.0
  0
LINE
  5
2C5
330
17
100
AcDbEntity
  8
表格
370
18
100
AcDbLine
 10
798.0
 20
-692.0
 30
0.0
 11
798.0
 21
-706.0
 31
0.0
  0
TEXT
  5
2C6
330
17
100
AcDbEntity
  8
文字
100
AcDbText
 10
800.0
 20
-699.0
 30
0.0
 40
2.8
  1
Φ320.0×8.0 孔Φ136.18 F304/F304L
  7
CN
 11
800.0
 21
-699.0
 31
0.0
100
AcDbText
 73
2
  0
LINE
  5
2C7
330
17
100
AcDbEntity
  8
表格
370
18
100
AcDbLine
 10
998.0
 20
-706.0
 30
0.0
 11
1034.0
 21
-706.0
 31
0.0
  0
LINE
  5
2C8
330
17
100
AcDbEntity
  8
表格
370
18
100
AcDbLine
 10
1034.0
 20
-706.0
 30
0.0
 11
1034.0
 21
-692.0
 31
0.0
  0
LINE
  5
2C9
330
17
100
AcDbEntity
  8
表格
370
18
100
AcDbLine
 10
1034.0
 20
-692.0
 30
0.0
 11
998.0
 21
-692.0
 31
0.0
  0
LINE
  5
2CA
330
17
100
AcDbEntity
  8
表格
370
18
100
AcDbLine
 10
998.0
 20
-692.0
 30
0.0
 11
998.0
 21
-706.0
 31
0.0
  0
TEXT
  5
2CB
330
17
100
AcDbEntity
  8
文字
100
AcDbText
 10
1000.0
 20
-699.0
 30
0.0
 40
2.8
  1
1
  7
CN
 11
1000.0
 21
-699.0
 31
0.0
100
AcDbText
 73
2
  0
LINE
  5
2CC
330
17
100
AcDbEntity
  8
表格
370
18
100
AcDbLine
 10
1034.0
 20
-706.0
 30
0.0
 11
1104.0
 21
-706.0
 31
0.0
  0
LINE
  5
2CD
330
17
100
AcDbEntity
  8
表格
370
18
100
AcDbLine
 10
1104.0
 20
-706.0
 30
0.0
 11
1104.0
 21
-692.0
 31
0.0
  0
LINE
  5
2CE
330
17
100
AcDbEntity
  8
表格
370
18
100
AcDbLine
 10
1104.0
 20
-692.0
 30
0.0
 11
1034.0
 21
-692.0
 31
0.0
  0
LINE
  5
2CF
330
17
100
AcDbEntity
  8
表格
370
18
100
AcDbLine
 10
1034.0
 20
-692.0
 30
0.0
 11
1034.0
 21
-706.0
 31
0.0
  0
TEXT
  5
2D0
330
17
100
AcDbEntity
  8
文字
100
AcDbText
 10
1036.0
 20
-699.0
 30
0.0
 40
2.8
  1
FE-1002
  7
CN
 11
1036.0
 21
-699.0
 31
0.0
100
AcDbText
 73
2
  0
LINE
  5
2D1
330
17
100
AcDbEntity
  8
表格
370
18
100
AcDbLine
 10
700.0
 20
-720.0
 30
0.0
 11
728.0
 21
-720.0
 31
0.0
  0
LINE
  5
2D2
330
17
100
AcDbEntity
  8
表格
370
18
100
AcDbLine
 10
728.0
 20
-720.0
 30
0.0
 11
728.0
 21
-706.0
 31
0.0
  0
LINE
  5
2D3
330
17
100
AcDbEntity
  8
表格
370
18
100
AcDbLine
 10
728.0
 20
-706.0
 30
0.0
 11
700.0
 21
-706.0
 31
0.0
  0
LINE
  5
2D4
330
17
100
AcDbEntity
  8
表格
370
18
100
AcDbLine
 10
700.0
 20
-706.0
 30
0.0
 11
700.0
 21
-720.0
 31
0.0
  0
TEXT
  5
2D5
330
17
100
AcDbEntity
  8
文字
100
AcDbText
 10
702.0
 20
-713.0
 30
0.0
 40
2.8
  1
4
  7
CN
 11
702.0
 21
-713.0
 31
0.0
100
AcDbText
 73
2
  0
LINE
  5
2D6
330
17
100
AcDbEntity
  8
表格
370
18
100
AcDbLine
 10
728.0
 20
-720.0
 30
0.0
 11
798.0
 21
-720.0
 31
0.0
  0
LINE
  5
2D7
330
17
100
AcDbEntity
  8
表格
370
18
100
AcDbLine
 10
798.0
 20
-720.0
 30
0.0
 11
798.0
 21
-706.0
 31
0.0
  0
LINE
  5
2D8
330
17
100
AcDbEntity
  8
表格
370
18
100
AcDbLine
 10
798.0
 20
-706.0
 30
0.0
 11
728.0
 21
-706.0
 31
0.0
  0
LINE
  5
2D9
330
17
100
AcDbEntity
  8
表格
370
18
100
AcDbLine
 10
728.0
 20
-706.0
 30
0.0
 11
728.0
 21
-720.0
 31
0.0
  0
TEXT
  5
2DA
330
17
100
AcDbEntity
  8
文字
100
AcDbText
 10
730.0
 20
-713.0
 30
0.0
 40
2.8
  1
上游取压管
  7
CN
 11
730.0
 21
-713.0
 31
0.0
100
AcDbText
 73
2
  0
LINE
  5
2DB
330
17
100
AcDbEntity
  8
表格
370
18
100
AcDbLine
 10
798.0
 20
-720.0
 30
0.0
 11
998.0
 21
-720.0
 31
0.0
  0
LINE
  5
2DC
330
17
100
AcDbEntity
  8
表格
370
18
100
AcDbLine
 10
998.0
 20
-720.0
 30
0.0
 11
998.0
 21
-706.0
 31
0.0
  0
LINE
  5
2DD
330
17
100
AcDbEntity
  8
表格
370
18
100
AcDbLine
 10
998.0
 20
-706.0
 30
0.0
 11
798.0
 21
-706.0
 31
0.0
  0
LINE
  5
2DE
330
17
100
AcDbEntity
  8
表格
370
18
100
AcDbLine
 10
798.0
 20
-706.0
 30
0.0
 11
798.0
 21
-720.0
 31
0.0
  0
TEXT
  5
2DF
330
17
100
AcDbEntity
  8
文字
100
AcDbText
 10
800.0
 20
-713.0
 30
0.0
 40
2.8
  1
DN15(1/2") Φ21.3×2.0 F304/F304L
  7
CN
 11
800.0
 21
-713.0
 31
0.0
100
AcDbText
 73
2
  0
LINE
  5
2E0
330
17
100
AcDbEntity
  8
表格
370
18
100
AcDbLine
 10
998.0
 20
-720.0
 30
0.0
 11
1034.0
 21
-720.0
 31
0.0
  0
LINE
  5
2E1
330
17
100
AcDbEntity
  8
表格
370
18
100
AcDbLine
 10
1034.0
 20
-720.0
 30
0.0
 11
1034.0
 21
-706.0
 31
0.0
  0
LINE
  5
2E2
330
17
100
AcDbEntity
  8
表格
370
18
100
AcDbLine
 10
1034.0
 20
-706.0
 30
0.0
 11
998.0
 21
-706.0
 31
0.0
  0
LINE
  5
2E3
330
17
100
AcDbEntity
  8
表格
370
18
100
AcDbLine
 10
998.0
 20
-706.0
 30
0.0
 11
998.0
 21
-720.0
 31
0.0
  0
TEXT
  5
2E4
330
17
100
AcDbEntity
  8
文字
100
AcDbText
 10
1000.0
 20
-713.0
 30
0.0
 40
2.8
  1
1
  7
CN
 11
1000.0
 21
-713.0
 31
0.0
100
AcDbText
 73
2
  0
LINE
  5
2E5
330
17
100
AcDbEntity
  8
表格
370
18
100
AcDbLine
 10
1034.0
 20
-720.0
 30
0.0
 11
1104.0
 21
-720.0
 31
0.0
  0
LINE
  5
2E6
330
17
100
AcDbEntity
  8
表格
370
18
100
AcDbLine
 10
1104.0
 20
-720.0
 30
0.0
 11
1104.0
 21
-706.0
 31
0.0
  0
LINE
  5
2E7
330
17
100
AcDbEntity
  8
表格
370
18
100
AcDbLine
 10
1104.0
 20
-706.0
 30
0.0
 11
1034.0
 21
-706.0
 31
0.0
  0
LINE
  5
2E8
330
17
100
AcDbEntity
  8
表格
370
18
100
AcDbLine
 10
1034.0
 20
-706.0
 30
0.0
 11
1034.0
 21
-720.0
 31
0.0
  0
TEXT
  5
2E9
330
17
100
AcDbEntity
  8
文字
100
AcDbText
 10
1036.0
 20
-713.0
 30
0.0
 40
2.8
  1
BW
  7
CN
 11
1036.0
 21
-713.0
 31
0.0
100
AcDbText
 73
2
  0
LINE
  5
2EA
330
17
100
AcDbEntity
  8
表格
370
18
100
AcDbLine
 10
700.0
 20
-734.0
 30
0.0
 11
728.0
 21
-734.0
 31
0.0
  0
LINE
  5
2EB
330
17
100
AcDbEntity
  8
表格
370
18
100
AcDbLine
 10
728.0
 20
-734.0
 30
0.0
 11
728.0
 21
-720.0
 31
0.0
  0
LINE
  5
2EC
330
17
100
AcDbEntity
  8
表格
370
18
100
AcDbLine
 10
728.0
 20
-720.0
 30
0.0
 11
700.0
 21
-720.0
 31
0.0
  0
LINE
  5
2ED
330
17
100
AcDbEntity
  8
表格
370
18
100
AcDbLine
 10
700.0
 20
-720.0
 30
0.0
 11
700.0
 21
-734.0
 31
0.0
  0
TEXT
  5
2EE
330
17
100
AcDbEntity
  8
文字
100
AcDbText
 10
702.0
 20
-727.0
 30
0.0
 40
2.8
  1
5
  7
CN
 11
702.0
 21
-727.0
 31
0.0
100
AcDbText
 73
2
  0
LINE
  5
2EF
330
17
100
AcDbEntity
  8
表格
370
18
100
AcDbLine
 10
728.0
 20
-734.0
 30
0.0
 11
798.0
 21
-734.0
 31
0.0
  0
LINE
  5
2F0
330
17
100
AcDbEntity
  8
表格
370
18
100
AcDbLine
 10
798.0
 20
-734.0
 30
0.0
 11
798.0
 21
-720.0
 31
0.0
  0
LINE
  5
2F1
330
17
100
AcDbEntity
  8
表格
370
18
100
AcDbLine
 10
798.0
 20
-720.0
 30
0.0
 11
728.0
 21
-720.0
 31
0.0
  0
LINE
  5
2F2
330
17
100
AcDbEntity
  8
表格
370
18
100
AcDbLine
 10
728.0
 20
-720.0
 30
0.0
 11
728.0
 21
-734.0
 31
0.0
  0
TEXT
  5
2F3
330
17
100
AcDbEntity
  8
文字
100
AcDbText
 10
730.0
 20
-727.0
 30
0.0
 40
2.8
  1
下游取压管
  7
CN
 11
730.0
 21
-727.0
 31
0.0
100
AcDbText
 73
2
  0
LINE
  5
2F4
330
17
100
AcDbEntity
  8
表格
370
18
100
AcDbLine
 10
798.0
 20
-734.0
 30
0.0
 11
998.0
 21
-734.0
 31
0.0
  0
LINE
  5
2F5
330
17
100
AcDbEntity
  8
表格
370
18
100
AcDbLine
 10
998.0
 20
-734.0
 30
0.0
 11
998.0
 21
-720.0
 31
0.0
  0
LINE
  5
2F6
330
17
100
AcDbEntity
  8
表格
370
18
100
AcDbLine
 10
998.0
 20
-720.0
 30
0.0
 11
798.0
 21
-720.0
 31
0.0
  0
LINE
  5
2F7
330
17
100
AcDbEntity
  8
表格
370
18
100
AcDbLine
 10
798.0
 20
-720.0
 30
0.0
 11
798.0
 21
-734.0
 31
0.0
  0
TEXT
  5
2F8
330
17
100
AcDbEntity
  8
文字
100
AcDbText
 10
800.0
 20
-727.0
 30
0.0
 40
2.8
  1
DN15(1/2") Φ21.3×2.0 F304/F304L
  7
CN
 11
800.0
 21
-727.0
 31
0.0
100
AcDbText
 73
2
  0
LINE
  5
2F9
330
17
100
AcDbEntity
  8
表格
370
18
100
AcDbLine
 10
998.0
 20
-734.0
 30
0.0
 11
1034.0
 21
-734.0
 31
0.0
  0
LINE
  5
2FA
330
17
100
AcDbEntity
  8
表格
370
18
100
AcDbLine
 10
1034.0
 20
-734.0
 30
0.0
 11
1034.0
 21
-720.0
 31
0.0
  0
LINE
  5
2FB
330
17
100
AcDbEntity
  8
表格
370
18
100
AcDbLine
 10
1034.0
 20
-720.0
 30
0.0
 11
998.0
 21
-720.0
 31
0.0
  0
LINE
  5
2FC
330
17
100
AcDbEntity
  8
表格
370
18
100
AcDbLine
 10
998.0
 20
-720.0
 30
0.0
 11
998.0
 21
-734.0
 31
0.0
  0
TEXT
  5
2FD
330
17
100
AcDbEntity
  8
文字
100
AcDbText
 10
1000.0
 20
-727.0
 30
0.0
 40
2.8
  1
1
  7
CN
 11
1000.0
 21
-727.0
 31
0.0
100
AcDbText
 73
2
  0
LINE
  5
2FE
330
17
100
AcDbEntity
  8
表格
370
18
100
AcDbLine
 10
1034.0
 20
-734.0
 30
0.0
 11
1104.0
 21
-734.0
 31
0.0
  0
LINE
  5
2FF
330
17
100
AcDbEntity
  8
表格
370
18
100
AcDbLine
 10
1104.0
 20
-734.0
 30
0.0
 11
1104.0
 21
-720.0
 31
0.0
  0
LINE
  5
300
330
17
100
AcDbEntity
  8
表格
370
18
100
AcDbLine
 10
1104.0
 20
-720.0
 30
0.0
 11
1034.0
 21
-720.0
 31
0.0
  0
LINE
  5
301
330
17
100
AcDbEntity
  8
表格
370
18
100
AcDbLine
 10
1034.0
 20
-720.0
 30
0.0
 11
1034.0
 21
-734.0
 31
0.0
  0
TEXT
  5
302
330
17
100
AcDbEntity
  8
文字
100
AcDbText
 10
1036.0
 20
-727.0
 30
0.0
 40
2.8
  1
BW
  7
CN
 11
1036.0
 21
-727.0
 31
0.0
100
AcDbText
 73
2
  0
LINE
  5
303
330
17
100
AcDbEntity
  8
表格
370
18
100
AcDbLine
 10
700.0
 20
-748.0
 30
0.0
 11
728.0
 21
-748.0
 31
0.0
  0
LINE
  5
304
330
17
100
AcDbEntity
  8
表格
370
18
100
AcDbLine
 10
728.0
 20
-748.0
 30
0.0
 11
728.0
 21
-734.0
 31
0.0
  0
LINE
  5
305
330
17
100
AcDbEntity
  8
表格
370
18
100
AcDbLine
 10
728.0
 20
-734.0
 30
0.0
 11
700.0
 21
-734.0
 31
0.0
  0
LINE
  5
306
330
17
100
AcDbEntity
  8
表格
370
18
100
AcDbLine
 10
700.0
 20
-734.0
 30
0.0
 11
700.0
 21
-748.0
 31
0.0
  0
TEXT
  5
307
330
17
100
AcDbEntity
  8
文字
100
AcDbText
 10
702.0
 20
-741.0
 30
0.0
 40
2.8
  1
6
  7
CN
 11
702.0
 21
-741.0
 31
0.0
100
AcDbText
 73
2
  0
LINE
  5
308
330
17
100
AcDbEntity
  8
表格
370
18
100
AcDbLine
 10
728.0
 20
-748.0
 30
0.0
 11
798.0
 21
-748.0
 31
0.0
  0
LINE
  5
309
330
17
100
AcDbEntity
  8
表格
370
18
100
AcDbLine
 10
798.0
 20
-748.0
 30
0.0
 11
798.0
 21
-734.0
 31
0.0
  0
LINE
  5
30A
330
17
100
AcDbEntity
  8
表格
370
18
100
AcDbLine
 10
798.0
 20
-734.0
 30
0.0
 11
728.0
 21
-734.0
 31
0.0
  0
LINE
  5
30B
330
17
100
AcDbEntity
  8
表格
370
18
100
AcDbLine
 10
728.0
 20
-734.0
 30
0.0
 11
728.0
 21
-748.0
 31
0.0
  0
TEXT
  5
30C
330
17
100
AcDbEntity
  8
文字
100
AcDbText
 10
730.0
 20
-741.0
 30
0.0
 40
2.8
  1
全螺纹螺柱+螺母
  7
CN
 11
730.0
 21
-741.0
 31
0.0
100
AcDbText
 73
2
  0
LINE
  5
30D
330
17
100
AcDbEntity
  8
表格
370
18
100
AcDbLine
 10
798.0
 20
-748.0
 30
0.0
 11
998.0
 21
-748.0
 31
0.0
  0
LINE
  5
30E
330
17
100
AcDbEntity
  8
表格
370
18
100
AcDbLine
 10
998.0
 20
-748.0
 30
0.0
 11
998.0
 21
-734.0
 31
0.0
  0
LINE
  5
30F
330
17
100
AcDbEntity
  8
表格
370
18
100
AcDbLine
 10
998.0
 20
-734.0
 30
0.0
 11
798.0
 21
-734.0
 31
0.0
  0
LINE
  5
310
330
17
100
AcDbEntity
  8
表格
370
18
100
AcDbLine
 10
798.0
 20
-734.0
 30
0.0
 11
798.0
 21
-748.0
 31
0.0
  0
TEXT
  5
311
330
17
100
AcDbEntity
  8
文字
100
AcDbText
 10
800.0
 20
-741.0
 30
0.0
 40
2.8
  1
M27×L≈180 / M27  螺栓螺母 B8M/B8M（或按深冷紧固件规定）
  7
CN
 11
800.0
 21
-741.0
 31
0.0
100
AcDbText
 73
2
  0
LINE
  5
312
330
17
100
AcDbEntity
  8
表格
370
18
100
AcDbLine
 10
998.0
 20
-748.0
 30
0.0
 11
1034.0
 21
-748.0
 31
0.0
  0
LINE
  5
313
330
17
100
AcDbEntity
  8
表格
370
18
100
AcDbLine
 10
1034.0
 20
-748.0
 30
0.0
 11
1034.0
 21
-734.0
 31
0.0
  0
LINE
  5
314
330
17
100
AcDbEntity
  8
表格
370
18
100
AcDbLine
 10
1034.0
 20
-734.0
 30
0.0
 11
998.0
 21
-734.0
 31
0.0
  0
LINE
  5
315
330
17
100
AcDbEntity
  8
表格
370
18
100
AcDbLine
 10
998.0
 20
-734.0
 30
0.0
 11
998.0
 21
-748.0
 31
0.0
  0
TEXT
  5
316
330
17
100
AcDbEntity
  8
文字
100
AcDbText
 10
1000.0
 20
-741.0
 30
0.0
 40
2.8
  1
12
  7
CN
 11
1000.0
 21
-741.0
 31
0.0
100
AcDbText
 73
2
  0
LINE
  5
317
330
17
100
AcDbEntity
  8
表格
370
18
100
AcDbLine
 10
1034.0
 20
-748.0
 30
0.0
 11
1104.0
 21
-748.0
 31
0.0
  0
LINE
  5
318
330
17
100
AcDbEntity
  8
表格
370
18
100
AcDbLine
 10
1104.0
 20
-748.0
 30
0.0
 11
1104.0
 21
-734.0
 31
0.0
  0
LINE
  5
319
330
17
100
AcDbEntity
  8
表格
370
18
100
AcDbLine
 10
1104.0
 20
-734.0
 30
0.0
 11
1034.0
 21
-734.0
 31
0.0
  0
LINE
  5
31A
330
17
100
AcDbEntity
  8
表格
370
18
100
AcDbLine
 10
1034.0
 20
-734.0
 30
0.0
 11
1034.0
 21
-748.0
 31
0.0
  0
TEXT
  5
31B
330
17
100
AcDbEntity
  8
文字
100
AcDbText
 10
1036.0
 20
-741.0
 30
0.0
 40
2.8
  1
含垫圈
  7
CN
 11
1036.0
 21
-741.0
 31
0.0
100
AcDbText
 73
2
  0
LINE
  5
31C
330
17
100
AcDbEntity
  8
表格
370
18
100
AcDbLine
 10
700.0
 20
-762.0
 30
0.0
 11
728.0
 21
-762.0
 31
0.0
  0
LINE
  5
31D
330
17
100
AcDbEntity
  8
表格
370
18
100
AcDbLine
 10
728.0
 20
-762.0
 30
0.0
 11
728.0
 21
-748.0
 31
0.0
  0
LINE
  5
31E
330
17
100
AcDbEntity
  8
表格
370
18
100
AcDbLine
 10
728.0
 20
-748.0
 30
0.0
 11
700.0
 21
-748.0
 31
0.0
  0
LINE
  5
31F
330
17
100
AcDbEntity
  8
表格
370
18
100
AcDbLine
 10
700.0
 20
-748.0
 30
0.0
 11
700.0
 21
-762.0
 31
0.0
  0
TEXT
  5
320
330
17
100
AcDbEntity
  8
文字
100
AcDbText
 10
702.0
 20
-755.0
 30
0.0
 40
2.8
  1
7
  7
CN
 11
702.0
 21
-755.0
 31
0.0
100
AcDbText
 73
2
  0
LINE
  5
321
330
17
100
AcDbEntity
  8
表格
370
18
100
AcDbLine
 10
728.0
 20
-762.0
 30
0.0
 11
798.0
 21
-762.0
 31
0.0
  0
LINE
  5
322
330
17
100
AcDbEntity
  8
表格
370
18
100
AcDbLine
 10
798.0
 20
-762.0
 30
0.0
 11
798.0
 21
-748.0
 31
0.0
  0
LINE
  5
323
330
17
100
AcDbEntity
  8
表格
370
18
100
AcDbLine
 10
798.0
 20
-748.0
 30
0.0
 11
728.0
 21
-748.0
 31
0.0
  0
LINE
  5
324
330
17
100
AcDbEntity
  8
表格
370
18
100
AcDbLine
 10
728.0
 20
-748.0
 30
0.0
 11
728.0
 21
-762.0
 31
0.0
  0
TEXT
  5
325
330
17
100
AcDbEntity
  8
文字
100
AcDbText
 10
730.0
 20
-755.0
 30
0.0
 40
2.8
  1
金属缠绕垫
  7
CN
 11
730.0
 21
-755.0
 31
0.0
100
AcDbText
 73
2
  0
LINE
  5
326
330
17
100
AcDbEntity
  8
表格
370
18
100
AcDbLine
 10
798.0
 20
-762.0
 30
0.0
 11
998.0
 21
-762.0
 31
0.0
  0
LINE
  5
327
330
17
100
AcDbEntity
  8
表格
370
18
100
AcDbLine
 10
998.0
 20
-762.0
 30
0.0
 11
998.0
 21
-748.0
 31
0.0
  0
LINE
  5
328
330
17
100
AcDbEntity
  8
表格
370
18
100
AcDbLine
 10
998.0
 20
-748.0
 30
0.0
 11
798.0
 21
-748.0
 31
0.0
  0
LINE
  5
329
330
17
100
AcDbEntity
  8
表格
370
18
100
AcDbLine
 10
798.0
 20
-748.0
 30
0.0
 11
798.0
 21
-762.0
 31
0.0
  0
TEXT
  5
32A
330
17
100
AcDbEntity
  8
文字
100
AcDbText
 10
800.0
 20
-755.0
 30
0.0
 40
2.8
  1
DN250 PN25 RF  缠绕垫 内环304 填料柔性石墨（深冷）
  7
CN
 11
800.0
 21
-755.0
 31
0.0
100
AcDbText
 73
2
  0
LINE
  5
32B
330
17
100
AcDbEntity
  8
表格
370
18
100
AcDbLine
 10
998.0
 20
-762.0
 30
0.0
 11
1034.0
 21
-762.0
 31
0.0
  0
LINE
  5
32C
330
17
100
AcDbEntity
  8
表格
370
18
100
AcDbLine
 10
1034.0
 20
-762.0
 30
0.0
 11
1034.0
 21
-748.0
 31
0.0
  0
LINE
  5
32D
330
17
100
AcDbEntity
  8
表格
370
18
100
AcDbLine
 10
1034.0
 20
-748.0
 30
0.0
 11
998.0
 21
-748.0
 31
0.0
  0
LINE
  5
32E
330
17
100
AcDbEntity
  8
表格
370
18
100
AcDbLine
 10
998.0
 20
-748.0
 30
0.0
 11
998.0
 21
-762.0
 31
0.0
  0
TEXT
  5
32F
330
17
100
AcDbEntity
  8
文字
100
AcDbText
 10
1000.0
 20
-755.0
 30
0.0
 40
2.8
  1
2
  7
CN
 11
1000.0
 21
-755.0
 31
0.0
100
AcDbText
 73
2
  0
LINE
  5
330
330
17
100
AcDbEntity
  8
表格
370
18
100
AcDbLine
 10
1034.0
 20
-762.0
 30
0.0
 11
1104.0
 21
-762.0
 31
0.0
  0
LINE
  5
331
330
17
100
AcDbEntity
  8
表格
370
18
100
AcDbLine
 10
1104.0
 20
-762.0
 30
0.0
 11
1104.0
 21
-748.0
 31
0.0
  0
LINE
  5
332
330
17
100
AcDbEntity
  8
表格
370
18
100
AcDbLine
 10
1104.0
 20
-748.0
 30
0.0
 11
1034.0
 21
-748.0
 31
0.0
  0
LINE
  5
333
330
17
100
AcDbEntity
  8
表格
370
18
100
AcDbLine
 10
1034.0
 20
-748.0
 30
0.0
 11
1034.0
 21
-762.0
 31
0.0
  0
TEXT
  5
334
330
17
100
AcDbEntity
  8
文字
100
AcDbText
 10
1036.0
 20
-755.0
 30
0.0
 40
2.8
  1
深冷适用
  7
CN
 11
1036.0
 21
-755.0
 31
0.0
100
AcDbText
 73
2
  0
LINE
  5
335
330
17
100
AcDbEntity
  8
表格
370
18
100
AcDbLine
 10
700.0
 20
-776.0
 30
0.0
 11
728.0
 21
-776.0
 31
0.0
  0
LINE
  5
336
330
17
100
AcDbEntity
  8
表格
370
18
100
AcDbLine
 10
728.0
 20
-776.0
 30
0.0
 11
728.0
 21
-762.0
 31
0.0
  0
LINE
  5
337
330
17
100
AcDbEntity
  8
表格
370
18
100
AcDbLine
 10
728.0
 20
-762.0
 30
0.0
 11
700.0
 21
-762.0
 31
0.0
  0
LINE
  5
338
330
17
100
AcDbEntity
  8
表格
370
18
100
AcDbLine
 10
700.0
 20
-762.0
 30
0.0
 11
700.0
 21
-776.0
 31
0.0
  0
TEXT
  5
339
330
17
100
AcDbEntity
  8
文字
100
AcDbText
 10
702.0
 20
-769.0
 30
0.0
 40
2.8
  1
8
  7
CN
 11
702.0
 21
-769.0
 31
0.0
100
AcDbText
 73
2
  0
LINE
  5
33A
330
17
100
AcDbEntity
  8
表格
370
18
100
AcDbLine
 10
728.0
 20
-776.0
 30
0.0
 11
798.0
 21
-776.0
 31
0.0
  0
LINE
  5
33B
330
17
100
AcDbEntity
  8
表格
370
18
100
AcDbLine
 10
798.0
 20
-776.0
 30
0.0
 11
798.0
 21
-762.0
 31
0.0
  0
LINE
  5
33C
330
17
100
AcDbEntity
  8
表格
370
18
100
AcDbLine
 10
798.0
 20
-762.0
 30
0.0
 11
728.0
 21
-762.0
 31
0.0
  0
LINE
  5
33D
330
17
100
AcDbEntity
  8
表格
370
18
100
AcDbLine
 10
728.0
 20
-762.0
 30
0.0
 11
728.0
 21
-776.0
 31
0.0
  0
TEXT
  5
33E
330
17
100
AcDbEntity
  8
文字
100
AcDbText
 10
730.0
 20
-769.0
 30
0.0
 40
2.8
  1
短节
  7
CN
 11
730.0
 21
-769.0
 31
0.0
100
AcDbText
 73
2
  0
LINE
  5
33F
330
17
100
AcDbEntity
  8
表格
370
18
100
AcDbLine
 10
798.0
 20
-776.0
 30
0.0
 11
998.0
 21
-776.0
 31
0.0
  0
LINE
  5
340
330
17
100
AcDbEntity
  8
表格
370
18
100
AcDbLine
 10
998.0
 20
-776.0
 30
0.0
 11
998.0
 21
-762.0
 31
0.0
  0
LINE
  5
341
330
17
100
AcDbEntity
  8
表格
370
18
100
AcDbLine
 10
998.0
 20
-762.0
 30
0.0
 11
798.0
 21
-762.0
 31
0.0
  0
LINE
  5
342
330
17
100
AcDbEntity
  8
表格
370
18
100
AcDbLine
 10
798.0
 20
-762.0
 30
0.0
 11
798.0
 21
-776.0
 31
0.0
  0
TEXT
  5
343
330
17
100
AcDbEntity
  8
文字
100
AcDbText
 10
800.0
 20
-769.0
 30
0.0
 40
2.8
  1
Φ273.0×4.0 L=100.0 F304/F304L
  7
CN
 11
800.0
 21
-769.0
 31
0.0
100
AcDbText
 73
2
  0
LINE
  5
344
330
17
100
AcDbEntity
  8
表格
370
18
100
AcDbLine
 10
998.0
 20
-776.0
 30
0.0
 11
1034.0
 21
-776.0
 31
0.0
  0
LINE
  5
345
330
17
100
AcDbEntity
  8
表格
370
18
100
AcDbLine
 10
1034.0
 20
-776.0
 30
0.0
 11
1034.0
 21
-762.0
 31
0.0
  0
LINE
  5
346
330
17
100
AcDbEntity
  8
表格
370
18
100
AcDbLine
 10
1034.0
 20
-762.0
 30
0.0
 11
998.0
 21
-762.0
 31
0.0
  0
LINE
  5
347
330
17
100
AcDbEntity
  8
表格
370
18
100
AcDbLine
 10
998.0
 20
-762.0
 30
0.0
 11
998.0
 21
-776.0
 31
0.0
  0
TEXT
  5
348
330
17
100
AcDbEntity
  8
文字
100
AcDbText
 10
1000.0
 20
-769.0
 30
0.0
 40
2.8
  1
2
  7
CN
 11
1000.0
 21
-769.0
 31
0.0
100
AcDbText
 73
2
  0
LINE
  5
349
330
17
100
AcDbEntity
  8
表格
370
18
100
AcDbLine
 10
1034.0
 20
-776.0
 30
0.0
 11
1104.0
 21
-776.0
 31
0.0
  0
LINE
  5
34A
330
17
100
AcDbEntity
  8
表格
370
18
100
AcDbLine
 10
1104.0
 20
-776.0
 30
0.0
 11
1104.0
 21
-762.0
 31
0.0
  0
LINE
  5
34B
330
17
100
AcDbEntity
  8
表格
370
18
100
AcDbLine
 10
1104.0
 20
-762.0
 30
0.0
 11
1034.0
 21
-762.0
 31
0.0
  0
LINE
  5
34C
330
17
100
AcDbEntity
  8
表格
370
18
100
AcDbLine
 10
1034.0
 20
-762.0
 30
0.0
 11
1034.0
 21
-776.0
 31
0.0
  0
TEXT
  5
34D
330
17
100
AcDbEntity
  8
文字
100
AcDbText
 10
1036.0
 20
-769.0
 30
0.0
 40
2.8
  1
BW两端
  7
CN
 11
1036.0
 21
-769.0
 31
0.0
100
AcDbText
 73
2
  0
TEXT
  5
34E
330
17
100
AcDbEntity
  8
文字
100
AcDbText
 10
700.0
 20
-796.0
 30
0.0
 40
3.8
  1
技术要求：
  7
CN
 11
700.0
 21
-796.0
 31
0.0
100
AcDbText
 73
3
  0
TEXT
  5
34F
330
17
100
AcDbEntity
  8
文字
100
AcDbText
 10
700.0
 20
-807.0
 30
0.0
 40
3.0
  1
1. 本图按计算书 FE-1002（S/N 26031402）及 GB/T2624.2 / ISO5167-2 法兰取压执行。
  7
CN
 11
700.0
 21
-807.0
 31
0.0
100
AcDbText
 73
3
  0
TEXT
  5
350
330
17
100
AcDbEntity
  8
文字
100
AcDbText
 10
700.0
 20
-818.0
 30
0.0
 40
3.0
  1
2. 孔径 d=136.18 mm 为 20℃ 值；深冷工况按 Fa 膨胀修正（计算书 Fa=0.9938）复核实流孔径。
  7
CN
 11
700.0
 21
-818.0
 31
0.0
100
AcDbText
 73
3
  0
TEXT
  5
351
330
17
100
AcDbEntity
  8
文字
100
AcDbText
 10
700.0
 20
-829.0
 30
0.0
 40
3.0
  1
3. 取压方式：法兰取压；取压孔轴线距孔板上/下游端面 25.4±0.8 mm；孔径 Φ8.0（≤13 且 <0.13D）。
  7
CN
 11
700.0
 21
-829.0
 31
0.0
100
AcDbText
 73
3
  0
TEXT
  5
352
330
17
100
AcDbEntity
  8
文字
100
AcDbText
 10
700.0
 20
-840.0
 30
0.0
 40
3.0
  1
4. 孔板上游面平面度、粗糙度及入口锐边按 GB/T2624.2；下游 45° 倒角，孔口圆柱段厚度 e 如图。
  7
CN
 11
700.0
 21
-840.0
 31
0.0
100
AcDbText
 73
3
  0
TEXT
  5
353
330
17
100
AcDbEntity
  8
文字
100
AcDbText
 10
700.0
 20
-851.0
 30
0.0
 40
3.0
  1
5. 法兰标准 HG/T20592 PN25 RF 带颈对焊；密封面、螺栓孔加工按标准公差；配对法兰同批配钻。
  7
CN
 11
700.0
 21
-851.0
 31
0.0
100
AcDbText
 73
3
  0
TEXT
  5
354
330
17
100
AcDbEntity
  8
文字
100
AcDbText
 10
700.0
 20
-862.0
 30
0.0
 40
3.0
  1
6. 介质 LNG，设计温度 -162.0℃；材料 F304/F304L/F304/F304L；焊接 WPS 按深冷不锈钢，焊后酸洗钝化。
  7
CN
 11
700.0
 21
-862.0
 31
0.0
100
AcDbText
 73
3
  0
TEXT
  5
355
330
17
100
AcDbEntity
  8
文字
100
AcDbText
 10
700.0
 20
-873.0
 30
0.0
 40
3.0
  1
7. 焊缝：法兰颈与短节 BW；取压管与法兰角焊缝/安放焊按批复 WPS；RT/PT 按业主规格书。
  7
CN
 11
700.0
 21
-873.0
 31
0.0
100
AcDbText
 73
3
  0
TEXT
  5
356
330
17
100
AcDbEntity
  8
文字
100
AcDbText
 10
700.0
 20
-884.0
 30
0.0
 40
3.0
  1
8. 装配：孔板手柄朝上，上游面迎流；垫片对中；螺柱对角均匀紧固；禁止损伤孔口锐边。
  7
CN
 11
700.0
 21
-884.0
 31
0.0
100
AcDbText
 73
3
  0
TEXT
  5
357
330
17
100
AcDbEntity
  8
文字
100
AcDbText
 10
700.0
 20
-895.0
 30
0.0
 40
3.0
  1
9. 试压：强度/密封按管道试验压力；取压管口盲死。洁净度按仪表管线要求。
  7
CN
 11
700.0
 21
-895.0
 31
0.0
100
AcDbText
 73
3
  0
TEXT
  5
358
330
17
100
AcDbEntity
  8
文字
100
AcDbText
 10
700.0
 20
-906.0
 30
0.0
 40
3.0
  1
10. 未注线性尺寸公差 IT12；未注形位公差按 GB/T 1184 K；单位 mm。
  7
CN
 11
700.0
 21
-906.0
 31
0.0
100
AcDbText
 73
3
  0
TEXT
  5
359
330
17
100
AcDbEntity
  8
文字
100
AcDbText
 10
500.0
 20
-1000.0
 30
0.0
 40
5.0
  1
位号 FE-1002  |  出厂号 26031402  |  ROH10×JX25N2  |  DN250 PN25 法兰对夹孔板 生产机加装配图
  7
CN
 72
1
 11
500.0
 21
-1000.0
 31
0.0
100
AcDbText
 73
1
  0
TEXT
  5
35A
330
17
100
AcDbEntity
  8
文字
100
AcDbText
 10
500.0
 20
-1018.0
 30
0.0
 40
3.5
  1
比例 示意（以标注尺寸为准）  |  DXF R2013 单位 mm  |  可直接下发机加/装配
  7
CN
 72
1
 11
500.0
 21
-1018.0
 31
0.0
100
AcDbText
 73
1
  0
ENDSEC
  0
SECTION
  2
OBJECTS
  0
DICTIONARY
  5
A
330
0
100
AcDbDictionary
281
1
  3
ACAD_COLOR
350
B
  3
ACAD_GROUP
350
C
  3
ACAD_LAYOUT
350
D
  3
ACAD_MATERIAL
350
E
  3
ACAD_MLEADERSTYLE
350
F
  3
ACAD_MLINESTYLE
350
10
  3
ACAD_PLOTSETTINGS
350
11
  3
ACAD_PLOTSTYLENAME
350
12
  3
ACAD_SCALELIST
350
14
  3
ACAD_TABLESTYLE
350
15
  3
ACAD_VISUALSTYLE
350
16
  3
EZDXF_META
350
2D
  0
DICTIONARY
  5
B
330
A
100
AcDbDictionary
281
1
  0
DICTIONARY
  5
C
330
A
100
AcDbDictionary
281
1
  0
DICTIONARY
  5
D
330
A
100
AcDbDictionary
281
1
  3
Model
350
1A
  3
Layout1
350
1E
  0
DICTIONARY
  5
E
330
A
100
AcDbDictionary
281
1
  3
ByBlock
350
1F
  3
ByLayer
350
20
  3
Global
350
21
  0
DICTIONARY
  5
F
330
A
100
AcDbDictionary
281
1
  3
Standard
350
2C
  0
DICTIONARY
  5
10
330
A
100
AcDbDictionary
281
1
  3
Standard
350
22
  0
DICTIONARY
  5
11
330
A
100
AcDbDictionary
281
1
  0
ACDBDICTIONARYWDFLT
  5
12
330
A
100
AcDbDictionary
281
1
  3
Normal
350
13
100
AcDbDictionaryWithDefault
340
13
  0
ACDBPLACEHOLDER
  5
13
330
12
  0
DICTIONARY
  5
14
330
A
100
AcDbDictionary
281
1
  0
DICTIONARY
  5
15
330
A
100
AcDbDictionary
281
1
  0
DICTIONARY
  5
16
330
A
100
AcDbDictionary
281
1
  3
2dWireframe
350
5A
  3
Basic
350
5B
  3
Brighten
350
5C
  3
ColorChange
350
5D
  3
Conceptual
350
5E
  3
Dim
350
5F
  3
EdgeColorOff
350
60
  3
Facepattern
350
61
  3
Flat
350
62
  3
FlatWithEdges
350
63
  3
Gouraud
350
64
  3
GouraudWithEdges
350
65
  3
Hidden
350
66
  3
JitterOff
350
67
  3
Linepattern
350
68
  3
Modeling
350
69
  3
OverhangOff
350
6A
  3
Realistic
350
6B
  3
Shaded
350
6C
  3
Shaded with edges
350
6D
  3
Shades of Gray
350
6E
  3
Sketchy
350
6F
  3
Thicken
350
70
  3
Wireframe
350
71
  3
X-Ray
350
72
  0
LAYOUT
  5
1A
330
D
100
AcDbPlotSettings
  1

  4
A3
  6

 40
7.5
 41
20.0
 42
7.5
 43
20.0
 44
420.0
 45
297.0
 46
0.0
 47
0.0
 48
0.0
 49
0.0
140
0.0
141
0.0
142
1.0
143
1.0
 70
1024
 72
1
 73
0
 74
5
  7

 75
16
 76
0
 77
2
 78
300
147
1.0
148
0.0
149
0.0
100
AcDbLayout
  1
Model
 70
1
 71
0
 10
0.0
 20
0.0
 11
420.0
 21
297.0
 12
0.0
 22
0.0
 32
0.0
 14
1e+20
 24
1e+20
 34
1e+20
 15
-1e+20
 25
-1e+20
 35
-1e+20
146
0.0
 13
0.0
 23
0.0
 33
0.0
 16
1.0
 26
0.0
 36
0.0
 17
0.0
 27
1.0
 37
0.0
 76
1
330
17
  0
LAYOUT
  5
1E
330
D
100
AcDbPlotSettings
  1

  4
A3
  6

 40
7.5
 41
20.0
 42
7.5
 43
20.0
 44
420.0
 45
297.0
 46
0.0
 47
0.0
 48
0.0
 49
0.0
140
0.0
141
0.0
142
1.0
143
1.0
 70
0
 72
1
 73
0
 74
5
  7

 75
16
 76
0
 77
2
 78
300
147
1.0
148
0.0
149
0.0
100
AcDbLayout
  1
Layout1
 70
1
 71
1
 10
0.0
 20
0.0
 11
420.0
 21
297.0
 12
0.0
 22
0.0
 32
0.0
 14
1e+20
 24
1e+20
 34
1e+20
 15
-1e+20
 25
-1e+20
 35
-1e+20
146
0.0
 13
0.0
 23
0.0
 33
0.0
 16
1.0
 26
0.0
 36
0.0
 17
0.0
 27
1.0
 37
0.0
 76
1
330
1B
  0
MATERIAL
  5
1F
102
{ACAD_REACTORS
330
E
102
}
330
E
100
AcDbMaterial
  1
ByBlock
  2

 70
0
 40
1.0
 71
1
 41
1.0
 91
-1023410177
 42
1.0
 72
1
  3

 73
1
 74
1
 75
1
 44
0.5
 73
0
 45
1.0
 46
1.0
 77
1
  4

 78
1
 79
1
170
1
 48
1.0
171
1
  6

172
1
173
1
174
1
140
1.0
141
1.0
175
1
  7

176
1
177
1
178
1
143
1.0
179
1
  8

270
1
271
1
272
1
145
1.0
146
1.0
273
1
  9

274
1
275
1
276
1
 42
1.0
 72
1
  3

 73
1
 74
1
 75
1
 94
63
  0
MATERIAL
  5
20
102
{ACAD_REACTORS
330
E
102
}
330
E
100
AcDbMaterial
  1
ByLayer
  2

 70
0
 40
1.0
 71
1
 41
1.0
 91
-1023410177
 42
1.0
 72
1
  3

 73
1
 74
1
 75
1
 44
0.5
 73
0
 45
1.0
 46
1.0
 77
1
  4

 78
1
 79
1
170
1
 48
1.0
171
1
  6

172
1
173
1
174
1
140
1.0
141
1.0
175
1
  7

176
1
177
1
178
1
143
1.0
179
1
  8

270
1
271
1
272
1
145
1.0
146
1.0
273
1
  9

274
1
275
1
276
1
 42
1.0
 72
1
  3

 73
1
 74
1
 75
1
 94
63
  0
MATERIAL
  5
21
102
{ACAD_REACTORS
330
E
102
}
330
E
100
AcDbMaterial
  1
Global
  2

 70
0
 40
1.0
 71
1
 41
1.0
 91
-1023410177
 42
1.0
 72
1
  3

 73
1
 74
1
 75
1
 44
0.5
 73
0
 45
1.0
 46
1.0
 77
1
  4

 78
1
 79
1
170
1
 48
1.0
171
1
  6

172
1
173
1
174
1
140
1.0
141
1.0
175
1
  7

176
1
177
1
178
1
143
1.0
179
1
  8

270
1
271
1
272
1
145
1.0
146
1.0
273
1
  9

274
1
275
1
276
1
 42
1.0
 72
1
  3

 73
1
 74
1
 75
1
 94
63
  0
MLINESTYLE
  5
22
102
{ACAD_REACTORS
330
10
102
}
330
10
100
AcDbMlineStyle
  2
Standard
 70
0
  3

 62
256
 51
90.0
 52
90.0
 71
2
 49
0.5
 62
256
  6
BYLAYER
 49
-0.5
 62
256
  6
BYLAYER
  0
MLEADERSTYLE
  5
2C
102
{ACAD_REACTORS
330
F
102
}
330
F
100
AcDbMLeaderStyle
179
2
170
2
171
1
172
0
 90
2
 40
0.0
 41
0.0
173
1
 91
-1056964608
 92
-2
290
1
 42
2.0
291
1
 43
8.0
  3
Standard
 44
4.0
300

342
29
174
1
175
1
176
0
178
1
 93
-1056964608
 45
4.0
292
0
297
0
 46
4.0
 94
-1056964608
 47
1.0
 49
1.0
140
1.0
294
1
141
0.0
177
0
142
1.0
295
0
296
0
143
3.75
271
0
272
9
273
9
  0
DICTIONARY
  5
2D
330
A
100
AcDbDictionary
280
1
281
1
  3
CREATED_BY_EZDXF
350
2E
  3
WRITTEN_BY_EZDXF
350
35E
  0
DICTIONARYVAR
  5
2E
330
2D
100
DictionaryVariables
280
0
  1
1.4.4 @ 2026-08-03T16:44:19.256838+00:00
  0
VISUALSTYLE
  5
5A
102
{ACAD_REACTORS
330
16
102
}
330
16
100
AcDbVisualStyle
  2
2dWireframe
 70
4
177
3
291
0
 70
58
 90
2
176
1
 90
2
176
1
 90
0
176
1
 90
0
176
1
 40
0.6
176
1
 40
30.0
176
1
 62
7
420
16777215
176
1
 90
1
176
1
 90
4
176
1
 62
7
176
1
 62
257
176
1
 90
1
176
1
 90
1
176
1
 40
1.0
176
1
 90
8
176
1
 62
7
176
1
 40
1.0
176
1
 90
1
176
1
 90
6
176
1
 90
2
176
1
 62
7
176
1
 90
5
176
1
 90
0
176
1
 90
0
176
1
290
0
176
1
 90
1
176
1
 40
0.0
176
1
 90
0
176
1
290
1
176
1
290
1
176
1
290
0
176
1
290
0
176
1
290
0
176
1
290
0
176
1
290
0
176
1
290
0
176
1
290
0
176
1
 90
50
176
1
 40
0.0
176
1
 40
1.0
176
1
 90
0
176
1
 62
18
420
0
176
1
 90
50
176
1
 90
3
176
1
 62
5
420
255
176
1
290
0
176
1
 90
50
176
1
 90
50
176
1
 90
50
176
1
290
0
176
1
 90
50
176
1
 62
256
176
0
 40
1.0
176
0
 90
2
176
1
  1
strokes_ogs.tif
176
1
290
0
176
1
 40
1.0
176
1
 40
1.0
176
1
  0
VISUALSTYLE
  5
5B
102
{ACAD_REACTORS
330
16
102
}
330
16
100
AcDbVisualStyle
  2
Basic
 70
7
177
3
291
1
 70
58
 90
2
176
1
 90
2
176
1
 90
0
176
1
 90
1
176
1
 40
0.6
176
1
 40
30.0
176
1
 62
7
420
16777215
176
1
 90
1
176
1
 90
4
176
1
 62
7
176
1
 62
257
176
1
 90
1
176
1
 90
1
176
1
 40
1.0
176
1
 90
8
176
1
 62
7
176
1
 40
1.0
176
1
 90
1
176
1
 90
6
176
1
 90
2
176
1
 62
7
176
1
 90
5
176
1
 90
0
176
1
 90
0
176
1
290
0
176
1
 90
1
176
1
 40
0.0
176
1
 90
0
176
1
290
0
176
1
290
1
176
1
290
1
176
1
290
0
176
1
290
0
176
1
290
0
176
1
290
0
176
1
290
0
176
1
290
0
176
1
 90
50
176
1
 40
0.0
176
1
 40
1.0
176
1
 90
0
176
1
 62
18
420
0
176
1
 90
50
176
1
 90
3
176
1
 62
5
420
255
176
1
290
0
176
1
 90
50
176
1
 90
50
176
1
 90
50
176
1
290
0
176
1
 90
50
176
1
 62
256
176
0
 40
1.0
176
0
 90
2
176
1
  1
strokes_ogs.tif
176
1
290
0
176
1
 40
1.0
176
1
 40
1.0
176
1
  0
VISUALSTYLE
  5
5C
102
{ACAD_REACTORS
330
16
102
}
330
16
100
AcDbVisualStyle
  2
Brighten
 70
12
177
3
291
1
 70
58
 90
2
176
1
 90
2
176
1
 90
0
176
1
 90
2
176
1
 40
0.6
176
1
 40
30.0
176
1
 62
7
420
16777215
176
1
 90
1
176
1
 90
4
176
1
 62
7
176
1
 62
257
176
1
 90
1
176
1
 90
1
176
1
 40
1.0
176
1
 90
8
176
1
 62
7
176
1
 40
1.0
176
1
 90
1
176
1
 90
6
176
1
 90
2
176
1
 62
7
176
1
 90
5
176
1
 90
0
176
1
 90
0
176
1
290
0
176
1
 90
1
176
1
 40
0.0
176
1
 90
0
176
1
290
0
176
1
290
1
176
1
290
1
176
1
290
0
176
1
290
0
176
1
290
0
176
1
290
0
176
1
290
0
176
1
290
0
176
1
 90
50
176
1
 40
0.0
176
1
 40
1.0
176
1
 90
0
176
1
 62
18
420
0
176
1
 90
50
176
1
 90
3
176
1
 62
5
420
255
176
1
290
0
176
1
 90
50
176
1
 90
50
176
1
 90
50
176
1
290
0
176
1
 90
50
176
1
 62
256
176
0
 40
1.0
176
0
 90
2
176
1
  1
strokes_ogs.tif
176
1
290
0
176
1
 40
1.0
176
1
 40
1.0
176
1
  0
VISUALSTYLE
  5
5D
102
{ACAD_REACTORS
330
16
102
}
330
16
100
AcDbVisualStyle
  2
ColorChange
 70
16
177
3
291
1
 70
58
 90
2
176
1
 90
2
176
1
 90
0
176
1
 90
2
176
1
 40
0.6
176
1
 40
30.0
176
1
 62
7
420
16777215
176
1
 90
1
176
1
 90
4
176
1
 62
7
176
1
 62
257
176
1
 90
1
176
1
 90
1
176
1
 40
1.0
176
1
 90
8
176
1
 62
7
176
1
 40
1.0
176
1
 90
1
176
1
 90
6
176
1
 90
2
176
1
 62
7
176
1
 90
5
176
1
 90
0
176
1
 90
0
176
1
290
0
176
1
 90
1
176
1
 40
0.0
176
1
 90
0
176
1
290
0
176
1
290
1
176
1
290
1
176
1
290
0
176
1
290
0
176
1
290
0
176
1
290
0
176
1
290
0
176
1
290
0
176
1
 90
50
176
1
 40
0.0
176
1
 40
1.0
176
1
 90
0
176
1
 62
18
420
0
176
1
 90
50
176
1
 90
3
176
1
 62
5
420
255
176
1
290
0
176
1
 90
50
176
1
 90
50
176
1
 90
50
176
1
290
0
176
1
 90
50
176
1
 62
256
176
0
 40
1.0
176
0
 90
2
176
1
  1
strokes_ogs.tif
176
1
290
0
176
1
 40
1.0
176
1
 40
1.0
176
1
  0
VISUALSTYLE
  5
5E
102
{ACAD_REACTORS
330
16
102
}
330
16
100
AcDbVisualStyle
  2
Conceptual
 70
9
177
3
291
0
 70
58
 90
2
176
1
 90
2
176
1
 90
0
176
1
 90
3
176
1
 40
0.6
176
1
 40
30.0
176
1
 62
7
420
16777215
176
1
 90
1
176
1
 90
4
176
1
 62
7
176
1
 62
257
176
1
 90
1
176
1
 90
1
176
1
 40
1.0
176
1
 90
8
176
1
 62
7
176
1
 40
1.0
176
1
 90
1
176
1
 90
6
176
1
 90
2
176
1
 62
7
176
1
 90
5
176
1
 90
0
176
1
 90
0
176
1
290
0
176
1
 90
1
176
1
 40
0.0
176
1
 90
0
176
1
290
0
176
1
290
1
176
1
290
1
176
1
290
0
176
1
290
0
176
1
290
0
176
1
290
0
176
1
290
0
176
1
290
0
176
1
 90
50
176
1
 40
0.0
176
1
 40
1.0
176
1
 90
0
176
1
 62
18
420
0
176
1
 90
50
176
1
 90
3
176
1
 62
5
420
255
176
1
290
0
176
1
 90
50
176
1
 90
50
176
1
 90
50
176
1
290
0
176
1
 90
50
176
1
 62
256
176
0
 40
1.0
176
0
 90
2
176
1
  1
strokes_ogs.tif
176
1
290
0
176
1
 40
1.0
176
1
 40
1.0
176
1
  0
VISUALSTYLE
  5
5F
102
{ACAD_REACTORS
330
16
102
}
330
16
100
AcDbVisualStyle
  2
Dim
 70
11
177
3
291
1
 70
58
 90
2
176
1
 90
2
176
1
 90
0
176
1
 90
2
176
1
 40
0.6
176
1
 40
30.0
176
1
 62
7
420
16777215
176
1
 90
1
176
1
 90
4
176
1
 62
7
176
1
 62
257
176
1
 90
1
176
1
 90
1
176
1
 40
1.0
176
1
 90
8
176
1
 62
7
176
1
 40
1.0
176
1
 90
1
176
1
 90
6
176
1
 90
2
176
1
 62
7
176
1
 90
5
176
1
 90
0
176
1
 90
0
176
1
290
0
176
1
 90
1
176
1
 40
0.0
176
1
 90
0
176
1
290
0
176
1
290
1
176
1
290
1
176
1
290
0
176
1
290
0
176
1
290
0
176
1
290
0
176
1
290
0
176
1
290
0
176
1
 90
50
176
1
 40
0.0
176
1
 40
1.0
176
1
 90
0
176
1
 62
18
420
0
176
1
 90
50
176
1
 90
3
176
1
 62
5
420
255
176
1
290
0
176
1
 90
50
176
1
 90
50
176
1
 90
50
176
1
290
0
176
1
 90
50
176
1
 62
256
176
0
 40
1.0
176
0
 90
2
176
1
  1
strokes_ogs.tif
176
1
290
0
176
1
 40
1.0
176
1
 40
1.0
176
1
  0
VISUALSTYLE
  5
60
102
{ACAD_REACTORS
330
16
102
}
330
16
100
AcDbVisualStyle
  2
EdgeColorOff
 70
22
177
3
291
1
 70
58
 90
2
176
1
 90
2
176
1
 90
0
176
1
 90
2
176
1
 40
0.6
176
1
 40
30.0
176
1
 62
7
420
16777215
176
1
 90
1
176
1
 90
4
176
1
 62
7
176
1
 62
257
176
1
 90
1
176
1
 90
1
176
1
 40
1.0
176
1
 90
8
176
1
 62
7
176
1
 40
1.0
176
1
 90
1
176
1
 90
6
176
1
 90
2
176
1
 62
7
176
1
 90
5
176
1
 90
0
176
1
 90
0
176
1
290
0
176
1
 90
1
176
1
 40
0.0
176
1
 90
0
176
1
290
0
176
1
290
1
176
1
290
1
176
1
290
0
176
1
290
0
176
1
290
0
176
1
290
0
176
1
290
0
176
1
290
0
176
1
 90
50
176
1
 40
0.0
176
1
 40
1.0
176
1
 90
0
176
1
 62
18
420
0
176
1
 90
50
176
1
 90
3
176
1
 62
5
420
255
176
1
290
0
176
1
 90
50
176
1
 90
50
176
1
 90
50
176
1
290
0
176
1
 90
50
176
1
 62
256
176
0
 40
1.0
176
0
 90
2
176
1
  1
strokes_ogs.tif
176
1
290
0
176
1
 40
1.0
176
1
 40
1.0
176
1
  0
VISUALSTYLE
  5
61
102
{ACAD_REACTORS
330
16
102
}
330
16
100
AcDbVisualStyle
  2
Facepattern
 70
15
177
3
291
1
 70
58
 90
2
176
1
 90
2
176
1
 90
0
176
1
 90
2
176
1
 40
0.6
176
1
 40
30.0
176
1
 62
7
420
16777215
176
1
 90
1
176
1
 90
4
176
1
 62
7
176
1
 62
257
176
1
 90
1
176
1
 90
1
176
1
 40
1.0
176
1
 90
8
176
1
 62
7
176
1
 40
1.0
176
1
 90
1
176
1
 90
6
176
1
 90
2
176
1
 62
7
176
1
 90
5
176
1
 90
0
176
1
 90
0
176
1
290
0
176
1
 90
1
176
1
 40
0.0
176
1
 90
0
176
1
290
0
176
1
290
1
176
1
290
1
176
1
290
0
176
1
290
0
176
1
290
0
176
1
290
0
176
1
290
0
176
1
290
0
176
1
 90
50
176
1
 40
0.0
176
1
 40
1.0
176
1
 90
0
176
1
 62
18
420
0
176
1
 90
50
176
1
 90
3
176
1
 62
5
420
255
176
1
290
0
176
1
 90
50
176
1
 90
50
176
1
 90
50
176
1
290
0
176
1
 90
50
176
1
 62
256
176
0
 40
1.0
176
0
 90
2
176
1
  1
strokes_ogs.tif
176
1
290
0
176
1
 40
1.0
176
1
 40
1.0
176
1
  0
VISUALSTYLE
  5
62
102
{ACAD_REACTORS
330
16
102
}
330
16
100
AcDbVisualStyle
  2
Flat
 70
0
177
3
291
1
 70
58
 90
2
176
1
 90
2
176
1
 90
0
176
1
 90
2
176
1
 40
0.6
176
1
 40
30.0
176
1
 62
7
420
16777215
176
1
 90
1
176
1
 90
4
176
1
 62
7
176
1
 62
257
176
1
 90
1
176
1
 90
1
176
1
 40
1.0
176
1
 90
8
176
1
 62
7
176
1
 40
1.0
176
1
 90
1
176
1
 90
6
176
1
 90
2
176
1
 62
7
176
1
 90
5
176
1
 90
0
176
1
 90
0
176
1
290
0
176
1
 90
1
176
1
 40
0.0
176
1
 90
0
176
1
290
0
176
1
290
1
176
1
290
1
176
1
290
0
176
1
290
0
176
1
290
0
176
1
290
0
176
1
290
0
176
1
290
0
176
1
 90
50
176
1
 40
0.0
176
1
 40
1.0
176
1
 90
0
176
1
 62
18
420
0
176
1
 90
50
176
1
 90
3
176
1
 62
5
420
255
176
1
290
0
176
1
 90
50
176
1
 90
50
176
1
 90
50
176
1
290
0
176
1
 90
50
176
1
 62
256
176
0
 40
1.0
176
0
 90
2
176
1
  1
strokes_ogs.tif
176
1
290
0
176
1
 40
1.0
176
1
 40
1.0
176
1
  0
VISUALSTYLE
  5
63
102
{ACAD_REACTORS
330
16
102
}
330
16
100
AcDbVisualStyle
  2
FlatWithEdges
 70
1
177
3
291
1
 70
58
 90
2
176
1
 90
2
176
1
 90
0
176
1
 90
2
176
1
 40
0.6
176
1
 40
30.0
176
1
 62
7
420
16777215
176
1
 90
1
176
1
 90
4
176
1
 62
7
176
1
 62
257
176
1
 90
1
176
1
 90
1
176
1
 40
1.0
176
1
 90
8
176
1
 62
7
176
1
 40
1.0
176
1
 90
1
176
1
 90
6
176
1
 90
2
176
1
 62
7
176
1
 90
5
176
1
 90
0
176
1
 90
0
176
1
290
0
176
1
 90
1
176
1
 40
0.0
176
1
 90
0
176
1
290
0
176
1
290
1
176
1
290
1
176
1
290
0
176
1
290
0
176
1
290
0
176
1
290
0
176
1
290
0
176
1
290
0
176
1
 90
50
176
1
 40
0.0
176
1
 40
1.0
176
1
 90
0
176
1
 62
18
420
0
176
1
 90
50
176
1
 90
3
176
1
 62
5
420
255
176
1
290
0
176
1
 90
50
176
1
 90
50
176
1
 90
50
176
1
290
0
176
1
 90
50
176
1
 62
256
176
0
 40
1.0
176
0
 90
2
176
1
  1
strokes_ogs.tif
176
1
290
0
176
1
 40
1.0
176
1
 40
1.0
176
1
  0
VISUALSTYLE
  5
64
102
{ACAD_REACTORS
330
16
102
}
330
16
100
AcDbVisualStyle
  2
Gouraud
 70
2
177
3
291
1
 70
58
 90
2
176
1
 90
2
176
1
 90
0
176
1
 90
2
176
1
 40
0.6
176
1
 40
30.0
176
1
 62
7
420
16777215
176
1
 90
1
176
1
 90
4
176
1
 62
7
176
1
 62
257
176
1
 90
1
176
1
 90
1
176
1
 40
1.0
176
1
 90
8
176
1
 62
7
176
1
 40
1.0
176
1
 90
1
176
1
 90
6
176
1
 90
2
176
1
 62
7
176
1
 90
5
176
1
 90
0
176
1
 90
0
176
1
290
0
176
1
 90
1
176
1
 40
0.0
176
1
 90
0
176
1
290
0
176
1
290
1
176
1
290
1
176
1
290
0
176
1
290
0
176
1
290
0
176
1
290
0
176
1
290
0
176
1
290
0
176
1
 90
50
176
1
 40
0.0
176
1
 40
1.0
176
1
 90
0
176
1
 62
18
420
0
176
1
 90
50
176
1
 90
3
176
1
 62
5
420
255
176
1
290
0
176
1
 90
50
176
1
 90
50
176
1
 90
50
176
1
290
0
176
1
 90
50
176
1
 62
256
176
0
 40
1.0
176
0
 90
2
176
1
  1
strokes_ogs.tif
176
1
290
0
176
1
 40
1.0
176
1
 40
1.0
176
1
  0
VISUALSTYLE
  5
65
102
{ACAD_REACTORS
330
16
102
}
330
16
100
AcDbVisualStyle
  2
GouraudWithEdges
 70
3
177
3
291
1
 70
58
 90
2
176
1
 90
2
176
1
 90
0
176
1
 90
2
176
1
 40
0.6
176
1
 40
30.0
176
1
 62
7
420
16777215
176
1
 90
1
176
1
 90
4
176
1
 62
7
176
1
 62
257
176
1
 90
1
176
1
 90
1
176
1
 40
1.0
176
1
 90
8
176
1
 62
7
176
1
 40
1.0
176
1
 90
1
176
1
 90
6
176
1
 90
2
176
1
 62
7
176
1
 90
5
176
1
 90
0
176
1
 90
0
176
1
290
0
176
1
 90
1
176
1
 40
0.0
176
1
 90
0
176
1
290
0
176
1
290
1
176
1
290
1
176
1
290
0
176
1
290
0
176
1
290
0
176
1
290
0
176
1
290
0
176
1
290
0
176
1
 90
50
176
1
 40
0.0
176
1
 40
1.0
176
1
 90
0
176
1
 62
18
420
0
176
1
 90
50
176
1
 90
3
176
1
 62
5
420
255
176
1
290
0
176
1
 90
50
176
1
 90
50
176
1
 90
50
176
1
290
0
176
1
 90
50
176
1
 62
256
176
0
 40
1.0
176
0
 90
2
176
1
  1
strokes_ogs.tif
176
1
290
0
176
1
 40
1.0
176
1
 40
1.0
176
1
  0
VISUALSTYLE
  5
66
102
{ACAD_REACTORS
330
16
102
}
330
16
100
AcDbVisualStyle
  2
Hidden
 70
6
177
3
291
0
 70
58
 90
2
176
1
 90
2
176
1
 90
0
176
1
 90
1
176
1
 40
0.6
176
1
 40
30.0
176
1
 62
7
420
16777215
176
1
 90
1
176
1
 90
4
176
1
 62
7
176
1
 62
257
176
1
 90
1
176
1
 90
1
176
1
 40
1.0
176
1
 90
8
176
1
 62
7
176
1
 40
1.0
176
1
 90
1
176
1
 90
6
176
1
 90
2
176
1
 62
7
176
1
 90
5
176
1
 90
0
176
1
 90
0
176
1
290
0
176
1
 90
1
176
1
 40
0.0
176
1
 90
0
176
1
290
0
176
1
290
1
176
1
290
1
176
1
290
0
176
1
290
0
176
1
290
0
176
1
290
0
176
1
290
0
176
1
290
0
176
1
 90
50
176
1
 40
0.0
176
1
 40
1.0
176
1
 90
0
176
1
 62
18
420
0
176
1
 90
50
176
1
 90
3
176
1
 62
5
420
255
176
1
290
0
176
1
 90
50
176
1
 90
50
176
1
 90
50
176
1
290
0
176
1
 90
50
176
1
 62
256
176
0
 40
1.0
176
0
 90
2
176
1
  1
strokes_ogs.tif
176
1
290
0
176
1
 40
1.0
176
1
 40
1.0
176
1
  0
VISUALSTYLE
  5
67
102
{ACAD_REACTORS
330
16
102
}
330
16
100
AcDbVisualStyle
  2
JitterOff
 70
20
177
3
291
1
 70
58
 90
2
176
1
 90
2
176
1
 90
0
176
1
 90
2
176
1
 40
0.6
176
1
 40
30.0
176
1
 62
7
420
16777215
176
1
 90
1
176
1
 90
4
176
1
 62
7
176
1
 62
257
176
1
 90
1
176
1
 90
1
176
1
 40
1.0
176
1
 90
8
176
1
 62
7
176
1
 40
1.0
176
1
 90
1
176
1
 90
6
176
1
 90
2
176
1
 62
7
176
1
 90
5
176
1
 90
0
176
1
 90
0
176
1
290
0
176
1
 90
1
176
1
 40
0.0
176
1
 90
0
176
1
290
0
176
1
290
1
176
1
290
1
176
1
290
0
176
1
290
0
176
1
290
0
176
1
290
0
176
1
290
0
176
1
290
0
176
1
 90
50
176
1
 40
0.0
176
1
 40
1.0
176
1
 90
0
176
1
 62
18
420
0
176
1
 90
50
176
1
 90
3
176
1
 62
5
420
255
176
1
290
0
176
1
 90
50
176
1
 90
50
176
1
 90
50
176
1
290
0
176
1
 90
50
176
1
 62
256
176
0
 40
1.0
176
0
 90
2
176
1
  1
strokes_ogs.tif
176
1
290
0
176
1
 40
1.0
176
1
 40
1.0
176
1
  0
VISUALSTYLE
  5
68
102
{ACAD_REACTORS
330
16
102
}
330
16
100
AcDbVisualStyle
  2
Linepattern
 70
14
177
3
291
1
 70
58
 90
2
176
1
 90
2
176
1
 90
0
176
1
 90
2
176
1
 40
0.6
176
1
 40
30.0
176
1
 62
7
420
16777215
176
1
 90
1
176
1
 90
4
176
1
 62
7
176
1
 62
257
176
1
 90
1
176
1
 90
1
176
1
 40
1.0
176
1
 90
8
176
1
 62
7
176
1
 40
1.0
176
1
 90
1
176
1
 90
6
176
1
 90
2
176
1
 62
7
176
1
 90
5
176
1
 90
0
176
1
 90
0
176
1
290
0
176
1
 90
1
176
1
 40
0.0
176
1
 90
0
176
1
290
0
176
1
290
1
176
1
290
1
176
1
290
0
176
1
290
0
176
1
290
0
176
1
290
0
176
1
290
0
176
1
290
0
176
1
 90
50
176
1
 40
0.0
176
1
 40
1.0
176
1
 90
0
176
1
 62
18
420
0
176
1
 90
50
176
1
 90
3
176
1
 62
5
420
255
176
1
290
0
176
1
 90
50
176
1
 90
50
176
1
 90
50
176
1
290
0
176
1
 90
50
176
1
 62
256
176
0
 40
1.0
176
0
 90
2
176
1
  1
strokes_ogs.tif
176
1
290
0
176
1
 40
1.0
176
1
 40
1.0
176
1
  0
VISUALSTYLE
  5
69
102
{ACAD_REACTORS
330
16
102
}
330
16
100
AcDbVisualStyle
  2
Modeling
 70
10
177
3
291
0
 70
58
 90
2
176
1
 90
2
176
1
 90
0
176
1
 90
2
176
1
 40
0.6
176
1
 40
30.0
176
1
 62
7
420
16777215
176
1
 90
1
176
1
 90
4
176
1
 62
7
176
1
 62
257
176
1
 90
1
176
1
 90
1
176
1
 40
1.0
176
1
 90
8
176
1
 62
7
176
1
 40
1.0
176
1
 90
1
176
1
 90
6
176
1
 90
2
176
1
 62
7
176
1
 90
5
176
1
 90
0
176
1
 90
0
176
1
290
0
176
1
 90
1
176
1
 40
0.0
176
1
 90
0
176
1
290
0
176
1
290
1
176
1
290
1
176
1
290
0
176
1
290
0
176
1
290
0
176
1
290
0
176
1
290
0
176
1
290
0
176
1
 90
50
176
1
 40
0.0
176
1
 40
1.0
176
1
 90
0
176
1
 62
18
420
0
176
1
 90
50
176
1
 90
3
176
1
 62
5
420
255
176
1
290
0
176
1
 90
50
176
1
 90
50
176
1
 90
50
176
1
290
0
176
1
 90
50
176
1
 62
256
176
0
 40
1.0
176
0
 90
2
176
1
  1
strokes_ogs.tif
176
1
290
0
176
1
 40
1.0
176
1
 40
1.0
176
1
  0
VISUALSTYLE
  5
6A
102
{ACAD_REACTORS
330
16
102
}
330
16
100
AcDbVisualStyle
  2
OverhangOff
 70
21
177
3
291
1
 70
58
 90
2
176
1
 90
2
176
1
 90
0
176
1
 90
2
176
1
 40
0.6
176
1
 40
30.0
176
1
 62
7
420
16777215
176
1
 90
1
176
1
 90
4
176
1
 62
7
176
1
 62
257
176
1
 90
1
176
1
 90
1
176
1
 40
1.0
176
1
 90
8
176
1
 62
7
176
1
 40
1.0
176
1
 90
1
176
1
 90
6
176
1
 90
2
176
1
 62
7
176
1
 90
5
176
1
 90
0
176
1
 90
0
176
1
290
0
176
1
 90
1
176
1
 40
0.0
176
1
 90
0
176
1
290
0
176
1
290
1
176
1
290
1
176
1
290
0
176
1
290
0
176
1
290
0
176
1
290
0
176
1
290
0
176
1
290
0
176
1
 90
50
176
1
 40
0.0
176
1
 40
1.0
176
1
 90
0
176
1
 62
18
420
0
176
1
 90
50
176
1
 90
3
176
1
 62
5
420
255
176
1
290
0
176
1
 90
50
176
1
 90
50
176
1
 90
50
176
1
290
0
176
1
 90
50
176
1
 62
256
176
0
 40
1.0
176
0
 90
2
176
1
  1
strokes_ogs.tif
176
1
290
0
176
1
 40
1.0
176
1
 40
1.0
176
1
  0
VISUALSTYLE
  5
6B
102
{ACAD_REACTORS
330
16
102
}
330
16
100
AcDbVisualStyle
  2
Realistic
 70
8
177
3
291
0
 70
58
 90
2
176
1
 90
2
176
1
 90
0
176
1
 90
2
176
1
 40
0.6
176
1
 40
30.0
176
1
 62
7
420
16777215
176
1
 90
1
176
1
 90
4
176
1
 62
7
176
1
 62
257
176
1
 90
1
176
1
 90
1
176
1
 40
1.0
176
1
 90
8
176
1
 62
7
176
1
 40
1.0
176
1
 90
1
176
1
 90
6
176
1
 90
2
176
1
 62
7
176
1
 90
5
176
1
 90
0
176
1
 90
0
176
1
290
0
176
1
 90
1
176
1
 40
0.0
176
1
 90
0
176
1
290
0
176
1
290
1
176
1
290
1
176
1
290
0
176
1
290
0
176
1
290
0
176
1
290
0
176
1
290
0
176
1
290
0
176
1
 90
50
176
1
 40
0.0
176
1
 40
1.0
176
1
 90
0
176
1
 62
18
420
0
176
1
 90
50
176
1
 90
3
176
1
 62
5
420
255
176
1
290
0
176
1
 90
50
176
1
 90
50
176
1
 90
50
176
1
290
0
176
1
 90
50
176
1
 62
256
176
0
 40
1.0
176
0
 90
2
176
1
  1
strokes_ogs.tif
176
1
290
0
176
1
 40
1.0
176
1
 40
1.0
176
1
  0
VISUALSTYLE
  5
6C
102
{ACAD_REACTORS
330
16
102
}
330
16
100
AcDbVisualStyle
  2
Shaded
 70
27
177
3
291
0
 70
58
 90
2
176
1
 90
2
176
1
 90
0
176
1
 90
2
176
1
 40
0.6
176
1
 40
30.0
176
1
 62
7
420
16777215
176
1
 90
1
176
1
 90
4
176
1
 62
7
176
1
 62
257
176
1
 90
1
176
1
 90
1
176
1
 40
1.0
176
1
 90
8
176
1
 62
7
176
1
 40
1.0
176
1
 90
1
176
1
 90
6
176
1
 90
2
176
1
 62
7
176
1
 90
5
176
1
 90
0
176
1
 90
0
176
1
290
0
176
1
 90
1
176
1
 40
0.0
176
1
 90
0
176
1
290
0
176
1
290
1
176
1
290
1
176
1
290
0
176
1
290
0
176
1
290
0
176
1
290
0
176
1
290
0
176
1
290
0
176
1
 90
50
176
1
 40
0.0
176
1
 40
1.0
176
1
 90
0
176
1
 62
18
420
0
176
1
 90
50
176
1
 90
3
176
1
 62
5
420
255
176
1
290
0
176
1
 90
50
176
1
 90
50
176
1
 90
50
176
1
290
0
176
1
 90
50
176
1
 62
256
176
0
 40
1.0
176
0
 90
2
176
1
  1
strokes_ogs.tif
176
1
290
0
176
1
 40
1.0
176
1
 40
1.0
176
1
  0
VISUALSTYLE
  5
6D
102
{ACAD_REACTORS
330
16
102
}
330
16
100
AcDbVisualStyle
  2
Shaded with edges
 70
26
177
3
291
0
 70
58
 90
2
176
1
 90
2
176
1
 90
0
176
1
 90
2
176
1
 40
0.6
176
1
 40
30.0
176
1
 62
7
420
16777215
176
1
 90
1
176
1
 90
4
176
1
 62
7
176
1
 62
257
176
1
 90
1
176
1
 90
1
176
1
 40
1.0
176
1
 90
8
176
1
 62
7
176
1
 40
1.0
176
1
 90
1
176
1
 90
6
176
1
 90
2
176
1
 62
7
176
1
 90
5
176
1
 90
0
176
1
 90
0
176
1
290
0
176
1
 90
1
176
1
 40
0.0
176
1
 90
0
176
1
290
0
176
1
290
1
176
1
290
1
176
1
290
0
176
1
290
0
176
1
290
0
176
1
290
0
176
1
290
0
176
1
290
0
176
1
 90
50
176
1
 40
0.0
176
1
 40
1.0
176
1
 90
0
176
1
 62
18
420
0
176
1
 90
50
176
1
 90
3
176
1
 62
5
420
255
176
1
290
0
176
1
 90
50
176
1
 90
50
176
1
 90
50
176
1
290
0
176
1
 90
50
176
1
 62
256
176
0
 40
1.0
176
0
 90
2
176
1
  1
strokes_ogs.tif
176
1
290
0
176
1
 40
1.0
176
1
 40
1.0
176
1
  0
VISUALSTYLE
  5
6E
102
{ACAD_REACTORS
330
16
102
}
330
16
100
AcDbVisualStyle
  2
Shades of Gray
 70
23
177
3
291
0
 70
58
 90
2
176
1
 90
2
176
1
 90
0
176
1
 90
2
176
1
 40
0.6
176
1
 40
30.0
176
1
 62
7
420
16777215
176
1
 90
1
176
1
 90
4
176
1
 62
7
176
1
 62
257
176
1
 90
1
176
1
 90
1
176
1
 40
1.0
176
1
 90
8
176
1
 62
7
176
1
 40
1.0
176
1
 90
1
176
1
 90
6
176
1
 90
2
176
1
 62
7
176
1
 90
5
176
1
 90
0
176
1
 90
0
176
1
290
0
176
1
 90
1
176
1
 40
0.0
176
1
 90
0
176
1
290
0
176
1
290
1
176
1
290
1
176
1
290
0
176
1
290
0
176
1
290
0
176
1
290
0
176
1
290
0
176
1
290
0
176
1
 90
50
176
1
 40
0.0
176
1
 40
1.0
176
1
 90
0
176
1
 62
18
420
0
176
1
 90
50
176
1
 90
3
176
1
 62
5
420
255
176
1
290
0
176
1
 90
50
176
1
 90
50
176
1
 90
50
176
1
290
0
176
1
 90
50
176
1
 62
256
176
0
 40
1.0
176
0
 90
2
176
1
  1
strokes_ogs.tif
176
1
290
0
176
1
 40
1.0
176
1
 40
1.0
176
1
  0
VISUALSTYLE
  5
6F
102
{ACAD_REACTORS
330
16
102
}
330
16
100
AcDbVisualStyle
  2
Sketchy
 70
24
177
3
291
0
 70
58
 90
2
176
1
 90
2
176
1
 90
0
176
1
 90
1
176
1
 40
0.6
176
1
 40
30.0
176
1
 62
7
420
16777215
176
1
 90
1
176
1
 90
4
176
1
 62
7
176
1
 62
257
176
1
 90
1
176
1
 90
1
176
1
 40
1.0
176
1
 90
8
176
1
 62
7
176
1
 40
1.0
176
1
 90
1
176
1
 90
6
176
1
 90
2
176
1
 62
7
176
1
 90
5
176
1
 90
0
176
1
 90
0
176
1
290
0
176
1
 90
1
176
1
 40
0.0
176
1
 90
0
176
1
290
0
176
1
290
1
176
1
290
1
176
1
290
0
176
1
290
0
176
1
290
0
176
1
290
0
176
1
290
0
176
1
290
0
176
1
 90
50
176
1
 40
0.0
176
1
 40
1.0
176
1
 90
0
176
1
 62
18
420
0
176
1
 90
50
176
1
 90
3
176
1
 62
5
420
255
176
1
290
0
176
1
 90
50
176
1
 90
50
176
1
 90
50
176
1
290
0
176
1
 90
50
176
1
 62
256
176
0
 40
1.0
176
0
 90
2
176
1
  1
strokes_ogs.tif
176
1
290
0
176
1
 40
1.0
176
1
 40
1.0
176
1
  0
VISUALSTYLE
  5
70
102
{ACAD_REACTORS
330
16
102
}
330
16
100
AcDbVisualStyle
  2
Thicken
 70
13
177
3
291
1
 70
58
 90
2
176
1
 90
2
176
1
 90
0
176
1
 90
2
176
1
 40
0.6
176
1
 40
30.0
176
1
 62
7
420
16777215
176
1
 90
1
176
1
 90
4
176
1
 62
7
176
1
 62
257
176
1
 90
1
176
1
 90
1
176
1
 40
1.0
176
1
 90
8
176
1
 62
7
176
1
 40
1.0
176
1
 90
1
176
1
 90
6
176
1
 90
2
176
1
 62
7
176
1
 90
5
176
1
 90
0
176
1
 90
0
176
1
290
0
176
1
 90
1
176
1
 40
0.0
176
1
 90
0
176
1
290
0
176
1
290
1
176
1
290
1
176
1
290
0
176
1
290
0
176
1
290
0
176
1
290
0
176
1
290
0
176
1
290
0
176
1
 90
50
176
1
 40
0.0
176
1
 40
1.0
176
1
 90
0
176
1
 62
18
420
0
176
1
 90
50
176
1
 90
3
176
1
 62
5
420
255
176
1
290
0
176
1
 90
50
176
1
 90
50
176
1
 90
50
176
1
290
0
176
1
 90
50
176
1
 62
256
176
0
 40
1.0
176
0
 90
2
176
1
  1
strokes_ogs.tif
176
1
290
0
176
1
 40
1.0
176
1
 40
1.0
176
1
  0
VISUALSTYLE
  5
71
102
{ACAD_REACTORS
330
16
102
}
330
16
100
AcDbVisualStyle
  2
Wireframe
 70
5
177
3
291
0
 70
58
 90
2
176
1
 90
2
176
1
 90
0
176
1
 90
0
176
1
 40
0.6
176
1
 40
30.0
176
1
 62
7
420
16777215
176
1
 90
1
176
1
 90
4
176
1
 62
7
176
1
 62
257
176
1
 90
1
176
1
 90
1
176
1
 40
1.0
176
1
 90
8
176
1
 62
7
176
1
 40
1.0
176
1
 90
1
176
1
 90
6
176
1
 90
2
176
1
 62
7
176
1
 90
5
176
1
 90
0
176
1
 90
0
176
1
290
0
176
1
 90
1
176
1
 40
0.0
176
1
 90
0
176
1
290
0
176
1
290
1
176
1
290
1
176
1
290
0
176
1
290
0
176
1
290
0
176
1
290
0
176
1
290
0
176
1
290
0
176
1
 90
50
176
1
 40
0.0
176
1
 40
1.0
176
1
 90
0
176
1
 62
18
420
0
176
1
 90
50
176
1
 90
3
176
1
 62
5
420
255
176
1
290
0
176
1
 90
50
176
1
 90
50
176
1
 90
50
176
1
290
0
176
1
 90
50
176
1
 62
256
176
0
 40
1.0
176
0
 90
2
176
1
  1
strokes_ogs.tif
176
1
290
0
176
1
 40
1.0
176
1
 40
1.0
176
1
  0
VISUALSTYLE
  5
72
102
{ACAD_REACTORS
330
16
102
}
330
16
100
AcDbVisualStyle
  2
X-Ray
 70
25
177
3
291
0
 70
58
 90
2
176
1
 90
2
176
1
 90
0
176
1
 90
2
176
1
 40
0.5
176
1
 40
30.0
176
1
 62
7
420
16777215
176
1
 90
1
176
1
 90
4
176
1
 62
7
176
1
 62
257
176
1
 90
1
176
1
 90
1
176
1
 40
1.0
176
1
 90
8
176
1
 62
7
176
1
 40
1.0
176
1
 90
1
176
1
 90
6
176
1
 90
2
176
1
 62
7
176
1
 90
5
176
1
 90
0
176
1
 90
0
176
1
290
0
176
1
 90
1
176
1
 40
0.0
176
1
 90
0
176
1
290
0
176
1
290
1
176
1
290
1
176
1
290
0
176
1
290
0
176
1
290
0
176
1
290
0
176
1
290
0
176
1
290
0
176
1
 90
50
176
1
 40
0.0
176
1
 40
1.0
176
1
 90
0
176
1
 62
18
420
0
176
1
 90
50
176
1
 90
3
176
1
 62
5
420
255
176
1
290
0
176
1
 90
50
176
1
 90
50
176
1
 90
50
176
1
290
0
176
1
 90
50
176
1
 62
256
176
0
 40
1.0
176
0
 90
2
176
1
  1
strokes_ogs.tif
176
1
290
0
176
1
 40
1.0
176
1
 40
1.0
176
1
  0
DICTIONARYVAR
  5
35E
330
2D
100
DictionaryVariables
280
0
  1
1.4.4 @ 2026-08-03T16:44:19.629682+00:00
  0
ENDSEC
  0
EOF
